<?xml version="1.0" standalone="no"?>
<!DOCTYPE svg PUBLIC "-//W3C//DTD SVG 1.1//EN" "http://www.w3.org/Graphics/SVG/1.1/DTD/svg11.dtd">
<svg xmlns="http://www.w3.org/2000/svg">
<defs >
<font id="EBGaramond" horiz-adv-x="552" ><font-face
    font-family="EB Garamond SemiBold"
    units-per-em="1000"
    panose-1="0 0 7 0 0 0 0 0 0 0"
    ascent="1007"
    descent="-298"
    alphabetic="0" />
<glyph unicode=" " glyph-name="space" horiz-adv-x="225" />
<glyph unicode="!" glyph-name="exclam" horiz-adv-x="277" d="M125 187T120 197T110 234Q75 486 75 575Q75 604 94 626T140 649Q168 649 185 627T203 574Q203 534 196 476T174 314L162 234Q155 187 136 187Q125 187 120 197ZM108 -14T88 6T68 54Q68 82 88 102T136
123Q164 123 184 103T204 54Q204 26 184 6T136 -14Q108 -14 88 6Z" />
<glyph unicode="&quot;" glyph-name="quotedbl" horiz-adv-x="376" d="M72 420T70 428T67 446Q68 461 68 471T67 489V509Q67 539 63 583L61 618Q61 639 87 658Q105 671 116 676T142 681Q151 681 157 671T163 646Q163 607 144 550T103 449Q98 438 90 429T77 420Q72
420 70 428ZM223 420T221 428T218 446Q219 461 219 471T218 489V509Q218 539 214 583L212 618Q212 639 238 658Q256 671 267 676T293 681Q302 681 308 671T314 646Q314 607 295 550T254 449Q249 438 241 429T228 420Q223 420 221 428Z" />
<glyph unicode="#" glyph-name="numbersign" horiz-adv-x="479" d="M61 -88T57 -84T53 -73V-68L95 98L35 95Q27 95 22 100T16 112Q16 139 24 156T48 174L114 177L143 297L77 294Q69 294 64 299T59 311Q59 339 67 355T91 373L163 376L201 532Q204 545 213 549T239
554Q243 554 246 549T249 538L248 532L211 379L324 383L363 543Q366 556 375 560T401 565Q405 565 408 560T412 549Q412 547 411 546T410 543L372 386L431 389H433Q441 389 446 384T452 372Q452 352 441 332T414 310L352 307L322 186L388 189H390Q399 189 404 184T409
172Q409 152 398 132T372 111L303 108L263 -55Q260 -67 252 -71T229 -75Q223 -75 220 -70T216 -59V-55L256 105L142 100L100 -68Q97 -80 90 -84T67 -88Q61 -88 57 -84ZM275 184L304 305L191 300L161 179L275 184Z" />
<glyph unicode="$" glyph-name="dollar" horiz-adv-x="454" d="M165 -82T160 -75T155 -58L163 8V10Q163 14 157 16Q104 25 59 56Q48 64 42 76Q28 118 30 196Q30 208 48 208Q61 208 65 197Q79 149 104 116T160 68Q169 65 170 72L192 265V268Q192 276 182 282Q117
319 82 358T46 459Q46 529 95 577T227 633Q237 633 237 640L242 694Q243 703 253 707T276 712Q283 712 287 706T290 690L285 639Q285 632 292 631Q327 625 366 609Q376 605 380 600T389 583Q403 531 403 482Q403 477 399 474T387 471Q378 471 371 475T361 485Q331
565 283 583Q277 583 277 577L257 408Q256 400 259 396T278 382Q349 340 382 298T416 196Q416 113 363 66T218 13Q212 13 211 6L202 -69Q201 -75 194 -78T175 -82Q165 -82 160 -75ZM211 424T211 432L229 577Q229 586 222 586Q155 574 155 503Q155 466 204 430Q211
424 211 432ZM264 63T284 87T305 147Q305 181 291 202T245 245Q238 249 238 240L218 69V66Q218 59 227 59Q264 63 284 87Z" />
<glyph unicode="%" glyph-name="percent" horiz-adv-x="685" d="M99 263T61 313T23 437Q23 514 63 565T170 616Q231 616 268 567T305 446Q305 365 265 314T159 263Q99 263 61 313ZM220 292T220 436Q220 498 207 541T161 585Q109 585 109 446Q109 381 122 337T168
292Q220 292 220 436ZM529 656T540 660T568 664Q575 664 580 659T585 649Q585 645 584 644L164 -18Q153 -36 122 -36Q114 -36 108 -32T101 -22Q101 -19 102 -18L522 644Q529 656 540 660ZM456 -17T418 33T380 157Q380 234 420 285T527 336Q588 336 625 287T662
166Q662 85 622 34T516 -17Q456 -17 418 33ZM577 12T577 156Q577 218 564 261T518 305Q466 305 466 166Q466 101 479 57T525 12Q577 12 577 156Z" />
<glyph unicode="&amp;" glyph-name="ampersand" horiz-adv-x="785" d="M164 -16T124 1T59 52T34 129Q34 194 76 248T194 338L215 348L204 359Q200 364 181 383T150 427T137 479Q137 513 159 541T220 584T305 600Q348 600 381 584T433 542T451 486Q451 445 425
419T345 373L326 366L344 347L374 316Q434 254 461 221L477 202L493 217Q523 248 547 285T572 338Q572 349 564 357T543 370Q526 376 526 386Q526 399 553 399Q567 399 588 396Q596 395 609 394T640 393Q661 393 705 403Q743 412 759 412Q764 412 768 408T773 400Q773
392 764 385T743 376Q699 369 657 331Q627 301 627 301Q497 177 496 176L515 153Q551 106 579 82T638 58Q681 58 716 74Q718 75 725 77T737 80Q745 80 748 78T752 66Q752 53 730 34T673 0T600 -15Q545 -15 512 7T436 84L420 105L415 99Q365 43 317 14T209 -16Q164
-16 124 1ZM320 395Q338 407 347 433T356 488Q356 521 342 544T300 567Q277 567 260 551T242 510Q242 476 253 454T289 406L308 387L320 395ZM340 69T390 122L398 130L384 149Q350 192 277 273L246 308L234 322L215 312Q147 282 147 190Q147 136 180 103T267 69Q340
69 390 122Z" />
<glyph unicode="&apos;" glyph-name="quotesingle" horiz-adv-x="225" d="M72 420T70 428T67 446Q68 461 68 471T67 489V509Q67 539 63 583L61 618Q61 639 87 658Q105 671 116 676T142 681Q151 681 157 671T163 646Q163 607 144 550T103 449Q98 438 90 429T77
420Q72 420 70 428Z" />
<glyph unicode="(" glyph-name="parenleft" horiz-adv-x="308" d="M226 -215T213 -204Q177 -168 136 -86T66 92T37 268Q37 347 64 430T130 583T208 690Q215 697 226 701T248 706Q257 706 268 699T280 682Q280 680 273 670T261 655Q214 596 179 495T143 275Q143
199 159 112T202 -48T256 -154Q258 -157 267 -169T277 -182Q277 -197 265 -206T238 -215Q226 -215 213 -204Z" />
<glyph unicode=")" glyph-name="parenright" horiz-adv-x="308" d="M55 -215T43 -206T31 -182Q31 -181 40 -169T52 -154Q79 -121 105 -49T148 111T165 275Q165 393 130 494T47 655Q43 660 36 670T28 682Q28 691 39 698T60 706Q71 706 82 702T100 690Q138 652 177
583T244 431T271 268Q271 189 243 93T173 -86T95 -204Q82 -215 70 -215Q55 -215 43 -206Z" />
<glyph unicode="*" glyph-name="asterisk" horiz-adv-x="352" d="M182 359T175 367T165 386L152 464L114 441L83 422Q71 416 64 416Q54 416 47 422T39 439Q39 446 43 452T53 464L115 513Q104 520 82 530L44 550Q36 554 31 561T26 578Q26 588 33 594T52 601Q58
601 66 598L101 584L139 568Q136 607 136 648Q136 661 142 670T161 680Q171 680 178 672T188 653L199 575L216 586Q241 604 265 618Q275 625 285 625Q294 625 301 619T309 602Q309 589 297 577L236 527Q241 524 255 518L307 492Q315 488 320 481T326 466Q326 455
318 449T298 442Q291 442 287 443L213 471L214 451Q216 435 218 390Q218 377 212 368T192 359Q182 359 175 367Z" />
<glyph unicode="+" glyph-name="plus" horiz-adv-x="598" d="M278 -10T275 -6T271 5V211Q271 220 262 220H55Q49 220 44 224T39 233Q39 246 46 262T66 278H260Q267 278 269 280T271 289V466Q271 479 288 489T317 499Q324 499 328 494T332 480V288Q332 282 333
280T340 278H545Q552 278 557 274T563 264Q563 250 554 235T531 220H341Q332 220 332 211V17Q332 3 315 -3T283 -10Q278 -10 275 -6Z" />
<glyph unicode="," glyph-name="comma" horiz-adv-x="242" d="M34 -159T28 -155T21 -144Q21 -138 25 -135T41 -130Q81 -119 105 -95T130 -34Q130 -19 118 -7T89 10Q69 14 57 27T45 62Q45 85 65 102T110 119Q152 119 178 91T205 17Q205 -33 181 -73T118 -136T44
-159Q34 -159 28 -155Z" />
<glyph unicode="-" glyph-name="hyphen" horiz-adv-x="302" d="M30 166T29 168T27 175Q27 201 32 217T47 234Q154 251 262 262Q275 262 275 250Q275 222 271 209T255 194Q123 175 36 166Q30 166 29 168Z" />
<glyph unicode="." glyph-name="period" horiz-adv-x="242" d="M91 -25T70 -4T48 47Q48 78 69 99T120 121Q151 121 172 100T194 47Q194 18 173 -3T120 -25Q91 -25 70 -4Z" />
<glyph unicode="/" glyph-name="slash" horiz-adv-x="403" d="M26 -62T20 -57T17 -44L323 646Q329 658 339 662T366 666Q377 666 382 660T384 646L78 -44Q73 -55 63 -58T36 -62Q26 -62 20 -57Z" />
<glyph unicode="0" glyph-name="zero" horiz-adv-x="513" d="M439 -14T389 32T313 151T288 302Q288 384 313 459T391 582T522 631Q594 631 644 585T720 466T746 317Q746 236 721 160T642 35T511 -14Q439 -14 389 32ZM576 25T599 103T623 299Q623 373 609 440T569
550T505 592Q457 592 434 515T411 319Q411 244 424 177T463 68T527 25Q576 25 599 103Z" />
<glyph unicode="1" glyph-name="one" horiz-adv-x="513" d="M107 -3T102 1T97 11Q97 24 114 29Q152 38 170 45T200 65T211 102V471Q211 501 189 512T126 530Q116 531 108 536T100 551Q100 560 108 566T129 573Q186 579 228 592T312 634Q314 636 321 636Q328 636
333 633T338 626Q337 617 335 597T333 554V98Q333 77 343 65T373 46T433 28Q451 23 451 11Q451 5 447 2T436 -2Q410 -2 352 0Q296 2 275 2Q253 2 195 0Q153 -3 114 -3Q107 -3 102 1Z" />
<glyph unicode="2" glyph-name="two" horiz-adv-x="513" d="M395 -3Q313 1 257 1Q234 1 108 -2L70 -3Q67 -3 59 3T50 14Q50 23 55 28T62 34L216 201Q324 319 324 445Q324 492 299 521T234 550Q199 550 167 530T111 480Q97 462 83 462Q77 462 73 468T69 487Q69
508 98 543T174 604T276 630Q350 630 393 583T437 463Q437 424 414 374T359 287Q341 267 236 162Q170 100 170 96Q170 92 185 90Q216 86 274 86Q330 86 371 90Q408 93 428 105T463 146Q467 154 474 161T490 168Q496 168 499 163T500 151Q497 139 491 124Q487 112
476 75T461 19Q460 8 453 2T440 -4L395 -3Z" />
<glyph unicode="3" glyph-name="three" horiz-adv-x="513" d="M134 -38T99 -23T64 9Q64 27 76 46T102 65Q116 65 133 48Q153 27 170 15T209 3Q242 3 271 21T317 72T335 148Q335 210 307 252T231 294Q202 294 166 275Q162 273 159 273Q152 273 147 277T143 287Q151
318 181 333Q236 361 269 395T303 475Q303 511 279 536T219 562Q179 562 155 543T110 496Q98 479 94 479Q88 479 81 486T74 502Q74 520 96 550T163 605T273 629Q330 629 372 596T414 511Q414 470 383 428T289 365Q286 363 286 361T290 359Q338 359 377 339T438
284T460 202Q460 131 419 77T311 -8T169 -38Q134 -38 99 -23Z" />
<glyph unicode="4" glyph-name="four" horiz-adv-x="513" d="M207 -3T200 1T193 11Q193 25 214 29Q256 36 270 48T285 89V158Q285 163 280 165T269 168Q236 168 154 164Q78 160 34 160Q29 160 25 162T21 169Q21 173 24 177Q43 201 57 220L310 609Q318 623 329
632T350 642H362Q369 642 369 634Q369 627 366 624L120 246Q118 243 118 239Q118 233 125 233H276Q279 233 282 235T285 240V372Q285 387 287 393T299 403Q319 413 344 417T385 421Q401 421 404 406T408 349V235Q408 229 413 229Q429 228 450 228Q462 228 508 230Q513
230 516 228T520 222Q520 210 512 189T498 167L450 168Q440 168 422 166Q418 165 414 163T409 160V92Q409 64 422 52T475 29Q496 23 496 11Q496 5 491 2T478 -2Q452 -2 406 0Q364 2 345 2Q322 2 282 0Q249 -3 214 -3Q207 -3 200 1Z" />
<glyph unicode="5" glyph-name="five" horiz-adv-x="513" d="M80 -38T80 -24Q80 -15 92 -10T120 -3Q184 1 233 26T308 89T334 165Q334 221 287 259T128 328Q103 338 94 349T84 378Q84 409 122 526L129 549Q138 585 174 594Q217 604 289 615T394 629Q401 629 405
623T407 609Q405 596 397 578T386 555Q378 537 364 526T331 513L242 507Q179 503 164 501Q154 500 144 480T134 450Q134 436 145 435Q242 413 324 373Q441 316 441 198Q441 143 408 93T318 11Q282 -9 230 -23T125 -38Q80 -38 80 -24Z" />
<glyph unicode="6" glyph-name="six" horiz-adv-x="513" d="M173 -15T117 41T60 193Q60 346 175 474Q216 519 284 564T433 636Q444 640 456 640Q471 640 470 633Q468 624 461 619T437 605Q379 579 338 544T263 457Q232 410 206 340T179 197Q179 144 195 106T237
47T290 27Q326 27 349 58T372 148Q372 193 349 227T294 261Q262 261 241 251Q234 248 229 248Q221 248 221 255Q221 261 228 270Q238 281 252 292Q270 306 299 319T354 332Q390 332 421 314T472 265T492 197Q492 142 462 93T381 15T269 -15Q173 -15 117 41Z" />
<glyph unicode="7" glyph-name="seven" horiz-adv-x="513" d="M142 -30T135 -22T128 0Q128 4 142 28L153 47L408 503Q410 507 410 509Q410 515 397 515H163Q137 515 122 507T90 475Q89 473 77 453T50 433Q44 433 41 437T37 448Q37 454 40 468T45 487L49 508Q64
575 67 612Q67 620 72 623T84 627Q91 626 119 622T177 616L323 615Q470 615 505 619Q509 619 511 613T514 600Q514 593 494 562L476 533L176 0Q160 -30 155 -30Q142 -30 135 -22Z" />
<glyph unicode="8" glyph-name="eight" horiz-adv-x="513" d="M204 -13T160 7T89 62T62 143Q62 177 79 202T120 244T182 282L200 292Q206 295 206 298Q206 301 197 308Q158 339 135 362T96 415T80 484Q80 525 109 558T186 610T283 629Q328 629 368 612T433 563T458
491Q458 429 400 392L381 380Q370 374 353 362Q338 352 338 347Q338 344 342 342T348 338Q414 294 446 258T478 171Q478 117 448 75T367 10T257 -13Q204 -13 160 7ZM348 408T348 496Q348 538 329 565T273 593Q241 593 216 569T191 510Q191 471 211 447T275 389Q274
390 292 375Q303 366 310 373Q348 408 348 496ZM312 25T337 53T363 121Q363 186 254 266Q242 276 237 276Q232 276 224 269Q199 247 188 221T177 153Q177 102 204 64T274 25Q312 25 337 53Z" />
<glyph unicode="9" glyph-name="nine" horiz-adv-x="513" d="M65 -44T60 -40T54 -31Q54 -22 61 -17T77 -11Q127 -7 186 34T289 134Q384 256 384 389Q384 435 368 480T324 554T267 583Q227 583 206 553T184 472Q184 442 196 413T227 366T268 348Q284 348 294 351T312
358T324 364L333 366Q343 366 343 357Q343 351 337 343Q332 335 324 327T312 316Q298 304 270 292T218 279Q181 279 146 297T89 349T67 421Q67 466 98 515T181 596T293 629Q347 629 394 597T470 511T499 400Q499 245 353 95Q301 43 217 0T76 -44Q65 -44 60 -40Z"
/>
<glyph unicode=":" glyph-name="colon" horiz-adv-x="271" d="M101 251T80 272T58 323Q58 354 79 375T130 397Q161 397 182 376T204 323Q204 294 183 273T130 251Q101 251 80 272ZM101 -25T80 -4T58 47Q58 78 79 99T130 121Q161 121 182 100T204 47Q204 18 183
-3T130 -25Q101 -25 80 -4Z" />
<glyph unicode=";" glyph-name="semicolon" horiz-adv-x="241" d="M81 252T60 273T38 324Q38 355 59 376T110 398Q141 398 162 377T184 324Q184 295 163 274T110 252Q81 252 60 273ZM34 -159T28 -155T21 -144Q21 -138 25 -135T41 -130Q81 -119 105 -95T130 -34Q130
-19 118 -7T89 10Q69 14 57 27T45 62Q45 85 65 102T110 119Q152 119 178 91T205 17Q205 -33 181 -73T118 -136T44 -159Q34 -159 28 -155Z" />
<glyph unicode="&lt;" glyph-name="less" horiz-adv-x="547" d="M89 191Q43 213 43 221Q43 230 54 247T80 270L483 468L490 470Q504 470 504 452Q504 439 495 424T470 402L135 237Q132 235 132 233T135 229L473 64Q487 58 495 43T504 15Q504 3 497 -1T482 -1L89 191Z" />
<glyph unicode="=" glyph-name="equal" horiz-adv-x="608" d="M56 315T52 319T47 328Q47 340 54 355T73 370H542Q549 370 555 366T561 356Q561 344 551 330T529 315H62Q56 315 52 319ZM56 138T52 142T47 150Q47 162 54 177T73 192H542Q550 192 555 188T561 178Q561
165 551 152T529 138H62Q56 138 52 142Z" />
<glyph unicode="&gt;" glyph-name="greater" horiz-adv-x="547" d="M458 274Q504 252 504 244Q504 235 493 218T467 195L64 -3L57 -5Q43 -5 43 13Q43 26 52 41T77 63L412 228Q415 230 415 232T412 236L74 401Q60 407 52 422T43 450Q43 462 50 466T65 466L458 274Z" />
<glyph unicode="?" glyph-name="question" horiz-adv-x="389" d="M136 176T128 184T113 206Q104 228 99 247T93 294Q93 324 119 347T205 399Q268 430 268 473Q268 509 245 530T184 553Q164 553 143 545Q123 540 113 540Q94 540 77 565T60 616Q60 633 78 647T119
661Q153 661 188 644T253 595Q290 556 312 507T335 415Q335 379 322 356T288 323Q258 307 224 287Q214 280 200 272Q180 261 172 245T162 199Q161 189 156 183T143 176Q136 176 128 184ZM119 -14T99 6T78 54Q78 83 98 103T147 123Q175 123 195 103T215 54Q215 26
195 6T147 -14Q119 -14 99 6Z" />
<glyph unicode="@" glyph-name="at" horiz-adv-x="770" d="M299 -146T218 -104T88 13T39 183Q39 292 91 369T230 487T422 527Q504 527 575 489T688 385T731 240Q731 181 702 134T624 60T522 33Q499 33 487 41T465 61T452 73Q449 73 428 61T380 40T323 31Q265 31
227 63T189 152Q189 218 220 268T303 346T418 374Q434 374 455 371T488 365Q495 363 503 360T514 357Q519 357 527 368T542 380Q548 380 559 378T569 371Q561 352 554 324T544 279L521 144Q520 140 519 133T518 119Q518 90 536 90Q571 90 601 106T650 153T669 223Q669
295 635 352T541 442T406 475Q324 475 254 440T143 341T101 194Q101 114 142 48T254 -56T405 -94Q452 -94 513 -73T614 -22Q633 -7 642 -7Q663 -7 663 -24Q663 -39 618 -69T509 -122T393 -146Q299 -146 218 -104ZM378 78T391 83T419 99Q429 105 434 116T444 149L465
260Q466 263 466 272Q466 300 446 317T394 334Q365 334 339 316T297 262T281 178Q281 128 305 103T361 78Q378 78 391 83Z" />
<glyph unicode="A" glyph-name="A" horiz-adv-x="711" d="M-4 -5T-4 10Q-4 18 2 23T23 33Q85 49 108 103Q198 310 286 553Q295 580 300 599T308 626Q344 635 365 644Q381 652 391 664T404 679Q412 685 416 677Q418 673 425 652Q462 534 510 386T578 180L601 112Q614
74 635 57T690 31Q717 25 717 9Q717 -3 694 -3L625 -1Q580 2 540 2Q518 2 468 0Q422 -2 405 -2Q394 -2 387 1T380 12Q380 28 407 33Q441 39 456 49T472 78Q472 85 471 88Q463 132 436 224Q434 233 430 236T415 239H235Q223 239 218 221Q188 132 181 99Q180 94 180
85Q180 64 194 52T241 32Q268 26 268 11Q268 5 262 2T244 -2L196 -1Q162 1 140 1Q126 1 108 0T80 -2Q52 -5 24 -5Q-4 -5 -4 10ZM401 285Q409 285 412 286T415 291Q415 292 413 302L343 533Q338 547 336 547Q335 547 329 534L245 302Q243 298 243 294Q243 285 262
285H401Z" />
<glyph unicode="B" glyph-name="B" horiz-adv-x="613" d="M31 -5T24 -1T17 9Q17 22 43 28Q81 38 96 52T111 97V550Q111 584 98 599T48 620Q35 622 29 627T22 640Q22 647 28 650T46 654Q88 654 117 651Q149 649 171 649Q184 649 199 650T223 652Q258 657 303 657Q425
657 483 623T542 508Q542 478 530 451T497 407Q481 392 465 383T426 367Q422 365 422 362T426 357Q493 341 536 306T580 194Q580 143 564 110T526 60T475 28Q409 -4 302 -4Q286 -4 248 -2Q204 0 179 0Q155 0 111 -2Q77 -5 41 -5Q31 -5 24 -1ZM338 369T379 397Q392
408 403 430T415 490Q415 618 298 618Q266 618 253 608T240 574V405Q240 386 253 378T282 369Q338 369 379 397ZM342 46T372 64T420 115T438 187Q438 235 421 264T380 307Q367 316 344 323T290 330Q269 330 255 321T240 297V112Q240 46 307 46Q342 46 372 64Z"
/>
<glyph unicode="C" glyph-name="C" horiz-adv-x="709" d="M305 -14T220 28T85 145T34 319Q34 412 85 491T227 617T433 664Q480 664 522 656T614 632Q636 625 639 602Q647 538 647 484Q648 476 643 472T630 467Q623 467 618 471T610 483Q600 518 590 539T560 577Q510
619 420 619Q350 619 296 581T211 480T181 345Q181 258 209 187T293 73T423 31Q495 31 542 62T621 158Q625 165 630 169T642 173Q648 173 652 169T657 157Q657 140 651 109T634 48Q629 36 623 31T605 20Q568 4 516 -5T405 -14Q305 -14 220 28Z" />
<glyph unicode="D" glyph-name="D" horiz-adv-x="762" d="M352 -7T274 -3Q251 -2 225 -1T174 0Q155 0 115 -2Q71 -4 44 -4Q34 -4 28 0T21 10Q21 18 27 22T47 30Q85 38 99 52T113 98V550Q113 583 100 597T47 620Q34 622 28 626T21 640Q21 646 27 650T44 654Q67
654 113 652Q155 650 177 650Q198 650 272 654Q337 659 370 659Q480 659 562 618T688 503T733 338Q733 246 689 167T564 41T379 -7Q352 -7 274 -3ZM470 39T529 114T589 315Q589 404 559 472T475 576T353 613Q310 613 289 611T255 599T243 568V128Q243 79 274 59T365
39Q470 39 529 114Z" />
<glyph unicode="E" glyph-name="E" horiz-adv-x="571" d="M39 -5T32 -1T25 9Q25 22 51 28Q88 38 103 51T118 97V550Q118 583 105 597T54 620Q28 625 28 640Q28 647 34 650T52 654Q82 654 134 652Q186 650 211 650Q291 650 401 652Q432 653 454 655T481 657Q502
657 504 642L511 597Q520 545 520 521Q520 513 516 508T506 503Q496 503 490 517Q482 538 475 556T459 583Q431 613 388 613H295Q276 613 262 602T247 573V377Q247 354 270 354H361Q386 354 397 367T419 410Q425 430 438 430Q443 430 447 425T451 410Q447 370 447
333Q447 282 450 252V247Q450 229 440 229Q433 229 427 236T417 257Q409 286 398 299T368 313H275Q260 313 254 308T247 289V99Q247 67 260 54T304 41H386Q440 41 467 61Q494 82 524 139Q531 152 542 152Q552 151 552 135Q552 103 521 10Q515 -4 501 -4L381 -2Q253
0 180 0Q161 0 117 -2Q84 -5 49 -5Q39 -5 32 -1Z" />
<glyph unicode="F" glyph-name="F" horiz-adv-x="535" d="M36 -4T29 -1T22 9Q22 24 47 30Q86 38 100 51T114 98V538Q114 577 101 595T53 620Q27 625 27 640Q27 654 51 654Q80 654 132 652Q182 650 207 650H366Q392 650 443 657Q477 661 486 661Q494 661 500 657T508
645Q513 582 513 521Q513 512 510 507T502 501Q496 501 491 505T484 516Q469 565 452 583Q426 610 381 610H290Q267 610 255 597T243 562V473V376Q243 353 262 353L320 354Q336 355 365 355Q387 355 401 367T425 403Q427 410 433 415T444 420Q449 420 453 415T457
401Q453 365 453 334Q453 310 456 265V260Q456 242 447 242Q439 242 433 249T423 266Q415 292 403 302T374 313L326 314Q285 314 265 313Q242 311 242 289Q242 225 244 99Q245 68 260 53T317 30Q330 27 336 23T342 10Q342 -3 320 -3Q281 -3 245 0Q201 2 184 2Q151
2 118 -1Q106 -2 84 -3T45 -4Q36 -4 29 -1Z" />
<glyph unicode="G" glyph-name="G" horiz-adv-x="722" d="M288 -14T208 28T81 145T34 313Q34 407 82 487T216 616T409 664Q448 664 514 653T609 629Q624 622 625 609Q636 528 636 494Q636 486 632 480T620 474Q610 474 605 480T595 498Q573 544 552 567Q505 616
414 616Q343 616 290 578T208 475T179 335Q179 244 206 176T284 71T399 34Q451 34 485 63Q496 71 503 90T511 132L513 206Q513 231 496 239Q484 249 462 255T421 263Q413 265 406 270T398 283Q398 290 405 294T419 299Q442 299 490 297Q540 295 563 295Q580 295
618 297Q654 299 675 299Q682 299 688 295T694 283Q694 275 688 271T674 264Q648 257 638 247T625 215Q618 181 618 140V109Q618 103 623 98T629 91Q631 89 635 83T640 71Q640 52 622 50Q616 49 595 39Q550 17 499 2T383 -14Q288 -14 208 28Z" />
<glyph unicode="H" glyph-name="H" horiz-adv-x="804" d="M39 -4T32 0T25 10Q25 18 31 22T50 30Q85 38 97 51T110 98V551Q110 585 100 598T53 620Q28 624 28 640Q28 647 34 650T51 654Q78 654 120 652Q160 650 177 650Q195 650 237 652Q283 654 310 654Q331 654
331 639Q331 631 326 627T306 620Q267 610 254 596T240 550V364Q240 352 255 352H554Q565 352 565 366V551Q565 580 552 595T500 620Q486 623 480 627T474 639Q474 654 496 654Q522 654 570 652Q614 650 634 650Q650 650 686 652Q726 654 754 654Q764 654 770 651T777
640Q777 625 752 620Q717 612 706 598T695 551V98Q695 65 706 51T753 30Q766 27 772 23T778 10Q778 4 771 0T755 -4Q721 -4 688 -1Q648 1 629 1Q611 1 567 -1Q521 -3 495 -3Q474 -3 474 11Q474 19 479 23T498 30Q535 38 550 53T565 98V288Q565 304 555 304H251Q245
304 243 301T240 289V102Q240 72 257 55T311 30Q325 27 330 23T336 11Q336 -3 314 -3Q288 -3 242 -1Q196 1 177 1Q157 1 115 -1Q82 -4 48 -4Q39 -4 32 0Z" />
<glyph unicode="I" glyph-name="I" horiz-adv-x="356" d="M31 -4T24 -1T17 9Q17 24 42 30Q82 38 98 52T114 97V551Q114 584 100 598T47 620Q22 624 22 641Q22 647 29 650T45 654Q70 654 116 652Q160 650 180 650Q200 650 242 652Q290 654 314 654Q324 654 330
651T336 640Q336 632 330 628T311 620Q271 610 257 596T243 550V98Q243 68 259 54T314 30Q327 27 333 23T340 10Q340 -3 318 -3Q292 -3 244 -1Q200 1 180 1Q158 1 112 -1Q78 -4 40 -4Q31 -4 24 -1Z" />
<glyph unicode="J" glyph-name="J" horiz-adv-x="360" d="M-14 -200T-46 -186T-78 -145Q-78 -126 -62 -109T-31 -91Q-7 -91 13 -115Q19 -122 29 -135T47 -153T62 -158Q126 -158 126 5V551Q126 583 112 597T60 620Q34 625 34 641Q34 647 41 650T57 654Q84 654 130
652Q172 650 192 650Q210 650 250 652Q294 654 320 654Q330 654 336 651T342 640Q342 632 336 628T317 620Q278 610 267 597T255 550V73Q255 28 232 -24T175 -119Q112 -200 49 -200Q-14 -200 -46 -186Z" />
<glyph unicode="K" glyph-name="K" horiz-adv-x="736" d="M40 -6T31 -2T22 9Q22 24 51 30Q88 37 101 51T114 99V551Q114 584 101 598T48 620Q22 625 22 641Q22 647 29 650T45 654Q71 654 117 652Q159 650 178 650Q196 650 236 652Q282 654 307 654Q317 654 323
651T329 640Q329 632 323 628T304 620Q266 611 255 597T243 550V352Q243 346 245 341T252 336Q261 336 277 352L472 558Q489 575 489 589Q489 598 481 605T456 617Q431 623 431 638Q431 644 438 647T454 651H518Q555 651 621 653L704 654Q715 654 722 651T729 641Q729
626 698 621Q609 608 544 557Q509 530 479 501T401 423Q401 423 365 387Q360 383 360 376Q360 370 367 361L608 97Q634 67 654 53T713 30Q730 25 737 21T745 10Q745 3 736 -1T709 -5Q666 -5 627 -2Q614 -1 589 0T544 1L493 0Q457 -2 433 -2Q424 -2 417 1T410 11Q410
19 415 23T433 31Q469 38 469 56Q469 68 453 86L274 290Q260 307 251 307Q243 307 243 288Q243 195 247 103Q249 70 260 54T307 30Q321 27 328 23T336 10Q336 4 328 0T307 -4Q272 -4 232 0Q208 3 184 3Q165 3 129 -1Q77 -6 51 -6Q40 -6 31 -2Z" />
<glyph unicode="L" glyph-name="L" horiz-adv-x="585" d="M36 -5T30 -1T23 9Q23 16 29 21T44 28Q82 38 98 51T114 95V555Q114 588 102 599T50 620Q24 625 24 641Q24 647 31 650T47 654Q75 654 119 652Q161 650 180 650Q201 650 249 652Q297 654 322 654Q332 654
338 651T344 640Q344 632 338 628T319 620Q276 609 260 598T243 558V101Q243 71 256 58T305 45H414Q436 45 455 53T487 73Q504 88 516 105T540 149Q554 180 565 180Q571 180 574 174T578 161L576 146Q562 97 556 71T547 13Q545 -5 531 -5Q498 -5 386 -3Q286 0 186
0Q184 0 94 -3L46 -5Q36 -5 30 -1Z" />
<glyph unicode="M" glyph-name="M" horiz-adv-x="912" d="M20 -4T20 9Q20 16 26 19T49 27Q74 35 90 55T111 106Q137 289 151 521V555Q150 570 146 580T130 597Q108 612 67 622Q43 627 43 643Q43 657 72 657Q100 657 145 654Q217 650 249 650Q256 650 262 645T271
633Q281 605 282 599L296 558L446 192Q450 185 455 185Q460 185 461 190L622 548Q634 606 642 634Q645 647 655 647H696Q738 649 774 653Q828 657 841 657Q864 657 864 644Q864 636 859 632T840 623Q815 614 802 608Q779 598 770 584T761 545Q764 439 768 352T779
180L785 97Q786 70 804 54T858 30Q872 27 878 23T885 10Q885 4 878 1T861 -3Q835 -3 787 -1Q739 1 720 1Q702 1 660 -1Q627 -4 590 -4Q579 -4 572 -1T565 9Q565 25 592 30Q627 36 639 50T651 97Q647 261 639 460Q639 467 635 467Q632 467 627 459L423 -1Q419 -10
411 -10Q407 -10 403 -8T398 -1Q365 82 281 276Q211 438 202 459Q199 465 195 465Q189 465 187 454Q172 313 172 103Q172 75 190 56T243 30Q257 27 264 23T272 10Q272 4 265 1T246 -3Q216 -3 188 -1Q164 1 147 1Q141 1 84 -2Q54 -4 45 -4Q20 -4 20 9Z" />
<glyph unicode="N" glyph-name="N" horiz-adv-x="804" d="M661 -18T633 -1T579 49Q539 93 497 141T418 230Q263 405 200 474Q190 486 184 486Q180 486 178 480T176 466V403L177 109Q177 77 195 58T252 30Q267 27 274 23T282 10Q282 4 274 1T255 -3Q225 -3 193
-1Q167 1 150 1Q139 1 91 -2Q67 -4 58 -4Q48 -4 40 -1T32 9Q32 17 39 21T60 30Q107 45 114 111Q133 315 133 508Q133 556 110 579T40 620Q29 623 20 629T11 643Q11 658 36 658Q59 658 105 656Q156 653 217 653Q229 653 238 640Q268 606 412 438Q567 256 618 199Q631
183 637 183Q641 183 643 187T646 200V357Q646 494 645 558Q644 581 626 596T576 618Q543 626 543 639Q543 645 552 648T573 652L657 651L705 652Q737 654 767 654Q779 654 786 651T794 641Q794 626 765 620Q729 613 715 601T700 561Q700 494 697 387Q693 219 693
141Q693 118 695 89T699 51Q702 30 702 20Q702 -18 676 -18Q661 -18 633 -1Z" />
<glyph unicode="O" glyph-name="O" horiz-adv-x="761" d="M285 -14T207 27T81 144T34 315Q34 407 75 487T195 615T385 664Q476 664 554 623T680 506T727 335Q727 243 686 163T566 35T376 -14Q285 -14 207 27ZM486 30T535 98T584 284Q584 373 560 449T486 572T367
619Q275 619 226 551T177 366Q177 277 201 201T273 77T393 30Q486 30 535 98Z" />
<glyph unicode="P" glyph-name="P" horiz-adv-x="589" d="M33 -4T26 -1T19 9Q19 24 44 30Q83 38 98 52T114 98V538Q114 577 101 595T53 620Q27 625 27 640Q27 654 51 654Q78 654 118 652L174 651Q194 651 232 655Q274 659 303 659Q423 659 493 609T564 471Q564
407 538 355T458 271T328 240Q305 240 291 247T277 264Q277 270 283 274T295 279Q302 279 313 278T338 276Q385 276 409 323T434 452Q434 538 400 579T303 621Q244 621 244 573L243 104Q243 70 259 54T316 30Q329 27 335 23T341 10Q341 -3 320 -3Q282 -3 244 0Q200
2 183 2Q149 2 116 -1Q104 -2 82 -3T42 -4Q33 -4 26 -1Z" />
<glyph unicode="Q" glyph-name="Q" horiz-adv-x="761" d="M671 -248T612 -228T502 -171Q417 -111 360 -63Q297 -9 246 11Q157 47 96 120T34 315Q34 407 75 487T195 615T385 664Q476 664 554 623T680 506T727 335Q727 224 669 134T506 8Q496 5 496 -1Q496 -6 501
-11Q550 -62 615 -111Q664 -149 706 -165T797 -182Q826 -182 839 -177Q843 -176 848 -175T860 -174Q882 -174 882 -191Q882 -200 878 -205T863 -218Q815 -248 734 -248Q671 -248 612 -228ZM487 32T535 98T584 284Q584 375 560 450T487 571T367 617Q274 617 226
551T177 366Q177 275 201 199T273 78T393 32Q487 32 535 98Z" />
<glyph unicode="R" glyph-name="R" horiz-adv-x="744" d="M580 -21T541 -1T470 58Q430 111 401 153T337 262Q323 286 304 296Q284 307 255 309H254Q243 309 243 289V103Q243 71 259 54T316 30Q329 27 335 23T341 10Q341 -3 320 -3Q282 -3 244 0Q200 2 183 2Q149
2 116 -1Q104 -2 82 -3T42 -4Q33 -4 26 -1T19 9Q19 24 44 30Q83 38 98 52T114 98V540Q114 570 110 585T93 607T53 620Q40 622 34 627T27 640Q27 654 51 654Q93 654 120 651Q152 649 173 649Q187 649 202 650T224 652Q257 657 304 657Q420 657 481 617T542 495Q542
434 506 396T416 336Q412 335 412 331T416 324Q470 242 511 188T603 87Q631 61 660 54T734 47Q749 47 749 32Q749 4 719 -8T643 -21Q580 -21 541 -1ZM345 338T378 376T411 475Q411 545 383 581T290 618Q264 618 255 599T244 525Q243 494 243 375Q243 354 253 346T286
338Q345 338 378 376Z" />
<glyph unicode="S" glyph-name="S" horiz-adv-x="484" d="M125 -15T62 29Q49 39 43 52Q28 97 30 184Q30 197 49 197Q57 197 61 195T68 185Q90 110 132 68T227 26Q274 26 302 57T330 132Q330 166 318 188T283 228T217 271Q159 305 127 328T72 387T48 475Q48 530
76 573T156 640T274 664Q308 664 340 657T394 640Q404 636 409 630T419 611Q434 559 434 500Q434 488 417 488Q408 488 400 492T390 503Q353 621 263 621Q216 621 189 597T162 523Q162 488 194 459T299 387Q376 340 411 296T446 185Q446 88 384 37T214 -15Q125
-15 62 29Z" />
<glyph unicode="T" glyph-name="T" horiz-adv-x="687" d="M199 -4T192 -1T184 9Q184 24 211 30Q251 38 268 52T285 99V504Q285 562 281 581T267 603Q250 609 213 609H182Q153 609 126 595T84 559Q75 544 61 529T34 513Q22 513 22 529Q22 539 28 553Q45 588 53
613T65 673Q69 697 87 697Q92 697 102 684T117 664Q125 656 147 651T188 646L557 647Q604 647 634 661Q641 665 653 675Q661 682 666 685T679 689Q689 689 689 670Q689 665 686 647Q686 647 679 619Q669 582 669 558V541Q669 526 665 517T652 507Q644 507 638 516T627
546Q618 579 597 594T531 609H463Q442 609 433 602T419 572T415 499V100Q415 69 432 54T489 30Q503 27 509 23T516 10Q516 4 509 1T492 -3Q468 -3 418 -1Q372 1 351 1Q331 1 283 -1Q247 -4 209 -4Q199 -4 192 -1Z" />
<glyph unicode="U" glyph-name="U" horiz-adv-x="742" d="M237 -14T166 56T94 249V541Q94 571 81 592T45 619Q15 626 15 641Q15 647 23 650T43 654Q62 654 100 652Q142 650 161 650Q180 650 222 652L278 653Q305 653 305 640Q305 633 299 629T282 621T264 614Q248
607 236 588T224 539V270Q224 167 273 114T402 61Q496 61 542 120T589 293Q589 426 587 492Q585 550 575 578T538 617Q533 619 523 622T507 630T501 639Q501 653 530 653L582 652Q594 651 620 651Q638 651 664 653L707 654Q734 654 734 641Q734 628 704 620Q674
612 662 592T647 536Q642 429 640 325Q640 281 639 258Q638 180 603 118T507 21T373 -14Q237 -14 166 56Z" />
<glyph unicode="V" glyph-name="V" horiz-adv-x="695" d="M326 -15T321 -2Q306 33 290 76L99 549Q76 604 27 619Q13 623 7 627T0 640Q0 647 6 650T24 654Q41 654 89 652Q139 650 162 650Q185 650 237 652Q285 654 300 654Q311 654 319 650T328 640Q328 633 319
627T297 619Q266 614 252 606T237 580Q237 568 240 558T245 545L379 177Q381 171 384 171Q386 171 389 178L512 502Q524 534 524 557Q524 610 465 619Q452 621 443 626T433 640Q433 646 441 649T462 653Q494 653 508 652L559 651Q580 651 618 653Q654 655 670 655Q700
655 700 641Q700 633 693 629T671 621Q639 613 618 590T579 527L415 133L390 75Q366 16 357 -2Q351 -15 338 -15Q326 -15 321 -2Z" />
<glyph unicode="W" glyph-name="W" horiz-adv-x="986" d="M994 655T994 641Q994 633 986 629T962 621Q932 614 916 594T886 545L672 7Q667 -4 663 -9T653 -14Q641 -14 631 5L571 141L515 271Q512 277 509 277Q505 277 502 268Q430 117 381 10Q375 -3 371 -10T359
-17Q353 -17 349 -11T340 10L100 554Q88 580 73 595T30 619Q15 624 8 628T0 640Q0 646 8 650T27 654Q45 654 87 652Q127 650 146 650Q166 650 206 652Q242 654 258 654Q275 654 283 648Q289 654 302 654Q321 654 365 652Q409 650 428 650Q447 650 483 652L534 653Q566
653 566 640Q566 631 548 622Q534 616 528 609Q514 605 514 594Q514 591 516 583Q525 559 538 524T563 463Q569 451 572 451Q574 451 577 456T581 463Q588 479 599 509T614 550L624 577Q627 583 627 592Q627 602 621 608T602 620Q593 625 588 629T583 639Q583 646
588 649T607 653Q626 653 639 652T664 650Q671 650 685 652Q709 654 732 654Q761 654 761 640Q761 632 754 628T732 620Q704 612 691 600T663 562Q627 495 600 428Q595 416 595 403Q595 390 599 382L684 176Q687 170 689 170Q692 170 696 179Q759 330 831 540Q841
566 841 585Q839 612 812 619Q799 622 790 627T780 640Q780 646 788 649T809 653L849 652Q870 650 880 651Q892 651 916 653Q944 655 962 655Q994 655 994 641ZM484 324T484 331Q484 338 478 353L390 547Q380 573 358 591T306 619Q289 624 283 630Q277 624 255
619Q242 616 238 609T234 588Q234 572 240 554Q280 457 341 315L399 178Q405 167 407 167Q411 167 415 177L478 310Q484 324 484 331Z" />
<glyph unicode="X" glyph-name="X" horiz-adv-x="736" d="M-5 -6T-5 8Q-5 15 2 19T24 29Q55 38 89 61T154 124L277 281Q290 299 290 315Q290 331 278 347L139 543Q114 578 94 595T45 620Q31 624 25 628T18 641Q18 654 42 654Q64 654 116 652Q158 649 202 649Q241
649 275 652Q317 654 334 654Q345 654 353 650T361 640Q361 628 331 619Q300 612 288 605T275 583Q275 569 297 539L390 409Q401 395 408 395Q414 395 423 407L514 530Q539 564 539 584Q539 608 494 619Q482 622 473 627T463 640Q463 653 493 653L537 652Q563 650
581 650Q601 650 637 654Q646 655 658 656T687 657Q700 657 709 654T718 642Q718 635 711 631T687 622Q664 616 636 593T584 540L454 381Q440 366 440 355Q440 347 448 333L611 101Q630 74 651 56T695 32Q730 22 730 8Q730 2 723 -1T703 -5Q675 -5 654 -4T619 -2Q577
1 536 1L468 0Q448 -1 411 -1Q400 -1 392 2T383 12Q383 19 392 24T413 33Q466 46 466 75Q466 88 456 102L349 254Q336 272 329 272Q320 272 312 258L205 111Q188 86 190 68Q191 54 203 45T236 31Q267 24 267 10Q267 4 259 1T238 -3Q220 -3 186 -1L140 0Q125 0 107
-1T80 -3Q52 -6 25 -6Q-5 -6 -5 8Z" />
<glyph unicode="Y" glyph-name="Y" horiz-adv-x="629" d="M176 -6T169 -2T161 9Q161 24 192 29Q229 36 246 56T263 109V251Q263 292 234 343L109 540Q90 569 71 590T27 619Q13 623 7 627T0 640Q0 647 6 650T24 654Q47 654 93 652Q131 649 171 649Q200 649 227
652Q263 654 281 654Q292 654 300 650T309 640Q309 627 279 619Q254 613 244 607T233 586Q233 571 245 551L345 376Q358 351 366 351Q370 351 376 358T389 376Q428 441 476 536Q489 562 489 580Q489 613 440 619Q429 620 419 626T408 640Q408 646 416 649T437 653Q456
653 486 651Q514 649 530 649Q543 649 559 650T584 652Q610 655 633 655Q662 655 662 641Q662 634 652 629T624 619Q597 611 577 593T537 543L512 503L419 353Q404 327 398 307T392 258V110Q392 74 408 56T464 29Q480 26 487 22T495 9Q495 2 488 -1T468 -5Q442
-5 394 -1Q382 0 366 1T329 2Q307 2 263 -2Q215 -6 189 -6Q176 -6 169 -2Z" />
<glyph unicode="Z" glyph-name="Z" horiz-adv-x="599" d="M425 -3Q317 -1 249 -1Q201 -1 113 -3L36 -4Q29 -4 26 6T24 20Q33 38 82 114L180 262Q305 449 389 583Q395 591 395 596Q395 605 378 606L277 607Q220 607 196 606Q160 604 129 583T78 525Q70 510 62 501T41
491Q35 491 32 495T28 506Q28 514 35 533Q58 585 64 659Q65 672 69 677T83 683Q89 683 106 672Q124 662 128 660Q158 648 214 648H335Q413 648 497 651L563 652Q569 652 574 643T578 630L512 531Q428 409 323 240Q299 203 275 164T223 83Q215 71 215 61Q215 49
234 47Q265 44 322 44Q409 44 456 56Q488 64 511 88T551 157Q558 173 571 173Q577 173 580 170T584 159Q584 142 572 95T549 14Q542 -4 525 -4L425 -3Z" />
<glyph unicode="[" glyph-name="bracketleft" horiz-adv-x="348" d="M130 -201T123 -199T113 -189T110 -159V655Q110 678 113 687T123 699T150 701L312 700Q322 700 328 697T334 685Q334 671 302 666L222 657Q214 656 208 649T202 633L201 -123Q201 -133 206 -141T221
-150L298 -162Q331 -168 331 -182Q331 -200 309 -200L147 -201Q130 -201 123 -199Z" />
<glyph unicode="\" glyph-name="backslash" horiz-adv-x="403" d="M351 -62T341 -59T325 -44L19 646Q18 648 18 652Q18 658 23 662T37 666Q54 666 64 662T80 646L386 -44Q387 -45 387 -48Q387 -54 382 -58T367 -62Q351 -62 341 -59Z" />
<glyph unicode="]" glyph-name="bracketright" horiz-adv-x="348" d="M218 -201T225 -199T235 -189T238 -159V655Q238 678 235 687T225 699T198 701L36 700Q26 700 20 697T14 685Q14 671 46 666L126 657Q134 656 140 649T146 633L147 -123Q147 -133 142 -141T127
-150L50 -162Q17 -168 17 -182Q17 -200 39 -200L201 -201Q218 -201 225 -199Z" />
<glyph unicode="^" glyph-name="asciicircum" horiz-adv-x="509" d="M48 261T43 264T38 275Q38 280 41 284L251 606H257L469 284L471 276Q471 270 467 266T454 261Q441 261 429 269T408 289L258 506Q254 511 253 511T248 506L101 290Q93 277 81 269T55 261Q48
261 43 264Z" />
<glyph unicode="_" glyph-name="underscore" horiz-adv-x="561" d="M549 -129T554 -133T560 -143Q560 -156 550 -170T527 -185H16Q10 -185 5 -181T0 -172Q0 -160 7 -145T27 -129H541Q549 -129 554 -133Z" />
<glyph unicode="`" glyph-name="grave" horiz-adv-x="225" d="M176 454T158 472Q105 525 37 609Q27 622 27 632Q27 643 43 649T83 655Q97 655 106 650T122 632Q135 609 158 561T192 486Q196 474 196 465Q196 454 186 454Q176 454 158 472Z" />
<glyph unicode="a" glyph-name="a" horiz-adv-x="425" d="M89 -14T61 14T32 76Q32 109 51 130T112 170L205 210Q225 218 229 224T234 251L236 310Q237 338 224 355T187 372Q174 372 160 367T138 354Q131 348 131 331L132 306Q132 296 102 282T51 267Q44 267 40
272T36 284Q36 315 80 352Q116 383 163 404T243 426Q291 426 320 395T348 312L343 98Q342 76 351 61T375 46Q397 46 409 58Q413 62 416 62Q421 62 424 59T428 50Q428 39 412 23Q395 5 374 -4T333 -14Q306 -14 286 -1T247 41H244Q211 12 184 -1T125 -14Q89 -14 61
14ZM206 46T221 64Q230 71 231 95L233 159V163Q233 176 224 176Q218 176 209 172Q171 156 156 140T140 96Q140 70 152 58T181 46Q206 46 221 64Z" />
<glyph unicode="b" glyph-name="b" horiz-adv-x="533" d="M225 -14T176 1Q167 3 149 8T123 13Q108 13 93 0Q86 -6 80 -6Q73 -6 68 -3T63 6Q63 14 68 41T72 97L70 555Q70 616 28 627Q16 631 16 643Q16 654 27 656Q58 662 144 694L163 701Q171 705 175 705Q179 705
181 702T184 695Q184 689 182 666T180 618V407Q180 377 189 377Q220 400 256 413T323 426Q374 426 416 400T482 327T506 223Q506 153 476 100T393 16T270 -14Q225 -14 176 1ZM334 25T360 74T387 198Q387 240 375 280T337 348T274 375Q248 375 223 367T180 344V138Q180
89 212 57T289 25Q334 25 360 74Z" />
<glyph unicode="c" glyph-name="c" horiz-adv-x="410" d="M160 -14T118 13T52 88T27 194Q27 257 56 310T136 395T247 426Q284 426 317 414T375 378Q385 369 385 360Q385 349 368 332T339 315Q332 315 326 319T310 331Q284 352 258 365T212 379Q170 379 148 343T125
235Q125 162 162 118T262 74Q291 74 312 83T359 114Q360 115 364 118T374 122Q385 122 385 107Q385 95 375 78Q354 43 310 15T212 -14Q160 -14 118 13Z" />
<glyph unicode="d" glyph-name="d" horiz-adv-x="537" d="M355 -19T350 -14T344 -5Q348 20 350 51V57Q330 27 295 7T218 -14Q163 -14 120 14T52 90T27 193Q27 258 56 310T139 393T262 424Q296 424 327 415L340 412Q345 412 345 429V555Q345 591 336 606T303 627Q292
630 292 642Q292 653 302 656Q375 673 432 698Q447 705 452 705Q462 705 462 695Q462 694 460 672T456 604L453 117Q453 82 458 68T475 53Q490 53 516 56H521Q526 56 528 54T531 46Q531 38 526 31T515 23Q441 13 375 -13Q363 -19 358 -19Q355 -19 350 -14ZM284
49T307 58T345 85V293Q345 313 331 334T293 368T245 382Q220 382 197 364T159 309T144 219Q144 162 162 124T209 67T264 49Q284 49 307 58Z" />
<glyph unicode="e" glyph-name="e" horiz-adv-x="408" d="M158 -14T116 14T49 91T25 204Q25 264 53 315T130 396T235 426Q298 426 340 388T382 292Q382 274 375 265T351 256H148Q134 256 128 248T122 221Q122 179 140 145T189 91T260 71Q312 71 360 114Q368 122
373 122Q377 122 380 119T383 110Q383 97 371 76Q353 38 310 12T212 -14Q158 -14 116 14ZM219 295Q263 295 283 300Q292 302 292 326Q292 353 272 371T221 390Q200 390 180 378T148 346T135 307Q135 295 149 295H219Z" />
<glyph unicode="f" glyph-name="f" horiz-adv-x="346" d="M34 -3T28 0T22 10Q22 18 27 21T42 28Q69 36 77 43T85 70V353Q54 353 33 355Q28 356 24 365T19 381Q19 387 27 389L85 415Q88 518 126 583T219 677T329 706Q392 706 422 688T452 634Q452 612 442 600T415
587Q407 587 399 593T379 614Q358 636 337 649T287 662Q243 662 220 624T196 510V425Q196 413 210 413H327Q334 413 338 409T342 398Q342 379 334 365Q333 361 331 359T326 357H226Q209 357 203 353T196 337V81Q196 56 208 46T261 29Q272 27 277 23T282 11Q282
5 277 1T264 -3Q232 -3 199 0Q159 2 142 2Q127 2 95 0Q71 -3 42 -3Q34 -3 28 0Z" />
<glyph unicode="g" glyph-name="g" horiz-adv-x="478" d="M476 402T480 397T484 382Q484 376 481 368T472 352Q467 346 462 346H435Q407 346 401 338Q398 332 397 323T396 291Q396 240 371 196T304 126T213 99Q181 99 149 111Q137 104 130 95T123 80Q123 62 154
52T261 37Q364 29 411 5T459 -66Q459 -119 422 -171T327 -256T209 -289Q115 -289 62 -259T9 -173Q9 -144 17 -126T47 -92Q66 -76 92 -58L114 -41Q74 -28 56 -7T37 45Q37 65 63 83Q105 112 117 127Q80 150 58 185T36 261Q36 309 63 347T134 406T228 428Q255 428
301 416Q323 410 339 408Q375 399 414 399Q427 399 449 401L469 402Q476 402 480 397ZM255 140T276 176T297 271Q297 322 274 356T217 390Q186 390 164 356T141 272Q141 217 164 179T222 140Q255 140 276 176ZM358 -93T329 -80T221 -60Q194 -58 160 -52Q126 -72
111 -95T95 -148Q95 -188 129 -215T217 -242Q283 -242 313 -215Q334 -197 346 -172T358 -121Q358 -93 329 -80Z" />
<glyph unicode="h" glyph-name="h" horiz-adv-x="545" d="M28 -3T23 0T17 10Q17 17 22 21T40 29Q62 37 71 43T80 68V555Q80 586 72 604T39 627Q29 629 29 642Q29 653 38 656Q81 666 178 702Q184 705 188 705Q198 705 198 695Q198 689 195 667T191 604V391Q191
367 197 360Q233 389 267 407T345 426Q398 426 432 388T467 286V71Q467 52 476 44T504 29Q516 25 521 21T526 10Q526 -3 505 -3Q475 -3 454 0Q430 2 411 2Q390 2 368 0Q350 -3 320 -3Q298 -3 298 11Q298 18 303 21T319 29Q336 35 345 44T355 72V271Q355 305 333
329T282 353Q264 353 244 348T209 331Q198 323 195 314T191 283V69Q192 51 200 44T226 30Q247 23 247 11Q247 -3 229 -3Q201 -3 178 0Q150 2 134 2Q117 2 89 0Q67 -3 37 -3Q28 -3 23 0Z" />
<glyph unicode="i" glyph-name="i" horiz-adv-x="279" d="M32 -3T27 0T22 10Q22 23 42 28Q67 34 77 41T87 65V282Q87 314 77 330T43 350Q38 351 35 355T32 366Q32 379 43 381Q109 396 181 436Q195 443 199 443Q210 443 210 433L207 399Q199 335 199 291V66Q199
51 208 44T244 28Q255 24 260 21T265 10Q265 -2 247 -2Q228 -2 192 0Q160 2 142 2Q126 2 94 0Q69 -3 40 -3Q32 -3 27 0ZM111 501T91 521T71 569Q71 599 91 619T140 640Q170 640 190 620T210 569Q210 540 190 521T140 501Q111 501 91 521Z" />
<glyph unicode="j" glyph-name="j" horiz-adv-x="253" d="M-12 -287T-21 -284T-31 -273Q-31 -262 -15 -253Q4 -246 18 -234T45 -195Q63 -157 70 -85T77 57V282Q77 313 67 329T33 350Q28 351 25 355T22 366Q22 371 25 375T32 381Q87 393 126 413T170 436Q186 443
188 443Q198 443 198 433L195 401Q188 315 188 282L189 91Q189 24 182 -37T153 -152Q132 -204 87 -245T3 -287Q-12 -287 -21 -284ZM98 501T78 521T58 569Q58 599 78 619T127 640Q157 640 177 620T197 569Q197 540 177 521T127 501Q98 501 78 521Z" />
<glyph unicode="k" glyph-name="k" horiz-adv-x="521" d="M17 -3T17 10Q17 17 22 20T40 29Q62 37 71 43T80 68V555Q80 588 71 605T38 627Q33 628 31 632T28 642Q28 654 37 656Q85 666 177 702Q184 705 188 705Q197 705 197 694Q197 686 194 661T190 604L191 245Q191
234 198 234Q206 234 221 246Q255 276 284 307T326 355Q335 367 335 372Q335 377 327 381T305 388Q293 391 293 400Q293 406 299 409T315 413H364Q402 413 466 421Q473 422 479 422T491 423Q496 423 499 420T503 412Q503 398 479 392Q443 383 399 357Q379 346 346
320T285 268Q280 263 280 258Q280 253 285 248Q378 128 424 80Q439 64 462 50T502 29Q506 28 514 25T526 19T531 10Q531 -3 510 -3Q472 -3 400 -1L297 0Q278 0 278 12Q278 24 298 31Q308 35 312 39T318 49Q318 54 308 69L203 203Q200 208 196 208Q191 206 191 200Q190
181 190 138Q190 90 191 68Q191 51 198 43T222 30Q244 22 244 11Q244 4 238 1T224 -3Q197 -3 176 0Q150 2 133 2Q117 2 89 0Q67 -3 38 -3Q17 -3 17 10Z" />
<glyph unicode="l" glyph-name="l" horiz-adv-x="270" d="M29 -3T23 0T17 9Q17 16 23 20T40 29Q43 30 55 34T74 46T80 67V555Q80 585 71 603T38 627Q33 628 31 632T28 642Q28 654 37 656Q78 665 157 694L178 702Q184 705 188 705Q197 705 197 695Q197 688 194
664T191 604V68Q191 51 199 45T217 35T230 30Q253 23 253 10Q253 4 248 1T233 -2Q212 -2 180 0Q150 2 133 2Q116 2 88 0Q66 -3 37 -3Q29 -3 23 0Z" />
<glyph unicode="m" glyph-name="m" horiz-adv-x="797" d="M34 -3T28 0T22 10Q22 21 45 29Q66 35 75 42T85 67V291Q85 317 78 333T51 352Q41 354 41 369Q41 381 50 384Q122 401 184 436Q192 442 196 442Q200 442 202 439T204 432L202 410Q201 403 200 393T199 371Q199
361 201 359H203Q235 390 271 408T354 426Q386 426 412 407T451 352H455Q524 426 610 426Q658 426 688 386T718 284V66Q718 48 727 42T757 29Q779 22 779 10Q779 4 774 1T760 -3Q731 -3 708 0Q680 2 663 2Q646 2 620 0Q599 -3 571 -3Q563 -3 558 0T553 10Q553 18
558 21T574 29Q590 33 598 40T606 63V269Q606 306 588 330T543 355Q505 355 475 331Q456 315 456 279V66Q456 48 464 42T492 29Q513 21 513 10Q513 4 508 1T495 -3Q468 -3 445 0Q419 2 402 2Q385 2 359 0Q337 -3 309 -3Q302 -3 297 0T291 10Q291 17 296 21T312
29Q329 33 337 40T345 63V269Q345 306 327 330T282 355Q245 355 213 331Q196 319 196 281V66Q196 49 203 42T228 29Q249 21 249 10Q249 4 244 1T231 -3Q203 -3 182 0Q156 2 139 2Q122 2 94 0Q72 -3 42 -3Q34 -3 28 0Z" />
<glyph unicode="n" glyph-name="n" horiz-adv-x="553" d="M34 -3T28 0T22 10Q22 18 27 21T45 29Q66 35 75 42T85 67V291Q85 317 78 332T51 352Q41 356 41 369Q41 381 50 384Q123 401 180 434Q182 435 187 438T196 442Q204 442 204 431L202 410Q199 374 199 372Q199
360 201 358Q237 392 273 409T354 426Q406 426 440 387T474 284V66Q474 48 483 42T513 29Q523 25 529 21T535 9Q535 3 529 0T516 -3Q487 -3 464 0Q436 2 419 2Q403 2 373 0Q351 -3 321 -3Q315 -3 310 0T304 9Q304 22 324 29Q344 35 353 41T362 66V269Q362 309 343
332T290 355Q243 355 204 324Q196 319 196 304V66Q196 48 205 42T234 29Q255 23 255 10Q255 4 250 1T237 -3Q209 -3 186 0Q158 2 142 2Q127 2 95 0Q71 -3 42 -3Q34 -3 28 0Z" />
<glyph unicode="o" glyph-name="o" horiz-adv-x="501" d="M178 -14T130 12T55 86T27 193Q27 254 57 308T141 394T257 427Q316 427 365 399T444 323T473 220Q473 156 446 103T366 18T236 -14Q178 -14 130 12ZM309 25T332 66Q353 104 353 196Q353 248 339 291T300
361T241 387Q201 387 178 360Q160 340 154 305T147 217Q147 168 161 124T201 53T256 25Q309 25 332 66Z" />
<glyph unicode="p" glyph-name="p" horiz-adv-x="540" d="M30 -270T24 -267T17 -257Q17 -245 40 -238Q61 -231 70 -224T80 -200V289Q80 308 68 328T36 351Q26 354 26 368Q26 379 35 383Q112 401 170 428Q172 429 176 431T182 434Q190 434 190 423L188 398Q185
380 185 364Q185 355 187 353Q198 365 224 381T284 410T346 422Q397 422 435 395T493 323T514 228Q514 167 483 111T399 19T284 -17Q265 -17 238 -10T194 8Q192 8 191 -3T190 -21V-194Q190 -213 203 -221T245 -238Q267 -245 267 -257Q267 -263 262 -266T249 -270Q217
-270 189 -267Q153 -265 137 -265Q122 -265 90 -267Q66 -270 37 -270Q30 -270 24 -267ZM306 25T331 42T374 97T393 194Q393 291 358 326T282 361Q263 361 242 353T207 333T192 313L190 152Q190 123 203 93T238 44T287 25Q306 25 331 42Z" />
<glyph unicode="q" glyph-name="q" horiz-adv-x="531" d="M296 -286T291 -283T285 -274Q285 -262 308 -255Q333 -247 344 -238T356 -210V14Q356 40 350 40Q343 37 341 36Q317 18 283 2T220 -14Q167 -14 123 11T53 83T27 188Q27 254 56 308T141 395T274 427Q304
427 328 423T384 409Q410 403 413 403Q430 403 445 421Q453 427 457 427Q465 427 470 424T475 415Q475 407 470 376T464 305L465 -216Q465 -232 475 -240T508 -254Q531 -261 531 -274Q531 -280 525 -283T511 -286Q481 -286 457 -283Q425 -281 409 -281Q392 -281
360 -283Q333 -286 303 -286Q296 -286 291 -283ZM294 48T319 57T357 81Q357 243 356 278Q355 325 326 356T254 388Q225 388 201 366T162 304T148 215Q148 165 165 127T209 69T269 48Q294 48 319 57Z" />
<glyph unicode="r" glyph-name="r" horiz-adv-x="388" d="M35 -3T30 0T24 10Q24 18 29 22T47 29Q68 35 76 43T85 67V292Q85 317 78 331T51 351Q39 355 39 368Q39 380 50 383Q79 390 114 404T174 431Q190 440 194 440Q202 440 202 430L199 352Q199 350 200 348T202
346Q228 380 261 403T326 427Q354 427 369 416T384 385Q384 364 368 340T332 316Q321 316 297 328Q271 340 261 340Q232 340 214 320T196 249V73Q196 56 208 47T249 28Q261 25 266 21T271 10Q271 -3 253 -3Q222 -3 195 0Q161 2 144 2Q129 2 97 0Q73 -3 44 -3Q35
-3 30 0Z" />
<glyph unicode="s" glyph-name="s" horiz-adv-x="348" d="M89 -14T43 20Q36 33 32 63T29 123Q29 129 34 132T46 135Q52 135 57 131T65 122Q82 76 108 51T167 25Q194 25 210 41T227 83Q227 108 209 126T154 165Q101 194 74 225T46 302Q46 357 88 392T198 427Q228
427 253 421T291 406Q299 396 304 370T309 314Q309 310 305 308T294 305Q287 305 280 308T271 317Q243 392 192 392Q168 392 150 377T132 337Q132 317 148 300T200 264Q266 228 292 198T319 118Q319 57 277 22T158 -14Q89 -14 43 20Z" />
<glyph unicode="t" glyph-name="t" horiz-adv-x="355" d="M149 -14T118 18T87 111V342Q87 351 80 354T55 359H44Q38 359 34 368T30 387Q30 394 36 397Q66 411 101 439T163 492Q165 494 171 499T185 505Q202 505 200 488L194 433V429Q194 420 200 417T219 413H336Q339
413 342 406T345 392Q345 379 341 368T333 357H238Q214 357 206 352T198 331V139Q198 95 215 73T263 50Q289 50 303 54T332 67Q334 69 338 69Q342 69 344 64T347 50Q347 44 326 28T274 -1T209 -14Q149 -14 118 18Z" />
<glyph unicode="u" glyph-name="u" horiz-adv-x="543" d="M345 -20T345 -11L347 20Q350 38 350 52L349 61Q318 26 276 6T189 -15Q140 -15 109 22T77 119V311Q77 335 68 348T36 368Q21 370 21 385Q21 401 36 403Q72 405 100 409T167 423Q177 427 183 427Q196 427
195 413Q188 370 188 336V143Q188 107 208 83T257 58Q301 58 325 80Q335 88 344 105T353 146V314Q353 340 336 353T295 368Q272 370 272 389Q272 398 278 402T295 407Q359 410 389 413T448 425L460 427Q475 427 475 416Q475 414 471 402Q469 391 467 368T464 333V101Q464
59 482 59L516 60Q534 60 534 43Q534 34 531 30T518 24Q454 18 377 -14Q361 -20 353 -20Q345 -20 345 -11Z" />
<glyph unicode="v" glyph-name="v" horiz-adv-x="468" d="M227 -21T222 -11T213 8T208 21Q200 38 177 99Q164 130 146 170T120 229Q99 273 74 332Q53 379 23 388Q13 392 9 396T5 408Q5 418 28 418Q57 418 75 415Q99 413 118 413Q137 413 165 415Q188 418 218 418Q226
418 233 416T240 406Q240 399 235 396T218 388Q196 379 196 346Q196 325 200 316L270 136Q272 135 273 136L338 306Q345 321 345 341Q345 377 315 387Q302 392 297 395T292 406Q292 418 315 418Q329 418 347 416Q373 414 385 414Q396 414 418 416Q436 418 451 418Q473
418 473 407Q473 399 469 395T453 387Q435 381 419 364T393 323L315 130L307 111L281 48Q276 35 267 15T249 -21H232Q227 -21 222 -11Z" />
<glyph unicode="w" glyph-name="w" horiz-adv-x="730" d="M223 -28T220 -19L77 332Q60 376 25 387Q14 391 10 395T5 408Q5 418 28 418Q54 418 74 415Q100 413 117 413Q135 413 163 415Q186 418 213 418Q221 418 228 416T235 406Q235 399 230 396T213 388Q192 381
192 348Q192 331 198 316L263 145Q263 143 266 143Q269 143 269 145L336 304Q343 323 343 339Q343 353 331 366T300 387Q280 394 280 407Q280 418 304 418Q325 418 348 415Q376 413 388 413Q414 413 437 416Q467 418 482 418Q490 418 497 416T504 406Q504 400 500
397T490 391T482 387Q454 378 454 354Q454 338 462 316L527 148Q529 142 531 142Q535 142 536 147L598 302Q607 323 605 342Q605 358 596 369T574 386Q563 390 558 394T552 405Q552 411 559 414T574 417Q592 417 612 415Q634 413 645 413Q658 413 680 415Q683 415
707 417Q730 417 730 406Q730 393 710 386Q693 380 679 363T654 322L514 -19Q510 -27 500 -27Q491 -27 488 -19L369 259Q367 263 365 263Q364 263 361 258L247 -19Q242 -28 233 -28Q223 -28 220 -19Z" />
<glyph unicode="x" glyph-name="x" horiz-adv-x="480" d="M7 -4T7 7Q7 15 12 19T28 27Q41 31 54 42T86 79L173 199Q180 207 180 212Q180 216 175 224L97 339Q83 362 74 372T49 387Q29 394 29 407Q29 418 53 418Q74 418 98 416Q116 413 145 413Q162 413 186 415Q212
417 230 417Q254 417 254 405Q254 399 250 396T240 391T232 388Q220 384 214 380T207 366Q207 354 220 336L266 268Q268 264 270 264T275 268L312 329Q324 349 323 366Q323 381 307 386Q296 390 291 393T286 404Q286 416 309 416L346 415Q355 414 369 414Q382 414
402 416Q420 418 433 418Q455 418 455 408Q455 400 451 396T435 387Q404 377 375 339L306 244Q301 236 301 233Q301 229 306 221L394 81Q420 40 454 29Q465 24 470 20T475 8Q475 -2 452 -2Q430 -2 400 0Q378 3 347 3Q331 3 299 1Q267 -1 247 -1Q224 -1 224 11Q224
19 229 22T247 30Q261 34 268 41T276 64Q276 78 266 94L212 175Q211 176 209 176T206 175L153 87Q142 71 142 55Q142 34 159 28Q161 27 167 24T177 18T181 9Q181 2 174 0T158 -3L135 -2Q121 -1 99 -1L62 -2Q44 -4 30 -4Q7 -4 7 7Z" />
<glyph unicode="y" glyph-name="y" horiz-adv-x="467" d="M53 -284T33 -268T12 -228Q12 -207 22 -191T50 -175Q63 -175 78 -180Q96 -184 104 -184Q117 -184 123 -180T136 -162Q168 -107 197 -37Q206 -18 206 3Q206 20 196 46L75 331Q65 354 54 367T27 386Q16 390
12 394T7 406Q7 417 29 417Q55 417 83 415Q105 413 118 413Q136 413 164 415Q192 417 216 417Q225 417 232 414T239 404Q239 397 232 393T213 384Q202 380 197 372T191 348Q191 336 201 308L270 141Q271 137 274 137Q276 137 277 141L334 304Q342 324 342 342Q342
373 315 383Q302 389 296 393T290 404Q290 411 297 414T312 417Q327 417 351 415Q371 413 384 413Q396 413 416 415Q434 417 449 417Q472 417 472 406Q472 398 468 394T452 386Q435 381 419 364T393 323L249 -25L162 -231Q151 -257 129 -270T78 -284Q53 -284 33
-268Z" />
<glyph unicode="z" glyph-name="z" horiz-adv-x="417" d="M38 -5T30 4T22 19Q22 25 33 41T48 63L62 83L87 121Q186 272 240 360Q242 364 242 366Q242 371 230 371L160 372Q135 373 116 354Q106 342 76 300L59 276Q55 272 48 272Q41 272 36 276T31 286Q53 374 53
407Q53 416 59 423T73 430Q81 430 91 420Q99 414 137 414L178 415Q282 415 380 418Q389 418 394 407T394 389Q374 365 354 335L178 59Q175 55 175 52Q175 44 190 44H271Q298 44 320 67Q333 80 346 100T374 146Q378 153 388 153Q394 153 399 150T405 140Q405 130
394 87T373 10Q371 3 367 -1T355 -5L307 -3Q288 -3 236 -1T128 1Q109 1 75 -3L42 -5Q38 -5 30 4Z" />
<glyph unicode="{" glyph-name="braceleft" horiz-adv-x="374" d="M248 -149T191 -119T134 -27Q134 4 144 66Q145 75 149 104T153 157Q153 198 134 222T73 261Q60 265 54 269T47 281Q47 294 74 304Q113 318 132 339T151 405Q151 440 142 489Q141 496 137 522T133
575Q133 618 161 649T236 697T335 714Q347 714 353 711T359 698Q359 690 351 687T326 679Q277 668 261 648T244 582Q244 557 254 501Q255 493 259 467T263 420Q263 372 221 335T127 283Q124 282 125 281T129 279Q186 260 225 223T265 138Q265 112 255 56Q245 -2
245 -25Q245 -75 262 -94T327 -120Q342 -122 349 -125T357 -137Q357 -152 335 -152Q248 -149 191 -119Z" />
<glyph unicode="|" glyph-name="bar" horiz-adv-x="270" d="M101 -289T95 -282T89 -267V658Q89 673 103 684T135 700T160 706Q168 706 174 700T181 686V-252Q181 -273 155 -281T108 -289Q101 -289 95 -282Z" />
<glyph unicode="}" glyph-name="braceright" horiz-adv-x="374" d="M126 -149T183 -119T240 -27Q240 4 230 66Q229 75 225 104T221 157Q221 198 240 222T301 261Q314 265 320 269T327 281Q327 294 300 304Q261 318 242 339T223 405Q223 440 232 489Q233 496 237
522T241 575Q241 618 213 649T138 697T39 714Q27 714 21 711T15 698Q15 690 23 687T48 679Q97 668 113 648T130 582Q130 557 120 501Q119 493 115 467T111 420Q111 372 153 335T247 283Q250 282 249 281T245 279Q188 260 149 223T109 138Q109 112 119 56Q129 -2
129 -25Q129 -75 112 -94T47 -120Q32 -122 25 -125T17 -137Q17 -152 39 -152Q126 -149 183 -119Z" />
<glyph unicode="~" glyph-name="asciitilde" horiz-adv-x="530" d="M334 253T314 260T263 283Q231 300 210 308T166 316Q141 316 119 302T81 274T63 259Q57 259 50 268T42 283Q42 301 61 329T111 378T174 399Q196 399 217 391T267 368Q302 350 321 343T363 335Q387
335 409 349T448 379T467 395Q475 395 482 387T489 368Q489 348 468 321T416 273T356 253Q334 253 314 260Z" />
<glyph unicode="&#xa0;" glyph-name="uni00A0" horiz-adv-x="225" />
<glyph unicode="&#xa1;" glyph-name="exclamdown" horiz-adv-x="277" d="M125 293T120 283T110 246Q75 -6 75 -95Q75 -124 94 -146T140 -169Q168 -169 185 -147T203 -94Q203 -54 196 4T174 166L162 246Q155 293 136 293Q125 293 120 283ZM108 494T88 474T68 426Q68
398 88 378T136 357Q164 357 184 377T204 426Q204 454 184 474T136 494Q108 494 88 474Z" />
<glyph unicode="&#xa2;" glyph-name="cent" horiz-adv-x="430" d="M196 -64T190 -59T185 -46L192 29Q148 37 110 65T50 139T27 238Q27 295 54 345T129 427T237 466L243 527Q244 536 251 541T268 547Q275 547 280 541T284 527L278 466Q312 464 343 451T397 413Q404
406 404 397Q404 380 388 366T354 352Q335 352 324 366Q300 403 273 414L243 126Q250 125 265 125Q303 125 334 136T380 172Q385 180 393 180Q399 180 402 176T406 166Q406 159 402 149Q377 93 337 62T233 26L227 -46Q225 -54 219 -59T204 -64Q196 -64 190 -59ZM233
422H231Q180 422 152 381T124 280Q124 227 145 190T203 137L233 422Z" />
<glyph unicode="&#xa3;" glyph-name="sterling" horiz-adv-x="542" d="M503 195T515 177T528 132Q528 92 502 53T431 -12T338 -37Q298 -37 268 -22T192 27Q174 40 151 52T120 64Q115 64 98 44T69 5Q59 -10 46 -18T21 -25Q8 -25 0 -14T-8 16Q-8 50 22 78T96 114Q102
115 105 119T112 128Q121 151 126 193T137 301L51 295H49Q43 295 38 299T33 310Q33 318 42 326T62 336L140 341L141 358Q146 427 172 488T251 589T387 629Q441 629 470 603T500 539Q500 512 480 491T436 470Q428 470 424 475T419 487Q419 493 420 501T421 519Q421
550 408 571T372 593Q329 593 307 537T269 350L403 359Q409 359 413 354T418 344Q418 337 406 328T381 318L264 310Q252 247 230 199T178 132Q176 131 176 127Q176 121 181 121Q222 121 256 111T328 83Q336 79 359 69T399 54T430 49Q474 49 474 87Q474 103 464
137Q457 162 457 171Q457 181 463 188T481 195Q503 195 515 177Z" />
<glyph unicode="&#xa4;" glyph-name="currency" horiz-adv-x="508" d="M56 49T44 60T32 83Q32 89 35 92L92 149Q54 201 54 267Q54 333 93 388L35 445Q32 448 32 453Q32 464 44 476T67 488Q73 488 76 485L132 428Q189 472 257 472Q326 472 378 431L433 485Q437
489 441 489Q452 489 464 477T476 454Q476 449 473 444L419 391Q439 365 449 333T460 267Q460 201 420 145L473 92Q476 89 476 84Q476 73 464 61T441 49Q436 49 433 52L380 104Q326 63 257 63Q188 63 131 107L75 52Q72 49 67 49Q56 49 44 60ZM297 120T331 140T384
193T404 267Q404 307 385 341T331 396T257 416Q217 416 184 396T130 342T110 267Q110 227 130 194T183 140T257 120Q297 120 331 140Z" />
<glyph unicode="&#xa5;" glyph-name="yen" horiz-adv-x="626" d="M176 -6T169 -2T161 9Q161 24 192 29Q229 36 246 56T263 109V188H146Q140 188 135 193T129 204Q130 213 139 223T159 233L263 232V251Q263 262 261 276H146Q140 276 135 281T129 291Q130 300 139
310T159 321H250L109 540Q89 571 70 591T27 619Q13 623 7 627T0 640Q0 647 6 650T24 654Q47 654 93 652Q131 649 171 649Q200 649 227 652Q263 654 281 654Q292 654 300 650T309 640Q309 628 279 619Q257 614 246 606T235 583Q235 567 245 551L337 379Q350 354
359 354Q367 354 381 379Q388 393 409 428Q450 497 470 537Q479 554 479 573Q479 592 467 604T435 619Q423 621 413 626T403 640Q403 646 411 649T432 653Q450 653 480 651Q510 649 526 649Q540 649 557 650T583 652Q607 655 629 655Q659 655 659 641Q659 633 652
629T630 621Q604 615 579 592T537 543Q486 463 419 350Q408 334 403 320L510 319Q517 319 521 315T525 305Q525 297 512 287T486 276H393V232L510 231Q516 231 520 227T525 217Q524 209 512 199T486 188H393V110Q393 74 409 56T464 29Q480 26 487 22T495 9Q495
2 488 -1T468 -5Q442 -5 394 -1Q382 0 366 1T329 2Q307 2 263 -2Q215 -6 189 -6Q176 -6 169 -2Z" />
<glyph unicode="&#xa6;" glyph-name="brokenbar" horiz-adv-x="272" d="M101 262T95 270T89 288V658Q89 673 103 683T135 699T160 705Q168 705 174 699T181 685V298Q181 281 154 272T108 262Q101 262 95 270ZM102 -290T96 -283T90 -268V138Q90 151 104 161T136
176T161 182Q169 182 176 175T183 158V-253Q183 -274 157 -282T109 -290Q102 -290 96 -283Z" />
<glyph unicode="&#xa7;" glyph-name="section" horiz-adv-x="429" d="M105 -148T84 -138T62 -111Q62 -99 69 -81T95 -50Q97 -48 102 -48Q113 -48 122 -57Q136 -70 159 -77T204 -85Q229 -85 242 -66T256 -12Q256 17 230 48T153 127L130 149Q78 197 53 241T27 329Q27
390 46 428T103 506Q118 561 161 600T257 640Q281 640 307 633T344 616Q351 610 354 606T358 594Q358 590 351 576T334 549T313 536Q305 536 297 543Q280 560 259 572T224 584Q194 584 180 567T165 524Q165 477 281 378Q337 330 362 279T388 155Q388 60 338 -17T201
-135Q174 -148 137 -148Q105 -148 84 -138ZM314 55T317 55T322 59Q331 94 331 126Q331 170 307 211T237 296Q138 395 119 442Q118 446 115 446T109 442Q96 416 96 375Q96 296 187 208Q236 159 269 122T313 59Q314 55 317 55Z" />
<glyph unicode="&#xa8;" glyph-name="dieresis" horiz-adv-x="337" d="M47 499T28 518T9 563Q9 590 28 609T73 628Q100 628 119 609T139 563Q139 538 120 519T73 499Q47 499 28 518ZM236 499T217 518T197 563Q197 590 216 609T261 628Q288 628 308 609T328 563Q328
538 308 519T261 499Q236 499 217 518Z" />
<glyph unicode="&#xa9;" glyph-name="copyright" horiz-adv-x="675" d="M259 19T189 60T77 172T36 327Q36 411 77 481T189 593T344 635Q428 635 498 594T610 482T652 327Q652 243 611 173T498 61T343 19Q259 19 189 60ZM414 64T473 99T566 195T601 327Q601 397
567 456T473 551T344 587Q274 587 215 552T121 457T86 327Q86 256 120 196T214 100T343 64Q414 64 473 99ZM304 143T261 167T193 233T168 324Q168 374 194 415T267 480T375 504Q398 504 423 499T468 485Q475 483 478 480T483 470Q486 449 486 428T486 401Q486 394
481 389T470 385Q459 385 454 400Q446 424 431 438Q405 460 368 460Q320 460 293 423T265 331Q265 266 291 226T371 186Q404 186 425 198T460 241Q464 249 469 253T480 255Q490 253 490 238Q490 225 486 210T477 179Q474 172 470 170T461 165Q415 143 357 143Q304
143 261 167Z" />
<glyph unicode="&#xaa;" glyph-name="ordfeminine" horiz-adv-x="337" d="M83 278T62 297T41 340Q41 361 53 375T93 401L158 426Q172 431 175 435T178 452V478Q178 514 149 514Q138 514 129 511T115 502Q112 499 112 491L113 475Q113 468 92 460T51 448H49Q44
448 43 452T44 464Q50 480 55 488T74 508Q93 524 126 538T185 552Q221 552 245 530T268 472L264 359Q264 345 269 334T284 322Q291 322 296 325T303 330Q306 333 308 333Q312 333 315 329T318 321Q318 315 304 301Q283 278 252 278Q228 278 215 287T189 313H187Q170
297 153 288T110 278Q83 278 62 297ZM156 325T171 335Q175 339 175 349L177 393Q177 407 164 402Q140 393 131 383T122 355Q122 339 129 332T147 325Q156 325 171 335ZM288 202T293 198T299 188L298 184Q284 160 262 160H47Q41 160 36 164T31 174Q31 182 39 192T58
202H283Q288 202 293 198Z" />
<glyph unicode="&#xab;" glyph-name="guillemotleft" horiz-adv-x="587" d="M304 17T285 36Q228 89 184 119T76 180Q64 186 58 196T52 215Q52 225 60 228Q148 281 190 311T287 393Q289 394 299 403T320 413Q323 413 325 410T327 403Q327 398 321 386Q279 323 249
292T176 223Q169 216 169 215Q169 214 176 207Q218 171 248 139T321 42Q326 35 326 29Q326 24 324 21T318 17Q304 17 285 36ZM515 17T496 36Q439 89 395 119T287 180Q275 186 269 196T263 215Q263 225 271 228Q359 281 401 311T498 393Q500 394 510 403T531 413Q534
413 536 410T538 403Q538 398 532 386Q490 323 460 292T387 223Q380 216 380 215Q380 214 387 207Q429 171 459 139T532 42Q537 35 537 29Q537 24 535 21T529 17Q515 17 496 36Z" />
<glyph unicode="&#xac;" glyph-name="logicalnot" horiz-adv-x="614" d="M494 42T490 47T486 60V301Q486 318 471 318H56Q50 318 45 322T39 332Q39 348 46 367T69 386H538Q545 386 549 381T553 368V72Q553 57 534 50T499 42Q494 42 490 47Z" />
<glyph unicode="&#xad;" glyph-name="uni00AD" horiz-adv-x="302" d="M30 166T29 168T27 175Q27 201 32 217T47 234Q154 251 262 262Q275 262 275 250Q275 222 271 209T255 194Q123 175 36 166Q30 166 29 168Z" />
<glyph unicode="&#xae;" glyph-name="registered" horiz-adv-x="679" d="M261 19T191 60T79 172T38 327Q38 411 79 481T191 593T345 635Q429 635 499 594T611 482T653 327Q653 243 612 173T499 61T344 19Q261 19 191 60ZM415 64T474 99T568 195T603 327Q603 397
569 456T475 550T345 585Q275 585 216 550T123 456T88 327Q88 257 122 197T215 100T344 64Q415 64 474 99ZM443 171T404 213T344 306Q338 319 319 319Q315 319 312 316T309 309V229Q309 215 318 209T347 197Q362 193 362 182Q362 178 358 174T349 170Q335 170 309
172Q283 174 272 174Q260 174 238 172Q214 170 201 170Q197 170 193 174T188 182Q188 193 203 197Q220 202 226 208T233 229V434Q233 455 229 461T206 472Q191 475 191 485Q191 489 195 492T206 494Q219 494 241 492Q259 490 270 490Q282 490 306 492Q334 494 356
494Q408 494 439 474T471 415Q471 362 409 335Q406 334 406 332Q406 330 407 328T409 324Q422 291 443 264T485 223T521 208Q533 208 533 201Q533 187 517 179T475 171Q443 171 404 213ZM360 351T378 367T396 407Q396 433 381 447T339 461Q321 461 314 455T307
438V369Q307 351 330 351Q360 351 378 367Z" />
<glyph unicode="&#xaf;" glyph-name="overscore" horiz-adv-x="337" d="M34 506T29 511T23 522Q23 543 32 560T56 578H296Q303 578 308 573T313 562Q313 540 302 523T275 506H41Q34 506 29 511Z" />
<glyph unicode="&#xb0;" glyph-name="degree" horiz-adv-x="328" d="M126 388T94 408T44 460T25 529Q25 565 43 595T94 644T165 662Q203 662 234 644T284 596T303 530Q303 494 285 461T235 408T165 388Q126 388 94 408ZM197 440T221 464T245 524Q245 560 222 584T164
608Q130 608 107 584T83 524Q83 489 107 465T164 440Q197 440 221 464Z" />
<glyph unicode="&#xb1;" glyph-name="plusminus" horiz-adv-x="597" d="M278 124T275 128T271 139V345Q271 354 262 354H55Q49 354 44 358T39 367Q39 380 46 394T66 409H260Q267 409 269 411T271 421V591Q271 604 285 614T310 624Q317 624 321 619T326 605V420Q326
413 327 411T334 409H538Q545 409 551 406T557 396Q557 383 547 369T524 354H334Q329 354 328 352T326 345V151Q326 138 311 131T283 124Q278 124 275 128ZM50 33T45 37T39 47Q39 59 46 75T68 91H537Q545 91 551 87T558 76Q558 62 547 48T523 33H56Q50 33 45 37Z"
/>
<glyph unicode="&#xb2;" glyph-name="uni00B2" horiz-adv-x="328" d="M217 439Q171 441 142 441Q107 441 59 439L35 438Q31 438 28 441T24 447Q24 451 30 457L68 496Q78 506 82 512Q130 564 153 598T177 667Q177 692 163 706T126 721Q105 721 90 711T59 682Q52
671 44 671Q34 671 34 688Q34 702 50 723T95 760T160 776Q206 776 234 750T262 686Q262 644 222 599Q207 581 177 555T139 522L121 507V506Q122 505 124 504T130 503H217Q251 503 279 548Q286 559 295 559Q305 559 303 547Q295 526 286 497T274 451Q273 445 270
442T263 438L217 439Z" />
<glyph unicode="&#xb3;" glyph-name="uni00B3" horiz-adv-x="292" d="M71 435T52 443T32 468Q32 480 37 490T50 500Q59 500 64 493Q94 463 118 463Q142 463 157 483T172 539Q172 561 156 580T115 600Q101 600 89 595T75 589Q69 589 64 591T60 598Q61 609 75 617T108
633Q139 649 151 663T163 699Q163 713 150 723T119 734Q80 734 56 703Q49 694 45 694Q41 694 38 699T34 709Q34 718 48 734T88 763T144 776Q179 776 206 757T234 708Q234 662 174 640Q171 639 171 638T174 636Q207 632 230 612T253 558Q253 522 231 494T173 451T96
435Q71 435 52 443Z" />
<glyph unicode="&#xb4;" glyph-name="acute" horiz-adv-x="225" d="M29 454T29 465Q29 474 33 486Q44 512 67 560T103 632Q110 645 119 650T142 655Q166 655 182 649T198 632Q198 622 188 609Q120 525 67 472Q49 454 39 454Q29 454 29 465Z" />
<glyph unicode="&#xb5;" glyph-name="uni00B5" d="M101 -285T86 -220Q81 -194 78 0Q78 156 75 264L74 388Q74 409 82 417T119 426Q152 426 173 416T195 388Q195 353 169 234Q152 155 152 141Q152 116 166 97T204 78Q238 78 264 109T316 215Q324 286 328 370L330
404Q332 416 337 421T356 427Q397 427 422 412T448 378Q448 343 434 293T392 168Q392 139 412 117T463 94Q479 94 492 100T519 116T535 126Q539 126 543 123T547 115Q547 75 532 46T494 1T446 -15Q418 -15 397 14T369 90Q367 102 367 110L368 125L365 126Q359 113
337 78T290 15T246 -14Q224 -14 204 1T160 41L145 57Q132 74 128 74Q117 74 117 45L120 -54L122 -111Q122 -136 139 -154T186 -193Q202 -204 209 -211T217 -224Q217 -244 192 -264T145 -285Q101 -285 86 -220Z" />
<glyph unicode="&#xb6;" glyph-name="paragraph" horiz-adv-x="617" d="M242 -304T202 -270T162 -183Q162 -148 180 -121T226 -78T283 -63Q317 -64 336 -78T356 -120Q356 -144 342 -160T309 -176Q291 -176 272 -157Q266 -150 259 -145T246 -139Q233 -139 222 -153T210
-192Q210 -221 236 -243T304 -266Q343 -266 371 -236T400 -144V57Q400 83 386 83Q289 83 207 116T75 213T26 364Q26 514 130 581T428 648Q470 648 517 646T578 640Q585 639 589 632T594 615Q594 605 590 593T579 580Q574 581 541 588T466 596Q458 596 452 589T446
573V-143Q446 -213 406 -258T300 -304Q242 -304 202 -270Z" />
<glyph unicode="&#xb7;" glyph-name="middot" horiz-adv-x="237" d="M89 137T68 158T46 209Q46 240 67 261T118 283Q149 283 170 262T192 209Q192 180 171 159T118 137Q89 137 68 158Z" />
<glyph unicode="&#xb8;" glyph-name="cedilla" horiz-adv-x="250" d="M59 -274T50 -265T40 -229Q40 -206 56 -206Q61 -206 80 -213T118 -220Q151 -220 151 -178Q151 -156 134 -144T94 -131Q85 -131 76 -135T63 -139Q56 -139 49 -133T42 -118Q42 -112 53 -99L143
8H182L146 -37Q140 -45 140 -48Q140 -53 153 -59Q179 -70 194 -90T209 -140Q209 -174 187 -205T135 -255T80 -274Q59 -274 50 -265Z" />
<glyph unicode="&#xb9;" glyph-name="uni00B9" horiz-adv-x="252" d="M43 440T40 443T36 452Q36 458 39 462T47 467Q72 471 80 476T89 500V671Q89 690 76 701T46 715Q34 717 34 727Q34 741 47 743Q83 746 108 754T155 778Q156 779 159 780T165 782Q174 782 174
772Q174 768 172 754T170 720V500Q170 487 172 482T182 474T209 467Q220 464 220 452Q220 441 210 441L160 442Q148 443 127 443L95 442Q69 440 47 440Q43 440 40 443Z" />
<glyph unicode="&#xba;" glyph-name="ordmasculine" horiz-adv-x="321" d="M108 278T67 314T26 406Q26 447 47 480T104 533T184 552Q223 552 257 535T311 488T331 424Q331 362 289 320T169 278Q108 278 67 314ZM209 313T220 340T232 409Q232 451 216 483T174 516Q124
516 124 421Q124 378 140 346T182 313Q209 313 220 340ZM293 202T298 198T304 188L303 184Q289 160 267 160H35Q29 160 24 164T19 174Q19 182 28 192T47 202H288Q293 202 298 198Z" />
<glyph unicode="&#xbb;" glyph-name="guillemotright" horiz-adv-x="587" d="M283 17T302 36Q359 89 403 119T511 180Q523 186 529 196T535 215Q535 225 527 228Q439 281 397 311T300 393Q298 394 288 403T267 413Q264 413 262 410T260 403Q260 398 266 386Q308
323 338 292T411 223Q418 216 418 215Q418 214 411 207Q369 171 339 139T266 42Q261 35 261 29Q261 24 263 21T269 17Q283 17 302 36ZM72 17T91 36Q148 89 192 119T300 180Q312 186 318 196T324 215Q324 225 316 228Q228 281 186 311T89 393Q87 394 77 403T56 413Q53
413 51 410T49 403Q49 398 55 386Q97 323 127 292T200 223Q207 216 207 215Q207 214 200 207Q158 171 128 139T55 42Q50 35 50 29Q50 24 52 21T58 17Q72 17 91 36Z" />
<glyph unicode="&#xbc;" glyph-name="onequarter" horiz-adv-x="649" d="M43 278T40 281T36 290Q36 296 39 300T47 305Q72 309 80 314T89 338V509Q89 528 76 539T46 553Q34 555 34 565Q34 579 47 581Q83 584 108 592T155 616Q156 617 159 618T165 620Q174 620
174 610Q174 606 172 592T170 558V338Q170 325 172 320T182 312T209 305Q220 302 220 290Q220 279 210 279L160 280Q148 281 127 281L95 280Q69 278 47 278Q43 278 40 281ZM538 656T549 660T577 664Q584 664 589 659T594 649Q594 645 593 644L173 -18Q162 -36 131
-36Q123 -36 117 -32T110 -22Q110 -19 111 -18L531 644Q538 656 549 660ZM500 -9T500 -1V87Q500 90 496 91T489 93L423 92Q377 90 346 90Q343 90 340 91T337 95Q337 97 339 99Q360 126 435 212Q469 250 485 269Q500 289 547 336Q561 350 568 350Q573 350 573 341L572
138Q572 132 578 132H597L629 133Q636 133 636 126Q636 117 631 106T620 95H583Q572 95 572 88V26Q572 19 559 11T531 -3T510 -9Q500 -9 500 -1ZM493 133Q495 133 497 134T500 137V232Q500 233 498 233T495 232Q430 162 411 137Q409 133 412 133H493Z" />
<glyph unicode="&#xbd;" glyph-name="onehalf" horiz-adv-x="718" d="M43 278T40 281T36 290Q36 296 39 300T47 305Q72 309 80 314T89 338V509Q89 528 76 539T46 553Q34 555 34 565Q34 579 47 581Q83 584 108 592T155 616Q156 617 159 618T165 620Q174 620 174
610Q174 606 172 592T170 558V338Q170 325 172 320T182 312T209 305Q220 302 220 290Q220 279 210 279L160 280Q148 281 127 281L95 280Q69 278 47 278Q43 278 40 281ZM538 656T549 660T577 664Q584 664 589 659T594 649Q594 645 593 644L173 -18Q162 -36 131 -36Q123
-36 117 -32T110 -22Q110 -19 111 -18L531 644Q538 656 549 660ZM608 -15Q562 -13 533 -13Q498 -13 450 -15L426 -16Q422 -16 419 -13T415 -7Q415 -3 421 3L459 42Q469 52 473 58Q521 110 544 144T568 213Q568 238 554 252T517 267Q496 267 481 257T450 228Q443
217 435 217Q425 217 425 234Q425 248 441 269T486 306T551 322Q597 322 625 296T653 232Q653 190 613 145Q598 127 568 101T530 68L512 53V52Q513 51 515 50T521 49H608Q642 49 670 94Q677 105 686 105Q696 105 694 93Q686 72 677 43T665 -3Q664 -9 661 -12T654
-16L608 -15Z" />
<glyph unicode="&#xbe;" glyph-name="threequarters" horiz-adv-x="652" d="M71 275T52 283T32 308Q32 320 37 330T50 340Q59 340 64 333Q94 303 118 303Q142 303 157 323T172 379Q172 401 156 420T115 440Q101 440 89 435T75 429Q69 429 64 431T60 438Q61 449
75 457T108 473Q139 489 151 503T163 539Q163 553 150 563T119 574Q80 574 56 543Q49 534 45 534Q41 534 38 539T34 549Q34 558 48 574T88 603T144 616Q179 616 206 597T234 548Q234 502 174 480Q171 479 171 478T174 476Q207 472 230 452T253 398Q253 362 231
334T173 291T96 275Q71 275 52 283ZM539 656T550 660T578 664Q585 664 590 659T595 649Q595 645 594 644L174 -18Q163 -36 132 -36Q124 -36 118 -32T111 -22Q111 -19 112 -18L532 644Q539 656 550 660ZM503 -9T503 -1V87Q503 90 499 91T492 93L426 92Q380 90 349
90Q346 90 343 91T340 95Q340 97 342 99Q363 126 438 212Q472 250 488 269Q503 289 550 336Q564 350 571 350Q576 350 576 341L575 138Q575 132 581 132H600L632 133Q639 133 639 126Q639 117 634 106T623 95H586Q575 95 575 88V26Q575 19 562 11T534 -3T513 -9Q503
-9 503 -1ZM496 133Q498 133 500 134T503 137V232Q503 233 501 233T498 232Q433 162 414 137Q412 133 415 133H496Z" />
<glyph unicode="&#xbf;" glyph-name="questiondown" horiz-adv-x="389" d="M253 304T261 296T276 274Q285 252 290 233T296 186Q296 156 270 133T184 81Q121 50 121 7Q121 -29 144 -50T205 -73Q225 -73 246 -65Q266 -60 276 -60Q295 -60 312 -85T329 -136Q329
-153 311 -167T270 -181Q236 -181 201 -164T136 -115Q99 -76 77 -27T54 65Q54 101 67 124T101 157Q131 173 165 193Q175 200 189 208Q209 219 217 235T227 281Q228 291 233 297T246 304Q253 304 261 296ZM270 494T290 474T311 426Q311 397 291 377T242 357Q214
357 194 377T174 426Q174 454 194 474T242 494Q270 494 290 474Z" />
<glyph unicode="&#xc0;" glyph-name="Agrave" horiz-adv-x="711" d="M-4 -5T-4 10Q-4 18 2 23T23 33Q85 49 108 103Q198 310 286 553Q295 580 300 599T308 626Q344 635 365 644Q381 652 391 664T404 679Q412 685 416 677Q418 673 425 652Q462 534 510 386T578
180L601 112Q614 74 635 57T690 31Q717 25 717 9Q717 -3 694 -3L625 -1Q580 2 540 2Q518 2 468 0Q422 -2 405 -2Q394 -2 387 1T380 12Q380 28 407 33Q441 39 456 49T472 78Q472 85 471 88Q463 132 436 224Q434 233 430 236T415 239H235Q223 239 218 221Q188 132
181 99Q180 94 180 85Q180 64 194 52T241 32Q268 26 268 11Q268 5 262 2T244 -2L196 -1Q162 1 140 1Q126 1 108 0T80 -2Q52 -5 24 -5Q-4 -5 -4 10ZM401 285Q409 285 412 286T415 291Q415 292 413 302L343 533Q338 547 336 547Q335 547 329 534L245 302Q243 298
243 294Q243 285 262 285H401ZM399 683Q390 683 378 691Q359 704 315 732Q253 772 225 792Q215 798 212 802T208 813Q208 824 234 834T275 845H279Q295 845 306 833Q356 776 402 710Q411 698 411 691Q411 684 401 683H399Z" />
<glyph unicode="&#xc1;" glyph-name="Aacute" horiz-adv-x="711" d="M-4 -5T-4 10Q-4 18 2 23T23 33Q85 49 108 103Q198 310 286 553Q295 580 300 599T308 626Q344 635 365 644Q381 652 391 664T404 679Q412 685 416 677Q418 673 425 652Q462 534 510 386T578
180L601 112Q614 74 635 57T690 31Q717 25 717 9Q717 -3 694 -3L625 -1Q580 2 540 2Q518 2 468 0Q422 -2 405 -2Q394 -2 387 1T380 12Q380 28 407 33Q441 39 456 49T472 78Q472 85 471 88Q463 132 436 224Q434 233 430 236T415 239H235Q223 239 218 221Q188 132
181 99Q180 94 180 85Q180 64 194 52T241 32Q268 26 268 11Q268 5 262 2T244 -2L196 -1Q162 1 140 1Q126 1 108 0T80 -2Q52 -5 24 -5Q-4 -5 -4 10ZM401 285Q409 285 412 286T415 291Q415 292 413 302L343 533Q338 547 336 547Q335 547 329 534L245 302Q243 298
243 294Q243 285 262 285H401ZM319 684T319 691Q319 698 328 710Q374 776 424 833Q436 847 455 845Q470 844 496 834T522 813Q522 807 519 803T505 792Q477 772 415 732Q371 704 352 691Q336 681 329 683Q319 684 319 691Z" />
<glyph unicode="&#xc2;" glyph-name="Acircumflex" horiz-adv-x="711" d="M-4 -5T-4 10Q-4 18 2 23T23 33Q85 49 108 103Q198 310 286 553Q295 580 300 599T308 626Q344 635 365 644Q381 652 391 664T404 679Q412 685 416 677Q418 673 425 652Q462 534 510 386T578
180L601 112Q614 74 635 57T690 31Q717 25 717 9Q717 -3 694 -3L625 -1Q580 2 540 2Q518 2 468 0Q422 -2 405 -2Q394 -2 387 1T380 12Q380 28 407 33Q441 39 456 49T472 78Q472 85 471 88Q463 132 436 224Q434 233 430 236T415 239H235Q223 239 218 221Q188 132
181 99Q180 94 180 85Q180 64 194 52T241 32Q268 26 268 11Q268 5 262 2T244 -2L196 -1Q162 1 140 1Q126 1 108 0T80 -2Q52 -5 24 -5Q-4 -5 -4 10ZM401 285Q409 285 412 286T415 291Q415 292 413 302L343 533Q338 547 336 547Q335 547 329 534L245 302Q243 298
243 294Q243 285 262 285H401ZM224 694T219 697T214 705Q214 713 223 720L325 810Q344 826 352 831T372 836Q385 836 393 831T420 810L521 720Q529 715 529 705Q529 700 525 697T513 693Q502 693 455 712T384 745Q379 749 372 749Q365 749 360 745Q338 732 291
713T232 694Q224 694 219 697Z" />
<glyph unicode="&#xc3;" glyph-name="Atilde" horiz-adv-x="711" d="M-4 -5T-4 10Q-4 18 2 23T23 33Q85 49 108 103Q198 310 286 553Q295 580 300 599T308 626Q344 635 365 644Q381 652 391 664T404 679Q412 685 416 677Q418 673 425 652Q462 534 510 386T578
180L601 112Q614 74 635 57T690 31Q717 25 717 9Q717 -3 694 -3L625 -1Q580 2 540 2Q518 2 468 0Q422 -2 405 -2Q394 -2 387 1T380 12Q380 28 407 33Q441 39 456 49T472 78Q472 85 471 88Q463 132 436 224Q434 233 430 236T415 239H235Q223 239 218 221Q188 132
181 99Q180 94 180 85Q180 64 194 52T241 32Q268 26 268 11Q268 5 262 2T244 -2L196 -1Q162 1 140 1Q126 1 108 0T80 -2Q52 -5 24 -5Q-4 -5 -4 10ZM401 285Q409 285 412 286T415 291Q415 292 413 302L343 533Q338 547 336 547Q335 547 329 534L245 302Q243 298
243 294Q243 285 262 285H401ZM238 691T232 697T225 707Q225 714 241 738T275 782T304 802Q320 802 358 800L382 799Q430 795 459 795Q478 795 496 815Q502 821 508 828T516 836Q522 836 529 830T537 818Q537 812 521 793Q510 780 497 761T479 734Q474 727 465
724T449 720Q442 720 382 724Q312 730 293 730Q278 730 263 713Q256 706 251 699T243 691Q238 691 232 697Z" />
<glyph unicode="&#xc4;" glyph-name="Adieresis" horiz-adv-x="711" d="M-4 -5T-4 10Q-4 18 2 23T23 33Q85 49 108 103Q198 310 286 553Q295 580 300 599T308 626Q344 635 365 644Q381 652 391 664T404 679Q412 685 416 677Q418 673 425 652Q462 534 510 386T578
180L601 112Q614 74 635 57T690 31Q717 25 717 9Q717 -3 694 -3L625 -1Q580 2 540 2Q518 2 468 0Q422 -2 405 -2Q394 -2 387 1T380 12Q380 28 407 33Q441 39 456 49T472 78Q472 85 471 88Q463 132 436 224Q434 233 430 236T415 239H235Q223 239 218 221Q188 132
181 99Q180 94 180 85Q180 64 194 52T241 32Q268 26 268 11Q268 5 262 2T244 -2L196 -1Q162 1 140 1Q126 1 108 0T80 -2Q52 -5 24 -5Q-4 -5 -4 10ZM401 285Q409 285 412 286T415 291Q415 292 413 302L343 533Q338 547 336 547Q335 547 329 534L245 302Q243 298
243 294Q243 285 262 285H401ZM247 690T228 709T209 754Q209 782 228 800T274 819Q302 819 321 801T340 754Q340 728 321 709T274 690Q247 690 228 709ZM444 690T425 709T406 754Q406 782 425 800T470 819Q499 819 518 801T537 754Q537 728 518 709T470 690Q444
690 425 709Z" />
<glyph unicode="&#xc5;" glyph-name="Aring" horiz-adv-x="711" d="M-4 -5T-4 10Q-4 18 2 23T23 33Q85 49 108 103Q198 310 286 553Q295 580 300 599T308 626Q344 635 365 644Q381 652 391 664T404 679Q412 685 416 677Q418 673 425 652Q462 534 510 386T578 180L601
112Q614 74 635 57T690 31Q717 25 717 9Q717 -3 694 -3L625 -1Q580 2 540 2Q518 2 468 0Q422 -2 405 -2Q394 -2 387 1T380 12Q380 28 407 33Q441 39 456 49T472 78Q472 85 471 88Q463 132 436 224Q434 233 430 236T415 239H235Q223 239 218 221Q188 132 181 99Q180
94 180 85Q180 64 194 52T241 32Q268 26 268 11Q268 5 262 2T244 -2L196 -1Q162 1 140 1Q126 1 108 0T80 -2Q52 -5 24 -5Q-4 -5 -4 10ZM401 285Q409 285 412 286T415 291Q415 292 413 302L343 533Q338 547 336 547Q335 547 329 534L245 302Q243 298 243 294Q243
285 262 285H401ZM414 852T443 832T472 778Q472 740 440 716T364 692Q324 692 295 713T266 769Q266 805 298 828T374 852Q414 852 443 832ZM322 750T337 735T374 720Q393 720 404 735T416 771Q416 793 402 807T365 822Q345 822 334 808T322 771Q322 750 337 735Z"
/>
<glyph unicode="&#xc6;" glyph-name="AE" horiz-adv-x="897" d="M-5 -5T-5 9Q-5 17 1 22T22 31Q49 39 74 61T117 111L403 597L405 602Q405 610 393 612L342 622Q326 626 326 639Q326 645 330 649T341 653Q359 653 413 651Q471 649 499 649Q608 649 740 653L809
654Q816 654 823 650T831 638Q845 560 846 517Q846 511 842 507T832 502Q822 502 816 516Q813 523 806 541T793 571T780 589Q759 613 714 613H620Q601 613 587 603T573 576V365Q573 354 579 348T595 342Q659 342 685 343Q704 343 715 354T737 386Q742 392 746 398T754
409T764 414Q769 414 773 408T777 394Q772 351 772 322Q772 283 776 243V238Q776 220 766 220Q758 220 752 227T743 244Q727 298 694 300Q658 301 596 301Q585 301 579 295T573 278V103Q573 41 629 41H725Q740 41 763 46T797 60Q812 72 824 91T849 139Q852 147
855 150T864 153Q869 153 873 149T878 140Q878 116 872 85T853 10Q848 -4 833 -4L723 -3Q624 0 507 0Q488 0 444 -2Q411 -5 376 -5Q366 -5 359 -1T352 9Q352 22 378 28Q415 38 429 51T444 95V249Q444 257 441 262T425 267H284Q274 267 268 263T257 248Q232 203
203 137L191 110Q184 95 184 80Q184 61 200 50T248 32Q275 26 275 11Q275 5 268 2T250 -2L201 -1Q163 1 142 1Q127 1 108 0T79 -2Q51 -5 22 -5Q-5 -5 -5 9ZM429 319Q444 319 444 333V559Q444 574 441 574Q439 574 431 562L308 335Q304 328 305 324Q306 319 321
319H429Z" />
<glyph unicode="&#xc7;" glyph-name="Ccedilla" horiz-adv-x="709" d="M305 -14T220 28T85 145T34 319Q34 412 85 491T227 617T433 664Q480 664 522 656T614 632Q636 625 639 602Q647 538 647 484Q648 476 643 472T630 467Q623 467 618 471T610 483Q600 518 590
539T560 577Q510 619 420 619Q350 619 296 581T211 480T181 345Q181 258 209 187T293 73T423 31Q495 31 542 62T621 158Q625 165 630 169T642 173Q648 173 652 169T657 157Q657 140 651 109T634 48Q629 36 623 31T605 20Q568 4 516 -5T405 -14Q305 -14 220 28ZM303
-275T291 -267T279 -235Q279 -220 284 -212T298 -204Q300 -204 314 -210T359 -217Q378 -217 390 -208T403 -178Q403 -133 355 -133Q349 -133 342 -135T330 -138Q317 -138 310 -131T302 -118Q302 -108 308 -100L397 8H437L402 -42Q397 -49 397 -53Q397 -60 406 -63Q434
-74 452 -96T471 -149Q471 -182 448 -211T392 -257T329 -275Q303 -275 291 -267Z" />
<glyph unicode="&#xc8;" glyph-name="Egrave" horiz-adv-x="571" d="M39 -5T32 -1T25 9Q25 22 51 28Q88 38 103 51T118 97V550Q118 583 105 597T54 620Q28 625 28 640Q28 647 34 650T52 654Q82 654 134 652Q186 650 211 650Q291 650 401 652Q432 653 454 655T481
657Q502 657 504 642L511 597Q520 545 520 521Q520 513 516 508T506 503Q496 503 490 517Q482 538 475 556T459 583Q431 613 388 613H295Q276 613 262 602T247 573V377Q247 354 270 354H361Q386 354 397 367T419 410Q425 430 438 430Q443 430 447 425T451 410Q447
370 447 333Q447 282 450 252V247Q450 229 440 229Q433 229 427 236T417 257Q409 286 398 299T368 313H275Q260 313 254 308T247 289V99Q247 67 260 54T304 41H386Q440 41 467 61Q494 82 524 139Q531 152 542 152Q552 151 552 135Q552 103 521 10Q515 -4 501 -4L381
-2Q253 0 180 0Q161 0 117 -2Q84 -5 49 -5Q39 -5 32 -1ZM326 683Q317 683 305 691Q286 704 242 732Q180 772 152 792Q142 798 139 802T135 813Q135 824 161 834T202 845H206Q222 845 233 833Q283 776 329 710Q338 698 338 691Q338 684 328 683H326Z" />
<glyph unicode="&#xc9;" glyph-name="Eacute" horiz-adv-x="571" d="M39 -5T32 -1T25 9Q25 22 51 28Q88 38 103 51T118 97V550Q118 583 105 597T54 620Q28 625 28 640Q28 647 34 650T52 654Q82 654 134 652Q186 650 211 650Q291 650 401 652Q432 653 454 655T481
657Q502 657 504 642L511 597Q520 545 520 521Q520 513 516 508T506 503Q496 503 490 517Q482 538 475 556T459 583Q431 613 388 613H295Q276 613 262 602T247 573V377Q247 354 270 354H361Q386 354 397 367T419 410Q425 430 438 430Q443 430 447 425T451 410Q447
370 447 333Q447 282 450 252V247Q450 229 440 229Q433 229 427 236T417 257Q409 286 398 299T368 313H275Q260 313 254 308T247 289V99Q247 67 260 54T304 41H386Q440 41 467 61Q494 82 524 139Q531 152 542 152Q552 151 552 135Q552 103 521 10Q515 -4 501 -4L381
-2Q253 0 180 0Q161 0 117 -2Q84 -5 49 -5Q39 -5 32 -1ZM246 684T246 691Q246 698 255 710Q301 776 351 833Q363 847 382 845Q397 844 423 834T449 813Q449 807 446 803T432 792Q404 772 342 732Q298 704 279 691Q263 681 256 683Q246 684 246 691Z" />
<glyph unicode="&#xca;" glyph-name="Ecircumflex" horiz-adv-x="571" d="M39 -5T32 -1T25 9Q25 22 51 28Q88 38 103 51T118 97V550Q118 583 105 597T54 620Q28 625 28 640Q28 647 34 650T52 654Q82 654 134 652Q186 650 211 650Q291 650 401 652Q432 653 454
655T481 657Q502 657 504 642L511 597Q520 545 520 521Q520 513 516 508T506 503Q496 503 490 517Q482 538 475 556T459 583Q431 613 388 613H295Q276 613 262 602T247 573V377Q247 354 270 354H361Q386 354 397 367T419 410Q425 430 438 430Q443 430 447 425T451
410Q447 370 447 333Q447 282 450 252V247Q450 229 440 229Q433 229 427 236T417 257Q409 286 398 299T368 313H275Q260 313 254 308T247 289V99Q247 67 260 54T304 41H386Q440 41 467 61Q494 82 524 139Q531 152 542 152Q552 151 552 135Q552 103 521 10Q515 -4
501 -4L381 -2Q253 0 180 0Q161 0 117 -2Q84 -5 49 -5Q39 -5 32 -1ZM151 694T146 697T141 705Q141 713 150 720L252 810Q271 826 279 831T299 836Q312 836 320 831T347 810L448 720Q456 715 456 705Q456 700 452 697T440 693Q429 693 382 712T311 745Q306 749 299
749Q292 749 287 745Q265 732 218 713T159 694Q151 694 146 697Z" />
<glyph unicode="&#xcb;" glyph-name="Edieresis" horiz-adv-x="571" d="M39 -5T32 -1T25 9Q25 22 51 28Q88 38 103 51T118 97V550Q118 583 105 597T54 620Q28 625 28 640Q28 647 34 650T52 654Q82 654 134 652Q186 650 211 650Q291 650 401 652Q432 653 454 655T481
657Q502 657 504 642L511 597Q520 545 520 521Q520 513 516 508T506 503Q496 503 490 517Q482 538 475 556T459 583Q431 613 388 613H295Q276 613 262 602T247 573V377Q247 354 270 354H361Q386 354 397 367T419 410Q425 430 438 430Q443 430 447 425T451 410Q447
370 447 333Q447 282 450 252V247Q450 229 440 229Q433 229 427 236T417 257Q409 286 398 299T368 313H275Q260 313 254 308T247 289V99Q247 67 260 54T304 41H386Q440 41 467 61Q494 82 524 139Q531 152 542 152Q552 151 552 135Q552 103 521 10Q515 -4 501 -4L381
-2Q253 0 180 0Q161 0 117 -2Q84 -5 49 -5Q39 -5 32 -1ZM174 690T155 709T136 754Q136 782 155 800T201 819Q229 819 248 801T267 754Q267 728 248 709T201 690Q174 690 155 709ZM371 690T352 709T333 754Q333 782 352 800T397 819Q426 819 445 801T464 754Q464
728 445 709T397 690Q371 690 352 709Z" />
<glyph unicode="&#xcc;" glyph-name="Igrave" horiz-adv-x="356" d="M31 -4T24 -1T17 9Q17 24 42 30Q82 38 98 52T114 97V551Q114 584 100 598T47 620Q22 624 22 641Q22 647 29 650T45 654Q70 654 116 652Q160 650 180 650Q200 650 242 652Q290 654 314 654Q324
654 330 651T336 640Q336 632 330 628T311 620Q271 610 257 596T243 550V98Q243 68 259 54T314 30Q327 27 333 23T340 10Q340 -3 318 -3Q292 -3 244 -1Q200 1 180 1Q158 1 112 -1Q78 -4 40 -4Q31 -4 24 -1ZM207 683Q198 683 186 691Q167 704 123 732Q61 772 33
792Q23 798 20 802T16 813Q16 824 42 834T83 845H87Q103 845 114 833Q164 776 210 710Q219 698 219 691Q219 684 209 683H207Z" />
<glyph unicode="&#xcd;" glyph-name="Iacute" horiz-adv-x="356" d="M31 -4T24 -1T17 9Q17 24 42 30Q82 38 98 52T114 97V551Q114 584 100 598T47 620Q22 624 22 641Q22 647 29 650T45 654Q70 654 116 652Q160 650 180 650Q200 650 242 652Q290 654 314 654Q324
654 330 651T336 640Q336 632 330 628T311 620Q271 610 257 596T243 550V98Q243 68 259 54T314 30Q327 27 333 23T340 10Q340 -3 318 -3Q292 -3 244 -1Q200 1 180 1Q158 1 112 -1Q78 -4 40 -4Q31 -4 24 -1ZM127 684T127 691Q127 698 136 710Q182 776 232 833Q244
847 263 845Q278 844 304 834T330 813Q330 807 327 803T313 792Q285 772 223 732Q179 704 160 691Q144 681 137 683Q127 684 127 691Z" />
<glyph unicode="&#xce;" glyph-name="Icircumflex" horiz-adv-x="356" d="M31 -4T24 -1T17 9Q17 24 42 30Q82 38 98 52T114 97V551Q114 584 100 598T47 620Q22 624 22 641Q22 647 29 650T45 654Q70 654 116 652Q160 650 180 650Q200 650 242 652Q290 654 314 654Q324
654 330 651T336 640Q336 632 330 628T311 620Q271 610 257 596T243 550V98Q243 68 259 54T314 30Q327 27 333 23T340 10Q340 -3 318 -3Q292 -3 244 -1Q200 1 180 1Q158 1 112 -1Q78 -4 40 -4Q31 -4 24 -1ZM32 694T27 697T22 705Q22 713 31 720L133 810Q152 826
160 831T180 836Q193 836 201 831T228 810L329 720Q337 715 337 705Q337 700 333 697T321 693Q310 693 263 712T192 745Q187 749 180 749Q173 749 168 745Q146 732 99 713T40 694Q32 694 27 697Z" />
<glyph unicode="&#xcf;" glyph-name="Idieresis" horiz-adv-x="356" d="M31 -4T24 -1T17 9Q17 24 42 30Q82 38 98 52T114 97V551Q114 584 100 598T47 620Q22 624 22 641Q22 647 29 650T45 654Q70 654 116 652Q160 650 180 650Q200 650 242 652Q290 654 314 654Q324
654 330 651T336 640Q336 632 330 628T311 620Q271 610 257 596T243 550V98Q243 68 259 54T314 30Q327 27 333 23T340 10Q340 -3 318 -3Q292 -3 244 -1Q200 1 180 1Q158 1 112 -1Q78 -4 40 -4Q31 -4 24 -1ZM55 690T36 709T17 754Q17 782 36 800T82 819Q110 819
129 801T148 754Q148 728 129 709T82 690Q55 690 36 709ZM252 690T233 709T214 754Q214 782 233 800T278 819Q307 819 326 801T345 754Q345 728 326 709T278 690Q252 690 233 709Z" />
<glyph unicode="&#xd0;" glyph-name="Eth" horiz-adv-x="762" d="M480 659T562 618T688 503T733 338Q733 246 689 167T564 41T379 -7Q352 -7 274 -3Q251 -2 225 -1T174 0Q155 0 115 -2Q71 -4 44 -4Q34 -4 28 0T21 10Q21 18 27 22T47 30Q85 38 99 52T113 98V310H58Q49
310 44 318T39 335Q39 345 47 352T66 360H113V550Q113 583 100 597T47 620Q34 622 28 626T21 640Q21 646 27 650T44 654Q67 654 113 652Q155 650 177 650Q198 650 272 654Q337 659 370 659Q480 659 562 618ZM470 39T529 114T589 315Q589 404 559 472T475 576T353
613Q310 613 289 611T255 599T243 568V360H369Q377 360 382 356T388 345L387 341Q375 310 350 310H243V128Q243 79 274 59T365 39Q470 39 529 114Z" />
<glyph unicode="&#xd1;" glyph-name="Ntilde" horiz-adv-x="804" d="M661 -18T633 -1T579 49Q539 93 497 141T418 230Q263 405 200 474Q190 486 184 486Q180 486 178 480T176 466V403L177 109Q177 77 195 58T252 30Q267 27 274 23T282 10Q282 4 274 1T255 -3Q225
-3 193 -1Q167 1 150 1Q139 1 91 -2Q67 -4 58 -4Q48 -4 40 -1T32 9Q32 17 39 21T60 30Q107 45 114 111Q133 315 133 508Q133 556 110 579T40 620Q29 623 20 629T11 643Q11 658 36 658Q59 658 105 656Q156 653 217 653Q229 653 238 640Q268 606 412 438Q567 256
618 199Q631 183 637 183Q641 183 643 187T646 200V357Q646 494 645 558Q644 581 626 596T576 618Q543 626 543 639Q543 645 552 648T573 652L657 651L705 652Q737 654 767 654Q779 654 786 651T794 641Q794 626 765 620Q729 613 715 601T700 561Q700 494 697 387Q693
219 693 141Q693 118 695 89T699 51Q702 30 702 20Q702 -18 676 -18Q661 -18 633 -1ZM285 691T279 697T272 707Q272 714 288 738T322 782T351 802Q367 802 405 800L429 799Q477 795 506 795Q525 795 543 815Q549 821 555 828T563 836Q569 836 576 830T584 818Q584
812 568 793Q557 780 544 761T526 734Q521 727 512 724T496 720Q489 720 429 724Q359 730 340 730Q325 730 310 713Q303 706 298 699T290 691Q285 691 279 697Z" />
<glyph unicode="&#xd2;" glyph-name="Ograve" horiz-adv-x="761" d="M285 -14T207 27T81 144T34 315Q34 407 75 487T195 615T385 664Q476 664 554 623T680 506T727 335Q727 243 686 163T566 35T376 -14Q285 -14 207 27ZM486 30T535 98T584 284Q584 373 560 449T486
572T367 619Q275 619 226 551T177 366Q177 277 201 201T273 77T393 30Q486 30 535 98ZM419 683Q410 683 398 691Q379 704 335 732Q273 772 245 792Q235 798 232 802T228 813Q228 824 254 834T295 845H299Q315 845 326 833Q376 776 422 710Q431 698 431 691Q431
684 421 683H419Z" />
<glyph unicode="&#xd3;" glyph-name="Oacute" horiz-adv-x="761" d="M285 -14T207 27T81 144T34 315Q34 407 75 487T195 615T385 664Q476 664 554 623T680 506T727 335Q727 243 686 163T566 35T376 -14Q285 -14 207 27ZM486 30T535 98T584 284Q584 373 560 449T486
572T367 619Q275 619 226 551T177 366Q177 277 201 201T273 77T393 30Q486 30 535 98ZM339 684T339 691Q339 698 348 710Q394 776 444 833Q456 847 475 845Q490 844 516 834T542 813Q542 807 539 803T525 792Q497 772 435 732Q391 704 372 691Q356 681 349 683Q339
684 339 691Z" />
<glyph unicode="&#xd4;" glyph-name="Ocircumflex" horiz-adv-x="761" d="M285 -14T207 27T81 144T34 315Q34 407 75 487T195 615T385 664Q476 664 554 623T680 506T727 335Q727 243 686 163T566 35T376 -14Q285 -14 207 27ZM486 30T535 98T584 284Q584 373 560
449T486 572T367 619Q275 619 226 551T177 366Q177 277 201 201T273 77T393 30Q486 30 535 98ZM244 694T239 697T234 705Q234 713 243 720L345 810Q364 826 372 831T392 836Q405 836 413 831T440 810L541 720Q549 715 549 705Q549 700 545 697T533 693Q522 693
475 712T404 745Q399 749 392 749Q385 749 380 745Q358 732 311 713T252 694Q244 694 239 697Z" />
<glyph unicode="&#xd5;" glyph-name="Otilde" horiz-adv-x="761" d="M285 -14T207 27T81 144T34 315Q34 407 75 487T195 615T385 664Q476 664 554 623T680 506T727 335Q727 243 686 163T566 35T376 -14Q285 -14 207 27ZM486 30T535 98T584 284Q584 373 560 449T486
572T367 619Q275 619 226 551T177 366Q177 277 201 201T273 77T393 30Q486 30 535 98ZM258 691T252 697T245 707Q245 714 261 738T295 782T324 802Q340 802 378 800L402 799Q450 795 479 795Q498 795 516 815Q522 821 528 828T536 836Q542 836 549 830T557 818Q557
812 541 793Q530 780 517 761T499 734Q494 727 485 724T469 720Q462 720 402 724Q332 730 313 730Q298 730 283 713Q276 706 271 699T263 691Q258 691 252 697Z" />
<glyph unicode="&#xd6;" glyph-name="Odieresis" horiz-adv-x="761" d="M285 -14T207 27T81 144T34 315Q34 407 75 487T195 615T385 664Q476 664 554 623T680 506T727 335Q727 243 686 163T566 35T376 -14Q285 -14 207 27ZM486 30T535 98T584 284Q584 373 560
449T486 572T367 619Q275 619 226 551T177 366Q177 277 201 201T273 77T393 30Q486 30 535 98ZM267 690T248 709T229 754Q229 782 248 800T294 819Q322 819 341 801T360 754Q360 728 341 709T294 690Q267 690 248 709ZM464 690T445 709T426 754Q426 782 445 800T490
819Q519 819 538 801T557 754Q557 728 538 709T490 690Q464 690 445 709Z" />
<glyph unicode="&#xd7;" glyph-name="multiply" horiz-adv-x="559" d="M434 54T427 61L285 203Q282 206 279 206Q276 206 272 202L134 63Q130 59 125 58T115 58Q108 60 100 73T92 100Q92 110 98 115L228 245Q232 249 232 252Q232 255 227 260L97 391Q92 396 92
405Q92 422 110 447Q113 450 118 450Q125 450 130 445L272 303Q276 299 278 299T285 302L428 445Q433 450 439 450Q445 450 448 447Q449 445 458 432T467 405Q467 397 461 391L329 258Q325 255 325 253T329 246L463 112Q470 106 470 97Q470 84 461 69T442 54Q434
54 427 61Z" />
<glyph unicode="&#xd8;" glyph-name="Oslash" horiz-adv-x="765" d="M655 541Q727 453 727 335Q727 243 686 163T566 35T376 -14Q315 -14 259 5T158 59L88 -9Q83 -14 74 -14Q59 -14 47 -5T34 15Q34 33 48 45L110 104Q74 146 54 200T34 315Q34 407 75 487T195 615T385
664Q449 664 507 643T612 584L689 657Q695 664 705 664Q711 664 716 661T724 651Q728 639 728 629Q728 612 718 602L655 541ZM177 273T203 193L534 509Q507 561 465 590T367 619Q275 619 226 551T177 366Q177 273 203 193ZM584 374T560 449L232 130Q260 83 300
57T393 30Q486 30 535 98T584 284Q584 374 560 449Z" />
<glyph unicode="&#xd9;" glyph-name="Ugrave" horiz-adv-x="742" d="M237 -14T166 56T94 249V541Q94 571 81 592T45 619Q15 626 15 641Q15 647 23 650T43 654Q62 654 100 652Q142 650 161 650Q180 650 222 652L278 653Q305 653 305 640Q305 633 299 629T282 621T264
614Q248 607 236 588T224 539V270Q224 167 273 114T402 61Q496 61 542 120T589 293Q589 426 587 492Q585 550 575 578T538 617Q533 619 523 622T507 630T501 639Q501 653 530 653L582 652Q594 651 620 651Q638 651 664 653L707 654Q734 654 734 641Q734 628 704
620Q674 612 662 592T647 536Q642 429 640 325Q640 281 639 258Q638 180 603 118T507 21T373 -14Q237 -14 166 56ZM428 683Q419 683 407 691Q388 704 344 732Q282 772 254 792Q244 798 241 802T237 813Q237 824 263 834T304 845H308Q324 845 335 833Q385 776 431
710Q440 698 440 691Q440 684 430 683H428Z" />
<glyph unicode="&#xda;" glyph-name="Uacute" horiz-adv-x="742" d="M237 -14T166 56T94 249V541Q94 571 81 592T45 619Q15 626 15 641Q15 647 23 650T43 654Q62 654 100 652Q142 650 161 650Q180 650 222 652L278 653Q305 653 305 640Q305 633 299 629T282 621T264
614Q248 607 236 588T224 539V270Q224 167 273 114T402 61Q496 61 542 120T589 293Q589 426 587 492Q585 550 575 578T538 617Q533 619 523 622T507 630T501 639Q501 653 530 653L582 652Q594 651 620 651Q638 651 664 653L707 654Q734 654 734 641Q734 628 704
620Q674 612 662 592T647 536Q642 429 640 325Q640 281 639 258Q638 180 603 118T507 21T373 -14Q237 -14 166 56ZM348 684T348 691Q348 698 357 710Q403 776 453 833Q465 847 484 845Q499 844 525 834T551 813Q551 807 548 803T534 792Q506 772 444 732Q400 704
381 691Q365 681 358 683Q348 684 348 691Z" />
<glyph unicode="&#xdb;" glyph-name="Ucircumflex" horiz-adv-x="742" d="M237 -14T166 56T94 249V541Q94 571 81 592T45 619Q15 626 15 641Q15 647 23 650T43 654Q62 654 100 652Q142 650 161 650Q180 650 222 652L278 653Q305 653 305 640Q305 633 299 629T282
621T264 614Q248 607 236 588T224 539V270Q224 167 273 114T402 61Q496 61 542 120T589 293Q589 426 587 492Q585 550 575 578T538 617Q533 619 523 622T507 630T501 639Q501 653 530 653L582 652Q594 651 620 651Q638 651 664 653L707 654Q734 654 734 641Q734
628 704 620Q674 612 662 592T647 536Q642 429 640 325Q640 281 639 258Q638 180 603 118T507 21T373 -14Q237 -14 166 56ZM253 694T248 697T243 705Q243 713 252 720L354 810Q373 826 381 831T401 836Q414 836 422 831T449 810L550 720Q558 715 558 705Q558 700
554 697T542 693Q531 693 484 712T413 745Q408 749 401 749Q394 749 389 745Q367 732 320 713T261 694Q253 694 248 697Z" />
<glyph unicode="&#xdc;" glyph-name="Udieresis" horiz-adv-x="742" d="M237 -14T166 56T94 249V541Q94 571 81 592T45 619Q15 626 15 641Q15 647 23 650T43 654Q62 654 100 652Q142 650 161 650Q180 650 222 652L278 653Q305 653 305 640Q305 633 299 629T282
621T264 614Q248 607 236 588T224 539V270Q224 167 273 114T402 61Q496 61 542 120T589 293Q589 426 587 492Q585 550 575 578T538 617Q533 619 523 622T507 630T501 639Q501 653 530 653L582 652Q594 651 620 651Q638 651 664 653L707 654Q734 654 734 641Q734
628 704 620Q674 612 662 592T647 536Q642 429 640 325Q640 281 639 258Q638 180 603 118T507 21T373 -14Q237 -14 166 56ZM276 690T257 709T238 754Q238 782 257 800T303 819Q331 819 350 801T369 754Q369 728 350 709T303 690Q276 690 257 709ZM473 690T454 709T435
754Q435 782 454 800T499 819Q528 819 547 801T566 754Q566 728 547 709T499 690Q473 690 454 709Z" />
<glyph unicode="&#xdd;" glyph-name="Yacute" horiz-adv-x="629" d="M176 -6T169 -2T161 9Q161 24 192 29Q229 36 246 56T263 109V251Q263 292 234 343L109 540Q90 569 71 590T27 619Q13 623 7 627T0 640Q0 647 6 650T24 654Q47 654 93 652Q131 649 171 649Q200
649 227 652Q263 654 281 654Q292 654 300 650T309 640Q309 627 279 619Q254 613 244 607T233 586Q233 571 245 551L345 376Q358 351 366 351Q370 351 376 358T389 376Q428 441 476 536Q489 562 489 580Q489 613 440 619Q429 620 419 626T408 640Q408 646 416 649T437
653Q456 653 486 651Q514 649 530 649Q543 649 559 650T584 652Q610 655 633 655Q662 655 662 641Q662 634 652 629T624 619Q597 611 577 593T537 543L512 503L419 353Q404 327 398 307T392 258V110Q392 74 408 56T464 29Q480 26 487 22T495 9Q495 2 488 -1T468
-5Q442 -5 394 -1Q382 0 366 1T329 2Q307 2 263 -2Q215 -6 189 -6Q176 -6 169 -2ZM302 684T302 691Q302 698 311 710Q357 776 407 833Q419 847 438 845Q453 844 479 834T505 813Q505 807 502 803T488 792Q460 772 398 732Q354 704 335 691Q319 681 312 683Q302
684 302 691Z" />
<glyph unicode="&#xde;" glyph-name="Thorn" horiz-adv-x="580" d="M32 -4T25 -1T18 9Q18 24 43 30Q83 38 99 52T115 98V550Q115 582 103 597T53 620Q28 624 28 641Q28 647 35 650T51 654Q78 654 122 652Q162 650 180 650Q200 650 246 652Q294 654 319 654Q329
654 335 651T341 640Q341 632 335 628T316 620Q276 611 261 598T245 556V543Q245 538 246 534T251 530Q256 531 264 533T274 536Q305 543 349 543Q405 543 451 521T524 454T551 345Q551 276 516 227T422 153T290 128Q279 128 270 129T253 131Q245 131 245 122V97Q245
68 261 54T316 30Q329 27 335 23T341 10Q341 -3 320 -3Q294 -3 246 -1Q202 1 182 1Q159 1 115 -1Q79 -4 41 -4Q32 -4 25 -1ZM353 165T386 209T420 335Q420 411 392 458T314 505Q275 505 260 490T245 429V228Q245 165 288 165Q353 165 386 209Z" />
<glyph unicode="&#xdf;" glyph-name="germandbls" horiz-adv-x="555" d="M326 -14T302 1T278 42Q278 63 286 80T309 98Q322 98 343 76Q361 59 374 52T409 44Q427 44 442 56T458 90Q458 116 439 138T368 207Q312 256 293 280T273 334Q273 358 287 376T330 419Q360
446 360 446Q408 494 408 549Q408 601 382 633T305 665Q251 665 223 620T195 473V72Q195 54 207 45T244 29Q253 27 259 22T265 9Q265 3 259 0T246 -3Q217 -3 190 0Q158 2 142 2Q126 2 96 0Q72 -3 43 -3Q37 -3 30 0T22 9Q22 16 28 20T45 29Q64 35 74 43T84 70V353Q53
353 32 355Q28 356 24 364T19 381Q19 387 27 389Q61 400 84 414Q88 516 126 581T221 676T337 706Q376 706 409 690T460 646T479 587Q479 549 465 523T418 464Q396 441 386 422T376 372Q376 352 390 336T449 278Q493 238 512 211T531 150Q531 107 505 70T440 9T367
-14Q326 -14 302 1Z" />
<glyph unicode="&#xe0;" glyph-name="agrave" horiz-adv-x="425" d="M89 -14T61 14T32 76Q32 109 51 130T112 170L205 210Q225 218 229 224T234 251L236 310Q237 338 224 355T187 372Q174 372 160 367T138 354Q131 348 131 331L132 306Q132 296 102 282T51 267Q44
267 40 272T36 284Q36 315 80 352Q116 383 163 404T243 426Q291 426 320 395T348 312L343 98Q342 76 351 61T375 46Q397 46 409 58Q413 62 416 62Q421 62 424 59T428 50Q428 39 412 23Q395 5 374 -4T333 -14Q306 -14 286 -1T247 41H244Q211 12 184 -1T125 -14Q89
-14 61 14ZM206 46T221 64Q230 71 231 95L233 159V163Q233 176 224 176Q218 176 209 172Q171 156 156 140T140 96Q140 70 152 58T181 46Q206 46 221 64ZM237 454T219 472Q166 525 98 609Q88 622 88 632Q88 643 104 649T144 655Q158 655 167 650T183 632Q196 609
219 561T253 486Q257 474 257 465Q257 454 247 454Q237 454 219 472Z" />
<glyph unicode="&#xe1;" glyph-name="aacute" horiz-adv-x="425" d="M89 -14T61 14T32 76Q32 109 51 130T112 170L205 210Q225 218 229 224T234 251L236 310Q237 338 224 355T187 372Q174 372 160 367T138 354Q131 348 131 331L132 306Q132 296 102 282T51 267Q44
267 40 272T36 284Q36 315 80 352Q116 383 163 404T243 426Q291 426 320 395T348 312L343 98Q342 76 351 61T375 46Q397 46 409 58Q413 62 416 62Q421 62 424 59T428 50Q428 39 412 23Q395 5 374 -4T333 -14Q306 -14 286 -1T247 41H244Q211 12 184 -1T125 -14Q89
-14 61 14ZM206 46T221 64Q230 71 231 95L233 159V163Q233 176 224 176Q218 176 209 172Q171 156 156 140T140 96Q140 70 152 58T181 46Q206 46 221 64ZM180 454T180 465Q180 474 184 486Q195 512 218 560T254 632Q261 645 270 650T293 655Q317 655 333 649T349
632Q349 622 339 609Q271 525 218 472Q200 454 190 454Q180 454 180 465Z" />
<glyph unicode="&#xe2;" glyph-name="acircumflex" horiz-adv-x="425" d="M89 -14T61 14T32 76Q32 109 51 130T112 170L205 210Q225 218 229 224T234 251L236 310Q237 338 224 355T187 372Q174 372 160 367T138 354Q131 348 131 331L132 306Q132 296 102 282T51
267Q44 267 40 272T36 284Q36 315 80 352Q116 383 163 404T243 426Q291 426 320 395T348 312L343 98Q342 76 351 61T375 46Q397 46 409 58Q413 62 416 62Q421 62 424 59T428 50Q428 39 412 23Q395 5 374 -4T333 -14Q306 -14 286 -1T247 41H244Q211 12 184 -1T125
-14Q89 -14 61 14ZM206 46T221 64Q230 71 231 95L233 159V163Q233 176 224 176Q218 176 209 172Q171 156 156 140T140 96Q140 70 152 58T181 46Q206 46 221 64ZM224 663T230 656T245 632Q267 598 293 552T329 485Q332 478 332 471Q332 455 319 455Q308 455 282
483L221 557Q218 560 217 560T211 557L149 483Q124 455 112 455Q98 455 98 468Q98 475 103 485Q117 519 185 631Q195 648 201 655T216 663Q224 663 230 656Z" />
<glyph unicode="&#xe3;" glyph-name="atilde" horiz-adv-x="425" d="M89 -14T61 14T32 76Q32 109 51 130T112 170L205 210Q225 218 229 224T234 251L236 310Q237 338 224 355T187 372Q174 372 160 367T138 354Q131 348 131 331L132 306Q132 296 102 282T51 267Q44
267 40 272T36 284Q36 315 80 352Q116 383 163 404T243 426Q291 426 320 395T348 312L343 98Q342 76 351 61T375 46Q397 46 409 58Q413 62 416 62Q421 62 424 59T428 50Q428 39 412 23Q395 5 374 -4T333 -14Q306 -14 286 -1T247 41H244Q211 12 184 -1T125 -14Q89
-14 61 14ZM206 46T221 64Q230 71 231 95L233 159V163Q233 176 224 176Q218 176 209 172Q171 156 156 140T140 96Q140 70 152 58T181 46Q206 46 221 64ZM86 463T79 469T72 481Q72 487 92 514T134 564T167 587Q179 587 194 584Q230 580 230 580Q282 576 293 576Q312
576 330 596Q334 601 343 611T355 622Q361 622 368 616T376 603Q376 600 370 592T355 574L329 539L310 512Q301 498 280 498L225 501Q175 506 146 506Q134 506 118 490Q109 478 102 471T92 463Q86 463 79 469Z" />
<glyph unicode="&#xe4;" glyph-name="adieresis" horiz-adv-x="425" d="M89 -14T61 14T32 76Q32 109 51 130T112 170L205 210Q225 218 229 224T234 251L236 310Q237 338 224 355T187 372Q174 372 160 367T138 354Q131 348 131 331L132 306Q132 296 102 282T51
267Q44 267 40 272T36 284Q36 315 80 352Q116 383 163 404T243 426Q291 426 320 395T348 312L343 98Q342 76 351 61T375 46Q397 46 409 58Q413 62 416 62Q421 62 424 59T428 50Q428 39 412 23Q395 5 374 -4T333 -14Q306 -14 286 -1T247 41H244Q211 12 184 -1T125
-14Q89 -14 61 14ZM206 46T221 64Q230 71 231 95L233 159V163Q233 176 224 176Q218 176 209 172Q171 156 156 140T140 96Q140 70 152 58T181 46Q206 46 221 64ZM93 499T74 518T55 563Q55 590 74 609T119 628Q146 628 165 609T185 563Q185 538 166 519T119 499Q93
499 74 518ZM282 499T263 518T243 563Q243 590 262 609T307 628Q334 628 354 609T374 563Q374 538 354 519T307 499Q282 499 263 518Z" />
<glyph unicode="&#xe5;" glyph-name="aring" horiz-adv-x="425" d="M89 -14T61 14T32 76Q32 109 51 130T112 170L205 210Q225 218 229 224T234 251L236 310Q237 338 224 355T187 372Q174 372 160 367T138 354Q131 348 131 331L132 306Q132 296 102 282T51 267Q44
267 40 272T36 284Q36 315 80 352Q116 383 163 404T243 426Q291 426 320 395T348 312L343 98Q342 76 351 61T375 46Q397 46 409 58Q413 62 416 62Q421 62 424 59T428 50Q428 39 412 23Q395 5 374 -4T333 -14Q306 -14 286 -1T247 41H244Q211 12 184 -1T125 -14Q89
-14 61 14ZM206 46T221 64Q230 71 231 95L233 159V163Q233 176 224 176Q218 176 209 172Q171 156 156 140T140 96Q140 70 152 58T181 46Q206 46 221 64ZM171 480T143 505T115 570Q115 610 146 637T219 665Q257 665 285 641T313 578Q313 536 282 508T210 480Q171
480 143 505ZM239 513T249 529T259 571Q259 595 245 612T209 630Q190 630 180 614T169 574Q169 549 183 531T219 513Q239 513 249 529Z" />
<glyph unicode="&#xe6;" glyph-name="ae" horiz-adv-x="602" d="M92 -14T62 12T32 73Q32 107 51 130T113 170L207 208Q226 217 231 223T236 246L237 308Q238 336 225 353T188 371Q174 371 158 363T136 346Q132 339 132 327L133 305Q133 295 101 281T51 267Q45
267 41 272T37 283Q37 316 80 353Q113 380 158 403T241 427Q262 427 282 419T316 396Q320 392 323 392Q326 392 330 395Q381 426 436 426Q494 426 535 396T577 316Q577 301 571 294T553 282L492 261Q383 223 357 213Q346 208 346 195V158Q346 119 373 94T440 69Q471
69 500 81T550 120Q556 126 562 126Q567 126 570 123T574 113Q574 104 570 97Q537 41 497 14T391 -14Q316 -14 264 35Q256 43 253 43Q250 43 245 38Q217 12 194 -1T130 -14Q92 -14 62 12ZM430 282L474 296Q481 299 483 304T486 317Q486 347 469 367T420 387Q396
387 373 370T348 327V268Q348 262 351 260T359 259L430 282ZM205 45T224 64Q235 75 235 94V152Q235 163 234 167T228 172Q224 172 216 169Q142 142 141 96Q141 70 153 58T181 45Q205 45 224 64Z" />
<glyph unicode="&#xe7;" glyph-name="ccedilla" horiz-adv-x="410" d="M160 -14T118 13T52 88T27 194Q27 257 56 310T136 395T247 426Q284 426 317 414T375 378Q385 369 385 360Q385 349 368 332T339 315Q332 315 326 319T310 331Q284 352 258 365T212 379Q170
379 148 343T125 235Q125 162 162 118T262 74Q291 74 312 83T359 114Q360 115 364 118T374 122Q385 122 385 107Q385 95 375 78Q354 43 310 15T212 -14Q160 -14 118 13ZM139 -274T130 -265T120 -229Q120 -206 136 -206Q141 -206 160 -213T198 -220Q231 -220 231
-178Q231 -156 214 -144T174 -131Q165 -131 156 -135T143 -139Q136 -139 129 -133T122 -118Q122 -112 133 -99L223 8H262L226 -37Q220 -45 220 -48Q220 -53 233 -59Q259 -70 274 -90T289 -140Q289 -174 267 -205T215 -255T160 -274Q139 -274 130 -265Z" />
<glyph unicode="&#xe8;" glyph-name="egrave" horiz-adv-x="408" d="M158 -14T116 14T49 91T25 204Q25 264 53 315T130 396T235 426Q298 426 340 388T382 292Q382 274 375 265T351 256H148Q134 256 128 248T122 221Q122 179 140 145T189 91T260 71Q312 71 360
114Q368 122 373 122Q377 122 380 119T383 110Q383 97 371 76Q353 38 310 12T212 -14Q158 -14 116 14ZM219 295Q263 295 283 300Q292 302 292 326Q292 353 272 371T221 390Q200 390 180 378T148 346T135 307Q135 295 149 295H219ZM253 454T235 472Q182 525 114
609Q104 622 104 632Q104 643 120 649T160 655Q174 655 183 650T199 632Q212 609 235 561T269 486Q273 474 273 465Q273 454 263 454Q253 454 235 472Z" />
<glyph unicode="&#xe9;" glyph-name="eacute" horiz-adv-x="408" d="M158 -14T116 14T49 91T25 204Q25 264 53 315T130 396T235 426Q298 426 340 388T382 292Q382 274 375 265T351 256H148Q134 256 128 248T122 221Q122 179 140 145T189 91T260 71Q312 71 360
114Q368 122 373 122Q377 122 380 119T383 110Q383 97 371 76Q353 38 310 12T212 -14Q158 -14 116 14ZM219 295Q263 295 283 300Q292 302 292 326Q292 353 272 371T221 390Q200 390 180 378T148 346T135 307Q135 295 149 295H219ZM196 454T196 465Q196 474 200
486Q211 512 234 560T270 632Q277 645 286 650T309 655Q333 655 349 649T365 632Q365 622 355 609Q287 525 234 472Q216 454 206 454Q196 454 196 465Z" />
<glyph unicode="&#xea;" glyph-name="ecircumflex" horiz-adv-x="408" d="M158 -14T116 14T49 91T25 204Q25 264 53 315T130 396T235 426Q298 426 340 388T382 292Q382 274 375 265T351 256H148Q134 256 128 248T122 221Q122 179 140 145T189 91T260 71Q312 71
360 114Q368 122 373 122Q377 122 380 119T383 110Q383 97 371 76Q353 38 310 12T212 -14Q158 -14 116 14ZM219 295Q263 295 283 300Q292 302 292 326Q292 353 272 371T221 390Q200 390 180 378T148 346T135 307Q135 295 149 295H219ZM240 663T246 656T261 632Q283
598 309 552T345 485Q348 478 348 471Q348 455 335 455Q324 455 298 483L237 557Q234 560 233 560T227 557L165 483Q140 455 128 455Q114 455 114 468Q114 475 119 485Q133 519 201 631Q211 648 217 655T232 663Q240 663 246 656Z" />
<glyph unicode="&#xeb;" glyph-name="edieresis" horiz-adv-x="408" d="M158 -14T116 14T49 91T25 204Q25 264 53 315T130 396T235 426Q298 426 340 388T382 292Q382 274 375 265T351 256H148Q134 256 128 248T122 221Q122 179 140 145T189 91T260 71Q312 71 360
114Q368 122 373 122Q377 122 380 119T383 110Q383 97 371 76Q353 38 310 12T212 -14Q158 -14 116 14ZM219 295Q263 295 283 300Q292 302 292 326Q292 353 272 371T221 390Q200 390 180 378T148 346T135 307Q135 295 149 295H219ZM109 499T90 518T71 563Q71 590
90 609T135 628Q162 628 181 609T201 563Q201 538 182 519T135 499Q109 499 90 518ZM298 499T279 518T259 563Q259 590 278 609T323 628Q350 628 370 609T390 563Q390 538 370 519T323 499Q298 499 279 518Z" />
<glyph unicode="&#xec;" glyph-name="igrave" horiz-adv-x="279" d="M32 -3T27 0T22 10Q22 23 42 28Q67 34 77 41T87 65V282Q87 314 77 330T43 350Q38 351 35 355T32 366Q32 379 43 381Q109 396 181 436Q195 443 199 443Q210 443 210 433L207 399Q199 335 199
291V66Q199 51 208 44T244 28Q255 24 260 21T265 10Q265 -2 247 -2Q228 -2 192 0Q160 2 142 2Q126 2 94 0Q69 -3 40 -3Q32 -3 27 0ZM161 454T143 472Q90 525 22 609Q12 622 12 632Q12 643 28 649T68 655Q82 655 91 650T107 632Q120 609 143 561T177 486Q181 474
181 465Q181 454 171 454Q161 454 143 472Z" />
<glyph unicode="&#xed;" glyph-name="iacute" horiz-adv-x="279" d="M32 -3T27 0T22 10Q22 23 42 28Q67 34 77 41T87 65V282Q87 314 77 330T43 350Q38 351 35 355T32 366Q32 379 43 381Q109 396 181 436Q195 443 199 443Q210 443 210 433L207 399Q199 335 199
291V66Q199 51 208 44T244 28Q255 24 260 21T265 10Q265 -2 247 -2Q228 -2 192 0Q160 2 142 2Q126 2 94 0Q69 -3 40 -3Q32 -3 27 0ZM104 454T104 465Q104 474 108 486Q119 512 142 560T178 632Q185 645 194 650T217 655Q241 655 257 649T273 632Q273 622 263 609Q195
525 142 472Q124 454 114 454Q104 454 104 465Z" />
<glyph unicode="&#xee;" glyph-name="icircumflex" horiz-adv-x="279" d="M32 -3T27 0T22 10Q22 23 42 28Q67 34 77 41T87 65V282Q87 314 77 330T43 350Q38 351 35 355T32 366Q32 379 43 381Q109 396 181 436Q195 443 199 443Q210 443 210 433L207 399Q199 335
199 291V66Q199 51 208 44T244 28Q255 24 260 21T265 10Q265 -2 247 -2Q228 -2 192 0Q160 2 142 2Q126 2 94 0Q69 -3 40 -3Q32 -3 27 0ZM404 663T410 656T425 632Q447 598 473 552T509 485Q512 478 512 471Q512 455 499 455Q488 455 462 483L401 557Q398 560 397
560T391 557L329 483Q304 455 292 455Q278 455 278 468Q278 475 283 485Q297 519 365 631Q375 648 381 655T396 663Q404 663 410 656Z" />
<glyph unicode="&#xef;" glyph-name="idieresis" horiz-adv-x="279" d="M32 -3T27 0T22 10Q22 23 42 28Q67 34 77 41T87 65V282Q87 314 77 330T43 350Q38 351 35 355T32 366Q32 379 43 381Q109 396 181 436Q195 443 199 443Q210 443 210 433L207 399Q199 335 199
291V66Q199 51 208 44T244 28Q255 24 260 21T265 10Q265 -2 247 -2Q228 -2 192 0Q160 2 142 2Q126 2 94 0Q69 -3 40 -3Q32 -3 27 0ZM273 499T254 518T235 563Q235 590 254 609T299 628Q326 628 345 609T365 563Q365 538 346 519T299 499Q273 499 254 518ZM462 499T443
518T423 563Q423 590 442 609T487 628Q514 628 534 609T554 563Q554 538 534 519T487 499Q462 499 443 518Z" />
<glyph unicode="&#xf0;" glyph-name="eth" horiz-adv-x="505" d="M182 -14T132 12T52 86T22 192Q22 255 54 309T141 395T264 427Q291 427 313 415Q320 412 319 421Q310 454 297 488T270 544L135 474Q132 472 127 472Q121 472 117 476T113 485Q113 514 130 522L243
581Q179 652 94 671Q66 676 66 690Q66 704 103 704Q157 704 213 682T319 620L424 675Q432 679 439 679Q453 679 453 668Q453 654 448 645T430 628L356 589Q410 531 442 446T475 250Q475 188 448 127T367 26T241 -14Q182 -14 132 12ZM304 27T329 77T355 224Q355
256 348 288T329 341Q292 383 245 383Q199 383 172 336T144 217Q144 169 159 125T201 54T259 27Q304 27 329 77Z" />
<glyph unicode="&#xf1;" glyph-name="ntilde" horiz-adv-x="553" d="M34 -3T28 0T22 10Q22 18 27 21T45 29Q66 35 75 42T85 67V291Q85 317 78 332T51 352Q41 356 41 369Q41 381 50 384Q123 401 180 434Q182 435 187 438T196 442Q204 442 204 431L202 410Q199 374
199 372Q199 360 201 358Q237 392 273 409T354 426Q406 426 440 387T474 284V66Q474 48 483 42T513 29Q523 25 529 21T535 9Q535 3 529 0T516 -3Q487 -3 464 0Q436 2 419 2Q403 2 373 0Q351 -3 321 -3Q315 -3 310 0T304 9Q304 22 324 29Q344 35 353 41T362 66V269Q362
309 343 332T290 355Q243 355 204 324Q196 319 196 304V66Q196 48 205 42T234 29Q255 23 255 10Q255 4 250 1T237 -3Q209 -3 186 0Q158 2 142 2Q127 2 95 0Q71 -3 42 -3Q34 -3 28 0ZM148 463T141 469T134 481Q134 487 154 514T196 564T229 587Q241 587 256 584Q292
580 292 580Q344 576 355 576Q374 576 392 596Q396 601 405 611T417 622Q423 622 430 616T438 603Q438 600 432 592T417 574L391 539L372 512Q363 498 342 498L287 501Q237 506 208 506Q196 506 180 490Q171 478 164 471T154 463Q148 463 141 469Z" />
<glyph unicode="&#xf2;" glyph-name="ograve" horiz-adv-x="501" d="M178 -14T130 12T55 86T27 193Q27 254 57 308T141 394T257 427Q316 427 365 399T444 323T473 220Q473 156 446 103T366 18T236 -14Q178 -14 130 12ZM309 25T332 66Q353 104 353 196Q353 248
339 291T300 361T241 387Q201 387 178 360Q160 340 154 305T147 217Q147 168 161 124T201 53T256 25Q309 25 332 66ZM279 454T261 472Q208 525 140 609Q130 622 130 632Q130 643 146 649T186 655Q200 655 209 650T225 632Q238 609 261 561T295 486Q299 474 299
465Q299 454 289 454Q279 454 261 472Z" />
<glyph unicode="&#xf3;" glyph-name="oacute" horiz-adv-x="501" d="M178 -14T130 12T55 86T27 193Q27 254 57 308T141 394T257 427Q316 427 365 399T444 323T473 220Q473 156 446 103T366 18T236 -14Q178 -14 130 12ZM309 25T332 66Q353 104 353 196Q353 248
339 291T300 361T241 387Q201 387 178 360Q160 340 154 305T147 217Q147 168 161 124T201 53T256 25Q309 25 332 66ZM222 454T222 465Q222 474 226 486Q237 512 260 560T296 632Q303 645 312 650T335 655Q359 655 375 649T391 632Q391 622 381 609Q313 525 260
472Q242 454 232 454Q222 454 222 465Z" />
<glyph unicode="&#xf4;" glyph-name="ocircumflex" horiz-adv-x="501" d="M178 -14T130 12T55 86T27 193Q27 254 57 308T141 394T257 427Q316 427 365 399T444 323T473 220Q473 156 446 103T366 18T236 -14Q178 -14 130 12ZM309 25T332 66Q353 104 353 196Q353
248 339 291T300 361T241 387Q201 387 178 360Q160 340 154 305T147 217Q147 168 161 124T201 53T256 25Q309 25 332 66ZM266 663T272 656T287 632Q309 598 335 552T371 485Q374 478 374 471Q374 455 361 455Q350 455 324 483L263 557Q260 560 259 560T253 557L191
483Q166 455 154 455Q140 455 140 468Q140 475 145 485Q159 519 227 631Q237 648 243 655T258 663Q266 663 272 656Z" />
<glyph unicode="&#xf5;" glyph-name="otilde" horiz-adv-x="501" d="M178 -14T130 12T55 86T27 193Q27 254 57 308T141 394T257 427Q316 427 365 399T444 323T473 220Q473 156 446 103T366 18T236 -14Q178 -14 130 12ZM309 25T332 66Q353 104 353 196Q353 248
339 291T300 361T241 387Q201 387 178 360Q160 340 154 305T147 217Q147 168 161 124T201 53T256 25Q309 25 332 66ZM119 463T112 469T105 481Q105 487 125 514T167 564T200 587Q212 587 227 584Q263 580 263 580Q315 576 326 576Q345 576 363 596Q367 601 376
611T388 622Q394 622 401 616T409 603Q409 600 403 592T388 574L362 539L343 512Q334 498 313 498L258 501Q208 506 179 506Q167 506 151 490Q142 478 135 471T125 463Q119 463 112 469Z" />
<glyph unicode="&#xf6;" glyph-name="odieresis" horiz-adv-x="501" d="M178 -14T130 12T55 86T27 193Q27 254 57 308T141 394T257 427Q316 427 365 399T444 323T473 220Q473 156 446 103T366 18T236 -14Q178 -14 130 12ZM309 25T332 66Q353 104 353 196Q353 248
339 291T300 361T241 387Q201 387 178 360Q160 340 154 305T147 217Q147 168 161 124T201 53T256 25Q309 25 332 66ZM135 499T116 518T97 563Q97 590 116 609T161 628Q188 628 207 609T227 563Q227 538 208 519T161 499Q135 499 116 518ZM324 499T305 518T285 563Q285
590 304 609T349 628Q376 628 396 609T416 563Q416 538 396 519T349 499Q324 499 305 518Z" />
<glyph unicode="&#xf7;" glyph-name="divide" horiz-adv-x="597" d="M275 350T257 368T238 412Q238 438 256 456T300 475Q326 475 344 457T363 412Q363 386 345 368T300 350Q275 350 257 368ZM59 246T54 250T48 258Q48 270 55 285T77 301H530Q538 301 544 298T550
289Q550 274 540 260T516 246H65Q59 246 54 250ZM276 65T258 83T239 127Q239 153 257 171T301 190Q327 190 345 172T364 127Q364 101 346 83T301 65Q276 65 258 83Z" />
<glyph unicode="&#xf8;" glyph-name="oslash" horiz-adv-x="495" d="M429 344Q473 289 473 220Q473 156 446 103T366 18T236 -14Q162 -14 106 28L70 -7Q60 -15 52 -15Q41 -15 32 -9T23 7Q23 24 35 34L68 66Q27 120 27 193Q27 254 57 308T141 394T257 427Q336 427
396 378L441 420Q448 427 458 427Q475 427 475 407Q475 399 471 390T461 375L429 344ZM147 183T155 148L330 315Q315 348 292 367T241 387Q201 387 178 360Q160 340 154 305T147 217Q147 183 155 148ZM353 234T346 263L173 94Q189 62 210 44T256 25Q309 25 332
66Q353 104 353 196Q353 234 346 263Z" />
<glyph unicode="&#xf9;" glyph-name="ugrave" horiz-adv-x="543" d="M345 -20T345 -11L347 20Q350 38 350 52L349 61Q318 26 276 6T189 -15Q140 -15 109 22T77 119V311Q77 335 68 348T36 368Q21 370 21 385Q21 401 36 403Q72 405 100 409T167 423Q177 427 183
427Q196 427 195 413Q188 370 188 336V143Q188 107 208 83T257 58Q301 58 325 80Q335 88 344 105T353 146V314Q353 340 336 353T295 368Q272 370 272 389Q272 398 278 402T295 407Q359 410 389 413T448 425L460 427Q475 427 475 416Q475 414 471 402Q469 391 467
368T464 333V101Q464 59 482 59L516 60Q534 60 534 43Q534 34 531 30T518 24Q454 18 377 -14Q361 -20 353 -20Q345 -20 345 -11ZM294 454T276 472Q223 525 155 609Q145 622 145 632Q145 643 161 649T201 655Q215 655 224 650T240 632Q253 609 276 561T310 486Q314
474 314 465Q314 454 304 454Q294 454 276 472Z" />
<glyph unicode="&#xfa;" glyph-name="uacute" horiz-adv-x="543" d="M345 -20T345 -11L347 20Q350 38 350 52L349 61Q318 26 276 6T189 -15Q140 -15 109 22T77 119V311Q77 335 68 348T36 368Q21 370 21 385Q21 401 36 403Q72 405 100 409T167 423Q177 427 183
427Q196 427 195 413Q188 370 188 336V143Q188 107 208 83T257 58Q301 58 325 80Q335 88 344 105T353 146V314Q353 340 336 353T295 368Q272 370 272 389Q272 398 278 402T295 407Q359 410 389 413T448 425L460 427Q475 427 475 416Q475 414 471 402Q469 391 467
368T464 333V101Q464 59 482 59L516 60Q534 60 534 43Q534 34 531 30T518 24Q454 18 377 -14Q361 -20 353 -20Q345 -20 345 -11ZM237 454T237 465Q237 474 241 486Q252 512 275 560T311 632Q318 645 327 650T350 655Q374 655 390 649T406 632Q406 622 396 609Q328
525 275 472Q257 454 247 454Q237 454 237 465Z" />
<glyph unicode="&#xfb;" glyph-name="ucircumflex" horiz-adv-x="543" d="M345 -20T345 -11L347 20Q350 38 350 52L349 61Q318 26 276 6T189 -15Q140 -15 109 22T77 119V311Q77 335 68 348T36 368Q21 370 21 385Q21 401 36 403Q72 405 100 409T167 423Q177 427
183 427Q196 427 195 413Q188 370 188 336V143Q188 107 208 83T257 58Q301 58 325 80Q335 88 344 105T353 146V314Q353 340 336 353T295 368Q272 370 272 389Q272 398 278 402T295 407Q359 410 389 413T448 425L460 427Q475 427 475 416Q475 414 471 402Q469 391
467 368T464 333V101Q464 59 482 59L516 60Q534 60 534 43Q534 34 531 30T518 24Q454 18 377 -14Q361 -20 353 -20Q345 -20 345 -11ZM281 663T287 656T302 632Q324 598 350 552T386 485Q389 478 389 471Q389 455 376 455Q365 455 339 483L278 557Q275 560 274 560T268
557L206 483Q181 455 169 455Q155 455 155 468Q155 475 160 485Q174 519 242 631Q252 648 258 655T273 663Q281 663 287 656Z" />
<glyph unicode="&#xfc;" glyph-name="udieresis" horiz-adv-x="543" d="M345 -20T345 -11L347 20Q350 38 350 52L349 61Q318 26 276 6T189 -15Q140 -15 109 22T77 119V311Q77 335 68 348T36 368Q21 370 21 385Q21 401 36 403Q72 405 100 409T167 423Q177 427 183
427Q196 427 195 413Q188 370 188 336V143Q188 107 208 83T257 58Q301 58 325 80Q335 88 344 105T353 146V314Q353 340 336 353T295 368Q272 370 272 389Q272 398 278 402T295 407Q359 410 389 413T448 425L460 427Q475 427 475 416Q475 414 471 402Q469 391 467
368T464 333V101Q464 59 482 59L516 60Q534 60 534 43Q534 34 531 30T518 24Q454 18 377 -14Q361 -20 353 -20Q345 -20 345 -11ZM150 499T131 518T112 563Q112 590 131 609T176 628Q203 628 222 609T242 563Q242 538 223 519T176 499Q150 499 131 518ZM339 499T320
518T300 563Q300 590 319 609T364 628Q391 628 411 609T431 563Q431 538 411 519T364 499Q339 499 320 518Z" />
<glyph unicode="&#xfd;" glyph-name="yacute" horiz-adv-x="467" d="M53 -284T33 -268T12 -228Q12 -207 22 -191T50 -175Q63 -175 78 -180Q96 -184 104 -184Q117 -184 123 -180T136 -162Q168 -107 197 -37Q206 -18 206 3Q206 20 196 46L75 331Q65 354 54 367T27
386Q16 390 12 394T7 406Q7 417 29 417Q55 417 83 415Q105 413 118 413Q136 413 164 415Q192 417 216 417Q225 417 232 414T239 404Q239 397 232 393T213 384Q202 380 197 372T191 348Q191 336 201 308L270 141Q271 137 274 137Q276 137 277 141L334 304Q342 324
342 342Q342 373 315 383Q302 389 296 393T290 404Q290 411 297 414T312 417Q327 417 351 415Q371 413 384 413Q396 413 416 415Q434 417 449 417Q472 417 472 406Q472 398 468 394T452 386Q435 381 419 364T393 323L249 -25L162 -231Q151 -257 129 -270T78 -284Q53
-284 33 -268ZM231 454T231 465Q231 474 235 486Q246 512 269 560T305 632Q312 645 321 650T344 655Q368 655 384 649T400 632Q400 622 390 609Q322 525 269 472Q251 454 241 454Q231 454 231 465Z" />
<glyph unicode="&#xfe;" glyph-name="thorn" horiz-adv-x="534" d="M29 -270T22 -267T15 -257Q15 -246 38 -238Q60 -231 70 -224T80 -199V555Q80 618 38 627Q33 628 31 632T28 642Q28 654 37 656Q81 666 127 683T179 703L187 705Q196 705 196 695Q196 688 194
663T190 604L191 401Q191 367 192 358Q216 379 261 400T345 422Q395 422 433 395T491 323T512 228Q512 167 481 111T398 19T283 -17Q265 -17 238 -10T194 8Q192 8 191 -3T190 -21V-193Q190 -213 200 -221T237 -238Q259 -245 259 -257Q259 -263 254 -266T240 -270Q210
-270 185 -267Q151 -265 135 -265Q119 -265 89 -267Q65 -270 37 -270Q29 -270 22 -267ZM305 25T330 42T373 97T392 194Q392 291 357 326T281 361Q242 361 211 333Q191 315 191 265V119Q191 101 195 81T210 49Q220 39 240 32T286 25Q305 25 330 42Z" />
<glyph unicode="&#xff;" glyph-name="ydieresis" horiz-adv-x="467" d="M53 -284T33 -268T12 -228Q12 -207 22 -191T50 -175Q63 -175 78 -180Q96 -184 104 -184Q117 -184 123 -180T136 -162Q168 -107 197 -37Q206 -18 206 3Q206 20 196 46L75 331Q65 354 54 367T27
386Q16 390 12 394T7 406Q7 417 29 417Q55 417 83 415Q105 413 118 413Q136 413 164 415Q192 417 216 417Q225 417 232 414T239 404Q239 397 232 393T213 384Q202 380 197 372T191 348Q191 336 201 308L270 141Q271 137 274 137Q276 137 277 141L334 304Q342 324
342 342Q342 373 315 383Q302 389 296 393T290 404Q290 411 297 414T312 417Q327 417 351 415Q371 413 384 413Q396 413 416 415Q434 417 449 417Q472 417 472 406Q472 398 468 394T452 386Q435 381 419 364T393 323L249 -25L162 -231Q151 -257 129 -270T78 -284Q53
-284 33 -268ZM144 499T125 518T106 563Q106 590 125 609T170 628Q197 628 216 609T236 563Q236 538 217 519T170 499Q144 499 125 518ZM333 499T314 518T294 563Q294 590 313 609T358 628Q385 628 405 609T425 563Q425 538 405 519T358 499Q333 499 314 518Z"
/>
<glyph unicode="&#x2013;" glyph-name="endash" horiz-adv-x="605" d="M51 183T47 187T42 196Q42 209 48 225T69 241H544Q552 241 557 237T563 226Q563 212 553 198T531 183H57Q51 183 47 187Z" />
<glyph unicode="&#x2014;" glyph-name="emdash" horiz-adv-x="957" d="M43 183T39 187T34 196Q34 209 40 225T60 241H904Q912 241 917 237T923 226Q923 212 913 198T890 183H49Q43 183 39 187Z" />
<glyph unicode="&#x2018;" glyph-name="quoteleft" horiz-adv-x="240" d="M196 696T202 692T209 681Q209 675 205 672T189 667Q149 656 125 632T100 571Q100 556 112 544T141 527Q161 523 173 510T185 475Q185 452 165 435T120 418Q78 418 52 446T25 520Q25 570
49 610T112 673T186 696Q196 696 202 692Z" />
<glyph unicode="&#x2019;" glyph-name="quoteright" horiz-adv-x="240" d="M43 414T37 418T30 429Q30 435 34 438T50 443Q90 454 114 478T139 539Q139 554 127 566T98 583Q78 587 66 600T54 635Q54 658 74 675T119 692Q161 692 187 664T214 590Q214 540 190 500T127
437T53 414Q43 414 37 418Z" />
<glyph unicode="&#x201a;" glyph-name="quotesinglbase" horiz-adv-x="240" d="M43 -159T37 -155T30 -144Q30 -138 34 -135T50 -130Q90 -119 114 -95T139 -34Q139 -19 127 -7T98 10Q78 14 66 27T54 62Q54 85 74 102T119 119Q161 119 187 91T214 17Q214 -33 190
-73T127 -136T53 -159Q43 -159 37 -155Z" />
<glyph unicode="&#x201c;" glyph-name="quotedblleft" horiz-adv-x="432" d="M395 697T401 693T408 682Q408 676 404 673T388 668Q348 657 324 633T299 572Q299 557 311 545T340 528Q360 524 372 511T384 476Q384 453 364 436T319 419Q277 419 251 447T224 521Q224
571 248 611T311 674T385 697Q395 697 401 693ZM202 697T208 693T215 682Q215 676 211 673T195 668Q155 657 131 633T106 572Q106 557 118 545T147 528Q167 524 179 511T191 476Q191 453 171 436T126 419Q84 419 58 447T31 521Q31 571 55 611T118 674T192 697Q202
697 208 693Z" />
<glyph unicode="&#x201d;" glyph-name="quotedblright" horiz-adv-x="432" d="M43 414T37 418T30 429Q30 435 34 438T50 443Q90 454 114 478T139 539Q139 554 127 566T98 583Q78 587 66 600T54 635Q54 658 74 675T119 692Q161 692 187 664T214 590Q214 540 190
500T127 437T53 414Q43 414 37 418ZM236 414T230 418T223 429Q223 435 227 438T243 443Q283 454 307 478T332 539Q332 554 320 566T291 583Q271 587 259 600T247 635Q247 658 267 675T312 692Q354 692 380 664T407 590Q407 540 383 500T320 437T246 414Q236 414
230 418Z" />
<glyph unicode="&#x201e;" glyph-name="quotedblbase" horiz-adv-x="432" d="M43 -159T37 -155T30 -144Q30 -138 34 -135T50 -130Q90 -119 114 -95T139 -34Q139 -19 127 -7T98 10Q78 14 66 27T54 62Q54 85 74 102T119 119Q161 119 187 91T214 17Q214 -33 190 -73T127
-136T53 -159Q43 -159 37 -155ZM236 -159T230 -155T223 -144Q223 -138 227 -135T243 -130Q283 -119 307 -95T332 -34Q332 -19 320 -7T291 10Q271 14 259 27T247 62Q247 85 267 102T312 119Q354 119 380 91T407 17Q407 -33 383 -73T320 -136T246 -159Q236 -159 230
-155Z" />
<glyph unicode="&#x2022;" glyph-name="bullet" horiz-adv-x="365" d="M144 213T111 232T59 284T40 356Q40 395 59 428T111 480T183 499Q222 499 255 480T307 428T326 356Q326 317 307 284T255 232T183 213Q144 213 111 232Z" />
<glyph unicode="&#x2039;" glyph-name="guilsinglleft" horiz-adv-x="376" d="M304 17T285 36Q228 89 184 119T76 180Q64 186 58 196T52 215Q52 225 60 228Q148 281 190 311T287 393Q289 394 299 403T320 413Q323 413 325 410T327 403Q327 398 321 386Q279 323
249 292T176 223Q169 216 169 215Q169 214 176 207Q218 171 248 139T321 42Q326 35 326 29Q326 24 324 21T318 17Q304 17 285 36Z" />
<glyph unicode="&#x203a;" glyph-name="guilsinglright" horiz-adv-x="376" d="M72 17T91 36Q148 89 192 119T300 180Q312 186 318 196T324 215Q324 225 316 228Q228 281 186 311T89 393Q87 394 77 403T56 413Q53 413 51 410T49 403Q49 398 55 386Q97 323 127
292T200 223Q207 216 207 215Q207 214 200 207Q158 171 128 139T55 42Q50 35 50 29Q50 24 52 21T58 17Q72 17 91 36Z" />
</font>
</defs>
</svg>
