<?xml version="1.0" standalone="no"?>
<!DOCTYPE svg PUBLIC "-//W3C//DTD SVG 1.1//EN" "http://www.w3.org/Graphics/SVG/1.1/DTD/svg11.dtd">
<svg xmlns="http://www.w3.org/2000/svg">
<defs >
<font id="EBGaramond" horiz-adv-x="538" ><font-face
    font-family="EB Garamond Medium"
    units-per-em="1000"
    panose-1="0 0 6 0 0 0 0 0 0 0"
    ascent="1007"
    descent="-298"
    alphabetic="0" />
<glyph unicode=" " glyph-name="space" horiz-adv-x="213" />
<glyph unicode="!" glyph-name="exclam" horiz-adv-x="292" d="M130 195T130 213Q130 223 133 238Q150 324 172 423T205 561Q214 599 235 624T282 649Q299 649 309 635T319 598Q319 576 311 555Q295 504 177 238Q157 195 142 195Q130 195 130 213ZM63 -14T48 2T32
40Q32 71 55 92T110 114Q133 114 148 98T163 59Q163 29 140 8T84 -14Q63 -14 48 2Z" />
<glyph unicode="&quot;" glyph-name="quotedbl" horiz-adv-x="354" d="M144 431T144 438Q144 447 147 456Q151 465 152 472T156 484L164 509Q176 549 187 593L193 618Q196 629 205 639T225 656Q245 669 256 674T280 679Q289 679 289 665Q289 651 280 631Q252 560
178 458Q170 448 161 440T147 431Q144 431 144 438ZM285 431T285 438Q285 447 288 456Q292 465 293 472T297 484L305 509Q317 549 328 593L334 618Q337 629 346 639T366 656Q386 669 397 674T421 679Q430 679 430 665Q430 651 421 631Q393 560 319 458Q311 448
302 440T288 431Q285 431 285 438Z" />
<glyph unicode="#" glyph-name="numbersign" horiz-adv-x="459" d="M-22 -90T-25 -86T-26 -76L-25 -73L60 98L1 96H-1Q-7 96 -10 100T-11 110Q-8 131 3 148T30 166L97 169L157 297L94 294Q87 294 83 298T81 309Q84 328 96 345T122 364L193 367L272 530Q282 550
318 550Q322 550 323 546T324 536Q323 534 322 533T321 530L243 370L355 375L436 541Q446 561 479 561Q483 561 485 557T486 547L483 541L405 377L462 380H464Q470 380 473 376T475 366Q472 351 457 331T428 310L370 307L307 178L369 181H371Q377 181 380 177T383
166Q380 151 365 132T335 111L273 108L191 -60Q186 -71 177 -74T154 -78Q149 -78 146 -74T144 -64L145 -60L226 106L111 101L25 -73Q16 -90 -17 -90Q-22 -90 -25 -86ZM260 176L321 305L208 300L145 171L260 176Z" />
<glyph unicode="$" glyph-name="dollar" horiz-adv-x="506" d="M571 646T574 640T575 628Q540 576 524 487Q522 474 517 466T506 458Q497 458 494 465T491 489Q491 535 475 568T429 618L327 377L344 362Q400 315 423 275T447 188Q447 133 418 87T334 13T203 -15Q189
-15 163 -13L134 -81Q131 -88 122 -91T103 -95Q94 -95 91 -89T91 -75L120 -5Q109 -3 87 5Q56 17 51 17Q42 17 28 11Q12 0 6 0Q0 0 -8 7T-16 20Q-16 26 -5 50Q10 87 20 115T35 177Q37 190 41 195T55 201Q64 201 67 191T70 154Q70 113 86 80T135 30L247 296Q196 341
172 381T147 477Q147 530 177 573T259 640T375 664Q385 664 401 662L421 709Q425 719 435 723T459 728Q468 728 468 717Q468 710 466 706L444 655L463 650Q487 642 487 642Q492 641 503 638T520 634Q532 634 542 639Q554 646 563 646Q571 646 574 640ZM388 632Q382
633 369 633Q333 633 305 615T260 568T244 511Q244 483 255 460T294 408L388 632ZM342 179T329 204T280 265L176 18Q182 17 195 17Q238 17 271 34T323 82T342 147Q342 179 329 204Z" />
<glyph unicode="%" glyph-name="percent" horiz-adv-x="675" d="M132 263T108 293T84 376Q84 413 97 455Q109 495 136 532T201 592T279 615Q321 615 343 586T365 509Q365 474 353 433Q332 363 283 313T174 263Q132 263 108 293ZM214 288T239 329T283 433Q304 502
304 539Q304 588 269 588Q236 588 210 547T166 449Q143 374 143 338Q143 288 180 288Q214 288 239 329ZM57 -26T53 -22T48 -13Q48 -8 51 -5L657 654Q673 670 698 670Q706 670 711 667T716 658Q716 654 712 650L106 -8Q91 -26 64 -26Q57 -26 53 -22ZM419 -17T395
13T371 96Q371 133 384 175Q396 215 423 252T488 312T566 335Q608 335 630 306T652 229Q652 194 640 153Q619 83 570 33T461 -17Q419 -17 395 13ZM501 8T526 49T570 153Q591 222 591 259Q591 308 556 308Q523 308 497 267T453 169Q430 94 430 58Q430 8 467 8Q501
8 526 49Z" />
<glyph unicode="&amp;" glyph-name="ampersand" horiz-adv-x="833" d="M723 448T731 435Q749 405 756 374T763 301Q763 208 719 136T595 25T415 -15Q321 -15 247 18T131 112T89 249Q89 307 107 357T159 442Q145 482 145 532Q145 583 172 625T244 693T342 718Q391
718 420 694T449 628Q449 605 437 592T402 578Q390 578 379 589T368 611Q368 629 356 642T325 655Q272 655 237 619T201 525Q201 500 204 477Q246 502 296 502Q348 501 377 478T407 416Q407 378 377 352T303 326Q264 326 232 345T177 401Q152 357 152 296Q152 203
221 143T441 82Q530 82 593 114T688 201T720 321Q720 381 691 415T596 450Q562 450 541 430T519 380Q519 360 530 347T562 333Q571 333 577 338T589 353Q598 365 604 370T621 376Q643 376 655 364T666 333Q666 307 647 289T601 270Q546 270 513 300T479 379Q479
444 526 484T644 525L729 526Q803 527 838 551T874 628Q874 654 859 670T821 687Q811 687 805 682T799 669Q799 655 814 647Q822 644 826 637T830 621Q830 605 817 593T784 581Q760 581 745 597T729 637Q729 670 754 693T823 717Q864 717 890 687T916 602Q916 534
870 492T748 448Q723 448 731 435ZM244 466T211 439Q234 367 301 367Q329 367 345 381T362 419Q362 439 343 452T294 466Q244 466 211 439Z" />
<glyph unicode="&apos;" glyph-name="quotesingle" horiz-adv-x="213" d="M144 431T144 438Q144 447 147 456Q151 465 152 472T156 484L164 509Q176 549 187 593L193 618Q196 629 205 639T225 656Q245 669 256 674T280 679Q289 679 289 665Q289 651 280 631Q252
560 178 458Q170 448 161 440T147 431Q144 431 144 438Z" />
<glyph unicode="(" glyph-name="parenleft" horiz-adv-x="305" d="M95 -216T77 -175Q29 -56 29 73Q29 250 120 413T369 693Q387 705 403 705Q408 705 412 703T416 697Q416 688 402 675Q270 548 187 389T104 70Q104 -16 111 -75T135 -192Q136 -195 136 -199Q136
-207 133 -211T123 -216Q95 -216 77 -175Z" />
<glyph unicode=")" glyph-name="parenright" horiz-adv-x="306" d="M237 708T255 667Q303 548 303 419Q303 242 212 79T-37 -201Q-55 -213 -71 -213Q-76 -213 -80 -211T-84 -205Q-84 -196 -70 -183Q62 -56 145 103T228 422Q228 508 221 567T197 684Q196 687 196
691Q196 699 199 703T209 708Q237 708 255 667Z" />
<glyph unicode="*" glyph-name="asterisk" horiz-adv-x="346" d="M202 370T202 392Q202 399 203 403L216 456Q224 484 224 486Q190 480 135 478H132Q122 478 116 482T109 493Q109 501 116 507T131 515Q159 522 154 521Q177 528 213 537Q198 556 163 606Q157 616
157 624Q157 642 173 642Q178 642 184 638T195 630L253 571Q259 592 270 616T286 650Q297 669 308 669Q318 669 322 661T324 642Q321 627 315 603T301 555Q323 558 349 560T392 564Q402 564 409 560T416 547Q416 539 410 533T394 525L363 517Q346 512 312 504Q353
451 362 439Q365 434 368 428T371 416Q371 399 355 399Q350 399 344 402T333 409Q321 423 296 446Q273 469 273 469Q261 437 240 389Q232 370 218 370Q202 370 202 392Z" />
<glyph unicode="+" glyph-name="plus" horiz-adv-x="593" d="M280 -9T277 -5T273 6V214Q273 221 267 221H62Q56 221 52 224T47 233Q47 245 54 260T73 275H264Q270 275 271 277T273 285V459Q273 473 290 482T319 491Q325 491 329 486T334 475V283Q334 277 335 276T341
275H544Q550 275 555 271T560 260Q551 221 528 221H341Q334 221 334 215V16Q334 2 317 -3T285 -9Q280 -9 277 -5Z" />
<glyph unicode="," glyph-name="comma" horiz-adv-x="234" d="M-56 -140T-56 -131Q-56 -122 -29 -112Q14 -94 40 -65T66 -6Q66 8 58 16T34 30Q5 44 5 67Q5 89 24 104T68 120Q99 120 119 100T140 44Q140 -2 113 -44T43 -113T-37 -140Q-56 -140 -56 -131Z" />
<glyph unicode="-" glyph-name="hyphen" horiz-adv-x="287" d="M35 168Q31 168 28 172T24 181Q24 200 36 215T60 232L83 235Q217 253 260 258H263Q270 258 270 248Q270 231 259 214T233 195L177 187Q137 181 36 168H35Z" />
<glyph unicode="." glyph-name="period" horiz-adv-x="234" d="M34 -20T19 -3T3 36Q3 67 26 90T80 113Q103 113 118 96T133 55Q133 24 110 2T55 -20Q34 -20 19 -3Z" />
<glyph unicode="/" glyph-name="slash" horiz-adv-x="276" d="M-53 -61T-57 -56T-58 -44L341 647Q348 658 358 661T385 664Q392 664 395 657T395 645L-5 -46Q-10 -56 -20 -59T-45 -61Q-53 -61 -57 -56Z" />
<glyph unicode="0" glyph-name="zero" horiz-adv-x="497" d="M138 -14T106 33T74 159Q74 227 97 302Q123 386 170 461T279 583T411 630Q477 630 509 583T541 457Q541 391 519 316Q492 231 445 156T334 33T203 -14Q138 -14 106 33ZM249 17T286 56T356 159T412 298Q447
415 447 497Q447 598 394 598Q344 598 293 518T205 320Q167 192 167 110Q167 67 179 42T216 17Q249 17 286 56Z" />
<glyph unicode="1" glyph-name="one" horiz-adv-x="497" d="M39 -3T35 0T32 8Q33 21 52 25Q108 36 139 52T180 101L294 468Q298 484 298 489Q298 511 280 521T225 537Q219 538 214 542T210 553Q211 562 219 567T238 574Q311 580 426 632Q433 637 440 637Q445 637
447 634T449 627Q433 588 423 556L279 89Q276 80 276 73Q276 57 289 49T332 33Q339 31 345 29T358 25Q371 21 371 12Q371 6 365 2T352 -3Q312 -3 271 0Q221 2 201 2Q179 2 123 0Q83 -3 44 -3Q39 -3 35 0Z" />
<glyph unicode="2" glyph-name="two" horiz-adv-x="497" d="M279 2T231 2Q97 2 8 -2Q-1 -2 -1 10Q-1 20 7 25L223 204Q406 354 406 472Q406 515 384 536T320 557Q285 557 251 537T187 478Q173 462 166 462Q162 462 160 466T158 475Q158 482 160 485Q167 507 198
542T274 604T371 631Q436 631 474 598T513 510Q513 452 478 399T384 293Q348 262 256 190T125 88Q123 87 123 85Q123 80 135 78Q164 74 220 74Q280 74 323 78Q360 80 377 89T420 130Q438 151 453 152H454Q459 152 462 145T461 132L437 96Q419 70 412 58T394 20Q388
7 381 2T369 -3Q279 2 231 2Z" />
<glyph unicode="3" glyph-name="three" horiz-adv-x="497" d="M50 -38T30 -28T10 2Q10 22 17 34T40 47Q52 47 78 29Q96 18 111 12T144 5Q197 5 238 34T303 111T327 213Q327 251 310 275T259 299Q226 299 192 281Q190 280 186 280Q176 280 176 291Q176 313 222
333Q285 357 335 400T386 498Q386 528 369 548T323 568Q284 568 256 550T201 493Q200 491 197 486T190 479T182 477Q178 477 171 488T163 508Q163 525 196 555T277 607T368 630Q421 630 456 602T491 531Q491 482 444 437T330 361Q327 359 326 357T329 354Q378 348
410 318T443 235Q443 177 397 117T278 15Q234 -10 185 -24T90 -38Q50 -38 30 -28Z" />
<glyph unicode="4" glyph-name="four" horiz-adv-x="497" d="M380 -3T376 -1T373 7Q374 14 380 19T394 25Q444 32 464 43T492 82L516 161Q517 163 517 166Q517 174 505 174Q470 174 443 173T395 171Q323 167 276 167Q272 167 271 173T272 182Q285 195 297 205L319
227L683 611Q694 623 706 632T727 642H747Q749 642 749 640Q749 638 746 634T740 626L381 245Q376 241 376 238T380 234H529Q532 234 535 236T540 242L591 406Q595 419 598 424T610 433Q629 441 650 445T684 449Q696 449 696 436Q696 424 682 380L638 238Q637 236
638 234T641 232Q656 231 677 231Q689 231 733 233Q738 233 741 231T742 224Q736 211 724 194T706 176L660 177Q648 177 632 175Q619 174 616 164L594 89Q589 72 589 63Q589 47 601 39T644 25Q658 23 657 9Q656 4 650 1T636 -3Q600 -3 570 0Q534 2 514 2Q492 2
452 0Q420 -3 385 -3Q380 -3 376 -1Z" />
<glyph unicode="5" glyph-name="five" horiz-adv-x="497" d="M45 -38T31 -23T17 12Q17 23 21 31T32 39Q39 39 46 36T61 28Q73 19 91 12Q109 3 141 3Q185 3 229 22T304 83T334 184Q334 233 301 266T189 338Q166 349 158 357T150 375Q150 378 153 390Q163 419 223
518L244 552Q255 569 267 578T295 591Q337 602 398 612T510 628Q522 628 522 614Q522 605 510 584T481 545T448 526L376 521Q289 517 265 513Q257 512 238 488T213 449Q211 446 211 441Q211 435 219 432Q324 389 379 344T434 229Q434 156 380 95T242 -2T74 -38Q45
-38 31 -23Z" />
<glyph unicode="6" glyph-name="six" horiz-adv-x="497" d="M124 -14T86 22T48 122Q48 233 126 345T324 538T566 645Q570 646 576 646Q589 646 589 639Q589 633 586 630T572 623Q478 591 379 508T214 324T149 139Q149 83 171 54T239 24Q271 24 300 46T347 104T365
181Q365 221 347 243T298 265Q273 265 240 247Q233 244 230 244Q226 244 226 247Q226 254 235 263Q260 291 297 311T363 331Q407 331 435 301T465 226Q465 165 426 110T326 20T203 -14Q124 -14 86 22Z" />
<glyph unicode="7" glyph-name="seven" horiz-adv-x="497" d="M49 -31T44 -24T41 -3Q42 2 57 18T77 41L486 521Q490 525 490 528Q490 531 480 532H260Q209 532 177 493Q172 486 161 478T140 470Q131 470 131 480Q131 492 139 503Q178 574 188 608Q191 615 196
618T206 621L231 620L275 617Q345 615 407 615Q559 615 597 620Q602 620 605 614T607 603Q592 582 550 535L88 -2Q81 -12 72 -21T60 -31Q49 -31 44 -24Z" />
<glyph unicode="8" glyph-name="eight" horiz-adv-x="497" d="M121 -14T81 23T40 116Q40 159 58 190T117 250T232 307Q238 310 238 312Q238 314 235 317T231 322L212 348Q185 382 173 405T161 459Q162 497 191 537T270 603T375 630Q418 630 449 614T497 573T513
520Q513 482 485 447T388 368Q379 362 352 347Q342 341 342 337Q342 333 347 328Q396 273 417 239T438 160Q438 115 406 75T317 10T190 -14Q121 -14 81 23ZM378 394T403 441T429 530Q428 563 410 582T358 601Q330 601 305 585T265 544T250 490Q250 460 265 430T313
365Q317 359 323 359Q329 359 334 363Q378 394 403 441ZM261 18T298 51T336 141Q336 175 320 206T269 281Q261 291 255 291Q251 291 241 284Q194 252 170 227T137 175T128 109Q128 73 149 46T205 18Q261 18 298 51Z" />
<glyph unicode="9" glyph-name="nine" horiz-adv-x="498" d="M22 -26Q13 -26 8 -23T3 -16Q3 -3 25 0Q110 7 208 85T374 271T441 473Q441 524 420 557T361 591Q329 591 300 569T254 511T236 437Q236 402 255 378T301 353Q318 353 330 356T353 365T369 373Q375 376
378 375T381 371Q381 368 379 364T375 356Q358 336 335 321Q316 308 290 298T243 287Q198 287 168 316T138 390Q138 441 179 497T283 591T407 629Q464 629 500 582T536 468Q536 372 456 257T255 60T26 -26H22Z" />
<glyph unicode=":" glyph-name="colon" horiz-adv-x="235" d="M120 256T105 273T89 312Q89 343 112 366T166 389Q189 389 204 372T219 331Q219 300 196 278T141 256Q120 256 105 273ZM35 -20T20 -3T4 36Q4 67 27 90T81 113Q104 113 119 96T134 55Q134 24 111 2T56
-20Q35 -20 20 -3Z" />
<glyph unicode=";" glyph-name="semicolon" horiz-adv-x="234" d="M-56 -140T-56 -131Q-56 -122 -29 -112Q14 -94 40 -65T66 -6Q66 8 58 16T34 30Q5 44 5 67Q5 89 24 104T68 120Q99 120 119 100T140 44Q140 -2 113 -44T43 -113T-37 -140Q-56 -140 -56 -131ZM120
256T105 273T89 312Q89 343 112 366T166 389Q189 389 204 372T219 331Q219 300 196 278T141 256Q120 256 105 273Z" />
<glyph unicode="&lt;" glyph-name="less" horiz-adv-x="593" d="M91 193Q48 215 48 221Q48 230 58 246T83 269L511 466Q517 469 521 469Q534 469 534 452Q534 438 525 425T501 405L133 235Q131 234 131 232T134 229L506 60Q519 54 526 40T534 14Q534 4 528 0T515
-3L91 193Z" />
<glyph unicode="=" glyph-name="equal" horiz-adv-x="605" d="M70 315T66 318T61 327Q61 338 68 352T87 367H560Q566 367 571 363T576 354Q576 342 566 329T544 315H76Q70 315 66 318ZM70 140T66 144T61 152Q61 163 68 177T87 192H560Q566 192 571 189T576 180Q576
167 566 154T544 140H76Q70 140 66 144Z" />
<glyph unicode="&gt;" glyph-name="greater" horiz-adv-x="593" d="M76 -3T70 -3Q56 -3 56 17Q56 28 65 41T89 61L456 230Q459 231 459 233T455 237L83 406Q70 413 63 428T55 455Q55 461 58 466T68 471L72 470L498 272Q514 265 528 257T542 244Q542 235 532 219T506
196L80 0Q76 -3 70 -3Z" />
<glyph unicode="?" glyph-name="question" horiz-adv-x="342" d="M151 176T140 191T119 227T110 266Q110 298 120 320T160 365T249 411Q351 452 351 525Q351 557 331 574T272 592Q259 592 247 587T232 580Q226 578 217 574T200 569Q187 569 179 577T171 601Q171
626 194 643T248 661Q287 661 318 639T368 577T386 488Q386 440 363 405T298 349L209 306Q180 293 170 279T159 242Q159 232 161 222T164 207Q170 191 170 184Q170 176 155 176Q151 176 140 191ZM114 -14T100 1T86 36Q86 65 106 86T155 107Q177 107 190 92T204
55Q204 27 183 7T133 -14Q114 -14 100 1Z" />
<glyph unicode="@" glyph-name="at" horiz-adv-x="772" d="M215 -143T152 -113T57 -30T25 90Q25 194 85 293T251 454T482 517Q561 517 621 485T714 403T747 297Q747 233 712 171T616 69T479 29Q450 29 439 45T429 82Q429 91 425 91Q424 91 414 85Q347 38 293 38Q242
38 215 66T187 137Q187 192 224 245T327 333T475 367Q507 365 533 357Q542 355 548 353T558 351Q564 350 575 360T591 371Q597 371 607 368T615 362Q585 319 571 287L497 133Q488 113 488 101Q488 80 512 80Q562 80 602 110T666 190T689 291Q689 342 663 383T586
449T461 473Q373 473 286 424T143 290T87 110Q87 7 150 -45T327 -97Q457 -97 561 -25Q580 -13 590 -13Q605 -13 602 -27Q599 -42 553 -70T440 -121T303 -143Q215 -143 152 -113ZM346 79T361 85T396 104Q408 111 418 121T438 153L492 265Q503 287 503 300Q503 316
488 324T439 332Q389 332 351 305T291 236T268 154Q268 121 284 100T329 79Q346 79 361 85Z" />
<glyph unicode="A" glyph-name="A" horiz-adv-x="689" d="M-51 -5T-56 -2T-62 10Q-62 17 -54 21T-30 30Q9 40 43 59T102 105Q174 185 235 260T391 452L476 558Q485 568 493 580T505 597Q522 623 528 623Q549 623 561 628T590 648Q603 660 612 667T628 675Q637
675 637 657Q637 648 634 633L532 119Q528 100 528 84Q528 60 539 47T575 28Q593 22 599 19T605 9Q605 -4 574 -4Q563 -4 519 -2Q482 1 442 1L376 0Q357 -1 326 -1Q306 -1 303 12Q302 19 310 25T331 33Q377 41 395 55T424 108L455 228Q458 240 451 246T430 252L304
250Q290 250 282 246T266 232L175 113Q151 82 151 64Q151 53 160 46T185 34Q210 27 210 12Q210 6 202 3T181 -1Q157 -1 143 0L90 1Q68 1 51 0T21 -2Q-12 -5 -39 -5Q-51 -5 -56 -2ZM448 289Q458 289 463 294T472 312L520 531Q522 543 522 546Q522 552 517 552Q509
552 500 541L321 309Q313 299 313 295Q313 288 336 288L448 289Z" />
<glyph unicode="B" glyph-name="B" horiz-adv-x="591" d="M-28 -5T-28 6Q-28 20 6 26Q45 35 65 50T97 98L235 550Q241 570 241 582Q241 598 230 606T195 620Q182 623 177 626T172 637Q172 643 181 647T203 651Q233 651 254 648Q280 646 296 646Q312 646 352 650Q385
655 412 655Q506 655 552 620T598 525Q598 482 571 449T503 394T418 365Q412 364 412 361T415 355Q478 331 510 295T542 194Q542 132 505 88T402 20T254 -4Q245 -4 179 -1Q151 2 122 2Q106 2 88 1T60 -1Q20 -5 -6 -5Q-28 -5 -28 6ZM325 368T344 371T392 383Q440
408 469 444T499 529Q499 569 470 597T391 625Q371 625 362 621T349 603L287 387Q286 384 286 380Q286 368 304 368Q325 368 344 371ZM299 25T341 51T409 121T436 212Q436 273 400 307T295 341Q271 341 265 320L201 105Q197 89 197 79Q197 59 208 48Q230 24 256
24Q299 25 341 51Z" />
<glyph unicode="C" glyph-name="C" horiz-adv-x="643" d="M264 -14T206 19T110 111T72 244Q72 361 129 457T284 609T493 665Q546 665 604 645Q613 642 630 636T659 630Q669 630 682 638Q698 646 707 646Q712 646 715 644T718 637Q718 634 714 628Q695 602 674
556T645 477Q643 468 637 462T625 456Q616 456 612 466T609 490Q612 504 612 518Q612 555 592 580Q574 604 548 618T490 632Q415 632 344 573T228 418T183 216Q183 116 233 68T356 20Q421 20 462 52T547 149Q554 160 559 165T571 170Q582 170 580 148Q576 121 546
56T504 -9Q499 -9 493 -5T483 2Q472 11 457 11Q447 11 412 0Q368 -14 325 -14Q264 -14 206 19Z" />
<glyph unicode="D" glyph-name="D" horiz-adv-x="745" d="M297 -7T277 -6T237 -4Q170 1 119 1Q101 1 67 -1Q37 -4 0 -4Q-21 -4 -21 8Q-18 24 13 27Q56 31 73 46T102 98L249 557Q252 566 252 574Q252 589 242 598T212 612T174 621Q151 626 154 641Q154 647 162
650T182 654Q222 654 258 651Q302 649 322 649Q347 649 371 652Q425 655 438 655Q531 655 600 622T706 527T744 379Q744 277 688 188T533 46T313 -7Q297 -7 277 -6ZM403 25T476 78T591 218T633 397Q633 509 582 564T440 620Q406 620 389 615T366 601T352 571L217
135Q210 114 210 95Q210 25 316 25Q403 25 476 78Z" />
<glyph unicode="E" glyph-name="E" horiz-adv-x="575" d="M-40 -5T-40 7Q-39 20 -7 26Q39 35 59 50T90 98L228 550Q234 571 234 584Q234 602 222 609T177 623Q153 627 153 639Q153 646 162 650T188 654L228 653Q267 650 311 650H473Q554 650 580 655T609 661Q614
661 618 656T623 645Q623 639 614 612Q598 560 594 527Q593 518 588 513T577 508Q572 508 569 514T565 531Q565 582 553 601T502 620H395Q371 620 359 611T339 575L279 380Q276 370 276 363Q276 350 296 351L408 353Q432 354 448 365T480 397Q487 406 496 415T511
424Q519 424 519 413Q519 406 516 398Q497 359 488 330Q479 303 467 255Q461 231 453 231Q446 231 442 240T438 258Q439 317 403 317L293 319Q275 319 265 313T250 290L200 111Q192 81 192 66Q192 46 203 38T240 29H370Q412 29 450 56Q466 67 480 85T512 130Q516
136 520 141T530 146Q538 146 538 125Q538 111 523 73T493 14Q482 -5 462 -5Q381 -5 286 -2Q252 -1 207 0T109 1Q93 1 74 0T45 -2Q15 -5 -19 -5Q-40 -5 -40 7Z" />
<glyph unicode="F" glyph-name="F" horiz-adv-x="518" d="M-21 -4T-21 7Q-21 15 -13 19T12 27Q50 34 68 48T97 98L235 550Q241 568 241 579Q241 596 229 605T193 621Q179 624 174 628T169 641Q170 647 179 650T201 654L241 652Q289 650 317 650H477Q545 650 581
656T622 663Q634 663 633 649Q633 642 628 627Q626 619 616 587T602 528Q600 510 585 510Q574 510 574 531Q574 556 572 572T561 598Q547 617 515 617L398 618Q363 618 350 582Q342 561 285 377Q283 371 283 367Q283 360 288 355T303 350L407 352Q455 352 487 395Q493
404 500 410T513 416Q519 416 521 411T521 397Q504 359 494 330T474 261Q469 241 460 241Q452 241 448 248T444 264Q444 292 435 304T408 317Q387 318 301 318Q282 318 272 312T256 288L204 109Q198 87 198 73Q198 51 212 42T262 27Q274 25 278 22T283 11Q283 -4
256 -4Q239 -4 218 -3T186 -1Q156 2 129 2Q97 2 67 -1Q57 -1 37 -2T0 -4Q-21 -4 -21 7Z" />
<glyph unicode="G" glyph-name="G" horiz-adv-x="701" d="M286 -14T219 16T114 106T76 248Q76 260 78 286Q85 391 144 477T300 613T516 663Q563 663 616 644Q631 638 644 634T669 630Q679 630 692 638Q708 646 715 646Q726 646 726 637Q726 633 723 628Q704 602
683 558T654 479Q647 456 634 456Q617 456 617 480Q617 486 618 490Q620 508 620 516Q620 557 600 584Q585 605 560 618T501 632Q421 632 352 581T239 443T184 251Q183 242 183 226Q183 165 211 117T284 43T381 17Q422 17 449 40T487 101L516 211Q518 217 518 226Q518
244 499 250Q486 254 470 258T449 263Q422 269 422 279Q422 286 430 290T452 295Q476 295 518 291Q528 290 547 289T582 288Q593 288 607 289T628 291Q660 295 683 295Q691 295 696 292T701 282Q701 275 693 269T671 260Q646 256 633 246T610 215Q598 189 586 150T573
99Q573 90 576 83T588 65Q580 46 541 28T454 -2T371 -14Q286 -14 219 16Z" />
<glyph unicode="H" glyph-name="H" horiz-adv-x="761" d="M-28 -4T-28 8Q-27 15 -20 19T4 28Q40 37 55 46T77 79L223 551Q231 577 231 588Q231 602 223 609T192 621Q171 626 171 639Q171 646 179 650T199 654Q225 654 261 652Q291 650 308 650L359 651Q397 653
424 653Q444 653 444 643Q444 627 410 621Q372 613 353 597T325 551L266 358L265 354Q265 348 276 348H580Q588 348 592 360L652 551Q657 568 657 578Q657 594 646 604T610 621Q590 626 590 638Q590 653 617 653Q642 653 682 651L738 650Q753 650 781 652Q813 654
840 654Q861 654 861 642Q861 635 852 630T827 621Q793 614 779 599T754 552L611 86Q606 71 606 62Q606 48 615 40T647 27Q659 24 663 21T668 10Q668 3 660 0T640 -4Q606 -4 580 -1Q550 1 531 1Q513 1 479 -1Q451 -4 414 -4Q394 -4 394 6Q394 21 427 27Q462 35
482 51T512 97L573 291Q579 307 571 307H260Q251 307 248 294L189 102Q184 87 184 72Q184 53 196 44T236 27Q248 24 252 21T257 10Q257 -4 230 -4Q194 -4 165 -1Q127 1 109 1Q91 1 55 -1Q26 -4 -7 -4Q-28 -4 -28 8Z" />
<glyph unicode="I" glyph-name="I" horiz-adv-x="368" d="M-28 -4T-28 8Q-27 15 -19 19T6 27Q46 35 67 50T98 98L237 550Q243 570 243 581Q243 597 232 606T195 621Q174 626 174 639Q174 646 182 650T202 654Q228 654 266 652Q302 650 322 650L375 651Q415 653
440 653Q460 653 460 643Q460 627 426 621Q386 613 368 598T339 550L204 111Q197 85 197 74Q197 54 209 44T247 28Q264 24 270 20T274 8Q274 -4 247 -4Q212 -4 180 -1Q142 1 123 1Q101 1 61 -1Q30 -4 -7 -4Q-28 -4 -28 8Z" />
<glyph unicode="J" glyph-name="J" horiz-adv-x="323" d="M-136 -200T-162 -184T-190 -146Q-190 -121 -183 -107T-161 -92Q-155 -92 -146 -98T-126 -114L-108 -129Q-86 -146 -73 -154T-46 -162Q-17 -162 5 -126T57 4L224 551Q230 571 230 582Q230 598 220 607T184
621Q162 626 162 639Q162 646 170 650T191 654Q217 654 255 652Q289 650 310 650L357 651Q391 653 418 653Q438 653 438 643Q438 627 405 621Q367 613 353 599T327 551L194 116Q170 38 149 -8T109 -80T62 -131Q-9 -200 -86 -200Q-136 -200 -162 -184Z" />
<glyph unicode="K" glyph-name="K" horiz-adv-x="721" d="M-26 -5T-26 7Q-26 15 -18 19T9 27Q47 34 65 49T93 100L232 551Q238 569 238 581Q238 598 227 607T190 621Q168 625 168 639Q168 646 177 650T200 654Q224 654 260 652L313 651Q344 651 360 652L423 653Q444
653 444 642Q444 628 410 621Q383 615 370 609T350 590T334 551L278 363Q277 361 277 357Q277 350 290 350Q306 350 323 360T364 391L557 561Q569 571 577 581T587 598Q588 603 581 608T561 618Q538 624 538 638Q538 644 548 647T571 651H629Q660 651 720 653Q774
655 797 655Q806 655 811 652T816 643Q816 636 806 630T779 622Q686 609 618 558Q562 517 511 473T390 364Q383 358 383 351Q383 347 386 342Q485 152 559 78Q579 58 599 48T648 28Q663 24 669 20T676 8Q676 -5 644 -5Q619 -5 579 -3Q543 0 485 0L399 -1Q376 -1
376 11Q376 19 383 23T406 30Q422 34 428 38T435 51Q435 61 424 80L301 299Q295 310 285 316T269 322Q263 322 258 305L201 107Q195 85 195 71Q195 53 205 43T241 27Q254 24 259 20T265 9Q265 2 256 -1T233 -5Q196 -5 168 0Q161 0 149 1T124 3Q105 3 69 -1Q29 -5
-2 -5Q-26 -5 -26 7Z" />
<glyph unicode="L" glyph-name="L" horiz-adv-x="582" d="M-28 -5T-26 7Q-26 20 7 26Q48 35 72 51T106 98L247 557Q253 578 253 589Q253 603 243 609T208 621Q186 626 186 639Q186 646 194 650T214 654Q248 654 277 651Q313 649 331 649Q352 649 394 651Q438 653
463 653Q482 653 482 643Q482 634 474 630T448 623Q405 617 383 604T351 562L220 125Q211 95 211 75Q211 53 222 43T257 33H321Q414 33 460 73Q479 90 494 110T528 161Q533 168 536 171T546 174Q555 174 555 160Q555 142 536 89T501 12Q488 -5 478 -5Q415 -5 368
-4T289 -2Q201 1 126 1Q110 1 91 0T61 -2Q30 -5 -5 -5Q-28 -5 -26 7Z" />
<glyph unicode="M" glyph-name="M" horiz-adv-x="990" d="M372 -14T369 -8T366 10Q367 47 367 120Q367 285 357 493Q357 510 349 510Q340 510 331 489Q243 319 175 152Q151 94 151 64Q151 47 158 39T179 28Q207 23 207 11Q207 5 197 1T174 -3Q147 -3 117 -1L68
0Q42 0 19 -3Q-9 -5 -27 -5Q-49 -5 -49 5Q-49 13 -41 17T-15 25Q28 35 55 59T117 149L305 521Q321 553 321 571Q321 592 302 605T240 625Q219 628 212 631T205 642Q205 658 245 658L322 656Q374 653 418 653Q441 653 446 636T450 574L460 182Q460 165 468 165Q474
165 487 178Q553 250 613 322T770 514L818 574Q827 588 838 610L853 636Q861 650 874 650H915Q932 650 972 654Q1010 658 1020 658Q1033 658 1041 654T1050 643Q1050 626 1005 619Q976 614 961 607T936 583T916 532Q870 370 824 138Q819 110 819 94Q819 64 831
49T869 28Q882 26 887 22T892 10Q891 5 883 1T863 -3Q832 -3 795 2Q753 6 731 6Q710 6 674 2Q642 -3 610 -3Q589 -3 589 9Q589 22 622 30Q657 38 673 53T701 102Q732 198 755 282T806 480V482Q806 486 803 486Q800 486 795 481L513 155L402 9Q384 -14 377 -14Q372
-14 369 -8Z" />
<glyph unicode="N" glyph-name="N" horiz-adv-x="774" d="M-10 -4T-10 7Q-10 15 -4 19T20 27Q60 35 79 53T109 101L252 521Q262 553 262 570Q262 595 245 608T189 624Q153 627 153 643Q153 651 162 654T180 658Q221 658 262 655Q310 653 329 653Q350 653 358 635L576
167Q579 162 584 156T593 150Q597 150 600 155T606 168Q618 198 661 341T713 528Q716 543 716 556Q716 584 697 598T635 620Q611 624 611 638Q611 644 621 647T642 651Q675 651 702 648Q736 646 751 646Q776 646 799 649Q837 653 869 653Q891 653 891 641Q891 634
881 629T855 621Q828 618 814 611T790 589T767 541Q742 469 693 321T630 126Q625 108 625 100Q625 87 635 67Q639 57 645 51T657 40T665 33Q676 25 680 21T684 9Q684 3 681 2T672 0Q646 0 614 -4Q592 -6 583 -6Q563 -6 552 2T532 30Q509 77 447 222Q412 304 376
385T318 507Q314 515 309 521T299 527Q294 527 288 519T278 497L254 419Q186 202 161 101Q159 87 159 82Q159 60 174 47T222 26Q236 23 242 19T249 9Q249 -4 219 -4Q188 -4 158 -2Q134 0 121 0Q98 0 62 -2Q28 -4 12 -4Q-10 -4 -10 7Z" />
<glyph unicode="O" glyph-name="O" horiz-adv-x="693" d="M227 -14T176 20T98 112T71 243Q71 345 121 442T261 602T469 664Q541 664 593 630T671 538T698 407Q698 305 648 208T507 48T300 -14Q227 -14 176 20ZM382 19T449 87T555 257T594 453Q594 529 562 581T466
634Q389 634 322 565T215 393T175 197Q175 122 206 71T302 19Q382 19 449 87Z" />
<glyph unicode="P" glyph-name="P" horiz-adv-x="587" d="M-12 -4T-12 8Q-12 20 22 27Q62 35 82 50T112 99L248 541Q255 566 255 577Q255 599 240 609T192 624Q179 626 174 629T168 639Q168 646 177 650T200 654L240 653Q284 651 305 651Q311 651 335 653Q419
656 423 656Q520 656 578 607T637 473Q637 408 599 357T495 276T355 247Q312 247 312 263Q312 273 335 277Q355 279 385 286Q451 302 492 354T533 478Q533 549 497 587T397 625Q384 625 377 615T359 571L216 107Q210 89 210 76Q210 56 224 45T269 27Q282 24 287
20T293 8Q293 -4 261 -4Q244 -4 224 -3T193 -1Q166 2 141 2Q108 2 78 -1Q67 -2 47 -3T10 -4Q-12 -4 -12 8Z" />
<glyph unicode="Q" glyph-name="Q" horiz-adv-x="697" d="M709 -144T717 -144Q721 -144 723 -147T725 -155Q725 -162 723 -165Q712 -190 685 -216T623 -259T552 -276Q504 -276 461 -258T345 -200Q289 -168 246 -151T161 -134Q128 -134 101 -143Q93 -147 78 -154T54
-161Q46 -161 44 -159T41 -150Q41 -132 86 -111T215 -58Q284 -32 302 -23L320 -14H308Q233 -14 180 20T99 112T71 243Q71 345 120 442T260 602T469 664Q542 664 594 630T674 538T702 407Q702 299 642 199T471 29Q408 -11 365 -33T263 -77Q331 -80 431 -136Q496
-173 533 -190T601 -208Q660 -208 699 -157Q709 -144 717 -144ZM364 12Q477 85 537 198T598 453Q598 530 564 580T460 631Q384 631 318 564T214 394T175 197Q175 119 218 66T359 12H364Z" />
<glyph unicode="R" glyph-name="R" horiz-adv-x="712" d="M-9 -4T-9 8Q-8 15 0 19T24 27Q64 34 84 49T115 99L251 543Q260 572 260 586Q260 603 247 609T196 621Q168 624 168 639Q168 646 179 650T203 654L259 652L307 651Q327 651 367 653Q399 656 429 656Q516
656 570 618T625 507Q625 435 575 387T451 318Q439 313 443 302Q464 248 533 108Q552 71 572 55T624 34Q640 32 649 29T658 17Q658 5 640 1T580 -3Q526 -3 494 10T448 52Q426 95 402 151T360 255Q350 281 340 290T307 299Q290 299 283 295T273 280L219 107Q213
88 213 74Q213 37 261 27Q274 24 279 20T283 8Q280 -4 255 -4Q246 -4 192 -1Q168 2 144 2Q112 2 80 -1Q70 -1 50 -2T12 -4Q-9 -4 -9 8ZM380 321T421 341T491 405T520 513Q520 561 489 594T413 628Q398 628 390 623T373 601T355 548L303 359Q300 350 300 343Q300
331 310 326T342 321Q380 321 421 341Z" />
<glyph unicode="S" glyph-name="S" horiz-adv-x="488" d="M134 -15T84 5Q53 17 49 17Q41 17 27 11Q11 0 6 0Q1 0 -7 7T-15 20Q-15 24 -5 49Q26 123 33 177Q35 190 39 195T53 201Q62 201 65 191T68 154Q68 95 98 57T188 19Q251 19 291 54T332 149Q332 186 314 216T243
295Q192 341 167 382T141 477Q141 530 169 573T248 640T360 664Q395 664 445 650Q465 644 468 642Q473 640 483 637T500 634Q509 634 521 639Q532 646 541 646Q549 646 552 640T552 628Q518 570 504 487Q502 474 497 466T486 458Q477 458 474 465T471 489Q471 556
439 594T354 632Q320 632 292 615T249 569T233 511Q233 473 253 441T328 359Q383 311 406 272T430 188Q430 133 402 87T321 13T195 -15Q134 -15 84 5Z" />
<glyph unicode="T" glyph-name="T" horiz-adv-x="641" d="M120 -4T120 7Q120 15 128 19T154 25Q194 33 216 50T248 101L374 528Q387 574 387 594Q387 605 383 609T371 614H301Q261 614 233 597T179 552Q173 545 162 532T142 510T127 502Q115 502 116 516Q120 532
127 546Q165 604 180 654Q183 663 189 669T201 676Q209 676 227 660Q237 652 252 648T310 644L638 645Q683 645 701 648T729 658Q737 662 746 669T760 676Q770 676 770 666Q770 658 760 638Q750 619 738 586T717 516Q712 496 701 496Q686 496 686 523Q685 569 670
591T616 614H534Q519 614 511 608T494 583T475 526L350 101Q346 88 346 76Q346 56 359 44T401 25Q414 22 418 19T423 10Q423 -4 395 -4Q359 -4 329 -1Q293 1 273 1Q251 1 209 -1Q176 -4 141 -4Q120 -4 120 7Z" />
<glyph unicode="U" glyph-name="U" horiz-adv-x="704" d="M215 -14T159 31T102 160Q102 201 117 252L206 544Q211 559 211 577Q211 611 184 619Q156 628 156 640Q156 647 167 650T192 654Q207 654 241 652Q275 650 294 650Q311 650 347 652L390 653Q416 653 413
640Q412 634 405 630T386 623T370 617Q351 611 334 591T305 534L215 238Q204 202 204 168Q204 105 242 72T340 38Q433 38 493 101T584 266L625 398L646 466Q666 530 666 564Q666 589 656 601T623 620Q608 625 601 629T595 640Q595 646 604 649T626 652L681 651Q698
650 728 650Q745 650 771 652Q797 654 808 654Q831 654 831 643Q831 629 794 621Q773 615 761 607T737 578T709 514Q687 455 652 349L620 255Q575 125 503 56T306 -14Q215 -14 159 31Z" />
<glyph unicode="V" glyph-name="V" horiz-adv-x="698" d="M158 -15T158 33Q158 58 163 80Q221 398 235 551Q236 558 236 570Q236 593 226 604T189 621Q174 624 168 629T161 642Q161 655 192 655Q205 655 243 653Q274 650 309 650L374 651Q393 652 424 652Q448
652 448 640Q447 633 437 628T413 620Q380 614 365 601T344 554L276 153L274 138Q274 129 279 129Q282 129 289 138T302 155L571 484Q627 552 627 589Q627 615 600 620Q577 624 577 639Q577 646 586 649T608 653L648 652Q682 650 703 650Q711 650 756 653Q777 656
800 656Q811 656 818 653T825 642Q825 635 816 630T788 620Q721 602 671 542L304 107Q286 85 276 74Q243 33 221 9T189 -15Q158 -15 158 33Z" />
<glyph unicode="W" glyph-name="W" horiz-adv-x="1083" d="M189 -15T182 2T175 48Q175 63 179 91Q232 382 249 532Q252 553 252 567Q252 594 240 604T193 621Q177 624 169 629T161 642Q161 650 170 652T197 655Q208 655 244 653Q307 650 316 650L381 651Q400 652
432 652Q442 652 449 649T457 640Q457 632 446 627T419 619Q394 616 382 610T363 589T351 544L323 372Q302 253 291 178L289 161Q289 151 294 151Q301 151 323 176L581 483Q606 513 617 532T628 568Q628 591 615 603T569 621Q553 624 545 629T537 642Q537 655 573
655Q588 655 634 653Q672 650 705 650Q725 650 740 651T767 653Q797 656 825 656Q848 656 848 642Q848 635 839 630T813 622Q769 615 753 601T732 552L673 178L671 162Q671 151 676 151Q684 151 704 177L947 483Q1000 550 1000 585Q1000 612 966 620Q953 623 948
626T942 637Q942 644 951 648T974 653L1020 652Q1066 650 1088 650Q1095 650 1140 653Q1161 656 1184 656Q1210 656 1210 642Q1210 635 1199 629T1172 620Q1107 606 1054 542L690 108Q670 84 661 72Q625 28 606 7T577 -14Q550 -14 550 29Q550 54 560 112L579 221Q601
340 624 482L313 109Q310 106 276 61Q249 23 232 4T204 -15Q189 -15 182 2Z" />
<glyph unicode="X" glyph-name="X" horiz-adv-x="661" d="M-53 -6T-53 7Q-53 14 -44 20T-18 29Q16 34 49 54T129 125L283 293Q295 306 300 316T306 338Q306 348 302 360L250 536Q236 583 216 600T163 621Q150 622 142 628T134 642Q134 648 144 651T166 655Q197
655 230 652Q241 651 264 650T305 649Q330 649 364 651Q394 653 404 653Q428 653 428 641Q428 633 419 627T394 620Q369 618 358 609T347 580Q347 564 355 534L393 396Q398 382 405 382Q412 382 421 393L521 514Q567 570 567 595Q567 614 540 619Q529 621 522 627T514
640Q514 646 522 649T544 652Q568 652 580 651L623 650Q637 650 655 651T682 653Q708 656 729 656Q756 656 756 644Q756 637 748 633T721 624Q693 616 653 589T583 529L436 367Q426 354 422 347T417 332Q417 329 419 319L481 105Q490 70 509 56T574 29Q602 21 602
7Q602 1 594 -2T574 -5Q542 -5 503 -2Q489 -1 468 0T419 1L362 0Q348 -1 322 -1Q297 -1 297 12Q297 21 332 32Q358 39 370 50T382 80Q382 93 378 106L331 274Q328 286 321 286Q315 286 309 278L175 112Q151 81 151 61Q151 39 183 31Q198 26 203 22T209 11Q209 5
200 2T179 -2L142 -1Q108 1 89 1Q66 1 26 -3Q16 -4 3 -5T-27 -6Q-53 -6 -53 7Z" />
<glyph unicode="Y" glyph-name="Y" horiz-adv-x="602" d="M98 -5T98 7Q99 20 134 27Q209 40 231 109L279 262Q286 282 286 300Q286 318 278 345L221 550Q212 581 199 597T164 618Q136 624 136 640Q136 653 168 653Q184 653 222 651Q264 649 292 649Q308 649 340
651Q368 653 383 653Q406 653 406 641Q405 627 369 620Q343 615 333 608T322 584Q322 571 326 555L368 388Q377 354 385 354Q390 354 398 362T417 382Q443 411 501 484Q527 518 542 536Q571 571 571 591Q571 602 563 608T537 619Q527 622 520 627T513 639Q513 645
522 648T544 652Q570 652 583 651L628 650Q652 650 688 652Q720 654 730 654Q757 654 754 641Q753 635 748 632T734 626T721 622Q692 613 657 589T599 541Q580 521 497 428L430 354Q410 332 399 311T378 257L333 109Q328 95 328 78Q328 39 379 27Q392 24 397 21T403
10Q403 3 395 -1T373 -5Q356 -5 337 -4T308 -2Q280 1 251 1Q219 1 189 -2Q179 -2 159 -3T122 -5Q98 -5 98 7Z" />
<glyph unicode="Z" glyph-name="Z" horiz-adv-x="637" d="M337 -3Q308 -2 269 -1T182 0Q139 0 47 -2Q-1 -4 -20 -4Q-25 -4 -25 4Q-25 13 -23 15Q-9 39 59 109Q116 168 265 331Q405 484 517 599Q523 605 523 609Q523 616 508 616Q481 617 414 615T305 608Q273 605
238 583T175 519Q157 492 143 492Q131 492 131 510Q133 521 140 536Q164 586 184 631Q189 645 196 651T214 658Q223 658 255 654Q311 648 321 648Q366 647 463 647Q542 647 666 651Q672 651 676 641T678 628L594 540Q443 385 352 288T153 68Q143 56 143 50Q143
40 159 39Q189 36 243 36Q288 36 342 39T431 51Q527 70 580 154Q584 160 589 165T601 171Q613 171 611 153Q608 130 545 31L534 13Q525 -5 502 -5L337 -3Z" />
<glyph unicode="[" glyph-name="bracketleft" horiz-adv-x="366" d="M3 -200T-3 -198T-9 -187Q-9 -180 -3 -163L244 641Q246 647 251 666T266 693T290 702L462 701Q469 701 473 697T476 687Q475 678 465 673T444 668Q423 668 367 666Q353 665 342 654T325 627Q149
79 91 -126Q88 -135 88 -143Q88 -161 113 -161L154 -164L187 -167Q209 -169 208 -183Q207 -191 198 -195T180 -200H18Q3 -200 -3 -198Z" />
<glyph unicode="\" glyph-name="backslash" horiz-adv-x="406" d="M256 -65T253 -48L163 652V653Q163 660 168 665T182 670Q214 670 216 649L307 -51V-52Q307 -59 301 -63T285 -67Q256 -65 253 -48Z" />
<glyph unicode="]" glyph-name="bracketright" horiz-adv-x="365" d="M392 702T398 700T404 689Q404 682 398 665L151 -139Q149 -145 144 -164T129 -191T105 -200L-67 -199Q-74 -199 -78 -195T-81 -185Q-80 -176 -70 -171T-49 -166Q-28 -166 28 -164Q42 -163 53
-152T70 -125Q246 423 304 628Q307 637 307 645Q307 663 282 663L241 666L208 669Q186 671 187 685Q188 693 197 697T215 702H377Q392 702 398 700Z" />
<glyph unicode="^" glyph-name="asciicircum" horiz-adv-x="506" d="M76 272T72 275T68 285Q68 290 71 294L275 605H280L485 294Q487 291 487 285Q487 272 474 272Q462 272 450 279T431 295L282 510Q278 515 277 515T272 510L125 296Q118 286 106 279T82 272Q76
272 72 275Z" />
<glyph unicode="_" glyph-name="underscore" horiz-adv-x="506" d="M393 -131T396 -135T397 -146Q391 -161 381 -172T358 -184H-106Q-112 -184 -115 -180T-116 -171Q-114 -161 -103 -146T-81 -131H386Q393 -131 396 -135Z" />
<glyph unicode="`" glyph-name="grave" horiz-adv-x="213" d="M270 473T256 489L159 601Q139 624 139 634Q139 646 156 660T185 675Q199 675 215 647L289 497Q293 489 293 484Q293 473 282 473Q270 473 256 489Z" />
<glyph unicode="a" glyph-name="a" horiz-adv-x="509" d="M23 -14T6 1T-12 32Q-12 82 36 155T177 318Q281 416 315 416Q333 416 354 397L365 384Q369 384 371 391Q389 422 388 422Q392 432 404 432Q421 432 438 423T455 403Q455 400 449 383L342 95Q339 86 339
79Q339 64 354 64Q370 64 395 81T440 124Q445 129 448 129Q456 129 456 116Q456 106 441 84T405 44Q374 16 343 1T289 -14Q270 -14 254 0T237 31Q237 41 243 54Q239 47 254 83T285 151Q289 159 288 164T282 163Q195 66 141 26T42 -14Q23 -14 6 1ZM136 64T177 99T268
193Q303 235 324 269T345 321Q345 329 330 342Q311 355 301 355Q284 355 254 337T199 295Q155 251 121 193T87 99Q87 83 95 74T116 64Q136 64 177 99Z" />
<glyph unicode="b" glyph-name="b" horiz-adv-x="476" d="M106 -10T80 14T54 81Q54 127 76 193L196 563Q207 596 207 619Q207 632 179 640Q151 649 151 656Q151 666 171 672Q199 682 246 694T303 707Q322 707 322 696Q322 679 314 660Q292 605 249 480T175 259Q174
256 174 252Q174 248 177 248Q181 248 185 255Q244 334 298 377T394 421Q428 421 450 399T472 343Q472 267 422 184T297 46T152 -10Q106 -10 80 14ZM198 25T232 54T298 127Q333 177 358 237T384 332Q384 348 376 358T356 368Q300 368 204 238Q170 190 150 150T130
90Q130 65 145 45T179 25Q198 25 232 54Z" />
<glyph unicode="c" glyph-name="c" horiz-adv-x="332" d="M91 -15T68 0T29 40T14 97Q14 168 47 244T140 370T278 421Q308 421 326 409T344 379Q344 361 333 344T310 327Q302 327 298 332T284 354Q264 388 241 388Q211 388 179 345T125 240T103 125Q103 60 159
60Q187 60 207 71T249 105Q260 117 268 117Q277 117 277 105Q277 86 253 57T191 7T115 -15Q91 -15 68 0Z" />
<glyph unicode="d" glyph-name="d" horiz-adv-x="533" d="M375 110Q371 92 371 85Q371 67 383 67Q399 67 427 87T477 134Q481 138 484 138Q494 138 492 128Q492 108 461 74T390 13T326 -14Q307 -14 291 2T274 35Q274 41 278 60L304 143Q304 148 301 149T296 147Q227
61 175 24T73 -14Q41 -14 22 7T2 62Q2 117 36 190T125 327Q166 374 206 399T281 425Q297 425 308 420T348 396L369 383Q371 383 372 385T375 391L435 590Q442 615 442 618Q442 630 435 638T410 653Q391 660 387 662T383 668Q383 675 390 679T416 687Q449 694 487
700T534 706Q550 706 550 692Q550 679 544 663L375 110ZM166 51T219 98T310 212T348 327Q348 356 336 371T301 387Q267 387 218 334T131 208T94 87Q94 67 101 59T127 51Q166 51 219 98ZM303 139L304 141L303 139Z" />
<glyph unicode="e" glyph-name="e" horiz-adv-x="355" d="M93 -15T69 1T28 43T11 95Q11 167 48 243T147 370T275 421Q317 421 339 404T362 359Q362 301 298 269T131 216Q125 215 123 214T118 207Q103 158 102 133Q102 97 118 76T164 55Q194 55 217 69T264 108Q274
119 281 119Q291 119 291 109Q291 102 289 99Q222 -15 116 -15Q93 -15 69 1ZM164 247T199 260T261 299T290 360Q290 373 283 382T263 392Q239 392 209 367T156 307T131 250Q131 242 138 244Q164 247 199 260Z" />
<glyph unicode="f" glyph-name="f" horiz-adv-x="343" d="M-144 -290T-170 -274T-196 -231Q-196 -213 -182 -199T-153 -184Q-147 -184 -141 -190T-128 -204T-117 -217Q-94 -248 -65 -248Q-39 -248 -22 -221T17 -123L152 341Q153 344 153 349Q153 359 138 359L76
358Q62 358 62 372Q62 381 69 390T86 401L153 405Q165 406 170 423L178 453Q202 540 243 597T330 680T419 706Q464 706 491 686T518 634Q518 609 505 593T475 577Q466 577 460 586T444 621Q434 643 421 654T388 665Q351 665 329 632T280 512L259 437Q258 433 257
428T255 417V415Q255 406 267 406Q287 406 323 408L373 409Q376 409 378 406T381 397Q381 389 372 377T353 365L265 363Q252 363 245 359T236 344Q175 142 108 -106Q95 -154 59 -196T-21 -264T-96 -290Q-144 -290 -170 -274Z" />
<glyph unicode="g" glyph-name="g" horiz-adv-x="434" d="M57 -290T8 -277T-69 -239T-98 -182Q-98 -149 -44 -121T98 -64Q107 -61 100 -55Q76 -37 63 -22T50 9Q50 25 65 40T111 75Q121 84 121 87Q121 90 112 94Q51 124 51 193Q51 238 78 292T151 383T255 421Q277
421 291 415T308 407Q311 406 323 400T344 394Q357 394 391 400Q423 407 440 407Q449 407 456 401T464 383Q464 366 458 356T443 346Q436 346 424 348T405 351Q382 356 368 356Q353 356 357 343Q360 328 360 310Q360 258 333 205T262 118T168 83Q152 83 142 75Q132
64 132 50Q132 34 141 23T174 -4Q193 -18 247 -52Q289 -78 305 -89Q348 -121 348 -153Q348 -188 312 -219T222 -270T116 -290Q57 -290 8 -277ZM188 112T219 154T271 254T293 346Q293 363 284 377T261 391Q234 391 203 351T149 254T126 159Q126 139 136 126T160
113Q188 112 219 154ZM201 -258T231 -239T261 -190Q261 -176 252 -161T224 -135Q209 -124 187 -111T153 -91Q139 -83 129 -83Q122 -83 106 -87Q46 -106 16 -127T-14 -179Q-14 -201 8 -219T68 -247T150 -258Q201 -258 231 -239Z" />
<glyph unicode="h" glyph-name="h" horiz-adv-x="514" d="M61 -17T51 -7T41 17Q41 31 44 48T54 85L193 551Q207 595 207 616Q207 625 197 631T169 642Q162 645 156 648T150 655Q150 660 154 663T171 672Q194 681 238 694T294 707Q314 707 314 696Q314 685 312
676T308 664L171 210Q169 203 172 203T178 207Q242 304 310 365T428 426Q462 426 481 403T501 347Q501 273 466 192T380 54Q365 37 323 12T256 -14Q242 -14 226 0T209 26Q209 35 219 48T239 62Q247 62 252 59T266 48Q275 40 281 37T295 33Q319 33 346 83T392 204T411
325Q411 369 378 369Q311 369 134 66Q109 19 96 1T71 -17Q61 -17 51 -7Z" />
<glyph unicode="i" glyph-name="i" horiz-adv-x="307" d="M54 -14T40 -1T26 27Q26 36 30 45Q61 110 87 176T119 254Q132 291 143 316L144 320Q144 326 138 326Q129 326 107 315T66 291Q60 288 56 288Q45 288 45 295Q45 306 70 329T134 378T208 419Q214 421 217
421Q232 421 244 407T252 383L134 98Q128 85 128 74Q128 64 141 64Q169 64 248 143Q251 146 252 146Q256 146 258 144T261 137Q261 115 227 79T149 14T73 -14Q54 -14 40 -1ZM251 766T239 779T227 811Q227 839 246 860T293 881Q311 881 322 866T333 831Q333 805
314 786T268 766Q251 766 239 779Z" />
<glyph unicode="j" glyph-name="j" horiz-adv-x="278" d="M-163 -290T-186 -276T-209 -243Q-208 -226 -194 -212T-165 -197Q-155 -197 -147 -203T-129 -221Q-119 -232 -109 -238T-83 -245Q-58 -245 -40 -218T-5 -139L132 280Q136 293 136 303Q136 318 124 318Q110
318 64 295Q60 293 56 293Q52 293 49 295T46 301Q46 306 49 310T59 320Q90 347 121 365T194 403L228 420Q240 424 253 413T262 391L254 369Q237 328 221 279L95 -105Q80 -149 40 -192T-47 -262T-125 -290Q-163 -290 -186 -276ZM236 511T224 524T212 556Q212 584
231 605T278 626Q296 626 307 611T318 576Q318 550 299 531T253 511Q236 511 224 524Z" />
<glyph unicode="k" glyph-name="k" horiz-adv-x="483" d="M282 -19T268 -7T243 30L203 143Q197 160 188 170T165 181Q155 181 141 145L113 74Q103 46 92 20Q85 4 77 -4T54 -12Q42 -12 31 -3T19 20Q19 38 27 61L186 556Q198 592 198 614Q198 630 175 638Q166 642
158 646T150 653Q150 662 163 667Q187 678 233 692T292 706Q311 706 311 695Q311 680 306 666L176 275L175 269Q175 266 177 266Q182 266 185 272Q234 339 292 380T403 421Q428 421 446 409T465 373Q465 342 434 306T357 240T274 198Q265 195 269 184L312 84Q325
56 343 56Q360 56 379 72T414 112Q419 120 422 122T429 125Q431 125 433 121T436 113Q436 90 412 59T357 4T304 -19Q282 -19 268 -7ZM240 206T281 229T350 284T378 337Q378 367 344 367Q320 367 284 338T220 272T192 221Q192 215 195 211T203 206Q240 206 281 229Z"
/>
<glyph unicode="l" glyph-name="l" horiz-adv-x="296" d="M44 -14T28 1T12 34Q12 43 15 49L197 576Q205 600 205 612Q205 624 199 634Q189 650 170 659Q154 667 160 673Q173 679 190 684T213 691Q239 697 270 702T311 708Q316 708 319 703T323 691Q322 681 314
658L119 101Q115 89 115 77Q115 62 126 62Q142 62 171 88T224 144Q237 161 244 161Q249 161 250 158T251 147Q251 118 217 80T136 14T61 -14Q44 -14 28 1Z" />
<glyph unicode="m" glyph-name="m" horiz-adv-x="804" d="M74 -16T63 -4T52 23Q52 33 70 80L167 325Q169 333 169 336Q169 344 165 348T152 353Q135 353 117 345T77 310Q74 306 69 306Q61 306 61 315Q61 325 69 342T86 369Q108 393 133 406T195 421Q217 421 232
410T247 378Q247 365 242 354L185 211L184 207Q184 203 188 203Q193 203 195 208Q261 312 315 366T421 421Q449 421 466 403T483 354Q483 333 472 305L444 226L443 222Q443 218 448 218Q452 218 455 222Q578 421 678 421Q705 421 720 404T736 357Q736 329 723 299L643
98Q637 83 637 75Q637 64 648 64Q665 64 695 89T747 135Q753 141 756 141Q759 141 762 138T765 131Q765 113 747 94Q654 -14 567 -14Q555 -14 542 -3T529 23Q529 26 531 32L654 332Q658 344 658 348Q658 359 652 365T636 371Q620 371 597 352T545 297Q520 265 477
197T398 68Q376 29 353 7T316 -16Q306 -16 297 -5T287 17Q287 30 306 81L404 335Q408 344 408 352Q408 362 402 367T388 374Q372 375 347 355T291 296Q267 264 226 197T151 69Q125 21 111 3T84 -16Q74 -16 63 -4Z" />
<glyph unicode="n" glyph-name="n" horiz-adv-x="552" d="M70 -15T57 -1T43 31Q43 39 45 43L155 315Q163 334 163 342Q163 352 153 352Q134 352 116 344T77 310Q74 306 69 306Q61 306 60 314Q59 323 68 340T87 369Q106 392 135 406T201 421Q220 421 232 410T244
381Q244 375 240 363L179 206Q178 205 178 202Q178 198 183 198Q189 198 191 203Q251 306 310 363T421 421Q450 421 467 401T484 349Q484 325 474 301L388 98Q381 84 381 75Q381 64 392 64Q409 64 444 88T493 126Q499 132 502 132Q505 132 508 129T511 122Q511
111 504 100Q461 49 410 18T311 -14Q297 -14 285 -3T272 23Q272 30 274 33L310 112Q372 253 394 309Q403 331 403 349Q403 369 386 371Q355 371 287 283Q265 255 216 177T125 27Q113 6 103 -4T82 -15Q70 -15 57 -1Z" />
<glyph unicode="o" glyph-name="o" horiz-adv-x="408" d="M96 -14T71 3T30 48T14 109Q14 173 48 246T142 370T272 421Q327 421 359 386T392 294Q392 230 358 158T263 36T125 -14Q96 -14 71 3ZM177 19T215 72T280 201T306 334Q306 388 266 388Q232 388 194 337T129
212T102 75Q102 19 142 19Q177 19 215 72Z" />
<glyph unicode="p" glyph-name="p" horiz-adv-x="471" d="M-110 -286T-114 -284T-119 -276Q-118 -269 -110 -264T-92 -256Q-65 -250 -53 -243T-34 -215L151 317Q157 337 157 341Q157 352 141 349Q97 340 64 326Q60 324 54 324Q41 324 41 334Q41 349 60 357Q65
359 94 373T168 402Q182 405 189 425Q204 474 221 495T263 516Q285 516 285 497Q285 491 284 487L269 435Q267 427 267 425Q267 420 269 418T274 416Q295 421 321 421Q394 421 428 387T462 293Q462 227 423 155T321 34T192 -14Q182 -14 172 -9T146 5Q138 10 134
10Q129 10 126 5T118 -12L56 -205Q53 -213 53 -219Q53 -244 100 -252Q127 -257 127 -269Q127 -280 100 -280L30 -279Q12 -279 -3 -280T-31 -282Q-79 -286 -105 -286Q-110 -286 -114 -284ZM233 21T272 62T340 165T369 281Q369 334 349 356T291 379Q270 379 257 377L167
107Q162 93 162 74Q162 58 166 49Q176 21 204 21Q233 21 272 62Z" />
<glyph unicode="q" glyph-name="q" horiz-adv-x="498" d="M107 -287Q102 -287 97 -284T93 -276Q93 -269 101 -264T120 -257Q146 -251 162 -240T185 -209L306 117L308 125Q308 133 303 133Q298 133 291 125Q231 53 181 20T79 -14Q45 -14 24 6T3 59Q3 120 43 194T146
335Q186 377 234 402T322 427Q359 427 379 400Q383 396 389 388T401 380Q411 380 419 395L428 412Q444 440 467 440Q473 440 476 435T480 420Q480 406 471 380L279 -199Q276 -208 276 -217Q276 -243 307 -246Q338 -250 338 -262Q338 -273 311 -273Q256 -273 199
-277T109 -287H107ZM153 35T208 86T299 195Q358 292 358 337Q358 356 347 372T317 389Q286 389 232 331T137 197T95 71Q95 52 100 44T119 35Q153 35 208 86Z" />
<glyph unicode="r" glyph-name="r" horiz-adv-x="407" d="M61 -16T48 -7T35 15Q35 24 40 40T53 77L148 324Q152 336 152 341Q152 355 140 355Q113 355 88 338Q84 335 80 335Q70 335 70 346Q69 358 80 371T110 397Q146 421 185 421Q229 421 229 381Q229 356 211
312L168 207L167 203Q167 197 173 197Q178 197 180 202Q239 304 295 364T392 424Q418 424 431 409T445 369Q445 336 427 308T387 279Q369 279 367 317Q364 353 345 353Q320 353 274 285Q254 257 211 189T140 71Q112 21 99 3T72 -16Q61 -16 48 -7Z" />
<glyph unicode="s" glyph-name="s" horiz-adv-x="291" d="M11 -14T-8 0T-27 39Q-27 62 -17 76T6 90Q12 90 21 83T40 67Q58 51 71 43T104 35Q126 35 139 50T154 87Q154 123 119 182Q84 240 84 274Q84 309 110 343T172 399T228 421Q245 421 262 413T290 393T301
372Q301 360 286 343T258 325Q252 325 246 330T237 339T231 346Q212 367 189 367Q173 367 163 355T153 325Q153 304 193 236Q211 209 221 181T232 129Q232 95 203 62T129 7T41 -14Q11 -14 -8 0Z" />
<glyph unicode="t" glyph-name="t" horiz-adv-x="318" d="M59 -14T43 2T26 31Q26 43 29 55T39 82L134 344Q135 347 135 351Q135 361 123 361L81 363Q60 364 60 379Q60 384 73 395T99 407H140Q152 407 156 410T167 427L192 479Q200 495 221 512T254 530Q262 530
265 524T269 508Q269 503 267 493L242 423Q241 420 241 416Q241 411 244 410T255 408Q275 408 298 405T326 400Q343 397 347 394T352 383Q352 380 347 375T330 369Q278 365 255 364Q238 363 231 360T220 347L136 115Q131 103 131 90Q131 73 150 73Q177 73 242 135Q249
142 255 142T262 138Q263 137 263 133Q263 124 254 110Q236 83 202 54T132 6T74 -14Q59 -14 43 2Z" />
<glyph unicode="u" glyph-name="u" horiz-adv-x="540" d="M65 -14T49 6T32 45Q32 50 34 56L135 294Q143 312 143 322Q143 332 136 332Q128 332 106 316T62 279Q57 274 51 274Q43 274 43 280Q43 293 57 313Q95 362 144 393T225 424Q236 424 247 411T259 385Q259
382 257 376Q215 285 184 214L139 114Q129 92 129 79Q129 66 138 66Q151 66 181 97T265 193Q308 243 350 301T409 389Q427 421 447 421Q463 421 474 405T481 375L364 94Q358 81 358 71Q358 61 367 61Q382 61 417 86T478 138Q480 140 481 140Q485 140 488 137T492
129Q492 116 464 91T411 56Q386 32 357 17T299 2Q289 2 284 3Q276 5 270 14T264 33Q264 37 266 43Q322 161 337 203Q338 206 338 210Q338 215 334 215Q330 215 325 210Q221 90 169 38T84 -14Q65 -14 49 6Z" />
<glyph unicode="v" glyph-name="v" horiz-adv-x="434" d="M99 -14T78 11T57 74Q57 93 65 117L129 288Q135 305 135 315Q135 326 125 326Q118 326 100 313T69 286Q59 276 53 276Q44 276 44 283Q44 295 59 315Q93 360 136 392T205 424Q220 424 231 410T238 381L152
125Q145 105 145 89Q145 52 182 52Q222 52 264 86T333 173T361 276Q361 316 334 343Q319 360 319 378Q319 391 344 407T390 424Q403 424 413 405T423 350Q423 285 396 221T317 97Q270 44 223 15T132 -14Q99 -14 78 11Z" />
<glyph unicode="w" glyph-name="w" horiz-adv-x="648" d="M620 425T630 405T640 350Q640 286 609 219T521 84Q437 -14 361 -14Q329 -14 312 13T295 80Q295 95 296 102Q260 53 213 20T131 -14Q101 -14 82 7T63 68Q63 102 79 144L138 300Q141 309 141 315Q141 320
139 323T132 326Q125 326 107 317T75 293Q63 283 57 283Q53 283 50 285T47 292Q47 304 62 322Q98 363 144 393T217 424Q229 424 237 416T245 392Q245 381 239 364L153 126Q147 107 147 92Q147 73 157 63T184 52Q205 52 234 77T287 138T318 196Q323 216 338 291L346
334Q353 363 371 378Q389 391 401 396T434 402Q450 402 450 368Q450 342 442 321Q422 266 396 211Q388 193 382 172T375 138Q373 118 373 109Q373 51 410 51Q444 51 481 87T544 177T570 282Q570 305 555 330Q551 337 543 350T534 369Q534 383 561 404T606 425Q620
425 630 405Z" />
<glyph unicode="x" glyph-name="x" horiz-adv-x="459" d="M8 -14T-4 -3T-16 27Q-16 47 0 69T30 92Q42 92 48 75Q54 55 70 55Q86 53 102 71Q140 111 193 174Q198 181 198 187L196 195L158 331Q156 341 153 344T144 348Q135 348 119 335T85 297Q84 296 80 290T70
284Q62 284 62 300Q62 321 80 350T126 400T180 421Q198 421 209 407T229 364L255 263Q256 256 261 256Q265 256 269 262L335 356Q356 385 380 403T429 421Q449 421 466 405T484 374Q484 357 468 336T439 315Q426 315 419 332Q413 344 409 348T396 353Q374 353 341
315Q309 280 278 231Q271 221 271 211Q271 205 274 196L306 80Q312 55 327 55Q340 55 357 74T390 127Q396 139 403 139Q412 139 412 119Q412 99 396 67T353 10T298 -14Q272 -14 257 3T232 52Q218 115 211 142Q208 154 205 154Q202 154 197 147L160 99Q136 65 113
38Q72 -14 27 -14Q8 -14 -4 -3Z" />
<glyph unicode="y" glyph-name="y" horiz-adv-x="432" d="M-73 -290T-90 -277T-107 -240Q-107 -218 -93 -200T-60 -182Q-51 -182 -43 -187T-24 -201Q-13 -210 -5 -214T15 -219Q47 -219 82 -181T147 -80Q168 -37 176 18T185 143Q185 214 176 261T153 330T128 352Q115
352 98 329T73 286Q71 278 65 269T54 259Q50 259 48 267T45 287Q45 319 63 350T109 402T162 423Q210 423 232 353Q263 256 263 131Q263 98 262 80V76Q262 63 266 63Q271 63 277 77Q355 225 354 408Q354 414 363 421T378 429Q385 429 395 422T414 403T422 378Q422
286 351 147T163 -130Q104 -201 47 -245T-52 -290Q-73 -290 -90 -277Z" />
<glyph unicode="z" glyph-name="z" horiz-adv-x="430" d="M431 404T421 390T397 361L139 113Q159 112 175 103T218 71Q242 50 257 40T289 30Q333 30 333 117Q333 136 335 144T347 152Q360 152 371 138T383 99Q383 73 357 42T296 -11T242 -34Q218 -34 197 -21T151
15Q145 20 132 31T110 47T93 53Q66 53 49 36T32 -6Q32 -20 17 -20Q12 -20 6 -10T0 11Q0 39 25 61L289 308Q274 308 259 315T222 336Q199 350 182 357T146 364Q129 364 117 350T104 319Q104 297 114 280Q119 273 119 270Q119 267 114 262Q108 255 93 248T71 240Q64
240 56 250T48 278Q48 305 60 325T102 371Q122 388 154 404T203 421Q217 421 231 417T256 410T274 404Q280 402 302 394T342 385Q357 385 366 389T388 406Q406 424 419 424Q423 424 427 420T431 411Q431 404 421 390Z" />
<glyph unicode="{" glyph-name="braceleft" horiz-adv-x="365" d="M132 -153T84 -128T35 -54Q35 -38 41 -20Q48 1 58 28T74 68Q78 79 89 107T108 160Q114 181 114 197Q114 249 60 271Q58 272 54 273T49 277T48 284Q48 288 52 290T60 293T68 296Q112 312 141 337T184
407Q191 430 207 500Q215 543 226 582Q245 647 315 681T467 715Q475 715 479 710T482 697Q478 684 449 684Q344 684 314 587Q306 560 293 499Q285 451 274 416Q259 366 216 331T115 283Q111 281 115 279Q153 270 176 245T199 182Q199 165 193 145Q185 118 161 62Q137
4 128 -25Q122 -46 122 -62Q122 -92 142 -106T202 -123Q215 -124 220 -125T226 -134Q226 -142 218 -147T201 -153Q132 -153 84 -128Z" />
<glyph unicode="|" glyph-name="bar" horiz-adv-x="266" d="M103 -289T99 -284T94 -271V667Q94 680 106 688T132 701T153 706Q160 706 165 702T171 690V-258Q171 -275 150 -282T110 -289Q103 -289 99 -284Z" />
<glyph unicode="}" glyph-name="braceright" horiz-adv-x="365" d="M281 715T329 690T378 616Q378 600 372 582Q365 561 355 534T339 494Q335 483 324 455T305 402Q299 381 299 365Q299 313 353 291Q355 290 359 289T364 285T365 278Q365 274 361 272T353 269T345
266Q301 250 272 225T229 155Q222 132 206 62Q198 19 187 -20Q168 -85 98 -119T-54 -153Q-62 -153 -66 -148T-69 -135Q-65 -122 -36 -122Q69 -122 99 -25Q107 2 120 63Q128 111 139 146Q154 196 197 231T298 279Q302 281 298 283Q260 292 237 317T214 380Q214 397
220 417Q228 444 252 500Q276 558 285 587Q291 608 291 624Q291 654 271 668T211 685Q198 686 193 687T187 696Q187 704 195 709T212 715Q281 715 329 690Z" />
<glyph unicode="~" glyph-name="asciitilde" horiz-adv-x="516" d="M98 256Q94 256 88 265T83 279Q91 297 113 323T163 369T215 388Q233 388 252 382T302 361Q349 341 388 341Q419 341 457 366Q464 371 475 380T494 389Q498 389 503 380T507 365Q501 351 479 325T429
278T375 258Q362 258 345 263T315 272T294 280Q260 293 239 299T198 305Q177 305 145 288T100 257L98 256Z" />
<glyph unicode="&#xa0;" glyph-name="uni00A0" horiz-adv-x="213" />
<glyph unicode="&#xa1;" glyph-name="exclamdown" horiz-adv-x="293" d="M185 285T185 267Q185 257 182 242Q165 156 143 57T110 -81Q101 -119 80 -144T33 -169Q16 -169 6 -155T-4 -118Q-4 -96 4 -75Q20 -24 138 242Q158 285 173 285Q185 285 185 267ZM252 494T267
478T283 440Q283 409 260 388T205 366Q182 366 167 382T152 421Q152 451 175 472T231 494Q252 494 267 478Z" />
<glyph unicode="&#xa2;" glyph-name="cent" horiz-adv-x="408" d="M110 -81T106 -76T106 -64L128 -12Q76 5 48 43T19 136Q19 200 57 266T160 375T305 419L326 471Q330 479 339 484T358 489Q365 489 367 484T366 471L345 419Q381 417 414 398T444 356Q443 343 423
329T388 315Q380 315 374 318T366 327Q355 368 328 377L200 67Q212 65 219 65Q302 65 348 111Q354 117 361 117Q370 117 370 108Q370 102 366 97Q324 42 277 15T167 -14L146 -64Q142 -71 134 -76T118 -81Q110 -81 106 -76ZM291 383Q244 383 203 351T137 270T112
168Q112 135 125 111T163 74L291 383Z" />
<glyph unicode="&#xa3;" glyph-name="sterling" horiz-adv-x="543" d="M545 629T573 606T601 550Q601 522 581 501T528 479Q521 479 519 481T516 489Q516 491 524 507T532 545Q532 567 519 581T481 596Q444 596 418 572T373 506T324 385L310 347L427 355Q433 355
437 350T441 340Q437 330 428 322T407 313L292 305Q232 175 144 116Q141 114 141 111T145 108Q180 107 204 97T255 68Q260 65 278 53T315 35T355 28Q387 28 412 47T437 97Q437 107 433 119T429 138Q429 152 438 160T458 169Q493 169 493 129Q493 90 468 52T396
-12T287 -37Q249 -37 220 -23T162 15Q156 19 139 33T107 53T79 60Q56 45 40 30T3 -8Q-3 -15 -14 -15Q-28 -15 -41 -5T-55 20Q-55 38 -35 58T16 91T82 104Q111 137 132 183T176 297L95 291Q89 291 84 295T79 305Q79 313 87 323T106 334L189 339L198 366Q241 496
317 562T490 629Q545 629 573 606Z" />
<glyph unicode="&#xa4;" glyph-name="currency" horiz-adv-x="492" d="M512 476T522 464T530 440Q529 438 525 431L460 384Q473 355 473 319Q473 272 451 224T390 139L418 100Q421 96 421 91Q421 81 409 71T385 62Q378 63 374 69L346 107Q285 70 209 70Q142 70
102 110L40 63Q37 61 34 61T30 61Q21 61 11 72T1 94Q1 102 9 107L73 155Q62 183 62 214Q62 262 84 310T147 394L114 439Q112 443 112 446Q112 455 124 464T147 474Q154 474 158 470L190 426Q252 464 328 464Q391 464 430 428L491 473Q494 476 501 476Q512 476 522
464ZM280 123T324 150T393 219T418 305Q418 350 390 380T311 411Q256 411 212 384T143 315T118 229Q118 184 146 154T225 123Q280 123 324 150Z" />
<glyph unicode="&#xa5;" glyph-name="yen" horiz-adv-x="590" d="M91 -5T94 7Q98 21 130 27Q205 40 226 109L252 192H138Q132 192 128 196T126 206Q128 214 137 223T157 232H265L271 253Q276 267 277 278H165Q160 278 157 281T153 289Q153 297 163 307T184 318H279Q278
322 277 327T274 337L214 556Q206 585 195 599T157 619Q145 622 140 628T136 641Q139 653 164 653Q181 653 221 651Q267 649 293 649Q310 649 338 651Q364 653 378 653Q390 653 396 650T402 641Q400 634 392 630T365 620Q319 608 319 571Q319 567 321 555L361 387Q366
367 369 360T376 352Q381 352 390 361T411 385Q477 463 534 535Q562 572 562 592Q562 613 532 619Q503 628 507 640Q508 646 517 649T539 652L582 651Q595 650 623 650Q643 650 679 652Q707 654 719 654Q743 654 743 644Q743 635 735 630T708 621Q683 616 650 590T591
535L469 398Q458 386 447 373T425 348Q405 326 399 317H507Q513 317 516 312T517 302Q511 292 501 285T479 278H381L366 232H480Q486 232 489 227T490 217Q484 207 474 200T452 192H355L329 109Q323 91 323 78Q323 57 335 45T374 27Q389 24 395 20T398 8Q395 -5
368 -5Q351 -5 332 -4T303 -2Q276 1 247 1Q215 1 185 -2Q174 -3 154 -4T117 -5Q91 -5 94 7Z" />
<glyph unicode="&#xa6;" glyph-name="brokenbar" horiz-adv-x="266" d="M104 269T99 276T94 293V665Q94 678 106 687T132 700T153 705Q160 705 165 700T171 688V298Q171 285 148 277T110 269Q104 269 99 276ZM104 -290T100 -285T95 -272V147Q95 156 107 163T134
176T154 181Q161 181 166 174T172 158V-259Q172 -276 150 -283T110 -290Q104 -290 100 -285Z" />
<glyph unicode="&#xa7;" glyph-name="section" horiz-adv-x="401" d="M11 -148T-5 -141T-21 -121Q-21 -109 -11 -94T12 -67T34 -55Q40 -55 50 -63T66 -76Q82 -89 113 -89Q144 -89 166 -57T189 10Q189 41 174 71T125 152Q101 189 88 220T75 281Q75 342 110 401T202
509Q231 561 281 600T381 640Q410 640 434 629T458 603Q458 592 436 569T401 545Q395 545 386 555T372 570Q353 591 334 591Q304 591 280 566T256 510Q256 461 317 378Q369 309 369 243Q369 119 252 -14Q198 -74 143 -111T35 -148Q11 -148 -5 -141ZM256 51T259
51T265 55Q291 102 298 136Q303 156 303 181Q303 212 293 241T261 304Q230 352 213 385T194 450Q194 453 191 453T185 450Q164 419 154 390T144 325Q144 297 155 270T190 205Q219 160 237 124T256 55Q256 51 259 51Z" />
<glyph unicode="&#xa8;" glyph-name="dieresis" horiz-adv-x="355" d="M166 506T155 519T143 551Q143 580 164 601T213 622Q231 622 242 608T254 574Q254 547 233 527T184 506Q166 506 155 519ZM346 506T335 519T324 551Q324 580 344 601T393 622Q412 622 423
608T435 574Q435 547 414 527T364 506Q346 506 335 519Z" />
<glyph unicode="&#xa9;" glyph-name="copyright" horiz-adv-x="671" d="M289 21T220 62T109 174T68 327Q68 410 109 480T220 591T373 633Q456 633 526 592T638 480T679 327Q679 244 638 174T526 63T372 21Q289 21 220 62ZM444 61T504 97T599 194T634 327Q634 397
599 457T504 552T373 587Q303 587 243 552T148 457T113 327Q113 256 147 195T241 97T372 61Q444 61 504 97ZM337 148T295 172T227 238T202 326Q202 374 229 414T304 476T406 499Q426 499 450 495T493 483Q494 483 498 482T505 477T508 469Q511 452 511 431T511
405Q511 400 507 395T498 391Q489 391 484 406Q476 429 458 442Q435 462 398 462Q348 462 319 425T290 331Q290 269 318 227T402 185Q434 185 455 196T489 233Q492 240 497 244T508 248Q516 246 516 233Q516 211 502 181Q498 175 496 173T485 166Q447 148 386 148Q337
148 295 172Z" />
<glyph unicode="&#xaa;" glyph-name="ordfeminine" horiz-adv-x="313" d="M104 273T88 288T72 323Q72 351 87 367T134 393L217 419Q232 424 236 428T244 444L250 467Q252 473 252 482Q252 506 228 506Q217 506 206 502T188 491Q184 487 183 477T179 462Q176 454
156 447T121 439Q115 439 114 443T115 455Q127 482 158 500Q229 539 271 539Q294 539 308 526T322 492Q322 483 319 472L279 353Q275 342 275 332Q275 316 288 316Q296 316 306 322Q310 326 314 326Q317 326 319 322T321 313Q321 308 304 295Q273 273 251 273Q234
273 226 279T214 293T210 309H207Q204 307 190 297T160 280T125 273Q104 273 88 288ZM179 313T199 325Q207 331 211 344L227 391L228 395Q228 400 224 401T215 401Q177 389 159 376T140 341Q139 331 146 322T164 313Q179 313 199 325ZM37 160T34 164T30 173Q30
180 40 189T59 199H256Q266 199 266 184Q266 176 254 168T230 160H41Q37 160 34 164Z" />
<glyph unicode="&#xab;" glyph-name="guillemotleft" horiz-adv-x="621" d="M279 18T271 24T257 37Q221 74 168 115T71 183Q63 187 60 190T56 200Q56 210 71 215Q244 300 368 383Q373 387 380 390T395 394Q400 394 400 388Q400 384 397 378T390 368Q301 283 179
206Q172 202 172 198Q172 195 178 190Q217 147 245 113T292 42Q295 38 295 31Q295 26 293 22T287 18Q279 18 271 24ZM490 18T482 24T468 37Q432 74 379 115T282 183Q274 187 271 190T267 200Q267 210 282 215Q455 300 579 383Q584 387 591 390T606 394Q611 394
611 388Q611 384 608 378T601 368Q512 283 390 206Q383 202 383 198Q383 195 389 190Q428 147 456 113T503 42Q506 38 506 31Q506 26 504 22T498 18Q490 18 482 24Z" />
<glyph unicode="&#xac;" glyph-name="logicalnot" horiz-adv-x="600" d="M496 43T492 47T488 58V303Q488 320 473 320H60Q54 320 49 324T44 333Q44 348 50 366T71 384H537Q544 384 548 379T552 368V70Q552 55 534 49T501 43Q496 43 492 47Z" />
<glyph unicode="&#xad;" glyph-name="uni00AD" horiz-adv-x="287" d="M35 168Q31 168 28 172T24 181Q24 200 36 215T60 232L83 235Q217 253 260 258H263Q270 258 270 248Q270 231 259 214T233 195L177 187Q137 181 36 168H35Z" />
<glyph unicode="&#xae;" glyph-name="registered" horiz-adv-x="681" d="M295 21T225 62T114 174T73 327Q73 410 114 480T225 591T379 633Q462 633 532 592T643 480T684 327Q684 244 643 174T531 63T378 21Q295 21 225 62ZM449 61T509 97T604 194T639 327Q639
397 604 457T509 552T379 587Q308 587 249 552T154 457T119 327Q119 255 153 194T247 97T378 61Q449 61 509 97ZM478 172T440 215T383 305Q378 319 353 319Q340 319 340 309V230Q340 215 349 209T376 198Q393 192 393 183Q393 178 389 175T379 171Q363 171 341
173Q319 175 307 175Q295 175 277 173Q257 171 241 171Q237 171 232 175T227 183Q227 192 244 198Q259 202 265 208T271 230V430Q271 448 269 455T264 464T246 470Q229 474 229 485Q229 490 233 493T246 495Q253 495 261 494T274 492Q294 490 305 490Q319 490 347
492Q371 495 398 495Q443 495 473 474T503 416Q503 387 486 367T442 336Q438 335 438 332Q438 329 439 327T441 322Q453 292 473 266T514 223T549 206H555Q563 206 563 201Q563 188 548 180T512 172Q478 172 440 215ZM393 349T413 366T434 410Q434 435 417 449T373
464Q354 464 347 458T339 437V368Q339 356 345 353T364 349Q393 349 413 366Z" />
<glyph unicode="&#xaf;" glyph-name="overscore" horiz-adv-x="319" d="M134 534T134 546Q134 560 146 575T171 590H393Q407 590 407 579Q407 565 392 550T364 534H145Q134 534 134 546Z" />
<glyph unicode="&#xb0;" glyph-name="degree" horiz-adv-x="310" d="M221 394T191 413T143 462T125 527Q125 561 142 590T190 636T256 654Q291 654 320 637T367 591T385 529Q385 495 368 464T320 414T256 394Q221 394 191 413ZM288 442T311 466T334 524Q334 558
311 581T256 605Q223 605 200 582T177 524Q177 490 200 466T256 442Q288 442 311 466Z" />
<glyph unicode="&#xb1;" glyph-name="plusminus" horiz-adv-x="593" d="M278 122T274 127T270 137V345Q270 353 264 353H59Q53 353 49 356T44 365Q44 377 50 391T70 405H261Q267 405 268 407T270 415V586Q270 599 284 608T308 618Q314 618 318 613T323 602V414Q323
408 324 407T330 405H533Q540 405 545 401T549 391Q544 374 537 364T517 353H330Q323 353 323 346V148Q323 136 309 129T283 122Q278 122 274 127ZM54 35T49 39T44 48Q44 60 51 74T71 89H532Q540 89 545 85T549 74Q540 35 516 35H60Q54 35 49 39Z" />
<glyph unicode="&#xb2;" glyph-name="uni00B2" horiz-adv-x="299" d="M243 441T202 441Q182 441 101 438Q96 438 96 442Q96 445 98 448T104 454L199 533Q253 578 283 618T314 683Q314 702 302 713T269 724Q250 724 230 713T194 683Q186 675 182 675Q174 675 177
688Q184 708 205 728T255 762T314 776Q348 776 368 758T389 707Q389 681 376 662T347 626T326 604Q309 587 268 556T216 517L197 503L196 502Q196 498 206 498H281Q300 498 321 511T360 545Q365 554 377 554Q381 554 381 550Q381 547 378 542Q346 496 324 451Q318
437 311 437Q243 441 202 441Z" />
<glyph unicode="&#xb3;" glyph-name="uni00B3" horiz-adv-x="290" d="M153 434T137 440T122 459Q124 470 133 483T149 496Q155 496 164 489T180 478Q200 467 213 467Q242 467 265 493T288 550Q288 571 277 584T246 598Q234 598 221 593T205 588Q200 588 197 592T196
600Q204 607 217 612T234 620Q245 623 253 628Q288 645 306 661T324 698Q324 714 315 722T289 730Q270 730 254 723T217 701Q208 694 205 694Q201 694 199 698T199 707Q222 736 256 756T326 776Q356 776 374 761T392 717Q392 690 369 669T309 635Q306 634 306 633T307
631Q331 631 346 613T361 569Q361 535 331 504T257 453T176 434Q153 434 137 440Z" />
<glyph unicode="&#xb4;" glyph-name="acute" horiz-adv-x="213" d="M140 473T140 484Q140 489 144 497L218 647Q234 675 248 675Q259 675 276 661T294 634Q294 624 274 601L177 489Q163 473 151 473Q140 473 140 484Z" />
<glyph unicode="&#xb5;" glyph-name="uni00B5" horiz-adv-x="526" d="M-10 -286T-22 -269T-35 -226Q-35 -189 -23 -141T12 -21L18 0L29 27Q32 34 40 55T54 92L86 206Q137 389 140 397Q148 421 169 421Q188 421 205 414T233 396T242 376Q241 359 226 329T174 237L125
152Q117 133 117 112Q117 91 131 76T167 61Q192 62 224 91T306 187Q342 292 389 401Q398 421 416 421Q430 421 446 413T474 393T484 372Q476 346 431 269T349 145Q346 135 346 124Q346 102 360 89T401 75Q417 75 435 85T475 111Q479 113 485 117T493 122Q497 122
499 119T501 112Q491 75 469 47T420 2T367 -14Q337 -14 322 9T309 68Q311 85 323 117H321Q319 114 295 81T237 17T181 -14Q154 -14 140 3T107 56Q106 58 100 69T87 80Q76 80 64 46Q56 24 48 -21T39 -93Q39 -142 67 -180Q72 -186 81 -196T90 -213Q90 -223 75 -240T40
-272T10 -286Q-10 -286 -22 -269Z" />
<glyph unicode="&#xb6;" glyph-name="paragraph" horiz-adv-x="596" d="M74 -288T37 -258T-1 -179Q-1 -119 36 -81T130 -42Q162 -42 181 -57T200 -99Q200 -127 183 -143T137 -160Q118 -160 95 -143Q91 -141 82 -134T64 -127Q55 -127 49 -139T42 -165Q42 -202 67
-223T133 -244Q190 -244 232 -210T295 -111L356 87Q357 90 357 96Q357 107 348 107Q230 107 161 162T92 314Q92 323 94 345Q104 463 165 529T328 620T574 646Q649 646 686 641Q697 639 697 626Q697 615 692 606T678 596L653 598Q607 604 582 604Q574 604 568 599T558
583L351 -92Q320 -193 267 -240T134 -288Q74 -288 37 -258ZM363 147T367 160L502 584V586Q502 589 497 591T486 593Q456 593 435 582T389 526T335 390Q300 275 300 217Q300 180 313 164T353 147Q363 147 367 160Z" />
<glyph unicode="&#xb7;" glyph-name="middot" horiz-adv-x="220" d="M78 143T63 160T47 199Q47 230 70 253T124 276Q147 276 162 259T177 218Q177 187 154 165T99 143Q78 143 63 160Z" />
<glyph unicode="&#xb8;" glyph-name="cedilla" horiz-adv-x="213" d="M-76 -281T-99 -264T-123 -222Q-123 -192 -100 -192Q-81 -192 -60 -213Q-56 -216 -47 -224T-30 -236T-11 -240Q-1 -240 6 -233T13 -214Q13 -202 7 -193T-7 -176T-19 -165Q-33 -150 -41 -137T-49
-109Q-49 -85 -13 -47T68 17H101Q62 -14 46 -38T29 -79Q29 -88 36 -98T59 -123Q89 -149 89 -171Q89 -191 66 -217T11 -262T-42 -281Q-76 -281 -99 -264Z" />
<glyph unicode="&#xb9;" glyph-name="uni00B9" horiz-adv-x="247" d="M115 437T113 440T112 448Q113 454 117 459T127 465Q153 468 166 475T186 504L240 683L242 695Q242 708 233 715T202 729Q193 732 194 740Q195 753 209 755Q303 768 325 778Q334 781 334 781Q342
781 339 769Q337 764 330 748T315 708L252 505Q248 487 248 485Q248 476 255 472T283 465Q294 462 290 450Q287 438 277 438Q246 438 224 441L198 442Q190 442 170 440Q125 437 119 437Q115 437 113 440Z" />
<glyph unicode="&#xba;" glyph-name="ordmasculine" horiz-adv-x="333" d="M140 275T115 300T89 371Q89 382 90 388Q94 427 117 462T181 519T272 541Q317 541 342 517T368 453Q368 443 367 438Q364 395 343 358T281 298T187 275Q140 275 115 300ZM224 301T245
322T279 374T295 431Q296 438 296 453Q296 480 287 497T260 514Q236 514 214 493T178 441T161 383Q160 378 160 367Q160 339 171 320T201 301Q224 301 245 322ZM43 160T40 164T37 174Q37 181 46 190T65 199H275Q280 199 283 196T286 185Q286 177 274 169T250 160H48Q43
160 40 164Z" />
<glyph unicode="&#xbb;" glyph-name="guillemotright" horiz-adv-x="677" d="M371 394T379 388T393 375Q429 338 482 297T579 229Q587 225 590 222T594 212Q594 202 579 197Q406 112 282 29Q277 25 270 22T255 18Q250 18 250 24Q250 28 253 34T260 44Q349 129
471 206Q478 210 478 214Q478 217 472 222Q433 265 405 299T358 370Q355 374 355 381Q355 386 357 390T363 394Q371 394 379 388ZM160 394T168 388T182 375Q218 338 271 297T368 229Q376 225 379 222T383 212Q383 202 368 197Q195 112 71 29Q66 25 59 22T44 18Q39
18 39 24Q39 28 42 34T49 44Q138 129 260 206Q267 210 267 214Q267 217 261 222Q222 265 194 299T147 370Q144 374 144 381Q144 386 146 390T152 394Q160 394 168 388Z" />
<glyph unicode="&#xbc;" glyph-name="onequarter" horiz-adv-x="647" d="M65 277T63 280T62 288Q63 294 67 299T77 305Q103 308 116 315T136 344L190 523L192 535Q192 548 183 555T152 569Q143 572 144 580Q145 593 159 595Q253 608 275 618Q284 621 284 621Q292
621 289 609Q287 604 280 588T265 548L202 345Q198 327 198 325Q198 316 205 312T233 305Q244 302 240 290Q237 278 227 278Q196 278 174 281L148 282Q140 282 120 280Q75 277 69 277Q65 277 63 280ZM57 -26T53 -22T48 -13Q48 -8 51 -5L657 654Q673 670 698 670Q706
670 711 667T716 658Q716 654 712 650L106 -8Q91 -26 64 -26Q57 -26 53 -22ZM450 -8T453 0L477 82L478 88Q478 95 469 95Q445 95 397 93Q357 91 330 91Q326 91 326 95T328 101Q389 160 510 267L537 289L592 333Q607 346 612 346Q615 346 616 343T616 337L555 137Q553
133 558 133Q599 133 609 134Q615 134 613 129Q613 122 603 110T590 97H553Q547 97 544 96T540 89L520 22Q517 12 492 2T459 -8Q450 -8 453 0ZM487 134Q493 134 495 138L529 247Q529 248 527 248T524 247Q506 231 497 224Q427 164 400 138Q399 137 399 136T400
134H487Z" />
<glyph unicode="&#xbd;" glyph-name="onehalf" horiz-adv-x="680" d="M65 277T63 280T62 288Q63 294 67 299T77 305Q103 308 116 315T136 344L190 523L192 535Q192 548 183 555T152 569Q143 572 144 580Q145 593 159 595Q253 608 275 618Q284 621 284 621Q292
621 289 609Q287 604 280 588T265 548L202 345Q198 327 198 325Q198 316 205 312T233 305Q244 302 240 290Q237 278 227 278Q196 278 174 281L148 282Q140 282 120 280Q75 277 69 277Q65 277 63 280ZM54 -26T50 -22T45 -13Q45 -8 48 -5L654 654Q670 670 695 670Q703
670 708 667T713 658Q713 654 709 650L103 -8Q88 -26 61 -26Q54 -26 50 -22ZM484 -13T443 -13Q423 -13 342 -16Q337 -16 337 -12Q337 -9 339 -6T345 0L440 79Q494 124 524 164T555 229Q555 248 543 259T510 270Q491 270 471 259T435 229Q427 221 423 221Q415 221
418 234Q425 254 446 274T496 308T555 322Q589 322 609 304T630 253Q630 227 617 208T588 172T567 150Q550 133 509 102T457 63L438 49L437 48Q437 44 447 44H522Q541 44 562 57T601 91Q606 100 618 100Q622 100 622 96Q622 93 619 88Q587 42 565 -3Q559 -17 552
-17Q484 -13 443 -13Z" />
<glyph unicode="&#xbe;" glyph-name="threequarters" horiz-adv-x="662" d="M103 274T87 280T72 299Q74 310 83 323T99 336Q105 336 114 329T130 318Q150 307 163 307Q192 307 215 333T238 390Q238 411 227 424T196 438Q184 438 171 433T155 428Q150 428 147 432T146
440Q154 447 167 452T184 460Q195 463 203 468Q238 485 256 501T274 538Q274 554 265 562T239 570Q220 570 204 563T167 541Q158 534 155 534Q151 534 149 538T149 547Q172 576 206 596T276 616Q306 616 324 601T342 557Q342 530 319 509T259 475Q256 474 256 473T257
471Q281 471 296 453T311 409Q311 375 281 344T207 293T126 274Q103 274 87 280ZM77 -26T73 -22T68 -13Q68 -8 71 -5L677 654Q693 670 718 670Q726 670 731 667T736 658Q736 654 732 650L126 -8Q111 -26 84 -26Q77 -26 73 -22ZM465 -8T468 0L492 82L493 88Q493
95 484 95Q460 95 412 93Q372 91 345 91Q341 91 341 95T343 101Q404 160 525 267L552 289L607 333Q622 346 627 346Q630 346 631 343T631 337L570 137Q568 133 573 133Q614 133 624 134Q630 134 628 129Q628 122 618 110T605 97H568Q562 97 559 96T555 89L535 22Q532
12 507 2T474 -8Q465 -8 468 0ZM502 134Q508 134 510 138L544 247Q544 248 542 248T539 247Q521 231 512 224Q442 164 415 138Q414 137 414 136T415 134H502Z" />
<glyph unicode="&#xbf;" glyph-name="questiondown" horiz-adv-x="342" d="M214 307T225 292T246 256T255 217Q255 185 245 163T205 118T116 72Q14 31 14 -42Q14 -74 34 -91T93 -109Q106 -109 118 -104T133 -97Q139 -95 148 -91T165 -86Q178 -86 186 -94T194 -118Q194
-143 171 -160T117 -178Q78 -178 47 -156T-3 -94T-21 -5Q-21 43 2 78T67 134L156 177Q185 190 195 204T206 241Q206 251 204 261T201 276Q195 292 195 299Q195 307 210 307Q214 307 225 292ZM251 497T265 482T279 447Q279 418 259 397T210 376Q188 376 175 391T161
428Q161 456 182 476T232 497Q251 497 265 482Z" />
<glyph unicode="&#xc0;" glyph-name="Agrave" horiz-adv-x="689" d="M-51 -5T-56 -2T-62 10Q-62 17 -54 21T-30 30Q9 40 43 59T102 105Q174 185 235 260T391 452L476 558Q485 568 493 580T505 597Q522 623 528 623Q549 623 561 628T590 648Q603 660 612 667T628
675Q637 675 637 657Q637 648 634 633L532 119Q528 100 528 84Q528 60 539 47T575 28Q593 22 599 19T605 9Q605 -4 574 -4Q563 -4 519 -2Q482 1 442 1L376 0Q357 -1 326 -1Q306 -1 303 12Q302 19 310 25T331 33Q377 41 395 55T424 108L455 228Q458 240 451 246T430
252L304 250Q290 250 282 246T266 232L175 113Q151 82 151 64Q151 53 160 46T185 34Q210 27 210 12Q210 6 202 3T181 -1Q157 -1 143 0L90 1Q68 1 51 0T21 -2Q-12 -5 -39 -5Q-51 -5 -56 -2ZM448 289Q458 289 463 294T472 312L520 531Q522 543 522 546Q522 552 517
552Q509 552 500 541L321 309Q313 299 313 295Q313 288 336 288L448 289ZM645 696T632 704Q617 715 599 725Q534 767 488 801Q480 808 477 812T473 821Q472 830 496 839T534 850H539Q555 850 564 839Q591 805 627 756L653 720Q661 710 661 703Q661 696 653 696Q645
696 632 704Z" />
<glyph unicode="&#xc1;" glyph-name="Aacute" horiz-adv-x="689" d="M-51 -5T-56 -2T-62 10Q-62 17 -54 21T-30 30Q9 40 43 59T102 105Q174 185 235 260T391 452L476 558Q485 568 493 580T505 597Q522 623 528 623Q549 623 561 628T590 648Q603 660 612 667T628
675Q637 675 637 657Q637 648 634 633L532 119Q528 100 528 84Q528 60 539 47T575 28Q593 22 599 19T605 9Q605 -4 574 -4Q563 -4 519 -2Q482 1 442 1L376 0Q357 -1 326 -1Q306 -1 303 12Q302 19 310 25T331 33Q377 41 395 55T424 108L455 228Q458 240 451 246T430
252L304 250Q290 250 282 246T266 232L175 113Q151 82 151 64Q151 53 160 46T185 34Q210 27 210 12Q210 6 202 3T181 -1Q157 -1 143 0L90 1Q68 1 51 0T21 -2Q-12 -5 -39 -5Q-51 -5 -56 -2ZM448 289Q458 289 463 294T472 312L520 531Q522 543 522 546Q522 552 517
552Q509 552 500 541L321 309Q313 299 313 295Q313 288 336 288L448 289ZM572 692T572 699Q572 707 578 716Q618 783 661 841Q671 854 690 854Q705 854 730 846T754 828Q754 819 740 808Q717 788 686 765T644 734L601 702Q589 692 580 692Q572 692 572 699Z" />
<glyph unicode="&#xc2;" glyph-name="Acircumflex" horiz-adv-x="689" d="M-51 -5T-56 -2T-62 10Q-62 17 -54 21T-30 30Q9 40 43 59T102 105Q174 185 235 260T391 452L476 558Q485 568 493 580T505 597Q522 623 528 623Q549 623 561 628T590 648Q603 660 612 667T628
675Q637 675 637 657Q637 648 634 633L532 119Q528 100 528 84Q528 60 539 47T575 28Q593 22 599 19T605 9Q605 -4 574 -4Q563 -4 519 -2Q482 1 442 1L376 0Q357 -1 326 -1Q306 -1 303 12Q302 19 310 25T331 33Q377 41 395 55T424 108L455 228Q458 240 451 246T430
252L304 250Q290 250 282 246T266 232L175 113Q151 82 151 64Q151 53 160 46T185 34Q210 27 210 12Q210 6 202 3T181 -1Q157 -1 143 0L90 1Q68 1 51 0T21 -2Q-12 -5 -39 -5Q-51 -5 -56 -2ZM448 289Q458 289 463 294T472 312L520 531Q522 543 522 546Q522 552 517
552Q509 552 500 541L321 309Q313 299 313 295Q313 288 336 288L448 289ZM468 695T470 706Q470 713 479 719L606 805Q626 819 636 824T655 829Q673 829 694 805L768 719Q773 713 773 706Q773 701 769 698T757 694Q747 694 712 713T654 747Q647 752 641 752Q635
752 628 748Q605 736 552 716T485 695Q468 695 470 706Z" />
<glyph unicode="&#xc3;" glyph-name="Atilde" horiz-adv-x="689" d="M-51 -5T-56 -2T-62 10Q-62 17 -54 21T-30 30Q9 40 43 59T102 105Q174 185 235 260T391 452L476 558Q485 568 493 580T505 597Q522 623 528 623Q549 623 561 628T590 648Q603 660 612 667T628
675Q637 675 637 657Q637 648 634 633L532 119Q528 100 528 84Q528 60 539 47T575 28Q593 22 599 19T605 9Q605 -4 574 -4Q563 -4 519 -2Q482 1 442 1L376 0Q357 -1 326 -1Q306 -1 303 12Q302 19 310 25T331 33Q377 41 395 55T424 108L455 228Q458 240 451 246T430
252L304 250Q290 250 282 246T266 232L175 113Q151 82 151 64Q151 53 160 46T185 34Q210 27 210 12Q210 6 202 3T181 -1Q157 -1 143 0L90 1Q68 1 51 0T21 -2Q-12 -5 -39 -5Q-51 -5 -56 -2ZM448 289Q458 289 463 294T472 312L520 531Q522 543 522 546Q522 552 517
552Q509 552 500 541L321 309Q313 299 313 295Q313 288 336 288L448 289ZM493 692T487 697T481 708Q481 714 497 737T531 779T561 798Q589 798 635 794L656 793Q688 791 706 791Q726 791 743 810Q749 816 755 823T763 830Q770 830 777 825T784 813Q784 809 777
801T768 791Q756 776 724 734Q719 727 710 724T694 720Q688 720 638 724Q555 729 550 729Q543 729 534 725T518 714Q511 707 506 700T498 692Q493 692 487 697Z" />
<glyph unicode="&#xc4;" glyph-name="Adieresis" horiz-adv-x="689" d="M-51 -5T-56 -2T-62 10Q-62 17 -54 21T-30 30Q9 40 43 59T102 105Q174 185 235 260T391 452L476 558Q485 568 493 580T505 597Q522 623 528 623Q549 623 561 628T590 648Q603 660 612 667T628
675Q637 675 637 657Q637 648 634 633L532 119Q528 100 528 84Q528 60 539 47T575 28Q593 22 599 19T605 9Q605 -4 574 -4Q563 -4 519 -2Q482 1 442 1L376 0Q357 -1 326 -1Q306 -1 303 12Q302 19 310 25T331 33Q377 41 395 55T424 108L455 228Q458 240 451 246T430
252L304 250Q290 250 282 246T266 232L175 113Q151 82 151 64Q151 53 160 46T185 34Q210 27 210 12Q210 6 202 3T181 -1Q157 -1 143 0L90 1Q68 1 51 0T21 -2Q-12 -5 -39 -5Q-51 -5 -56 -2ZM448 289Q458 289 463 294T472 312L520 531Q522 543 522 546Q522 552 517
552Q509 552 500 541L321 309Q313 299 313 295Q313 288 336 288L448 289ZM502 696T489 709T475 741Q475 770 495 790T546 811Q564 811 576 796T589 762Q589 736 569 716T520 696Q502 696 489 709ZM702 696T689 709T676 741Q676 770 696 790T746 811Q765 811 777
796T790 762Q790 736 769 716T720 696Q702 696 689 709Z" />
<glyph unicode="&#xc5;" glyph-name="Aring" horiz-adv-x="689" d="M-51 -5T-56 -2T-62 10Q-62 17 -54 21T-30 30Q9 40 43 59T102 105Q174 185 235 260T391 452L476 558Q485 568 493 580T505 597Q522 623 528 623Q549 623 561 628T590 648Q603 660 612 667T628
675Q637 675 637 657Q637 648 634 633L532 119Q528 100 528 84Q528 60 539 47T575 28Q593 22 599 19T605 9Q605 -4 574 -4Q563 -4 519 -2Q482 1 442 1L376 0Q357 -1 326 -1Q306 -1 303 12Q302 19 310 25T331 33Q377 41 395 55T424 108L455 228Q458 240 451 246T430
252L304 250Q290 250 282 246T266 232L175 113Q151 82 151 64Q151 53 160 46T185 34Q210 27 210 12Q210 6 202 3T181 -1Q157 -1 143 0L90 1Q68 1 51 0T21 -2Q-12 -5 -39 -5Q-51 -5 -56 -2ZM448 289Q458 289 463 294T472 312L520 531Q522 543 522 546Q522 552 517
552Q509 552 500 541L321 309Q313 299 313 295Q313 288 336 288L448 289ZM592 699T568 714T544 756Q544 797 576 824T654 851Q685 851 709 835T733 791Q733 749 701 724T623 699Q592 699 568 714ZM657 724T670 742T684 787Q684 802 673 813T646 824Q622 824 608
806T593 760Q593 745 604 735T633 724Q657 724 670 742Z" />
<glyph unicode="&#xc6;" glyph-name="AE" horiz-adv-x="833" d="M-64 -5T-64 5Q-64 13 -56 18T-28 30Q-1 37 32 61T92 118L503 595Q507 601 507 603Q507 610 492 613L425 624Q410 628 410 638Q410 643 417 647T433 652L504 651Q568 649 602 649L750 650Q816 650
870 659Q889 662 901 662Q917 662 916 646Q914 620 908 587T894 529Q889 511 876 511Q871 511 869 513T866 523Q864 574 856 589Q840 617 799 617H690Q676 617 666 607T650 582Q618 510 579 368Q575 350 575 346Q575 332 588 332Q655 332 680 334Q710 338 733 366Q744
377 756 397Q760 402 765 403T774 402V390Q774 375 770 367Q761 346 755 322T743 274Q741 262 735 238Q728 218 719 218Q712 218 709 225T705 241Q705 266 696 280T673 295L577 296Q555 296 545 262Q536 233 526 194L501 108Q496 90 496 77Q496 38 536 38H630Q681
38 714 63Q742 84 771 131Q780 145 791 145Q797 145 799 140T800 129Q782 79 743 11Q740 4 734 0T722 -5Q660 -5 580 -2Q550 -1 508 0T415 1Q387 1 358 -2Q350 -2 331 -3T295 -5Q272 -5 275 7Q279 20 308 26Q347 34 367 49T396 98L444 262Q446 268 446 271Q446
280 430 280H303Q285 280 270 259L154 111Q136 87 136 70Q136 55 148 46T183 31Q208 24 205 11Q201 -1 176 -1Q151 -1 136 0L78 1Q56 1 40 0T14 -2Q-16 -5 -40 -5Q-64 -5 -64 5ZM446 318Q455 318 458 320T465 332L536 569Q540 579 534 579Q532 579 529 576T524
571L333 334Q331 332 329 328T326 322Q326 318 340 318H446Z" />
<glyph unicode="&#xc7;" glyph-name="Ccedilla" horiz-adv-x="643" d="M264 -14T206 19T110 111T72 244Q72 361 129 457T284 609T493 665Q546 665 604 645Q613 642 630 636T659 630Q669 630 682 638Q698 646 707 646Q712 646 715 644T718 637Q718 634 714 628Q695
602 674 556T645 477Q643 468 637 462T625 456Q616 456 612 466T609 490Q612 504 612 518Q612 555 592 580Q574 604 548 618T490 632Q415 632 344 573T228 418T183 216Q183 116 233 68T356 20Q421 20 462 52T547 149Q554 160 559 165T571 170Q582 170 580 148Q576
121 546 56T504 -9Q499 -9 493 -5T483 2Q472 11 457 11Q447 11 412 0Q368 -14 325 -14Q264 -14 206 19ZM214 -281T191 -264T167 -222Q167 -192 190 -192Q209 -192 230 -213Q234 -216 243 -224T260 -236T279 -240Q289 -240 296 -233T303 -214Q303 -202 297 -193T283
-176T271 -165Q257 -150 249 -137T241 -109Q241 -85 277 -47T358 17H391Q352 -14 336 -38T319 -79Q319 -88 326 -98T349 -123Q379 -149 379 -171Q379 -191 356 -217T301 -262T248 -281Q214 -281 191 -264Z" />
<glyph unicode="&#xc8;" glyph-name="Egrave" horiz-adv-x="575" d="M-40 -5T-40 7Q-39 20 -7 26Q39 35 59 50T90 98L228 550Q234 571 234 584Q234 602 222 609T177 623Q153 627 153 639Q153 646 162 650T188 654L228 653Q267 650 311 650H473Q554 650 580 655T609
661Q614 661 618 656T623 645Q623 639 614 612Q598 560 594 527Q593 518 588 513T577 508Q572 508 569 514T565 531Q565 582 553 601T502 620H395Q371 620 359 611T339 575L279 380Q276 370 276 363Q276 350 296 351L408 353Q432 354 448 365T480 397Q487 406 496
415T511 424Q519 424 519 413Q519 406 516 398Q497 359 488 330Q479 303 467 255Q461 231 453 231Q446 231 442 240T438 258Q439 317 403 317L293 319Q275 319 265 313T250 290L200 111Q192 81 192 66Q192 46 203 38T240 29H370Q412 29 450 56Q466 67 480 85T512
130Q516 136 520 141T530 146Q538 146 538 125Q538 111 523 73T493 14Q482 -5 462 -5Q381 -5 286 -2Q252 -1 207 0T109 1Q93 1 74 0T45 -2Q15 -5 -19 -5Q-40 -5 -40 7ZM449 696T436 704Q421 715 403 725Q338 767 292 801Q284 808 281 812T277 821Q276 830 300 839T338
850H343Q359 850 368 839Q395 805 431 756L457 720Q465 710 465 703Q465 696 457 696Q449 696 436 704Z" />
<glyph unicode="&#xc9;" glyph-name="Eacute" horiz-adv-x="575" d="M-40 -5T-40 7Q-39 20 -7 26Q39 35 59 50T90 98L228 550Q234 571 234 584Q234 602 222 609T177 623Q153 627 153 639Q153 646 162 650T188 654L228 653Q267 650 311 650H473Q554 650 580 655T609
661Q614 661 618 656T623 645Q623 639 614 612Q598 560 594 527Q593 518 588 513T577 508Q572 508 569 514T565 531Q565 582 553 601T502 620H395Q371 620 359 611T339 575L279 380Q276 370 276 363Q276 350 296 351L408 353Q432 354 448 365T480 397Q487 406 496
415T511 424Q519 424 519 413Q519 406 516 398Q497 359 488 330Q479 303 467 255Q461 231 453 231Q446 231 442 240T438 258Q439 317 403 317L293 319Q275 319 265 313T250 290L200 111Q192 81 192 66Q192 46 203 38T240 29H370Q412 29 450 56Q466 67 480 85T512
130Q516 136 520 141T530 146Q538 146 538 125Q538 111 523 73T493 14Q482 -5 462 -5Q381 -5 286 -2Q252 -1 207 0T109 1Q93 1 74 0T45 -2Q15 -5 -19 -5Q-40 -5 -40 7ZM376 692T376 699Q376 707 382 716Q422 783 465 841Q475 854 494 854Q509 854 534 846T558 828Q558
819 544 808Q521 788 490 765T448 734L405 702Q393 692 384 692Q376 692 376 699Z" />
<glyph unicode="&#xca;" glyph-name="Ecircumflex" horiz-adv-x="575" d="M-40 -5T-40 7Q-39 20 -7 26Q39 35 59 50T90 98L228 550Q234 571 234 584Q234 602 222 609T177 623Q153 627 153 639Q153 646 162 650T188 654L228 653Q267 650 311 650H473Q554 650 580
655T609 661Q614 661 618 656T623 645Q623 639 614 612Q598 560 594 527Q593 518 588 513T577 508Q572 508 569 514T565 531Q565 582 553 601T502 620H395Q371 620 359 611T339 575L279 380Q276 370 276 363Q276 350 296 351L408 353Q432 354 448 365T480 397Q487
406 496 415T511 424Q519 424 519 413Q519 406 516 398Q497 359 488 330Q479 303 467 255Q461 231 453 231Q446 231 442 240T438 258Q439 317 403 317L293 319Q275 319 265 313T250 290L200 111Q192 81 192 66Q192 46 203 38T240 29H370Q412 29 450 56Q466 67 480
85T512 130Q516 136 520 141T530 146Q538 146 538 125Q538 111 523 73T493 14Q482 -5 462 -5Q381 -5 286 -2Q252 -1 207 0T109 1Q93 1 74 0T45 -2Q15 -5 -19 -5Q-40 -5 -40 7ZM272 695T274 706Q274 713 283 719L410 805Q430 819 440 824T459 829Q477 829 498 805L572
719Q577 713 577 706Q577 701 573 698T561 694Q551 694 516 713T458 747Q451 752 445 752Q439 752 432 748Q409 736 356 716T289 695Q272 695 274 706Z" />
<glyph unicode="&#xcb;" glyph-name="Edieresis" horiz-adv-x="575" d="M-40 -5T-40 7Q-39 20 -7 26Q39 35 59 50T90 98L228 550Q234 571 234 584Q234 602 222 609T177 623Q153 627 153 639Q153 646 162 650T188 654L228 653Q267 650 311 650H473Q554 650 580
655T609 661Q614 661 618 656T623 645Q623 639 614 612Q598 560 594 527Q593 518 588 513T577 508Q572 508 569 514T565 531Q565 582 553 601T502 620H395Q371 620 359 611T339 575L279 380Q276 370 276 363Q276 350 296 351L408 353Q432 354 448 365T480 397Q487
406 496 415T511 424Q519 424 519 413Q519 406 516 398Q497 359 488 330Q479 303 467 255Q461 231 453 231Q446 231 442 240T438 258Q439 317 403 317L293 319Q275 319 265 313T250 290L200 111Q192 81 192 66Q192 46 203 38T240 29H370Q412 29 450 56Q466 67 480
85T512 130Q516 136 520 141T530 146Q538 146 538 125Q538 111 523 73T493 14Q482 -5 462 -5Q381 -5 286 -2Q252 -1 207 0T109 1Q93 1 74 0T45 -2Q15 -5 -19 -5Q-40 -5 -40 7ZM306 696T293 709T279 741Q279 770 299 790T350 811Q368 811 380 796T393 762Q393 736
373 716T324 696Q306 696 293 709ZM506 696T493 709T480 741Q480 770 500 790T550 811Q569 811 581 796T594 762Q594 736 573 716T524 696Q506 696 493 709Z" />
<glyph unicode="&#xcc;" glyph-name="Igrave" horiz-adv-x="368" d="M-28 -4T-28 8Q-27 15 -19 19T6 27Q46 35 67 50T98 98L237 550Q243 570 243 581Q243 597 232 606T195 621Q174 626 174 639Q174 646 182 650T202 654Q228 654 266 652Q302 650 322 650L375 651Q415
653 440 653Q460 653 460 643Q460 627 426 621Q386 613 368 598T339 550L204 111Q197 85 197 74Q197 54 209 44T247 28Q264 24 270 20T274 8Q274 -4 247 -4Q212 -4 180 -1Q142 1 123 1Q101 1 61 -1Q30 -4 -7 -4Q-28 -4 -28 8ZM361 696T348 704Q333 715 315 725Q250
767 204 801Q196 808 193 812T189 821Q188 830 212 839T250 850H255Q271 850 280 839Q307 805 343 756L369 720Q377 710 377 703Q377 696 369 696Q361 696 348 704Z" />
<glyph unicode="&#xcd;" glyph-name="Iacute" horiz-adv-x="368" d="M-28 -4T-28 8Q-27 15 -19 19T6 27Q46 35 67 50T98 98L237 550Q243 570 243 581Q243 597 232 606T195 621Q174 626 174 639Q174 646 182 650T202 654Q228 654 266 652Q302 650 322 650L375 651Q415
653 440 653Q460 653 460 643Q460 627 426 621Q386 613 368 598T339 550L204 111Q197 85 197 74Q197 54 209 44T247 28Q264 24 270 20T274 8Q274 -4 247 -4Q212 -4 180 -1Q142 1 123 1Q101 1 61 -1Q30 -4 -7 -4Q-28 -4 -28 8ZM288 692T288 699Q288 707 294 716Q334
783 377 841Q387 854 406 854Q421 854 446 846T470 828Q470 819 456 808Q433 788 402 765T360 734L317 702Q305 692 296 692Q288 692 288 699Z" />
<glyph unicode="&#xce;" glyph-name="Icircumflex" horiz-adv-x="368" d="M-28 -4T-28 8Q-27 15 -19 19T6 27Q46 35 67 50T98 98L237 550Q243 570 243 581Q243 597 232 606T195 621Q174 626 174 639Q174 646 182 650T202 654Q228 654 266 652Q302 650 322 650L375
651Q415 653 440 653Q460 653 460 643Q460 627 426 621Q386 613 368 598T339 550L204 111Q197 85 197 74Q197 54 209 44T247 28Q264 24 270 20T274 8Q274 -4 247 -4Q212 -4 180 -1Q142 1 123 1Q101 1 61 -1Q30 -4 -7 -4Q-28 -4 -28 8ZM184 695T186 706Q186 713
195 719L322 805Q342 819 352 824T371 829Q389 829 410 805L484 719Q489 713 489 706Q489 701 485 698T473 694Q463 694 428 713T370 747Q363 752 357 752Q351 752 344 748Q321 736 268 716T201 695Q184 695 186 706Z" />
<glyph unicode="&#xcf;" glyph-name="Idieresis" horiz-adv-x="368" d="M-28 -4T-28 8Q-27 15 -19 19T6 27Q46 35 67 50T98 98L237 550Q243 570 243 581Q243 597 232 606T195 621Q174 626 174 639Q174 646 182 650T202 654Q228 654 266 652Q302 650 322 650L375
651Q415 653 440 653Q460 653 460 643Q460 627 426 621Q386 613 368 598T339 550L204 111Q197 85 197 74Q197 54 209 44T247 28Q264 24 270 20T274 8Q274 -4 247 -4Q212 -4 180 -1Q142 1 123 1Q101 1 61 -1Q30 -4 -7 -4Q-28 -4 -28 8ZM218 696T205 709T191 741Q191
770 211 790T262 811Q280 811 292 796T305 762Q305 736 285 716T236 696Q218 696 205 709ZM418 696T405 709T392 741Q392 770 412 790T462 811Q481 811 493 796T506 762Q506 736 485 716T436 696Q418 696 405 709Z" />
<glyph unicode="&#xd0;" glyph-name="Eth" horiz-adv-x="745" d="M531 655T600 622T706 527T744 379Q744 277 688 188T533 46T313 -7Q297 -7 277 -6T237 -4Q170 1 119 1Q101 1 67 -1Q37 -4 0 -4Q-21 -4 -21 8Q-18 24 13 27Q56 31 73 46T102 98L171 313H90Q83 313
81 320T80 335Q83 344 92 350T111 357H185L249 557Q252 566 252 574Q252 589 242 598T212 612T174 621Q151 626 154 641Q154 647 162 650T182 654Q222 654 258 651Q302 649 322 649Q347 649 371 652Q425 655 438 655Q531 655 600 622ZM403 25T476 78T591 218T633
397Q633 509 582 564T440 620Q406 620 389 615T366 601T352 571L286 357H437Q444 357 447 352T447 341Q428 313 406 313H272L217 135Q210 114 210 95Q210 25 316 25Q403 25 476 78Z" />
<glyph unicode="&#xd1;" glyph-name="Ntilde" horiz-adv-x="774" d="M-10 -4T-10 7Q-10 15 -4 19T20 27Q60 35 79 53T109 101L252 521Q262 553 262 570Q262 595 245 608T189 624Q153 627 153 643Q153 651 162 654T180 658Q221 658 262 655Q310 653 329 653Q350
653 358 635L576 167Q579 162 584 156T593 150Q597 150 600 155T606 168Q618 198 661 341T713 528Q716 543 716 556Q716 584 697 598T635 620Q611 624 611 638Q611 644 621 647T642 651Q675 651 702 648Q736 646 751 646Q776 646 799 649Q837 653 869 653Q891 653
891 641Q891 634 881 629T855 621Q828 618 814 611T790 589T767 541Q742 469 693 321T630 126Q625 108 625 100Q625 87 635 67Q639 57 645 51T657 40T665 33Q676 25 680 21T684 9Q684 3 681 2T672 0Q646 0 614 -4Q592 -6 583 -6Q563 -6 552 2T532 30Q509 77 447
222Q412 304 376 385T318 507Q314 515 309 521T299 527Q294 527 288 519T278 497L254 419Q186 202 161 101Q159 87 159 82Q159 60 174 47T222 26Q236 23 242 19T249 9Q249 -4 219 -4Q188 -4 158 -2Q134 0 121 0Q98 0 62 -2Q28 -4 12 -4Q-10 -4 -10 7ZM412 692T406
697T400 708Q400 714 416 737T450 779T480 798Q508 798 554 794L575 793Q607 791 625 791Q645 791 662 810Q668 816 674 823T682 830Q689 830 696 825T703 813Q703 809 696 801T687 791Q675 776 643 734Q638 727 629 724T613 720Q607 720 557 724Q474 729 469 729Q462
729 453 725T437 714Q430 707 425 700T417 692Q412 692 406 697Z" />
<glyph unicode="&#xd2;" glyph-name="Ograve" horiz-adv-x="693" d="M227 -14T176 20T98 112T71 243Q71 345 121 442T261 602T469 664Q541 664 593 630T671 538T698 407Q698 305 648 208T507 48T300 -14Q227 -14 176 20ZM382 19T449 87T555 257T594 453Q594 529
562 581T466 634Q389 634 322 565T215 393T175 197Q175 122 206 71T302 19Q382 19 449 87ZM523 696T510 704Q495 715 477 725Q412 767 366 801Q358 808 355 812T351 821Q350 830 374 839T412 850H417Q433 850 442 839Q469 805 505 756L531 720Q539 710 539 703Q539
696 531 696Q523 696 510 704Z" />
<glyph unicode="&#xd3;" glyph-name="Oacute" horiz-adv-x="693" d="M227 -14T176 20T98 112T71 243Q71 345 121 442T261 602T469 664Q541 664 593 630T671 538T698 407Q698 305 648 208T507 48T300 -14Q227 -14 176 20ZM382 19T449 87T555 257T594 453Q594 529
562 581T466 634Q389 634 322 565T215 393T175 197Q175 122 206 71T302 19Q382 19 449 87ZM450 692T450 699Q450 707 456 716Q496 783 539 841Q549 854 568 854Q583 854 608 846T632 828Q632 819 618 808Q595 788 564 765T522 734L479 702Q467 692 458 692Q450
692 450 699Z" />
<glyph unicode="&#xd4;" glyph-name="Ocircumflex" horiz-adv-x="693" d="M227 -14T176 20T98 112T71 243Q71 345 121 442T261 602T469 664Q541 664 593 630T671 538T698 407Q698 305 648 208T507 48T300 -14Q227 -14 176 20ZM382 19T449 87T555 257T594 453Q594
529 562 581T466 634Q389 634 322 565T215 393T175 197Q175 122 206 71T302 19Q382 19 449 87ZM346 695T348 706Q348 713 357 719L484 805Q504 819 514 824T533 829Q551 829 572 805L646 719Q651 713 651 706Q651 701 647 698T635 694Q625 694 590 713T532 747Q525
752 519 752Q513 752 506 748Q483 736 430 716T363 695Q346 695 348 706Z" />
<glyph unicode="&#xd5;" glyph-name="Otilde" horiz-adv-x="693" d="M227 -14T176 20T98 112T71 243Q71 345 121 442T261 602T469 664Q541 664 593 630T671 538T698 407Q698 305 648 208T507 48T300 -14Q227 -14 176 20ZM382 19T449 87T555 257T594 453Q594 529
562 581T466 634Q389 634 322 565T215 393T175 197Q175 122 206 71T302 19Q382 19 449 87ZM371 692T365 697T359 708Q359 714 375 737T409 779T439 798Q467 798 513 794L534 793Q566 791 584 791Q604 791 621 810Q627 816 633 823T641 830Q648 830 655 825T662
813Q662 809 655 801T646 791Q634 776 602 734Q597 727 588 724T572 720Q566 720 516 724Q433 729 428 729Q421 729 412 725T396 714Q389 707 384 700T376 692Q371 692 365 697Z" />
<glyph unicode="&#xd6;" glyph-name="Odieresis" horiz-adv-x="693" d="M227 -14T176 20T98 112T71 243Q71 345 121 442T261 602T469 664Q541 664 593 630T671 538T698 407Q698 305 648 208T507 48T300 -14Q227 -14 176 20ZM382 19T449 87T555 257T594 453Q594
529 562 581T466 634Q389 634 322 565T215 393T175 197Q175 122 206 71T302 19Q382 19 449 87ZM380 696T367 709T353 741Q353 770 373 790T424 811Q442 811 454 796T467 762Q467 736 447 716T398 696Q380 696 367 709ZM580 696T567 709T554 741Q554 770 574 790T624
811Q643 811 655 796T668 762Q668 736 647 716T598 696Q580 696 567 709Z" />
<glyph unicode="&#xd7;" glyph-name="multiply" horiz-adv-x="591" d="M455 52T450 57L303 205Q298 210 293 204L152 64Q149 60 144 59T134 60Q127 64 119 77T111 101Q111 109 117 115L249 246Q252 249 252 252Q252 255 248 259L124 384Q119 389 119 398Q119 409
125 421T136 439Q139 442 145 442Q152 442 156 438L292 301Q296 298 298 298T302 300L446 443Q451 448 457 448Q463 448 466 444Q472 434 477 423T483 403Q483 395 477 389L345 257Q341 253 345 248L486 108Q491 103 491 94Q491 81 481 67T463 52Q455 52 450 57Z"
/>
<glyph unicode="&#xd8;" glyph-name="Oslash" horiz-adv-x="707" d="M749 624T730 605L668 546Q698 486 698 407Q698 305 648 208T507 48T300 -14Q209 -14 150 39L107 4Q86 -14 80 -14Q69 -14 59 -6T49 11Q49 26 65 42L113 83Q71 149 71 243Q71 345 121 442T261
602T469 664Q523 664 565 646T637 592L699 651Q715 665 726 665Q735 665 742 659T749 643Q749 624 730 605ZM389 634T322 565T215 393T175 197Q175 170 180 140L580 542Q566 584 538 609T466 634Q389 634 322 565ZM382 19T449 87T555 257T594 453Q594 470 593 479L199
83Q215 53 241 36T302 19Q382 19 449 87Z" />
<glyph unicode="&#xd9;" glyph-name="Ugrave" horiz-adv-x="704" d="M215 -14T159 31T102 160Q102 201 117 252L206 544Q211 559 211 577Q211 611 184 619Q156 628 156 640Q156 647 167 650T192 654Q207 654 241 652Q275 650 294 650Q311 650 347 652L390 653Q416
653 413 640Q412 634 405 630T386 623T370 617Q351 611 334 591T305 534L215 238Q204 202 204 168Q204 105 242 72T340 38Q433 38 493 101T584 266L625 398L646 466Q666 530 666 564Q666 589 656 601T623 620Q608 625 601 629T595 640Q595 646 604 649T626 652L681
651Q698 650 728 650Q745 650 771 652Q797 654 808 654Q831 654 831 643Q831 629 794 621Q773 615 761 607T737 578T709 514Q687 455 652 349L620 255Q575 125 503 56T306 -14Q215 -14 159 31ZM546 696T533 704Q518 715 500 725Q435 767 389 801Q381 808 378 812T374
821Q373 830 397 839T435 850H440Q456 850 465 839Q492 805 528 756L554 720Q562 710 562 703Q562 696 554 696Q546 696 533 704Z" />
<glyph unicode="&#xda;" glyph-name="Uacute" horiz-adv-x="704" d="M215 -14T159 31T102 160Q102 201 117 252L206 544Q211 559 211 577Q211 611 184 619Q156 628 156 640Q156 647 167 650T192 654Q207 654 241 652Q275 650 294 650Q311 650 347 652L390 653Q416
653 413 640Q412 634 405 630T386 623T370 617Q351 611 334 591T305 534L215 238Q204 202 204 168Q204 105 242 72T340 38Q433 38 493 101T584 266L625 398L646 466Q666 530 666 564Q666 589 656 601T623 620Q608 625 601 629T595 640Q595 646 604 649T626 652L681
651Q698 650 728 650Q745 650 771 652Q797 654 808 654Q831 654 831 643Q831 629 794 621Q773 615 761 607T737 578T709 514Q687 455 652 349L620 255Q575 125 503 56T306 -14Q215 -14 159 31ZM473 692T473 699Q473 707 479 716Q519 783 562 841Q572 854 591 854Q606
854 631 846T655 828Q655 819 641 808Q618 788 587 765T545 734L502 702Q490 692 481 692Q473 692 473 699Z" />
<glyph unicode="&#xdb;" glyph-name="Ucircumflex" horiz-adv-x="704" d="M215 -14T159 31T102 160Q102 201 117 252L206 544Q211 559 211 577Q211 611 184 619Q156 628 156 640Q156 647 167 650T192 654Q207 654 241 652Q275 650 294 650Q311 650 347 652L390
653Q416 653 413 640Q412 634 405 630T386 623T370 617Q351 611 334 591T305 534L215 238Q204 202 204 168Q204 105 242 72T340 38Q433 38 493 101T584 266L625 398L646 466Q666 530 666 564Q666 589 656 601T623 620Q608 625 601 629T595 640Q595 646 604 649T626
652L681 651Q698 650 728 650Q745 650 771 652Q797 654 808 654Q831 654 831 643Q831 629 794 621Q773 615 761 607T737 578T709 514Q687 455 652 349L620 255Q575 125 503 56T306 -14Q215 -14 159 31ZM369 695T371 706Q371 713 380 719L507 805Q527 819 537 824T556
829Q574 829 595 805L669 719Q674 713 674 706Q674 701 670 698T658 694Q648 694 613 713T555 747Q548 752 542 752Q536 752 529 748Q506 736 453 716T386 695Q369 695 371 706Z" />
<glyph unicode="&#xdc;" glyph-name="Udieresis" horiz-adv-x="704" d="M215 -14T159 31T102 160Q102 201 117 252L206 544Q211 559 211 577Q211 611 184 619Q156 628 156 640Q156 647 167 650T192 654Q207 654 241 652Q275 650 294 650Q311 650 347 652L390 653Q416
653 413 640Q412 634 405 630T386 623T370 617Q351 611 334 591T305 534L215 238Q204 202 204 168Q204 105 242 72T340 38Q433 38 493 101T584 266L625 398L646 466Q666 530 666 564Q666 589 656 601T623 620Q608 625 601 629T595 640Q595 646 604 649T626 652L681
651Q698 650 728 650Q745 650 771 652Q797 654 808 654Q831 654 831 643Q831 629 794 621Q773 615 761 607T737 578T709 514Q687 455 652 349L620 255Q575 125 503 56T306 -14Q215 -14 159 31ZM403 696T390 709T376 741Q376 770 396 790T447 811Q465 811 477 796T490
762Q490 736 470 716T421 696Q403 696 390 709ZM603 696T590 709T577 741Q577 770 597 790T647 811Q666 811 678 796T691 762Q691 736 670 716T621 696Q603 696 590 709Z" />
<glyph unicode="&#xdd;" glyph-name="Yacute" horiz-adv-x="602" d="M98 -5T98 7Q99 20 134 27Q209 40 231 109L279 262Q286 282 286 300Q286 318 278 345L221 550Q212 581 199 597T164 618Q136 624 136 640Q136 653 168 653Q184 653 222 651Q264 649 292 649Q308
649 340 651Q368 653 383 653Q406 653 406 641Q405 627 369 620Q343 615 333 608T322 584Q322 571 326 555L368 388Q377 354 385 354Q390 354 398 362T417 382Q443 411 501 484Q527 518 542 536Q571 571 571 591Q571 602 563 608T537 619Q527 622 520 627T513 639Q513
645 522 648T544 652Q570 652 583 651L628 650Q652 650 688 652Q720 654 730 654Q757 654 754 641Q753 635 748 632T734 626T721 622Q692 613 657 589T599 541Q580 521 497 428L430 354Q410 332 399 311T378 257L333 109Q328 95 328 78Q328 39 379 27Q392 24 397
21T403 10Q403 3 395 -1T373 -5Q356 -5 337 -4T308 -2Q280 1 251 1Q219 1 189 -2Q179 -2 159 -3T122 -5Q98 -5 98 7ZM415 692T415 699Q415 707 421 716Q461 783 504 841Q514 854 533 854Q548 854 573 846T597 828Q597 819 583 808Q560 788 529 765T487 734L444
702Q432 692 423 692Q415 692 415 699Z" />
<glyph unicode="&#xde;" glyph-name="Thorn" horiz-adv-x="574" d="M436 537T485 514T560 447T585 347Q585 284 546 233T440 154T298 125Q280 125 268 129T255 142Q255 152 277 156Q319 161 329 163Q397 179 439 233T482 356Q482 424 446 464T356 504Q335 504
327 494T308 450L200 98Q196 86 196 74Q196 55 209 45T250 27Q262 24 266 21T271 10Q271 -4 244 -4Q208 -4 179 -1Q141 1 123 1Q101 1 61 -1Q30 -4 -7 -4Q-28 -4 -28 8Q-27 15 -19 19T6 27Q46 35 67 50T98 98L237 550Q243 570 243 581Q243 597 232 606T195 621Q174
626 174 639Q174 646 182 650T202 654Q228 654 266 652Q302 650 322 650L375 651Q415 653 440 653Q460 653 460 643Q460 627 426 621Q386 613 368 598T339 550L334 536Q347 537 372 537Q436 537 485 514Z" />
<glyph unicode="&#xdf;" glyph-name="germandbls" horiz-adv-x="539" d="M-186 -289T-186 -231Q-186 -211 -173 -196T-143 -181Q-137 -181 -130 -187T-118 -199T-109 -209Q-95 -224 -83 -232T-55 -241Q-26 -241 -12 -215T18 -120L39 -26L73 128Q106 282 147 395Q202
555 295 630T513 706Q578 706 611 683T644 625Q644 589 608 553T507 468Q487 454 471 441Q465 436 441 418T404 380T392 334Q392 309 430 233Q447 201 455 178T464 132Q464 103 447 77T405 31Q347 -14 284 -14Q251 -14 231 0T210 38Q210 59 219 73T243 88Q256 88
277 65Q291 50 303 42T332 34Q354 34 370 49T387 90Q387 125 357 180Q318 251 318 286Q318 329 344 366T424 445Q464 476 489 498T536 550T558 610Q558 638 538 655T479 673Q425 673 376 634T291 533T233 402Q205 316 178 209T133 5Q119 -68 89 -135T14 -246T-85
-289Q-186 -289 -186 -231Z" />
<glyph unicode="&#xe0;" glyph-name="agrave" horiz-adv-x="509" d="M23 -14T6 1T-12 32Q-12 82 36 155T177 318Q281 416 315 416Q333 416 354 397L365 384Q369 384 371 391Q389 422 388 422Q392 432 404 432Q421 432 438 423T455 403Q455 400 449 383L342 95Q339
86 339 79Q339 64 354 64Q370 64 395 81T440 124Q445 129 448 129Q456 129 456 116Q456 106 441 84T405 44Q374 16 343 1T289 -14Q270 -14 254 0T237 31Q237 41 243 54Q239 47 254 83T285 151Q289 159 288 164T282 163Q195 66 141 26T42 -14Q23 -14 6 1ZM136 64T177
99T268 193Q303 235 324 269T345 321Q345 329 330 342Q311 355 301 355Q284 355 254 337T199 295Q155 251 121 193T87 99Q87 83 95 74T116 64Q136 64 177 99ZM339 473T325 489L228 601Q208 624 208 634Q208 646 225 660T254 675Q268 675 284 647L358 497Q362 489
362 484Q362 473 351 473Q339 473 325 489Z" />
<glyph unicode="&#xe1;" glyph-name="aacute" horiz-adv-x="509" d="M23 -14T6 1T-12 32Q-12 82 36 155T177 318Q281 416 315 416Q333 416 354 397L365 384Q369 384 371 391Q389 422 388 422Q392 432 404 432Q421 432 438 423T455 403Q455 400 449 383L342 95Q339
86 339 79Q339 64 354 64Q370 64 395 81T440 124Q445 129 448 129Q456 129 456 116Q456 106 441 84T405 44Q374 16 343 1T289 -14Q270 -14 254 0T237 31Q237 41 243 54Q239 47 254 83T285 151Q289 159 288 164T282 163Q195 66 141 26T42 -14Q23 -14 6 1ZM136 64T177
99T268 193Q303 235 324 269T345 321Q345 329 330 342Q311 355 301 355Q284 355 254 337T199 295Q155 251 121 193T87 99Q87 83 95 74T116 64Q136 64 177 99ZM329 473T329 484Q329 489 333 497L407 647Q423 675 437 675Q448 675 465 661T483 634Q483 624 463 601L366
489Q352 473 340 473Q329 473 329 484Z" />
<glyph unicode="&#xe2;" glyph-name="acircumflex" horiz-adv-x="509" d="M23 -14T6 1T-12 32Q-12 82 36 155T177 318Q281 416 315 416Q333 416 354 397L365 384Q369 384 371 391Q389 422 388 422Q392 432 404 432Q421 432 438 423T455 403Q455 400 449 383L342
95Q339 86 339 79Q339 64 354 64Q370 64 395 81T440 124Q445 129 448 129Q456 129 456 116Q456 106 441 84T405 44Q374 16 343 1T289 -14Q270 -14 254 0T237 31Q237 41 243 54Q239 47 254 83T285 151Q289 159 288 164T282 163Q195 66 141 26T42 -14Q23 -14 6 1ZM136
64T177 99T268 193Q303 235 324 269T345 321Q345 329 330 342Q311 355 301 355Q284 355 254 337T199 295Q155 251 121 193T87 99Q87 83 95 74T116 64Q136 64 177 99ZM416 658T419 651T429 624Q442 575 456 483L457 477Q455 455 444 455Q432 455 423 477Q407 517
386 562Q383 569 376 562Q353 539 287 476Q262 455 255 455Q251 455 248 458T245 465Q245 474 255 487Q271 510 303 550T358 616Q395 658 409 658Q416 658 419 651Z" />
<glyph unicode="&#xe3;" glyph-name="atilde" horiz-adv-x="509" d="M23 -14T6 1T-12 32Q-12 82 36 155T177 318Q281 416 315 416Q333 416 354 397L365 384Q369 384 371 391Q389 422 388 422Q392 432 404 432Q421 432 438 423T455 403Q455 400 449 383L342 95Q339
86 339 79Q339 64 354 64Q370 64 395 81T440 124Q445 129 448 129Q456 129 456 116Q456 106 441 84T405 44Q374 16 343 1T289 -14Q270 -14 254 0T237 31Q237 41 243 54Q239 47 254 83T285 151Q289 159 288 164T282 163Q195 66 141 26T42 -14Q23 -14 6 1ZM136 64T177
99T268 193Q303 235 324 269T345 321Q345 329 330 342Q311 355 301 355Q284 355 254 337T199 295Q155 251 121 193T87 99Q87 83 95 74T116 64Q136 64 177 99ZM229 468T223 473T217 485Q217 491 235 514T275 557T307 577Q316 577 336 575L364 572Q414 568 424 568Q444
568 459 584Q466 591 473 599T483 608Q490 608 496 603T503 590Q503 587 496 578T484 565Q473 554 457 530Q452 524 449 519T441 509Q436 502 427 499T411 495Q398 495 370 498Q300 503 283 503Q271 503 263 495Q258 489 249 479T236 468Q229 468 223 473Z" />
<glyph unicode="&#xe4;" glyph-name="adieresis" horiz-adv-x="509" d="M23 -14T6 1T-12 32Q-12 82 36 155T177 318Q281 416 315 416Q333 416 354 397L365 384Q369 384 371 391Q389 422 388 422Q392 432 404 432Q421 432 438 423T455 403Q455 400 449 383L342
95Q339 86 339 79Q339 64 354 64Q370 64 395 81T440 124Q445 129 448 129Q456 129 456 116Q456 106 441 84T405 44Q374 16 343 1T289 -14Q270 -14 254 0T237 31Q237 41 243 54Q239 47 254 83T285 151Q289 159 288 164T282 163Q195 66 141 26T42 -14Q23 -14 6 1ZM136
64T177 99T268 193Q303 235 324 269T345 321Q345 329 330 342Q311 355 301 355Q284 355 254 337T199 295Q155 251 121 193T87 99Q87 83 95 74T116 64Q136 64 177 99ZM248 506T237 519T225 551Q225 580 246 601T295 622Q313 622 324 608T336 574Q336 547 315 527T266
506Q248 506 237 519ZM428 506T417 519T406 551Q406 580 426 601T475 622Q494 622 505 608T517 574Q517 547 496 527T446 506Q428 506 417 519Z" />
<glyph unicode="&#xe5;" glyph-name="aring" horiz-adv-x="509" d="M23 -14T6 1T-12 32Q-12 82 36 155T177 318Q281 416 315 416Q333 416 354 397L365 384Q369 384 371 391Q389 422 388 422Q392 432 404 432Q421 432 438 423T455 403Q455 400 449 383L342 95Q339
86 339 79Q339 64 354 64Q370 64 395 81T440 124Q445 129 448 129Q456 129 456 116Q456 106 441 84T405 44Q374 16 343 1T289 -14Q270 -14 254 0T237 31Q237 41 243 54Q239 47 254 83T285 151Q289 159 288 164T282 163Q195 66 141 26T42 -14Q23 -14 6 1ZM136 64T177
99T268 193Q303 235 324 269T345 321Q345 329 330 342Q311 355 301 355Q284 355 254 337T199 295Q155 251 121 193T87 99Q87 83 95 74T116 64Q136 64 177 99ZM323 489T305 506T287 550Q287 580 305 607T351 650T407 666Q435 666 453 650T472 607Q472 574 454 547T407
505T350 489Q323 489 305 506ZM387 520T407 544T427 595Q427 612 417 623T391 634Q368 634 350 611T332 559Q332 542 341 531T365 520Q387 520 407 544Z" />
<glyph unicode="&#xe6;" glyph-name="ae" horiz-adv-x="537" d="M319 221Q312 221 309 212Q302 186 300 171T299 133Q300 96 314 75T355 53Q405 53 449 112Q457 124 465 124Q469 124 472 121T475 112Q475 104 472 99Q443 46 404 16T316 -14Q282 -14 249 17T210
88Q155 33 117 10T41 -14Q23 -14 6 -1T-12 33Q-12 69 14 120T88 226T193 323Q312 412 413 418Q430 421 445 421Q486 421 508 404T530 356Q530 317 494 286T408 237T322 221H319ZM457 374T451 383T431 393Q409 393 385 370T342 314T321 254Q320 250 322 249T327
248Q345 248 377 261T434 299T458 360Q457 374 451 383ZM218 203T243 258T307 354Q263 343 209 300Q158 258 123 198T88 95Q88 64 115 64Q130 64 155 84T211 146Q218 203 243 258Z" />
<glyph unicode="&#xe7;" glyph-name="ccedilla" horiz-adv-x="332" d="M91 -15T68 0T29 40T14 97Q14 168 47 244T140 370T278 421Q308 421 326 409T344 379Q344 361 333 344T310 327Q302 327 298 332T284 354Q264 388 241 388Q211 388 179 345T125 240T103 125Q103
60 159 60Q187 60 207 71T249 105Q260 117 268 117Q277 117 277 105Q277 86 253 57T191 7T115 -15Q91 -15 68 0ZM0 -281T-23 -264T-47 -222Q-47 -192 -24 -192Q-5 -192 16 -213Q20 -216 29 -224T46 -236T65 -240Q75 -240 82 -233T89 -214Q89 -202 83 -193T69 -176T57
-165Q43 -150 35 -137T27 -109Q27 -85 63 -47T144 17H177Q138 -14 122 -38T105 -79Q105 -88 112 -98T135 -123Q165 -149 165 -171Q165 -191 142 -217T87 -262T34 -281Q0 -281 -23 -264Z" />
<glyph unicode="&#xe8;" glyph-name="egrave" horiz-adv-x="355" d="M93 -15T69 1T28 43T11 95Q11 167 48 243T147 370T275 421Q317 421 339 404T362 359Q362 301 298 269T131 216Q125 215 123 214T118 207Q103 158 102 133Q102 97 118 76T164 55Q194 55 217 69T264
108Q274 119 281 119Q291 119 291 109Q291 102 289 99Q222 -15 116 -15Q93 -15 69 1ZM164 247T199 260T261 299T290 360Q290 373 283 382T263 392Q239 392 209 367T156 307T131 250Q131 242 138 244Q164 247 199 260ZM280 473T266 489L169 601Q149 624 149 634Q149
646 166 660T195 675Q209 675 225 647L299 497Q303 489 303 484Q303 473 292 473Q280 473 266 489Z" />
<glyph unicode="&#xe9;" glyph-name="eacute" horiz-adv-x="355" d="M93 -15T69 1T28 43T11 95Q11 167 48 243T147 370T275 421Q317 421 339 404T362 359Q362 301 298 269T131 216Q125 215 123 214T118 207Q103 158 102 133Q102 97 118 76T164 55Q194 55 217 69T264
108Q274 119 281 119Q291 119 291 109Q291 102 289 99Q222 -15 116 -15Q93 -15 69 1ZM164 247T199 260T261 299T290 360Q290 373 283 382T263 392Q239 392 209 367T156 307T131 250Q131 242 138 244Q164 247 199 260ZM270 473T270 484Q270 489 274 497L348 647Q364
675 378 675Q389 675 406 661T424 634Q424 624 404 601L307 489Q293 473 281 473Q270 473 270 484Z" />
<glyph unicode="&#xea;" glyph-name="ecircumflex" horiz-adv-x="355" d="M93 -15T69 1T28 43T11 95Q11 167 48 243T147 370T275 421Q317 421 339 404T362 359Q362 301 298 269T131 216Q125 215 123 214T118 207Q103 158 102 133Q102 97 118 76T164 55Q194 55
217 69T264 108Q274 119 281 119Q291 119 291 109Q291 102 289 99Q222 -15 116 -15Q93 -15 69 1ZM164 247T199 260T261 299T290 360Q290 373 283 382T263 392Q239 392 209 367T156 307T131 250Q131 242 138 244Q164 247 199 260ZM357 658T360 651T370 624Q383 575
397 483L398 477Q396 455 385 455Q373 455 364 477Q348 517 327 562Q324 569 317 562Q294 539 228 476Q203 455 196 455Q192 455 189 458T186 465Q186 474 196 487Q212 510 244 550T299 616Q336 658 350 658Q357 658 360 651Z" />
<glyph unicode="&#xeb;" glyph-name="edieresis" horiz-adv-x="355" d="M93 -15T69 1T28 43T11 95Q11 167 48 243T147 370T275 421Q317 421 339 404T362 359Q362 301 298 269T131 216Q125 215 123 214T118 207Q103 158 102 133Q102 97 118 76T164 55Q194 55 217
69T264 108Q274 119 281 119Q291 119 291 109Q291 102 289 99Q222 -15 116 -15Q93 -15 69 1ZM164 247T199 260T261 299T290 360Q290 373 283 382T263 392Q239 392 209 367T156 307T131 250Q131 242 138 244Q164 247 199 260ZM189 506T178 519T166 551Q166 580 187
601T236 622Q254 622 265 608T277 574Q277 547 256 527T207 506Q189 506 178 519ZM369 506T358 519T347 551Q347 580 367 601T416 622Q435 622 446 608T458 574Q458 547 437 527T387 506Q369 506 358 519Z" />
<glyph unicode="&#xec;" glyph-name="igrave" horiz-adv-x="307" d="M54 -14T40 -1T26 27Q26 36 30 45Q61 110 87 176T119 254Q132 291 143 316L144 320Q144 326 138 326Q129 326 107 315T66 291Q60 288 56 288Q45 288 45 295Q45 306 70 329T134 378T208 419Q214
421 217 421Q232 421 244 407T252 383L134 98Q128 85 128 74Q128 64 141 64Q169 64 248 143Q251 146 252 146Q256 146 258 144T261 137Q261 115 227 79T149 14T73 -14Q54 -14 40 -1ZM237 728T223 744L126 856Q106 879 106 889Q106 901 123 915T152 930Q166 930
182 902L256 752Q260 744 260 739Q260 728 249 728Q237 728 223 744Z" />
<glyph unicode="&#xed;" glyph-name="iacute" horiz-adv-x="307" d="M54 -14T40 -1T26 27Q26 36 30 45Q61 110 87 176T119 254Q132 291 143 316L144 320Q144 326 138 326Q129 326 107 315T66 291Q60 288 56 288Q45 288 45 295Q45 306 70 329T134 378T208 419Q214
421 217 421Q232 421 244 407T252 383L134 98Q128 85 128 74Q128 64 141 64Q169 64 248 143Q251 146 252 146Q256 146 258 144T261 137Q261 115 227 79T149 14T73 -14Q54 -14 40 -1ZM227 472T227 483Q227 488 231 496L305 646Q321 674 335 674Q346 674 363 660T381
633Q381 623 361 600L264 488Q250 472 238 472Q227 472 227 483Z" />
<glyph unicode="&#xee;" glyph-name="icircumflex" horiz-adv-x="307" d="M54 -14T40 -1T26 27Q26 36 30 45Q61 110 87 176T119 254Q132 291 143 316L144 320Q144 326 138 326Q129 326 107 315T66 291Q60 288 56 288Q45 288 45 295Q45 306 70 329T134 378T208
419Q214 421 217 421Q232 421 244 407T252 383L134 98Q128 85 128 74Q128 64 141 64Q169 64 248 143Q251 146 252 146Q256 146 258 144T261 137Q261 115 227 79T149 14T73 -14Q54 -14 40 -1ZM314 913T317 906T327 879Q340 830 354 738L355 732Q353 710 342 710Q330
710 321 732Q305 772 284 817Q281 824 274 817Q251 794 185 731Q160 710 153 710Q149 710 146 713T143 720Q143 729 153 742Q169 765 201 805T256 871Q293 913 307 913Q314 913 317 906Z" />
<glyph unicode="&#xef;" glyph-name="idieresis" horiz-adv-x="307" d="M54 -14T40 -1T26 27Q26 36 30 45Q61 110 87 176T119 254Q132 291 143 316L144 320Q144 326 138 326Q129 326 107 315T66 291Q60 288 56 288Q45 288 45 295Q45 306 70 329T134 378T208 419Q214
421 217 421Q232 421 244 407T252 383L134 98Q128 85 128 74Q128 64 141 64Q169 64 248 143Q251 146 252 146Q256 146 258 144T261 137Q261 115 227 79T149 14T73 -14Q54 -14 40 -1ZM402 761T391 774T379 806Q379 835 400 856T449 877Q467 877 478 863T490 829Q490
802 469 782T420 761Q402 761 391 774ZM582 761T571 774T560 806Q560 835 580 856T629 877Q648 877 659 863T671 829Q671 802 650 782T600 761Q582 761 571 774Z" />
<glyph unicode="&#xf0;" glyph-name="eth" horiz-adv-x="427" d="M121 -14T97 1T57 43T41 106Q41 170 74 244T166 370T299 421Q318 421 334 412Q336 411 340 409T347 407Q351 407 354 422T357 461Q357 510 342 549L209 483Q202 479 195 479Q184 479 184 491Q185
503 191 516T207 535L326 594Q289 661 217 674Q198 678 198 689Q198 699 205 702T228 705Q280 705 322 684T392 623L483 669Q489 672 496 672Q502 672 506 669T511 660Q511 647 503 635T482 616L415 583Q442 524 442 448Q442 341 404 234T299 56T146 -14Q121 -14
97 1ZM197 19T237 73T306 202T334 326Q334 357 325 372T295 388Q261 388 221 335T152 210T122 88Q122 54 131 37T161 19Q197 19 237 73Z" />
<glyph unicode="&#xf1;" glyph-name="ntilde" horiz-adv-x="552" d="M70 -15T57 -1T43 31Q43 39 45 43L155 315Q163 334 163 342Q163 352 153 352Q134 352 116 344T77 310Q74 306 69 306Q61 306 60 314Q59 323 68 340T87 369Q106 392 135 406T201 421Q220 421
232 410T244 381Q244 375 240 363L179 206Q178 205 178 202Q178 198 183 198Q189 198 191 203Q251 306 310 363T421 421Q450 421 467 401T484 349Q484 325 474 301L388 98Q381 84 381 75Q381 64 392 64Q409 64 444 88T493 126Q499 132 502 132Q505 132 508 129T511
122Q511 111 504 100Q461 49 410 18T311 -14Q297 -14 285 -3T272 23Q272 30 274 33L310 112Q372 253 394 309Q403 331 403 349Q403 369 386 371Q355 371 287 283Q265 255 216 177T125 27Q113 6 103 -4T82 -15Q70 -15 57 -1ZM227 468T221 473T215 485Q215 491 233
514T273 557T305 577Q314 577 334 575L362 572Q412 568 422 568Q442 568 457 584Q464 591 471 599T481 608Q488 608 494 603T501 590Q501 587 494 578T482 565Q471 554 455 530Q450 524 447 519T439 509Q434 502 425 499T409 495Q396 495 368 498Q298 503 281 503Q269
503 261 495Q256 489 247 479T234 468Q227 468 221 473Z" />
<glyph unicode="&#xf2;" glyph-name="ograve" horiz-adv-x="408" d="M96 -14T71 3T30 48T14 109Q14 173 48 246T142 370T272 421Q327 421 359 386T392 294Q392 230 358 158T263 36T125 -14Q96 -14 71 3ZM177 19T215 72T280 201T306 334Q306 388 266 388Q232 388
194 337T129 212T102 75Q102 19 142 19Q177 19 215 72ZM298 473T284 489L187 601Q167 624 167 634Q167 646 184 660T213 675Q227 675 243 647L317 497Q321 489 321 484Q321 473 310 473Q298 473 284 489Z" />
<glyph unicode="&#xf3;" glyph-name="oacute" horiz-adv-x="408" d="M96 -14T71 3T30 48T14 109Q14 173 48 246T142 370T272 421Q327 421 359 386T392 294Q392 230 358 158T263 36T125 -14Q96 -14 71 3ZM177 19T215 72T280 201T306 334Q306 388 266 388Q232 388
194 337T129 212T102 75Q102 19 142 19Q177 19 215 72ZM288 473T288 484Q288 489 292 497L366 647Q382 675 396 675Q407 675 424 661T442 634Q442 624 422 601L325 489Q311 473 299 473Q288 473 288 484Z" />
<glyph unicode="&#xf4;" glyph-name="ocircumflex" horiz-adv-x="408" d="M96 -14T71 3T30 48T14 109Q14 173 48 246T142 370T272 421Q327 421 359 386T392 294Q392 230 358 158T263 36T125 -14Q96 -14 71 3ZM177 19T215 72T280 201T306 334Q306 388 266 388Q232
388 194 337T129 212T102 75Q102 19 142 19Q177 19 215 72ZM375 658T378 651T388 624Q401 575 415 483L416 477Q414 455 403 455Q391 455 382 477Q366 517 345 562Q342 569 335 562Q312 539 246 476Q221 455 214 455Q210 455 207 458T204 465Q204 474 214 487Q230
510 262 550T317 616Q354 658 368 658Q375 658 378 651Z" />
<glyph unicode="&#xf5;" glyph-name="otilde" horiz-adv-x="408" d="M96 -14T71 3T30 48T14 109Q14 173 48 246T142 370T272 421Q327 421 359 386T392 294Q392 230 358 158T263 36T125 -14Q96 -14 71 3ZM177 19T215 72T280 201T306 334Q306 388 266 388Q232 388
194 337T129 212T102 75Q102 19 142 19Q177 19 215 72ZM191 468T185 473T179 485Q179 491 197 514T237 557T269 577Q278 577 298 575L326 572Q376 568 386 568Q406 568 421 584Q428 591 435 599T445 608Q452 608 458 603T465 590Q465 587 458 578T446 565Q435 554
419 530Q414 524 411 519T403 509Q398 502 389 499T373 495Q360 495 332 498Q262 503 245 503Q233 503 225 495Q220 489 211 479T198 468Q191 468 185 473Z" />
<glyph unicode="&#xf6;" glyph-name="odieresis" horiz-adv-x="408" d="M96 -14T71 3T30 48T14 109Q14 173 48 246T142 370T272 421Q327 421 359 386T392 294Q392 230 358 158T263 36T125 -14Q96 -14 71 3ZM177 19T215 72T280 201T306 334Q306 388 266 388Q232
388 194 337T129 212T102 75Q102 19 142 19Q177 19 215 72ZM207 506T196 519T184 551Q184 580 205 601T254 622Q272 622 283 608T295 574Q295 547 274 527T225 506Q207 506 196 519ZM387 506T376 519T365 551Q365 580 385 601T434 622Q453 622 464 608T476 574Q476
547 455 527T405 506Q387 506 376 519Z" />
<glyph unicode="&#xf7;" glyph-name="divide" horiz-adv-x="589" d="M292 351T276 367T259 406Q259 429 275 445T314 461Q337 461 353 445T369 406Q369 383 353 367T314 351Q292 351 276 367ZM71 239T67 242T62 250Q62 263 68 277T88 292H549Q555 292 560 289T565
281Q565 266 556 253T533 239H77Q71 239 67 242ZM293 66T277 82T260 121Q260 144 276 160T315 176Q338 176 354 160T370 121Q370 98 354 82T315 66Q293 66 277 82Z" />
<glyph unicode="&#xf8;" glyph-name="oslash" horiz-adv-x="399" d="M428 400Q428 393 425 386T415 374L384 344Q392 320 392 294Q392 230 358 158T263 36T125 -14Q81 -14 46 24L12 -9Q5 -14 -1 -14Q-10 -14 -18 -8T-27 6Q-27 21 -15 31L22 65Q14 87 14 109Q14
173 48 246T142 370T272 421Q331 421 363 381L399 415Q407 421 414 421Q426 420 428 402V400ZM238 388T206 351T147 256T109 139L306 334Q306 388 266 388Q238 388 206 351ZM171 19T203 56T260 152T298 267L102 69Q105 19 142 19Q171 19 203 56Z" />
<glyph unicode="&#xf9;" glyph-name="ugrave" horiz-adv-x="540" d="M65 -14T49 6T32 45Q32 50 34 56L135 294Q143 312 143 322Q143 332 136 332Q128 332 106 316T62 279Q57 274 51 274Q43 274 43 280Q43 293 57 313Q95 362 144 393T225 424Q236 424 247 411T259
385Q259 382 257 376Q215 285 184 214L139 114Q129 92 129 79Q129 66 138 66Q151 66 181 97T265 193Q308 243 350 301T409 389Q427 421 447 421Q463 421 474 405T481 375L364 94Q358 81 358 71Q358 61 367 61Q382 61 417 86T478 138Q480 140 481 140Q485 140 488
137T492 129Q492 116 464 91T411 56Q386 32 357 17T299 2Q289 2 284 3Q276 5 270 14T264 33Q264 37 266 43Q322 161 337 203Q338 206 338 210Q338 215 334 215Q330 215 325 210Q221 90 169 38T84 -14Q65 -14 49 6ZM357 473T343 489L246 601Q226 624 226 634Q226
646 243 660T272 675Q286 675 302 647L376 497Q380 489 380 484Q380 473 369 473Q357 473 343 489Z" />
<glyph unicode="&#xfa;" glyph-name="uacute" horiz-adv-x="540" d="M65 -14T49 6T32 45Q32 50 34 56L135 294Q143 312 143 322Q143 332 136 332Q128 332 106 316T62 279Q57 274 51 274Q43 274 43 280Q43 293 57 313Q95 362 144 393T225 424Q236 424 247 411T259
385Q259 382 257 376Q215 285 184 214L139 114Q129 92 129 79Q129 66 138 66Q151 66 181 97T265 193Q308 243 350 301T409 389Q427 421 447 421Q463 421 474 405T481 375L364 94Q358 81 358 71Q358 61 367 61Q382 61 417 86T478 138Q480 140 481 140Q485 140 488
137T492 129Q492 116 464 91T411 56Q386 32 357 17T299 2Q289 2 284 3Q276 5 270 14T264 33Q264 37 266 43Q322 161 337 203Q338 206 338 210Q338 215 334 215Q330 215 325 210Q221 90 169 38T84 -14Q65 -14 49 6ZM347 473T347 484Q347 489 351 497L425 647Q441
675 455 675Q466 675 483 661T501 634Q501 624 481 601L384 489Q370 473 358 473Q347 473 347 484Z" />
<glyph unicode="&#xfb;" glyph-name="ucircumflex" horiz-adv-x="540" d="M65 -14T49 6T32 45Q32 50 34 56L135 294Q143 312 143 322Q143 332 136 332Q128 332 106 316T62 279Q57 274 51 274Q43 274 43 280Q43 293 57 313Q95 362 144 393T225 424Q236 424 247
411T259 385Q259 382 257 376Q215 285 184 214L139 114Q129 92 129 79Q129 66 138 66Q151 66 181 97T265 193Q308 243 350 301T409 389Q427 421 447 421Q463 421 474 405T481 375L364 94Q358 81 358 71Q358 61 367 61Q382 61 417 86T478 138Q480 140 481 140Q485
140 488 137T492 129Q492 116 464 91T411 56Q386 32 357 17T299 2Q289 2 284 3Q276 5 270 14T264 33Q264 37 266 43Q322 161 337 203Q338 206 338 210Q338 215 334 215Q330 215 325 210Q221 90 169 38T84 -14Q65 -14 49 6ZM434 658T437 651T447 624Q460 575 474
483L475 477Q473 455 462 455Q450 455 441 477Q425 517 404 562Q401 569 394 562Q371 539 305 476Q280 455 273 455Q269 455 266 458T263 465Q263 474 273 487Q289 510 321 550T376 616Q413 658 427 658Q434 658 437 651Z" />
<glyph unicode="&#xfc;" glyph-name="udieresis" horiz-adv-x="540" d="M65 -14T49 6T32 45Q32 50 34 56L135 294Q143 312 143 322Q143 332 136 332Q128 332 106 316T62 279Q57 274 51 274Q43 274 43 280Q43 293 57 313Q95 362 144 393T225 424Q236 424 247 411T259
385Q259 382 257 376Q215 285 184 214L139 114Q129 92 129 79Q129 66 138 66Q151 66 181 97T265 193Q308 243 350 301T409 389Q427 421 447 421Q463 421 474 405T481 375L364 94Q358 81 358 71Q358 61 367 61Q382 61 417 86T478 138Q480 140 481 140Q485 140 488
137T492 129Q492 116 464 91T411 56Q386 32 357 17T299 2Q289 2 284 3Q276 5 270 14T264 33Q264 37 266 43Q322 161 337 203Q338 206 338 210Q338 215 334 215Q330 215 325 210Q221 90 169 38T84 -14Q65 -14 49 6ZM266 506T255 519T243 551Q243 580 264 601T313
622Q331 622 342 608T354 574Q354 547 333 527T284 506Q266 506 255 519ZM446 506T435 519T424 551Q424 580 444 601T493 622Q512 622 523 608T535 574Q535 547 514 527T464 506Q446 506 435 519Z" />
<glyph unicode="&#xfd;" glyph-name="yacute" horiz-adv-x="432" d="M-73 -290T-90 -277T-107 -240Q-107 -218 -93 -200T-60 -182Q-51 -182 -43 -187T-24 -201Q-13 -210 -5 -214T15 -219Q47 -219 82 -181T147 -80Q168 -37 176 18T185 143Q185 214 176 261T153
330T128 352Q115 352 98 329T73 286Q71 278 65 269T54 259Q50 259 48 267T45 287Q45 319 63 350T109 402T162 423Q210 423 232 353Q263 256 263 131Q263 98 262 80V76Q262 63 266 63Q271 63 277 77Q355 225 354 408Q354 414 363 421T378 429Q385 429 395 422T414
403T422 378Q422 286 351 147T163 -130Q104 -201 47 -245T-52 -290Q-73 -290 -90 -277ZM255 473T255 484Q255 489 259 497L333 647Q349 675 363 675Q374 675 391 661T409 634Q409 624 389 601L292 489Q278 473 266 473Q255 473 255 484Z" />
<glyph unicode="&#xfe;" glyph-name="thorn" horiz-adv-x="479" d="M431 421T452 399T474 338Q474 267 427 185T304 47T150 -10Q128 -10 101 0L40 -207L38 -219Q38 -232 49 -239T84 -251Q109 -253 108 -267Q108 -272 101 -275T83 -278Q14 -278 -12 -280L-43 -282Q-91
-286 -119 -286Q-125 -286 -129 -284T-133 -276Q-133 -269 -125 -264T-106 -256Q-79 -250 -67 -243T-49 -215L198 563Q209 598 209 621Q209 628 202 631T179 640Q177 641 164 646T151 656Q151 663 164 668Q187 678 238 692T304 707Q323 707 323 696Q323 680 315
660Q311 645 288 582Q210 362 177 254Q175 249 175 244Q175 242 176 242Q178 242 185 252Q234 325 292 373T401 421Q431 421 452 399ZM334 174T358 231T383 325Q383 354 365 360Q345 364 310 338T242 268Q208 239 170 179T131 89Q131 62 147 44T182 25Q201 25 235
55T300 128Q334 174 358 231Z" />
<glyph unicode="&#xff;" glyph-name="ydieresis" horiz-adv-x="432" d="M-73 -290T-90 -277T-107 -240Q-107 -218 -93 -200T-60 -182Q-51 -182 -43 -187T-24 -201Q-13 -210 -5 -214T15 -219Q47 -219 82 -181T147 -80Q168 -37 176 18T185 143Q185 214 176 261T153
330T128 352Q115 352 98 329T73 286Q71 278 65 269T54 259Q50 259 48 267T45 287Q45 319 63 350T109 402T162 423Q210 423 232 353Q263 256 263 131Q263 98 262 80V76Q262 63 266 63Q271 63 277 77Q355 225 354 408Q354 414 363 421T378 429Q385 429 395 422T414
403T422 378Q422 286 351 147T163 -130Q104 -201 47 -245T-52 -290Q-73 -290 -90 -277ZM174 506T163 519T151 551Q151 580 172 601T221 622Q239 622 250 608T262 574Q262 547 241 527T192 506Q174 506 163 519ZM354 506T343 519T332 551Q332 580 352 601T401 622Q420
622 431 608T443 574Q443 547 422 527T372 506Q354 506 343 519Z" />
<glyph unicode="&#x2013;" glyph-name="endash" horiz-adv-x="557" d="M48 184T45 187T43 196Q49 211 59 225T81 240H506Q513 240 516 236T517 225Q497 184 475 184H54Q48 184 45 187Z" />
<glyph unicode="&#x2014;" glyph-name="emdash" horiz-adv-x="912" d="M44 184T41 187T39 196Q43 208 53 224T76 240H865Q872 240 875 236T876 225Q856 184 834 184H49Q44 184 41 187Z" />
<glyph unicode="&#x2018;" glyph-name="quoteleft" horiz-adv-x="234" d="M335 692T335 683Q335 674 308 664Q265 646 239 617T213 558Q213 544 221 536T245 522Q274 508 274 485Q274 463 255 448T211 432Q180 432 160 452T139 508Q139 554 166 596T236 665T316
692Q335 692 335 683Z" />
<glyph unicode="&#x2019;" glyph-name="quoteright" horiz-adv-x="234" d="M121 432T121 441Q121 450 148 460Q191 478 217 507T243 566Q243 580 235 588T211 602Q182 616 182 639Q182 661 201 676T245 692Q276 692 296 672T317 616Q317 570 290 528T220 459T140
432Q121 432 121 441Z" />
<glyph unicode="&#x201a;" glyph-name="quotesinglbase" horiz-adv-x="234" d="M-56 -140T-56 -131Q-56 -122 -29 -112Q14 -94 40 -65T66 -6Q66 8 58 16T34 30Q5 44 5 67Q5 89 24 104T68 120Q99 120 119 100T140 44Q140 -2 113 -44T43 -113T-37 -140Q-56 -140 -56 -131Z" />
<glyph unicode="&#x201c;" glyph-name="quotedblleft" horiz-adv-x="418" d="M519 693T519 684Q519 675 492 665Q449 647 423 618T397 559Q397 545 405 537T429 523Q458 509 458 486Q458 464 439 449T395 433Q364 433 344 453T323 509Q323 555 350 597T420 666T500
693Q519 693 519 684ZM335 693T335 684Q335 675 308 665Q265 647 239 618T213 559Q213 545 221 537T245 523Q274 509 274 486Q274 464 255 449T211 433Q180 433 160 453T139 509Q139 555 166 597T236 666T316 693Q335 693 335 684Z" />
<glyph unicode="&#x201d;" glyph-name="quotedblright" horiz-adv-x="418" d="M122 433T122 442Q122 451 149 461Q192 479 218 508T244 567Q244 581 236 589T212 603Q183 617 183 640Q183 662 202 677T246 693Q277 693 297 673T318 617Q318 571 291 529T221 460T141
433Q122 433 122 442ZM306 433T306 442Q306 451 333 461Q376 479 402 508T428 567Q428 581 420 589T396 603Q367 617 367 640Q367 662 386 677T430 693Q461 693 481 673T502 617Q502 571 475 529T405 460T325 433Q306 433 306 442Z" />
<glyph unicode="&#x201e;" glyph-name="quotedblbase" horiz-adv-x="418" d="M-56 -140T-56 -131Q-56 -122 -29 -112Q14 -94 40 -65T66 -6Q66 8 58 16T34 30Q5 44 5 67Q5 89 24 104T68 120Q99 120 119 100T140 44Q140 -2 113 -44T43 -113T-37 -140Q-56 -140 -56
-131ZM128 -140T128 -131Q128 -122 155 -112Q198 -94 224 -65T250 -6Q250 8 242 16T218 30Q189 44 189 67Q189 89 208 104T252 120Q283 120 303 100T324 44Q324 -2 297 -44T227 -113T147 -140Q128 -140 128 -131Z" />
<glyph unicode="&#x2022;" glyph-name="bullet" horiz-adv-x="352" d="M152 222T121 256T90 337Q90 379 111 415T169 472T248 494Q295 494 326 459T357 376Q357 334 336 299T277 243T197 222Q152 222 121 256Z" />
<glyph unicode="&#x2039;" glyph-name="guilsinglleft" horiz-adv-x="410" d="M279 18T271 24T257 37Q221 74 168 115T71 183Q63 187 60 190T56 200Q56 210 71 215Q244 300 368 383Q373 387 380 390T395 394Q400 394 400 388Q400 384 397 378T390 368Q301 283
179 206Q172 202 172 198Q172 195 178 190Q217 147 245 113T292 42Q295 38 295 31Q295 26 293 22T287 18Q279 18 271 24Z" />
<glyph unicode="&#x203a;" glyph-name="guilsinglright" horiz-adv-x="410" d="M132 394T140 388T154 375Q190 338 243 297T340 229Q348 225 351 222T355 212Q355 202 340 197Q167 112 43 29Q38 25 31 22T16 18Q11 18 11 24Q11 28 14 34T21 44Q110 129 232 206Q239
210 239 214Q239 217 233 222Q194 265 166 299T119 370Q116 374 116 381Q116 386 118 390T124 394Q132 394 140 388Z" />
</font>
</defs>
</svg>
