<?xml version="1.0" standalone="no"?>
<!DOCTYPE svg PUBLIC "-//W3C//DTD SVG 1.1//EN" "http://www.w3.org/Graphics/SVG/1.1/DTD/svg11.dtd">
<svg xmlns="http://www.w3.org/2000/svg">
<defs >
<font id="EBGaramond" horiz-adv-x="554" ><font-face
    font-family="EB Garamond SemiBold"
    units-per-em="1000"
    panose-1="0 0 7 0 0 0 0 0 0 0"
    ascent="1007"
    descent="-298"
    alphabetic="0" />
<glyph unicode=" " glyph-name="space" horiz-adv-x="225" />
<glyph unicode="!" glyph-name="exclam" horiz-adv-x="297" d="M125 187T125 208Q125 218 128 234Q149 343 190 528L195 550Q205 592 229 620T283 649Q301 649 313 633T326 591Q326 569 315 538Q306 514 266 422T180 234Q157 187 140 187Q125 187 125 208ZM61
-14T45 3T28 42Q28 74 52 98T111 122Q137 122 153 104T169 63Q169 32 144 9T84 -14Q61 -14 45 3Z" />
<glyph unicode="&quot;" glyph-name="quotedbl" horiz-adv-x="376" d="M140 420T140 429Q140 439 143 446Q147 458 150 467T155 484L161 505Q170 532 182 582L191 618Q196 639 227 658Q249 671 261 676T288 681Q300 681 300 664Q300 651 294 637Q278 592 245 541T179
449Q172 439 161 430T145 420Q140 420 140 429ZM291 420T291 429Q291 439 294 446Q298 458 301 467T306 484L312 505Q321 532 333 582L342 618Q347 639 378 658Q400 671 412 676T439 681Q451 681 451 664Q451 651 445 637Q429 592 396 541T330 449Q323 439 312
430T296 420Q291 420 291 429Z" />
<glyph unicode="#" glyph-name="numbersign" horiz-adv-x="468" d="M-20 -92T-23 -87T-24 -77L-23 -72L59 94L0 91Q-8 91 -11 96T-13 108Q-8 135 4 152T33 170L101 173L156 293L92 290Q83 290 79 295T77 307Q82 333 95 350T124 369L197 372L273 528Q283 550 321
550Q330 550 328 534Q327 532 326 531T325 528L250 374L365 379L443 539Q453 561 488 561Q493 561 495 556T495 545L492 539L417 382L475 385Q484 385 488 381T491 368Q487 348 471 328T439 306L378 303L318 182L384 185H386Q394 185 398 180T400 168Q397 149 380
129T348 107L280 104L201 -59Q195 -71 187 -75T163 -79Q157 -79 153 -74T150 -63L151 -59L230 101L114 96L31 -72Q25 -84 14 -88T-14 -92Q-20 -92 -23 -87ZM268 180L326 301L211 296L152 175L268 180Z" />
<glyph unicode="$" glyph-name="dollar" horiz-adv-x="528" d="M603 647T603 635Q603 631 600 626Q585 605 568 566T540 477Q535 450 520 450Q511 450 507 458T503 486Q503 532 487 565T440 616L343 387L362 371Q420 323 443 282T467 192Q467 138 437 91T349 15T215
-14Q188 -14 175 -12L146 -81Q143 -88 134 -92T112 -96Q96 -96 96 -80Q96 -77 98 -71L126 -5Q114 -2 92 6Q59 18 55 18Q42 18 30 11Q27 9 19 5T7 0Q1 0 -7 8T-16 22Q-16 25 -5 52Q11 90 21 119T36 182Q38 197 43 203T59 210Q70 210 73 199T76 155Q76 116 93 83T142
33L248 286Q248 286 246 288Q193 333 169 374T144 473Q144 527 174 570T259 639T381 664Q399 664 407 663L426 707Q430 717 442 722T469 727Q479 727 479 716Q479 709 476 701L456 655L483 648Q491 646 496 644T506 641Q530 633 541 633Q556 633 565 638Q579 647
590 647Q603 647 603 635ZM394 630Q389 631 380 631Q344 631 317 614T275 570T260 516Q260 489 270 468T306 421L394 630ZM345 171T333 194T286 251L189 20Q194 19 204 19Q245 19 277 36T327 81T345 142Q345 171 333 194Z" />
<glyph unicode="%" glyph-name="percent" horiz-adv-x="702" d="M138 263T113 293T87 376Q87 412 101 459Q114 499 141 535T207 593T287 616Q331 616 354 587T378 507Q378 475 365 429Q343 358 293 311T182 263Q138 263 113 293ZM216 292T240 332T282 429Q304
504 304 543Q304 586 277 586Q250 586 225 546T182 450Q159 374 159 336Q159 292 188 292Q216 292 240 332ZM71 -24T66 -19T60 -7Q60 -1 64 3L672 653Q686 670 716 670Q725 670 730 666T736 655Q736 650 732 646L126 -2Q105 -24 79 -24Q71 -24 66 -19ZM434 -17T409
13T383 96Q383 132 397 179Q410 219 437 255T503 313T583 336Q627 336 650 307T674 227Q674 195 661 149Q639 78 589 31T478 -17Q434 -17 409 13ZM512 12T536 52T578 149Q600 224 600 263Q600 306 573 306Q546 306 521 266T478 170Q455 94 455 56Q455 12 484 12Q512
12 536 52Z" />
<glyph unicode="&amp;" glyph-name="ampersand" horiz-adv-x="842" d="M745 438T740 435T739 426Q769 374 769 302Q769 207 724 136T599 25T416 -14Q322 -14 247 19T130 113T87 250Q87 307 105 356T158 441Q144 481 144 530Q144 582 171 625T246 693T348 718Q400
718 430 692T461 620Q461 596 448 582T411 567Q398 567 386 578T374 602Q374 623 361 638T328 653Q273 653 238 618T202 525Q202 499 205 478Q249 504 302 504Q356 503 385 479T414 416Q414 378 383 351T307 324Q267 324 234 343T179 397Q158 358 158 302Q158 245
187 198T281 123T445 94Q532 94 594 124T689 207T721 321Q721 376 690 410T596 444Q561 444 538 423T515 370Q515 351 527 338T561 325Q569 325 574 329T584 339T591 346Q599 356 605 361T623 367Q647 367 659 355T670 323Q670 295 650 276T600 257Q544 257 509
288T473 368Q473 441 522 482T646 524L729 525Q807 525 842 549T878 627Q878 653 862 669T825 685Q814 685 807 680T800 667Q800 653 815 645Q823 641 827 633T832 615Q832 598 818 585T782 571Q756 571 741 588T725 630Q725 665 751 691T824 717Q866 717 893 686T921
598Q921 530 878 485T763 439Q745 438 740 435ZM250 468T213 439Q235 366 305 366Q333 366 350 380T367 419Q367 440 349 454T301 468Q250 468 213 439Z" />
<glyph unicode="&apos;" glyph-name="quotesingle" horiz-adv-x="225" d="M140 420T140 429Q140 439 143 446Q147 458 150 467T155 484L161 505Q170 532 182 582L191 618Q196 639 227 658Q249 671 261 676T288 681Q300 681 300 664Q300 651 294 637Q278 592 245
541T179 449Q172 439 161 430T145 420Q140 420 140 429Z" />
<glyph unicode="(" glyph-name="parenleft" horiz-adv-x="303" d="M95 -215T75 -173Q28 -67 28 73Q28 255 119 419T369 692Q391 706 407 706Q414 706 418 703T423 695Q423 687 409 673Q321 596 253 495T146 279T107 52Q107 -24 115 -72T139 -191V-195Q139 -203
135 -209T124 -215Q95 -215 75 -173Z" />
<glyph unicode=")" glyph-name="parenright" horiz-adv-x="303" d="M232 706T252 664Q299 558 299 418Q299 236 208 72T-42 -201Q-64 -215 -80 -215Q-87 -215 -91 -212T-96 -204Q-96 -196 -82 -182Q6 -105 74 -4T181 212T220 439Q220 515 212 563T188 682V686Q188
694 192 700T203 706Q232 706 252 664Z" />
<glyph unicode="*" glyph-name="asterisk" horiz-adv-x="353" d="M214 364T209 371T203 391Q203 398 204 402L219 459L224 479Q215 479 206 478T187 476L141 472Q128 470 118 476T108 492Q108 502 116 509T135 519Q174 530 211 539Q206 546 191 565T164 603Q156
613 156 625Q156 635 161 641T177 648Q191 648 203 634L256 579Q264 600 287 652Q299 674 314 674Q324 674 330 666T336 646L335 638L313 559Q379 570 398 570Q410 570 418 565T427 549Q427 540 420 532T402 521L326 500Q327 499 343 478Q356 463 373 440Q377 435
380 428T383 415Q383 406 377 400T362 393Q357 393 350 396T337 405Q308 434 308 434Q289 450 281 460Q267 420 250 385Q240 364 225 364Q214 364 209 371Z" />
<glyph unicode="+" glyph-name="plus" horiz-adv-x="595" d="M284 -10T280 -6T276 5V211Q276 220 267 220H60Q54 220 50 224T45 233Q45 246 51 262T71 278H265Q272 278 274 280T276 289V466Q276 479 293 489T323 499Q329 499 333 494T338 480V288Q338 282 340
280T347 278H550Q558 278 564 274T569 262Q566 246 558 233T536 220H347Q342 220 340 218T338 211V17Q338 3 321 -3T289 -10Q284 -10 280 -6Z" />
<glyph unicode="," glyph-name="comma" horiz-adv-x="251" d="M-61 -149T-61 -139Q-61 -125 -33 -118Q9 -104 37 -76T65 -17Q65 6 35 18Q6 30 6 55Q6 81 27 100T77 119Q110 119 132 98T154 40Q154 -6 125 -50T50 -121T-41 -149Q-61 -149 -61 -139Z" />
<glyph unicode="-" glyph-name="hyphen" horiz-adv-x="304" d="M33 166Q28 166 25 170T22 179Q22 200 35 216T60 234Q169 251 276 262H278Q284 262 285 259T287 248Q287 232 275 214T250 194L172 184Q106 174 34 166H33Z" />
<glyph unicode="." glyph-name="period" horiz-adv-x="251" d="M37 -25T20 -7T3 35Q3 70 28 96T89 123Q116 123 132 104T149 59Q149 25 123 0T61 -25Q37 -25 20 -7Z" />
<glyph unicode="/" glyph-name="slash" horiz-adv-x="277" d="M-53 -60T-58 -54T-60 -42L337 646Q344 658 355 661T383 664Q392 663 396 656T397 643L-1 -45Q-8 -56 -18 -58T-45 -61Q-53 -60 -58 -54Z" />
<glyph unicode="0" glyph-name="zero" horiz-adv-x="513" d="M149 -14T113 35T76 167Q76 228 98 302Q125 389 174 464T290 585T429 631Q501 631 537 581T574 450Q574 389 552 317Q525 228 474 152T357 31T220 -14Q149 -14 113 35ZM285 21T336 102T423 299Q458
409 458 496Q458 541 446 567T408 593Q361 593 313 514T228 319Q191 198 191 114Q191 71 202 46T239 21Q285 21 336 102Z" />
<glyph unicode="1" glyph-name="one" horiz-adv-x="513" d="M38 -3T34 0T31 9Q34 24 54 29Q108 41 135 55T172 100L283 459Q287 471 287 482Q287 504 270 514T219 531Q211 533 206 537T202 550Q203 560 213 566T234 573Q325 579 440 632Q455 637 456 637Q462 637
465 634T466 626L458 606Q448 584 439 554L296 93Q294 87 294 77Q294 60 307 52T340 38T369 29Q386 24 383 11Q382 5 376 2T362 -2Q337 -2 279 0Q223 2 204 2Q183 2 127 0Q82 -3 44 -3Q38 -3 34 0Z" />
<glyph unicode="2" glyph-name="two" horiz-adv-x="513" d="M294 1T230 1Q59 1 0 -3Q-7 -3 -7 5Q-7 15 1 23L221 203Q310 277 354 340T399 463Q399 508 377 529T314 550Q247 550 186 477Q181 471 175 465T164 458Q159 458 157 464T156 479Q160 505 191 542T270
605T371 632Q442 632 483 598T525 508Q525 452 490 400T396 297Q363 268 185 131L143 99Q142 98 142 96Q142 92 154 90Q185 86 237 86Q298 86 338 90Q374 93 394 104T440 146Q456 167 473 168H474Q483 168 483 157Q483 152 480 147Q445 95 430 69T403 19Q398 8
390 2T377 -4Q294 1 230 1Z" />
<glyph unicode="3" glyph-name="three" horiz-adv-x="513" d="M54 -38T31 -27T8 5Q8 26 16 39T40 53Q48 53 80 35Q117 10 149 10Q197 10 235 39T295 114T317 212Q317 249 301 271T251 294Q222 294 182 275L174 273Q162 273 162 285Q162 310 216 333Q284 363 332
404T381 496Q381 525 364 544T319 564Q282 564 254 545T201 489Q190 473 182 473Q176 473 169 484T161 504Q161 520 192 551T271 605T371 629Q430 629 465 600T501 527Q501 478 450 434T329 359Q326 357 325 355T328 352Q379 349 416 317T453 234Q453 176 406 119T285
19Q184 -38 97 -38Q54 -38 31 -27Z" />
<glyph unicode="4" glyph-name="four" horiz-adv-x="513" d="M385 -3T381 0T377 9Q382 26 401 29Q447 36 466 48T494 88L514 154Q515 156 515 159Q515 168 503 168Q470 168 390 164Q314 160 273 160Q268 160 267 166T269 177L288 195Q301 206 313 220L678 609Q690
622 704 632T728 642H751Q753 642 753 640Q753 635 742 624L392 250Q386 244 386 241T393 238H531Q534 238 537 240T542 245L587 390Q592 406 596 411T610 421Q633 431 658 435T699 439Q714 439 714 423Q714 413 709 393T701 367L661 240Q660 238 661 236T664 233Q680
232 699 232Q710 232 756 234Q761 234 763 232T765 226Q760 212 746 190T725 167L679 168Q660 168 652 167Q644 165 640 163T635 155L616 92Q611 75 611 67Q611 52 623 44T665 29Q673 26 676 23T677 11Q676 5 670 2T656 -2Q631 -2 587 0Q545 2 526 2Q504 2 460
0Q426 -3 390 -3Q385 -3 381 0Z" />
<glyph unicode="5" glyph-name="five" horiz-adv-x="513" d="M39 -38T25 -22T10 14Q10 26 14 34T26 43Q38 43 57 30Q76 18 86 14Q107 5 137 5Q184 5 227 24T297 81T325 175Q325 223 293 256T185 327Q161 340 153 347T144 364Q144 373 147 380Q158 414 227 527L240
549Q251 569 265 579T297 593Q338 602 409 613T516 629Q530 629 530 612Q530 601 518 577T486 534T448 512Q426 510 403 509T360 507Q276 503 263 501Q254 500 240 482T219 450Q218 447 218 443Q218 436 225 435Q327 395 384 348T442 232Q442 157 388 95T248 -2T69
-38Q39 -38 25 -22Z" />
<glyph unicode="6" glyph-name="six" horiz-adv-x="513" d="M131 -14T90 28T49 141Q49 250 128 360T329 550T570 651Q575 652 584 652Q605 652 605 643Q605 636 601 632T582 624Q492 596 394 514T231 330T165 143Q165 26 249 26Q282 26 310 48T353 107T368 191Q368
227 349 247T302 268Q281 268 253 254Q245 250 240 250Q235 250 235 254Q235 262 247 274Q272 302 308 321T373 340Q421 340 451 309T482 227Q482 171 446 115T347 22T215 -14Q131 -14 90 28Z" />
<glyph unicode="7" glyph-name="seven" horiz-adv-x="513" d="M60 -30T53 -22T47 0Q48 6 64 23T86 47L477 503Q481 507 481 511Q481 515 471 515H258Q232 515 213 507T175 477Q167 468 155 459T131 450Q121 450 121 460Q121 470 131 487L143 510Q157 536 169 562T188
607Q193 622 210 622Q285 616 289 616Q331 615 440 615Q578 615 613 619Q618 619 622 612T624 600Q619 590 589 557L568 533L102 0Q98 -4 87 -17T72 -30Q60 -30 53 -22Z" />
<glyph unicode="8" glyph-name="eight" horiz-adv-x="513" d="M122 -13T80 25T36 119Q36 184 79 224T224 306Q231 309 231 312Q231 314 229 317T224 322L207 344Q179 382 167 405T154 456Q154 496 185 536T269 603T379 629Q424 629 457 614T506 573T524 519Q524
441 405 371Q389 363 365 349Q354 344 354 339Q354 336 361 330Q410 276 430 242T451 164Q451 119 417 78T323 12T196 -13Q122 -13 80 25ZM380 394T403 440T427 526Q427 559 411 578T359 597Q318 597 289 566T260 491Q260 435 321 369Q327 363 332 363Q337 363
342 367Q380 394 403 440ZM262 21T296 53T331 141Q331 173 315 205T266 277Q263 281 260 284T253 287Q249 287 239 280Q180 239 158 202T136 109Q137 75 157 48T211 21Q262 21 296 53Z" />
<glyph unicode="9" glyph-name="nine" horiz-adv-x="514" d="M32 -22Q21 -22 15 -19T8 -11Q8 -3 13 1T34 9Q123 22 220 96T381 276T445 480Q445 528 424 558T365 589Q333 589 306 567T262 509T246 433Q246 397 266 373T312 349Q325 349 334 351T353 358T367 364Q384
371 384 362Q384 359 381 354T374 344Q355 324 334 310Q314 297 290 287T245 277Q196 277 165 306T134 386Q134 437 175 494T282 590T414 629Q454 629 485 607T534 547T552 465Q552 371 475 260T278 68T42 -21L32 -22Z" />
<glyph unicode=":" glyph-name="colon" horiz-adv-x="251" d="M122 251T105 269T88 311Q88 346 113 372T174 399Q201 399 217 380T234 335Q234 301 208 276T146 251Q122 251 105 269ZM37 -25T20 -7T3 35Q3 70 28 96T89 123Q116 123 132 104T149 59Q149 25 123
0T61 -25Q37 -25 20 -7Z" />
<glyph unicode=";" glyph-name="semicolon" horiz-adv-x="251" d="M-61 -149T-61 -139Q-61 -125 -33 -118Q9 -104 37 -76T65 -17Q65 6 35 18Q6 30 6 55Q6 81 27 100T77 119Q110 119 132 98T154 40Q154 -6 125 -50T50 -121T-41 -149Q-61 -149 -61 -139ZM122 251T105
269T88 311Q88 346 113 372T174 399Q201 399 217 380T234 335Q234 301 208 276T146 251Q122 251 105 269Z" />
<glyph unicode="&lt;" glyph-name="less" horiz-adv-x="596" d="M89 191Q43 213 43 221Q43 230 54 247T80 270L506 467Q512 470 517 470Q524 470 528 465T532 450Q532 436 523 423T497 402L135 237Q132 235 132 233T135 229L500 64Q515 58 523 44T532 17Q532 6
525 1T511 -2L89 191Z" />
<glyph unicode="=" glyph-name="equal" horiz-adv-x="619" d="M66 315T62 319T57 328Q57 340 63 355T83 370H574Q581 370 587 366T593 356Q593 344 583 330T561 315H72Q66 315 62 319ZM66 138T62 142T57 150Q57 163 63 177T83 192H574Q582 192 587 188T593 178Q593
165 583 152T561 138H72Q66 138 62 142Z" />
<glyph unicode="&gt;" glyph-name="greater" horiz-adv-x="596" d="M79 0T73 0Q58 0 58 21Q58 34 67 47T92 67L454 232Q458 233 458 235T454 240L89 405Q74 411 66 426T57 454Q57 461 61 467T72 473L77 471L499 276Q546 255 546 246Q546 237 535 220T508 196L82
2Q79 0 73 0Z" />
<glyph unicode="?" glyph-name="question" horiz-adv-x="364" d="M154 177T142 191T119 225T109 264Q109 299 120 324T163 372T257 418Q364 455 364 523Q364 554 345 571T287 588Q273 588 259 581T241 572Q238 571 227 566T206 560Q191 560 182 569T172 597Q172
624 197 642T256 661Q296 661 329 638T382 574T402 480Q402 435 376 398T307 342L215 302Q188 289 178 277T168 243Q168 231 172 211Q173 206 175 198T178 186Q178 177 160 177Q154 177 142 191ZM111 -14T96 2T81 40Q81 72 103 95T157 118Q181 118 196 101T211
61Q211 31 188 9T132 -14Q111 -14 96 2Z" />
<glyph unicode="@" glyph-name="at" horiz-adv-x="782" d="M213 -149T150 -119T53 -35T19 88Q19 199 84 300T260 464T499 527Q576 527 636 496T729 414T763 306Q763 238 725 173T624 68T486 27Q456 27 445 42T433 76Q433 87 429 87Q428 87 417 80Q351 31 289 31Q238
31 209 59T180 131Q180 191 218 247T323 339T469 375Q506 375 534 367L562 359Q568 359 580 370T597 381Q604 381 617 378T629 371Q600 331 579 286L507 137Q498 119 498 106Q498 85 523 85Q571 85 611 115T675 195T698 299Q698 377 640 426T478 476Q385 476 294
426T145 292T87 112Q87 13 150 -41T323 -96Q458 -96 562 -27Q588 -12 597 -12Q603 -12 607 -16T610 -28Q608 -44 561 -73T443 -126T299 -149Q213 -149 150 -119ZM362 78T398 104Q411 114 420 124T439 155L493 265Q503 288 503 301Q504 319 489 327T439 336Q392
336 354 307T294 235T271 150Q271 118 288 98T331 78Q362 78 398 104Z" />
<glyph unicode="A" glyph-name="A" horiz-adv-x="717" d="M-64 -5T-64 8Q-64 18 -57 23T-34 32Q4 41 40 59T98 103Q216 235 408 467L476 549Q490 565 510 596Q512 600 518 608T527 620T534 624Q577 624 609 646Q623 657 634 665T653 674Q664 674 664 650Q664 638
661 623L560 117Q557 102 557 90Q557 66 569 52T610 30Q626 25 632 22T639 10Q639 4 630 1T608 -3Q593 -3 545 -1Q505 2 466 2Q446 2 396 0Q350 -2 334 -2Q313 -2 313 12Q312 20 320 25T340 33Q383 42 401 56T428 104L459 224Q460 226 460 230Q460 246 439 246L300
245Q280 245 266 228L186 123Q159 89 159 68Q159 44 199 34Q224 26 224 12Q223 6 214 2T193 -2L146 -1Q110 1 90 1Q70 1 53 0T22 -2Q-13 -5 -41 -5Q-64 -5 -64 8ZM454 287Q464 287 468 291T476 306L523 525Q528 544 521 544Q518 544 514 542T506 535L325 307Q317
297 317 293Q317 287 338 287H454Z" />
<glyph unicode="B" glyph-name="B" horiz-adv-x="609" d="M-35 -5T-35 7Q-35 14 -27 19T-4 28Q35 38 54 52T83 97L223 550Q229 568 229 580Q229 596 218 604T183 619Q172 622 167 625T162 635Q162 643 170 648T191 653Q219 653 253 649Q260 649 274 648T302 646Q320
646 358 650Q400 654 429 654Q522 654 570 620T618 526Q618 485 592 451T524 395T436 364Q430 363 429 360T433 354Q495 332 528 295T562 195Q562 97 477 47T256 -4Q217 -4 182 -1Q140 1 119 1Q86 1 53 -2Q41 -3 24 -4T-16 -5Q-35 -5 -35 7ZM355 366T405 382Q449
408 475 446T502 533Q502 571 476 598T408 626Q387 626 377 620T361 598L300 388Q299 385 299 380Q299 366 322 366Q355 366 405 382ZM304 29T343 57T407 129T432 219Q432 273 402 304T314 336Q297 336 289 331T276 314L212 103Q208 87 208 78Q208 61 217 50Q235
26 262 26Q304 29 343 57Z" />
<glyph unicode="C" glyph-name="C" horiz-adv-x="654" d="M256 -14T197 19T102 113T66 247Q66 364 125 459T283 609T500 664Q556 664 610 645Q616 643 634 637T665 631Q676 631 689 637Q707 647 716 647Q727 647 727 637Q727 631 723 626Q705 602 683 553T651
468Q646 446 630 446Q621 446 617 457T614 486Q615 493 615 507Q615 547 595 575Q578 600 553 615T498 630Q419 630 350 567T240 403T198 201Q198 110 242 67T355 23Q417 23 463 57T556 157Q559 160 563 167T572 177T581 181Q588 181 591 175T593 157Q585 120 555
56T514 -9Q506 -9 500 -5T491 2Q478 11 460 11Q450 11 434 6T410 -1Q362 -14 321 -14Q256 -14 197 19Z" />
<glyph unicode="D" glyph-name="D" horiz-adv-x="739" d="M269 -7T207 -2Q135 2 114 2Q86 2 54 -1Q43 -2 21 -3T-17 -4Q-26 -4 -31 -1T-35 9Q-32 25 -5 30Q37 35 54 49T83 98L228 555Q231 566 231 574Q231 594 215 603T163 620Q143 624 146 641Q147 647 155 650T172
654Q199 654 249 652Q297 650 315 650Q332 650 366 652Q408 654 444 654Q536 654 603 620T707 524T743 381Q743 279 686 190T529 47T309 -7Q269 -7 207 -2ZM390 27T458 81T568 221T609 399Q609 511 564 564T438 618Q396 618 381 608T357 572L221 129Q215 110 215
95Q215 60 241 44T311 27Q390 27 458 81Z" />
<glyph unicode="E" glyph-name="E" horiz-adv-x="574" d="M-47 -5T-47 7Q-47 14 -39 19T-16 28Q27 38 45 52T74 97L213 550Q219 570 219 582Q219 599 208 607T167 621Q143 626 146 640Q148 654 184 654L228 652Q303 649 307 649L471 650Q544 650 573 656T607 662Q612
662 617 657T622 644Q622 635 613 603Q597 548 595 521Q594 511 589 506T578 501Q573 501 569 506T564 522Q562 577 549 597T498 618H405Q381 618 367 606T343 559L289 379Q287 374 287 366Q287 352 306 352L408 354Q432 354 449 367T483 404Q490 414 498 421T513
428Q521 428 521 418Q521 411 517 403Q502 371 488 330Q477 295 468 251Q462 227 451 227Q444 227 440 235T436 252Q439 315 402 315L297 316Q283 316 274 310T260 289L209 112Q203 88 203 73Q203 52 215 43T254 33H364Q404 33 444 59Q461 71 476 91T511 142Q513
144 516 148T522 155T529 157Q539 157 539 135Q539 120 522 78T489 12Q479 -4 459 -4L319 -2Q175 0 105 0Q72 0 39 -3Q-7 -5 -28 -5Q-47 -5 -47 7Z" />
<glyph unicode="F" glyph-name="F" horiz-adv-x="527" d="M-33 -4T-30 9Q-27 24 0 30Q40 38 57 51T85 98L224 550Q230 568 230 580Q230 597 220 605T185 619Q159 625 163 640Q164 647 172 650T194 654L244 652Q292 650 318 650H477Q544 650 581 656T626 663Q644
663 640 647Q640 646 635 624L628 600Q612 555 606 517Q605 509 601 504T590 498Q578 498 578 518Q578 570 563 591Q546 616 509 617H417Q396 618 382 607T361 578Q354 559 299 379Q297 373 297 369Q297 350 327 350L403 351Q458 352 491 401Q497 409 504 414T517
420Q521 420 523 417T526 410Q526 407 524 401Q507 360 497 329T478 260Q472 237 461 237Q454 237 450 244T446 260Q446 289 437 301T410 314Q390 315 311 315Q277 315 268 286L215 105Q210 85 210 74Q210 53 225 44T277 30Q287 28 291 25T295 15Q295 -3 270 -3Q231
-3 192 0Q142 2 125 2Q94 2 59 -1Q47 -2 29 -3T-12 -4Q-33 -4 -30 9Z" />
<glyph unicode="G" glyph-name="G" horiz-adv-x="713" d="M272 -14T207 16T106 105T69 245Q69 272 76 314Q90 411 150 491T307 617T517 664Q547 664 570 659T621 644Q627 642 643 636T673 630Q684 630 698 637Q713 647 724 647Q735 647 735 637Q735 631 731 626Q713
602 692 555T660 472Q655 449 639 449Q621 449 621 474Q621 482 622 486Q624 504 624 512Q624 554 604 583Q590 604 564 617T505 631Q434 631 371 586T262 459T197 271Q192 243 192 221Q192 162 216 116T282 45T373 19Q412 19 439 42T477 102L508 212Q510 222 510
226Q510 244 492 251Q481 255 437 265Q413 272 413 282Q413 289 421 294T442 299Q466 299 514 295Q562 291 583 291Q599 291 631 295Q669 299 698 299Q705 299 709 296T714 287Q714 269 686 264Q659 258 646 248T622 217Q609 192 596 155T583 106Q583 96 587 88T601
69Q592 49 548 30T449 -2T355 -14Q272 -14 207 16Z" />
<glyph unicode="H" glyph-name="H" horiz-adv-x="770" d="M-26 -4T-30 -1T-34 9Q-33 17 -26 21T-5 30Q31 39 46 49T70 86L215 551Q222 576 222 585Q222 599 213 606T180 620Q160 624 163 641Q164 647 172 650T189 654Q215 654 255 652Q293 650 310 650Q327 650
369 652Q417 654 441 654Q460 654 458 640Q456 632 449 628T427 620Q386 610 368 595T341 550L283 362V358Q283 350 294 350H570Q581 350 585 364L642 551Q647 568 647 578Q647 593 637 602T600 620Q589 623 585 627T583 640Q584 647 591 650T608 654Q632 654 678
652Q722 650 740 650Q756 650 792 652Q834 654 859 654Q868 654 872 651T876 641Q873 625 846 620Q810 612 795 598T770 551L627 90Q623 77 623 66Q623 51 632 43T665 30Q676 27 680 22T683 9Q682 3 674 0T657 -4Q623 -4 593 -1Q555 1 536 1Q519 1 475 -1Q429 -3
404 -3Q386 -3 387 10Q388 18 395 22T418 30Q455 38 474 53T503 98L562 290Q565 296 565 300Q565 306 558 306H278Q267 306 262 292L204 101Q199 83 199 74Q199 57 210 48T250 30Q261 27 265 23T268 10Q265 -3 243 -3Q219 -3 173 -1Q129 1 110 1Q90 1 50 -1Q17
-4 -17 -4Q-26 -4 -30 -1Z" />
<glyph unicode="I" glyph-name="I" horiz-adv-x="372" d="M-25 -4T-30 -1T-34 9Q-31 24 -4 30Q37 38 57 52T86 97L226 551Q231 571 231 580Q231 596 220 604T182 620Q160 624 165 641Q166 647 173 650T191 654Q216 654 260 652Q300 650 321 650Q338 650 382 652Q428
654 453 654Q473 654 470 640Q469 632 462 628T439 620Q397 609 380 596T352 550L221 122Q211 87 211 74Q211 55 221 47T256 32Q275 28 281 23T286 10Q283 -3 261 -3Q237 -3 187 -1Q141 1 121 1Q100 1 56 -1Q20 -4 -16 -4Q-25 -4 -30 -1Z" />
<glyph unicode="J" glyph-name="J" horiz-adv-x="350" d="M-137 -200T-165 -185T-194 -144Q-194 -117 -185 -101T-161 -84Q-152 -84 -142 -91T-120 -109T-104 -123Q-84 -141 -69 -151T-39 -161Q-13 -161 9 -123T60 12L226 551Q231 571 231 581Q231 596 220 605T183
620Q161 624 166 641Q167 647 174 650T192 654Q216 654 260 652Q302 650 322 650Q338 650 378 652Q422 654 448 654Q467 654 464 640Q463 632 456 628T434 620Q394 610 379 597T353 550L212 93Q186 6 156 -41T82 -129Q4 -200 -78 -200Q-137 -200 -165 -185Z" />
<glyph unicode="K" glyph-name="K" horiz-adv-x="741" d="M-20 -6T-27 -2T-34 9Q-30 24 0 30Q39 37 55 51T83 99L222 551Q228 569 228 581Q228 596 217 605T179 620Q161 624 161 637Q161 644 170 649T193 654Q213 654 255 652Q295 650 315 650Q333 650 373 652Q417
654 442 654Q461 654 461 643Q461 628 429 620Q388 610 374 598T349 550L293 367Q292 365 292 361Q292 352 307 352Q340 352 387 396L563 557Q574 567 582 576T591 592Q593 599 584 606T561 616Q538 622 538 636Q538 643 547 647T567 651H634Q664 651 726 653L816
654Q836 654 836 641Q836 634 825 629T799 621Q752 615 713 600T638 557Q530 474 420 370Q411 361 411 355Q411 350 414 345Q503 165 578 85Q598 64 618 53T666 32Q681 28 688 23T696 10Q696 3 687 -1T662 -5Q624 -5 591 -2Q580 -2 556 -1T505 1L458 0Q426 -2 401
-2Q391 -2 385 2T378 12Q378 28 409 33Q436 38 436 56Q436 66 425 88L316 293Q309 307 300 314T285 322Q277 322 273 307L215 103Q209 82 209 69Q209 53 219 45T253 30Q265 27 270 23T276 12Q276 4 266 0T243 -4Q210 -4 170 0Q146 3 122 3Q105 3 67 -1Q14 -6 -10
-6Q-20 -6 -27 -2Z" />
<glyph unicode="L" glyph-name="L" horiz-adv-x="580" d="M-32 -5T-32 7Q-32 14 -24 19T-2 28Q39 38 60 52T91 97L232 555Q238 573 238 585Q238 599 228 606T190 620Q170 624 172 641Q173 647 180 650T198 654Q234 654 267 651Q307 649 327 649Q347 649 395 651Q431
654 467 654Q486 654 484 640Q483 632 475 628T452 621Q409 612 389 599T360 558L232 136Q221 98 221 78Q221 56 232 46T265 36H315Q404 36 451 74Q474 92 491 114T527 170Q535 185 546 185Q551 185 553 181T556 169Q556 147 536 93T499 13Q487 -5 476 -5Q436 -5
316 -3Q216 0 122 0Q89 0 54 -3Q8 -5 -14 -5Q-32 -5 -32 7Z" />
<glyph unicode="M" glyph-name="M" horiz-adv-x="989" d="M363 -14T359 -8T355 10V72Q355 256 342 477Q342 490 335 490Q327 490 318 472Q237 315 176 158Q154 102 154 72Q154 38 186 30Q213 25 211 11Q210 5 200 2T180 -2Q150 -2 122 0L75 1Q66 1 9 -2L-27 -4Q-51
-4 -48 8Q-47 15 -40 18T-14 27Q15 35 34 46T72 82T115 153L294 511Q312 546 312 568Q312 589 293 602T229 624Q212 627 205 631T198 643Q198 658 236 658L319 656Q373 653 418 653Q441 653 447 640T454 596V565L466 199Q468 184 474 184Q479 184 490 195Q557 266
620 344T770 536Q779 546 786 555T800 574L818 604Q834 631 838 637Q847 650 859 650H903Q934 650 974 655Q985 656 998 657T1024 658Q1052 658 1052 644Q1052 626 1003 617Q963 609 946 591T916 528Q868 355 822 123Q819 107 819 93Q819 66 831 51T869 30Q893
25 890 11Q889 5 881 2T863 -2Q840 -2 788 2Q775 3 758 4T720 5Q699 5 657 1Q613 -3 588 -3Q569 -3 569 8Q569 24 600 31Q638 40 655 54T682 100Q724 237 779 460V463Q779 466 777 466Q774 466 768 460L499 148L393 7Q376 -14 368 -14Q363 -14 359 -8Z" />
<glyph unicode="N" glyph-name="N" horiz-adv-x="778" d="M-1 -4T-7 -1T-12 9Q-11 17 -4 21T18 29Q55 38 74 56T106 106L251 517Q261 544 261 566Q261 592 242 605T181 622Q149 625 149 643Q149 650 158 654T178 658Q201 658 259 656Q304 653 345 653Q365 653
377 633L585 179Q587 174 591 169T599 164Q603 164 606 168T612 180Q625 213 660 334T707 514Q711 531 711 550Q711 582 692 597T629 621Q608 624 609 637Q609 643 618 647T638 651Q647 651 707 648Q739 646 749 646Q775 646 800 649Q857 652 869 652Q890 652 890
639Q890 633 880 628T854 620Q828 616 813 608T787 582T763 528Q739 457 703 343T637 138Q631 117 631 105Q631 88 643 68Q651 49 670 34Q675 30 682 24T689 12Q689 5 685 3T673 0Q641 0 607 -4Q601 -5 593 -6T574 -7Q550 -7 538 3T515 38Q498 76 449 192Q438 217
386 340T314 499Q304 515 298 515Q290 515 280 490Q191 234 162 105Q159 92 159 82Q159 61 173 50T221 29Q249 23 245 10Q244 4 236 1T216 -3Q185 -3 155 -1Q133 1 119 1Q109 1 46 -2L9 -4Q-1 -4 -7 -1Z" />
<glyph unicode="O" glyph-name="O" horiz-adv-x="693" d="M227 -14T174 19T93 110T64 242Q64 347 116 444T261 603T469 664Q539 664 592 631T673 540T702 408Q702 303 650 206T505 47T297 -14Q227 -14 174 19ZM372 21T437 92T542 267T581 460Q581 533 552 582T467
632Q395 632 330 560T225 383T185 189Q185 117 213 69T298 21Q372 21 437 92Z" />
<glyph unicode="P" glyph-name="P" horiz-adv-x="605" d="M-12 -4T-18 -1T-24 9Q-24 23 9 30Q49 38 68 52T97 98L235 545Q241 565 241 577Q241 597 228 607T184 622Q171 624 165 629T161 640Q162 646 171 650T192 654L239 653Q281 651 301 651L338 653Q396 657
436 657Q534 657 593 607T652 473Q652 407 613 354T508 270T362 240Q318 240 318 259Q318 265 324 268T341 273Q355 275 387 282Q452 296 491 351T531 477Q531 552 499 586T410 621Q395 621 387 610T365 556L226 104Q221 86 221 77Q221 58 235 48T282 30Q294 27
299 23T305 10Q305 4 296 1T273 -3Q236 -3 198 0Q152 2 135 2Q104 2 69 -1Q57 -2 39 -3T-4 -4Q-12 -4 -18 -1Z" />
<glyph unicode="Q" glyph-name="Q" horiz-adv-x="699" d="M723 -135T732 -135Q736 -135 739 -139T742 -149Q742 -151 740 -159Q729 -186 700 -214T634 -262T559 -281Q510 -281 461 -261T341 -201Q281 -168 238 -151T155 -134Q120 -134 97 -143Q80 -150 76 -153Q58
-162 50 -162Q42 -162 39 -159T35 -148Q35 -131 77 -110T200 -58Q262 -35 293 -19L303 -14H302Q231 -14 177 19T94 110T65 242Q65 347 117 444T261 603T470 664Q540 664 593 631T676 539T705 408Q705 298 641 199T464 29Q407 -7 366 -28T272 -70Q335 -70 447 -130Q516
-167 552 -183T617 -200Q675 -200 712 -150Q723 -135 732 -135ZM355 17Q469 94 526 207T584 460Q584 536 554 581T464 627Q392 627 328 558T224 385T185 189Q185 115 222 66T345 17H355Z" />
<glyph unicode="R" glyph-name="R" horiz-adv-x="734" d="M-10 -4T-15 -1T-19 9Q-16 24 11 30Q51 38 70 52T100 98L239 547Q246 569 246 584Q246 601 234 608T189 620Q161 625 161 639Q161 646 172 650T197 654Q230 654 261 651Q299 649 314 649Q334 649 348 650T373
652Q415 656 445 656Q536 656 588 617T641 508Q641 439 591 391T466 322Q461 321 460 317T460 308Q483 251 536 145L550 116Q568 80 590 61T645 40Q680 38 680 21Q680 7 658 3T576 -2Q515 -2 481 16T432 69Q385 178 359 259Q351 281 342 290T313 299Q299 299 293
295T283 280L228 104Q223 86 223 75Q223 57 235 47T276 30Q288 27 292 23T295 10Q292 -3 270 -3Q233 -3 197 0Q155 2 138 2Q106 2 71 -1Q59 -2 41 -3T-1 -4Q-10 -4 -15 -1ZM388 324T427 346T491 411T516 517Q516 562 489 594T423 626Q409 626 401 621T384 598T365
542L312 362Q309 353 309 346Q309 334 318 329T346 324Q388 324 427 346Z" />
<glyph unicode="S" glyph-name="S" horiz-adv-x="507" d="M135 -14T88 6Q57 18 53 18Q41 18 29 11Q26 9 18 5T6 0Q0 0 -8 8T-16 22Q-16 25 -12 35T-5 53Q28 128 35 182Q37 197 42 203T57 210Q68 210 71 199T74 155Q74 99 105 61T196 23Q257 23 294 56T331 143Q331
180 313 209T237 289Q186 336 162 377T138 473Q138 527 167 570T249 639T366 664Q405 664 464 648Q471 646 476 644T486 641Q508 633 520 633Q534 633 543 638Q557 647 567 647Q573 647 576 644T579 635Q579 629 577 626Q563 607 546 568T519 477Q513 450 499 450Q490
450 487 458T483 486Q483 552 451 590T365 629Q331 629 305 613T264 570T250 516Q250 478 269 448T346 369Q402 321 425 281T449 192Q449 138 420 91T336 15T207 -14Q135 -14 88 6Z" />
<glyph unicode="T" glyph-name="T" horiz-adv-x="658" d="M127 -4T121 -1T116 9Q120 22 149 29Q190 37 211 52T242 99L370 526Q385 577 385 595Q385 605 381 609T368 613H309Q241 613 185 551Q181 546 168 532T143 509T125 500Q117 500 115 503T114 515Q116 528
127 544Q166 595 189 661Q193 672 199 678T213 685Q222 685 232 677T247 665Q261 655 276 651T335 646L639 647Q688 647 708 651T741 662Q748 665 762 674Q763 675 770 679T784 684Q797 684 792 670Q790 657 784 647Q752 594 733 521Q726 494 713 494Q697 494 697
526Q695 571 679 592T625 613H558Q542 613 533 607T516 582T496 525L369 100Q365 88 365 76Q365 58 378 47T419 29Q431 26 435 22T439 10Q438 4 430 1T412 -3Q387 -3 341 -1Q295 1 277 1Q256 1 210 -1Q173 -4 136 -4Q127 -4 121 -1Z" />
<glyph unicode="U" glyph-name="U" horiz-adv-x="708" d="M213 -14T155 33T97 166Q97 209 111 254L199 541Q205 559 205 573Q205 610 175 619Q149 626 150 641Q151 647 161 650T185 654Q202 654 240 652Q280 650 299 650Q316 650 358 652L414 653Q440 653 437
640Q435 633 427 629T407 621T387 614Q369 607 352 587T324 532L232 237Q222 204 222 173Q222 115 258 82T350 49Q435 49 495 109T585 264Q617 363 646 458Q664 522 664 558Q664 584 655 597T627 618Q623 619 614 622T600 629T595 638Q595 653 628 653L685 652Q700
651 729 651Q748 651 772 653L812 654Q838 654 834 641Q831 628 799 620Q776 614 763 605T738 577T713 521Q683 434 658 355L625 256Q582 126 508 56T310 -14Q213 -14 155 33Z" />
<glyph unicode="V" glyph-name="V" horiz-adv-x="712" d="M150 -16T150 38Q150 57 157 95Q212 385 229 552Q231 583 223 598T185 619Q168 623 161 627T154 640Q154 647 162 651T186 655Q202 655 246 653Q281 650 314 650Q335 650 383 652L445 653Q456 653 462
650T468 640Q467 632 457 627T433 619Q398 613 384 600T363 554L294 161Q293 157 293 151Q293 143 297 143Q300 143 305 150T314 163L574 477Q632 547 632 584Q632 611 602 619Q578 625 578 638Q578 645 588 649T611 653Q640 653 655 652L710 651Q724 651 740 652T763
654Q786 657 811 657Q823 657 831 653T839 642Q839 634 830 630T801 620Q736 602 685 541L320 118L300 94Q249 36 224 10T187 -16Q150 -16 150 38Z" />
<glyph unicode="W" glyph-name="W" horiz-adv-x="1097" d="M184 -16T176 3T168 54Q168 81 172 102Q221 394 237 540Q239 562 239 567Q239 592 229 602T189 619Q170 623 162 627T154 640Q154 655 190 655Q204 655 244 653Q279 650 314 650Q335 650 385 652L449
653Q460 653 467 650T474 640Q472 632 461 627T436 619Q400 613 387 600T368 548Q359 491 351 447T338 372Q318 260 306 188Q305 183 305 176Q305 166 309 166Q314 166 331 185L579 481Q603 509 614 529T625 567Q625 589 614 600T574 619Q556 623 548 627T540 641Q540
655 575 655Q592 655 640 653Q676 650 708 650Q741 650 778 653Q828 655 846 655Q870 655 870 641Q870 627 835 620Q794 612 778 599T756 553L696 187Q695 182 695 175Q695 167 699 167Q704 167 721 187L949 477Q1004 546 1004 583Q1004 611 972 619Q958 622 952
627T948 640Q949 646 958 649T980 653Q1014 653 1033 652L1095 651Q1109 651 1125 652T1148 654Q1171 657 1196 657Q1208 657 1216 653T1224 642Q1224 634 1213 629T1186 620Q1121 606 1066 541L709 120Q693 101 670 73Q632 27 612 7T581 -14Q548 -14 548 37Q548
61 557 111L580 242Q608 391 620 473L327 120Q325 117 293 75Q261 31 239 8T200 -16Q184 -16 176 3Z" />
<glyph unicode="X" glyph-name="X" horiz-adv-x="686" d="M-47 -6T-47 8Q-47 16 -38 21T-14 29Q18 36 49 56T125 127L280 301Q291 313 296 323T302 345Q302 356 298 368L245 543Q233 584 213 600T162 620Q150 622 143 627T135 641Q135 647 143 650T163 654Q187
654 237 652Q273 649 313 649Q347 649 376 652Q412 654 426 654Q437 654 444 651T452 640Q452 633 443 627T420 619Q395 616 384 606T372 576Q372 562 378 539L419 395Q424 381 431 381Q438 381 447 392L541 510Q587 568 587 593Q587 614 558 619Q548 621 540 626T531
640Q531 646 539 649T560 653L599 652Q627 650 643 650Q663 650 697 654Q706 655 718 656T747 657Q759 657 767 654T776 642Q776 635 769 631T743 622Q718 615 683 593T623 543L463 363Q453 352 449 344T444 326Q444 318 447 309L510 101Q519 71 538 56T593 32Q606
29 615 23T624 8Q624 2 617 -1T597 -5Q578 -5 552 -4T512 -2Q472 1 430 1L371 0Q355 -1 323 -1Q313 -1 306 2T298 12Q298 19 308 24T330 33Q358 41 370 52T382 81Q382 90 379 102L329 277Q326 290 318 290Q311 290 305 281L181 122Q154 86 154 66Q154 41 192 31Q205
28 212 24T219 11Q219 5 210 1T189 -3L147 -2Q115 0 96 0Q82 0 64 -1T36 -3Q9 -6 -18 -6Q-47 -6 -47 8Z" />
<glyph unicode="Y" glyph-name="Y" horiz-adv-x="627" d="M110 -6T104 -3T98 6Q98 15 107 21T133 29Q172 36 194 55T227 109L273 256Q281 279 281 301Q281 324 274 348L215 551Q206 580 194 596T162 616Q145 621 139 626T133 640Q134 646 143 650T162 654Q185
654 227 652Q262 649 301 649Q317 649 351 651Q378 654 406 654Q416 654 422 650T428 640Q427 627 393 619Q362 612 350 603T337 576Q337 566 340 551L382 376Q390 347 399 347Q406 347 426 370Q464 414 511 475L558 534Q587 569 587 588Q587 612 548 619Q537 621
530 626T524 640Q525 646 534 649T556 653Q570 653 598 651Q626 649 645 649Q659 649 677 650T705 652Q729 655 751 655Q779 655 776 641Q774 634 767 631T743 621Q712 613 679 592T625 548L588 506L453 355Q434 335 422 312T400 258L355 110Q349 91 349 77Q349
58 361 47T399 29Q413 26 418 22T423 9Q422 2 413 -1T392 -5Q368 -5 322 -1Q310 0 294 1T259 2Q239 2 193 -2Q145 -6 121 -6Q110 -6 104 -3Z" />
<glyph unicode="Z" glyph-name="Z" horiz-adv-x="639" d="M408 -3Q314 0 195 0Q121 0 -24 -5Q-30 -5 -30 4Q-30 14 -3 48T55 114Q144 209 263 344Q432 531 494 597Q501 604 501 608Q501 615 486 616Q461 617 404 615T315 609Q279 604 243 583T178 521Q165 504
158 497T141 490Q128 490 130 509Q132 521 139 535Q154 565 184 635Q190 650 197 656T215 662Q231 662 263 657Q309 649 342 649Q385 648 470 648Q542 648 609 651L672 652Q678 652 682 642T684 629L594 531Q396 322 174 68Q164 56 164 50Q164 42 180 41Q204 39
293 39Q395 41 451 60Q491 72 523 95T581 157Q593 172 603 172Q608 172 611 169T614 161Q614 148 598 118T553 42L536 14Q525 -4 503 -4L408 -3Z" />
<glyph unicode="[" glyph-name="bracketleft" horiz-adv-x="370" d="M-2 -201T-8 -199T-14 -187Q-14 -176 -7 -156L238 643Q250 678 258 689T289 701L468 700Q486 700 482 684Q480 674 470 669T448 663L374 660Q357 659 343 645T323 613Q165 117 98 -112Q95 -123
95 -130Q95 -156 123 -157L160 -159L193 -162Q203 -163 209 -167T214 -182Q213 -191 205 -195T187 -200L14 -201Q-2 -201 -8 -199Z" />
<glyph unicode="\" glyph-name="backslash" horiz-adv-x="402" d="M249 -65T246 -46L156 650V651Q156 658 162 663T178 669Q195 669 204 665T215 648L305 -48V-49Q305 -56 298 -61T281 -65Q249 -65 246 -46Z" />
<glyph unicode="]" glyph-name="bracketright" horiz-adv-x="370" d="M400 703T406 701T412 689Q412 678 405 658L160 -141Q148 -176 140 -187T109 -199L-70 -198Q-88 -198 -84 -182Q-82 -172 -72 -167T-50 -161L24 -158Q41 -157 55 -143T75 -111Q233 385 300
614Q303 625 303 632Q303 658 275 659L238 661L205 664Q195 665 189 669T184 684Q185 693 193 697T211 702L384 703Q400 703 406 701Z" />
<glyph unicode="^" glyph-name="asciicircum" horiz-adv-x="510" d="M60 261T60 275Q60 278 62 284L273 606H278L491 284Q493 280 493 276Q493 270 489 266T476 261Q463 261 451 269T430 289L280 506Q276 511 275 511T270 506L123 290Q115 277 103 269T77 261Q60
261 60 275Z" />
<glyph unicode="_" glyph-name="underscore" horiz-adv-x="544" d="M427 -129T431 -134T433 -145Q430 -159 418 -172T393 -185H-106Q-112 -185 -115 -181T-117 -172Q-116 -162 -105 -146T-80 -129H419Q427 -129 431 -134Z" />
<glyph unicode="`" glyph-name="grave" horiz-adv-x="225" d="M285 472T278 476T265 488L162 604Q142 627 142 640Q142 652 161 668T194 685Q212 685 226 653L300 499Q304 489 304 484Q304 472 292 472Q285 472 278 476Z" />
<glyph unicode="a" glyph-name="a" horiz-adv-x="525" d="M20 -14T1 1T-18 34Q-18 82 27 150T171 321Q217 368 254 395T309 422Q319 422 332 416T358 399Q367 389 368 389Q370 389 371 390T374 395Q379 405 384 414T390 426Q392 431 397 434T410 438Q429 438 450
426T472 402Q472 393 469 387L365 107Q362 100 362 93Q362 78 376 78Q390 78 414 95T461 138Q465 142 467 142Q472 142 475 138T478 127Q478 116 461 93T418 47Q384 19 351 3T295 -14Q275 -14 256 2T236 35Q236 45 242 58Q241 61 281 149Q283 155 283 156Q283 160
281 161T275 159Q194 67 139 27T40 -14Q20 -14 1 1ZM148 78T187 111T270 197Q304 239 324 271T344 319Q344 327 326 342Q306 357 293 357Q277 357 249 340T195 298Q157 260 129 205T100 113Q100 97 107 88T129 78Q148 78 187 111Z" />
<glyph unicode="b" glyph-name="b" horiz-adv-x="501" d="M115 -11T87 15T58 88Q58 134 77 191L192 551Q204 586 204 609Q204 617 197 623T173 634Q148 643 148 650Q148 656 153 660T171 668Q203 680 255 693T319 707Q341 707 341 695Q341 675 333 656Q282 542
194 261Q193 259 193 255Q193 251 196 251Q199 251 203 258Q262 338 317 382T416 427Q451 427 475 404T499 346Q499 268 447 184T317 45T166 -11Q115 -11 87 15ZM213 25T245 53T306 123Q340 173 366 235T392 328Q392 343 385 352T365 362Q312 362 224 241Q190 192
170 151T149 89Q149 66 162 46T194 25Q213 25 245 53Z" />
<glyph unicode="c" glyph-name="c" horiz-adv-x="349" d="M100 -14T73 2T29 47T12 109Q12 184 47 258T143 379T280 427Q314 427 335 413T356 376Q356 357 344 340T319 322Q311 322 306 328T290 350Q270 389 245 389Q216 389 187 351T138 255T118 146Q118 112 135
95T181 78Q231 78 271 123Q282 136 290 136Q294 136 296 133T299 124Q299 98 273 65T208 9T130 -14Q100 -14 73 2Z" />
<glyph unicode="d" glyph-name="d" horiz-adv-x="547" d="M395 113Q391 97 391 93Q391 79 400 79Q414 79 442 99T492 144Q495 148 498 148Q508 148 508 135Q508 113 475 77T398 14T327 -14Q306 -14 287 3T268 38Q268 46 272 63Q302 144 304 144Q304 149 301 150T295
146Q226 62 174 24T75 -14Q42 -14 21 8T0 66Q0 121 33 192T121 328Q162 377 203 403T280 429Q299 429 312 423T356 397Q373 387 375 387Q377 387 378 389T381 395L435 570Q446 605 446 609Q446 621 438 630T409 647Q393 653 389 655T385 662Q385 669 392 673T416
682Q443 689 493 697T556 706Q577 706 577 692Q577 678 570 658L395 113ZM181 67T230 112T314 219T350 328Q350 355 339 370T305 385Q273 385 227 335T147 217T113 102Q113 84 120 76T144 67Q181 67 230 112ZM303 140V141V140Z" />
<glyph unicode="e" glyph-name="e" horiz-adv-x="367" d="M101 -15T74 1T28 45T9 101Q9 177 47 253T148 378T276 427Q324 427 349 408T374 359Q374 300 309 268T141 214Q132 213 129 205Q119 172 118 151Q117 114 135 92T186 69Q214 69 238 83T285 122Q295 133
303 133Q312 133 312 123Q312 114 309 111Q278 54 232 20T126 -15Q101 -15 74 1ZM201 256T245 284T289 364Q289 376 282 385T262 395Q238 395 211 372T164 314T141 251V249Q141 245 148 245Q201 256 245 284Z" />
<glyph unicode="f" glyph-name="f" horiz-adv-x="362" d="M-139 -291T-168 -272T-198 -223Q-198 -202 -183 -187T-151 -171Q-144 -171 -136 -180T-113 -210Q-98 -229 -87 -237T-60 -246Q-37 -246 -21 -220T15 -130L150 343Q151 346 151 351Q151 361 136 361L76
360Q67 360 64 364T60 376Q60 386 68 396T89 408L154 411Q164 412 168 427L176 455Q202 542 244 598T335 680T429 706Q474 706 503 686T532 633Q532 607 519 588T487 569Q475 569 469 579T452 617Q443 640 431 652T399 665Q367 665 345 630T300 520Q288 479 281
444Q277 428 277 425V423Q277 412 291 412Q309 412 343 414L392 415Q396 415 398 412T401 402Q401 394 392 380T374 366L290 364Q274 364 267 359T256 343Q190 119 131 -102Q119 -148 81 -191T-4 -263T-82 -291Q-139 -291 -168 -272Z" />
<glyph unicode="g" glyph-name="g" horiz-adv-x="451" d="M58 -290T8 -277T-71 -239T-100 -184Q-100 -119 94 -63Q103 -60 96 -54Q44 -22 44 12Q44 30 61 45T114 82Q125 90 125 95Q125 99 116 103Q86 117 67 143T48 206Q48 251 74 303T150 391T262 427Q279 427
291 423T322 411Q328 408 342 402T364 396Q381 396 415 404Q443 411 460 411Q468 411 476 405T484 385Q484 367 477 356T460 345Q452 345 426 349Q404 354 389 354Q374 354 378 342Q381 332 381 312Q381 259 354 207T280 122T180 89Q158 89 150 84Q140 75 140 63Q140
49 149 38T180 12L246 -30Q293 -58 317 -75Q364 -108 364 -144Q364 -180 327 -214T233 -269T119 -290Q58 -290 8 -277ZM197 123T227 165T279 263T300 353Q300 371 292 383T271 396Q245 396 214 356T161 260T138 168Q138 147 147 135T169 123Q197 123 227 165ZM203
-256T233 -237T265 -189Q265 -177 257 -164T232 -140Q213 -127 188 -112T148 -89Q138 -83 128 -83Q123 -83 107 -87Q52 -104 25 -124T-2 -177Q-2 -198 18 -216T74 -245T157 -256Q203 -256 233 -237Z" />
<glyph unicode="h" glyph-name="h" horiz-adv-x="538" d="M72 -16T58 -4T43 25Q43 48 56 95L193 545Q205 589 205 606Q205 617 195 623T167 636Q148 642 148 649Q148 655 152 659T172 668Q197 677 249 692T314 707Q337 707 337 695Q337 683 334 672T329 659L191
219L190 215Q190 212 193 212Q197 212 200 217Q261 311 328 370T447 430Q484 430 504 406T525 347Q525 272 494 197T414 65Q405 54 378 35T321 1T276 -14Q260 -14 242 1T223 29Q223 38 234 54T255 71Q263 71 268 68T277 61T284 55Q294 46 300 42T314 38Q334 38
357 88T397 208T414 325Q414 344 407 354T384 365Q353 365 301 293T176 99L148 54Q127 17 113 1T85 -16Q72 -16 58 -4Z" />
<glyph unicode="i" glyph-name="i" horiz-adv-x="319" d="M58 -14T42 1T26 33Q26 45 30 53Q58 115 114 253L138 312Q140 320 134 320Q116 320 65 287Q58 283 54 283Q42 283 42 290Q42 302 71 329T142 384T215 425Q221 427 224 427Q241 427 256 412T266 384L151
103Q147 96 147 83Q147 79 150 77T156 74Q170 74 202 98T261 149Q264 152 265 152Q269 152 272 149T275 141Q275 118 240 81T159 15T79 -14Q58 -14 42 1ZM250 763T237 778T223 813Q223 844 244 867T298 891Q318 891 330 875T343 836Q343 807 321 785T270 763Q250
763 237 778Z" />
<glyph unicode="j" glyph-name="j" horiz-adv-x="294" d="M-170 -290T-193 -275T-217 -240Q-217 -220 -200 -204T-169 -187Q-157 -187 -149 -194T-127 -216Q-117 -228 -107 -234T-83 -241Q-59 -241 -40 -211T-3 -127L128 274Q133 288 133 299Q133 314 121 314Q104
314 64 294Q58 292 55 292Q43 292 43 302Q43 307 47 312T60 324Q89 348 124 367T210 409L247 426Q260 430 273 419T282 395L269 361Q247 306 240 282L119 -84Q102 -136 57 -183T-41 -260T-128 -290Q-170 -290 -193 -275ZM238 509T225 524T211 559Q211 590 232 613T286
637Q306 637 318 621T331 582Q331 553 309 531T258 509Q238 509 225 524Z" />
<glyph unicode="k" glyph-name="k" horiz-adv-x="508" d="M276 -17T258 32L217 152Q205 184 186 184Q177 184 165 153Q153 128 128 59L114 24Q108 9 95 0T64 -10Q50 -10 36 2T21 32Q21 49 29 73L182 546Q194 579 194 605Q194 615 189 621T171 633Q148 641 148
648Q148 654 151 657T167 665Q193 676 244 691T310 707Q320 707 326 705T333 694Q333 681 326 660L198 287Q197 285 197 282Q197 278 200 278Q205 278 209 284Q255 348 311 387T423 427Q451 427 469 414T487 376Q487 345 459 311T389 248T308 206Q302 205 302 199Q302
194 304 191L344 98Q358 71 373 71Q389 71 409 87T444 126Q448 132 451 135T459 138Q462 138 464 134T466 126Q466 100 440 66T379 8T318 -17Q276 -17 258 32ZM256 209T294 231T359 283T386 335Q386 363 352 363Q329 363 296 335T237 271T211 223Q211 217 213 213T221
209Q256 209 294 231Z" />
<glyph unicode="l" glyph-name="l" horiz-adv-x="304" d="M46 -14T30 3T13 38Q13 46 16 56L193 569Q200 590 200 605Q200 623 187 632Q177 638 161 654Q157 658 157 663Q157 668 162 670Q191 679 217 684L257 695Q275 699 295 702T328 707Q333 707 337 701T340
689Q336 670 329 651L140 110Q137 100 137 91Q137 77 148 77Q162 77 188 99T239 150Q247 162 253 162Q262 162 262 147Q262 120 226 82T143 15T65 -14Q46 -14 30 3Z" />
<glyph unicode="m" glyph-name="m" horiz-adv-x="817" d="M78 -15T63 -1T48 32Q48 42 61 76L162 325Q164 329 164 336Q164 351 148 351Q108 351 73 310Q68 305 63 305Q60 305 57 308T54 316Q54 326 65 344T86 373Q113 399 139 412T205 427Q229 427 244 413T259
376Q259 363 253 348L196 211L195 207Q195 203 199 203Q204 203 206 208Q273 317 325 372T431 427Q463 427 481 407T499 355Q499 326 484 294L463 238L462 234Q462 230 467 230Q473 230 475 235Q532 327 585 377T692 427Q722 427 738 409T754 360Q754 330 738 290L663
109Q657 94 657 86Q657 75 666 75Q688 75 757 139Q767 149 771 149Q774 149 777 146T780 138Q778 116 762 100Q718 49 668 18T566 -14Q553 -14 538 -3T523 24Q523 27 525 33L654 333Q658 341 658 350Q658 359 653 364T640 370Q612 371 557 298Q516 240 406 58Q387
25 363 5T322 -15Q310 -15 297 -2T284 24Q284 39 299 79L402 336Q406 345 406 353Q406 362 401 367T389 372Q375 373 351 352T298 292Q260 242 160 62Q138 21 123 3T92 -15Q78 -15 63 -1Z" />
<glyph unicode="n" glyph-name="n" horiz-adv-x="575" d="M84 -15T66 2T48 40Q48 49 51 56L157 318Q162 331 162 338Q162 349 151 349Q132 349 113 342T73 310Q68 305 63 305Q60 305 57 308T54 316Q54 325 65 343T86 373Q137 426 213 427Q235 427 248 413T262
379Q262 368 257 355L200 211L199 208Q199 203 206 203Q212 203 215 208Q340 427 441 427Q475 427 492 406T510 352Q510 322 499 299L418 109Q413 97 413 87Q413 76 423 76Q437 76 468 98T513 133Q523 143 527 143Q530 143 533 140T536 132Q536 117 526 104Q482
52 427 19T322 -14Q306 -14 292 -2T278 26Q278 33 280 37Q320 126 329 146Q375 243 405 320Q412 340 412 352Q412 369 397 369Q380 370 358 347T299 273Q280 247 234 174T153 39Q138 13 125 -1T99 -15Q84 -15 66 2Z" />
<glyph unicode="o" glyph-name="o" horiz-adv-x="432" d="M106 -14T77 3T30 51T12 118Q12 183 47 255T145 377T286 427Q347 427 383 390T420 292Q420 228 385 156T286 35T139 -14Q106 -14 77 3ZM191 22T227 77T287 208T312 344Q312 392 275 392Q245 392 208 339T146
209T120 72Q120 22 158 22Q191 22 227 77Z" />
<glyph unicode="p" glyph-name="p" horiz-adv-x="499" d="M-115 -285T-115 -275Q-114 -268 -107 -263T-90 -256Q-60 -249 -48 -241T-28 -211L149 315Q156 333 156 340Q156 351 140 348Q104 340 66 325Q60 322 55 322Q49 322 46 325T42 334Q42 350 64 359Q122 387
166 403Q180 408 189 433Q205 480 226 502T275 525Q301 525 301 501Q301 498 299 486L286 441Q285 437 285 430Q285 419 290 421Q324 427 340 427Q415 427 453 391T492 295Q492 227 452 155T348 34T214 -14Q191 -14 165 5Q155 12 150 12Q145 12 142 7T134 -10L76
-201Q73 -209 73 -215Q73 -228 85 -237T124 -252Q133 -253 140 -257T147 -270Q147 -276 140 -279T123 -282Q91 -282 73 -281L23 -280Q9 -280 -33 -282Q-68 -285 -103 -285Q-115 -285 -115 -275ZM248 23T286 62T353 162T381 281Q381 333 361 356T302 380Q294 380
272 378L184 109Q179 95 179 78Q179 63 183 52Q190 37 198 30T221 23Q248 23 286 62Z" />
<glyph unicode="q" glyph-name="q" horiz-adv-x="520" d="M107 -287Q102 -287 99 -284T95 -276Q95 -269 102 -264T119 -256Q148 -250 163 -240T186 -208Q238 -65 246 -44L307 124Q309 130 309 131Q309 136 305 136Q301 136 294 129Q232 52 184 19T85 -14Q50 -14
27 9T4 70Q4 132 43 203T144 338Q186 381 235 407T326 433Q344 433 359 426T383 406Q385 404 390 398T398 390T405 387Q415 387 423 401L432 416Q454 451 482 451Q489 451 493 445T498 425Q498 403 487 371L297 -198Q294 -207 294 -215Q294 -241 327 -246Q359 -251
359 -263Q359 -269 352 -272T334 -275Q215 -275 109 -287H107ZM171 47T219 94T304 201Q335 250 350 282T366 336Q366 355 354 372T323 390Q292 390 243 332T155 200T117 80Q117 64 122 56T141 47Q171 47 219 94Z" />
<glyph unicode="r" glyph-name="r" horiz-adv-x="431" d="M69 -15T53 -4T36 23Q36 39 48 70L146 325Q149 333 149 339Q149 352 137 352Q120 352 109 347T81 330Q75 326 71 326Q62 326 61 336Q60 352 74 369T113 401Q132 413 154 420T198 427Q246 427 246 380Q246
353 230 315L189 216Q188 215 188 212Q188 207 193 207Q198 207 201 213Q324 429 411 429Q439 429 454 413T470 370Q470 347 460 324T434 287T403 272Q393 272 388 281T380 311Q375 351 355 351Q341 351 324 333T282 275Q265 250 226 186T156 67Q133 26 116 6T83
-15Q69 -15 53 -4Z" />
<glyph unicode="s" glyph-name="s" horiz-adv-x="304" d="M19 -14T-3 3T-26 47Q-26 71 -15 87T12 103Q18 103 28 95T49 75Q68 57 82 47T115 37Q135 37 145 49T157 81Q157 108 117 172Q77 232 77 274Q77 308 105 343T171 403T232 427Q252 427 272 418T305 395T319
371Q319 356 301 336T268 315Q254 315 235 340Q227 352 215 359T190 367Q175 367 166 356T157 330Q157 311 203 245Q249 179 249 135Q249 104 220 69T145 10T55 -14Q19 -14 -3 3Z" />
<glyph unicode="t" glyph-name="t" horiz-adv-x="340" d="M65 -14T47 4T29 38Q29 47 32 58T41 85L135 342Q138 348 138 353Q138 359 134 361T125 364L79 366Q65 367 61 372T57 384Q57 386 63 394T80 408T100 415H144Q157 415 162 418T175 437L201 491Q211 510
234 529T271 548Q280 548 285 541T290 523Q290 515 287 507L263 433L261 424Q261 414 277 414Q300 414 344 408Q362 405 367 401T372 389Q372 385 366 380T348 373Q305 369 280 368Q263 367 255 363T242 349L163 130Q157 112 157 102Q157 85 174 85Q200 85 271
153Q275 158 279 158T285 156Q288 153 288 147Q288 139 284 132Q272 106 236 71T157 11T84 -14Q65 -14 47 4Z" />
<glyph unicode="u" glyph-name="u" horiz-adv-x="567" d="M76 -14T58 9T40 55Q40 63 43 70L141 296Q148 314 148 320Q148 330 140 330Q132 330 107 313T64 279Q56 271 48 271Q40 271 40 278Q40 294 56 313Q97 365 146 396T235 428Q250 428 264 412T278 378Q278
373 276 367Q256 327 221 247L161 118Q153 100 153 89Q153 75 164 75Q177 75 204 106T289 210Q323 252 357 300T410 380Q425 404 436 415T459 427Q477 427 492 412T507 380Q507 377 505 371L396 101Q392 92 392 83Q392 73 399 73Q412 73 448 99T508 148Q511 151
512 151Q516 151 520 147T524 138Q524 124 500 100T444 55T390 30Q361 11 327 11Q306 11 291 18Q287 19 284 26T280 41Q280 49 282 52L295 81Q336 171 349 204Q350 206 350 209Q350 214 346 214Q342 214 337 208Q244 94 191 40T98 -14Q76 -14 58 9Z" />
<glyph unicode="v" glyph-name="v" horiz-adv-x="455" d="M105 -14T82 10T59 71Q59 94 68 118L131 289Q135 300 135 308Q135 320 126 320Q117 320 100 309T70 285Q59 274 52 274Q41 274 41 283Q41 293 59 317Q91 358 141 393T221 428Q237 428 250 412T259 382L176
130Q170 109 170 95Q170 60 207 60Q241 60 281 94T348 178T375 272Q375 314 346 343Q336 353 332 360T328 378Q328 387 342 399T376 419T410 428Q425 428 436 408T447 350Q447 288 416 223T330 97Q282 45 235 16T143 -14Q105 -14 82 10Z" />
<glyph unicode="w" glyph-name="w" horiz-adv-x="671" d="M641 429T652 409T664 350Q664 289 631 221T541 87Q499 39 457 13T374 -14Q338 -14 319 11T300 77L301 92Q266 45 221 16T135 -14Q104 -14 83 8T62 71Q62 104 78 146L136 296Q139 305 139 310Q139 320
130 320Q124 320 107 312T76 292Q62 281 55 281Q43 281 43 292Q43 303 61 324Q98 363 148 395T228 428Q243 428 252 420T262 393Q262 375 252 349L172 130Q165 113 165 98Q165 80 175 70T203 60Q223 60 249 83T298 141T330 206Q336 226 346 282Q349 298 351 310T356
333Q358 344 365 357T383 379Q399 393 412 399T450 406Q461 406 467 396T474 366Q474 349 466 320Q451 275 415 208Q406 191 401 170T394 134L393 118Q393 91 403 75T434 59Q466 59 501 93T559 178T583 276Q583 292 579 304T567 331L555 352Q546 368 546 372Q546
381 560 394T594 418T626 429Q641 429 652 409Z" />
<glyph unicode="x" glyph-name="x" horiz-adv-x="478" d="M10 -14T-3 -2T-16 31Q-16 52 0 74T32 97Q43 97 51 80Q60 63 76 63Q94 63 113 82Q154 127 192 173Q198 181 198 188L196 197L158 329Q155 339 152 342T143 346Q133 346 118 333T83 296Q76 286 69 286Q65
286 63 289T60 299Q60 323 79 353T128 405T188 427Q209 427 221 412T243 365L270 269Q272 262 275 262Q279 262 283 268L346 357Q397 427 444 427Q466 427 484 410T502 377Q503 357 486 336T455 314Q446 314 441 318T432 330Q427 341 422 345T408 350Q386 350 355
316Q323 281 294 235Q287 221 287 212Q287 203 289 198L319 89Q323 74 328 69T341 63Q352 63 368 80T401 127Q406 137 414 137Q423 137 423 120Q423 99 405 67T359 10T300 -14Q274 -14 257 4T232 51Q227 70 224 85T218 113L212 141Q209 151 205 151Q203 151 198
145Q184 127 163 97L127 48Q104 17 79 2T31 -14Q10 -14 -3 -2Z" />
<glyph unicode="y" glyph-name="y" horiz-adv-x="457" d="M-76 -289T-95 -275T-114 -233Q-114 -209 -98 -188T-61 -167Q-52 -167 -43 -172T-20 -188Q-5 -199 4 -204T27 -209Q58 -209 90 -175T149 -84Q186 -1 186 133Q186 207 177 255T155 326T130 349Q118 349
102 326T76 282Q74 275 68 267T57 258Q54 258 51 266T48 286Q48 319 68 353T119 409T176 431Q203 431 220 413T250 357Q281 260 281 132Q281 99 280 81V77Q280 64 284 64Q289 64 295 78Q366 212 363 411Q363 418 374 426T392 435Q400 435 413 427T436 405T446 377Q446
285 372 147T176 -130Q115 -200 54 -244T-50 -289Q-76 -289 -95 -275Z" />
<glyph unicode="z" glyph-name="z" horiz-adv-x="450" d="M442 429T447 424T452 415Q452 408 442 394T416 366L162 126Q181 124 198 114T237 84Q262 62 278 52T311 41Q333 41 342 63T352 119Q352 142 354 151T366 160Q380 160 392 145T405 105Q405 80 377 48T311
-9T253 -33Q227 -33 205 -21T157 13Q150 18 136 30T112 47T93 53Q66 53 50 36T34 -5Q34 -20 19 -20Q12 -20 6 -9T0 12Q0 41 25 63L286 298H282Q265 298 250 306T211 332Q187 348 173 355T142 362Q127 362 117 348T107 315Q107 290 118 276Q123 268 123 265Q123
261 118 256Q111 249 95 243T72 236Q64 236 56 247T47 276Q47 306 60 326T105 373Q126 391 159 409T211 427Q225 427 239 424T265 416T286 408Q335 391 360 391Q375 391 384 395T405 411Q426 429 437 429Q442 429 447 424Z" />
<glyph unicode="{" glyph-name="braceleft" horiz-adv-x="377" d="M137 -153T85 -128T32 -55Q32 -38 39 -20Q47 2 54 19T66 51Q95 124 107 164Q113 185 113 202Q113 226 101 242T63 269Q60 270 55 272T48 276T46 283Q46 291 52 294T74 303Q118 318 143 341T183
409Q193 442 207 506Q225 581 225 581Q242 646 315 680T477 714Q485 714 490 710T495 699Q495 680 457 680Q405 680 372 658T323 586Q316 564 303 501Q291 443 284 418Q269 368 224 332T119 283Q113 282 119 279Q160 270 184 244T208 180Q208 163 202 143Q190 107
171 61Q150 13 138 -25Q131 -50 131 -62Q131 -90 151 -102T212 -120Q215 -120 223 -121T236 -125T240 -135Q239 -143 230 -148T211 -153Q137 -153 85 -128Z" />
<glyph unicode="|" glyph-name="bar" horiz-adv-x="270" d="M99 -289T94 -282T88 -267V658Q88 673 102 684T134 700T159 706Q167 706 173 700T180 686V-252Q180 -273 154 -281T106 -289Q99 -289 94 -282Z" />
<glyph unicode="}" glyph-name="braceright" horiz-adv-x="377" d="M286 715T338 690T391 617Q391 600 384 582Q376 560 369 543T357 511Q328 438 316 398Q310 377 310 360Q310 336 322 320T360 293Q363 292 368 290T375 286T377 279Q377 271 371 268T349 259Q305
244 280 221T240 153Q230 120 216 56Q198 -19 198 -19Q181 -84 108 -118T-54 -152Q-62 -152 -67 -148T-72 -137Q-72 -118 -34 -118Q18 -118 51 -96T100 -24Q107 -2 120 61Q132 119 139 144Q154 194 199 230T304 279Q310 280 304 283Q263 292 239 318T215 382Q215
399 221 419Q233 455 252 501Q273 549 285 587Q292 612 292 624Q292 652 272 664T211 682Q208 682 200 683T187 687T183 697Q184 705 193 710T212 715Q286 715 338 690Z" />
<glyph unicode="~" glyph-name="asciitilde" horiz-adv-x="530" d="M92 255T85 266T79 282Q84 297 107 325T160 374T217 395Q233 395 249 390T282 378T309 368Q336 358 356 353T400 348Q432 348 472 373Q479 377 489 385Q502 395 508 395Q514 395 520 384T526
368Q522 355 499 328T446 279T387 257Q373 257 353 262T320 272T303 278Q268 291 246 297T202 303Q163 303 98 256Q92 255 85 266Z" />
<glyph unicode="&#xa0;" glyph-name="uni00A0" horiz-adv-x="225" />
<glyph unicode="&#xa1;" glyph-name="exclamdown" horiz-adv-x="297" d="M193 293T193 272Q193 262 190 246Q169 137 128 -48L123 -70Q113 -112 89 -140T35 -169Q17 -169 5 -153T-8 -111Q-8 -89 3 -58Q12 -34 52 58T138 246Q161 293 178 293Q193 293 193 272ZM257
494T273 477T290 438Q290 406 266 382T207 358Q181 358 165 376T149 417Q149 448 174 471T234 494Q257 494 273 477Z" />
<glyph unicode="&#xa2;" glyph-name="cent" horiz-adv-x="419" d="M110 -81T106 -76T105 -63L127 -11Q75 4 46 44T17 143Q17 208 56 273T162 382T307 425L328 479Q332 488 342 493T362 498Q366 498 369 495T372 487L370 479L348 425Q385 422 419 403T454 361Q454
346 432 329T390 312Q370 312 364 326Q356 347 348 358T328 375L209 85Q216 84 231 84Q268 84 302 95T361 131Q368 139 375 139Q384 139 384 129Q384 122 379 114Q338 53 287 21T168 -14L148 -63Q144 -71 136 -76T119 -81Q110 -81 106 -76ZM289 382Q245 382 207
352T147 276T124 182Q124 152 136 129T170 94L289 382Z" />
<glyph unicode="&#xa3;" glyph-name="sterling" horiz-adv-x="582" d="M569 629T599 605T630 545Q630 514 608 491T553 467Q544 467 541 470T538 480Q538 483 547 499T557 539Q557 561 544 576T505 592Q469 592 444 567T397 494T341 351L455 359Q462 359 467 354T471
343Q468 334 457 324T433 312L322 305Q265 178 174 128Q172 126 172 124T175 121Q210 120 234 109T285 78Q291 74 308 61T343 41T380 34Q413 34 437 53T462 103Q462 113 456 127Q450 139 450 147Q450 163 461 172T486 182Q526 182 526 135Q526 95 500 55T426 -11T313
-37Q275 -37 246 -24T184 14Q177 20 159 34T125 56T95 64Q53 35 15 -7Q9 -14 -3 -14Q-18 -14 -32 -3T-46 23Q-46 42 -25 63T30 100T100 116Q126 148 146 192T186 296L100 290H98Q92 290 88 294T83 304Q83 313 92 324T112 336L201 342L211 374Q251 494 327 561T507
629Q569 629 599 605Z" />
<glyph unicode="&#xa4;" glyph-name="currency" horiz-adv-x="496" d="M517 478T527 466T536 441Q535 436 531 432L468 386Q480 356 480 322Q480 274 458 224T395 137L423 99Q427 94 427 89Q427 78 414 68T389 58Q383 58 376 66L350 103Q285 64 208 64Q140 64
99 105L38 60Q34 57 31 57T27 57Q17 57 7 69T-3 92Q-3 97 -1 100T5 106L68 153Q58 179 58 210Q58 259 81 307T145 393L111 440Q109 442 109 447Q109 457 121 467T145 478Q152 478 157 473L190 428Q259 469 332 469Q397 469 436 433L492 475Q498 478 504 478Q517
478 527 466ZM279 120T324 147T395 218T422 307Q422 353 394 383T315 413Q262 413 216 386T144 315T117 226Q117 180 146 150T226 120Q279 120 324 147Z" />
<glyph unicode="&#xa5;" glyph-name="yen" horiz-adv-x="618" d="M106 -6T100 -3T93 6Q93 14 103 20T129 29Q168 36 190 55T223 109L248 188H136Q129 188 125 193T121 204Q123 213 133 223T153 233L261 232L267 251Q272 265 273 276H165Q158 276 154 281T151 291Q152
300 162 310T183 321H275L270 343L209 555Q202 582 190 597T153 619Q132 624 132 635Q132 644 140 649T160 654Q182 654 226 652Q262 649 300 649Q317 649 349 651Q374 654 402 654Q412 654 418 650T424 640Q420 628 389 619Q361 613 348 601T334 569Q334 565 336
551L373 379Q378 361 381 355T388 349Q392 349 400 356T418 376Q461 426 549 537Q575 569 575 590Q575 613 540 619Q529 621 521 626T516 640Q517 646 526 649T548 653Q566 653 596 651Q624 649 641 649Q646 649 697 652Q721 655 743 655Q767 655 767 644Q767 628
733 621Q706 615 675 592T620 543L590 509Q543 456 508 417T448 350Q429 329 423 319H525Q532 319 536 314T538 303Q534 294 522 285T497 276H402L388 232L498 231Q505 231 508 226T510 215Q506 206 494 197T470 188H375L351 110Q345 91 345 77Q345 58 356 47T394
29Q409 26 415 22T418 9Q417 2 409 -1T388 -5Q364 -5 318 -1Q306 0 291 1T255 2Q235 2 189 -2Q141 -6 116 -6Q106 -6 100 -3Z" />
<glyph unicode="&#xa6;" glyph-name="brokenbar" horiz-adv-x="272" d="M99 262T94 270T88 288V658Q88 673 102 683T134 699T159 705Q167 705 173 699T180 685V298Q180 281 153 272T106 262Q99 262 94 270ZM101 -290T95 -283T89 -268V138Q89 151 103 161T135 176T160
182Q168 182 174 175T181 158V-253Q181 -274 155 -282T108 -290Q101 -290 95 -283Z" />
<glyph unicode="&#xa7;" glyph-name="section" horiz-adv-x="420" d="M10 -148T-7 -140T-25 -119Q-25 -107 -15 -90T10 -61T34 -48Q41 -49 48 -53T61 -62T70 -69Q93 -85 122 -85Q153 -85 175 -57T198 7Q198 40 183 69T131 155Q103 196 88 227T73 292Q73 403 200
506Q232 561 284 600T389 640Q421 640 449 628T477 599Q477 586 452 561T413 536Q408 536 403 541T392 551T382 562Q358 586 338 586Q307 586 284 562T260 508Q260 479 277 447T328 372Q356 336 370 302T385 231Q385 169 353 106T266 -17Q210 -77 151 -112T37 -148Q10
-148 -7 -140ZM266 55T269 55T275 59Q303 111 307 146Q310 161 310 176Q310 208 298 237T263 302Q231 350 215 380T196 442Q196 446 193 446T187 442Q168 417 158 391T148 332Q148 304 161 276T202 206Q231 162 248 127T266 59Q266 55 269 55Z" />
<glyph unicode="&#xa8;" glyph-name="dieresis" horiz-adv-x="405" d="M179 500T167 514T154 550Q154 582 178 606T235 630Q257 630 270 616T283 579Q283 547 259 524T200 500Q179 500 167 514ZM368 500T356 514T343 550Q343 582 368 606T425 630Q446 630 459
616T472 579Q472 547 448 524T389 500Q368 500 356 514Z" />
<glyph unicode="&#xa9;" glyph-name="copyright" horiz-adv-x="675" d="M290 19T220 60T108 172T67 327Q67 411 108 481T220 593T375 635Q459 635 529 594T641 482T683 327Q683 243 642 173T529 61T374 19Q290 19 220 60ZM445 64T504 99T597 195T632 327Q632 397
598 456T504 550T375 585Q305 585 246 550T152 456T117 327Q117 256 151 196T245 100T374 64Q445 64 504 99ZM335 143T290 167T218 233T191 324Q191 373 219 414T296 480T405 504Q429 504 454 499T499 485Q506 483 509 480T514 470Q517 449 517 428T517 401Q517
394 512 389T501 385Q490 385 485 400Q477 424 462 438Q436 460 399 460Q351 460 324 423T296 331Q296 266 322 226T401 186Q435 186 456 198T491 241Q498 255 509 255Q514 255 517 251T521 238Q521 213 508 179Q506 174 503 172T497 168T492 165Q446 143 388 143Q335
143 290 167Z" />
<glyph unicode="&#xaa;" glyph-name="ordfeminine" horiz-adv-x="330" d="M102 278T86 293T69 327Q69 358 87 375T141 404L219 429Q234 434 238 438T247 456L253 478Q256 487 256 495Q256 516 234 516Q225 516 215 512T198 503Q193 498 192 488T189 473Q187 465
160 456T119 447Q113 447 113 454Q113 460 116 464Q129 491 161 511Q189 527 222 539T282 552Q310 552 326 538T342 498Q342 484 338 472L300 359Q296 350 296 339Q296 322 309 322Q316 322 321 325T328 330Q334 333 335 333Q338 333 340 330T342 323Q342 315 322
301Q289 278 262 278Q238 278 229 287T213 315H211Q192 299 172 289T126 278Q102 278 86 293ZM183 322T201 331Q208 338 211 348L228 398L229 402Q229 411 218 407Q187 397 172 385T153 350Q151 339 157 331T173 322Q183 322 201 331ZM33 160T29 164T25 174Q25
182 35 192T55 202H268Q273 202 277 198T281 186Q281 177 268 169T243 160H39Q33 160 29 164Z" />
<glyph unicode="&#xab;" glyph-name="guillemotleft" horiz-adv-x="621" d="M274 17T255 36Q181 118 72 184Q60 191 56 195T52 204Q52 209 58 214T71 221Q217 289 372 395Q377 399 383 402T397 405Q404 405 404 399Q404 390 394 378Q343 326 293 288T183 210Q175
205 175 202Q175 200 181 194Q216 157 244 121T293 43Q295 37 295 33Q295 26 293 22T286 17Q274 17 255 36ZM485 17T466 36Q392 118 283 184Q271 191 267 195T263 204Q263 209 269 214T282 221Q428 289 583 395Q588 399 594 402T608 405Q615 405 615 399Q615 390
605 378Q554 326 504 288T394 210Q386 205 386 202Q386 200 392 194Q427 157 455 121T504 43Q506 37 506 33Q506 26 504 22T497 17Q485 17 466 36Z" />
<glyph unicode="&#xac;" glyph-name="logicalnot" horiz-adv-x="600" d="M494 42T490 47T486 60V301Q486 318 471 318H56Q50 318 45 322T39 332Q39 348 46 367T69 386H538Q545 386 549 381T553 368V72Q553 57 534 50T499 42Q494 42 490 47Z" />
<glyph unicode="&#xad;" glyph-name="uni00AD" horiz-adv-x="304" d="M33 166Q28 166 25 170T22 179Q22 200 35 216T60 234Q169 251 276 262H278Q284 262 285 259T287 248Q287 232 275 214T250 194L172 184Q106 174 34 166H33Z" />
<glyph unicode="&#xae;" glyph-name="registered" horiz-adv-x="695" d="M300 19T230 60T118 172T77 327Q77 411 118 481T230 593T385 635Q468 635 539 594T651 482T693 327Q693 244 651 173T538 61T384 19Q300 19 230 60ZM455 64T514 99T607 195T642 327Q642
397 608 456T514 550T385 585Q315 585 256 550T162 456T127 327Q127 256 161 196T255 100T384 64Q455 64 514 99ZM482 171T443 213T383 306Q377 319 359 319Q354 319 351 316T348 309L349 229Q349 215 357 209T386 197Q402 193 402 182Q402 178 398 174T388 170Q374
170 348 172Q322 174 311 174Q300 174 278 172Q254 170 240 170Q236 170 232 174T227 182Q227 193 242 197Q259 202 265 208T272 229V434Q272 455 268 461T245 472Q230 475 230 485Q230 489 234 492T245 494Q258 494 280 492Q298 490 309 490Q322 490 346 492Q374
494 395 494Q448 494 479 474T510 415Q510 362 448 335Q445 334 445 332Q445 330 446 328T448 324Q462 290 483 264T525 223T561 208Q572 208 572 201Q572 188 557 180T515 171Q482 171 443 213ZM399 351T417 367T435 407Q435 433 420 447T378 461Q360 461 354
455T347 438V369Q347 351 370 351Q399 351 417 367Z" />
<glyph unicode="&#xaf;" glyph-name="overscore" horiz-adv-x="337" d="M129 526T129 540Q129 558 143 575T172 593H409Q426 593 426 581Q426 565 409 546T377 526H142Q129 526 129 540Z" />
<glyph unicode="&#xb0;" glyph-name="degree" horiz-adv-x="328" d="M226 388T194 408T144 460T125 529Q125 565 143 595T194 644T265 662Q303 662 334 644T384 596T403 530Q403 494 385 461T335 408T265 388Q226 388 194 408ZM297 440T320 464T344 524Q344 560
321 584T264 608Q230 608 207 584T183 524Q183 489 206 465T264 440Q297 440 320 464Z" />
<glyph unicode="&#xb1;" glyph-name="plusminus" horiz-adv-x="596" d="M278 124T275 128T271 139V345Q271 354 262 354H55Q49 354 44 358T39 367Q39 380 46 394T66 409H260Q267 409 269 411T271 421V591Q271 604 285 614T310 624Q317 624 321 619T326 605V420Q326
413 327 411T334 409H538Q546 409 552 405T557 394Q554 379 546 367T524 354H334Q329 354 328 352T326 345V151Q326 138 311 131T283 124Q278 124 275 128ZM50 33T45 37T39 47Q39 59 46 75T68 91H537Q545 91 552 86T558 75Q555 59 546 46T523 33H56Q50 33 45 37Z"
/>
<glyph unicode="&#xb2;" glyph-name="uni00B2" horiz-adv-x="319" d="M283 439Q237 441 210 441Q158 441 104 438Q98 438 98 443Q98 448 105 455L184 521Q251 577 284 616T317 683Q317 700 305 710T273 721Q254 721 235 710T201 682Q200 681 195 676T186 671Q177
671 181 686Q193 721 235 748T324 776Q361 776 383 757T406 703Q406 677 391 657T341 604Q325 588 284 560T236 527L208 507V506Q208 503 217 503H301Q319 503 339 515T376 548Q382 558 394 558Q400 558 400 553Q400 548 396 543Q362 494 341 451Q335 438 327 438L283
439Z" />
<glyph unicode="&#xb3;" glyph-name="uni00B3" horiz-adv-x="296" d="M148 435T132 441T118 461Q120 472 129 484T145 497Q152 497 161 490T176 480Q195 466 209 466Q235 466 258 492T282 551Q282 571 271 586T242 602Q228 602 214 596T198 589Q193 589 190 592T188
601Q196 610 216 619T241 631Q281 650 299 665T318 699Q318 714 309 722T282 731Q265 731 250 724T216 703Q213 701 209 698T203 695Q199 695 197 699T196 708Q214 733 249 754T326 776Q359 775 377 759T396 716Q396 691 371 671T310 638Q308 637 307 636T309 634Q334
634 350 615T367 569Q367 534 336 503T259 454T172 435Q148 435 132 441Z" />
<glyph unicode="&#xb4;" glyph-name="acute" horiz-adv-x="225" d="M142 472T142 484Q142 489 146 499L220 653Q234 685 252 685Q265 685 284 669T304 640Q304 627 284 604L181 488Q176 481 169 477T154 472Q142 472 142 484Z" />
<glyph unicode="&#xb5;" glyph-name="uni00B5" horiz-adv-x="548" d="M-11 -287T-23 -267T-36 -220Q-36 -181 -23 -128T13 0L24 27Q27 34 35 55T49 92Q64 145 89 238T135 403Q139 414 148 420T169 427Q190 427 209 418T240 395T249 371Q247 355 230 323T172 223Q144
177 131 154Q122 135 122 118Q122 100 135 85T168 70Q199 70 233 101T315 196Q353 304 393 399Q399 415 406 421T424 427Q447 427 476 409T504 374Q499 351 455 278T367 151Q364 142 364 133Q364 112 380 99T423 86Q448 86 495 118Q510 128 513 128Q517 128 520
125T522 118Q516 80 494 50T443 2T386 -15Q358 -15 341 6T323 60Q323 71 324 76Q325 92 337 118L334 119Q332 116 308 82T250 18T194 -13Q174 -13 160 -5T138 14T113 52Q112 54 103 68T88 83Q77 83 66 52Q59 34 52 -5T44 -73Q44 -100 52 -125T74 -169Q78 -175 85
-183T95 -197T99 -209Q99 -220 83 -238T45 -272T13 -287Q-11 -287 -23 -267Z" />
<glyph unicode="&#xb6;" glyph-name="paragraph" horiz-adv-x="602" d="M69 -287T32 -258T-6 -181Q-6 -117 34 -78T134 -38Q167 -38 186 -53T206 -97Q206 -127 188 -145T139 -163Q117 -163 94 -146Q92 -145 82 -138T62 -131Q51 -131 45 -142T38 -169Q38 -202 62
-222T127 -243Q187 -243 230 -207T294 -104L350 76Q352 82 352 85Q352 95 342 95Q264 95 206 121T115 195T82 309Q82 336 88 366Q106 480 166 541T322 625T568 647Q602 647 641 645T695 640Q702 639 704 632T705 616Q703 606 697 598T685 590Q678 590 642 595T582
600Q574 600 567 594T556 577L352 -87Q321 -185 268 -236T128 -287Q69 -287 32 -258ZM359 138T363 152L501 583V585Q501 589 496 591T485 593Q454 593 433 582T386 527T331 388Q293 270 293 210Q293 138 349 138Q359 138 363 152Z" />
<glyph unicode="&#xb7;" glyph-name="middot" horiz-adv-x="237" d="M81 137T64 155T47 197Q47 232 72 258T133 285Q160 285 176 266T193 221Q193 187 167 162T105 137Q81 137 64 155Z" />
<glyph unicode="&#xb8;" glyph-name="cedilla" horiz-adv-x="225" d="M-74 -281T-99 -262T-124 -220Q-124 -186 -98 -186Q-87 -186 -77 -191T-52 -209Q-49 -211 -40 -219T-22 -232T-4 -236Q6 -236 11 -230T17 -213Q17 -203 12 -195T-2 -178T-14 -166Q-47 -133
-47 -111Q-47 -87 -9 -49T75 17H111Q41 -34 41 -71Q41 -80 48 -89T73 -114Q89 -130 96 -141T104 -164Q104 -184 79 -212T21 -260T-38 -281Q-74 -281 -99 -262Z" />
<glyph unicode="&#xb9;" glyph-name="uni00B9" horiz-adv-x="250" d="M113 438T111 441T110 448Q113 462 125 463Q150 466 160 472T176 498L232 684Q234 692 234 696Q234 708 224 715T197 728Q187 731 190 739Q193 754 207 756Q259 761 285 765T331 777Q340 780
342 780Q348 780 348 775Q348 771 341 755Q333 737 327 718L259 498Q256 488 256 481Q256 474 262 471T286 463Q296 460 293 449Q289 438 280 438Q261 438 229 440L198 441L167 440Q137 438 117 438Q113 438 111 441Z" />
<glyph unicode="&#xba;" glyph-name="ordmasculine" horiz-adv-x="357" d="M145 282T117 308T89 381Q89 427 114 467T185 532T287 556Q337 556 365 531T393 462Q393 445 391 436Q382 370 331 326T196 282Q145 282 117 308ZM244 313T267 350T299 431Q303 457 303
469Q303 494 295 509T271 524Q240 524 215 486T183 405Q179 383 179 372Q179 346 188 330T213 313Q244 313 267 350ZM42 160T38 164T34 174Q34 182 43 192T63 202H286Q292 202 296 198T300 187Q300 178 287 169T262 160H47Q42 160 38 164Z" />
<glyph unicode="&#xbb;" glyph-name="guillemotright" horiz-adv-x="657" d="M368 405T387 386Q461 304 570 238Q582 231 586 227T590 218Q590 213 584 208T571 201Q425 133 270 27Q265 23 259 20T245 17Q238 17 238 23Q238 32 248 44Q299 96 349 134T459 212Q467
217 467 220Q467 222 461 228Q426 265 398 301T349 379Q347 385 347 389Q347 396 349 400T356 405Q368 405 387 386ZM157 405T176 386Q250 304 359 238Q371 231 375 227T379 218Q379 213 373 208T360 201Q214 133 59 27Q54 23 48 20T34 17Q27 17 27 23Q27 32 37
44Q88 96 138 134T248 212Q256 217 256 220Q256 222 250 228Q215 265 187 301T138 379Q136 385 136 389Q136 396 138 400T145 405Q157 405 176 386Z" />
<glyph unicode="&#xbc;" glyph-name="onequarter" horiz-adv-x="665" d="M64 278T62 281T61 288Q64 302 76 303Q101 306 111 312T127 338L183 524Q185 532 185 536Q185 548 175 555T148 568Q138 571 141 579Q144 594 158 596Q210 601 236 605T282 617Q291 620
293 620Q299 620 299 615Q299 611 292 595Q284 577 278 558L210 338Q207 328 207 321Q207 314 213 311T237 303Q247 300 244 289Q240 278 231 278Q212 278 180 280L149 281L118 280Q88 278 68 278Q64 278 62 281ZM58 -24T53 -19T47 -7Q47 -1 51 3L659 653Q673 670
703 670Q712 670 717 666T723 655Q723 650 719 646L113 -2Q92 -24 66 -24Q58 -24 53 -19ZM456 -9T459 -1L484 80L485 86Q485 93 476 93L408 92Q360 90 330 90Q327 90 326 93T329 101Q398 164 521 268Q533 278 560 297Q599 326 611 336Q626 349 632 349Q638 349
636 341L574 138Q572 133 577 133Q600 133 610 133T625 134Q628 134 629 133T630 128Q629 121 619 108T605 95H570Q559 95 557 87L539 26Q536 16 506 4T467 -9Q456 -9 459 -1ZM495 134Q500 134 502 139L533 238Q534 239 533 239T530 239Q522 233 515 228T502 217Q491
208 459 182T409 139Q407 134 409 134H495Z" />
<glyph unicode="&#xbd;" glyph-name="onehalf" horiz-adv-x="700" d="M64 278T62 281T61 288Q64 302 76 303Q101 306 111 312T127 338L183 524Q185 532 185 536Q185 548 175 555T148 568Q138 571 141 579Q144 594 158 596Q210 601 236 605T282 617Q291 620 293
620Q299 620 299 615Q299 611 292 595Q284 577 278 558L210 338Q207 328 207 321Q207 314 213 311T237 303Q247 300 244 289Q240 278 231 278Q212 278 180 280L149 281L118 280Q88 278 68 278Q64 278 62 281ZM55 -24T50 -19T44 -7Q44 -1 48 3L656 653Q670 670 700
670Q709 670 714 666T720 655Q720 650 716 646L110 -2Q89 -24 63 -24Q55 -24 50 -19ZM524 -15Q478 -13 451 -13Q399 -13 345 -16Q339 -16 339 -11Q339 -6 346 1L425 67Q492 123 525 162T558 229Q558 246 546 256T514 267Q495 267 476 256T442 228Q441 227 436 222T427
217Q418 217 422 232Q434 267 476 294T565 322Q602 322 624 303T647 249Q647 223 632 203T582 150Q566 134 525 106T477 73L449 53V52Q449 49 458 49H542Q560 49 580 61T617 94Q623 104 635 104Q641 104 641 99Q641 94 637 89Q603 40 582 -3Q576 -16 568 -16L524
-15Z" />
<glyph unicode="&#xbe;" glyph-name="threequarters" horiz-adv-x="680" d="M98 275T82 281T68 301Q70 312 79 324T95 337Q102 337 111 330T126 320Q145 306 159 306Q185 306 208 332T232 391Q232 411 221 426T192 442Q178 442 164 436T148 429Q143 429 140 432T138
441Q146 450 166 459T191 471Q231 490 249 505T268 539Q268 554 259 562T232 571Q215 571 200 564T166 543Q163 541 159 538T153 535Q149 535 147 539T146 548Q164 573 199 594T276 616Q309 615 327 599T346 556Q346 531 321 511T260 478Q258 477 257 476T259 474Q284
474 300 455T317 409Q317 374 286 343T209 294T122 275Q98 275 82 281ZM78 -24T73 -19T67 -7Q67 -1 71 3L679 653Q693 670 723 670Q732 670 737 666T743 655Q743 650 739 646L133 -2Q112 -24 86 -24Q78 -24 73 -19ZM471 -9T474 -1L499 80L500 86Q500 93 491 93L423
92Q375 90 345 90Q342 90 341 93T344 101Q413 164 536 268Q548 278 575 297Q614 326 626 336Q641 349 647 349Q653 349 651 341L589 138Q587 133 592 133Q615 133 625 133T640 134Q643 134 644 133T645 128Q644 121 634 108T620 95H585Q574 95 572 87L554 26Q551
16 521 4T482 -9Q471 -9 474 -1ZM510 134Q515 134 517 139L548 238Q549 239 548 239T545 239Q537 233 530 228T517 217Q506 208 474 182T424 139Q422 134 424 134H510Z" />
<glyph unicode="&#xbf;" glyph-name="questiondown" horiz-adv-x="364" d="M233 306T245 292T268 258T278 219Q278 184 267 159T224 111T130 65Q23 28 23 -40Q23 -71 42 -88T100 -105Q114 -105 128 -98T146 -89Q149 -88 160 -83T181 -77Q196 -77 205 -86T215 -114Q215
-141 190 -159T131 -178Q91 -178 58 -155T5 -91T-15 3Q-15 48 11 85T80 141L172 181Q199 194 209 206T219 240Q219 252 215 272Q214 277 212 285T209 297Q209 306 227 306Q233 306 245 292ZM276 497T291 481T306 443Q306 411 284 388T230 365Q206 365 191 382T176
422Q176 452 199 474T255 497Q276 497 291 481Z" />
<glyph unicode="&#xc0;" glyph-name="Agrave" horiz-adv-x="717" d="M-64 -5T-64 8Q-64 18 -57 23T-34 32Q4 41 40 59T98 103Q216 235 408 467L476 549Q490 565 510 596Q512 600 518 608T527 620T534 624Q577 624 609 646Q623 657 634 665T653 674Q664 674 664
650Q664 638 661 623L560 117Q557 102 557 90Q557 66 569 52T610 30Q626 25 632 22T639 10Q639 4 630 1T608 -3Q593 -3 545 -1Q505 2 466 2Q446 2 396 0Q350 -2 334 -2Q313 -2 313 12Q312 20 320 25T340 33Q383 42 401 56T428 104L459 224Q460 226 460 230Q460
246 439 246L300 245Q280 245 266 228L186 123Q159 89 159 68Q159 44 199 34Q224 26 224 12Q223 6 214 2T193 -2L146 -1Q110 1 90 1Q70 1 53 0T22 -2Q-13 -5 -41 -5Q-64 -5 -64 8ZM454 287Q464 287 468 291T476 306L523 525Q528 544 521 544Q518 544 514 542T506
535L325 307Q317 297 317 293Q317 287 338 287H454ZM659 695T648 702Q545 761 491 795Q482 802 478 806T474 816Q474 826 497 836T539 851L546 852Q559 852 570 840Q594 815 624 776L671 721Q681 712 681 703Q681 695 672 695Q659 695 648 702Z" />
<glyph unicode="&#xc1;" glyph-name="Aacute" horiz-adv-x="717" d="M-64 -5T-64 8Q-64 18 -57 23T-34 32Q4 41 40 59T98 103Q216 235 408 467L476 549Q490 565 510 596Q512 600 518 608T527 620T534 624Q577 624 609 646Q623 657 634 665T653 674Q664 674 664
650Q664 638 661 623L560 117Q557 102 557 90Q557 66 569 52T610 30Q626 25 632 22T639 10Q639 4 630 1T608 -3Q593 -3 545 -1Q505 2 466 2Q446 2 396 0Q350 -2 334 -2Q313 -2 313 12Q312 20 320 25T340 33Q383 42 401 56T428 104L459 224Q460 226 460 230Q460
246 439 246L300 245Q280 245 266 228L186 123Q159 89 159 68Q159 44 199 34Q224 26 224 12Q223 6 214 2T193 -2L146 -1Q110 1 90 1Q70 1 53 0T22 -2Q-13 -5 -41 -5Q-64 -5 -64 8ZM454 287Q464 287 468 291T476 306L523 525Q528 544 521 544Q518 544 514 542T506
535L325 307Q317 297 317 293Q317 287 338 287H454ZM585 688T583 695V697Q583 701 590 715Q637 791 679 844Q689 858 710 858Q725 858 752 849T779 830Q778 824 774 819T763 808Q711 766 616 698Q602 688 593 688Q585 688 583 695Z" />
<glyph unicode="&#xc2;" glyph-name="Acircumflex" horiz-adv-x="717" d="M-64 -5T-64 8Q-64 18 -57 23T-34 32Q4 41 40 59T98 103Q216 235 408 467L476 549Q490 565 510 596Q512 600 518 608T527 620T534 624Q577 624 609 646Q623 657 634 665T653 674Q664 674
664 650Q664 638 661 623L560 117Q557 102 557 90Q557 66 569 52T610 30Q626 25 632 22T639 10Q639 4 630 1T608 -3Q593 -3 545 -1Q505 2 466 2Q446 2 396 0Q350 -2 334 -2Q313 -2 313 12Q312 20 320 25T340 33Q383 42 401 56T428 104L459 224Q460 226 460 230Q460
246 439 246L300 245Q280 245 266 228L186 123Q159 89 159 68Q159 44 199 34Q224 26 224 12Q223 6 214 2T193 -2L146 -1Q110 1 90 1Q70 1 53 0T22 -2Q-13 -5 -41 -5Q-64 -5 -64 8ZM454 287Q464 287 468 291T476 306L523 525Q528 544 521 544Q518 544 514 542T506
535L325 307Q317 297 317 293Q317 287 338 287H454ZM477 694T479 705Q482 714 490 720L619 809Q643 826 653 831T673 836Q685 836 693 830T714 809L789 720Q794 715 794 705Q791 693 776 693Q765 693 729 711T669 745Q663 748 656 748Q651 748 643 745Q617 732
564 713T495 694Q477 694 479 705Z" />
<glyph unicode="&#xc3;" glyph-name="Atilde" horiz-adv-x="717" d="M-64 -5T-64 8Q-64 18 -57 23T-34 32Q4 41 40 59T98 103Q216 235 408 467L476 549Q490 565 510 596Q512 600 518 608T527 620T534 624Q577 624 609 646Q623 657 634 665T653 674Q664 674 664
650Q664 638 661 623L560 117Q557 102 557 90Q557 66 569 52T610 30Q626 25 632 22T639 10Q639 4 630 1T608 -3Q593 -3 545 -1Q505 2 466 2Q446 2 396 0Q350 -2 334 -2Q313 -2 313 12Q312 20 320 25T340 33Q383 42 401 56T428 104L459 224Q460 226 460 230Q460
246 439 246L300 245Q280 245 266 228L186 123Q159 89 159 68Q159 44 199 34Q224 26 224 12Q223 6 214 2T193 -2L146 -1Q110 1 90 1Q70 1 53 0T22 -2Q-13 -5 -41 -5Q-64 -5 -64 8ZM454 287Q464 287 468 291T476 306L523 525Q528 544 521 544Q518 544 514 542T506
535L325 307Q317 297 317 293Q317 287 338 287H454ZM506 691T500 697T493 707Q493 714 509 738T543 782T572 802Q588 802 626 800L650 799Q698 795 727 795Q746 795 764 815Q770 821 776 828T784 836Q790 836 797 830T805 818Q805 812 789 793Q778 780 765 761T747
734Q742 727 733 724T717 720Q710 720 650 724Q580 730 561 730Q546 730 531 713Q524 706 519 699T511 691Q506 691 500 697Z" />
<glyph unicode="&#xc4;" glyph-name="Adieresis" horiz-adv-x="717" d="M-64 -5T-64 8Q-64 18 -57 23T-34 32Q4 41 40 59T98 103Q216 235 408 467L476 549Q490 565 510 596Q512 600 518 608T527 620T534 624Q577 624 609 646Q623 657 634 665T653 674Q664 674
664 650Q664 638 661 623L560 117Q557 102 557 90Q557 66 569 52T610 30Q626 25 632 22T639 10Q639 4 630 1T608 -3Q593 -3 545 -1Q505 2 466 2Q446 2 396 0Q350 -2 334 -2Q313 -2 313 12Q312 20 320 25T340 33Q383 42 401 56T428 104L459 224Q460 226 460 230Q460
246 439 246L300 245Q280 245 266 228L186 123Q159 89 159 68Q159 44 199 34Q224 26 224 12Q223 6 214 2T193 -2L146 -1Q110 1 90 1Q70 1 53 0T22 -2Q-13 -5 -41 -5Q-64 -5 -64 8ZM454 287Q464 287 468 291T476 306L523 525Q528 544 521 544Q518 544 514 542T506
535L325 307Q317 297 317 293Q317 287 338 287H454ZM516 692T501 707T486 743Q486 775 509 798T568 821Q589 821 603 805T618 766Q618 737 594 715T538 692Q516 692 501 707ZM716 692T701 707T685 742Q685 775 708 798T767 821Q789 821 803 805T818 766Q818 737
794 715T737 692Q716 692 701 707Z" />
<glyph unicode="&#xc5;" glyph-name="Aring" horiz-adv-x="717" d="M-64 -5T-64 8Q-64 18 -57 23T-34 32Q4 41 40 59T98 103Q216 235 408 467L476 549Q490 565 510 596Q512 600 518 608T527 620T534 624Q577 624 609 646Q623 657 634 665T653 674Q664 674 664
650Q664 638 661 623L560 117Q557 102 557 90Q557 66 569 52T610 30Q626 25 632 22T639 10Q639 4 630 1T608 -3Q593 -3 545 -1Q505 2 466 2Q446 2 396 0Q350 -2 334 -2Q313 -2 313 12Q312 20 320 25T340 33Q383 42 401 56T428 104L459 224Q460 226 460 230Q460
246 439 246L300 245Q280 245 266 228L186 123Q159 89 159 68Q159 44 199 34Q224 26 224 12Q223 6 214 2T193 -2L146 -1Q110 1 90 1Q70 1 53 0T22 -2Q-13 -5 -41 -5Q-64 -5 -64 8ZM454 287Q464 287 468 291T476 306L523 525Q528 544 521 544Q518 544 514 542T506
535L325 307Q317 297 317 293Q317 287 338 287H454ZM600 697T574 713T548 757Q548 802 582 830T668 858Q702 858 728 841T755 795Q755 751 720 724T634 697Q600 697 574 713ZM671 725T685 744T699 790Q699 806 688 816T659 827Q634 827 619 808T603 762Q603 746
615 736T645 725Q671 725 685 744Z" />
<glyph unicode="&#xc6;" glyph-name="AE" horiz-adv-x="862" d="M-69 -5T-65 9Q-62 17 -55 22T-32 31Q-3 39 28 61T84 111L510 596Q513 601 513 604Q513 611 502 612L443 623Q426 626 426 638Q426 645 433 649T451 653Q469 653 529 651Q593 649 622 649H764Q829
649 894 659Q914 662 925 662Q932 662 937 658T941 645Q939 616 933 581T919 522Q916 512 911 507T900 502Q889 502 889 516Q887 544 885 560T877 585Q870 599 855 607T816 615H719Q684 615 670 573Q646 510 608 372Q605 362 605 355Q605 341 620 341H668Q696 341
709 342Q728 343 742 354T771 385L796 411Q800 413 803 413Q809 413 809 406Q807 399 804 383T795 353Q786 327 772 272Q768 252 765 241Q759 218 749 218Q741 218 737 226T733 246Q733 272 725 286T701 301L606 302Q585 302 575 271Q551 189 535 132L527 103Q522
85 522 75Q522 40 561 40H653Q702 40 736 65Q752 76 766 93T800 137Q809 151 821 151Q827 151 829 146T830 135Q812 80 767 10Q759 -4 743 -4L632 -2Q502 0 429 0Q409 0 367 -2Q334 -5 300 -5Q290 -5 285 -1T282 9Q285 22 312 28Q351 38 369 51T398 97L416 159Q436
227 445 255Q446 257 446 262Q446 273 432 273H303Q286 273 270 253Q190 152 160 110Q142 86 142 69Q142 55 154 47T190 32Q214 26 209 11Q206 -2 182 -2L132 -1Q96 1 75 1Q54 1 39 0T14 -2Q-15 -5 -42 -5Q-69 -5 -65 9ZM448 314Q457 314 461 317T467 328L533 553Q535
564 531 564Q526 564 521 556L335 330Q329 323 329 319Q329 314 344 314H448Z" />
<glyph unicode="&#xc7;" glyph-name="Ccedilla" horiz-adv-x="654" d="M256 -14T197 19T102 113T66 247Q66 364 125 459T283 609T500 664Q556 664 610 645Q616 643 634 637T665 631Q676 631 689 637Q707 647 716 647Q727 647 727 637Q727 631 723 626Q705 602
683 553T651 468Q646 446 630 446Q621 446 617 457T614 486Q615 493 615 507Q615 547 595 575Q578 600 553 615T498 630Q419 630 350 567T240 403T198 201Q198 110 242 67T355 23Q417 23 463 57T556 157Q559 160 563 167T572 177T581 181Q588 181 591 175T593 157Q585
120 555 56T514 -9Q506 -9 500 -5T491 2Q478 11 460 11Q450 11 434 6T410 -1Q362 -14 321 -14Q256 -14 197 19ZM209 -281T184 -262T159 -220Q159 -186 185 -186Q196 -186 206 -191T231 -209Q234 -211 243 -219T261 -232T279 -236Q289 -236 294 -230T300 -213Q300
-203 295 -195T281 -178T269 -166Q236 -133 236 -111Q236 -87 274 -49T358 17H394Q324 -34 324 -71Q324 -80 331 -89T356 -114Q372 -130 379 -141T387 -164Q387 -184 362 -212T304 -260T245 -281Q209 -281 184 -262Z" />
<glyph unicode="&#xc8;" glyph-name="Egrave" horiz-adv-x="574" d="M-47 -5T-47 7Q-47 14 -39 19T-16 28Q27 38 45 52T74 97L213 550Q219 570 219 582Q219 599 208 607T167 621Q143 626 146 640Q148 654 184 654L228 652Q303 649 307 649L471 650Q544 650 573
656T607 662Q612 662 617 657T622 644Q622 635 613 603Q597 548 595 521Q594 511 589 506T578 501Q573 501 569 506T564 522Q562 577 549 597T498 618H405Q381 618 367 606T343 559L289 379Q287 374 287 366Q287 352 306 352L408 354Q432 354 449 367T483 404Q490
414 498 421T513 428Q521 428 521 418Q521 411 517 403Q502 371 488 330Q477 295 468 251Q462 227 451 227Q444 227 440 235T436 252Q439 315 402 315L297 316Q283 316 274 310T260 289L209 112Q203 88 203 73Q203 52 215 43T254 33H364Q404 33 444 59Q461 71 476
91T511 142Q513 144 516 148T522 155T529 157Q539 157 539 135Q539 120 522 78T489 12Q479 -4 459 -4L319 -2Q175 0 105 0Q72 0 39 -3Q-7 -5 -28 -5Q-47 -5 -47 7ZM441 695T430 702Q327 761 273 795Q264 802 260 806T256 816Q256 826 279 836T321 851L328 852Q341
852 352 840Q376 815 406 776L453 721Q463 712 463 703Q463 695 454 695Q441 695 430 702Z" />
<glyph unicode="&#xc9;" glyph-name="Eacute" horiz-adv-x="574" d="M-47 -5T-47 7Q-47 14 -39 19T-16 28Q27 38 45 52T74 97L213 550Q219 570 219 582Q219 599 208 607T167 621Q143 626 146 640Q148 654 184 654L228 652Q303 649 307 649L471 650Q544 650 573
656T607 662Q612 662 617 657T622 644Q622 635 613 603Q597 548 595 521Q594 511 589 506T578 501Q573 501 569 506T564 522Q562 577 549 597T498 618H405Q381 618 367 606T343 559L289 379Q287 374 287 366Q287 352 306 352L408 354Q432 354 449 367T483 404Q490
414 498 421T513 428Q521 428 521 418Q521 411 517 403Q502 371 488 330Q477 295 468 251Q462 227 451 227Q444 227 440 235T436 252Q439 315 402 315L297 316Q283 316 274 310T260 289L209 112Q203 88 203 73Q203 52 215 43T254 33H364Q404 33 444 59Q461 71 476
91T511 142Q513 144 516 148T522 155T529 157Q539 157 539 135Q539 120 522 78T489 12Q479 -4 459 -4L319 -2Q175 0 105 0Q72 0 39 -3Q-7 -5 -28 -5Q-47 -5 -47 7ZM367 688T365 695V697Q365 701 372 715Q419 791 461 844Q471 858 492 858Q507 858 534 849T561 830Q560
824 556 819T545 808Q493 766 398 698Q384 688 375 688Q367 688 365 695Z" />
<glyph unicode="&#xca;" glyph-name="Ecircumflex" horiz-adv-x="574" d="M-47 -5T-47 7Q-47 14 -39 19T-16 28Q27 38 45 52T74 97L213 550Q219 570 219 582Q219 599 208 607T167 621Q143 626 146 640Q148 654 184 654L228 652Q303 649 307 649L471 650Q544 650
573 656T607 662Q612 662 617 657T622 644Q622 635 613 603Q597 548 595 521Q594 511 589 506T578 501Q573 501 569 506T564 522Q562 577 549 597T498 618H405Q381 618 367 606T343 559L289 379Q287 374 287 366Q287 352 306 352L408 354Q432 354 449 367T483 404Q490
414 498 421T513 428Q521 428 521 418Q521 411 517 403Q502 371 488 330Q477 295 468 251Q462 227 451 227Q444 227 440 235T436 252Q439 315 402 315L297 316Q283 316 274 310T260 289L209 112Q203 88 203 73Q203 52 215 43T254 33H364Q404 33 444 59Q461 71 476
91T511 142Q513 144 516 148T522 155T529 157Q539 157 539 135Q539 120 522 78T489 12Q479 -4 459 -4L319 -2Q175 0 105 0Q72 0 39 -3Q-7 -5 -28 -5Q-47 -5 -47 7ZM259 694T261 705Q264 714 272 720L401 809Q425 826 435 831T455 836Q467 836 475 830T496 809L571
720Q576 715 576 705Q573 693 558 693Q547 693 511 711T451 745Q445 748 438 748Q433 748 425 745Q399 732 346 713T277 694Q259 694 261 705Z" />
<glyph unicode="&#xcb;" glyph-name="Edieresis" horiz-adv-x="574" d="M-47 -5T-47 7Q-47 14 -39 19T-16 28Q27 38 45 52T74 97L213 550Q219 570 219 582Q219 599 208 607T167 621Q143 626 146 640Q148 654 184 654L228 652Q303 649 307 649L471 650Q544 650
573 656T607 662Q612 662 617 657T622 644Q622 635 613 603Q597 548 595 521Q594 511 589 506T578 501Q573 501 569 506T564 522Q562 577 549 597T498 618H405Q381 618 367 606T343 559L289 379Q287 374 287 366Q287 352 306 352L408 354Q432 354 449 367T483 404Q490
414 498 421T513 428Q521 428 521 418Q521 411 517 403Q502 371 488 330Q477 295 468 251Q462 227 451 227Q444 227 440 235T436 252Q439 315 402 315L297 316Q283 316 274 310T260 289L209 112Q203 88 203 73Q203 52 215 43T254 33H364Q404 33 444 59Q461 71 476
91T511 142Q513 144 516 148T522 155T529 157Q539 157 539 135Q539 120 522 78T489 12Q479 -4 459 -4L319 -2Q175 0 105 0Q72 0 39 -3Q-7 -5 -28 -5Q-47 -5 -47 7ZM298 692T283 707T268 743Q268 775 291 798T350 821Q371 821 385 805T400 766Q400 737 376 715T320
692Q298 692 283 707ZM498 692T483 707T467 742Q467 775 490 798T549 821Q571 821 585 805T600 766Q600 737 576 715T519 692Q498 692 483 707Z" />
<glyph unicode="&#xcc;" glyph-name="Igrave" horiz-adv-x="372" d="M-25 -4T-30 -1T-34 9Q-31 24 -4 30Q37 38 57 52T86 97L226 551Q231 571 231 580Q231 596 220 604T182 620Q160 624 165 641Q166 647 173 650T191 654Q216 654 260 652Q300 650 321 650Q338
650 382 652Q428 654 453 654Q473 654 470 640Q469 632 462 628T439 620Q397 609 380 596T352 550L221 122Q211 87 211 74Q211 55 221 47T256 32Q275 28 281 23T286 10Q283 -3 261 -3Q237 -3 187 -1Q141 1 121 1Q100 1 56 -1Q20 -4 -16 -4Q-25 -4 -30 -1ZM359 695T348
702Q245 761 191 795Q182 802 178 806T174 816Q174 826 197 836T239 851L246 852Q259 852 270 840Q294 815 324 776L371 721Q381 712 381 703Q381 695 372 695Q359 695 348 702Z" />
<glyph unicode="&#xcd;" glyph-name="Iacute" horiz-adv-x="372" d="M-25 -4T-30 -1T-34 9Q-31 24 -4 30Q37 38 57 52T86 97L226 551Q231 571 231 580Q231 596 220 604T182 620Q160 624 165 641Q166 647 173 650T191 654Q216 654 260 652Q300 650 321 650Q338
650 382 652Q428 654 453 654Q473 654 470 640Q469 632 462 628T439 620Q397 609 380 596T352 550L221 122Q211 87 211 74Q211 55 221 47T256 32Q275 28 281 23T286 10Q283 -3 261 -3Q237 -3 187 -1Q141 1 121 1Q100 1 56 -1Q20 -4 -16 -4Q-25 -4 -30 -1ZM285 688T283
695V697Q283 701 290 715Q337 791 379 844Q389 858 410 858Q425 858 452 849T479 830Q478 824 474 819T463 808Q411 766 316 698Q302 688 293 688Q285 688 283 695Z" />
<glyph unicode="&#xce;" glyph-name="Icircumflex" horiz-adv-x="372" d="M-25 -4T-30 -1T-34 9Q-31 24 -4 30Q37 38 57 52T86 97L226 551Q231 571 231 580Q231 596 220 604T182 620Q160 624 165 641Q166 647 173 650T191 654Q216 654 260 652Q300 650 321 650Q338
650 382 652Q428 654 453 654Q473 654 470 640Q469 632 462 628T439 620Q397 609 380 596T352 550L221 122Q211 87 211 74Q211 55 221 47T256 32Q275 28 281 23T286 10Q283 -3 261 -3Q237 -3 187 -1Q141 1 121 1Q100 1 56 -1Q20 -4 -16 -4Q-25 -4 -30 -1ZM177 694T179
705Q182 714 190 720L319 809Q343 826 353 831T373 836Q385 836 393 830T414 809L489 720Q494 715 494 705Q491 693 476 693Q465 693 429 711T369 745Q363 748 356 748Q351 748 343 745Q317 732 264 713T195 694Q177 694 179 705Z" />
<glyph unicode="&#xcf;" glyph-name="Idieresis" horiz-adv-x="372" d="M-25 -4T-30 -1T-34 9Q-31 24 -4 30Q37 38 57 52T86 97L226 551Q231 571 231 580Q231 596 220 604T182 620Q160 624 165 641Q166 647 173 650T191 654Q216 654 260 652Q300 650 321 650Q338
650 382 652Q428 654 453 654Q473 654 470 640Q469 632 462 628T439 620Q397 609 380 596T352 550L221 122Q211 87 211 74Q211 55 221 47T256 32Q275 28 281 23T286 10Q283 -3 261 -3Q237 -3 187 -1Q141 1 121 1Q100 1 56 -1Q20 -4 -16 -4Q-25 -4 -30 -1ZM216 692T201
707T186 743Q186 775 209 798T268 821Q289 821 303 805T318 766Q318 737 294 715T238 692Q216 692 201 707ZM416 692T401 707T385 742Q385 775 408 798T467 821Q489 821 503 805T518 766Q518 737 494 715T437 692Q416 692 401 707Z" />
<glyph unicode="&#xd0;" glyph-name="Eth" horiz-adv-x="739" d="M536 654T603 620T707 524T743 381Q743 279 686 190T529 47T309 -7Q269 -7 207 -2Q135 2 114 2Q86 2 54 -1Q43 -2 21 -3T-17 -4Q-26 -4 -31 -1T-35 9Q-32 25 -5 30Q37 35 54 49T83 98L150 310H78Q66
310 66 326Q66 339 76 349T100 360H166L228 555Q231 566 231 574Q231 594 215 603T163 620Q143 624 146 641Q147 647 155 650T172 654Q199 654 249 652Q297 650 315 650Q332 650 366 652Q408 654 444 654Q536 654 603 620ZM390 27T458 81T568 221T609 399Q609 511
564 564T438 618Q396 618 381 608T357 572L292 360H417Q425 360 429 355T430 343Q421 328 408 319T383 310H277L221 129Q215 110 215 95Q215 60 241 44T311 27Q390 27 458 81Z" />
<glyph unicode="&#xd1;" glyph-name="Ntilde" horiz-adv-x="778" d="M-1 -4T-7 -1T-12 9Q-11 17 -4 21T18 29Q55 38 74 56T106 106L251 517Q261 544 261 566Q261 592 242 605T181 622Q149 625 149 643Q149 650 158 654T178 658Q201 658 259 656Q304 653 345 653Q365
653 377 633L585 179Q587 174 591 169T599 164Q603 164 606 168T612 180Q625 213 660 334T707 514Q711 531 711 550Q711 582 692 597T629 621Q608 624 609 637Q609 643 618 647T638 651Q647 651 707 648Q739 646 749 646Q775 646 800 649Q857 652 869 652Q890 652
890 639Q890 633 880 628T854 620Q828 616 813 608T787 582T763 528Q739 457 703 343T637 138Q631 117 631 105Q631 88 643 68Q651 49 670 34Q675 30 682 24T689 12Q689 5 685 3T673 0Q641 0 607 -4Q601 -5 593 -6T574 -7Q550 -7 538 3T515 38Q498 76 449 192Q438
217 386 340T314 499Q304 515 298 515Q290 515 280 490Q191 234 162 105Q159 92 159 82Q159 61 173 50T221 29Q249 23 245 10Q244 4 236 1T216 -3Q185 -3 155 -1Q133 1 119 1Q109 1 46 -2L9 -4Q-1 -4 -7 -1ZM409 691T403 697T396 707Q396 714 412 738T446 782T475
802Q491 802 529 800L553 799Q601 795 630 795Q649 795 667 815Q673 821 679 828T687 836Q693 836 700 830T708 818Q708 812 692 793Q681 780 668 761T650 734Q645 727 636 724T620 720Q613 720 553 724Q483 730 464 730Q449 730 434 713Q427 706 422 699T414 691Q409
691 403 697Z" />
<glyph unicode="&#xd2;" glyph-name="Ograve" horiz-adv-x="693" d="M227 -14T174 19T93 110T64 242Q64 347 116 444T261 603T469 664Q539 664 592 631T673 540T702 408Q702 303 650 206T505 47T297 -14Q227 -14 174 19ZM372 21T437 92T542 267T581 460Q581 533
552 582T467 632Q395 632 330 560T225 383T185 189Q185 117 213 69T298 21Q372 21 437 92ZM526 695T515 702Q412 761 358 795Q349 802 345 806T341 816Q341 826 364 836T406 851L413 852Q426 852 437 840Q461 815 491 776L538 721Q548 712 548 703Q548 695 539
695Q526 695 515 702Z" />
<glyph unicode="&#xd3;" glyph-name="Oacute" horiz-adv-x="693" d="M227 -14T174 19T93 110T64 242Q64 347 116 444T261 603T469 664Q539 664 592 631T673 540T702 408Q702 303 650 206T505 47T297 -14Q227 -14 174 19ZM372 21T437 92T542 267T581 460Q581 533
552 582T467 632Q395 632 330 560T225 383T185 189Q185 117 213 69T298 21Q372 21 437 92ZM452 688T450 695V697Q450 701 457 715Q504 791 546 844Q556 858 577 858Q592 858 619 849T646 830Q645 824 641 819T630 808Q578 766 483 698Q469 688 460 688Q452 688
450 695Z" />
<glyph unicode="&#xd4;" glyph-name="Ocircumflex" horiz-adv-x="693" d="M227 -14T174 19T93 110T64 242Q64 347 116 444T261 603T469 664Q539 664 592 631T673 540T702 408Q702 303 650 206T505 47T297 -14Q227 -14 174 19ZM372 21T437 92T542 267T581 460Q581
533 552 582T467 632Q395 632 330 560T225 383T185 189Q185 117 213 69T298 21Q372 21 437 92ZM344 694T346 705Q349 714 357 720L486 809Q510 826 520 831T540 836Q552 836 560 830T581 809L656 720Q661 715 661 705Q658 693 643 693Q632 693 596 711T536 745Q530
748 523 748Q518 748 510 745Q484 732 431 713T362 694Q344 694 346 705Z" />
<glyph unicode="&#xd5;" glyph-name="Otilde" horiz-adv-x="693" d="M227 -14T174 19T93 110T64 242Q64 347 116 444T261 603T469 664Q539 664 592 631T673 540T702 408Q702 303 650 206T505 47T297 -14Q227 -14 174 19ZM372 21T437 92T542 267T581 460Q581 533
552 582T467 632Q395 632 330 560T225 383T185 189Q185 117 213 69T298 21Q372 21 437 92ZM373 691T367 697T360 707Q360 714 376 738T410 782T439 802Q455 802 493 800L517 799Q565 795 594 795Q613 795 631 815Q637 821 643 828T651 836Q657 836 664 830T672
818Q672 812 656 793Q645 780 632 761T614 734Q609 727 600 724T584 720Q577 720 517 724Q447 730 428 730Q413 730 398 713Q391 706 386 699T378 691Q373 691 367 697Z" />
<glyph unicode="&#xd6;" glyph-name="Odieresis" horiz-adv-x="693" d="M227 -14T174 19T93 110T64 242Q64 347 116 444T261 603T469 664Q539 664 592 631T673 540T702 408Q702 303 650 206T505 47T297 -14Q227 -14 174 19ZM372 21T437 92T542 267T581 460Q581
533 552 582T467 632Q395 632 330 560T225 383T185 189Q185 117 213 69T298 21Q372 21 437 92ZM383 692T368 707T353 743Q353 775 376 798T435 821Q456 821 470 805T485 766Q485 737 461 715T405 692Q383 692 368 707ZM583 692T568 707T552 742Q552 775 575 798T634
821Q656 821 670 805T685 766Q685 737 661 715T604 692Q583 692 568 707Z" />
<glyph unicode="&#xd7;" glyph-name="multiply" horiz-adv-x="582" d="M455 51T448 58L303 203Q300 206 297 206Q295 206 289 202L151 63Q147 59 142 58T133 58Q126 60 118 73T110 100Q110 110 115 115L245 245Q250 250 250 252Q250 255 245 260L118 388Q113 393
113 402Q113 413 119 425T131 443Q134 446 140 446Q148 446 152 442L290 303Q294 299 296 299T303 302L445 445Q452 450 457 450Q463 450 466 447Q485 421 485 405Q485 397 478 391L346 258Q340 252 346 246L484 109Q490 103 490 93Q490 81 481 66T463 51Q455 51
448 58Z" />
<glyph unicode="&#xd8;" glyph-name="Oslash" horiz-adv-x="701" d="M750 665T757 657T765 638Q765 614 747 598L676 535Q702 478 702 408Q702 303 650 206T505 47T297 -14Q202 -14 138 47L84 1Q67 -14 58 -14Q44 -14 33 -4T21 17Q21 35 38 50L98 99Q64 162 64
242Q64 347 116 444T261 603T469 664Q523 664 566 645T641 589L713 651Q727 665 740 665Q750 665 757 657ZM395 632T330 560T225 383T185 189Q185 175 186 169L572 534Q561 579 535 605T467 632Q395 632 330 560ZM372 21T437 91T541 265T581 457L200 96Q213 61
238 41T298 21Q372 21 437 91Z" />
<glyph unicode="&#xd9;" glyph-name="Ugrave" horiz-adv-x="708" d="M213 -14T155 33T97 166Q97 209 111 254L199 541Q205 559 205 573Q205 610 175 619Q149 626 150 641Q151 647 161 650T185 654Q202 654 240 652Q280 650 299 650Q316 650 358 652L414 653Q440
653 437 640Q435 633 427 629T407 621T387 614Q369 607 352 587T324 532L232 237Q222 204 222 173Q222 115 258 82T350 49Q435 49 495 109T585 264Q617 363 646 458Q664 522 664 558Q664 584 655 597T627 618Q623 619 614 622T600 629T595 638Q595 653 628 653L685
652Q700 651 729 651Q748 651 772 653L812 654Q838 654 834 641Q831 628 799 620Q776 614 763 605T738 577T713 521Q683 434 658 355L625 256Q582 126 508 56T310 -14Q213 -14 155 33ZM555 695T544 702Q441 761 387 795Q378 802 374 806T370 816Q370 826 393 836T435
851L442 852Q455 852 466 840Q490 815 520 776L567 721Q577 712 577 703Q577 695 568 695Q555 695 544 702Z" />
<glyph unicode="&#xda;" glyph-name="Uacute" horiz-adv-x="708" d="M213 -14T155 33T97 166Q97 209 111 254L199 541Q205 559 205 573Q205 610 175 619Q149 626 150 641Q151 647 161 650T185 654Q202 654 240 652Q280 650 299 650Q316 650 358 652L414 653Q440
653 437 640Q435 633 427 629T407 621T387 614Q369 607 352 587T324 532L232 237Q222 204 222 173Q222 115 258 82T350 49Q435 49 495 109T585 264Q617 363 646 458Q664 522 664 558Q664 584 655 597T627 618Q623 619 614 622T600 629T595 638Q595 653 628 653L685
652Q700 651 729 651Q748 651 772 653L812 654Q838 654 834 641Q831 628 799 620Q776 614 763 605T738 577T713 521Q683 434 658 355L625 256Q582 126 508 56T310 -14Q213 -14 155 33ZM481 688T479 695V697Q479 701 486 715Q533 791 575 844Q585 858 606 858Q621
858 648 849T675 830Q674 824 670 819T659 808Q607 766 512 698Q498 688 489 688Q481 688 479 695Z" />
<glyph unicode="&#xdb;" glyph-name="Ucircumflex" horiz-adv-x="708" d="M213 -14T155 33T97 166Q97 209 111 254L199 541Q205 559 205 573Q205 610 175 619Q149 626 150 641Q151 647 161 650T185 654Q202 654 240 652Q280 650 299 650Q316 650 358 652L414 653Q440
653 437 640Q435 633 427 629T407 621T387 614Q369 607 352 587T324 532L232 237Q222 204 222 173Q222 115 258 82T350 49Q435 49 495 109T585 264Q617 363 646 458Q664 522 664 558Q664 584 655 597T627 618Q623 619 614 622T600 629T595 638Q595 653 628 653L685
652Q700 651 729 651Q748 651 772 653L812 654Q838 654 834 641Q831 628 799 620Q776 614 763 605T738 577T713 521Q683 434 658 355L625 256Q582 126 508 56T310 -14Q213 -14 155 33ZM373 694T375 705Q378 714 386 720L515 809Q539 826 549 831T569 836Q581 836
589 830T610 809L685 720Q690 715 690 705Q687 693 672 693Q661 693 625 711T565 745Q559 748 552 748Q547 748 539 745Q513 732 460 713T391 694Q373 694 375 705Z" />
<glyph unicode="&#xdc;" glyph-name="Udieresis" horiz-adv-x="708" d="M213 -14T155 33T97 166Q97 209 111 254L199 541Q205 559 205 573Q205 610 175 619Q149 626 150 641Q151 647 161 650T185 654Q202 654 240 652Q280 650 299 650Q316 650 358 652L414 653Q440
653 437 640Q435 633 427 629T407 621T387 614Q369 607 352 587T324 532L232 237Q222 204 222 173Q222 115 258 82T350 49Q435 49 495 109T585 264Q617 363 646 458Q664 522 664 558Q664 584 655 597T627 618Q623 619 614 622T600 629T595 638Q595 653 628 653L685
652Q700 651 729 651Q748 651 772 653L812 654Q838 654 834 641Q831 628 799 620Q776 614 763 605T738 577T713 521Q683 434 658 355L625 256Q582 126 508 56T310 -14Q213 -14 155 33ZM412 692T397 707T382 743Q382 775 405 798T464 821Q485 821 499 805T514 766Q514
737 490 715T434 692Q412 692 397 707ZM612 692T597 707T581 742Q581 775 604 798T663 821Q685 821 699 805T714 766Q714 737 690 715T633 692Q612 692 597 707Z" />
<glyph unicode="&#xdd;" glyph-name="Yacute" horiz-adv-x="627" d="M110 -6T104 -3T98 6Q98 15 107 21T133 29Q172 36 194 55T227 109L273 256Q281 279 281 301Q281 324 274 348L215 551Q206 580 194 596T162 616Q145 621 139 626T133 640Q134 646 143 650T162
654Q185 654 227 652Q262 649 301 649Q317 649 351 651Q378 654 406 654Q416 654 422 650T428 640Q427 627 393 619Q362 612 350 603T337 576Q337 566 340 551L382 376Q390 347 399 347Q406 347 426 370Q464 414 511 475L558 534Q587 569 587 588Q587 612 548 619Q537
621 530 626T524 640Q525 646 534 649T556 653Q570 653 598 651Q626 649 645 649Q659 649 677 650T705 652Q729 655 751 655Q779 655 776 641Q774 634 767 631T743 621Q712 613 679 592T625 548L588 506L453 355Q434 335 422 312T400 258L355 110Q349 91 349 77Q349
58 361 47T399 29Q413 26 418 22T423 9Q422 2 413 -1T392 -5Q368 -5 322 -1Q310 0 294 1T259 2Q239 2 193 -2Q145 -6 121 -6Q110 -6 104 -3ZM432 688T430 695V697Q430 701 437 715Q484 791 526 844Q536 858 557 858Q572 858 599 849T626 830Q625 824 621 819T610
808Q558 766 463 698Q449 688 440 688Q432 688 430 695Z" />
<glyph unicode="&#xde;" glyph-name="Thorn" horiz-adv-x="594" d="M488 545T546 493T605 355Q605 291 565 239T458 157T310 127Q265 127 265 146Q265 152 271 155T287 160Q316 164 335 167Q381 176 415 206T467 277T485 360Q485 432 453 470T372 508Q357 508
349 503T334 485T318 441L213 98Q209 86 209 75Q209 58 221 49T261 30Q272 27 276 23T279 10Q276 -3 254 -3Q230 -3 184 -1Q140 1 121 1Q100 1 56 -1Q20 -4 -16 -4Q-25 -4 -30 -1T-34 9Q-31 24 -4 30Q37 38 57 52T86 97L226 551Q231 571 231 580Q231 596 220 604T182
620Q160 624 165 641Q166 647 173 650T191 654Q216 654 260 652Q300 650 321 650Q338 650 382 652Q428 654 453 654Q473 654 470 640Q469 632 462 628T439 620Q397 609 380 596T352 550L350 544Q363 545 389 545Q488 545 546 493Z" />
<glyph unicode="&#xdf;" glyph-name="germandbls" d="M-136 -290T-167 -275T-198 -225Q-198 -203 -184 -186T-151 -169Q-144 -169 -138 -174T-125 -188T-115 -200Q-111 -204 -101 -216T-81 -235T-60 -242Q-33 -242 -19 -215T12 -116Q29 -48 41 12L70 137Q101 273
134 377Q184 546 285 626T522 706Q592 706 626 684T660 624Q660 585 625 550T526 471Q509 460 496 450Q491 446 464 427T424 387T410 342Q410 318 452 239Q455 233 466 210T484 169T490 134Q490 108 472 81T426 32Q367 -14 305 -14Q268 -14 245 2T221 44Q221 67
231 83T258 100Q273 100 296 71Q311 52 322 43T350 34Q369 34 383 48T397 82Q397 117 364 173Q345 206 334 232T322 282Q322 329 350 367T431 447Q474 482 498 504T541 555T560 612Q560 638 542 655T487 672Q406 672 342 593T246 398Q222 316 196 209T151 9Q135
-69 100 -138T15 -248T-88 -290Q-136 -290 -167 -275Z" />
<glyph unicode="&#xe0;" glyph-name="agrave" horiz-adv-x="525" d="M20 -14T1 1T-18 34Q-18 82 27 150T171 321Q217 368 254 395T309 422Q319 422 332 416T358 399Q367 389 368 389Q370 389 371 390T374 395Q379 405 384 414T390 426Q392 431 397 434T410 438Q429
438 450 426T472 402Q472 393 469 387L365 107Q362 100 362 93Q362 78 376 78Q390 78 414 95T461 138Q465 142 467 142Q472 142 475 138T478 127Q478 116 461 93T418 47Q384 19 351 3T295 -14Q275 -14 256 2T236 35Q236 45 242 58Q241 61 281 149Q283 155 283 156Q283
160 281 161T275 159Q194 67 139 27T40 -14Q20 -14 1 1ZM148 78T187 111T270 197Q304 239 324 271T344 319Q344 327 326 342Q306 357 293 357Q277 357 249 340T195 298Q157 260 129 205T100 113Q100 97 107 88T129 78Q148 78 187 111ZM343 472T336 476T323 488L220
604Q200 627 200 640Q200 652 219 668T252 685Q270 685 284 653L358 499Q362 489 362 484Q362 472 350 472Q343 472 336 476Z" />
<glyph unicode="&#xe1;" glyph-name="aacute" horiz-adv-x="525" d="M20 -14T1 1T-18 34Q-18 82 27 150T171 321Q217 368 254 395T309 422Q319 422 332 416T358 399Q367 389 368 389Q370 389 371 390T374 395Q379 405 384 414T390 426Q392 431 397 434T410 438Q429
438 450 426T472 402Q472 393 469 387L365 107Q362 100 362 93Q362 78 376 78Q390 78 414 95T461 138Q465 142 467 142Q472 142 475 138T478 127Q478 116 461 93T418 47Q384 19 351 3T295 -14Q275 -14 256 2T236 35Q236 45 242 58Q241 61 281 149Q283 155 283 156Q283
160 281 161T275 159Q194 67 139 27T40 -14Q20 -14 1 1ZM148 78T187 111T270 197Q304 239 324 271T344 319Q344 327 326 342Q306 357 293 357Q277 357 249 340T195 298Q157 260 129 205T100 113Q100 97 107 88T129 78Q148 78 187 111ZM322 472T322 484Q322 489
326 499L400 653Q414 685 432 685Q445 685 464 669T484 640Q484 627 464 604L361 488Q356 481 349 477T334 472Q322 472 322 484Z" />
<glyph unicode="&#xe2;" glyph-name="acircumflex" horiz-adv-x="525" d="M20 -14T1 1T-18 34Q-18 82 27 150T171 321Q217 368 254 395T309 422Q319 422 332 416T358 399Q367 389 368 389Q370 389 371 390T374 395Q379 405 384 414T390 426Q392 431 397 434T410
438Q429 438 450 426T472 402Q472 393 469 387L365 107Q362 100 362 93Q362 78 376 78Q390 78 414 95T461 138Q465 142 467 142Q472 142 475 138T478 127Q478 116 461 93T418 47Q384 19 351 3T295 -14Q275 -14 256 2T236 35Q236 45 242 58Q241 61 281 149Q283 155
283 156Q283 160 281 161T275 159Q194 67 139 27T40 -14Q20 -14 1 1ZM148 78T187 111T270 197Q304 239 324 271T344 319Q344 327 326 342Q306 357 293 357Q277 357 249 340T195 298Q157 260 129 205T100 113Q100 97 107 88T129 78Q148 78 187 111ZM415 672T419
664T430 635Q452 549 461 497Q463 483 459 473T445 463Q431 463 420 490Q404 526 382 567Q378 575 372 567L285 489Q257 463 246 463Q236 463 236 474Q236 486 247 500Q289 553 356 630Q393 672 407 672Q415 672 419 664Z" />
<glyph unicode="&#xe3;" glyph-name="atilde" horiz-adv-x="525" d="M20 -14T1 1T-18 34Q-18 82 27 150T171 321Q217 368 254 395T309 422Q319 422 332 416T358 399Q367 389 368 389Q370 389 371 390T374 395Q379 405 384 414T390 426Q392 431 397 434T410 438Q429
438 450 426T472 402Q472 393 469 387L365 107Q362 100 362 93Q362 78 376 78Q390 78 414 95T461 138Q465 142 467 142Q472 142 475 138T478 127Q478 116 461 93T418 47Q384 19 351 3T295 -14Q275 -14 256 2T236 35Q236 45 242 58Q241 61 281 149Q283 155 283 156Q283
160 281 161T275 159Q194 67 139 27T40 -14Q20 -14 1 1ZM148 78T187 111T270 197Q304 239 324 271T344 319Q344 327 326 342Q306 357 293 357Q277 357 249 340T195 298Q157 260 129 205T100 113Q100 97 107 88T129 78Q148 78 187 111ZM224 468T217 474T210 486Q210
492 229 517T269 565T301 587Q313 587 328 584Q364 580 364 580Q416 576 427 576Q447 576 462 594Q469 601 476 609T486 618Q492 618 499 612T507 600Q507 596 498 585T487 572L465 542Q454 525 444 512Q435 498 414 498Q397 498 363 501Q286 506 276 506Q270 506
266 504T257 497Q234 468 229 468Q224 468 217 474Z" />
<glyph unicode="&#xe4;" glyph-name="adieresis" horiz-adv-x="525" d="M20 -14T1 1T-18 34Q-18 82 27 150T171 321Q217 368 254 395T309 422Q319 422 332 416T358 399Q367 389 368 389Q370 389 371 390T374 395Q379 405 384 414T390 426Q392 431 397 434T410
438Q429 438 450 426T472 402Q472 393 469 387L365 107Q362 100 362 93Q362 78 376 78Q390 78 414 95T461 138Q465 142 467 142Q472 142 475 138T478 127Q478 116 461 93T418 47Q384 19 351 3T295 -14Q275 -14 256 2T236 35Q236 45 242 58Q241 61 281 149Q283 155
283 156Q283 160 281 161T275 159Q194 67 139 27T40 -14Q20 -14 1 1ZM148 78T187 111T270 197Q304 239 324 271T344 319Q344 327 326 342Q306 357 293 357Q277 357 249 340T195 298Q157 260 129 205T100 113Q100 97 107 88T129 78Q148 78 187 111ZM234 500T222
514T209 550Q209 582 233 606T290 630Q312 630 325 616T338 579Q338 547 314 524T255 500Q234 500 222 514ZM423 500T411 514T398 550Q398 582 423 606T480 630Q501 630 514 616T527 579Q527 547 503 524T444 500Q423 500 411 514Z" />
<glyph unicode="&#xe5;" glyph-name="aring" horiz-adv-x="525" d="M20 -14T1 1T-18 34Q-18 82 27 150T171 321Q217 368 254 395T309 422Q319 422 332 416T358 399Q367 389 368 389Q370 389 371 390T374 395Q379 405 384 414T390 426Q392 431 397 434T410 438Q429
438 450 426T472 402Q472 393 469 387L365 107Q362 100 362 93Q362 78 376 78Q390 78 414 95T461 138Q465 142 467 142Q472 142 475 138T478 127Q478 116 461 93T418 47Q384 19 351 3T295 -14Q275 -14 256 2T236 35Q236 45 242 58Q241 61 281 149Q283 155 283 156Q283
160 281 161T275 159Q194 67 139 27T40 -14Q20 -14 1 1ZM148 78T187 111T270 197Q304 239 324 271T344 319Q344 327 326 342Q306 357 293 357Q277 357 249 340T195 298Q157 260 129 205T100 113Q100 97 107 88T129 78Q148 78 187 111ZM315 486T294 503T273 548Q273
581 291 609T340 654T403 671Q434 671 455 654T477 609Q477 575 459 547T410 502T346 486Q315 486 294 503ZM383 519T403 545T423 597Q423 614 413 624T387 635Q363 635 345 611T326 559Q326 541 335 530T361 519Q383 519 403 545Z" />
<glyph unicode="&#xe6;" glyph-name="ae" horiz-adv-x="551" d="M336 223Q330 223 328 214Q324 200 322 187T319 158Q319 118 336 93T381 68Q407 68 430 83T471 124Q481 136 487 136Q491 136 494 133T497 124Q497 116 494 111Q465 55 423 20T327 -15Q304 -15 280
0T237 40T214 95Q158 36 118 11T39 -14Q20 -14 2 0T-17 35Q-17 76 10 128T85 233T193 327Q314 413 411 421Q432 427 455 427Q500 427 523 408T547 357Q547 316 511 284T425 236T338 223H336ZM463 395T440 395Q409 395 379 352T338 259Q338 255 340 254T345 253Q361
253 390 265T442 303T465 363Q463 395 440 395ZM140 78T164 96T215 151Q221 207 244 260T304 353Q258 340 209 302Q163 266 131 211T99 114Q99 78 127 78Q140 78 164 96Z" />
<glyph unicode="&#xe7;" glyph-name="ccedilla" horiz-adv-x="349" d="M100 -14T73 2T29 47T12 109Q12 184 47 258T143 379T280 427Q314 427 335 413T356 376Q356 357 344 340T319 322Q311 322 306 328T290 350Q270 389 245 389Q216 389 187 351T138 255T118 146Q118
112 135 95T181 78Q231 78 271 123Q282 136 290 136Q294 136 296 133T299 124Q299 98 273 65T208 9T130 -14Q100 -14 73 2ZM6 -281T-19 -262T-44 -220Q-44 -186 -18 -186Q-7 -186 3 -191T28 -209Q31 -211 40 -219T58 -232T76 -236Q86 -236 91 -230T97 -213Q97 -203
92 -195T78 -178T66 -166Q33 -133 33 -111Q33 -87 71 -49T155 17H191Q121 -34 121 -71Q121 -80 128 -89T153 -114Q169 -130 176 -141T184 -164Q184 -184 159 -212T101 -260T42 -281Q6 -281 -19 -262Z" />
<glyph unicode="&#xe8;" glyph-name="egrave" horiz-adv-x="367" d="M101 -15T74 1T28 45T9 101Q9 177 47 253T148 378T276 427Q324 427 349 408T374 359Q374 300 309 268T141 214Q132 213 129 205Q119 172 118 151Q117 114 135 92T186 69Q214 69 238 83T285 122Q295
133 303 133Q312 133 312 123Q312 114 309 111Q278 54 232 20T126 -15Q101 -15 74 1ZM201 256T245 284T289 364Q289 376 282 385T262 395Q238 395 211 372T164 314T141 251V249Q141 245 148 245Q201 256 245 284ZM291 472T284 476T271 488L168 604Q148 627 148
640Q148 652 167 668T200 685Q218 685 232 653L306 499Q310 489 310 484Q310 472 298 472Q291 472 284 476Z" />
<glyph unicode="&#xe9;" glyph-name="eacute" horiz-adv-x="367" d="M101 -15T74 1T28 45T9 101Q9 177 47 253T148 378T276 427Q324 427 349 408T374 359Q374 300 309 268T141 214Q132 213 129 205Q119 172 118 151Q117 114 135 92T186 69Q214 69 238 83T285 122Q295
133 303 133Q312 133 312 123Q312 114 309 111Q278 54 232 20T126 -15Q101 -15 74 1ZM201 256T245 284T289 364Q289 376 282 385T262 395Q238 395 211 372T164 314T141 251V249Q141 245 148 245Q201 256 245 284ZM270 472T270 484Q270 489 274 499L348 653Q362
685 380 685Q393 685 412 669T432 640Q432 627 412 604L309 488Q304 481 297 477T282 472Q270 472 270 484Z" />
<glyph unicode="&#xea;" glyph-name="ecircumflex" horiz-adv-x="367" d="M101 -15T74 1T28 45T9 101Q9 177 47 253T148 378T276 427Q324 427 349 408T374 359Q374 300 309 268T141 214Q132 213 129 205Q119 172 118 151Q117 114 135 92T186 69Q214 69 238 83T285
122Q295 133 303 133Q312 133 312 123Q312 114 309 111Q278 54 232 20T126 -15Q101 -15 74 1ZM201 256T245 284T289 364Q289 376 282 385T262 395Q238 395 211 372T164 314T141 251V249Q141 245 148 245Q201 256 245 284ZM363 672T367 664T378 635Q400 549 409
497Q411 483 407 473T393 463Q379 463 368 490Q352 526 330 567Q326 575 320 567L233 489Q205 463 194 463Q184 463 184 474Q184 486 195 500Q237 553 304 630Q341 672 355 672Q363 672 367 664Z" />
<glyph unicode="&#xeb;" glyph-name="edieresis" horiz-adv-x="367" d="M101 -15T74 1T28 45T9 101Q9 177 47 253T148 378T276 427Q324 427 349 408T374 359Q374 300 309 268T141 214Q132 213 129 205Q119 172 118 151Q117 114 135 92T186 69Q214 69 238 83T285
122Q295 133 303 133Q312 133 312 123Q312 114 309 111Q278 54 232 20T126 -15Q101 -15 74 1ZM201 256T245 284T289 364Q289 376 282 385T262 395Q238 395 211 372T164 314T141 251V249Q141 245 148 245Q201 256 245 284ZM182 500T170 514T157 550Q157 582 181
606T238 630Q260 630 273 616T286 579Q286 547 262 524T203 500Q182 500 170 514ZM371 500T359 514T346 550Q346 582 371 606T428 630Q449 630 462 616T475 579Q475 547 451 524T392 500Q371 500 359 514Z" />
<glyph unicode="&#xec;" glyph-name="igrave" horiz-adv-x="319" d="M58 -14T42 1T26 33Q26 45 30 53Q58 115 114 253L138 312Q140 320 134 320Q116 320 65 287Q58 283 54 283Q42 283 42 290Q42 302 71 329T142 384T215 425Q221 427 224 427Q241 427 256 412T266
384L151 103Q147 96 147 83Q147 79 150 77T156 74Q170 74 202 98T261 149Q264 152 265 152Q269 152 272 149T275 141Q275 118 240 81T159 15T79 -14Q58 -14 42 1ZM253 726T246 730T233 742L130 858Q110 881 110 894Q110 906 129 922T162 939Q180 939 194 907L268
753Q272 743 272 738Q272 726 260 726Q253 726 246 730Z" />
<glyph unicode="&#xed;" glyph-name="iacute" horiz-adv-x="319" d="M58 -14T42 1T26 33Q26 45 30 53Q58 115 114 253L138 312Q140 320 134 320Q116 320 65 287Q58 283 54 283Q42 283 42 290Q42 302 71 329T142 384T215 425Q221 427 224 427Q241 427 256 412T266
384L151 103Q147 96 147 83Q147 79 150 77T156 74Q170 74 202 98T261 149Q264 152 265 152Q269 152 272 149T275 141Q275 118 240 81T159 15T79 -14Q58 -14 42 1ZM232 470T232 482Q232 487 236 497L310 651Q324 683 342 683Q355 683 374 667T394 638Q394 625 374
602L271 486Q266 479 259 475T244 470Q232 470 232 482Z" />
<glyph unicode="&#xee;" glyph-name="icircumflex" horiz-adv-x="319" d="M58 -14T42 1T26 33Q26 45 30 53Q58 115 114 253L138 312Q140 320 134 320Q116 320 65 287Q58 283 54 283Q42 283 42 290Q42 302 71 329T142 384T215 425Q221 427 224 427Q241 427 256
412T266 384L151 103Q147 96 147 83Q147 79 150 77T156 74Q170 74 202 98T261 149Q264 152 265 152Q269 152 272 149T275 141Q275 118 240 81T159 15T79 -14Q58 -14 42 1ZM325 926T329 918T340 889Q362 803 371 751Q373 737 369 727T355 717Q341 717 330 744Q314
780 292 821Q288 829 282 821L195 743Q167 717 156 717Q146 717 146 728Q146 740 157 754Q199 807 266 884Q303 926 317 926Q325 926 329 918Z" />
<glyph unicode="&#xef;" glyph-name="idieresis" horiz-adv-x="319" d="M58 -14T42 1T26 33Q26 45 30 53Q58 115 114 253L138 312Q140 320 134 320Q116 320 65 287Q58 283 54 283Q42 283 42 290Q42 302 71 329T142 384T215 425Q221 427 224 427Q241 427 256 412T266
384L151 103Q147 96 147 83Q147 79 150 77T156 74Q170 74 202 98T261 149Q264 152 265 152Q269 152 272 149T275 141Q275 118 240 81T159 15T79 -14Q58 -14 42 1ZM400 754T388 768T375 804Q375 836 399 860T456 884Q478 884 491 870T504 833Q504 801 480 778T421
754Q400 754 388 768ZM589 754T577 768T564 804Q564 836 589 860T646 884Q667 884 680 870T693 833Q693 801 669 778T610 754Q589 754 577 768Z" />
<glyph unicode="&#xf0;" glyph-name="eth" horiz-adv-x="438" d="M111 -14T84 2T41 48T27 115Q30 182 64 255T158 377T294 427Q310 427 326 420Q338 415 340 415Q344 415 347 431T350 467Q350 507 339 542L215 479Q208 476 202 476Q190 476 190 487Q190 503 195
517T213 537L324 593Q295 657 231 670Q208 675 208 687Q208 697 216 701T241 705Q293 705 334 685T404 627L497 673Q503 676 509 676Q516 676 520 673T525 664Q525 649 518 636T497 616L430 583Q456 525 456 454Q456 348 414 239T300 58T141 -14Q111 -14 84 2ZM192
22T231 76T298 205T330 335Q331 364 323 378T295 392Q263 392 223 335T153 201T124 72Q124 22 159 22Q192 22 231 76Z" />
<glyph unicode="&#xf1;" glyph-name="ntilde" horiz-adv-x="575" d="M84 -15T66 2T48 40Q48 49 51 56L157 318Q162 331 162 338Q162 349 151 349Q132 349 113 342T73 310Q68 305 63 305Q60 305 57 308T54 316Q54 325 65 343T86 373Q137 426 213 427Q235 427 248
413T262 379Q262 368 257 355L200 211L199 208Q199 203 206 203Q212 203 215 208Q340 427 441 427Q475 427 492 406T510 352Q510 322 499 299L418 109Q413 97 413 87Q413 76 423 76Q437 76 468 98T513 133Q523 143 527 143Q530 143 533 140T536 132Q536 117 526
104Q482 52 427 19T322 -14Q306 -14 292 -2T278 26Q278 33 280 37Q320 126 329 146Q375 243 405 320Q412 340 412 352Q412 369 397 369Q380 370 358 347T299 273Q280 247 234 174T153 39Q138 13 125 -1T99 -15Q84 -15 66 2ZM238 468T231 474T224 486Q224 492 243
517T283 565T315 587Q327 587 342 584Q378 580 378 580Q430 576 441 576Q461 576 476 594Q483 601 490 609T500 618Q506 618 513 612T521 600Q521 596 512 585T501 572L479 542Q468 525 458 512Q449 498 428 498Q411 498 377 501Q300 506 290 506Q284 506 280 504T271
497Q248 468 243 468Q238 468 231 474Z" />
<glyph unicode="&#xf2;" glyph-name="ograve" horiz-adv-x="432" d="M106 -14T77 3T30 51T12 118Q12 183 47 255T145 377T286 427Q347 427 383 390T420 292Q420 228 385 156T286 35T139 -14Q106 -14 77 3ZM191 22T227 77T287 208T312 344Q312 392 275 392Q245
392 208 339T146 209T120 72Q120 22 158 22Q191 22 227 77ZM316 472T309 476T296 488L193 604Q173 627 173 640Q173 652 192 668T225 685Q243 685 257 653L331 499Q335 489 335 484Q335 472 323 472Q316 472 309 476Z" />
<glyph unicode="&#xf3;" glyph-name="oacute" horiz-adv-x="432" d="M106 -14T77 3T30 51T12 118Q12 183 47 255T145 377T286 427Q347 427 383 390T420 292Q420 228 385 156T286 35T139 -14Q106 -14 77 3ZM191 22T227 77T287 208T312 344Q312 392 275 392Q245
392 208 339T146 209T120 72Q120 22 158 22Q191 22 227 77ZM295 472T295 484Q295 489 299 499L373 653Q387 685 405 685Q418 685 437 669T457 640Q457 627 437 604L334 488Q329 481 322 477T307 472Q295 472 295 484Z" />
<glyph unicode="&#xf4;" glyph-name="ocircumflex" horiz-adv-x="432" d="M106 -14T77 3T30 51T12 118Q12 183 47 255T145 377T286 427Q347 427 383 390T420 292Q420 228 385 156T286 35T139 -14Q106 -14 77 3ZM191 22T227 77T287 208T312 344Q312 392 275 392Q245
392 208 339T146 209T120 72Q120 22 158 22Q191 22 227 77ZM388 672T392 664T403 635Q425 549 434 497Q436 483 432 473T418 463Q404 463 393 490Q377 526 355 567Q351 575 345 567L258 489Q230 463 219 463Q209 463 209 474Q209 486 220 500Q262 553 329 630Q366
672 380 672Q388 672 392 664Z" />
<glyph unicode="&#xf5;" glyph-name="otilde" horiz-adv-x="432" d="M106 -14T77 3T30 51T12 118Q12 183 47 255T145 377T286 427Q347 427 383 390T420 292Q420 228 385 156T286 35T139 -14Q106 -14 77 3ZM191 22T227 77T287 208T312 344Q312 392 275 392Q245
392 208 339T146 209T120 72Q120 22 158 22Q191 22 227 77ZM194 468T187 474T180 486Q180 492 199 517T239 565T271 587Q283 587 298 584Q334 580 334 580Q386 576 397 576Q417 576 432 594Q439 601 446 609T456 618Q462 618 469 612T477 600Q477 596 468 585T457
572L435 542Q424 525 414 512Q405 498 384 498Q367 498 333 501Q256 506 246 506Q240 506 236 504T227 497Q204 468 199 468Q194 468 187 474Z" />
<glyph unicode="&#xf6;" glyph-name="odieresis" horiz-adv-x="432" d="M106 -14T77 3T30 51T12 118Q12 183 47 255T145 377T286 427Q347 427 383 390T420 292Q420 228 385 156T286 35T139 -14Q106 -14 77 3ZM191 22T227 77T287 208T312 344Q312 392 275 392Q245
392 208 339T146 209T120 72Q120 22 158 22Q191 22 227 77ZM207 500T195 514T182 550Q182 582 206 606T263 630Q285 630 298 616T311 579Q311 547 287 524T228 500Q207 500 195 514ZM396 500T384 514T371 550Q371 582 396 606T453 630Q474 630 487 616T500 579Q500
547 476 524T417 500Q396 500 384 514Z" />
<glyph unicode="&#xf7;" glyph-name="divide" horiz-adv-x="592" d="M293 350T275 368T257 412Q257 438 275 456T318 475Q345 475 363 457T381 412Q381 386 363 368T318 350Q293 350 275 368ZM69 246T64 250T58 258Q58 270 65 285T86 301H556Q563 301 569 298T575
289Q575 274 565 260T542 246H75Q69 246 64 250ZM294 65T276 83T258 127Q258 153 276 171T319 190Q346 190 364 172T382 127Q382 101 364 83T319 65Q294 65 276 83Z" />
<glyph unicode="&#xf8;" glyph-name="oslash" horiz-adv-x="416" d="M449 426T449 406Q449 398 445 389T435 374L409 351Q420 324 420 292Q420 228 385 156T286 35T139 -14Q114 -14 91 -4T50 24L15 -7Q6 -14 -1 -14Q-11 -14 -21 -8T-31 7Q-31 25 -18 35L21 69Q12
92 12 118Q12 183 47 255T145 377T286 427Q347 427 383 391L416 420Q425 427 434 427Q449 426 449 406ZM251 392T223 359T171 273T133 164L312 336V344Q312 392 275 392Q251 392 223 359ZM184 22T213 57T265 148T302 260L120 82V72Q120 22 158 22Q184 22 213 57Z"
/>
<glyph unicode="&#xf9;" glyph-name="ugrave" horiz-adv-x="567" d="M76 -14T58 9T40 55Q40 63 43 70L141 296Q148 314 148 320Q148 330 140 330Q132 330 107 313T64 279Q56 271 48 271Q40 271 40 278Q40 294 56 313Q97 365 146 396T235 428Q250 428 264 412T278
378Q278 373 276 367Q256 327 221 247L161 118Q153 100 153 89Q153 75 164 75Q177 75 204 106T289 210Q323 252 357 300T410 380Q425 404 436 415T459 427Q477 427 492 412T507 380Q507 377 505 371L396 101Q392 92 392 83Q392 73 399 73Q412 73 448 99T508 148Q511
151 512 151Q516 151 520 147T524 138Q524 124 500 100T444 55T390 30Q361 11 327 11Q306 11 291 18Q287 19 284 26T280 41Q280 49 282 52L295 81Q336 171 349 204Q350 206 350 209Q350 214 346 214Q342 214 337 208Q244 94 191 40T98 -14Q76 -14 58 9ZM382 472T375
476T362 488L259 604Q239 627 239 640Q239 652 258 668T291 685Q309 685 323 653L397 499Q401 489 401 484Q401 472 389 472Q382 472 375 476Z" />
<glyph unicode="&#xfa;" glyph-name="uacute" horiz-adv-x="567" d="M76 -14T58 9T40 55Q40 63 43 70L141 296Q148 314 148 320Q148 330 140 330Q132 330 107 313T64 279Q56 271 48 271Q40 271 40 278Q40 294 56 313Q97 365 146 396T235 428Q250 428 264 412T278
378Q278 373 276 367Q256 327 221 247L161 118Q153 100 153 89Q153 75 164 75Q177 75 204 106T289 210Q323 252 357 300T410 380Q425 404 436 415T459 427Q477 427 492 412T507 380Q507 377 505 371L396 101Q392 92 392 83Q392 73 399 73Q412 73 448 99T508 148Q511
151 512 151Q516 151 520 147T524 138Q524 124 500 100T444 55T390 30Q361 11 327 11Q306 11 291 18Q287 19 284 26T280 41Q280 49 282 52L295 81Q336 171 349 204Q350 206 350 209Q350 214 346 214Q342 214 337 208Q244 94 191 40T98 -14Q76 -14 58 9ZM361 472T361
484Q361 489 365 499L439 653Q453 685 471 685Q484 685 503 669T523 640Q523 627 503 604L400 488Q395 481 388 477T373 472Q361 472 361 484Z" />
<glyph unicode="&#xfb;" glyph-name="ucircumflex" horiz-adv-x="567" d="M76 -14T58 9T40 55Q40 63 43 70L141 296Q148 314 148 320Q148 330 140 330Q132 330 107 313T64 279Q56 271 48 271Q40 271 40 278Q40 294 56 313Q97 365 146 396T235 428Q250 428 264
412T278 378Q278 373 276 367Q256 327 221 247L161 118Q153 100 153 89Q153 75 164 75Q177 75 204 106T289 210Q323 252 357 300T410 380Q425 404 436 415T459 427Q477 427 492 412T507 380Q507 377 505 371L396 101Q392 92 392 83Q392 73 399 73Q412 73 448 99T508
148Q511 151 512 151Q516 151 520 147T524 138Q524 124 500 100T444 55T390 30Q361 11 327 11Q306 11 291 18Q287 19 284 26T280 41Q280 49 282 52L295 81Q336 171 349 204Q350 206 350 209Q350 214 346 214Q342 214 337 208Q244 94 191 40T98 -14Q76 -14 58 9ZM454
672T458 664T469 635Q491 549 500 497Q502 483 498 473T484 463Q470 463 459 490Q443 526 421 567Q417 575 411 567L324 489Q296 463 285 463Q275 463 275 474Q275 486 286 500Q328 553 395 630Q432 672 446 672Q454 672 458 664Z" />
<glyph unicode="&#xfc;" glyph-name="udieresis" horiz-adv-x="567" d="M76 -14T58 9T40 55Q40 63 43 70L141 296Q148 314 148 320Q148 330 140 330Q132 330 107 313T64 279Q56 271 48 271Q40 271 40 278Q40 294 56 313Q97 365 146 396T235 428Q250 428 264 412T278
378Q278 373 276 367Q256 327 221 247L161 118Q153 100 153 89Q153 75 164 75Q177 75 204 106T289 210Q323 252 357 300T410 380Q425 404 436 415T459 427Q477 427 492 412T507 380Q507 377 505 371L396 101Q392 92 392 83Q392 73 399 73Q412 73 448 99T508 148Q511
151 512 151Q516 151 520 147T524 138Q524 124 500 100T444 55T390 30Q361 11 327 11Q306 11 291 18Q287 19 284 26T280 41Q280 49 282 52L295 81Q336 171 349 204Q350 206 350 209Q350 214 346 214Q342 214 337 208Q244 94 191 40T98 -14Q76 -14 58 9ZM273 500T261
514T248 550Q248 582 272 606T329 630Q351 630 364 616T377 579Q377 547 353 524T294 500Q273 500 261 514ZM462 500T450 514T437 550Q437 582 462 606T519 630Q540 630 553 616T566 579Q566 547 542 524T483 500Q462 500 450 514Z" />
<glyph unicode="&#xfd;" glyph-name="yacute" horiz-adv-x="457" d="M-76 -289T-95 -275T-114 -233Q-114 -209 -98 -188T-61 -167Q-52 -167 -43 -172T-20 -188Q-5 -199 4 -204T27 -209Q58 -209 90 -175T149 -84Q186 -1 186 133Q186 207 177 255T155 326T130 349Q118
349 102 326T76 282Q74 275 68 267T57 258Q54 258 51 266T48 286Q48 319 68 353T119 409T176 431Q203 431 220 413T250 357Q281 260 281 132Q281 99 280 81V77Q280 64 284 64Q289 64 295 78Q366 212 363 411Q363 418 374 426T392 435Q400 435 413 427T436 405T446
377Q446 285 372 147T176 -130Q115 -200 54 -244T-50 -289Q-76 -289 -95 -275ZM266 472T266 484Q266 489 270 499L344 653Q358 685 376 685Q389 685 408 669T428 640Q428 627 408 604L305 488Q300 481 293 477T278 472Q266 472 266 484Z" />
<glyph unicode="&#xfe;" glyph-name="thorn" horiz-adv-x="504" d="M455 427T478 404T501 341Q501 263 452 181T324 44T162 -11Q136 -11 112 -3L53 -205Q51 -213 51 -216Q51 -231 64 -238T103 -252Q123 -256 121 -269Q120 -274 114 -277T99 -280H23H-10Q-22 -280
-54 -282Q-89 -285 -123 -285Q-136 -285 -136 -275Q-135 -268 -128 -263T-111 -256Q-81 -249 -68 -241T-49 -211L194 551Q206 589 206 610Q206 619 198 624T174 634Q171 635 164 638T153 644T149 650Q149 655 152 658T168 666Q192 676 248 691T318 707Q327 707
333 705T340 695Q340 680 332 656L296 554Q291 540 256 442T195 257Q194 254 194 249Q194 247 195 247Q198 247 202 256Q253 334 312 380T423 427Q455 427 478 404ZM339 168T363 226T388 319Q388 339 379 346Q373 348 370 348Q356 348 335 335T293 298Q269 287
235 246T175 158T149 88Q149 63 164 45T198 26Q216 26 248 54T308 124Q339 168 363 226Z" />
<glyph unicode="&#xff;" glyph-name="ydieresis" horiz-adv-x="457" d="M-76 -289T-95 -275T-114 -233Q-114 -209 -98 -188T-61 -167Q-52 -167 -43 -172T-20 -188Q-5 -199 4 -204T27 -209Q58 -209 90 -175T149 -84Q186 -1 186 133Q186 207 177 255T155 326T130
349Q118 349 102 326T76 282Q74 275 68 267T57 258Q54 258 51 266T48 286Q48 319 68 353T119 409T176 431Q203 431 220 413T250 357Q281 260 281 132Q281 99 280 81V77Q280 64 284 64Q289 64 295 78Q366 212 363 411Q363 418 374 426T392 435Q400 435 413 427T436
405T446 377Q446 285 372 147T176 -130Q115 -200 54 -244T-50 -289Q-76 -289 -95 -275ZM434 500T422 514T409 550Q409 582 433 606T490 630Q512 630 525 616T538 579Q538 547 514 524T455 500Q434 500 422 514ZM623 500T611 514T598 550Q598 582 623 606T680 630Q701
630 714 616T727 579Q727 547 703 524T644 500Q623 500 611 514Z" />
<glyph unicode="&#x2013;" glyph-name="endash" horiz-adv-x="591" d="M44 183T41 187T39 196Q42 209 53 225T78 241H541Q549 241 553 237T555 226Q548 210 536 197T510 183H50Q44 183 41 187Z" />
<glyph unicode="&#x2014;" glyph-name="emdash" horiz-adv-x="930" d="M36 183T33 186T30 193Q30 197 36 209T51 231T70 241H888Q896 241 900 237T902 226Q895 210 883 197T858 183H42Q36 183 33 186Z" />
<glyph unicode="&#x2018;" glyph-name="quoteleft" horiz-adv-x="251" d="M352 691T352 681Q352 667 324 660Q282 646 254 618T226 559Q226 536 256 524Q285 512 285 487Q285 461 264 442T214 423Q181 423 159 444T137 502Q137 548 166 592T241 663T332 691Q352
691 352 681Z" />
<glyph unicode="&#x2019;" glyph-name="quoteright" horiz-adv-x="251" d="M116 423T116 433Q116 447 144 454Q186 468 214 496T242 555Q242 578 212 590Q183 602 183 627Q183 653 204 672T254 691Q287 691 309 670T331 612Q331 566 302 522T227 451T136 423Q116
423 116 433Z" />
<glyph unicode="&#x201a;" glyph-name="quotesinglbase" horiz-adv-x="251" d="M-61 -149T-61 -139Q-61 -125 -33 -118Q9 -104 37 -76T65 -17Q65 6 35 18Q6 30 6 55Q6 81 27 100T77 119Q110 119 132 98T154 40Q154 -6 125 -50T50 -121T-41 -149Q-61 -149 -61 -139Z" />
<glyph unicode="&#x201c;" glyph-name="quotedblleft" horiz-adv-x="443" d="M545 692T545 682Q545 668 517 661Q475 647 447 619T419 560Q419 537 449 525Q478 513 478 488Q478 462 457 443T407 424Q374 424 352 445T330 503Q330 549 359 593T434 664T525 692Q545
692 545 682ZM352 692T352 682Q352 668 324 661Q282 647 254 619T226 560Q226 537 256 525Q285 513 285 488Q285 462 264 443T214 424Q181 424 159 445T137 503Q137 549 166 593T241 664T332 692Q352 692 352 682Z" />
<glyph unicode="&#x201d;" glyph-name="quotedblright" horiz-adv-x="444" d="M116 424T116 434Q116 448 144 455Q186 469 214 497T242 556Q242 579 212 591Q183 603 183 628Q183 654 204 673T254 692Q287 692 309 671T331 613Q331 567 302 523T227 452T136 424Q116
424 116 434ZM309 424T309 434Q309 448 337 455Q379 469 407 497T435 556Q435 579 405 591Q376 603 376 628Q376 654 397 673T447 692Q480 692 502 671T524 613Q524 567 495 523T420 452T329 424Q309 424 309 434Z" />
<glyph unicode="&#x201e;" glyph-name="quotedblbase" horiz-adv-x="443" d="M-61 -149T-61 -139Q-61 -125 -33 -118Q9 -104 37 -76T65 -17Q65 6 35 18Q6 30 6 55Q6 81 27 100T77 119Q110 119 132 98T154 40Q154 -6 125 -50T50 -121T-41 -149Q-61 -149 -61 -139ZM132
-149T132 -139Q132 -125 160 -118Q202 -104 230 -76T258 -17Q258 6 228 18Q199 30 199 55Q199 81 220 100T270 119Q303 119 325 98T347 40Q347 -6 318 -50T243 -121T152 -149Q132 -149 132 -139Z" />
<glyph unicode="&#x2022;" glyph-name="bullet" horiz-adv-x="362" d="M151 214T119 249T86 331Q86 375 109 414T170 476T252 499Q287 499 313 482T354 436T369 376Q369 333 346 296T283 236T198 214Q151 214 119 249Z" />
<glyph unicode="&#x2039;" glyph-name="guilsinglleft" horiz-adv-x="410" d="M274 17T255 36Q181 118 72 184Q60 191 56 195T52 204Q52 209 58 214T71 221Q217 289 372 395Q377 399 383 402T397 405Q404 405 404 399Q404 390 394 378Q343 326 293 288T183 210Q175
205 175 202Q175 200 181 194Q216 157 244 121T293 43Q295 37 295 33Q295 26 293 22T286 17Q274 17 255 36Z" />
<glyph unicode="&#x203a;" glyph-name="guilsinglright" horiz-adv-x="410" d="M139 405T158 386Q232 304 341 238Q353 231 357 227T361 218Q361 213 355 208T342 201Q196 133 41 27Q36 23 30 20T16 17Q9 17 9 23Q9 32 19 44Q70 96 120 134T230 212Q238 217 238
220Q238 222 232 228Q197 265 169 301T120 379Q118 385 118 389Q118 396 120 400T127 405Q139 405 158 386Z" />
</font>
</defs>
</svg>
