<?xml version="1.0" standalone="no"?>
<!DOCTYPE svg PUBLIC "-//W3C//DTD SVG 1.1//EN" "http://www.w3.org/Graphics/SVG/1.1/DTD/svg11.dtd">
<svg xmlns="http://www.w3.org/2000/svg">
<defs >
<font id="Caveat" horiz-adv-x="436" ><font-face
    font-family="Caveat"
    units-per-em="1000"
    panose-1="0 0 5 0 0 0 0 0 0 0"
    ascent="960"
    descent="-300"
    alphabetic="0" />
<glyph unicode=" " glyph-name="space" horiz-adv-x="242" />
<glyph unicode="!" glyph-name="exclam" horiz-adv-x="210" d="M178 166T167 181T156 225Q156 251 165 285Q179 313 179 327Q184 344 195 370T213 411Q217 411 221 418T226 432Q226 441 229 450T237 464Q237 467 241 474T245 485Q245 487 247 491T250 499Q268
529 302 612T337 708Q340 725 355 722Q360 726 371 726L385 710Q392 703 393 696T395 673Q394 658 386 641T367 604T352 577L339 553Q323 525 323 520Q323 516 318 506T310 488Q301 473 290 451T279 424Q278 422 277 417T271 408Q268 408 267 404T266 397Q266 392
261 377T247 344Q213 247 210 206Q208 182 207 178T197 170Q178 166 167 181ZM124 3T114 3Q101 3 84 15Q70 29 70 43Q70 65 104 88Q124 100 133 100Q138 100 157 93Q184 77 184 56Q184 44 174 32T143 10Q124 3 114 3Z" />
<glyph unicode="&quot;" glyph-name="quotedbl" horiz-adv-x="237" d="M190 440Q186 440 183 441T176 447V451Q176 460 186 473Q224 535 234 563Q235 571 240 591T245 628V632Q245 642 248 650T257 655Q261 653 274 647T293 633T298 615Q296 592 282 552Q277 540
274 530Q269 510 257 492T223 450Q223 448 220 447T212 444T199 440H190ZM310 440Q306 440 303 441T296 447V451Q296 460 306 473Q344 535 354 563Q355 571 360 591T365 628V632Q365 642 368 650T377 655Q381 653 394 647T413 633T418 615Q416 592 402 552Q397
540 394 530Q389 510 377 492T343 450Q343 448 340 447T332 444T319 440H310Z" />
<glyph unicode="#" glyph-name="numbersign" horiz-adv-x="559" d="M686 414T686 403Q686 394 679 390T658 388L595 383Q593 383 583 383T548 382Q538 362 523 327T508 288Q508 277 503 272Q500 272 499 268T498 261Q498 258 493 240Q523 241 558 241Q584 241
593 239T613 226Q625 214 625 203Q625 194 618 190T597 188L534 183Q532 183 519 183T474 182Q440 70 420 -3T399 -97Q399 -123 398 -129T389 -140Q386 -141 379 -141Q363 -141 354 -125T345 -81Q345 -58 351 -28Q362 1 362 14Q364 26 380 77T414 181L253 179L244
150Q239 132 220 68T190 -39T179 -97Q179 -123 178 -129T169 -140Q166 -141 159 -141Q143 -141 134 -125T125 -81Q125 -58 131 -28Q142 1 142 14Q146 34 193 178H146Q126 178 111 183Q97 183 92 186T82 197Q76 206 76 211Q76 217 87 220T126 227Q140 231 211 234Q218
254 221 262T225 272Q229 272 232 278T235 293Q235 302 238 311T246 325Q246 328 248 336T251 347Q251 349 253 354T256 363Q258 366 259 370T263 378H207Q187 378 172 383Q158 383 153 386T143 397Q137 406 137 411Q137 417 148 420T187 427Q202 431 287 434Q322
521 362 627T402 743Q402 759 418 759Q423 764 434 764L450 748Q457 741 459 734T461 711Q461 696 457 685T437 640Q434 633 429 624T418 600Q415 590 395 547Q382 516 370 487T348 436Q388 438 486 440H509Q544 528 583 631T622 743Q622 759 638 759Q643 764 654
764L670 748Q677 741 679 734T681 711Q681 696 677 685T657 640Q654 633 649 624T638 600L627 575Q585 477 570 441H619Q645 441 654 439T674 426Q686 414 686 403ZM481 373T484 381L326 379Q314 354 301 323T288 288Q288 277 283 272Q280 272 279 268T278 261Q278
256 272 236Q317 238 433 240L445 272Q449 272 452 278T455 293Q455 302 458 311T466 325Q466 328 468 336T471 347Q471 349 473 354T476 363Q481 373 484 381Z" />
<glyph unicode="$" glyph-name="dollar" horiz-adv-x="450" d="M527 580T546 567T566 539Q566 527 551 516Q540 514 519 524Q495 535 478 537Q455 497 433 457T411 415Q411 410 395 384L367 333Q387 314 387 311V307Q389 307 403 288T417 264Q418 263 420 259T426
249Q431 246 435 219T440 176Q440 164 429 149T400 120Q379 104 340 84T271 59L243 53Q199 -55 194 -83Q192 -107 190 -114T178 -124Q146 -131 146 -88Q146 -63 161 -11Q176 10 178 33L184 49Q131 47 120 55Q111 58 99 67Q78 77 67 90T55 126Q55 132 68 143T97
154Q105 154 115 149Q106 129 106 121Q106 111 115 106T149 96Q159 95 176 95Q194 95 204 96Q278 265 286 278Q290 278 295 285T301 299Q301 304 303 312Q280 348 263 358Q260 361 255 370T248 381Q247 382 245 385T240 393Q232 406 232 421Q232 441 244 463T280
506Q291 519 320 539T355 560Q357 561 363 563T378 569Q387 571 402 575T430 580L437 582Q503 720 503 730Q506 738 510 741T523 743Q529 749 539 745L553 731Q562 716 560 692Q558 682 554 673T546 656T538 643Q524 621 505 586V585Q527 580 546 567ZM357 413T413
531Q367 520 339 489Q315 474 303 457T291 427Q296 408 308 393L331 369Q357 413 413 531ZM377 217T373 226T348 269Q348 272 341 279L335 272Q332 272 331 268T329 261Q329 256 324 243T308 214L262 101Q279 105 282 107Q311 116 334 128T364 153Q374 162 376
168T378 182T378 194Q377 217 373 226Z" />
<glyph unicode="%" glyph-name="percent" horiz-adv-x="600" d="M250 312T244 315T229 327Q203 353 203 377Q203 383 204 386Q206 392 206 397T205 404Q201 408 203 410T206 414Q211 414 209 423Q207 429 215 451T236 492Q244 506 261 527T292 560Q312 577 327
585T360 597Q373 601 382 601Q392 601 404 588Q426 579 434 564T442 518Q442 467 400 405Q381 379 365 365T323 335Q305 323 291 318T260 312Q250 312 244 315ZM99 -89T99 -62Q99 -30 133 17Q155 35 158 45Q166 59 257 160Q318 229 321 234H322Q326 234 330 239T337
251Q340 259 347 265T361 273Q363 277 366 281T370 288Q370 290 374 294T379 302Q406 325 521 443T642 572Q647 581 653 581Q655 581 661 579Q665 581 669 581Q673 581 677 579Q677 578 678 573T684 560Q688 553 688 545Q688 536 681 525Q674 512 667 503T634 472L604
445Q595 435 536 378Q476 322 475 318Q464 316 455 298L436 279Q383 228 382 224Q379 220 366 215Q365 216 364 214T362 210Q362 206 353 194T328 169Q278 109 219 34T149 -62Q141 -81 137 -87T125 -94Q99 -89 99 -62ZM355 423T366 441T387 488Q391 504 391 520Q391
543 386 546Q379 550 370 550Q352 550 335 534Q313 516 296 489T258 417Q251 402 251 386Q251 374 256 367T272 360Q298 360 337 402Q355 423 366 441ZM390 -58T384 -55T369 -43Q343 -17 343 7Q343 13 344 16Q346 22 346 27T345 34Q341 38 343 40T346 44Q351 44
349 53Q347 59 355 81T376 122Q384 136 401 157T432 190Q452 207 467 215T500 227Q513 231 522 231Q532 231 544 218Q566 209 574 194T582 148Q582 97 540 35Q521 9 505 -5T463 -35Q445 -47 431 -52T400 -58Q390 -58 384 -55ZM494 54T505 72T526 119Q530 135 530
151Q530 174 525 177Q518 181 509 181Q491 181 474 165Q452 147 435 120T397 48Q390 33 390 17Q390 5 395 -2T411 -9Q437 -9 476 33Q494 54 505 72Z" />
<glyph unicode="&amp;" glyph-name="ampersand" horiz-adv-x="564" d="M657 -68T641 -68Q624 -68 596 -56T543 -30Q525 -25 491 6T417 85Q348 47 322 35T258 11Q247 10 226 10Q178 10 137 24Q126 27 105 43T75 70Q70 73 70 86Q70 99 75 119Q81 138 131 205T231
321Q212 348 203 371T194 419Q194 469 236 543Q248 563 270 587T310 627T331 640Q334 635 338 635Q340 635 342 636T347 637Q351 639 359 639Q383 639 415 629Q454 624 467 620T492 603Q530 574 530 540Q530 527 509 500T455 443Q444 430 432 418T415 402Q415 397
410 391T397 381Q374 361 344 333T313 302Q312 298 338 262T392 193T427 159Q464 195 498 223Q523 245 568 286Q588 308 600 320T619 332Q624 332 632 324Q646 321 646 307Q646 299 643 292T638 281Q619 255 577 218T528 174Q495 145 466 116Q469 112 479 100T503
76Q537 41 554 28T595 7Q627 -4 642 -19T657 -56Q657 -68 641 -68ZM288 366T329 401Q387 449 422 485T458 550Q458 555 457 558Q453 565 424 576T379 587Q360 588 335 567T285 510Q254 466 254 424Q254 387 280 357Q288 366 329 401ZM187 60T212 60Q244 60 278
74T357 117L376 131L351 160L322 196Q310 213 302 223Q290 234 282 246T271 263Q266 263 247 242T218 206Q200 192 189 179T169 151T156 130Q148 113 148 97Q148 79 166 67Q187 60 212 60Z" />
<glyph unicode="&apos;" glyph-name="quotesingle" horiz-adv-x="117" d="M180 440Q176 440 173 441T166 447V451Q166 460 176 473Q214 535 224 563Q225 571 230 591T235 628V632Q235 642 238 650T247 655Q251 653 264 647T283 633T288 615Q286 592 272 552Q267
540 264 530Q259 510 247 492T213 450Q213 448 210 447T202 444T189 440H180Z" />
<glyph unicode="(" glyph-name="parenleft" horiz-adv-x="330" d="M245 -120T212 -90T166 -17Q148 24 148 89Q148 156 168 230Q180 271 182 296Q184 303 217 379Q255 465 265 493Q286 539 340 617T413 710Q415 712 425 721T443 732Q447 742 458 749T480 757Q497
766 508 766Q519 766 526 757T538 729L540 717Q540 711 536 709T516 698Q503 693 489 686T469 671Q460 659 449 649T432 634Q414 627 414 618Q412 613 403 597T378 560Q358 528 351 515Q346 506 325 471Q322 466 314 451T295 423Q295 418 292 407T280 384Q274 362
256 325Q244 300 231 257T217 199Q214 199 212 187T206 146L201 110Q199 44 209 10T247 -54Q259 -64 270 -69T295 -75L329 -96Q324 -115 317 -122T298 -129Q291 -129 287 -128Q245 -120 212 -90Z" />
<glyph unicode=")" glyph-name="parenright" horiz-adv-x="330" d="M32 -109T31 -82Q31 -80 31 -74T36 -61Q37 -62 40 -63T51 -65Q59 -65 65 -63Q84 -64 92 -60T116 -37Q119 -31 128 -21Q157 19 161 31Q175 41 182 49T197 71Q197 93 215 122Q228 151 234 160Q246
184 246 187Q247 189 249 196T251 211Q257 214 261 224T265 246Q266 250 274 270T284 311Q300 362 305 401T315 525L317 578Q318 591 318 609Q318 624 316 632T308 651Q298 683 291 683Q288 683 286 688T283 701Q283 709 285 714V715Q285 720 289 724T301 727Q307
727 315 722T328 712Q332 716 340 702T359 660Q368 640 370 630T373 602L371 560L369 527Q368 477 360 414T341 298Q328 246 296 163T248 55Q252 56 214 1L175 -59Q155 -86 129 -103T82 -121Q75 -121 72 -120Q32 -109 31 -82Z" />
<glyph unicode="*" glyph-name="asterisk" horiz-adv-x="363" d="M412 401T399 412T374 444Q368 459 365 470L356 494L354 531Q352 533 322 509T252 445Q229 424 219 417T203 410Q195 410 192 414T189 421Q188 423 188 431Q188 443 191 452Q201 464 247 510T301
563Q309 570 309 574Q309 577 301 584Q299 586 297 588T295 592T296 594Q296 595 295 597T291 601Q285 610 285 618V628Q279 633 279 650Q279 664 282 667Q283 667 285 666T291 662Q295 662 301 653T311 638Q319 622 325 615T339 607Q341 611 347 624T356 652Q364
663 370 673T383 693Q392 708 395 713Q397 718 400 723T405 729Q405 731 407 735T413 740Q419 748 422 749T427 749Q430 745 435 740T442 729L452 713L439 696Q425 676 416 656T401 622T398 608Q401 609 409 612T427 618Q439 624 449 626T460 629Q470 629 484 638Q493
641 498 641Q503 641 508 638Q515 631 518 620T522 601Q487 583 460 575Q397 556 395 549Q390 549 390 544Q390 540 395 532Q396 526 397 515T398 497Q403 478 405 467T409 453Q412 453 412 454T413 459Q413 463 422 463Q426 463 432 454T435 442V436Q437 436 437
433Q437 427 431 417T422 407Q412 401 399 412Z" />
<glyph unicode="+" glyph-name="plus" horiz-adv-x="446" d="M477 214T477 203Q477 194 470 190T449 188L386 183L322 181L323 95Q323 75 318 60Q318 46 315 41T304 31Q295 25 290 25Q284 25 281 36T274 75Q267 109 264 179L178 178Q158 178 143 183Q129 183 124
186T114 197Q108 206 108 211Q108 217 119 220T158 227Q192 234 262 237L260 327Q260 353 262 362T275 382Q287 394 298 394Q307 394 311 387T313 366L318 303L320 239L410 241Q436 241 445 239T465 226Q477 214 477 203Z" />
<glyph unicode="," glyph-name="comma" horiz-adv-x="198" d="M41 -79T39 -78T33 -69Q33 -63 37 -58T47 -45Q64 -28 84 -4T111 33Q118 55 126 92Q126 112 131 117Q137 123 142 123Q154 123 160 78Q162 64 162 57Q162 34 145 -6Q141 -16 121 -40T96 -65Q91 -65
82 -74Q79 -77 71 -78T52 -79Q41 -79 39 -78Z" />
<glyph unicode="-" glyph-name="hyphen" horiz-adv-x="326" d="M158 178T143 183Q129 183 124 186T114 197Q108 206 108 211Q108 217 119 220T158 227Q193 235 221 238T290 241Q316 241 325 239T345 226Q357 214 357 203Q357 194 350 190T329 188L266 183Q260
183 234 181T178 178Q158 178 143 183Z" />
<glyph unicode="." glyph-name="period" horiz-adv-x="198" d="M134 45T124 45Q110 45 94 57Q80 71 80 85Q80 107 114 130Q134 142 143 142Q148 142 167 135Q194 119 194 98Q194 86 184 74T153 52Q134 45 124 45Z" />
<glyph unicode="/" glyph-name="slash" horiz-adv-x="330" d="M50 -95T41 -84T32 -53Q32 -22 53 23Q56 29 63 41T72 62Q80 80 162 229T250 386Q254 385 258 391T264 405Q266 414 271 422T281 433Q283 437 286 444T291 454Q291 456 294 461T299 469Q321 496 382
592T446 701Q449 716 466 713Q471 717 482 715Q483 714 485 709T494 696Q500 689 500 677Q500 669 497 658Q494 643 488 634T459 594L432 558L410 528Q396 511 396 508Q394 504 389 497T378 478Q367 464 342 428T315 388Q314 386 313 382T306 374Q303 375 301 371T299
364Q299 356 273 315Q228 233 159 101T85 -54Q80 -78 77 -85T67 -94Q50 -95 41 -84Z" />
<glyph unicode="0" glyph-name="zero" horiz-adv-x="450" d="M269 21T243 35T202 62Q174 89 158 130T141 215Q141 224 143 244Q154 307 190 369T276 474Q302 497 323 509T374 529Q388 533 418 533Q437 533 457 525T492 506T506 484Q506 475 505 473T496 474H486L496
445Q500 436 503 423T506 399Q506 381 495 330T476 260Q472 252 472 239L447 184Q443 181 441 177T442 170Q442 166 432 148T418 129Q417 129 415 129T413 125Q413 121 400 104T369 70Q354 54 325 38T280 21Q269 21 243 35ZM301 84T315 98Q334 111 357 138T392
191Q402 205 408 220T430 279Q437 289 440 304T444 333Q444 377 449 395Q449 423 448 430T440 446Q429 455 416 455Q409 455 390 448T363 435Q357 433 354 433Q348 433 344 435T339 442Q339 449 333 449Q325 449 311 437T281 406Q265 390 252 371T238 347Q238 344
235 336T229 323Q222 312 210 285T195 245V191Q195 166 198 152T209 123Q213 116 222 106T233 93Q240 86 244 84T256 81Q264 81 277 84Q301 84 315 98Z" />
<glyph unicode="1" glyph-name="one" horiz-adv-x="450" d="M312 -17T289 6Q283 11 283 18Q283 23 291 60Q293 74 295 80Q300 104 307 131T317 167Q325 171 353 265Q368 319 387 376Q396 404 401 425T408 452Q399 447 370 430T314 392Q312 391 276 365Q268 360
255 350T232 335Q217 323 208 317T194 310Q192 310 184 314Q165 331 165 347Q165 353 168 359Q172 360 204 383Q240 409 245 411Q247 411 256 418T273 431Q276 435 320 466L373 505Q457 557 465 555Q470 554 481 546T494 529Q496 525 496 522Q496 515 488 497Q479
478 456 409T420 300Q413 274 399 236Q396 227 391 211T381 177Q372 155 361 116T344 50L334 20Q325 -7 321 -10Q312 -17 289 6Z" />
<glyph unicode="2" glyph-name="two" horiz-adv-x="450" d="M152 26T139 37T122 57Q121 58 121 63Q121 70 124 79T130 88Q133 85 146 103T161 127Q162 131 167 134T175 139Q180 147 189 156T202 170Q206 175 217 186T237 207Q261 229 272 241Q324 297 326 306Q327
307 330 310T338 316Q353 326 366 339Q367 346 377 361T397 386Q405 397 411 410T421 434L423 443Q423 447 418 449T407 454T396 457Q373 464 356 464Q319 464 280 437Q266 434 258 430Q240 424 235 425Q232 426 226 434T215 447L205 468L236 485Q298 526 344 526Q360
526 372 522Q381 522 390 520T401 517Q413 518 432 498T462 457Q474 439 474 420Q474 390 442 343Q420 317 375 268T320 211Q308 205 262 153T220 101V99Q220 105 282 114T379 124Q390 124 394 122Q396 118 397 118T399 120Q400 124 413 124Q436 124 467 115Q470
114 477 112T488 108T491 104Q492 103 494 99T502 88Q511 81 511 76Q511 69 494 69Q482 69 454 74Q428 74 411 71Q408 69 393 69T369 68Q364 69 355 69Q332 69 290 55Q268 46 218 33T159 23Q152 26 139 37Z" />
<glyph unicode="3" glyph-name="three" horiz-adv-x="450" d="M203 16T173 28T144 58Q145 69 147 72T158 76L179 74Q201 70 215 70Q260 70 307 87T378 128Q402 151 402 176Q402 204 371 225Q352 238 313 249T253 258Q250 257 245 257Q235 257 220 266Q211 276
202 294Q201 299 207 304T239 323T304 359Q365 393 391 409T433 438Q441 448 446 456T451 468Q451 472 445 475T425 481Q396 484 372 484Q354 484 354 481H350Q343 484 312 477T279 466Q278 463 258 456T233 449Q225 451 216 468T209 492Q212 501 271 529Q290 534
334 536T400 537Q490 527 502 462Q505 452 505 444Q505 433 498 424T467 393L443 377Q410 356 378 338Q376 336 353 321Q327 305 327 302Q329 300 336 296T352 284Q378 275 402 255T439 216Q451 189 451 164Q451 132 433 105T377 55Q350 40 313 29T243 16Q203 16
173 28Z" />
<glyph unicode="4" glyph-name="four" horiz-adv-x="450" d="M310 15T310 27Q310 38 319 77Q325 112 335 150L342 182Q349 198 353 213T359 233Q355 233 343 231T315 223Q279 214 256 214Q234 214 220 222T194 248Q189 253 186 265T182 289Q182 303 187 307Q192
318 196 327T204 343Q215 365 215 368Q215 370 217 374T220 382Q229 401 275 469T337 553Q346 557 354 559T366 558Q370 549 374 533T375 517Q374 517 372 516T370 512Q370 506 338 468Q280 389 247 328Q234 290 234 280Q234 275 237 272Q243 270 252 270Q276 270
317 282Q365 292 376 297Q384 297 390 300T397 307Q397 310 404 325T414 348L429 378Q449 420 457 433Q475 472 481 488Q488 505 492 513T499 522Q504 522 511 518T521 507Q525 503 527 499T530 490Q530 485 524 473Q521 461 517 451T506 428L490 397Q464 346 431
270T386 158Q373 121 365 95T357 57Q357 48 362 38Q363 20 353 7T332 -6Q320 -6 317 7Q310 15 310 27Z" />
<glyph unicode="5" glyph-name="five" horiz-adv-x="450" d="M160 29T155 35T149 46Q147 50 145 51T140 52Q136 50 132 65T130 88Q134 97 146 97Q153 97 159 94T166 84Q168 76 180 72T212 67Q252 67 300 94T375 155Q383 172 389 199T396 242Q396 251 393 251Q393
253 392 259T387 273Q382 287 364 303T329 326Q301 330 287 330Q275 330 270 329L255 328Q245 328 238 329T229 330Q221 332 205 345T189 366Q192 381 219 424T268 490Q297 521 332 537T406 554Q443 554 456 550T482 530Q489 517 489 507Q489 499 485 494T474 489Q468
489 462 492Q451 499 430 499Q407 499 372 489Q351 481 328 464T299 435Q297 433 294 430T288 427Q287 426 285 423T282 416Q279 413 277 410T274 407T270 409L269 399V394Q269 388 273 385T292 381Q320 377 332 373T368 355Q402 335 421 298T440 215Q440 206 438
186Q435 161 432 150T415 119Q380 71 324 41T219 10Q189 10 167 24Q160 29 155 35Z" />
<glyph unicode="6" glyph-name="six" horiz-adv-x="450" d="M229 24T209 24Q178 24 155 47Q140 58 134 68T124 98Q118 118 118 128Q118 139 127 184Q136 225 142 243T165 286Q172 306 183 328T199 356Q203 361 213 376T235 403L262 439Q276 448 281 455Q299 476
339 500T408 528Q420 532 429 532Q440 532 438 527Q439 526 442 523T452 519Q455 518 458 512T464 502Q466 493 463 487T447 469Q433 459 428 458T418 461Q419 464 415 466T409 468Q399 470 362 446T303 398Q281 378 278 370Q267 359 258 348T245 332Q246 328 253
328Q259 328 265 331T272 336Q272 340 294 346T340 355Q346 357 352 357Q360 357 390 351Q413 346 421 342T440 324Q459 306 466 289T474 247Q474 227 471 215T457 189Q444 168 423 142T389 107Q385 105 382 103T378 100Q376 89 331 64T253 31Q229 24 209 24ZM206
76T210 76Q223 76 249 87Q271 93 275 92Q279 95 291 103T322 122Q370 153 399 191T429 258Q429 263 428 266V268Q428 273 426 282T423 293Q419 293 412 295T395 299Q383 301 377 301Q361 301 299 287Q294 286 287 284T269 280Q262 278 252 274T235 267Q221 256
208 253Q196 252 188 234T169 166Q161 123 161 115Q161 105 165 100Q166 89 171 86T186 80Q206 76 210 76Z" />
<glyph unicode="7" glyph-name="seven" horiz-adv-x="450" d="M199 -14T185 20Q178 53 255 198Q277 233 277 240Q277 244 272 245T257 246Q252 247 238 250T221 257Q202 267 202 278Q202 284 209 285Q219 287 219 291Q219 294 207 298L218 296L268 295Q286 295
294 294Q297 293 302 293Q309 293 313 296T323 307T332 319L351 349Q371 377 387 405Q441 482 441 503Q441 517 421 517Q405 517 386 512T324 490Q302 481 286 475T261 469Q252 469 247 473Q240 474 237 481T233 497Q233 504 234 507Q238 525 365 557Q397 562 420
562Q458 562 465 549Q466 548 468 547T471 548Q474 547 477 540T485 524Q487 520 493 509T499 490Q499 486 497 476Q494 466 487 455T476 440Q472 436 470 432T466 426Q465 423 460 419T450 409Q449 406 446 401T441 392L386 309Q372 296 372 290Q372 284 385 278Q420
262 428 238V229Q428 218 423 215Q419 209 409 209Q397 209 394 214Q390 222 372 229T347 237Q342 234 330 218Q322 207 297 157L271 110Q270 107 266 100T259 88Q255 81 252 67T249 42Q249 32 252 32Q254 33 257 33Q266 33 269 19Q274 12 266 2T245 -14T221 -18Q199
-14 185 20Z" />
<glyph unicode="8" glyph-name="eight" horiz-adv-x="450" d="M167 -31T158 -25T136 -6Q134 -2 129 9T124 32Q124 36 126 50Q126 85 138 104Q150 138 188 195T254 287Q265 300 265 308Q265 314 259 324T244 347Q241 355 237 362T234 369Q233 370 231 373T226 383Q211
397 211 426Q211 455 226 483Q242 519 261 537T311 560Q339 556 381 548T447 529Q465 522 489 503T515 475Q515 473 518 469T523 460Q529 447 529 427Q529 398 518 381Q493 353 483 349Q480 347 473 340T457 331Q444 314 439 314Q434 317 431 317T427 314Q426 310
400 299T368 290H367Q362 290 356 286Q351 287 354 279T371 254Q410 181 410 141Q410 122 402 111Q383 68 361 40T326 14L312 5Q310 -1 304 -4T292 -6L289 -5Q278 -5 261 -16Q248 -25 230 -30T195 -35Q182 -35 176 -32Q167 -31 158 -25ZM372 371T389 371Q401 371
405 362Q407 358 428 371T466 401Q470 407 472 412T474 424L472 440Q473 455 466 463T427 483Q383 499 348 499Q287 499 271 442Q265 424 265 409Q265 391 273 376Q281 373 284 367T288 359Q288 356 290 353T296 350Q297 346 302 342T316 338Q329 338 347 349Q372
371 389 371ZM205 18T237 33T294 65Q324 90 338 112T353 157Q353 172 347 185Q327 226 322 233Q313 247 302 253Q300 252 293 246T282 231Q264 209 254 190L232 168Q232 165 226 151T212 122Q198 98 191 76T183 37Q183 21 192 19Q205 18 237 33Z" />
<glyph unicode="9" glyph-name="nine" horiz-adv-x="450" d="M306 -26T297 -18T288 -6Q289 -3 288 -2T284 -1Q283 1 282 7T281 19Q281 23 282 32T283 53Q285 80 300 135T333 241Q346 275 346 282Q346 292 332 292Q325 292 320 291Q314 290 304 290Q265 290 238
318T210 385Q210 403 215 416T235 454Q266 500 307 532T387 571Q401 573 413 573Q444 573 459 567Q481 558 500 528T514 480Q508 449 499 432T476 399Q453 379 418 310T358 170Q339 116 339 76Q339 59 344 59Q347 59 355 56T365 53Q368 49 368 45Q368 41 363 28Q358
14 339 -7T313 -27Q306 -26 297 -18ZM278 343T296 343Q323 343 356 366T413 427L432 452Q444 467 446 469Q461 486 461 495Q461 502 455 508Q448 520 432 520Q422 520 398 512Q383 509 370 503T334 482Q328 476 318 478Q317 478 316 477T314 473Q315 472 315 469Q315
460 302 450Q283 431 273 410T263 371Q263 361 268 354Q278 343 296 343Z" />
<glyph unicode=":" glyph-name="colon" horiz-adv-x="198" d="M210 255T200 255Q186 255 170 267Q156 281 156 295Q156 317 190 340Q210 352 219 352Q224 352 243 345Q270 329 270 308Q270 296 260 284T229 262Q210 255 200 255ZM140 45T130 45Q117 45 100 57Q86
71 86 85Q86 107 120 130Q140 142 149 142Q154 142 173 135Q200 119 200 98Q200 86 190 74T159 52Q140 45 130 45Z" />
<glyph unicode=";" glyph-name="semicolon" horiz-adv-x="198" d="M210 255T200 255Q186 255 170 267Q156 281 156 295Q156 317 190 340Q210 352 219 352Q224 352 243 345Q270 329 270 308Q270 296 260 284T229 262Q210 255 200 255ZM49 -79T47 -78T40 -69Q40
-63 44 -58T54 -45Q71 -28 91 -4T118 33Q125 55 133 92Q133 112 138 117Q144 123 149 123Q161 123 167 78Q169 64 169 57Q169 34 152 -6Q148 -16 128 -40T103 -65Q98 -65 89 -74Q86 -77 78 -78T59 -79Q49 -79 47 -78Z" />
<glyph unicode="&lt;" glyph-name="less" horiz-adv-x="446" d="M349 60Q318 68 303 74T273 91Q238 102 215 119T167 163L130 207L123 237Q131 238 145 248T163 259Q179 272 209 290T290 337Q337 359 354 371T376 387Q398 404 406 403H410Q416 403 422 397Q427
391 435 388T447 382T451 374Q450 372 446 365T435 354L407 339Q361 318 289 275L252 254Q223 238 212 228T202 205Q211 185 258 160T382 112Q414 104 436 92T458 69Q458 63 449 58Q447 57 436 54T406 51Q388 51 369 55L349 60Z" />
<glyph unicode="=" glyph-name="equal" horiz-adv-x="446" d="M221 275T199 280Q185 280 180 283T170 294Q162 304 162 308Q162 314 175 317T221 324Q294 338 394 338Q425 338 435 336T456 323Q470 311 470 300Q470 293 464 289T448 284L440 285L363 280Q288 275
241 275Q221 275 199 280ZM166 133T145 138Q130 138 125 141T115 152Q107 162 107 166Q107 172 120 175T166 182Q239 196 339 196Q370 196 380 194T401 181Q414 169 414 158Q414 150 406 146T385 143L298 138Q223 133 186 133Q166 133 145 138Z" />
<glyph unicode="&gt;" glyph-name="greater" horiz-adv-x="446" d="M184 43Q178 43 175 46T171 51Q166 57 158 61T146 68T144 75Q145 77 149 83T159 95L188 107Q243 129 312 163Q326 171 349 181Q379 195 391 204T403 228Q395 249 349 276T229 332Q198 343 178
356T157 379Q157 387 167 391Q169 391 177 393T199 395Q221 395 248 387L275 378Q302 369 314 364T341 346Q374 332 396 314T441 265L475 219L480 189Q472 188 456 180T438 170Q424 160 396 146T325 111L307 102Q265 86 245 74T217 57Q209 51 200 47T186 43H184Z"
/>
<glyph unicode="?" glyph-name="question" horiz-adv-x="374" d="M235 192T228 203T220 228Q220 239 223 250Q223 255 232 275Q240 293 242 300Q253 319 275 344T315 382L332 394Q332 398 346 409T370 425Q374 428 384 435T403 450Q425 472 436 491T452 531T467
599L468 635Q468 648 466 655T455 668Q443 674 429 674Q395 674 357 648T301 581Q294 563 294 555Q294 550 297 542Q297 536 299 527T302 515Q299 514 285 514Q258 514 248 519Q247 521 244 525T238 535Q234 541 233 547T232 559T233 573Q245 609 268 643T327 695Q347
704 360 710T377 719Q379 719 387 719T410 722H415H421Q431 722 431 718H460Q479 713 498 702T528 679Q534 660 534 633Q534 583 515 525T466 433L444 413Q395 369 382 354Q350 336 324 300T283 223Q277 209 273 202T264 193T250 191Q235 192 228 203ZM203 3T193
3Q180 3 163 15Q149 29 149 43Q149 65 183 88Q203 100 212 100Q217 100 236 93Q263 77 263 56Q263 44 253 32T222 10Q203 3 193 3Z" />
<glyph unicode="@" glyph-name="at" horiz-adv-x="643" d="M238 -125T172 -73Q141 -44 117 -3Q109 8 104 26T97 64Q95 90 102 131T121 193Q121 197 122 201T125 209Q125 215 132 229T148 256Q163 277 163 277Q212 342 238 371T315 436Q344 458 386 476T463 500L472
501L506 499Q536 496 564 484T613 451Q674 403 691 327Q695 307 695 283Q695 257 692 233T683 197Q662 152 623 109T561 59Q545 59 521 66T485 83Q487 83 466 95Q464 93 458 87T441 71Q421 51 393 39T352 29Q321 37 310 44T278 78Q271 96 271 112Q271 128 281 161Q287
187 297 206T325 252Q341 275 359 289T407 316Q419 322 443 322Q464 322 479 312Q488 311 500 295T520 263Q523 248 523 241Q523 234 520 217Q518 211 517 206T515 195Q512 180 508 165Q502 149 502 141Q502 138 504 132Q503 127 518 120T541 113Q547 113 557 118T577
135Q582 141 599 158T625 192T641 229Q643 245 643 263Q643 317 618 362T543 428Q523 436 488 436Q438 436 401 420Q375 411 325 371T249 302Q166 202 151 96Q150 88 150 74Q150 48 159 30Q181 -14 230 -45Q287 -68 350 -64Q358 -66 360 -69T362 -80L370 -96Q370
-105 367 -109T354 -117Q335 -125 307 -125Q238 -125 172 -73ZM388 95T407 113T431 142L439 158Q460 191 465 221Q465 222 473 243Q473 250 472 253T462 262H463Q441 267 430 267Q418 267 406 262Q387 254 367 225T333 160T322 104Q334 81 355 81Q364 81 372 85Q388
95 407 113Z" />
<glyph unicode="A" glyph-name="A" horiz-adv-x="502" d="M69 -33Q58 -27 54 -22T49 -9Q49 1 57 19T87 78Q93 91 110 124Q168 235 168 245Q167 247 167 251Q167 261 183 269Q206 292 221 318Q231 340 248 370T290 443Q302 464 326 504Q363 570 421 648Q444 679
459 678Q478 678 501 661T534 621Q538 614 538 591Q538 560 531 486Q529 473 527 445Q524 400 518 349Q507 237 502 174T497 56Q497 28 498 15V8L497 -15Q491 -21 479 -21Q465 -21 452 -15T437 1Q436 2 434 3T432 12L433 34L436 90L441 252L428 251Q408 251 339
243T253 230Q244 230 231 218T208 187Q205 177 194 159T183 137Q177 133 173 127T167 118Q167 107 147 62T106 -13L85 -45L69 -33ZM282 290T302 293T338 298Q410 315 426 315Q433 315 439 312Q442 308 445 307T450 305Q452 311 462 413T474 550L477 600Q471 600
451 577T407 518T363 443Q353 425 344 410T330 394Q323 387 297 340T276 289Q282 290 302 293Z" />
<glyph unicode="B" glyph-name="B" horiz-adv-x="512" d="M165 -37T150 -22T134 6Q134 19 151 29Q156 32 168 24T193 3Q219 -21 261 -21Q279 -21 309 -14Q350 -2 381 21T442 80Q460 104 469 133T478 188Q478 220 466 235Q426 289 352 289Q320 289 292 281L234
269Q232 268 225 267T203 223T164 113Q143 52 131 28T109 3Q99 3 85 25Q74 43 74 56Q74 69 83 84Q88 93 91 102T99 127Q112 166 174 321T272 555Q297 612 287 615Q287 618 284 624T282 633Q282 639 310 651T351 661H357Q370 661 370 666Q372 666 388 668T424 668Q491
662 528 629T564 541Q563 516 529 468T461 388Q445 374 425 359T398 339L423 330Q472 312 500 286T540 215Q542 205 542 197Q542 175 535 147T518 98Q512 92 508 85T503 76Q502 72 485 46T455 3Q405 -40 366 -54Q324 -73 271 -73Q222 -73 197 -57Q165 -37 150 -22ZM257
330T290 336T337 348Q339 349 349 354T371 371Q395 393 430 436T481 510Q506 551 506 570Q506 583 495 594Q482 610 433 610Q401 610 378 604Q364 600 358 595T351 578Q351 563 335 547Q334 541 331 536T326 529Q326 526 314 499Q298 468 284 429Q246 339 246 328Q257
330 290 336Z" />
<glyph unicode="C" glyph-name="C" horiz-adv-x="482" d="M193 -45T174 -31T141 15Q125 60 125 121Q125 180 132 221T156 306L165 327Q181 368 188 381Q205 420 248 482Q286 540 308 566T350 609T426 663Q449 680 479 680Q504 680 525 668T558 632Q569 613 569
581Q569 536 549 487T498 410Q488 401 479 401Q468 401 450 417Q441 434 440 437T444 441Q453 452 470 483T494 533Q496 539 498 553Q506 588 506 600Q506 612 499 619Q496 622 491 622Q483 622 463 612Q439 602 402 567T335 491Q289 431 265 392T227 313L216 287Q217
283 213 267T204 241Q190 183 190 126Q190 83 197 50T219 5Q227 -2 243 -2Q263 -2 292 8T365 37Q388 46 408 58T439 80Q465 99 481 99Q492 103 496 103Q498 103 498 101T499 94Q499 80 484 64T444 32Q424 12 396 1Q364 -22 322 -40T244 -58Q236 -58 224 -56Q193
-45 174 -31Z" />
<glyph unicode="D" glyph-name="D" horiz-adv-x="578" d="M199 -99T191 -99Q171 -99 143 -91Q130 -87 124 -82T111 -68T99 -53Q81 -28 81 -9Q81 6 95 2Q105 -3 117 -18Q129 -30 143 -35T177 -41Q184 -41 204 -39Q228 -35 260 -24T307 -1Q355 32 385 52T424 77Q426
82 445 89L472 115Q498 143 506 149Q507 156 509 163T512 175Q524 188 548 237T581 323Q590 370 590 406Q590 467 569 508T506 585Q485 602 437 622T380 640Q375 639 353 583T293 420L261 331Q257 315 252 301T244 276Q231 239 231 234Q220 217 214 190T199 96Q190
63 191 66Q187 49 184 38T178 28L174 24Q174 18 165 18Q157 18 147 22T131 33Q127 47 127 53Q127 66 135 93Q143 127 161 188T193 289Q200 306 213 353Q224 390 237 429T257 478Q259 485 270 518T298 591L305 624L294 629Q285 626 278 626Q273 626 267 629Q257
626 240 637T220 659Q218 662 218 668T217 676Q219 686 257 694T340 703Q359 703 369 702Q387 701 403 696T444 681L468 672Q500 660 536 630T601 560T640 477Q643 464 646 441T649 400Q649 379 645 374Q642 370 642 364T646 357Q644 351 639 335T628 301Q622 238
572 153Q567 153 564 152T565 149Q565 144 554 130Q551 128 542 116T528 100Q527 93 522 89T513 84Q513 84 512 84T510 80Q492 54 445 16T360 -38Q350 -45 337 -51T318 -59Q310 -66 278 -78T225 -95Q199 -99 191 -99Z" />
<glyph unicode="E" glyph-name="E" horiz-adv-x="548" d="M228 -23T209 -13T166 16L146 30Q128 48 119 67T103 118Q101 130 101 139Q101 168 111 207T133 272Q155 325 230 442Q234 446 235 447T237 449T236 450Q236 457 265 512Q282 530 282 543Q282 550 279 554Q275
559 297 578T354 617Q381 638 407 638Q415 638 420 636T427 628Q427 622 467 632Q485 636 493 637Q497 642 513 645T560 653Q576 652 593 653T615 655Q623 658 632 653T649 631Q652 624 652 618Q652 607 639 601T592 590Q559 586 551 585Q496 579 435 566Q396 558
379 546T339 500Q332 495 321 475T299 432Q296 428 292 422T282 409Q253 370 242 353T234 331Q237 330 245 328T260 325Q269 330 285 332T308 336Q467 377 488 380Q497 386 505 386Q523 386 537 362Q540 356 540 351Q540 342 526 334T473 315T379 288L347 279Q282
260 246 260Q215 260 216 277Q206 282 194 255T172 189T163 122Q163 108 166 100Q175 75 188 62T234 40Q241 39 251 38T276 37Q296 37 316 45Q367 54 403 65T448 81Q454 84 458 85T466 86L465 84Q465 84 465 84T466 83Q469 83 484 100Q501 114 530 127T561 133Q563
127 563 123Q563 104 540 78T476 28Q427 2 367 -10T250 -24Q228 -23 209 -13Z" />
<glyph unicode="F" glyph-name="F" horiz-adv-x="466" d="M141 -22T134 -22Q128 -22 121 -19T108 -10Q101 -4 98 0T94 10Q94 18 100 36Q108 72 129 139T168 240Q175 252 179 265T184 282Q189 300 190 303L189 313Q189 317 191 321T198 330Q212 342 228 377L266
486L278 520Q279 524 282 534T285 548T283 552Q275 550 251 549Q239 547 233 547T224 545H217Q198 545 198 559Q200 575 209 585T234 597L273 606Q282 608 297 611T319 613Q332 622 332 627Q332 632 337 635T349 638Q363 638 369 629Q373 623 386 623Q407 623 456
634Q464 635 483 636T516 638Q534 638 545 635Q554 637 561 637T573 638Q590 638 594 641Q603 639 614 638T631 634T640 629Q643 625 643 622T642 618L640 619Q641 619 643 618T649 613Q664 605 659 590Q658 584 655 582T638 579T604 579Q566 584 538 584Q496 584
423 574Q405 573 390 569T370 564Q365 564 355 549T337 511Q331 502 316 464T296 413Q274 355 271 350Q283 346 319 346Q371 346 457 354Q503 363 510 360Q516 356 520 345T525 325Q525 320 523 316Q520 309 502 305T436 296Q392 292 308 292Q264 292 256 294Q254
293 251 288T247 276Q229 244 194 152T159 42Q152 24 148 1Q147 -3 145 -10T141 -19Q141 -22 134 -22Z" />
<glyph unicode="G" glyph-name="G" horiz-adv-x="498" d="M155 -14T140 17T126 81Q125 199 167 330Q185 383 211 441T255 531Q283 577 317 612T372 659Q385 666 407 672T455 678Q475 678 492 674Q516 668 539 658T570 640Q574 634 579 626T588 612T591 599Q592
589 583 575T563 561Q557 561 551 568Q541 583 531 590T510 603T494 611Q481 619 458 619Q440 619 422 614T390 597Q372 581 346 550T306 491Q246 386 221 293Q213 264 203 220T190 154Q184 117 184 87Q184 50 196 31T238 11Q258 11 287 21Q320 25 362 59T432 138Q477
222 477 251Q477 271 458 271Q438 273 408 273Q388 273 377 274T357 280Q350 291 350 299Q350 311 363 324Q377 330 418 330Q476 330 509 314Q540 299 540 253Q540 231 536 214Q527 175 475 97Q452 65 407 28T333 -21Q278 -46 234 -46Q203 -46 182 -31Q155 -14
140 17Z" />
<glyph unicode="H" glyph-name="H" horiz-adv-x="564" d="M128 -82T122 -80T109 -78Q97 -75 90 -65T82 -42Q82 -35 83 -31Q86 -28 88 -16T91 7Q94 13 96 19T101 38Q109 82 138 186T174 297V308Q174 311 176 320T185 339Q189 351 191 362T195 380Q199 385 208 410T221
443Q228 462 238 487T253 521V526Q255 528 263 546T278 578Q285 594 315 661Q318 668 324 678T331 693Q335 700 345 700Q354 700 363 694T378 677L388 661L352 589Q337 563 326 539T315 511Q311 501 300 470T281 417Q276 402 269 386T259 362Q251 344 251 342Q251
346 371 346Q390 346 438 347T499 350L551 355L585 458Q595 493 629 594Q644 637 653 649T675 662Q680 662 689 658T702 646Q713 635 713 623Q713 609 697 584Q685 563 663 505Q654 478 652 474Q652 453 642 443Q638 439 628 415T618 386Q618 378 615 369T608 355L601
331Q566 204 546 155Q546 150 541 137T536 119Q534 112 527 91T520 66Q518 55 512 31Q497 -37 497 -43Q495 -45 491 -45Q487 -45 479 -42T466 -37Q442 -24 442 -7Q442 4 451 22Q454 27 470 87L479 124Q485 140 506 219Q523 280 525 282V292Q522 297 452 297Q373
297 307 289H260H234Q229 278 204 197T175 94Q168 61 153 3T130 -83Q128 -82 122 -80Z" />
<glyph unicode="I" glyph-name="I" horiz-adv-x="400" d="M179 -13T101 -16L92 -17Q73 -17 59 -8T48 12Q50 38 131 39L184 40L194 60Q202 83 217 134Q222 153 238 198Q269 294 271 302Q276 314 287 350T304 409Q351 554 342 556Q332 557 288 553T238 545Q235 541
228 541Q222 541 215 545T206 556Q205 560 205 567Q205 574 211 578Q222 587 259 598T332 614Q349 616 366 621T393 635Q414 642 428 641Q435 636 462 636Q485 636 497 637Q533 641 558 641Q577 641 585 637T599 624Q603 608 603 603Q603 584 581 585Q564 581 499
579Q428 573 423 565Q418 560 416 556T410 548Q411 544 406 523T392 479L374 426Q346 339 338 319Q331 302 328 284Q311 225 300 191T283 135Q264 79 254 41L311 46Q370 52 388 52Q402 52 407 49T416 37Q428 22 428 12Q428 0 409 -5T350 -9Q304 -11 274 -12T233
-17T220 -27Q220 -35 211 -35Q201 -35 192 -31Q179 -13 101 -16Z" />
<glyph unicode="J" glyph-name="J" horiz-adv-x="306" d="M71 -188T57 -188Q34 -188 11 -178T-29 -148Q-39 -138 -39 -127Q-39 -121 -36 -112Q-31 -94 -23 -94Q-19 -94 -12 -99T2 -113Q22 -130 40 -130Q76 -130 116 -68L142 -10Q198 113 205 134Q205 135 206 138T210
145Q211 149 215 162T223 189L265 308Q269 328 276 351T290 391Q294 399 320 477Q332 515 341 542Q345 554 356 590T365 629L309 619Q298 614 282 614Q272 614 266 616T260 621V626Q255 622 247 631T239 649Q239 657 258 663T310 674L382 684Q387 688 407 681T435
665Q443 654 443 643Q443 629 435 604T396 497L363 404Q339 331 326 301Q322 288 315 269Q298 220 290 191Q278 163 264 115Q264 107 260 97T251 82L227 23L218 -1Q216 -7 208 -28T192 -59Q189 -67 181 -80T173 -96Q173 -97 172 -99T168 -102Q167 -103 165 -105T162
-112Q157 -124 131 -149T89 -181Q71 -188 57 -188Z" />
<glyph unicode="K" glyph-name="K" horiz-adv-x="494" d="M676 591T670 584T641 564Q596 542 590 531Q585 527 568 514T524 482Q485 456 457 433T419 398Q416 398 412 395T404 393Q402 392 395 387T385 378Q382 370 376 363T360 356Q341 346 285 301Q292 224 324
166Q353 102 383 72Q404 49 422 36T451 23Q460 20 476 9T493 -9Q494 -11 494 -17Q494 -32 489 -39Q485 -46 482 -49T472 -53Q461 -53 445 -45Q429 -46 390 -15T330 42Q303 81 284 113T254 183Q250 201 239 237Q232 256 231 264V283L219 253Q218 250 207 220T174
114L158 62Q135 -10 128 -29T112 -48Q108 -48 102 -44T92 -37Q84 -32 81 -28T78 -18Q78 -11 83 7Q82 20 85 32T88 46Q95 46 95 62Q95 70 104 97L113 128L125 157Q136 185 136 187Q136 200 149 220Q153 232 156 246T159 269Q161 274 170 292T183 328Q184 333 186
339T192 354L225 444L240 478Q242 483 253 509T269 535V546Q269 550 280 572L292 596Q300 608 304 621T310 638Q311 640 314 645T321 654Q332 662 341 662Q355 662 365 642Q372 628 372 617Q372 607 363 593Q329 520 295 443T260 354L294 379Q320 405 377 448L500
548Q528 562 566 592Q576 598 582 603T592 610Q598 615 616 627T639 639Q650 644 663 629T674 601Q676 591 670 584Z" />
<glyph unicode="L" glyph-name="L" horiz-adv-x="426" d="M178 -28T146 1T105 64Q101 94 101 131Q101 155 104 158Q107 160 107 170Q106 176 114 203Q121 221 118 234Q119 236 121 241T128 251Q133 256 133 261T133 269V270Q133 274 135 280T141 291Q144 294 146
299T150 306Q151 313 165 350T185 396V398Q189 408 196 419Q198 433 210 458Q233 509 274 575T340 665Q350 676 356 680T369 685Q378 685 392 671Q404 659 404 639Q404 628 400 628Q387 619 348 563T285 463Q272 435 263 416T250 391L246 382Q222 331 201 272Q196
266 195 260T193 251Q191 252 190 246T186 234Q179 228 179 205Q168 178 161 137T156 76Q160 43 211 23Q234 14 245 14Q252 13 266 15T300 20H299Q304 21 354 32Q378 35 394 41Q424 50 433 50Q439 50 441 48Q449 42 449 33L447 24Q444 16 415 0T359 -24Q338 -33
311 -38T257 -43Q230 -43 217 -38Q178 -28 146 1Z" />
<glyph unicode="M" glyph-name="M" horiz-adv-x="720" d="M661 -52T654 -52Q649 -52 642 -48T631 -37Q623 -20 623 5L624 46Q655 228 697 412Q711 461 720 505T732 561Q732 564 727 559T716 546T712 535L687 498Q681 492 659 452Q644 420 632 402L604 349Q573
292 566 280Q556 265 537 228Q527 204 501 171Q493 160 486 147T476 130Q476 125 456 96T418 48Q395 24 380 14T352 3Q335 3 315 22Q302 36 297 55T291 102Q291 127 298 186Q299 191 317 293Q336 396 340 406Q341 412 341 420Q341 429 338 429Q335 429 327 416Q324
412 292 360T222 227Q164 120 136 67T95 -10Q78 -43 75 -46Q60 -46 37 -21Q34 -15 34 -10Q34 -3 40 13T59 55Q90 116 100 124Q112 140 114 159Q127 177 151 224Q166 248 186 284T223 353L251 402Q290 470 313 507T349 556Q365 575 365 586Q365 607 373 624T391
640Q403 640 410 638T426 625Q428 622 432 616T439 602T442 583Q442 571 439 553Q438 540 431 494Q427 472 427 467Q401 388 381 270T360 103Q360 92 362 88Q369 83 374 87T391 113Q404 137 435 175Q437 178 474 241Q566 392 653 544L679 585Q694 609 708 629T730
656Q740 664 749 664Q768 664 783 641T798 583Q798 556 787 501T758 389Q752 361 741 319T718 243Q716 226 710 200Q709 195 705 170T702 135Q687 108 687 27L684 4Q682 -24 680 -34T674 -43Q672 -42 668 -42Q661 -42 661 -48Q661 -52 654 -52Z" />
<glyph unicode="N" glyph-name="N" horiz-adv-x="566" d="M49 -47T49 -35Q49 -28 52 -16T58 4Q67 39 82 71Q90 90 98 113T111 163Q131 209 146 252T166 308Q167 313 188 357Q205 390 219 420Q224 434 244 494Q258 539 269 566T297 620Q315 650 340 650Q352 650
361 643T376 620Q384 601 388 574T395 481Q396 461 396 422V327Q396 276 398 243T407 186Q415 140 429 87T451 33Q463 33 491 104T562 350Q568 370 576 408T588 482Q599 523 609 567T620 616Q620 621 620 626T620 638Q624 638 628 651T633 675Q633 704 647 718Q650
725 662 725Q674 725 685 719T701 703Q704 682 673 550Q673 538 659 478Q650 444 645 413Q641 384 636 363T626 343Q585 167 521 21Q492 -48 457 -48Q433 -48 408 -16Q381 19 371 55T343 181Q326 228 326 290Q326 326 331 374L335 443Q334 483 333 498T327 514Q323
514 315 496T292 435Q276 395 248 329L222 265Q204 229 195 192Q153 83 125 -8L116 -36Q101 -76 87 -76Q77 -76 64 -62Q49 -47 49 -35Z" />
<glyph unicode="O" glyph-name="O" horiz-adv-x="496" d="M140 7T129 22T116 61Q115 66 115 79Q115 107 120 149T130 216Q134 220 134 228T134 238Q134 241 139 258Q151 295 156 320Q183 402 209 451T267 543Q310 587 334 607T389 642Q428 665 445 665Q448 665
454 663Q510 651 538 618T579 514Q588 453 588 422Q588 372 570 321T505 193Q451 87 378 23T239 -41Q204 -41 175 -20Q140 7 129 22ZM273 13T303 35T379 110Q418 155 434 178T464 233T496 331Q507 373 510 396T514 453L513 518Q512 535 506 553T492 581Q477 598
453 598Q438 598 424 591Q405 583 368 545T302 466T272 413Q272 412 271 407T267 398Q250 380 229 325T192 206T174 99L172 65Q172 56 173 51T180 40T189 26Q194 18 205 13T228 8Q235 8 239 9Q273 13 303 35Z" />
<glyph unicode="P" glyph-name="P" horiz-adv-x="472" d="M113 -48T108 -45T98 -35Q90 -29 90 -17Q90 6 124 104Q131 132 139 158Q146 176 146 185Q146 193 148 203T151 218Q163 218 173 259Q177 274 180 284T184 301Q186 304 188 310T193 321Q201 345 212 367Q224
412 240 461T268 535L280 565Q281 568 284 576T288 589T285 595Q280 598 280 605Q280 618 304 639Q316 654 324 658T348 663L380 661Q392 660 444 660Q455 655 470 650Q500 640 500 636Q500 631 503 629T514 626Q524 626 545 604T578 557Q585 541 588 531T592 506Q592
491 590 482Q588 466 585 451T578 432Q562 420 562 411Q562 403 537 369T488 313Q462 283 426 260Q308 207 261 209Q229 204 222 201T211 184Q206 171 202 157T197 139Q191 128 171 65T143 -29Q139 -42 134 -45T118 -48Q113 -48 108 -45ZM244 260T255 260Q268 260
289 264T331 276Q367 288 411 315Q424 324 443 342T481 383Q487 393 505 430Q513 444 520 466T528 505Q528 513 527 517Q522 543 501 565T451 596Q430 600 413 600Q399 600 383 597Q367 592 360 583T340 545Q317 501 298 449Q280 382 262 338T241 287V283Q241 277
240 271T242 262Q244 260 255 260Z" />
<glyph unicode="Q" glyph-name="Q" horiz-adv-x="490" d="M578 466T569 414T545 322T517 283Q516 283 514 282T511 277Q513 269 507 244T486 192Q443 77 386 10Q396 -12 402 -20Q404 -27 414 -43Q426 -61 429 -71Q452 -106 452 -116Q452 -122 446 -124T425 -126Q410
-127 394 -115T373 -89Q367 -83 366 -78T364 -70Q360 -68 353 -59T343 -40L340 -33Q289 -72 236 -72Q225 -72 219 -71Q195 -67 168 -49T131 -9Q103 48 103 115Q103 167 118 239Q128 277 151 344T178 412Q181 415 181 429Q181 440 212 489T267 559Q300 603 363 635Q373
641 394 649T431 658Q480 661 505 647T550 592Q564 576 568 562T576 521Q576 515 578 501Q578 466 569 414ZM514 514T514 533Q514 560 505 575T476 599Q461 604 448 604Q400 604 350 557T264 422Q213 314 189 236T165 98Q165 69 171 42Q173 15 184 0T213 -15Q222
-15 227 -13Q268 -7 307 32L289 65Q259 124 254 130Q251 133 251 138Q251 145 256 150Q260 159 263 162T273 165Q275 165 293 161Q316 161 335 113Q338 102 348 80Q408 165 457 301L469 332Q488 377 499 417T512 502Q514 514 514 533Z" />
<glyph unicode="R" glyph-name="R" horiz-adv-x="498" d="M601 580T601 513Q601 489 590 462Q574 422 509 368T388 289Q366 279 337 269T280 250Q260 245 240 246L242 244Q265 193 331 120Q362 84 416 38T509 -28Q513 -32 513 -40Q513 -49 508 -59T498 -71Q496
-72 493 -73T486 -74Q472 -74 446 -57Q399 -29 355 8T259 106Q236 133 223 153T194 209L192 203Q162 101 101 -60Q96 -72 86 -72Q75 -72 59 -59Q57 -57 52 -52T45 -44T43 -36Q43 -27 59 9L71 36Q77 72 100 119Q107 143 181 323L199 367L210 393Q237 461 283 562Q288
577 288 581Q288 594 271 594Q260 607 260 618Q260 629 270 633L322 654Q357 662 390 662Q457 662 512 633Q601 580 601 513ZM428 368T485 417T539 514Q539 533 519 554T478 581Q417 595 396 595Q378 595 368 588T353 564Q353 561 340 535Q311 472 303 449L280
402Q248 338 242 322T240 301Q281 304 356 335Q428 368 485 417Z" />
<glyph unicode="S" glyph-name="S" horiz-adv-x="486" d="M214 -38L215 -35Q215 -25 198 -24Q177 -11 161 10T138 47Q131 63 131 64Q131 67 134 69T143 74Q149 79 156 79Q160 79 163 75T173 59Q185 38 214 26T280 13Q325 13 364 31Q390 42 402 52T414 76Q414 88
403 105Q400 113 395 119T379 135Q373 140 356 157Q340 163 323 173L302 183Q275 195 240 224T192 276Q178 289 170 312T162 362Q162 398 177 428Q189 455 230 503T293 566L319 591Q320 595 322 595T325 596Q328 598 346 605T384 632Q452 665 493 679T562 694Q600
692 626 671T658 614Q660 608 660 596Q660 560 634 519T575 458Q550 447 540 447Q533 447 531 452T529 468Q529 477 535 488T565 526Q606 585 606 614Q606 631 591 632Q580 635 536 627T491 614Q491 613 491 611T487 609Q483 610 413 568T341 520Q340 515 334 510T318
500Q299 489 283 468T245 408Q233 391 226 371T218 335Q218 324 221 316Q226 299 252 275T317 227Q368 198 402 171T446 124Q469 92 469 53Q469 39 466 27Q458 10 441 -6T412 -22Q402 -25 395 -29T383 -36Q372 -43 331 -47T254 -50L214 -38Z" />
<glyph unicode="T" glyph-name="T" horiz-adv-x="458" d="M643 576T643 571Q643 567 641 565T635 561T631 559Q609 552 595 552Q585 552 572 557Q562 566 548 570T490 577Q461 574 439 574Q432 537 416 508Q412 489 405 474Q398 454 399 451Q396 447 380 401T350
310Q340 279 335 265Q330 255 323 234T312 203L287 134Q279 119 268 87T249 28L239 -7Q234 -25 231 -34T225 -44T215 -44Q207 -44 198 -32T188 -7Q188 15 203 67T233 150Q237 168 240 179T245 195Q248 199 254 216T265 249Q268 267 327 450L334 471Q343 486 351
509Q359 514 359 530Q359 533 362 538T366 545Q368 547 370 554T377 566V567L361 566L312 561L290 559Q232 554 223 552Q193 550 181 555T172 575Q175 587 184 593T214 602Q223 604 249 608L276 613L310 617Q368 626 433 629Q460 630 478 631T503 634Q517 633 548
629T594 620Q616 615 626 606T642 580Q643 576 643 571Z" />
<glyph unicode="U" glyph-name="U" horiz-adv-x="482" d="M171 -34T148 4T124 113Q124 175 144 275Q159 348 195 449T270 618Q292 656 304 668T328 678Q344 674 353 663T362 638Q362 617 342 604Q334 595 320 569T302 535L278 490Q243 390 227 336T200 222Q186
155 183 124T179 74T179 51Q182 45 187 36T196 22T205 16Q215 11 230 11Q257 11 286 28Q290 36 297 40T307 46Q309 43 310 43Q313 43 315 50V51Q315 56 324 65Q334 69 357 96T399 152T419 187Q419 192 424 198T432 206Q439 213 467 267T520 371Q535 420 561 509T593
623Q595 636 599 645T604 657Q611 659 625 652T644 642Q649 636 649 625Q649 613 640 575Q635 555 627 515Q611 452 589 396T532 261Q528 252 523 242T513 218V212Q501 205 494 191Q491 186 487 178T477 166Q474 157 472 151T468 143Q467 137 459 132T449 126Q445
124 443 117T439 108Q403 55 359 12T275 -46Q255 -54 240 -54Q227 -54 220 -52Q171 -34 148 4Z" />
<glyph unicode="V" glyph-name="V" horiz-adv-x="490" d="M255 -57T253 -53T249 -36Q249 -26 243 -21T220 -11Q209 0 204 14T197 55T190 156Q192 184 192 193Q194 236 197 272T209 365Q207 380 211 415Q214 433 214 447Q214 455 213 458Q218 474 222 508Q225 538
231 559L234 580Q238 608 238 616Q237 621 237 630Q237 666 256 675Q262 678 275 678Q284 678 289 675Q304 666 302 642Q303 638 303 624Q303 597 299 557T286 481Q272 413 267 314L261 210Q257 136 257 122Q257 106 258 100Q258 91 262 70T271 48Q279 49 287 64T305
103Q307 107 308 112T313 123Q346 187 363 234Q380 274 401 309Q423 349 433 373Q445 403 484 476Q489 484 509 515T553 590Q583 639 599 656T630 674Q634 675 639 675Q642 675 644 673T649 668T653 663Q661 650 661 640Q661 628 651 609T615 552Q587 510 550 447T496
354Q493 346 488 332T475 309Q466 300 449 267T415 201L342 33Q334 10 328 -4Q319 -22 319 -27Q310 -41 295 -50T268 -60Q264 -60 260 -58Q255 -57 253 -53Z" />
<glyph unicode="W" glyph-name="W" horiz-adv-x="720" d="M485 -54T475 -48T460 -31Q454 -25 447 -13T438 10Q434 58 434 80Q434 108 437 156Q440 202 448 242T472 342Q478 361 481 374T481 388Q476 387 463 363T437 310Q431 299 426 287T414 263Q386 201 311
75Q302 64 286 40Q255 -7 235 -25Q210 -49 185 -49Q167 -49 155 -37Q142 -21 142 -6Q142 -2 144 8Q141 33 149 110T167 240Q174 288 198 398L220 506Q226 521 239 566L248 599Q249 617 256 625T273 634Q287 634 297 621Q313 603 313 578Q313 558 304 537Q259 427
232 247Q222 188 214 121T209 52Q217 50 231 64T256 103Q324 216 415 393Q417 396 459 475L483 520Q486 526 490 533T500 549Q522 590 534 610T554 633Q571 632 582 625T601 599Q602 594 600 583T593 561Q591 555 584 531T571 483Q552 433 543 386Q536 350 528
316Q511 239 503 189T493 99Q492 48 499 30Q502 20 514 20Q523 20 529 27Q558 65 577 94T618 163Q679 277 763 476Q795 568 806 596T833 632Q839 636 845 636Q856 636 865 628Q869 624 872 615T875 595Q865 560 829 465T772 326Q768 319 756 299Q754 296 748 285T741
267Q741 257 689 163T611 36Q578 -6 545 -29T498 -53Q485 -54 475 -48Z" />
<glyph unicode="X" glyph-name="X" horiz-adv-x="524" d="M661 642T661 611Q661 575 625 523Q602 500 599 484Q577 458 543 419T501 374Q477 353 452 330T421 298Q418 294 410 285T397 274L392 266V266Q403 217 415 185T448 109Q460 84 474 64T501 37Q504 34 512
34Q521 34 522 37Q547 43 549 -2Q552 -12 537 -20T502 -28L492 -27Q472 -25 453 -7T412 51Q365 117 335 210Q313 189 311 186Q282 158 198 67T109 -36Q102 -48 88 -48Q83 -48 80 -47Q76 -49 74 -49Q69 -49 65 -47Q64 -46 63 -41T59 -26Q55 -21 55 -13Q55 -6 58
2T63 13Q70 28 78 37T118 75L153 108L182 135Q203 156 203 156Q204 159 211 167T225 184Q247 201 318 272Q314 291 308 331Q303 364 297 390T289 419Q288 422 290 424T293 426Q295 428 295 430Q295 432 293 435T290 441Q288 447 284 469T277 521Q268 606 266 618Q264
620 264 623T263 628Q266 636 276 646Q285 652 294 652Q312 652 325 632T339 582Q339 556 345 550Q343 546 346 506T353 456Q349 444 353 439Q354 433 356 419T357 399Q356 394 360 379T366 356L374 328L390 346L413 370Q461 418 489 450Q543 514 569 547T607 606Q609
611 614 623T624 639T633 643Q661 642 661 611Z" />
<glyph unicode="Y" glyph-name="Y" horiz-adv-x="504" d="M679 609T678 600Q677 594 668 586T656 574Q634 555 586 505T510 420Q470 374 437 339T389 288Q388 286 369 267Q359 232 351 197L331 132Q326 117 317 85T302 37Q299 25 296 14T290 -9Q284 -32 280 -47T271
-66T259 -68Q255 -67 229 -49Q220 -39 220 -31Q220 -24 226 -4L234 26Q235 50 243 83T264 137Q264 152 274 183T295 242L312 290L295 311Q273 344 262 369T246 431Q235 471 235 515Q235 529 237 593Q238 636 247 653T257 673Q263 679 267 679Q278 679 286 654T294
595Q300 376 344 348Q352 346 354 346Q365 346 377 357T427 409L449 433Q465 450 534 529Q574 576 598 603T637 638Q640 643 645 646T653 650T658 651Q662 650 664 646T668 633T675 618Q679 609 678 600Z" />
<glyph unicode="Z" glyph-name="Z" horiz-adv-x="522" d="M91 -34T77 -29T62 0Q62 12 67 24T82 46Q130 98 182 149T336 292Q390 339 417 365T485 433Q568 520 578 557Q580 562 580 571Q580 589 561 594T489 603Q455 605 440 605Q401 605 369 601T288 589L284 588Q277
588 270 593T262 602Q266 608 266 611Q266 618 258 623Q256 629 256 632Q256 639 266 649Q273 653 302 656Q325 659 333 660Q365 665 431 665Q458 665 486 663L515 660Q574 655 604 647T645 613Q651 598 651 587Q651 573 639 544Q634 528 632 524Q614 490 561 428T452
315Q326 197 263 144Q202 91 151 43Q144 34 144 29Q144 18 178 18Q213 18 243 25Q246 26 261 29T301 33Q341 35 360 37Q385 38 422 40T476 42Q483 42 488 39T502 24Q515 20 515 11Q515 2 501 -9Q496 -9 491 -10T478 -12Q428 -21 402 -20Q373 -18 274 -29Q226 -37
158 -37Q132 -37 122 -36Q91 -34 77 -29Z" />
<glyph unicode="[" glyph-name="bracketleft" horiz-adv-x="330" d="M59 -120T59 -103Q59 -93 68 -79Q73 -76 77 -68T81 -53Q81 -35 109 65T145 177Q145 183 153 201T176 242Q207 343 257 467T332 629Q334 637 337 648T340 664Q340 684 350 692T389 701L428 705Q460
708 481 712T536 727Q548 729 565 736T585 744Q595 746 598 746Q607 746 617 731Q629 716 629 710Q629 705 624 702T606 692Q579 683 533 673T455 658Q437 653 423 649T406 641Q397 625 379 590T361 552Q356 547 332 498T305 432L295 408Q268 342 264 329Q256 310
249 285Q241 258 234 242Q234 236 231 225T224 207Q213 189 206 162Q203 157 199 149T194 138Q194 127 189 112Q187 109 186 104T185 98Q182 93 177 77Q170 50 164 36Q145 -21 145 -40L140 -68L170 -62Q278 -47 310 -47Q329 -43 338 -43Q344 -43 349 -46T361 -57Q362
-59 364 -65T367 -74T366 -79Q360 -87 255 -102H218Q218 -106 209 -108T185 -111Q174 -117 152 -122Q131 -129 131 -129Q109 -138 100 -138Q92 -138 81 -129Q59 -120 59 -103Z" />
<glyph unicode="\" glyph-name="backslash" horiz-adv-x="330" d="M335 -104T331 -103T326 -98Q308 -94 312 -80Q311 -67 288 25T253 149Q253 152 252 157T252 166Q252 167 249 174T247 188Q240 193 242 218Q240 242 233 242Q223 295 201 423T179 569Q180 576
177 589T173 611Q171 661 181 691T213 721Q218 721 226 718Q232 712 232 701Q232 692 229 674Q228 649 260 436Q279 307 279 302Q285 282 287 266T287 246V242Q287 235 290 234Q296 228 296 219Q295 215 306 173T326 115Q326 105 327 93T329 79Q329 77 336 56T346
19Q353 -1 363 -19Q367 -28 370 -35T373 -49Q373 -54 372 -57Q373 -69 370 -77T357 -92L339 -104Q335 -104 331 -103Z" />
<glyph unicode="]" glyph-name="bracketright" horiz-adv-x="330" d="M110 -111Q95 -111 87 -109Q82 -110 60 -110Q40 -110 30 -108Q18 -109 1 -107T-18 -104Q-20 -103 -24 -100T-33 -92L-47 -82L-35 -77Q-28 -68 22 -59T85 -53Q87 -53 97 -54T119 -55L155 -52L165
-25Q170 2 170 16Q176 20 179 28T182 43L196 87L202 107Q203 120 214 151Q226 191 228 203Q228 203 240 239Q249 265 253 282Q254 289 257 298T261 311Q269 333 270 344Q280 378 308 460Q352 594 359 617Q368 635 374 654T381 680L313 675Q209 668 194 668Q184
668 184 671Q182 673 180 674T176 675H175Q171 675 168 679T163 690Q162 702 195 711T289 728Q321 732 339 732Q350 732 355 731T361 730Q398 740 427 740Q442 740 447 736Q451 736 457 730T463 715Q471 699 471 697Q471 694 465 686Q455 672 436 630T417 582Q417
574 410 573Q409 573 407 572T405 566Q406 558 402 544T393 529Q392 529 390 528T388 522Q388 510 378 484Q369 454 359 430T348 400Q347 398 345 392T340 379Q336 370 332 352T326 318Q318 306 311 289T301 262Q298 252 297 245T295 234Q295 228 285 193T268 144Q267
136 263 117T250 74Q238 12 234 4Q234 2 230 -3T225 -11V-19Q225 -28 220 -32Q218 -36 218 -41T217 -48Q220 -48 219 -49T218 -52Q214 -52 214 -72Q214 -97 209 -105T185 -113Q179 -113 155 -111Q118 -107 120 -109T120 -111H110Z" />
<glyph unicode="^" glyph-name="asciicircum" horiz-adv-x="446" d="M396 317T388 334T365 385Q357 401 353 411Q339 433 328 458Q316 482 311 489T296 493Q274 485 244 449T185 349Q168 298 146 298Q142 298 134 302Q128 307 128 317Q128 332 143 374L160 409Q174
439 186 453Q206 488 249 523T321 555Q338 553 366 497T428 357L440 329Q443 323 443 317Q443 305 435 296T416 287Q404 287 401 301Q396 317 388 334Z" />
<glyph unicode="_" glyph-name="underscore" horiz-adv-x="446" d="M97 -8T82 -3Q68 -3 63 0T53 11Q47 20 47 25Q47 31 58 34T97 41Q127 48 210 51T349 55Q375 55 384 53T404 40Q416 28 416 17Q416 8 409 4T388 2L325 -3Q292 -4 228 -6T117 -8Q97 -8 82 -3Z" />
<glyph unicode="`" glyph-name="grave" horiz-adv-x="353" d="M338 435T334 435Q330 435 327 440T320 457Q318 460 302 486Q284 515 275 532T265 563Q265 571 268 575Q288 593 297 593Q305 593 310 587Q319 582 332 557T356 503T367 467Q368 462 362 453T347 441Q338
435 334 435Z" />
<glyph unicode="a" glyph-name="a" horiz-adv-x="437" d="M104 42T98 48T91 57Q91 68 86 74Q84 76 84 83Q84 99 99 137T140 221Q146 227 155 242T168 259Q168 263 171 266T178 270V276Q178 285 211 319T265 367Q290 384 316 384Q334 384 347 374Q352 368 393 331L430
298L412 248Q403 221 403 199Q403 161 425 126Q430 115 445 105T475 93Q497 89 497 71Q497 51 479 47Q475 46 467 46Q408 46 365 129Q361 135 355 151T347 173Q341 165 332 154T315 135Q206 26 143 26Q123 26 107 36Q104 42 98 48ZM143 87T153 89T179 99T211 120Q297
194 335 249L357 285Q347 306 336 315T316 325Q295 325 250 273T168 149Q159 132 152 115T143 92Q143 87 153 89Z" />
<glyph unicode="b" glyph-name="b" horiz-adv-x="435" d="M191 19T187 22T176 38Q168 46 167 51T166 61Q178 61 180 65Q180 68 183 69T191 69Q218 67 269 97T371 174Q400 211 411 232T423 266Q423 274 420 281Q417 288 399 288Q368 288 335 266Q292 239 266 217T218
164Q208 151 198 132T185 106Q185 102 174 96T154 90Q149 92 143 98T135 112Q133 114 129 117T123 123T121 130Q121 136 126 156T135 187Q143 225 155 266T173 311Q174 313 177 322T181 341Q183 350 187 361T192 375Q197 379 224 454Q224 458 246 507Q279 582 286
603Q295 616 302 630Q313 650 318 652Q326 654 338 649T358 634Q363 627 363 624Q363 619 358 606T345 578T335 557L310 505Q283 448 266 404T230 302L212 253L207 231L232 255Q244 264 276 292Q283 298 288 302T297 310Q309 318 332 328T364 340Q384 345 408 345Q429
345 443 335T470 303Q479 285 479 264Q479 233 463 206Q458 202 453 196T448 185Q447 179 431 158T396 116Q370 89 328 62T257 25Q251 24 235 22T211 17Q191 19 187 22Z" />
<glyph unicode="c" glyph-name="c" horiz-adv-x="355" d="M195 9T188 9Q151 9 127 32T103 96Q99 140 122 205T182 314Q207 343 225 361T258 385Q279 394 305 394Q323 390 340 379T358 357L363 352Q369 352 374 338T379 306Q379 292 374 282Q370 263 361 249T342
235Q331 235 331 229Q331 225 327 225Q322 225 315 231T305 245Q305 248 309 262T317 293Q320 305 320 314Q320 334 305 334Q297 334 289 330Q249 308 218 260T166 128Q161 106 161 93Q161 83 162 77T166 70Q171 68 187 68Q224 68 239 77Q271 94 310 123Q314 126
322 133T337 144Q344 155 350 157T369 160Q382 156 390 150T390 139Q387 139 386 137T385 134Q387 129 369 109T329 72T299 54Q295 54 292 53T289 48Q289 44 259 30T209 11Q195 9 188 9Z" />
<glyph unicode="d" glyph-name="d" horiz-adv-x="393" d="M337 -25T328 3Q314 42 314 85Q314 97 315 102L317 123L278 92Q246 64 215 50T157 36Q140 39 125 50T102 78Q98 86 98 102Q98 139 118 189T168 273Q211 338 264 338Q289 338 314 323Q339 313 343 313Q349
313 352 318T358 336Q369 382 379 413Q401 479 417 519T456 607Q466 628 473 634T490 640Q512 640 524 610Q527 603 527 596Q527 589 521 577Q495 532 457 430T398 253Q389 220 383 158T376 55Q376 37 378 29Q383 12 383 -1Q383 -11 378 -14T362 -19Q337 -25 328
3ZM216 97T249 122Q255 126 278 143T313 179T330 222Q331 240 327 251T309 274Q299 281 284 281Q257 281 234 259Q207 235 186 197T154 109Q151 90 174 90Q186 90 193 92Q216 97 249 122Z" />
<glyph unicode="e" glyph-name="e" horiz-adv-x="325" d="M251 13T216 13Q191 13 169 25T131 58Q118 74 112 94T106 143Q106 153 108 183Q111 220 132 260T186 331T249 375Q265 385 278 385Q285 385 292 384T307 382Q329 379 340 374T360 357Q385 332 385 299Q381
275 354 244T289 194Q271 188 248 188Q217 188 198 201Q189 204 184 204Q175 204 171 192T162 148Q161 141 161 128Q161 77 195 72Q218 67 228 67Q240 67 255 75L274 86Q280 89 285 94T294 103Q296 105 300 109T307 115T314 117Q318 117 323 113T331 106Q340 106
335 94T314 65T276 35Q251 13 216 13ZM292 254T309 272T327 302Q327 314 318 322T293 330Q281 330 275 328Q261 324 242 307T209 271T198 250Q203 241 237 241Q260 241 275 247Q292 254 309 272Z" />
<glyph unicode="f" glyph-name="f" horiz-adv-x="291" d="M117 -110T110 -105T88 -82Q82 -76 80 -71T78 -56L80 -31Q85 -16 85 4Q85 12 92 54T103 116L106 128Q114 161 118 189Q126 214 131 238T137 272Q137 290 151 298Q152 306 166 331Q190 399 201 428T226
480Q244 530 255 543Q262 560 293 593T348 646Q370 658 383 661T417 665Q434 665 440 662T462 644Q475 629 477 624T480 605Q476 584 460 551T436 517Q433 516 428 516Q413 516 413 541Q413 547 410 553T406 561Q406 576 413 586Q416 592 416 597Q416 602 413 603T402
603Q393 598 358 568T322 531Q321 529 317 521T303 501Q285 476 285 470Q285 457 279 457Q278 455 275 446T265 425Q261 416 255 405T245 390H246Q243 382 235 361T227 336Q227 332 241 332Q272 332 312 343Q325 347 331 347Q338 347 351 343Q362 336 369 320T372
298Q371 294 351 287T308 276Q277 269 257 266Q252 265 226 260T199 251Q195 251 192 247T189 239Q189 225 185 218Q180 203 168 153T155 90Q147 80 147 54Q141 43 141 29Q141 23 140 19Q140 14 138 -5T136 -40L133 -69Q132 -81 130 -91T123 -106Q117 -110 110
-105Z" />
<glyph unicode="g" glyph-name="g" horiz-adv-x="355" d="M392 290T392 279Q392 264 380 249Q377 244 369 234T355 212T346 187Q342 164 322 89L311 50L295 -12Q250 -167 205 -191Q192 -196 180 -196Q158 -196 135 -182T94 -142Q84 -128 75 -98T71 -63Q73 -61
78 -61Q85 -61 93 -65T103 -76Q107 -87 120 -105T139 -124Q155 -132 166 -132Q175 -132 183 -126Q199 -113 210 -93T236 -27L244 2Q268 90 279 116Q284 132 289 141L271 125Q259 114 246 104T219 88Q212 79 184 79Q164 79 144 85Q123 96 118 102T104 130Q100 138
100 155Q100 198 120 247Q139 286 180 330T251 383Q263 389 273 389Q284 389 296 385Q312 383 321 378T351 355Q375 331 386 302Q392 290 392 279ZM293 226T300 252T305 305Q304 319 301 324T290 330Q271 330 246 312T198 265Q183 245 173 217Q161 183 161 154Q161
132 169 129Q200 130 225 147T276 203Q293 226 300 252Z" />
<glyph unicode="h" glyph-name="h" horiz-adv-x="464" d="M130 54Q115 54 107 61Q99 68 97 72T94 82Q94 86 101 119L110 152Q120 193 128 220Q132 245 143 273T157 307Q165 336 188 397L218 478Q253 573 260 594L276 638Q276 654 292 654Q306 654 315 639T325
603Q325 588 319 574Q305 544 289 499T267 439Q233 343 218 311Q218 307 215 297T208 279L197 257Q197 254 186 215Q172 172 169 152Q174 161 190 179T220 210Q275 257 288 266Q300 273 308 279T319 287Q319 292 330 292Q334 292 334 293T335 298Q335 305 358 310T399
316Q411 316 418 311T436 289Q453 265 453 237Q453 221 447 204Q447 196 445 180T442 151L436 119H452Q459 119 465 117T474 114Q483 103 490 103Q499 103 499 96Q499 92 495 86T484 76Q458 60 440 60Q423 60 405 76Q383 98 383 129Q383 145 389 167L392 199Q394
223 394 229Q394 252 383 252Q369 252 330 228T248 167T181 93Q166 74 156 65T136 54H130Z" />
<glyph unicode="i" glyph-name="i" horiz-adv-x="187" d="M201 445T196 462T196 479Q204 480 214 496T224 524Q224 528 227 531T234 536Q242 541 248 541Q265 541 279 517Q285 504 285 494Q285 485 280 476T262 451Q245 428 230 428Q220 428 208 438Q201 445 196
462ZM97 46T97 72Q97 86 102 96Q102 101 104 108T106 117Q105 123 114 150Q132 190 162 291Q162 296 166 299T178 304Q186 306 189 306Q195 306 199 302T212 285Q218 279 218 267Q218 248 205 221Q192 192 188 171Q176 144 169 121Q167 115 163 97T152 68Q146 40
141 29T130 18Q123 18 111 32Q97 46 97 72Z" />
<glyph unicode="j" glyph-name="j" horiz-adv-x="204" d="M209 496T209 510Q209 536 230 561Q244 578 262 578Q274 578 286 569Q297 552 297 541Q297 532 286 515Q268 496 256 487T235 478Q225 478 218 485Q209 496 209 510ZM39 -216T6 -216Q-30 -216 -55 -190Q-66
-173 -73 -152T-80 -114Q-80 -94 -69 -94Q-62 -94 -56 -101T-50 -119Q-50 -135 -43 -146T-23 -158Q-12 -162 6 -152T36 -124Q49 -106 74 -57T111 25Q123 67 147 178L152 201Q155 224 160 245T167 271Q167 296 174 310Q174 323 176 336T179 352Q181 354 185 354Q191
354 198 351T211 342Q219 334 221 330T223 316Q223 302 219 278L216 247Q216 235 206 186T187 101Q182 82 180 76Q174 55 172 43Q171 35 159 2Q147 -27 145 -39Q142 -60 121 -104Q113 -123 93 -153T60 -194Q39 -216 6 -216Z" />
<glyph unicode="k" glyph-name="k" horiz-adv-x="365" d="M100 9T87 28T74 64L88 106L107 166Q116 179 121 197T128 219Q138 238 168 311L187 357Q215 417 233 465L249 502L268 546Q303 631 307 645Q307 653 310 657T318 661Q323 666 334 666Q339 666 350 651T361
624Q361 607 345 563T302 464Q204 253 212 245Q216 247 229 253T256 270Q265 275 273 280T287 290Q318 311 325 313Q331 317 348 327Q366 339 367 340Q379 346 387 346Q393 346 398 342T410 330Q416 323 416 316Q416 309 408 302T381 282Q368 273 354 265T327 249Q255
205 253 202Q255 198 262 184T277 160L292 134Q304 117 304 112Q313 87 328 73T362 59Q371 59 383 64Q398 70 407 70Q421 70 426 54Q429 48 429 45Q429 41 415 27Q389 1 362 1Q353 1 341 6Q326 5 304 26T241 99Q241 103 230 125Q226 134 221 141T214 152Q214 156
210 162T203 173Q192 176 186 171T174 157T165 144Q155 118 145 81T138 32Q138 16 133 11T112 5Q100 9 87 28Z" />
<glyph unicode="l" glyph-name="l" horiz-adv-x="169" d="M127 -1T120 -1Q104 -1 95 15T86 59Q86 82 92 112Q103 141 103 154Q106 173 123 222T146 282Q150 282 153 288T156 303Q156 312 159 321T167 335Q167 338 169 346T172 357Q172 359 174 364T177 373Q193
404 233 512T273 633Q273 649 289 649Q294 654 305 654L321 638Q328 631 330 624T332 601Q332 586 328 575T308 530Q305 523 300 514T289 490Q287 485 273 454Q263 434 263 431Q263 428 259 419T252 399Q244 383 227 343T209 298Q209 287 204 282Q201 282 200 278T199
271Q199 261 183 218L174 189Q155 124 148 94T140 43Q140 18 139 11T130 0Q127 -1 120 -1Z" />
<glyph unicode="m" glyph-name="m" horiz-adv-x="560" d="M537 47T525 66T512 130L513 176Q513 188 512 193T506 198Q493 198 451 164T365 83Q360 78 352 69T336 55T323 50Q314 50 306 57L295 66Q288 72 288 80L290 89L313 155Q335 206 339 219T338 232Q329 231
313 223T293 206Q291 206 280 196T261 180Q252 167 217 133L193 110Q178 98 151 61Q137 43 135 43Q104 43 96 73Q92 80 92 92Q92 108 104 158Q113 192 114 200L119 220Q121 233 128 251T152 308Q162 336 162 350Q162 363 171 370T191 378Q205 378 215 367T225 338Q225
321 217 303L206 276Q198 260 186 225T173 185Q174 182 180 186T194 198Q203 207 215 216Q245 244 286 270T350 303Q363 303 369 300T384 288T396 275Q405 266 405 249Q405 244 403 236Q399 222 393 202T383 173Q390 179 408 194T441 222Q491 261 520 261Q541 261
556 239Q565 230 567 221T569 195T569 170Q570 163 570 146Q571 138 572 115T577 89Q582 83 611 78Q629 75 629 62Q629 53 616 44Q603 36 584 36Q566 36 551 42Q537 47 525 66Z" />
<glyph unicode="n" glyph-name="n" horiz-adv-x="450" d="M434 46T421 54T399 83Q390 115 390 147Q390 162 393 168Q397 172 397 185T396 205Q395 228 382 228Q373 228 362 221Q306 186 268 161T195 105Q181 89 174 77T164 61T156 56Q150 54 148 54Q143 54 136
59T127 67Q123 71 114 80T104 94Q104 102 110 131T121 168Q124 168 130 180T141 200Q144 215 167 269Q181 293 186 309T194 349V351Q194 355 197 357T203 360Q210 365 216 365Q229 365 242 349Q257 330 257 309Q257 283 224 227Q221 220 216 207T210 189L266 227Q274
236 309 259T358 285Q382 296 388 296Q400 296 420 278T445 248Q445 237 447 232Q452 212 452 185Q452 167 450 153T443 136Q443 135 444 133T448 131V126Q440 126 446 109T462 83Q472 73 472 63Q472 51 454 46Q434 46 421 54Z" />
<glyph unicode="o" glyph-name="o" horiz-adv-x="353" d="M157 15T150 19T130 34Q97 69 97 98Q97 105 98 108Q101 115 101 122T100 131Q96 135 96 136T98 139T101 143Q107 143 105 154Q103 162 113 189T138 240Q149 258 170 285T209 326Q233 347 252 357T294 372Q314
377 321 377Q328 377 333 374T348 361Q375 349 385 331T396 273Q396 208 343 132Q320 99 300 82T247 44Q226 29 209 23T169 15Q157 15 150 19ZM289 148T303 172T331 233Q336 250 336 274Q336 304 328 308Q318 313 308 313Q286 313 262 293Q233 268 210 232T163
141Q153 120 153 100Q153 85 160 76T181 67Q214 67 265 121Q289 148 303 172Z" />
<glyph unicode="p" glyph-name="p" horiz-adv-x="378" d="M53 -225Q45 -225 40 -216Q35 -209 35 -199Q35 -192 40 -165Q51 -123 51 -107Q51 -102 53 -93T56 -75Q60 -68 63 -54T67 -28Q67 -23 70 -17T79 -6Q79 0 82 12T86 30Q91 57 125 158T183 321Q194 346 199
367T204 400Q204 404 206 407T215 417Q222 424 228 424Q233 424 239 420T251 411Q257 402 260 394T264 377Q264 374 262 358Q262 337 253 324T246 311Q291 332 326 332Q368 332 391 305T415 235Q415 217 405 192T384 157Q378 157 368 136Q355 120 325 103T283 89Q282
89 280 88T278 83Q278 79 244 68T188 57Q176 57 170 58T158 65Q151 58 151 52Q151 41 141 12T125 -17Q124 -18 123 -21T125 -28Q125 -31 124 -42T119 -59Q119 -68 116 -83T109 -107Q109 -119 106 -130T98 -142Q92 -144 92 -171Q91 -196 82 -210T61 -224L53 -225ZM197
110T242 125T306 156Q327 174 340 194T353 236Q353 252 344 265Q337 276 320 276Q300 276 273 262T222 225Q204 207 190 174T176 121Q176 110 182 110Q197 110 242 125Z" />
<glyph unicode="q" glyph-name="q" horiz-adv-x="377" d="M233 -211T228 -204T219 -177Q217 -168 217 -145Q217 -99 230 -33T267 99Q271 106 272 114T273 128Q223 104 200 96T161 87Q141 87 122 110T102 158Q102 173 118 203T156 264Q167 283 200 311T257 354Q267
360 289 370Q307 381 315 381Q330 385 351 385Q373 385 384 381Q396 373 407 355T422 317Q422 300 418 287T395 232Q381 210 370 187T358 158Q353 145 315 62Q314 55 307 31Q290 -31 278 -87Q270 -135 270 -164Q270 -196 278 -209Q280 -217 277 -221T265 -226Q257
-226 246 -220Q233 -211 228 -204ZM173 146T183 146Q209 146 235 162T294 209Q319 232 340 272T356 324Q354 328 348 328Q336 328 315 318T270 289Q198 234 174 178L163 149Q173 146 183 146Z" />
<glyph unicode="r" glyph-name="r" horiz-adv-x="360" d="M111 41T108 46T105 61Q105 70 106 76Q109 110 121 155L126 175Q129 200 161 280T213 389Q221 394 230 394Q243 394 252 385Q258 381 258 370Q258 360 251 341T225 283Q221 275 212 253T202 227Q202 225
203 225Q205 225 207 226T211 229Q222 248 264 281T323 322Q330 326 341 330T356 336Q372 344 394 344Q408 344 418 340T433 326Q434 319 438 315T445 310Q448 310 449 308T450 304Q450 297 442 296T413 293Q402 292 390 288T366 278Q310 246 283 228T227 179Q216
167 198 136Q191 129 184 100T176 63Q175 60 172 52T163 35Q151 19 143 19Q134 19 119 35Q111 41 108 46Z" />
<glyph unicode="s" glyph-name="s" horiz-adv-x="341" d="M143 3T126 16T103 40Q103 42 103 47T106 53T117 55Q134 55 171 51Q193 51 221 56T252 69Q255 69 255 70Q255 72 247 80Q245 80 238 83T229 87Q229 91 220 97T200 109Q171 133 159 144T150 161V166Q143
166 135 185T126 222Q126 240 141 272T177 324Q205 350 249 379T320 416Q337 423 354 423Q370 423 381 416Q394 408 406 393T423 366Q423 344 419 324T405 303Q404 303 402 302T400 297Q400 293 396 287T385 274Q363 258 349 258Q338 258 335 269Q333 271 331 275T326
279Q325 279 323 282T320 292Q320 295 322 298T326 303Q332 303 346 326T360 358Q360 364 359 365T349 366Q271 331 252 313Q249 307 248 305T242 303Q242 312 189 235Q187 233 185 223T182 206Q180 198 180 197Q180 193 183 189T193 181T205 171Q257 132 277 113T302
80Q315 60 315 44Q315 32 306 23T279 6Q268 1 242 -2T191 -6Q177 -6 161 -4Q143 3 126 16Z" />
<glyph unicode="t" glyph-name="t" horiz-adv-x="331" d="M163 10T147 28T125 63Q125 65 123 67T120 71Q116 74 116 104Q116 128 118 154T125 196L143 249L157 289L184 347L144 358Q137 359 133 365T128 376Q128 384 136 395T150 407Q153 406 166 406Q196 406
211 409Q221 413 225 425Q229 433 234 445T245 467Q248 473 254 485T271 514Q273 517 280 528T297 548Q304 555 314 555Q324 555 340 542Q342 539 345 534T349 525Q349 521 341 508Q335 496 330 487T320 470Q308 450 303 440Q293 427 293 420Q293 413 306 413Q320
413 353 419Q367 421 372 421Q407 421 410 392Q411 386 411 378Q411 364 402 361T359 358Q327 353 293 353Q287 353 280 353T264 350Q256 348 253 344T245 331Q242 328 231 308Q217 279 213 273Q186 193 173 109Q171 93 171 89Q171 74 181 68T215 62Q249 62 274
69Q304 82 319 91Q328 96 335 100T346 107Q349 113 353 113Q361 113 367 97Q367 81 360 69T325 41Q267 4 209 4Q193 4 179 7Q163 10 147 28Z" />
<glyph unicode="u" glyph-name="u" horiz-adv-x="370" d="M315 25T303 70Q301 76 301 91T301 112Q295 97 279 85Q256 62 233 51Q198 28 176 28Q156 28 138 50Q125 61 119 72T112 99Q112 110 115 123Q117 160 125 194T158 281Q190 344 204 365Q209 367 217 367Q227
367 233 361T241 345Q244 341 244 334Q244 309 214 252Q175 158 175 122Q175 101 187 97Q192 94 198 94Q223 94 258 128T325 237Q339 271 342 307Q341 310 341 316Q341 334 359 345Q363 351 370 354T379 354L395 355Q398 356 401 350T407 341Q414 335 414 319Q414
286 385 218Q366 178 360 157T352 115Q352 77 381 52Q391 45 393 37T394 15Q392 6 383 1T362 -5Q349 -5 339 2Q315 25 303 70Z" />
<glyph unicode="v" glyph-name="v" horiz-adv-x="331" d="M172 69T156 128T130 242Q126 263 114 299Q110 315 110 321Q110 339 125 348Q129 351 136 352T149 353Q171 345 189 231Q192 202 198 179T205 152Q208 146 212 140T221 133Q224 133 228 137Q247 156 269
185Q293 218 302 229Q313 246 331 269Q334 273 345 288T366 313T383 326Q386 327 392 327Q409 327 409 313Q409 300 391 274Q385 266 379 253T370 237Q359 215 330 175T290 125Q288 123 274 111T247 82Q215 52 201 52Q192 52 183 61Q172 69 156 128Z" />
<glyph unicode="w" glyph-name="w" horiz-adv-x="517" d="M156 45T142 78T127 155L128 173Q128 209 133 233T139 263Q141 268 143 280T151 316Q159 351 167 359Q175 367 186 367Q193 367 199 364T209 354Q215 348 215 325Q215 308 212 292T204 269Q201 263 195
211Q191 173 189 162Q188 158 188 150Q188 127 202 127Q225 127 267 188Q295 228 306 250T330 308Q335 323 339 334T348 348Q353 352 362 352Q372 352 386 343Q398 331 398 315Q398 298 386 274Q374 250 364 208T354 141Q354 123 358 119T373 114Q401 114 440 154Q458
172 487 217T517 271Q517 277 526 288Q531 295 535 300T549 310L557 312Q565 312 576 301Q580 297 581 289T582 269Q577 251 565 223T546 186Q527 171 514 149Q490 120 477 109T459 93Q439 73 416 62T371 51Q350 51 337 61Q306 77 306 115Q306 122 304 128T301
136Q286 136 277 120Q263 95 229 70T177 45Q156 45 142 78Z" />
<glyph unicode="x" glyph-name="x" horiz-adv-x="343" d="M375 3T370 9Q364 9 356 12T338 19Q317 28 277 63T237 110Q237 113 236 114T232 115Q231 116 229 119T226 126Q226 130 223 133T216 136Q211 132 195 119T162 88Q130 56 118 46T99 35Q87 35 72 47T56 72Q61
79 81 100T125 142L189 205L178 243Q160 282 152 306Q146 314 143 319T139 329Q139 333 147 344Q158 355 164 355Q169 355 178 349Q186 349 203 316T221 269Q221 256 230 256Q240 256 269 275Q280 285 286 292T295 301Q307 310 332 328T365 349Q370 352 373 352Q385
352 396 339T407 312Q407 300 401 293T375 275Q370 271 344 252T279 200L253 179L269 152Q285 120 295 115Q303 104 334 80T370 56Q373 56 379 52T391 46Q403 34 403 19Q403 3 391 3Q375 3 370 9Z" />
<glyph unicode="y" glyph-name="y" horiz-adv-x="341" d="M408 353T408 336Q408 318 384 273Q376 250 367 230T352 204L329 151Q314 118 292 74Q265 18 254 -9L241 -30Q191 -110 164 -142Q109 -191 79 -199Q66 -203 48 -203Q15 -203 -14 -189T-48 -155Q-49 -148
-43 -140T-30 -132Q-25 -132 -22 -136Q-14 -142 1 -147T35 -153Q42 -153 54 -151Q74 -147 96 -127T136 -83Q170 -33 209 42Q195 46 182 61T162 94T156 119V130Q147 130 142 164T136 243Q136 260 138 286Q142 302 142 325T143 356V360Q143 372 145 377T154 386Q162
390 170 390Q198 390 198 316Q198 305 196 273Q195 259 195 231Q195 179 204 139T231 84L237 98Q248 127 254 135Q268 164 270 172Q272 179 281 195L294 222Q296 228 307 260T329 313Q333 321 341 336T354 359T365 368Q373 375 378 375Q382 375 392 369Q408 353
408 336Z" />
<glyph unicode="z" glyph-name="z" horiz-adv-x="315" d="M95 21T74 21Q60 21 52 24T34 38Q26 44 26 51Q26 64 61 100Q99 147 136 177Q158 194 240 250Q270 274 283 283T304 298Q255 303 230 301Q208 301 197 301T178 304H163Q153 304 132 314T109 334Q111 335
116 338T125 345Q128 347 133 350T141 354T146 352Q151 352 168 352T208 354Q266 353 293 351T333 343T361 324Q374 311 374 297Q374 282 360 266Q359 265 354 259T346 253L298 222Q288 215 268 203Q242 187 238 182Q229 178 221 172T207 161Q202 155 192 146T171
129Q159 119 142 102T119 79Q119 80 165 84T248 87L318 89Q335 90 357 90Q378 90 387 86Q396 83 403 72T408 56Q403 56 376 53T315 49Q289 47 192 35Q177 32 140 28Q95 21 74 21Z" />
<glyph unicode="{" glyph-name="braceleft" horiz-adv-x="330" d="M167 -113T167 -119Q165 -118 160 -115T151 -106Q143 -96 142 -87T141 -58V-30Q147 -25 148 -16T149 -4Q153 12 169 58T196 127Q207 148 215 169T223 201Q223 217 210 227T173 243Q150 243 150
259Q150 265 153 272Q156 282 165 288T186 295Q192 295 195 294Q218 294 248 327T293 404Q305 436 311 466T321 546Q325 603 340 635T392 704Q403 717 414 725T434 737T447 744Q469 752 489 752Q506 752 514 747Q521 744 529 727T534 707Q530 707 521 705T498 702Q460
693 426 663Q406 638 399 626T390 597Q380 571 378 558T370 498Q365 447 362 430T345 381Q331 343 315 317T276 270Q257 258 257 254Q257 251 265 241Q265 239 270 228T275 208Q279 196 279 189Q279 175 272 154T246 92Q227 54 227 37Q220 27 208 -18Q204 -37 202
-50T198 -70Q198 -84 223 -84Q227 -84 243 -82Q263 -78 264 -78Q272 -78 279 -88Q287 -96 287 -101Q287 -112 259 -121Q234 -134 207 -134Q186 -134 176 -127Q167 -113 167 -119Z" />
<glyph unicode="|" glyph-name="bar" horiz-adv-x="330" d="M147 -141T140 -141Q124 -141 115 -125T106 -81Q106 -58 112 -28Q123 1 123 14Q127 33 164 148T206 272Q210 272 213 278T216 293Q216 302 219 311T227 325Q227 328 229 336T232 347Q232 349 234 354T237
363Q254 395 318 563T383 743Q383 759 399 759Q404 764 415 764L431 748Q438 741 440 734T442 711Q442 696 438 685T418 640Q415 633 410 624T399 600L371 535Q323 426 323 421Q323 418 319 409T312 389Q304 373 287 333T269 288Q269 277 264 272Q261 272 260 268T259
261Q259 251 243 208L229 163Q225 148 205 81T172 -35T160 -97Q160 -123 159 -129T150 -140Q147 -141 140 -141Z" />
<glyph unicode="}" glyph-name="braceright" horiz-adv-x="330" d="M109 -111T94 -104T78 -87Q78 -83 80 -80T84 -76Q88 -79 89 -79T91 -76Q94 -75 103 -72T128 -63Q157 -58 171 -51T192 -31T204 9Q212 41 212 46Q212 48 213 65T214 110Q214 134 213 147Q211 180
211 216Q211 234 213 242T220 261Q230 270 230 283Q230 290 229 294Q222 309 222 325Q222 344 233 353L247 368Q267 389 276 401T297 435Q322 475 341 516T368 587V597Q370 603 370 608Q370 625 354 649Q346 665 334 672T296 688Q279 691 279 704Q279 712 287 722Q293
733 310 733Q328 733 337 724Q345 716 352 716Q357 716 377 696T406 661Q409 658 412 645T418 619Q422 599 422 595Q422 585 410 549Q396 505 385 474T368 437Q365 435 361 433T357 428Q357 421 339 391T307 347Q303 343 300 337T296 328L289 324Q282 319 282 312Q282
308 289 289Q290 281 295 272T303 258Q303 252 302 248T298 244Q285 237 280 232T273 213T270 170L271 127Q272 95 270 60T264 15Q248 -55 241 -55Q240 -55 239 -56T238 -59Q238 -81 206 -96T133 -111Q109 -111 94 -104Z" />
<glyph unicode="~" glyph-name="asciitilde" horiz-adv-x="446" d="M336 201T318 208T279 229Q271 234 255 246T222 265Q216 267 212 267Q203 267 197 263T178 249Q160 231 147 230Q145 223 138 216T127 214Q116 217 109 224T103 237Q104 249 129 271T200 311Q204
312 212 312Q231 312 250 305T283 283Q303 265 317 256T346 247Q351 247 363 251Q371 252 386 257T410 266L436 273Q441 281 448 282Q449 285 462 286L471 288Q484 288 480 268Q480 258 464 239L444 230Q431 227 414 219T389 207Q371 201 357 201Q336 201 318 208Z"
/>
<glyph unicode="&#xa0;" glyph-name="uni00A0" horiz-adv-x="242" />
<glyph unicode="&#xa1;" glyph-name="exclamdown" horiz-adv-x="210" d="M212 423T212 443Q212 455 222 467T253 489Q272 496 282 496Q295 496 312 484Q326 470 326 456Q326 434 292 411Q273 399 263 399Q258 399 239 406Q212 423 212 443ZM11 -211Q4 -204 3 -197T1
-174Q2 -159 10 -142T29 -105T44 -78L57 -54Q73 -26 73 -21Q73 -17 78 -7T86 11Q95 26 106 48T117 75Q118 77 119 82T125 91Q128 91 129 95T130 102Q130 107 135 122T149 155Q183 252 186 293Q188 317 189 321T199 329Q218 333 229 318T240 274Q240 249 231 214Q217
186 217 172Q212 155 201 129T183 88Q179 88 175 81T170 67Q170 59 167 49T159 35Q159 32 155 25T151 14Q151 12 149 8T146 0Q128 -30 94 -113T59 -209Q56 -226 41 -223Q36 -227 25 -227L11 -211Z" />
<glyph unicode="&#xa2;" glyph-name="cent" horiz-adv-x="450" d="M558 666T556 642Q554 632 550 623T542 606T534 593Q520 571 501 536Q492 519 465 478Q478 460 474 448Q473 445 463 435T446 419Q439 412 427 415Q427 410 411 384Q398 361 380 326T360 288Q360
281 351 272Q348 272 347 268T345 261L343 251Q388 258 417 269Q440 284 461 284Q468 284 471 283Q484 277 484 269Q484 255 455 239Q438 230 426 221T414 207Q412 207 406 205T398 203Q387 202 364 196T334 186Q322 181 310 181Q305 170 298 154T282 118Q233 11
230 -13Q228 -37 226 -44T214 -54Q182 -61 182 -18Q182 7 197 59Q212 80 214 103Q219 121 257 192Q251 194 241 202T226 221Q212 241 212 275Q212 326 241 397Q252 420 277 457T312 500Q315 501 326 505T351 517Q365 524 384 524Q403 524 422 513Q452 572 475 622T499
680Q502 688 506 691T519 693Q525 699 535 695L549 681Q558 666 556 642ZM358 384T394 457L383 464Q375 464 361 450T332 415Q309 391 293 356T270 296Q268 292 268 282Q268 271 270 260T276 246Q277 245 284 245L302 278Q306 278 311 285T317 299Q317 308 320
317T329 330Q329 333 333 341T338 351Q339 353 341 356T344 363Q358 384 394 457Z" />
<glyph unicode="&#xa3;" glyph-name="sterling" horiz-adv-x="450" d="M555 549T555 542T554 533Q553 525 548 519T529 502Q517 496 506 496Q492 496 485 506T480 538Q482 556 472 578T448 604Q438 608 423 600T383 572Q376 560 369 553T360 544Q358 540 351 528T333
496Q309 447 273 342L365 341Q391 341 400 339T420 326Q432 314 432 303Q432 294 425 290T404 288L341 283L254 285Q238 237 236 229L229 181Q217 110 214 75L216 50L252 38Q260 35 279 27T314 16Q340 -1 374 -1Q398 -1 417 5T439 19Q443 19 446 23T450 33Q454
33 461 35T474 38Q499 38 499 20Q499 6 483 -13T439 -48Q415 -60 382 -60Q333 -60 296 -35Q292 -31 283 -27T267 -23Q262 -19 238 -17Q222 -15 216 -13Q197 -9 185 -9Q173 -9 160 -13Q139 -20 111 -20Q76 -20 50 -10T24 16Q24 33 35 42T73 54Q100 56 115 58T134
63T143 75Q158 124 171 208Q174 241 186 287Q168 288 143 288Q123 288 108 293Q94 293 89 296T79 307Q73 316 73 321Q73 327 84 330T123 337Q140 341 201 343Q221 409 245 459Q288 547 326 598T403 655Q416 659 432 659Q473 659 501 633Q502 639 511 630T530 604T541
578Q544 568 547 561T551 552Q555 549 555 542Z" />
<glyph unicode="&#xa4;" glyph-name="currency" horiz-adv-x="450" d="M481 368T485 348T486 325L482 314Q485 307 467 272T426 209L402 184L415 170Q422 157 442 138T470 119Q474 118 477 105T481 79Q481 72 479 68Q475 62 469 62Q460 62 441 84Q423 98 406 120T383
156V159Q383 163 380 163Q377 163 365 156Q339 145 313 138T270 130L261 131Q249 135 248 135Q244 135 233 124Q232 118 218 100T195 74Q190 63 181 51T174 35Q169 30 156 25T141 26Q135 22 131 30T126 48Q126 57 130 60Q128 62 128 63Q128 65 131 65T136 64Q133
67 133 73Q133 81 139 91T153 108V109Q153 111 156 115T160 125Q171 132 183 132Q183 142 186 146T193 152T199 156Q204 161 204 167T201 171Q199 173 194 182T185 194Q185 201 184 214T182 238Q182 260 187 277Q189 277 192 291T199 309V311Q199 315 203 319T210
325Q211 326 213 328T215 335Q216 336 219 342T228 357Q229 361 233 372T238 390Q238 395 235 404Q215 420 200 441T189 474L182 485Q178 490 178 498Q178 508 183 515T193 518Q200 518 205 506Q210 499 214 494T222 484Q225 485 231 473T243 456Q254 441 264 432T275
421L276 420Q278 420 284 425T298 435Q308 440 315 442T331 444T347 446L375 444L417 499Q439 527 449 538T467 549Q473 549 478 539Q483 538 485 533T488 520Q488 516 486 512Q485 513 481 506T474 493Q471 487 468 482T462 471Q459 466 456 461T451 450Q443 448
441 445T437 437T434 430Q435 429 438 424T449 413Q456 410 463 400T473 374Q481 368 485 348ZM431 315T431 340Q431 359 423 369Q413 381 400 387T363 393Q350 393 339 388T323 381Q301 371 291 359T262 311Q231 266 231 232Q231 214 243 206Q255 188 297 188Q308
188 313 189Q392 229 419 289Q431 315 431 340Z" />
<glyph unicode="&#xa5;" glyph-name="yen" horiz-adv-x="450" d="M659 609T658 600Q657 594 648 586T636 574Q614 555 566 505T490 420Q438 360 392 312Q409 311 435 311Q461 311 470 309T490 296Q502 284 502 273Q502 264 495 260T474 258L411 253L345 254L331
197L323 170Q349 169 387 169Q413 169 422 167T442 154Q454 142 454 131Q454 122 447 118T426 116Q423 115 401 116T361 118L308 121Q288 54 282 37Q279 25 276 14T270 -9Q264 -32 260 -47T251 -66T239 -68Q235 -67 209 -49Q200 -39 200 -31Q200 -24 206 -4L214
26Q215 45 221 71T236 119Q173 116 165 116Q145 116 130 121Q116 121 111 124T101 135Q95 144 95 149Q95 155 106 158T145 165Q170 171 250 171Q261 207 275 242L280 256L213 258Q193 258 178 263Q164 263 159 266T149 277Q143 286 143 291Q143 297 154 300T193
307Q211 311 274 313Q253 345 242 370T226 431Q215 471 215 515Q215 529 217 593Q218 636 227 653T237 673Q243 679 247 679Q258 679 266 654T274 595Q280 376 324 348Q332 346 334 346Q345 346 357 357T407 409L429 433Q445 450 514 529Q554 576 578 603T617 638Q620
643 625 646T633 650T638 651Q642 650 644 646T648 633T655 618Q659 609 658 600Z" />
<glyph unicode="&#xa6;" glyph-name="brokenbar" horiz-adv-x="330" d="M294 346T283 346Q271 346 258 356T244 377Q244 381 247 385Q275 450 329 591T383 743Q383 759 399 759Q404 764 415 764L431 748Q438 741 440 734T442 711Q442 696 438 685T418 640Q415
633 410 624T399 600L371 535Q323 426 323 421Q323 418 319 409T312 389Q309 383 297 356Q294 346 283 346ZM147 -141T140 -141Q124 -141 115 -125T106 -81Q106 -58 112 -28Q123 1 123 14Q126 30 152 111T195 242Q195 249 204 249Q217 249 234 236T245 213L243
208L229 163Q225 148 205 81T172 -35T160 -97Q160 -123 159 -129T150 -140Q147 -141 140 -141Z" />
<glyph unicode="&#xa7;" glyph-name="section" horiz-adv-x="385" d="M465 599T477 583T493 550Q493 543 484 503Q482 496 476 484T470 469Q469 457 457 457Q448 457 439 463T426 480Q425 485 423 494T420 510Q420 518 423 525Q434 539 434 542Q434 547 423 544Q411
544 379 521T331 474Q320 461 316 453T312 436L313 418Q313 404 323 384T341 363Q343 359 351 346T373 321Q401 277 401 247Q401 225 384 211T331 189Q315 185 297 185Q274 185 253 193Q258 184 265 177Q267 173 276 161T297 140Q325 93 325 64Q325 42 308 29T255
9Q239 5 219 5Q193 5 172 15T140 45Q133 61 133 63Q133 69 140 74Q147 75 156 70T172 62Q183 55 200 55Q223 55 244 66T268 90Q266 93 260 104T250 125Q219 156 201 192T182 254Q180 259 180 268Q180 283 188 299T209 327Q228 356 269 389Q258 414 258 432Q256
437 256 446Q256 477 283 513Q309 542 341 567T400 605Q404 605 425 605T454 603Q465 599 477 583ZM339 272T335 280T326 303Q309 321 300 336Q287 325 255 291Q244 277 241 269T237 251L248 247Q262 235 282 235Q303 235 322 246T344 271Q339 272 335 280Z" />
<glyph unicode="&#xa8;" glyph-name="dieresis" horiz-adv-x="353" d="M255 457T250 467T247 482Q256 513 267 522Q269 524 273 528T281 534Q289 539 295 539Q311 539 319 515Q326 503 326 496Q326 489 322 482T309 463Q292 440 278 440Q270 440 262 450Q255 457
250 467ZM383 457T378 467T375 482Q384 513 395 522Q397 524 401 528T409 534Q417 539 423 539Q439 539 447 515Q454 503 454 496Q454 489 450 482T437 463Q420 440 406 440Q398 440 390 450Q383 457 378 467Z" />
<glyph unicode="&#xa9;" glyph-name="copyright" horiz-adv-x="496" d="M288 90T245 116T183 193Q173 210 167 240Q165 252 163 260Q162 261 162 265T160 270Q159 272 159 284Q159 313 161 319Q164 322 164 325T163 329Q161 333 161 339Q161 357 172 389T198 449T218
480Q220 480 220 483T221 487Q226 494 258 514T318 548Q356 567 392 567Q470 567 534 477Q537 467 546 452T556 432Q569 413 575 385T578 352Q579 350 579 346T579 339Q581 337 581 321Q581 301 578 276T571 249Q570 249 569 248T569 245Q571 243 559 230T539 216Q539
216 539 215T542 213Q545 211 527 191T483 151T437 123L429 115Q422 105 398 98T354 92Q288 90 245 116ZM299 144T320 144Q359 144 413 174Q439 186 470 212T500 252L499 256Q499 267 506 270Q515 278 520 301T526 349Q526 376 519 389Q519 390 514 397T510 409Q510
416 505 425T472 473Q429 506 386 506Q368 506 358 502T346 498Q288 481 261 444T222 360Q207 314 207 296Q207 282 219 262Q218 252 222 238T225 221Q226 215 237 200T262 170T288 153Q299 144 320 144ZM346 215T340 215Q330 215 305 222Q303 222 297 228T284
241Q275 255 275 279Q275 316 296 358Q300 376 313 395T343 434Q344 435 350 437T371 445Q378 447 384 448T392 450Q408 449 424 440T449 419T455 398Q453 395 448 389T440 378Q438 373 432 373Q426 373 422 378T416 392Q403 409 390 409Q377 409 365 396T349 369Q335
353 331 327T325 295Q324 291 324 283Q324 263 329 261Q343 257 350 257Q382 257 432 295Q437 298 439 298Q442 298 445 291T453 282Q452 265 441 252T415 232Q411 232 407 231T399 229Q391 228 378 225T354 218Q346 215 340 215Z" />
<glyph unicode="&#xaa;" glyph-name="ordfeminine" horiz-adv-x="350" d="M209 324T197 333L195 334L189 346Q182 353 182 354Q182 364 179 368H180Q178 370 178 377Q178 406 221 499Q227 505 238 525L244 535L243 534Q243 539 251 543V549Q251 557 278 588T322
633Q344 649 366 649Q385 649 396 638L432 599L463 568L450 524Q443 502 443 480Q443 448 463 406Q466 400 475 394T494 387Q517 381 517 366Q517 358 512 352T497 343Q471 339 445 359T401 417Q393 430 389 444Q385 438 379 432T371 422Q283 324 229 324Q209 324
197 333ZM237 380T251 388T280 410Q303 434 331 468T377 527L394 556Q386 574 379 582T367 591Q352 591 319 545T254 435Q248 421 243 406T235 383Q237 380 251 388Z" />
<glyph unicode="&#xab;" glyph-name="guillemotleft" horiz-adv-x="646" d="M390 1Q363 1 328 16L310 26Q280 41 267 49T242 72Q210 90 191 111T154 165L130 207L123 237Q131 239 142 248T154 258Q167 274 188 294T264 360Q304 390 319 406T338 425Q358 447 364
447Q367 448 371 448Q376 448 381 444Q387 440 395 438T408 434T414 427Q414 425 411 418T402 405L376 384Q339 356 275 299Q230 258 215 240T202 205Q213 179 251 142T353 69Q381 55 399 40T418 13Q418 5 406 2L390 1ZM590 1Q563 1 528 16L510 26Q480 41 467 49T442
72Q410 90 391 111T354 165L330 207L323 237Q331 239 342 248T354 258Q367 274 388 294T464 360Q504 390 519 406T538 425Q558 447 564 447Q567 448 571 448Q576 448 581 444Q587 440 595 438T608 434T614 427Q614 425 611 418T602 405L576 384Q539 356 475 299Q430
258 415 240T402 205Q413 179 451 142T553 69Q581 55 599 40T618 13Q618 5 606 2L590 1Z" />
<glyph unicode="&#xac;" glyph-name="logicalnot" horiz-adv-x="465" d="M466 125T455 125Q446 125 442 132T440 153L435 216L432 255L403 253Q370 252 306 250T195 248Q175 248 160 253Q146 253 141 256T131 267Q125 276 125 281Q125 287 136 290T175 297Q205
304 288 307T427 311Q453 311 462 309T482 296Q494 284 494 272Q494 267 490 263Q493 230 493 192Q493 166 491 157T478 137Q466 125 455 125Z" />
<glyph unicode="&#xad;" glyph-name="uni00AD" horiz-adv-x="326" d="M158 178T143 183Q129 183 124 186T114 197Q108 206 108 211Q108 217 119 220T158 227Q193 235 221 238T290 241Q316 241 325 239T345 226Q357 214 357 203Q357 194 350 190T329 188L266 183Q260
183 234 181T178 178Q158 178 143 183Z" />
<glyph unicode="&#xae;" glyph-name="registered" horiz-adv-x="496" d="M288 90T245 116T183 193Q173 210 167 240Q165 252 163 260Q162 261 162 265T160 270Q159 272 159 284Q159 313 161 319Q164 322 164 325T163 329Q161 333 161 339Q161 357 172 389T198
449T218 480Q220 480 220 483T221 487Q226 494 258 514T318 548Q356 567 392 567Q470 567 534 477Q537 467 546 452T556 432Q569 413 575 385T578 352Q579 350 579 346T579 339Q581 337 581 321Q581 301 578 276T571 249Q570 249 569 248T569 245Q571 243 559 230T539
216Q539 216 539 215T542 213Q545 211 527 191T483 151T437 123L429 115Q422 105 398 98T354 92Q288 90 245 116ZM299 144T320 144Q359 144 413 174Q439 186 470 212T500 252L499 256Q499 267 506 270Q515 278 520 301T526 349Q526 376 519 389Q519 390 514 397T510
409Q510 416 505 425T472 473Q429 506 386 506Q368 506 358 502T346 498Q288 481 261 444T222 360Q207 314 207 296Q207 282 219 262Q218 252 222 238T225 221Q226 215 237 200T262 170T288 153Q299 144 320 144ZM303 209T291 209Q282 209 275 216T268 233Q268
245 276 267T287 295Q287 317 291 317Q294 336 300 354T326 398Q326 405 327 409T328 416Q328 421 323 426Q320 429 320 433Q320 439 331 447Q331 456 354 456L372 455Q375 455 382 454T393 452T400 448Q413 447 425 441T438 432Q446 425 451 415T457 396Q457 383
455 376T443 356Q427 326 393 302L381 289Q383 283 396 268T417 250L425 252Q432 252 432 241Q432 235 431 230Q430 228 428 224T424 217T420 215Q416 215 404 224Q393 226 389 229T375 241Q369 246 360 253T335 273Q335 273 332 273T321 275L313 254Q313 242 307
221Q303 209 291 209ZM358 319T371 330T390 351Q396 354 410 373Q412 377 413 382T414 397Q416 401 416 403Q416 407 411 410Q407 414 397 417T382 422Q382 422 380 420T369 410Q368 408 366 398T356 384Q335 317 343 315Q358 319 371 330Z" />
<glyph unicode="&#xaf;" glyph-name="overscore" horiz-adv-x="353" d="M281 461T269 465Q255 465 250 467T240 477Q235 487 235 490Q235 497 245 500T281 507Q319 513 345 515T407 518Q431 518 439 516T459 506Q469 495 469 484Q469 465 443 468Q413 465 383
465L361 464Q313 461 301 461Q281 461 269 465Z" />
<glyph unicode="&#xb0;" glyph-name="degree" horiz-adv-x="283" d="M298 426T277 436T245 459T225 491Q217 506 213 531T207 562Q207 578 215 606T236 651Q245 668 255 678T275 697T292 710Q305 716 316 720T335 724Q393 724 431 693T470 602Q470 569 463 548T446
512T411 470Q374 426 333 426Q298 426 277 436ZM335 478T355 493T390 533T405 589Q405 631 395 651T362 671Q313 671 294 640T275 554Q275 526 285 502T322 478Q335 478 355 493Z" />
<glyph unicode="&#xb1;" glyph-name="plusminus" horiz-adv-x="446" d="M129 253T124 256T114 267Q108 276 108 281Q108 287 119 290T158 297Q192 304 262 307Q260 334 260 373Q260 394 262 401T275 417Q288 427 298 427Q307 427 311 421T313 405L318 354L320
309L410 311Q436 311 445 309T465 296Q477 284 477 273Q477 264 470 260T449 258L386 253L322 251L323 188Q323 172 318 160Q318 149 315 145T304 137Q294 132 290 132Q284 132 281 140T274 172Q269 193 265 249L178 248Q158 248 143 253Q129 253 124 256ZM436
81T445 79T465 66Q477 54 477 43Q477 34 470 30T449 28L386 23Q353 22 289 20T178 18Q158 18 143 23Q129 23 124 26T114 37Q108 46 108 51Q108 57 119 60T158 67Q188 74 271 77T410 81Q436 81 445 79Z" />
<glyph unicode="&#xb2;" glyph-name="uni00B2" horiz-adv-x="320" d="M205 348T195 356T182 371Q182 377 187 388T197 399Q198 398 203 410T211 429L221 437L225 439H223L244 460H243L264 482Q280 498 291 511Q308 528 321 543T335 562Q336 563 339 567T347 573L366
590Q373 606 389 626L407 662Q408 664 408 668Q408 671 404 673T392 678H393Q380 681 366 681Q338 681 310 662Q299 660 293 656Q286 652 278 652Q272 652 268 653L262 660L253 671L244 688L271 704Q323 736 357 736Q365 736 377 732Q385 731 391 730T399 728Q411
727 426 712T449 681V682Q458 667 458 652Q458 625 434 591Q428 582 389 539T340 487Q331 481 296 445T263 408L266 406Q266 406 272 408Q290 415 327 420T384 426Q392 426 394 425Q397 426 406 426Q428 426 451 419L456 417Q457 416 460 416Q468 413 471 408Q474
402 477 399Q487 390 487 385Q487 379 473 379Q457 379 437 383Q417 383 408 380Q404 378 386 378L379 377H373Q352 380 317 368Q300 361 260 352T211 345Q205 348 195 356Z" />
<glyph unicode="&#xb3;" glyph-name="uni00B3" horiz-adv-x="320" d="M262 310T237 321T213 349Q214 360 216 363T227 367L247 365Q261 362 275 362Q308 362 341 375T391 409Q408 428 408 449Q408 459 403 469T387 486Q376 496 349 504T304 515Q296 513 295 513Q289
513 274 522Q267 529 261 541L257 547Q256 554 268 563T327 601L332 603H331L337 607Q413 655 433 673H432Q442 687 442 694Q442 701 431 704Q409 706 398 706Q382 706 378 702Q372 704 350 700T326 692Q325 689 307 683T286 678Q280 679 272 694T263 718Q267 724
282 733T311 750Q326 754 360 756T412 757H413Q452 753 473 732T495 679Q495 669 489 659T465 629L461 625L451 618Q424 598 409 589L398 582L391 577L383 570L376 565L363 555L380 542Q398 533 417 515T447 481Q457 454 457 437Q457 384 397 342Q377 329 349 321T294
310Q262 310 237 321Z" />
<glyph unicode="&#xb4;" glyph-name="acute" horiz-adv-x="353" d="M340 450T337 463T334 483Q336 492 377 536T432 585Q437 588 441 588Q455 588 473 557Q477 548 464 534T422 496Q388 468 380 457Q375 448 370 443T361 437Q357 437 347 444Q340 450 337 463Z" />
<glyph unicode="&#xb5;" glyph-name="uni00B5" horiz-adv-x="370" d="M58 -169T47 -156T36 -133Q36 -124 44 -96T63 -35Q78 12 94 66T118 162Q128 216 158 281Q190 344 204 365Q209 367 217 367Q227 367 233 361T241 345Q244 341 244 334Q244 309 214 252Q175
158 175 122Q175 101 187 97Q192 94 198 94Q223 94 258 128T325 237Q339 271 342 307Q341 310 341 316Q341 334 359 345Q363 351 370 354T379 354L395 355Q398 356 401 350T407 341Q414 335 414 319Q414 286 385 218Q366 178 360 157T352 115Q352 77 381 52Q391
45 393 37T394 15Q392 6 383 1T362 -5Q349 -5 339 2Q315 25 303 70Q301 76 301 91T301 112Q295 97 279 85Q256 62 233 51Q198 28 176 28Q159 28 144 43L133 3Q98 -103 86 -135T69 -173Q58 -169 47 -156Z" />
<glyph unicode="&#xb6;" glyph-name="paragraph" horiz-adv-x="424" d="M166 -35T166 -20Q166 -10 173 -2Q173 1 177 12T184 30Q193 62 209 102T235 158L241 178Q245 196 248 200Q261 230 271 243Q274 259 279 273T286 291Q281 292 272 292Q241 292 219 296Q194
305 179 327T164 384Q164 391 166 409Q168 416 176 444T198 494T230 530Q272 560 297 573T375 607Q407 607 456 614Q524 609 554 597T581 562Q580 558 580 552T573 537L559 510Q545 481 535 464Q519 432 500 379Q489 358 482 339T473 315L460 292Q458 282 449 259T429
214Q399 143 395 120L384 93Q367 54 361 44L349 2H330Q327 4 319 6T306 16Q304 26 304 27Q304 34 308 55Q311 62 317 73T326 88Q331 91 332 99T334 109Q334 120 349 142L357 168Q357 174 366 190Q380 218 384 234Q385 238 389 251T398 264Q399 270 400 277T403
291Q408 299 413 312T420 330Q425 336 427 340T431 346Q426 346 445 385Q449 391 455 412T463 439Q466 445 478 470T501 515Q513 553 513 562Q510 562 501 563T484 565Q465 565 461 553Q457 543 430 497Q430 497 412 455Q398 425 394 412Q377 378 366 349Q349 315
343 292Q338 282 324 247Q289 160 275 138Q272 129 270 118T266 102Q266 97 254 63T235 12L215 -40Q212 -45 209 -48T201 -52Q198 -52 181 -47Q166 -35 166 -20Z" />
<glyph unicode="&#xb7;" glyph-name="middot" horiz-adv-x="187" d="M151 255T146 272T146 289Q154 290 164 306T174 334Q174 338 177 341T184 346Q192 351 198 351Q215 351 229 327Q235 314 235 304Q235 295 230 286T212 261Q195 238 180 238Q170 238 158 248Q151
255 146 272Z" />
<glyph unicode="&#xb8;" glyph-name="cedilla" horiz-adv-x="353" d="M155 -179T143 -179Q108 -179 61 -165Q44 -159 44 -144Q44 -135 50 -128T66 -121Q71 -121 74 -122Q81 -124 103 -131T141 -139Q161 -139 168 -125Q172 -120 172 -112Q172 -100 155 -81Q151
-76 140 -62T117 -37Q106 -22 106 -12Q106 1 123 16T184 53L217 30Q189 16 175 6T161 -17Q162 -19 181 -43Q192 -55 201 -68T214 -94Q217 -106 217 -116Q217 -141 202 -156T160 -178Q155 -179 143 -179Z" />
<glyph unicode="&#xb9;" glyph-name="uni00B9" horiz-adv-x="320" d="M356 307T352 307Q340 307 326 323Q322 327 322 338Q322 351 326 367L330 386Q334 409 338 424T344 444Q350 447 371 524L383 566L396 616L411 671Q391 658 356 629Q345 622 321 602Q306 588
291 579Q279 568 271 562T258 556Q254 556 247 561Q229 576 229 593Q229 598 232 604Q237 607 247 614T270 631Q288 646 293 648Q294 648 297 651L301 654L313 664H312Q320 672 356 699Q355 698 373 713L389 726Q415 745 437 756T465 767Q469 765 477 758T489 743V739Q489
728 484 716Q474 687 460 640T433 552Q422 513 420 507Q418 505 418 500Q410 478 404 449Q387 408 379 360L372 340Q365 316 359 310Q356 307 352 307Z" />
<glyph unicode="&#xba;" glyph-name="ordmasculine" horiz-adv-x="283" d="M238 313T231 318T209 337Q188 362 188 387Q188 396 189 401Q190 403 190 409L189 419L191 418Q188 422 188 423T190 427L188 426Q188 427 189 427T190 429L196 431L193 439Q194 450 202
474T221 518Q230 534 247 557T278 594Q297 612 312 621T348 636H347Q369 642 372 642Q382 642 396 627Q418 615 427 597T437 546Q437 489 394 418Q376 389 360 374T315 339H316Q299 326 285 320T250 313Q238 313 231 318ZM283 364T321 411Q340 434 351 456T373
511Q377 523 377 545Q377 571 373 575H374Q366 579 361 579Q345 579 328 562Q293 528 252 427Q244 401 244 391Q244 379 248 372T260 364Q283 364 321 411Z" />
<glyph unicode="&#xbb;" glyph-name="guillemotright" horiz-adv-x="708" d="M233 -1T229 -1Q224 -1 219 3Q213 7 205 9T192 13T186 20Q186 22 189 29T198 42L224 63Q261 91 325 148Q370 189 385 207T398 242Q387 268 349 305T247 378Q219 392 201 407T182 434Q182
442 194 445L210 446Q237 446 272 431L290 421Q320 406 333 398T358 375Q390 357 409 336T446 282L470 240L477 210Q469 208 458 199T446 189Q433 173 412 153T336 87Q296 57 281 41T262 22Q242 0 236 0Q233 -1 229 -1ZM433 -1T429 -1Q424 -1 419 3Q413 7 405 9T392
13T386 20Q386 22 389 29T398 42L424 63Q461 91 525 148Q570 189 585 207T598 242Q587 268 549 305T447 378Q419 392 401 407T382 434Q382 442 394 445L410 446Q437 446 472 431L490 421Q520 406 533 398T558 375Q590 357 609 336T646 282L670 240L677 210Q669
208 658 199T646 189Q633 173 612 153T536 87Q496 57 481 41T462 22Q442 0 436 0Q433 -1 429 -1Z" />
<glyph unicode="&#xbc;" glyph-name="onequarter" horiz-adv-x="800" d="M316 207T312 207Q300 207 286 223Q282 227 282 238Q282 251 286 267L290 286Q294 309 298 324T304 344Q310 347 331 424L343 466L356 516L371 571Q351 558 316 529Q305 522 281 502Q266
488 251 479Q239 468 231 462T218 456Q214 456 207 461Q189 476 189 493Q189 498 192 504Q197 507 207 514T230 531Q248 546 253 548Q254 548 257 551L261 554L273 564H272Q280 572 316 599Q315 598 333 613L349 626Q375 645 397 656T425 667Q429 665 437 658T449
643V639Q449 628 444 616Q434 587 420 540T393 452Q382 413 380 407Q378 405 378 400Q370 378 364 349Q347 308 339 260L332 240Q325 216 319 210Q316 207 312 207ZM241 -9T241 18Q241 50 275 97Q297 115 300 125Q308 139 399 240Q460 309 463 314H464Q468 314
472 319T479 331Q482 339 489 345T503 353Q505 357 508 361T512 368Q512 370 516 374T521 382Q548 405 663 523T784 652Q789 661 795 661Q797 661 803 659Q807 661 811 661Q815 661 819 659Q819 658 820 653T826 640Q830 633 830 625Q830 616 823 605Q816 592 809
583T776 552L746 525Q737 515 678 458Q618 402 617 398Q606 396 597 378L578 359Q525 308 524 304Q521 300 508 295Q507 296 506 294T504 290Q504 286 495 274T470 249Q420 189 361 114T291 18Q283 -1 279 -7T267 -14Q241 -9 241 18ZM684 -32T684 -21Q684 -9 690
21Q693 45 700 74Q706 98 707 107Q713 122 716 131T720 144Q713 142 698 136Q673 130 651 130Q615 130 600 159Q596 165 593 175T590 194Q590 205 594 209V208L600 224L607 243L613 258L615 263Q617 267 617 271Q624 287 659 342T706 410L707 411Q717 417 726 417Q734
417 738 412Q740 405 741 392T741 376Q740 372 724 346L717 340L714 337H715Q672 270 650 223Q645 208 642 195T640 181H639Q641 180 648 180Q666 180 690 189Q725 197 736 203Q740 203 744 204T748 208H752L753 223L760 242L772 270Q774 274 779 286T792 312L809
354Q815 371 819 379T829 387Q835 387 841 384T849 373V374Q856 364 856 356Q856 351 853 343Q846 322 844 318L841 309L835 296Q831 291 830 287T828 281Q767 136 752 86Q743 56 737 36T731 5Q731 0 735 -10Q736 -27 727 -38T705 -50Q692 -50 688 -36V-37Q684
-32 684 -21Z" />
<glyph unicode="&#xbd;" glyph-name="onehalf" horiz-adv-x="800" d="M316 207T312 207Q300 207 286 223Q282 227 282 238Q282 251 286 267L290 286Q294 309 298 324T304 344Q310 347 331 424L343 466L356 516L371 571Q351 558 316 529Q305 522 281 502Q266 488
251 479Q239 468 231 462T218 456Q214 456 207 461Q189 476 189 493Q189 498 192 504Q197 507 207 514T230 531Q248 546 253 548Q254 548 257 551L261 554L273 564H272Q280 572 316 599Q315 598 333 613L349 626Q375 645 397 656T425 667Q429 665 437 658T449 643V639Q449
628 444 616Q434 587 420 540T393 452Q382 413 380 407Q378 405 378 400Q370 378 364 349Q347 308 339 260L332 240Q325 216 319 210Q316 207 312 207ZM210 -9T210 18Q210 50 244 97Q266 115 269 125Q277 139 368 240Q429 309 432 314H433Q437 314 441 319T448
331Q451 339 458 345T472 353Q474 357 477 361T481 368Q481 370 485 374T490 382Q517 405 632 523T753 652Q758 661 764 661Q766 661 772 659Q776 661 780 661Q784 661 788 659Q788 658 789 653T795 640Q799 633 799 625Q799 616 792 605Q785 592 778 583T745 552L715
525Q706 515 647 458Q587 402 586 398Q575 396 566 378L547 359Q494 308 493 304Q490 300 477 295Q476 296 475 294T473 290Q473 286 464 274T439 249Q389 189 330 114T260 18Q252 -1 248 -7T236 -14Q210 -9 210 18ZM519 -2T509 6T496 21Q496 27 501 38T511 49Q512
48 517 60T525 79L535 87L539 89H537L558 110H557L578 132Q594 148 605 161Q622 178 635 193T649 212Q650 213 653 217T661 223L680 240Q687 256 703 276L721 312Q722 314 722 318Q722 321 718 323T706 328H707Q693 331 680 331Q652 331 624 312Q613 310 607 306Q600
302 592 302Q586 302 582 303L576 310L567 321L558 338L585 354Q637 386 671 386Q679 386 691 382Q699 381 705 380T713 378Q725 377 740 362T763 331V332Q772 317 772 302Q772 275 748 241Q742 232 703 189T654 137Q645 131 610 95T577 58L580 56Q580 56 586 58Q604
65 641 70T698 76Q706 76 708 75Q711 76 720 76Q742 76 765 69L770 67Q771 66 774 66Q782 63 785 58Q788 52 791 49Q801 40 801 35Q801 29 787 29Q771 29 751 33Q731 33 722 30Q718 28 700 28L693 27H687Q666 30 631 18Q614 11 574 2T525 -5Q519 -2 509 6Z" />
<glyph unicode="&#xbe;" glyph-name="threequarters" horiz-adv-x="800" d="M255 -9T255 18Q255 50 289 97Q311 115 314 125Q322 139 413 240Q474 309 477 314H478Q482 314 486 319T493 331Q496 339 503 345T517 353Q519 357 522 361T526 368Q526 370 530 374T535
382Q562 405 677 523T798 652Q803 661 809 661Q811 661 817 659Q821 661 825 661Q829 661 833 659Q833 658 834 653T840 640Q844 633 844 625Q844 616 837 605Q830 592 823 583T790 552L760 525Q751 515 692 458Q632 402 631 398Q620 396 611 378L592 359Q539 308
538 304Q535 300 522 295Q521 296 520 294T518 290Q518 286 509 274T484 249Q434 189 375 114T305 18Q297 -1 293 -7T281 -14Q255 -9 255 18ZM222 210T197 221T173 249Q174 260 176 263T187 267L207 265Q221 262 235 262Q268 262 301 275T351 309Q368 328 368 349Q368
359 363 369T347 386Q336 396 309 404T264 415Q256 413 255 413Q249 413 234 422Q227 429 221 441L217 447Q216 454 228 463T287 501L292 503H291L297 507Q373 555 393 573H392Q402 587 402 594Q402 601 391 604Q369 606 358 606Q342 606 338 602Q332 604 310 600T286
592Q285 589 267 583T246 578Q240 579 232 594T223 618Q227 624 242 633T271 650Q286 654 320 656T372 657H373Q412 653 433 632T455 579Q455 569 449 559T425 529L421 525L411 518Q384 498 369 489L358 482L351 477L343 470L336 465L323 455L340 442Q358 433 377
415T407 381Q417 354 417 337Q417 284 357 242Q337 229 309 221T254 210Q222 210 197 221ZM684 -32T684 -21Q684 -9 690 21Q693 45 700 74Q706 98 707 107Q713 122 716 131T720 144Q713 142 698 136Q673 130 651 130Q615 130 600 159Q596 165 593 175T590 194Q590
205 594 209V208L600 224L607 243L613 258L615 263Q617 267 617 271Q624 287 659 342T706 410L707 411Q717 417 726 417Q734 417 738 412Q740 405 741 392T741 376Q740 372 724 346L717 340L714 337H715Q672 270 650 223Q645 208 642 195T640 181H639Q641 180 648
180Q666 180 690 189Q725 197 736 203Q740 203 744 204T748 208H752L753 223L760 242L772 270Q774 274 779 286T792 312L809 354Q815 371 819 379T829 387Q835 387 841 384T849 373V374Q856 364 856 356Q856 351 853 343Q846 322 844 318L841 309L835 296Q831 291
830 287T828 281Q767 136 752 86Q743 56 737 36T731 5Q731 0 735 -10Q736 -27 727 -38T705 -50Q692 -50 688 -36V-37Q684 -32 684 -21Z" />
<glyph unicode="&#xbf;" glyph-name="questiondown" horiz-adv-x="374" d="M292 429T292 449Q292 461 302 473T333 495Q352 502 362 502Q376 502 392 490Q406 476 406 462Q406 440 372 417Q353 405 343 405Q338 405 319 412Q292 429 292 449ZM140 -217H134Q124
-217 124 -213H95Q76 -208 57 -197T27 -174Q21 -155 21 -128Q21 -78 40 -20T89 72L111 92Q160 136 173 151Q205 169 231 205T272 282Q278 296 282 303T291 312T305 314Q320 313 327 302T335 277Q335 266 332 255Q332 250 323 230Q315 212 313 205Q302 186 280 161T240
123L223 111Q223 107 209 96T185 80Q181 77 171 70T152 55Q130 33 119 14T103 -26T88 -94L87 -130Q87 -143 89 -150T100 -163Q112 -169 126 -169Q160 -169 198 -143T254 -76Q261 -58 261 -50Q261 -45 258 -37Q258 -31 256 -22T253 -10Q256 -9 270 -9Q297 -9 307
-14Q308 -16 311 -20T317 -30Q321 -36 322 -42T323 -54T322 -68Q310 -104 287 -138T228 -190Q208 -199 195 -205T178 -214Q176 -214 168 -214T145 -217H140Z" />
<glyph unicode="&#xc0;" glyph-name="Agrave" horiz-adv-x="502" d="M69 -33Q58 -27 54 -22T49 -9Q49 1 57 19T87 78Q93 91 110 124Q168 235 168 245Q167 247 167 251Q167 261 183 269Q206 292 221 318Q231 340 248 370T290 443Q302 464 326 504Q363 570 421 648Q444
679 459 678Q478 678 501 661T534 621Q538 614 538 591Q538 560 531 486Q529 473 527 445Q524 400 518 349Q507 237 502 174T497 56Q497 28 498 15V8L497 -15Q491 -21 479 -21Q465 -21 452 -15T437 1Q436 2 434 3T432 12L433 34L436 90L441 252L428 251Q408 251
339 243T253 230Q244 230 231 218T208 187Q205 177 194 159T183 137Q177 133 173 127T167 118Q167 107 147 62T106 -13L85 -45L69 -33ZM282 290T302 293T338 298Q410 315 426 315Q433 315 439 312Q442 308 445 307T450 305Q452 311 462 413T474 550L477 600Q471
600 451 577T407 518T363 443Q353 425 344 410T330 394Q323 387 297 340T276 289Q282 290 302 293ZM543 705T539 705Q535 705 532 710T525 727Q523 730 507 756Q489 785 480 802T470 833Q470 841 473 845Q493 863 502 863Q510 863 515 857Q524 852 537 827T561
773T572 737Q573 732 567 723T552 711Q543 705 539 705Z" />
<glyph unicode="&#xc1;" glyph-name="Aacute" horiz-adv-x="502" d="M69 -33Q58 -27 54 -22T49 -9Q49 1 57 19T87 78Q93 91 110 124Q168 235 168 245Q167 247 167 251Q167 261 183 269Q206 292 221 318Q231 340 248 370T290 443Q302 464 326 504Q363 570 421 648Q444
679 459 678Q478 678 501 661T534 621Q538 614 538 591Q538 560 531 486Q529 473 527 445Q524 400 518 349Q507 237 502 174T497 56Q497 28 498 15V8L497 -15Q491 -21 479 -21Q465 -21 452 -15T437 1Q436 2 434 3T432 12L433 34L436 90L441 252L428 251Q408 251
339 243T253 230Q244 230 231 218T208 187Q205 177 194 159T183 137Q177 133 173 127T167 118Q167 107 147 62T106 -13L85 -45L69 -33ZM282 290T302 293T338 298Q410 315 426 315Q433 315 439 312Q442 308 445 307T450 305Q452 311 462 413T474 550L477 600Q471
600 451 577T407 518T363 443Q353 425 344 410T330 394Q323 387 297 340T276 289Q282 290 302 293ZM476 720T473 733T470 753Q472 762 513 806T568 855Q573 858 577 858Q591 858 609 827Q613 818 600 804T558 766Q524 738 516 727Q511 718 506 713T497 707Q494
707 483 714Q476 720 473 733Z" />
<glyph unicode="&#xc2;" glyph-name="Acircumflex" horiz-adv-x="502" d="M69 -33Q58 -27 54 -22T49 -9Q49 1 57 19T87 78Q93 91 110 124Q168 235 168 245Q167 247 167 251Q167 261 183 269Q206 292 221 318Q231 340 248 370T290 443Q302 464 326 504Q363 570
421 648Q444 679 459 678Q478 678 501 661T534 621Q538 614 538 591Q538 560 531 486Q529 473 527 445Q524 400 518 349Q507 237 502 174T497 56Q497 28 498 15V8L497 -15Q491 -21 479 -21Q465 -21 452 -15T437 1Q436 2 434 3T432 12L433 34L436 90L441 252L428
251Q408 251 339 243T253 230Q244 230 231 218T208 187Q205 177 194 159T183 137Q177 133 173 127T167 118Q167 107 147 62T106 -13L85 -45L69 -33ZM282 290T302 293T338 298Q410 315 426 315Q433 315 439 312Q442 308 445 307T450 305Q452 311 462 413T474 550L477
600Q471 600 451 577T407 518T363 443Q353 425 344 410T330 394Q323 387 297 340T276 289Q282 290 302 293ZM674 716T661 716Q653 716 649 721T644 735Q644 746 652 757Q660 767 693 796T746 835Q754 842 762 842Q771 842 777 833Q793 820 819 794T856 755Q861
749 861 738Q861 729 856 722T843 714Q829 714 814 733Q794 757 760 786Q739 774 716 754T688 730Q674 716 661 716Z" />
<glyph unicode="&#xc3;" glyph-name="Atilde" horiz-adv-x="502" d="M69 -33Q58 -27 54 -22T49 -9Q49 1 57 19T87 78Q93 91 110 124Q168 235 168 245Q167 247 167 251Q167 261 183 269Q206 292 221 318Q231 340 248 370T290 443Q302 464 326 504Q363 570 421 648Q444
679 459 678Q478 678 501 661T534 621Q538 614 538 591Q538 560 531 486Q529 473 527 445Q524 400 518 349Q507 237 502 174T497 56Q497 28 498 15V8L497 -15Q491 -21 479 -21Q465 -21 452 -15T437 1Q436 2 434 3T432 12L433 34L436 90L441 252L428 251Q408 251
339 243T253 230Q244 230 231 218T208 187Q205 177 194 159T183 137Q177 133 173 127T167 118Q167 107 147 62T106 -13L85 -45L69 -33ZM282 290T302 293T338 298Q410 315 426 315Q433 315 439 312Q442 308 445 307T450 305Q452 311 462 413T474 550L477 600Q471
600 451 577T407 518T363 443Q353 425 344 410T330 394Q323 387 297 340T276 289Q282 290 302 293ZM555 729T544 734T523 746T507 757Q503 759 493 768T473 785T456 792Q449 792 444 788T432 775Q428 769 423 764T410 757Q409 751 404 744T397 742Q388 745 382
751T377 764Q378 777 394 799T440 836Q448 838 454 838Q468 838 483 833T511 816Q517 810 528 800T547 785T562 780Q565 780 577 784Q588 787 612 800Q632 813 648 819Q658 823 666 814T672 795Q672 790 665 780T650 766Q608 742 593 736T571 729Q555 729 544 734Z"
/>
<glyph unicode="&#xc4;" glyph-name="Adieresis" horiz-adv-x="502" d="M69 -33Q58 -27 54 -22T49 -9Q49 1 57 19T87 78Q93 91 110 124Q168 235 168 245Q167 247 167 251Q167 261 183 269Q206 292 221 318Q231 340 248 370T290 443Q302 464 326 504Q363 570 421
648Q444 679 459 678Q478 678 501 661T534 621Q538 614 538 591Q538 560 531 486Q529 473 527 445Q524 400 518 349Q507 237 502 174T497 56Q497 28 498 15V8L497 -15Q491 -21 479 -21Q465 -21 452 -15T437 1Q436 2 434 3T432 12L433 34L436 90L441 252L428 251Q408
251 339 243T253 230Q244 230 231 218T208 187Q205 177 194 159T183 137Q177 133 173 127T167 118Q167 107 147 62T106 -13L85 -45L69 -33ZM282 290T302 293T338 298Q410 315 426 315Q433 315 439 312Q442 308 445 307T450 305Q452 311 462 413T474 550L477 600Q471
600 451 577T407 518T363 443Q353 425 344 410T330 394Q323 387 297 340T276 289Q282 290 302 293ZM438 757T433 767T430 782Q439 813 450 822Q452 824 456 828T464 834Q470 839 478 839Q495 839 503 815Q510 803 510 796Q510 789 506 782T493 763Q476 740 461
740Q452 740 445 750Q438 757 433 767ZM567 757T562 767T559 782Q568 813 579 822Q581 824 586 828T594 834Q600 839 608 839Q624 839 632 815Q639 803 639 796Q639 789 635 782T622 763Q605 740 591 740Q581 740 574 750Q567 757 562 767Z" />
<glyph unicode="&#xc5;" glyph-name="Aring" horiz-adv-x="502" d="M69 -33Q58 -27 54 -22T49 -9Q49 1 57 19T87 78Q93 91 110 124Q168 235 168 245Q167 247 167 251Q167 261 183 269Q206 292 221 318Q231 340 248 370T290 443Q302 464 326 504Q363 570 421 648Q444
679 459 678Q478 678 501 661T534 621Q538 614 538 591Q538 560 531 486Q529 473 527 445Q524 400 518 349Q507 237 502 174T497 56Q497 28 498 15V8L497 -15Q491 -21 479 -21Q465 -21 452 -15T437 1Q436 2 434 3T432 12L433 34L436 90L441 252L428 251Q408 251
339 243T253 230Q244 230 231 218T208 187Q205 177 194 159T183 137Q177 133 173 127T167 118Q167 107 147 62T106 -13L85 -45L69 -33ZM282 290T302 293T338 298Q410 315 426 315Q433 315 439 312Q442 308 445 307T450 305Q452 311 462 413T474 550L477 600Q471
600 451 577T407 518T363 443Q353 425 344 410T330 394Q323 387 297 340T276 289Q282 290 302 293ZM468 690T461 760Q461 792 480 823T530 855Q564 855 585 840T606 797Q606 757 585 724T528 690Q468 690 461 760ZM542 730T552 741T563 774Q563 814 537 814Q499
814 499 764Q499 753 507 742T524 730Q542 730 552 741Z" />
<glyph unicode="&#xc6;" glyph-name="AE" horiz-adv-x="784" d="M504 -48T475 -43T422 -19Q403 -5 395 13T386 58Q386 93 401 150Q408 189 417 206H405Q389 204 371 204Q336 204 261 209L244 188Q242 185 229 168T204 129Q170 66 149 41Q113 -13 103 -13H97Q83
-13 73 -4Q58 4 58 17Q58 38 88 72Q94 79 98 85T103 93Q105 100 138 149T180 203Q192 214 192 224Q192 232 183 241Q178 244 178 248Q178 254 186 259T204 265Q209 268 213 270T220 273T223 278Q225 284 255 330T300 392Q315 420 323 432T335 448Q342 453 376 503Q389
513 416 545L430 561Q440 578 472 612Q489 628 498 634T516 641Q524 641 536 635Q546 630 587 623L623 616Q669 633 709 636Q715 640 736 642T783 644Q801 644 833 642Q849 642 860 639T881 631T894 624Q900 618 903 608T906 594Q906 589 884 588T817 587Q780 587
728 578Q709 575 701 575Q689 571 679 570T666 569Q662 569 631 518T599 459Q599 450 593 440T572 409Q559 391 559 381Q559 373 565 371Q596 376 640 380T706 385Q717 388 724 388Q738 388 750 381Q761 379 766 375T772 365Q772 358 764 355Q755 346 703 332T595
307T531 297Q528 305 527 304T518 283T500 238Q483 200 473 168T455 88Q449 64 449 57Q449 43 457 33T487 13Q504 10 527 10Q570 10 617 22Q633 31 649 39T672 50Q679 51 687 53T702 55Q710 66 722 66Q725 66 739 50T752 30Q752 20 735 12T658 -20Q616 -38 600
-43T551 -48Q504 -48 475 -43ZM305 262T328 264T375 265Q388 266 435 266Q440 285 446 291Q450 294 458 318Q458 320 459 327T464 343Q479 368 479 376Q480 379 487 388T498 409Q553 506 567 547Q531 551 507 551Q503 556 465 516T414 458L394 430L364 387Q322
332 306 299T298 261Q305 262 328 264Z" />
<glyph unicode="&#xc7;" glyph-name="Ccedilla" horiz-adv-x="482" d="M193 -45T174 -31T141 15Q125 60 125 121Q125 180 132 221T156 306L165 327Q181 368 188 381Q205 420 248 482Q286 540 308 566T350 609T426 663Q449 680 479 680Q504 680 525 668T558 632Q569
613 569 581Q569 536 549 487T498 410Q488 401 479 401Q468 401 450 417Q441 434 440 437T444 441Q453 452 470 483T494 533Q496 539 498 553Q506 588 506 600Q506 612 499 619Q496 622 491 622Q483 622 463 612Q439 602 402 567T335 491Q289 431 265 392T227 313L216
287Q217 283 213 267T204 241Q190 183 190 126Q190 83 197 50T219 5Q227 -2 243 -2Q263 -2 292 8T365 37Q388 46 408 58T439 80Q465 99 481 99Q492 103 496 103Q498 103 498 101T499 94Q499 80 484 64T444 32Q424 12 396 1Q364 -22 322 -40T244 -58Q236 -58 224
-56Q193 -45 174 -31ZM232 5T220 5Q185 5 138 19Q121 25 121 40Q121 49 127 56T143 63Q148 63 151 62Q158 60 180 53T218 45Q238 45 245 59Q249 64 249 72Q249 84 232 103Q228 108 217 122T194 147Q183 162 183 172Q183 185 200 200T261 237L294 214Q266 200 252
190T238 167Q239 165 258 141Q269 129 278 116T291 90Q294 78 294 68Q294 43 279 28T237 6Q232 5 220 5Z" />
<glyph unicode="&#xc8;" glyph-name="Egrave" horiz-adv-x="548" d="M228 -23T209 -13T166 16L146 30Q128 48 119 67T103 118Q101 130 101 139Q101 168 111 207T133 272Q155 325 230 442Q234 446 235 447T237 449T236 450Q236 457 265 512Q282 530 282 543Q282
550 279 554Q275 559 297 578T354 617Q381 638 407 638Q415 638 420 636T427 628Q427 622 467 632Q485 636 493 637Q497 642 513 645T560 653Q576 652 593 653T615 655Q623 658 632 653T649 631Q652 624 652 618Q652 607 639 601T592 590Q559 586 551 585Q496 579
435 566Q396 558 379 546T339 500Q332 495 321 475T299 432Q296 428 292 422T282 409Q253 370 242 353T234 331Q237 330 245 328T260 325Q269 330 285 332T308 336Q467 377 488 380Q497 386 505 386Q523 386 537 362Q540 356 540 351Q540 342 526 334T473 315T379
288L347 279Q282 260 246 260Q215 260 216 277Q206 282 194 255T172 189T163 122Q163 108 166 100Q175 75 188 62T234 40Q241 39 251 38T276 37Q296 37 316 45Q367 54 403 65T448 81Q454 84 458 85T466 86L465 84Q465 84 465 84T466 83Q469 83 484 100Q501 114
530 127T561 133Q563 127 563 123Q563 104 540 78T476 28Q427 2 367 -10T250 -24Q228 -23 209 -13ZM565 705T561 705Q557 705 554 710T547 727Q545 730 529 756Q511 785 502 802T492 833Q492 841 495 845Q515 863 524 863Q532 863 537 857Q546 852 559 827T583
773T594 737Q595 732 589 723T574 711Q565 705 561 705Z" />
<glyph unicode="&#xc9;" glyph-name="Eacute" horiz-adv-x="548" d="M228 -23T209 -13T166 16L146 30Q128 48 119 67T103 118Q101 130 101 139Q101 168 111 207T133 272Q155 325 230 442Q234 446 235 447T237 449T236 450Q236 457 265 512Q282 530 282 543Q282
550 279 554Q275 559 297 578T354 617Q381 638 407 638Q415 638 420 636T427 628Q427 622 467 632Q485 636 493 637Q497 642 513 645T560 653Q576 652 593 653T615 655Q623 658 632 653T649 631Q652 624 652 618Q652 607 639 601T592 590Q559 586 551 585Q496 579
435 566Q396 558 379 546T339 500Q332 495 321 475T299 432Q296 428 292 422T282 409Q253 370 242 353T234 331Q237 330 245 328T260 325Q269 330 285 332T308 336Q467 377 488 380Q497 386 505 386Q523 386 537 362Q540 356 540 351Q540 342 526 334T473 315T379
288L347 279Q282 260 246 260Q215 260 216 277Q206 282 194 255T172 189T163 122Q163 108 166 100Q175 75 188 62T234 40Q241 39 251 38T276 37Q296 37 316 45Q367 54 403 65T448 81Q454 84 458 85T466 86L465 84Q465 84 465 84T466 83Q469 83 484 100Q501 114
530 127T561 133Q563 127 563 123Q563 104 540 78T476 28Q427 2 367 -10T250 -24Q228 -23 209 -13ZM498 720T495 733T492 753Q494 762 535 806T590 855Q595 858 599 858Q613 858 631 827Q635 818 622 804T580 766Q546 738 538 727Q533 718 528 713T519 707Q516
707 505 714Q498 720 495 733Z" />
<glyph unicode="&#xca;" glyph-name="Ecircumflex" horiz-adv-x="548" d="M228 -23T209 -13T166 16L146 30Q128 48 119 67T103 118Q101 130 101 139Q101 168 111 207T133 272Q155 325 230 442Q234 446 235 447T237 449T236 450Q236 457 265 512Q282 530 282 543Q282
550 279 554Q275 559 297 578T354 617Q381 638 407 638Q415 638 420 636T427 628Q427 622 467 632Q485 636 493 637Q497 642 513 645T560 653Q576 652 593 653T615 655Q623 658 632 653T649 631Q652 624 652 618Q652 607 639 601T592 590Q559 586 551 585Q496 579
435 566Q396 558 379 546T339 500Q332 495 321 475T299 432Q296 428 292 422T282 409Q253 370 242 353T234 331Q237 330 245 328T260 325Q269 330 285 332T308 336Q467 377 488 380Q497 386 505 386Q523 386 537 362Q540 356 540 351Q540 342 526 334T473 315T379
288L347 279Q282 260 246 260Q215 260 216 277Q206 282 194 255T172 189T163 122Q163 108 166 100Q175 75 188 62T234 40Q241 39 251 38T276 37Q296 37 316 45Q367 54 403 65T448 81Q454 84 458 85T466 86L465 84Q465 84 465 84T466 83Q469 83 484 100Q501 114
530 127T561 133Q563 127 563 123Q563 104 540 78T476 28Q427 2 367 -10T250 -24Q228 -23 209 -13ZM480 716T467 716Q459 716 455 721T450 735Q450 746 458 757Q466 767 499 796T552 835Q560 842 568 842Q577 842 583 833Q599 820 625 794T662 755Q667 749 667
738Q667 729 662 722T649 714Q635 714 620 733Q600 757 566 786Q545 774 522 754T494 730Q480 716 467 716Z" />
<glyph unicode="&#xcb;" glyph-name="Edieresis" horiz-adv-x="548" d="M228 -23T209 -13T166 16L146 30Q128 48 119 67T103 118Q101 130 101 139Q101 168 111 207T133 272Q155 325 230 442Q234 446 235 447T237 449T236 450Q236 457 265 512Q282 530 282 543Q282
550 279 554Q275 559 297 578T354 617Q381 638 407 638Q415 638 420 636T427 628Q427 622 467 632Q485 636 493 637Q497 642 513 645T560 653Q576 652 593 653T615 655Q623 658 632 653T649 631Q652 624 652 618Q652 607 639 601T592 590Q559 586 551 585Q496 579
435 566Q396 558 379 546T339 500Q332 495 321 475T299 432Q296 428 292 422T282 409Q253 370 242 353T234 331Q237 330 245 328T260 325Q269 330 285 332T308 336Q467 377 488 380Q497 386 505 386Q523 386 537 362Q540 356 540 351Q540 342 526 334T473 315T379
288L347 279Q282 260 246 260Q215 260 216 277Q206 282 194 255T172 189T163 122Q163 108 166 100Q175 75 188 62T234 40Q241 39 251 38T276 37Q296 37 316 45Q367 54 403 65T448 81Q454 84 458 85T466 86L465 84Q465 84 465 84T466 83Q469 83 484 100Q501 114
530 127T561 133Q563 127 563 123Q563 104 540 78T476 28Q427 2 367 -10T250 -24Q228 -23 209 -13ZM460 757T455 767T452 782Q461 813 472 822Q474 824 478 828T486 834Q492 839 500 839Q517 839 525 815Q532 803 532 796Q532 789 528 782T515 763Q498 740 483
740Q474 740 467 750Q460 757 455 767ZM589 757T584 767T581 782Q590 813 601 822Q603 824 608 828T616 834Q622 839 630 839Q646 839 654 815Q661 803 661 796Q661 789 657 782T644 763Q627 740 613 740Q603 740 596 750Q589 757 584 767Z" />
<glyph unicode="&#xcc;" glyph-name="Igrave" horiz-adv-x="400" d="M179 -13T101 -16L92 -17Q73 -17 59 -8T48 12Q50 38 131 39L184 40L194 60Q202 83 217 134Q222 153 238 198Q269 294 271 302Q276 314 287 350T304 409Q351 554 342 556Q332 557 288 553T238
545Q235 541 228 541Q222 541 215 545T206 556Q205 560 205 567Q205 574 211 578Q222 587 259 598T332 614Q349 616 366 621T393 635Q414 642 428 641Q435 636 462 636Q485 636 497 637Q533 641 558 641Q577 641 585 637T599 624Q603 608 603 603Q603 584 581 585Q564
581 499 579Q428 573 423 565Q418 560 416 556T410 548Q411 544 406 523T392 479L374 426Q346 339 338 319Q331 302 328 284Q311 225 300 191T283 135Q264 79 254 41L311 46Q370 52 388 52Q402 52 407 49T416 37Q428 22 428 12Q428 0 409 -5T350 -9Q304 -11 274
-12T233 -17T220 -27Q220 -35 211 -35Q201 -35 192 -31Q179 -13 101 -16ZM720 705T716 705Q712 705 709 710T702 727Q700 730 684 756Q666 785 657 802T647 833Q647 841 650 845Q670 863 679 863Q687 863 692 857Q701 852 714 827T738 773T749 737Q750 732 744
723T729 711Q720 705 716 705Z" />
<glyph unicode="&#xcd;" glyph-name="Iacute" horiz-adv-x="400" d="M179 -13T101 -16L92 -17Q73 -17 59 -8T48 12Q50 38 131 39L184 40L194 60Q202 83 217 134Q222 153 238 198Q269 294 271 302Q276 314 287 350T304 409Q351 554 342 556Q332 557 288 553T238
545Q235 541 228 541Q222 541 215 545T206 556Q205 560 205 567Q205 574 211 578Q222 587 259 598T332 614Q349 616 366 621T393 635Q414 642 428 641Q435 636 462 636Q485 636 497 637Q533 641 558 641Q577 641 585 637T599 624Q603 608 603 603Q603 584 581 585Q564
581 499 579Q428 573 423 565Q418 560 416 556T410 548Q411 544 406 523T392 479L374 426Q346 339 338 319Q331 302 328 284Q311 225 300 191T283 135Q264 79 254 41L311 46Q370 52 388 52Q402 52 407 49T416 37Q428 22 428 12Q428 0 409 -5T350 -9Q304 -11 274
-12T233 -17T220 -27Q220 -35 211 -35Q201 -35 192 -31Q179 -13 101 -16ZM653 720T650 733T647 753Q649 762 690 806T745 855Q750 858 754 858Q768 858 786 827Q790 818 777 804T735 766Q701 738 693 727Q688 718 683 713T674 707Q671 707 660 714Q653 720 650
733Z" />
<glyph unicode="&#xce;" glyph-name="Icircumflex" horiz-adv-x="400" d="M179 -13T101 -16L92 -17Q73 -17 59 -8T48 12Q50 38 131 39L184 40L194 60Q202 83 217 134Q222 153 238 198Q269 294 271 302Q276 314 287 350T304 409Q351 554 342 556Q332 557 288 553T238
545Q235 541 228 541Q222 541 215 545T206 556Q205 560 205 567Q205 574 211 578Q222 587 259 598T332 614Q349 616 366 621T393 635Q414 642 428 641Q435 636 462 636Q485 636 497 637Q533 641 558 641Q577 641 585 637T599 624Q603 608 603 603Q603 584 581 585Q564
581 499 579Q428 573 423 565Q418 560 416 556T410 548Q411 544 406 523T392 479L374 426Q346 339 338 319Q331 302 328 284Q311 225 300 191T283 135Q264 79 254 41L311 46Q370 52 388 52Q402 52 407 49T416 37Q428 22 428 12Q428 0 409 -5T350 -9Q304 -11 274
-12T233 -17T220 -27Q220 -35 211 -35Q201 -35 192 -31Q179 -13 101 -16ZM635 716T622 716Q614 716 610 721T605 735Q605 746 613 757Q621 767 654 796T707 835Q715 842 723 842Q732 842 738 833Q754 820 780 794T817 755Q822 749 822 738Q822 729 817 722T804
714Q790 714 775 733Q755 757 721 786Q700 774 677 754T649 730Q635 716 622 716Z" />
<glyph unicode="&#xcf;" glyph-name="Idieresis" horiz-adv-x="400" d="M179 -13T101 -16L92 -17Q73 -17 59 -8T48 12Q50 38 131 39L184 40L194 60Q202 83 217 134Q222 153 238 198Q269 294 271 302Q276 314 287 350T304 409Q351 554 342 556Q332 557 288 553T238
545Q235 541 228 541Q222 541 215 545T206 556Q205 560 205 567Q205 574 211 578Q222 587 259 598T332 614Q349 616 366 621T393 635Q414 642 428 641Q435 636 462 636Q485 636 497 637Q533 641 558 641Q577 641 585 637T599 624Q603 608 603 603Q603 584 581 585Q564
581 499 579Q428 573 423 565Q418 560 416 556T410 548Q411 544 406 523T392 479L374 426Q346 339 338 319Q331 302 328 284Q311 225 300 191T283 135Q264 79 254 41L311 46Q370 52 388 52Q402 52 407 49T416 37Q428 22 428 12Q428 0 409 -5T350 -9Q304 -11 274
-12T233 -17T220 -27Q220 -35 211 -35Q201 -35 192 -31Q179 -13 101 -16ZM615 757T610 767T607 782Q616 813 627 822Q629 824 633 828T641 834Q647 839 655 839Q672 839 680 815Q687 803 687 796Q687 789 683 782T670 763Q653 740 638 740Q629 740 622 750Q615
757 610 767ZM744 757T739 767T736 782Q745 813 756 822Q758 824 763 828T771 834Q777 839 785 839Q801 839 809 815Q816 803 816 796Q816 789 812 782T799 763Q782 740 768 740Q758 740 751 750Q744 757 739 767Z" />
<glyph unicode="&#xd0;" glyph-name="Eth" horiz-adv-x="578" d="M642 370T642 364T646 357Q644 351 639 335T628 301Q622 238 572 153Q567 153 564 152T565 149Q565 144 554 130Q551 128 542 116T528 100Q527 93 522 89T513 84Q513 84 512 84T510 80Q492 54 445
16T360 -38Q350 -45 337 -51T318 -59Q310 -66 278 -78T225 -95Q199 -99 191 -99Q171 -99 143 -91Q130 -87 124 -82T111 -68T99 -53Q81 -28 81 -9Q81 6 95 2Q105 -3 117 -18Q129 -30 143 -35T177 -41Q184 -41 204 -39Q228 -35 260 -24T307 -1Q355 32 385 52T424
77Q426 82 445 89L472 115Q498 143 506 149Q507 156 509 163T512 175Q524 188 548 237T581 323Q590 370 590 406Q590 467 569 508T506 585Q485 602 437 622T380 640Q375 638 347 564T288 406L268 351H286Q310 351 318 349T338 339Q348 328 348 317Q348 298 322
301Q292 298 262 298Q255 298 251 297Q248 289 240 265T231 234Q220 217 214 190T199 96Q190 63 191 66Q187 49 184 38T178 28L174 24Q174 18 165 18Q157 18 147 22T131 33Q127 47 127 53Q127 66 135 93Q143 127 161 188T193 289Q194 290 194 291T195 294H180Q160
294 148 298Q134 298 129 300T119 310Q114 320 114 323Q114 330 124 333T160 340L211 347L213 353Q224 390 237 429T257 478Q259 485 270 518T298 591L305 624L294 629Q285 626 278 626Q273 626 267 629Q257 626 240 637T220 659Q218 662 218 668T217 676Q219 686
257 694T340 703Q359 703 369 702Q387 701 403 696T444 681L468 672Q500 660 536 630T601 560T640 477Q643 464 646 441T649 400Q649 379 645 374Q642 370 642 364Z" />
<glyph unicode="&#xd1;" glyph-name="Ntilde" horiz-adv-x="566" d="M49 -47T49 -35Q49 -28 52 -16T58 4Q67 39 82 71Q90 90 98 113T111 163Q131 209 146 252T166 308Q167 313 188 357Q205 390 219 420Q224 434 244 494Q258 539 269 566T297 620Q315 650 340 650Q352
650 361 643T376 620Q384 601 388 574T395 481Q396 461 396 422V327Q396 276 398 243T407 186Q415 140 429 87T451 33Q463 33 491 104T562 350Q568 370 576 408T588 482Q599 523 609 567T620 616Q620 621 620 626T620 638Q624 638 628 651T633 675Q633 704 647
718Q650 725 662 725Q674 725 685 719T701 703Q704 682 673 550Q673 538 659 478Q650 444 645 413Q641 384 636 363T626 343Q585 167 521 21Q492 -48 457 -48Q433 -48 408 -16Q381 19 371 55T343 181Q326 228 326 290Q326 326 331 374L335 443Q334 483 333 498T327
514Q323 514 315 496T292 435Q276 395 248 329L222 265Q204 229 195 192Q153 83 125 -8L116 -36Q101 -76 87 -76Q77 -76 64 -62Q49 -47 49 -35ZM786 729T775 734T754 746T738 757Q734 759 724 768T704 785T687 792Q680 792 675 788T663 775Q659 769 654 764T641
757Q640 751 635 744T628 742Q619 745 613 751T608 764Q609 777 625 799T671 836Q679 838 685 838Q699 838 714 833T742 816Q748 810 759 800T778 785T793 780Q796 780 808 784Q819 787 843 800Q863 813 879 819Q889 823 897 814T903 795Q903 790 896 780T881 766Q839
742 824 736T802 729Q786 729 775 734Z" />
<glyph unicode="&#xd2;" glyph-name="Ograve" horiz-adv-x="496" d="M140 7T129 22T116 61Q115 66 115 79Q115 107 120 149T130 216Q134 220 134 228T134 238Q134 241 139 258Q151 295 156 320Q183 402 209 451T267 543Q310 587 334 607T389 642Q428 665 445 665Q448
665 454 663Q510 651 538 618T579 514Q588 453 588 422Q588 372 570 321T505 193Q451 87 378 23T239 -41Q204 -41 175 -20Q140 7 129 22ZM273 13T303 35T379 110Q418 155 434 178T464 233T496 331Q507 373 510 396T514 453L513 518Q512 535 506 553T492 581Q477
598 453 598Q438 598 424 591Q405 583 368 545T302 466T272 413Q272 412 271 407T267 398Q250 380 229 325T192 206T174 99L172 65Q172 56 173 51T180 40T189 26Q194 18 205 13T228 8Q235 8 239 9Q273 13 303 35ZM538 705T534 705Q530 705 527 710T520 727Q518
730 502 756Q484 785 475 802T465 833Q465 841 468 845Q488 863 497 863Q505 863 510 857Q519 852 532 827T556 773T567 737Q568 732 562 723T547 711Q538 705 534 705Z" />
<glyph unicode="&#xd3;" glyph-name="Oacute" horiz-adv-x="496" d="M140 7T129 22T116 61Q115 66 115 79Q115 107 120 149T130 216Q134 220 134 228T134 238Q134 241 139 258Q151 295 156 320Q183 402 209 451T267 543Q310 587 334 607T389 642Q428 665 445 665Q448
665 454 663Q510 651 538 618T579 514Q588 453 588 422Q588 372 570 321T505 193Q451 87 378 23T239 -41Q204 -41 175 -20Q140 7 129 22ZM273 13T303 35T379 110Q418 155 434 178T464 233T496 331Q507 373 510 396T514 453L513 518Q512 535 506 553T492 581Q477
598 453 598Q438 598 424 591Q405 583 368 545T302 466T272 413Q272 412 271 407T267 398Q250 380 229 325T192 206T174 99L172 65Q172 56 173 51T180 40T189 26Q194 18 205 13T228 8Q235 8 239 9Q273 13 303 35ZM471 720T468 733T465 753Q467 762 508 806T563
855Q568 858 572 858Q586 858 604 827Q608 818 595 804T553 766Q519 738 511 727Q506 718 501 713T492 707Q489 707 478 714Q471 720 468 733Z" />
<glyph unicode="&#xd4;" glyph-name="Ocircumflex" horiz-adv-x="496" d="M140 7T129 22T116 61Q115 66 115 79Q115 107 120 149T130 216Q134 220 134 228T134 238Q134 241 139 258Q151 295 156 320Q183 402 209 451T267 543Q310 587 334 607T389 642Q428 665
445 665Q448 665 454 663Q510 651 538 618T579 514Q588 453 588 422Q588 372 570 321T505 193Q451 87 378 23T239 -41Q204 -41 175 -20Q140 7 129 22ZM273 13T303 35T379 110Q418 155 434 178T464 233T496 331Q507 373 510 396T514 453L513 518Q512 535 506 553T492
581Q477 598 453 598Q438 598 424 591Q405 583 368 545T302 466T272 413Q272 412 271 407T267 398Q250 380 229 325T192 206T174 99L172 65Q172 56 173 51T180 40T189 26Q194 18 205 13T228 8Q235 8 239 9Q273 13 303 35ZM453 716T440 716Q432 716 428 721T423
735Q423 746 431 757Q439 767 472 796T525 835Q533 842 541 842Q550 842 556 833Q572 820 598 794T635 755Q640 749 640 738Q640 729 635 722T622 714Q608 714 593 733Q573 757 539 786Q518 774 495 754T467 730Q453 716 440 716Z" />
<glyph unicode="&#xd5;" glyph-name="Otilde" horiz-adv-x="496" d="M140 7T129 22T116 61Q115 66 115 79Q115 107 120 149T130 216Q134 220 134 228T134 238Q134 241 139 258Q151 295 156 320Q183 402 209 451T267 543Q310 587 334 607T389 642Q428 665 445 665Q448
665 454 663Q510 651 538 618T579 514Q588 453 588 422Q588 372 570 321T505 193Q451 87 378 23T239 -41Q204 -41 175 -20Q140 7 129 22ZM273 13T303 35T379 110Q418 155 434 178T464 233T496 331Q507 373 510 396T514 453L513 518Q512 535 506 553T492 581Q477
598 453 598Q438 598 424 591Q405 583 368 545T302 466T272 413Q272 412 271 407T267 398Q250 380 229 325T192 206T174 99L172 65Q172 56 173 51T180 40T189 26Q194 18 205 13T228 8Q235 8 239 9Q273 13 303 35ZM806 729T795 734T774 746T758 757Q754 759 744
768T724 785T707 792Q700 792 695 788T683 775Q679 769 674 764T661 757Q660 751 655 744T648 742Q639 745 633 751T628 764Q629 777 645 799T691 836Q699 838 705 838Q719 838 734 833T762 816Q768 810 779 800T798 785T813 780Q816 780 828 784Q839 787 863 800Q883
813 899 819Q909 823 917 814T923 795Q923 790 916 780T901 766Q859 742 844 736T822 729Q806 729 795 734Z" />
<glyph unicode="&#xd6;" glyph-name="Odieresis" horiz-adv-x="496" d="M140 7T129 22T116 61Q115 66 115 79Q115 107 120 149T130 216Q134 220 134 228T134 238Q134 241 139 258Q151 295 156 320Q183 402 209 451T267 543Q310 587 334 607T389 642Q428 665 445
665Q448 665 454 663Q510 651 538 618T579 514Q588 453 588 422Q588 372 570 321T505 193Q451 87 378 23T239 -41Q204 -41 175 -20Q140 7 129 22ZM273 13T303 35T379 110Q418 155 434 178T464 233T496 331Q507 373 510 396T514 453L513 518Q512 535 506 553T492
581Q477 598 453 598Q438 598 424 591Q405 583 368 545T302 466T272 413Q272 412 271 407T267 398Q250 380 229 325T192 206T174 99L172 65Q172 56 173 51T180 40T189 26Q194 18 205 13T228 8Q235 8 239 9Q273 13 303 35ZM689 757T684 767T681 782Q690 813 701
822Q703 824 707 828T715 834Q721 839 729 839Q746 839 754 815Q761 803 761 796Q761 789 757 782T744 763Q727 740 712 740Q703 740 696 750Q689 757 684 767ZM818 757T813 767T810 782Q819 813 830 822Q832 824 837 828T845 834Q851 839 859 839Q875 839 883
815Q890 803 890 796Q890 789 886 782T873 763Q856 740 842 740Q832 740 825 750Q818 757 813 767Z" />
<glyph unicode="&#xd7;" glyph-name="multiply" horiz-adv-x="446" d="M423 122T430 108Q442 96 442 87Q442 85 440 77Q439 61 430 61Q420 61 388 87Q372 97 336 129T293 168L219 92Q205 78 191 71Q179 59 170 59Q168 59 160 61Q144 62 144 71Q144 81 170 113Q186
138 251 208Q200 256 172 284Q153 303 149 310T144 333Q144 346 149 354T162 363Q171 363 182 349L230 308L291 250Q339 301 367 329Q386 348 393 352T416 357Q429 357 437 352T446 339Q446 330 432 319L391 271L333 210L409 136Q423 122 430 108Z" />
<glyph unicode="&#xd8;" glyph-name="Oslash" horiz-adv-x="496" d="M644 660T644 654Q644 648 638 632Q633 616 626 606T588 565L571 548Q577 526 579 514Q588 453 588 422Q588 372 570 321T505 193Q451 87 378 23T239 -41Q204 -41 175 -20L165 -12Q156 -28 154
-34Q147 -56 144 -62T132 -71Q117 -70 109 -61T101 -35Q101 -9 123 33Q118 41 116 61Q115 66 115 79Q115 107 120 149T130 216Q134 220 134 228T134 238Q134 241 139 258Q151 295 156 320Q183 402 209 451T267 543Q310 587 334 607T389 642Q428 665 445 665Q448
665 454 663Q485 656 506 644T543 611Q590 674 592 680Q595 691 605 691L613 689Q615 691 621 691Q627 691 629 690Q629 689 631 684T639 670Q644 660 644 654ZM272 412T271 407T267 398Q242 373 213 281T176 117Q226 192 292 287T364 387H365Q369 387 373 392T380
404Q383 413 389 421T400 430Q401 433 406 440T412 450Q412 452 416 456T421 464Q450 493 503 562Q499 572 492 581Q477 598 453 598Q438 598 424 591Q405 583 368 545T302 466T272 413Q272 412 271 407ZM507 371T510 394T513 450V482Q511 479 508 475T501 465Q488
453 459 420T429 382Q428 380 426 376T418 369H417Q415 369 413 365T410 360Q410 352 379 314Q249 124 189 27V26Q194 18 205 13T228 8Q235 8 239 9Q273 13 303 35T379 110Q418 155 434 178T464 233T496 331Q507 371 510 394Z" />
<glyph unicode="&#xd9;" glyph-name="Ugrave" horiz-adv-x="482" d="M171 -34T148 4T124 113Q124 175 144 275Q159 348 195 449T270 618Q292 656 304 668T328 678Q344 674 353 663T362 638Q362 617 342 604Q334 595 320 569T302 535L278 490Q243 390 227 336T200
222Q186 155 183 124T179 74T179 51Q182 45 187 36T196 22T205 16Q215 11 230 11Q257 11 286 28Q290 36 297 40T307 46Q309 43 310 43Q313 43 315 50V51Q315 56 324 65Q334 69 357 96T399 152T419 187Q419 192 424 198T432 206Q439 213 467 267T520 371Q535 420
561 509T593 623Q595 636 599 645T604 657Q611 659 625 652T644 642Q649 636 649 625Q649 613 640 575Q635 555 627 515Q611 452 589 396T532 261Q528 252 523 242T513 218V212Q501 205 494 191Q491 186 487 178T477 166Q474 157 472 151T468 143Q467 137 459 132T449
126Q445 124 443 117T439 108Q403 55 359 12T275 -46Q255 -54 240 -54Q227 -54 220 -52Q171 -34 148 4ZM779 705T775 705Q771 705 768 710T761 727Q759 730 743 756Q725 785 716 802T706 833Q706 841 709 845Q729 863 738 863Q746 863 751 857Q760 852 773 827T797
773T808 737Q809 732 803 723T788 711Q779 705 775 705Z" />
<glyph unicode="&#xda;" glyph-name="Uacute" horiz-adv-x="482" d="M171 -34T148 4T124 113Q124 175 144 275Q159 348 195 449T270 618Q292 656 304 668T328 678Q344 674 353 663T362 638Q362 617 342 604Q334 595 320 569T302 535L278 490Q243 390 227 336T200
222Q186 155 183 124T179 74T179 51Q182 45 187 36T196 22T205 16Q215 11 230 11Q257 11 286 28Q290 36 297 40T307 46Q309 43 310 43Q313 43 315 50V51Q315 56 324 65Q334 69 357 96T399 152T419 187Q419 192 424 198T432 206Q439 213 467 267T520 371Q535 420
561 509T593 623Q595 636 599 645T604 657Q611 659 625 652T644 642Q649 636 649 625Q649 613 640 575Q635 555 627 515Q611 452 589 396T532 261Q528 252 523 242T513 218V212Q501 205 494 191Q491 186 487 178T477 166Q474 157 472 151T468 143Q467 137 459 132T449
126Q445 124 443 117T439 108Q403 55 359 12T275 -46Q255 -54 240 -54Q227 -54 220 -52Q171 -34 148 4ZM712 720T709 733T706 753Q708 762 749 806T804 855Q809 858 813 858Q827 858 845 827Q849 818 836 804T794 766Q760 738 752 727Q747 718 742 713T733 707Q730
707 719 714Q712 720 709 733Z" />
<glyph unicode="&#xdb;" glyph-name="Ucircumflex" horiz-adv-x="482" d="M171 -34T148 4T124 113Q124 175 144 275Q159 348 195 449T270 618Q292 656 304 668T328 678Q344 674 353 663T362 638Q362 617 342 604Q334 595 320 569T302 535L278 490Q243 390 227
336T200 222Q186 155 183 124T179 74T179 51Q182 45 187 36T196 22T205 16Q215 11 230 11Q257 11 286 28Q290 36 297 40T307 46Q309 43 310 43Q313 43 315 50V51Q315 56 324 65Q334 69 357 96T399 152T419 187Q419 192 424 198T432 206Q439 213 467 267T520 371Q535
420 561 509T593 623Q595 636 599 645T604 657Q611 659 625 652T644 642Q649 636 649 625Q649 613 640 575Q635 555 627 515Q611 452 589 396T532 261Q528 252 523 242T513 218V212Q501 205 494 191Q491 186 487 178T477 166Q474 157 472 151T468 143Q467 137 459
132T449 126Q445 124 443 117T439 108Q403 55 359 12T275 -46Q255 -54 240 -54Q227 -54 220 -52Q171 -34 148 4ZM694 716T681 716Q673 716 669 721T664 735Q664 746 672 757Q680 767 713 796T766 835Q774 842 782 842Q791 842 797 833Q813 820 839 794T876 755Q881
749 881 738Q881 729 876 722T863 714Q849 714 834 733Q814 757 780 786Q759 774 736 754T708 730Q694 716 681 716Z" />
<glyph unicode="&#xdc;" glyph-name="Udieresis" horiz-adv-x="482" d="M171 -34T148 4T124 113Q124 175 144 275Q159 348 195 449T270 618Q292 656 304 668T328 678Q344 674 353 663T362 638Q362 617 342 604Q334 595 320 569T302 535L278 490Q243 390 227 336T200
222Q186 155 183 124T179 74T179 51Q182 45 187 36T196 22T205 16Q215 11 230 11Q257 11 286 28Q290 36 297 40T307 46Q309 43 310 43Q313 43 315 50V51Q315 56 324 65Q334 69 357 96T399 152T419 187Q419 192 424 198T432 206Q439 213 467 267T520 371Q535 420
561 509T593 623Q595 636 599 645T604 657Q611 659 625 652T644 642Q649 636 649 625Q649 613 640 575Q635 555 627 515Q611 452 589 396T532 261Q528 252 523 242T513 218V212Q501 205 494 191Q491 186 487 178T477 166Q474 157 472 151T468 143Q467 137 459 132T449
126Q445 124 443 117T439 108Q403 55 359 12T275 -46Q255 -54 240 -54Q227 -54 220 -52Q171 -34 148 4ZM674 757T669 767T666 782Q675 813 686 822Q688 824 692 828T700 834Q706 839 714 839Q731 839 739 815Q746 803 746 796Q746 789 742 782T729 763Q712 740
697 740Q688 740 681 750Q674 757 669 767ZM803 757T798 767T795 782Q804 813 815 822Q817 824 822 828T830 834Q836 839 844 839Q860 839 868 815Q875 803 875 796Q875 789 871 782T858 763Q841 740 827 740Q817 740 810 750Q803 757 798 767Z" />
<glyph unicode="&#xdd;" glyph-name="Yacute" horiz-adv-x="504" d="M679 609T678 600Q677 594 668 586T656 574Q634 555 586 505T510 420Q470 374 437 339T389 288Q388 286 369 267Q359 232 351 197L331 132Q326 117 317 85T302 37Q299 25 296 14T290 -9Q284
-32 280 -47T271 -66T259 -68Q255 -67 229 -49Q220 -39 220 -31Q220 -24 226 -4L234 26Q235 50 243 83T264 137Q264 152 274 183T295 242L312 290L295 311Q273 344 262 369T246 431Q235 471 235 515Q235 529 237 593Q238 636 247 653T257 673Q263 679 267 679Q278
679 286 654T294 595Q300 376 344 348Q352 346 354 346Q365 346 377 357T427 409L449 433Q465 450 534 529Q574 576 598 603T637 638Q640 643 645 646T653 650T658 651Q662 650 664 646T668 633T675 618Q679 609 678 600ZM709 721T706 734T703 754Q705 763 746
807T801 856Q806 859 810 859Q824 859 842 828Q846 819 833 805T791 767Q757 739 749 728Q744 719 739 714T730 708Q727 708 716 715Q709 721 706 734Z" />
<glyph unicode="&#xde;" glyph-name="Thorn" horiz-adv-x="472" d="M112 -62T102 -59T85 -52T78 -39Q76 -35 78 -24T88 15L95 39Q149 224 152 216Q154 224 159 238T168 257Q170 272 179 295T197 327Q197 338 214 376T234 414Q234 415 236 421T247 439Q247 444
249 452T258 465Q259 468 261 477T263 489T260 493Q258 498 258 505Q258 519 276 520Q282 520 290 537Q292 541 294 542Q346 678 346 693Q346 701 353 705T369 709Q374 714 385 714L401 698Q408 691 410 684T412 661Q412 647 408 635T388 591L373 559L406 565Q423
565 444 563T478 558Q514 541 534 514T555 460Q555 430 536 375T499 307Q504 307 495 296T472 272T452 257Q452 255 444 243T425 225Q405 213 395 205T378 187Q378 192 375 192Q371 192 364 186T352 177Q307 150 265 142Q258 136 229 136L195 141L174 84Q169 63
159 27Q149 0 144 -27Q140 -53 133 -61T117 -64Q112 -62 102 -59ZM269 193T304 210T375 260Q391 276 414 303T453 352Q468 374 476 402T484 456Q484 476 479 486Q462 510 424 510Q386 510 349 489Q339 485 305 417T243 277T218 194Q269 193 304 210Z" />
<glyph unicode="&#xdf;" glyph-name="germandbls" horiz-adv-x="398" d="M513 578T513 553Q513 497 468 436Q458 420 446 409T431 397Q428 395 421 387T409 367Q403 361 395 351T384 341Q378 341 370 325T366 300L361 294Q353 293 358 279T370 250T380 232Q386
231 393 219T409 183Q409 181 413 146L416 114Q407 30 326 24Q317 22 303 22Q289 22 274 27T251 34Q228 43 218 50T207 69Q207 76 212 86Q213 89 217 90T221 91Q227 91 229 91T232 92L262 91Q272 90 285 87T303 84Q313 84 319 93Q329 95 336 95T345 96Q346 96 346
105Q345 106 346 106Q347 107 350 112T355 124T356 137Q355 155 352 164T337 190Q326 219 309 245T286 278Q283 283 283 287Q283 295 289 310Q290 315 292 317T295 321Q295 323 326 363Q369 419 375 430Q392 440 408 455T424 475Q422 481 425 491T438 513Q457 546
457 569Q457 577 453 587Q448 591 438 591Q420 591 396 577T351 539Q322 503 318 502Q295 472 264 413T216 303Q220 296 214 281T198 258Q199 252 199 240Q199 232 199 227T198 221Q198 215 196 210T192 204Q185 204 185 203Q184 199 181 185T171 155Q155 112 152
98T142 38Q121 -25 112 -79L111 -92Q111 -100 113 -108Q109 -120 106 -144T102 -184Q102 -205 99 -209T79 -213Q51 -206 44 -168Q45 -167 45 -161L44 -139Q55 -119 54 -76Q63 -54 63 -32Q67 -15 80 36T100 109Q110 155 115 162Q128 203 141 237Q139 250 151 283T178
338Q181 356 186 373T197 400T204 414Q202 416 202 423Q202 434 203 439Q213 445 216 451T220 461Q220 464 257 513T314 586Q333 605 358 620T404 640Q439 647 448 647Q456 648 476 632T504 599Q513 578 513 553Z" />
<glyph unicode="&#xe0;" glyph-name="agrave" horiz-adv-x="437" d="M104 42T98 48T91 57Q91 68 86 74Q84 76 84 83Q84 99 99 137T140 221Q146 227 155 242T168 259Q168 263 171 266T178 270V276Q178 285 211 319T265 367Q290 384 316 384Q334 384 347 374Q352
368 393 331L430 298L412 248Q403 221 403 199Q403 161 425 126Q430 115 445 105T475 93Q497 89 497 71Q497 51 479 47Q475 46 467 46Q408 46 365 129Q361 135 355 151T347 173Q341 165 332 154T315 135Q206 26 143 26Q123 26 107 36Q104 42 98 48ZM143 87T153
89T179 99T211 120Q297 194 335 249L357 285Q347 306 336 315T316 325Q295 325 250 273T168 149Q159 132 152 115T143 92Q143 87 153 89ZM382 435T378 435Q374 435 371 440T364 457Q362 460 346 486Q328 515 319 532T309 563Q309 571 312 575Q332 593 341 593Q349
593 354 587Q363 582 376 557T400 503T411 467Q412 462 406 453T391 441Q382 435 378 435Z" />
<glyph unicode="&#xe1;" glyph-name="aacute" horiz-adv-x="437" d="M104 42T98 48T91 57Q91 68 86 74Q84 76 84 83Q84 99 99 137T140 221Q146 227 155 242T168 259Q168 263 171 266T178 270V276Q178 285 211 319T265 367Q290 384 316 384Q334 384 347 374Q352
368 393 331L430 298L412 248Q403 221 403 199Q403 161 425 126Q430 115 445 105T475 93Q497 89 497 71Q497 51 479 47Q475 46 467 46Q408 46 365 129Q361 135 355 151T347 173Q341 165 332 154T315 135Q206 26 143 26Q123 26 107 36Q104 42 98 48ZM143 87T153
89T179 99T211 120Q297 194 335 249L357 285Q347 306 336 315T316 325Q295 325 250 273T168 149Q159 132 152 115T143 92Q143 87 153 89ZM382 450T379 463T376 483Q378 492 419 536T474 585Q479 588 483 588Q497 588 515 557Q519 548 506 534T464 496Q430 468 422
457Q417 448 412 443T403 437Q399 437 389 444Q382 450 379 463Z" />
<glyph unicode="&#xe2;" glyph-name="acircumflex" horiz-adv-x="437" d="M104 42T98 48T91 57Q91 68 86 74Q84 76 84 83Q84 99 99 137T140 221Q146 227 155 242T168 259Q168 263 171 266T178 270V276Q178 285 211 319T265 367Q290 384 316 384Q334 384 347 374Q352
368 393 331L430 298L412 248Q403 221 403 199Q403 161 425 126Q430 115 445 105T475 93Q497 89 497 71Q497 51 479 47Q475 46 467 46Q408 46 365 129Q361 135 355 151T347 173Q341 165 332 154T315 135Q206 26 143 26Q123 26 107 36Q104 42 98 48ZM143 87T153
89T179 99T211 120Q297 194 335 249L357 285Q347 306 336 315T316 325Q295 325 250 273T168 149Q159 132 152 115T143 92Q143 87 153 89ZM295 442T282 442Q274 442 270 447T265 461Q265 472 273 483Q281 493 314 522T367 561Q375 568 383 568Q392 568 398 559Q414
546 440 520T477 481Q482 475 482 464Q482 455 477 448T464 440Q450 440 435 459Q415 483 381 512Q360 500 337 480T309 456Q295 442 282 442Z" />
<glyph unicode="&#xe3;" glyph-name="atilde" horiz-adv-x="437" d="M104 42T98 48T91 57Q91 68 86 74Q84 76 84 83Q84 99 99 137T140 221Q146 227 155 242T168 259Q168 263 171 266T178 270V276Q178 285 211 319T265 367Q290 384 316 384Q334 384 347 374Q352
368 393 331L430 298L412 248Q403 221 403 199Q403 161 425 126Q430 115 445 105T475 93Q497 89 497 71Q497 51 479 47Q475 46 467 46Q408 46 365 129Q361 135 355 151T347 173Q341 165 332 154T315 135Q206 26 143 26Q123 26 107 36Q104 42 98 48ZM143 87T153
89T179 99T211 120Q297 194 335 249L357 285Q347 306 336 315T316 325Q295 325 250 273T168 149Q159 132 152 115T143 92Q143 87 153 89ZM415 429T404 434T383 446T367 457Q363 459 353 468T333 485T316 492Q309 492 304 488T292 475Q288 469 283 464T270 457Q269
451 264 444T257 442Q248 445 242 451T237 464Q238 477 254 499T300 536Q308 538 314 538Q328 538 343 533T371 516Q377 510 388 500T407 485T422 480Q425 480 437 484Q448 487 472 500Q492 513 508 519Q518 523 526 514T532 495Q532 490 525 480T510 466Q468 442
453 436T431 429Q415 429 404 434Z" />
<glyph unicode="&#xe4;" glyph-name="adieresis" horiz-adv-x="437" d="M104 42T98 48T91 57Q91 68 86 74Q84 76 84 83Q84 99 99 137T140 221Q146 227 155 242T168 259Q168 263 171 266T178 270V276Q178 285 211 319T265 367Q290 384 316 384Q334 384 347 374Q352
368 393 331L430 298L412 248Q403 221 403 199Q403 161 425 126Q430 115 445 105T475 93Q497 89 497 71Q497 51 479 47Q475 46 467 46Q408 46 365 129Q361 135 355 151T347 173Q341 165 332 154T315 135Q206 26 143 26Q123 26 107 36Q104 42 98 48ZM143 87T153
89T179 99T211 120Q297 194 335 249L357 285Q347 306 336 315T316 325Q295 325 250 273T168 149Q159 132 152 115T143 92Q143 87 153 89ZM299 457T294 467T291 482Q300 513 311 522Q313 524 317 528T325 534Q333 539 339 539Q355 539 363 515Q370 503 370 496Q370
489 366 482T353 463Q336 440 322 440Q314 440 306 450Q299 457 294 467ZM427 457T422 467T419 482Q428 513 439 522Q441 524 445 528T453 534Q461 539 467 539Q483 539 491 515Q498 503 498 496Q498 489 494 482T481 463Q464 440 450 440Q442 440 434 450Q427
457 422 467Z" />
<glyph unicode="&#xe5;" glyph-name="aring" horiz-adv-x="437" d="M104 42T98 48T91 57Q91 68 86 74Q84 76 84 83Q84 99 99 137T140 221Q146 227 155 242T168 259Q168 263 171 266T178 270V276Q178 285 211 319T265 367Q290 384 316 384Q334 384 347 374Q352
368 393 331L430 298L412 248Q403 221 403 199Q403 161 425 126Q430 115 445 105T475 93Q497 89 497 71Q497 51 479 47Q475 46 467 46Q408 46 365 129Q361 135 355 151T347 173Q341 165 332 154T315 135Q206 26 143 26Q123 26 107 36Q104 42 98 48ZM143 87T153
89T179 99T211 120Q297 194 335 249L357 285Q347 306 336 315T316 325Q295 325 250 273T168 149Q159 132 152 115T143 92Q143 87 153 89ZM348 412T341 482Q341 514 360 545T410 577Q444 577 465 562T486 519Q486 479 465 446T408 412Q348 412 341 482ZM422 452T432
463T443 496Q443 536 417 536Q379 536 379 486Q379 475 387 464T404 452Q422 452 432 463Z" />
<glyph unicode="&#xe6;" glyph-name="ae" horiz-adv-x="574" d="M431 204T424 204Q416 204 412 195T404 163L405 159L403 156L402 148Q401 141 401 128Q401 77 435 72Q458 67 468 67Q480 67 495 75L514 86Q520 89 525 94T534 103Q536 105 540 109T547 115T554
117Q558 117 563 113T571 106Q580 106 575 94T554 65T516 35Q491 13 456 13Q431 13 409 25T371 58Q356 77 350 100T346 159Q342 171 342 173Q336 165 327 154T310 135Q201 26 138 26Q118 26 102 36Q99 42 93 48T86 57Q86 68 81 74Q79 76 79 83Q79 99 94 137T135
221Q141 227 150 242T163 259Q163 263 166 266T173 270V276Q173 285 206 319T260 367Q285 384 311 384Q329 384 342 374Q347 368 388 331L409 313Q448 358 489 375Q505 385 518 385Q525 385 532 384T547 382Q569 379 580 374T600 357Q625 332 625 299Q621 275 594
244T529 194Q511 188 488 188Q457 188 438 201Q431 204 424 204ZM501 324T482 307T449 271T438 250Q443 241 477 241Q500 241 515 247Q532 254 549 272T567 302Q567 314 558 322T533 330Q521 330 515 328Q501 324 482 307ZM352 285Q342 306 331 315T311 325Q290
325 245 273T163 149Q154 132 147 115T138 92Q138 87 148 89T174 99T206 120Q292 194 330 249L352 285Z" />
<glyph unicode="&#xe7;" glyph-name="ccedilla" horiz-adv-x="355" d="M195 9T188 9Q151 9 127 32T103 96Q99 140 122 205T182 314Q207 343 225 361T258 385Q279 394 305 394Q323 390 340 379T358 357L363 352Q369 352 374 338T379 306Q379 292 374 282Q370 263
361 249T342 235Q331 235 331 229Q331 225 327 225Q322 225 315 231T305 245Q305 248 309 262T317 293Q320 305 320 314Q320 334 305 334Q297 334 289 330Q249 308 218 260T166 128Q161 106 161 93Q161 83 162 77T166 70Q171 68 187 68Q224 68 239 77Q271 94 310
123Q314 126 322 133T337 144Q344 155 350 157T369 160Q382 156 390 150T390 139Q387 139 386 137T385 134Q387 129 369 109T329 72T299 54Q295 54 292 53T289 48Q289 44 259 30T209 11Q195 9 188 9ZM188 -179T176 -179Q141 -179 94 -165Q77 -159 77 -144Q77 -135
83 -128T99 -121Q104 -121 107 -122Q114 -124 136 -131T174 -139Q194 -139 201 -125Q205 -120 205 -112Q205 -100 188 -81Q184 -76 173 -62T150 -37Q139 -22 139 -12Q139 1 156 16T217 53L250 30Q222 16 208 6T194 -17Q195 -19 214 -43Q225 -55 234 -68T247 -94Q250
-106 250 -116Q250 -141 235 -156T193 -178Q188 -179 176 -179Z" />
<glyph unicode="&#xe8;" glyph-name="egrave" horiz-adv-x="325" d="M251 13T216 13Q191 13 169 25T131 58Q118 74 112 94T106 143Q106 153 108 183Q111 220 132 260T186 331T249 375Q265 385 278 385Q285 385 292 384T307 382Q329 379 340 374T360 357Q385 332
385 299Q381 275 354 244T289 194Q271 188 248 188Q217 188 198 201Q189 204 184 204Q175 204 171 192T162 148Q161 141 161 128Q161 77 195 72Q218 67 228 67Q240 67 255 75L274 86Q280 89 285 94T294 103Q296 105 300 109T307 115T314 117Q318 117 323 113T331
106Q340 106 335 94T314 65T276 35Q251 13 216 13ZM292 254T309 272T327 302Q327 314 318 322T293 330Q281 330 275 328Q261 324 242 307T209 271T198 250Q203 241 237 241Q260 241 275 247Q292 254 309 272ZM580 435T576 435Q572 435 569 440T562 457Q560 460
544 486Q526 515 517 532T507 563Q507 571 510 575Q530 593 539 593Q547 593 552 587Q561 582 574 557T598 503T609 467Q610 462 604 453T589 441Q580 435 576 435Z" />
<glyph unicode="&#xe9;" glyph-name="eacute" horiz-adv-x="325" d="M251 13T216 13Q191 13 169 25T131 58Q118 74 112 94T106 143Q106 153 108 183Q111 220 132 260T186 331T249 375Q265 385 278 385Q285 385 292 384T307 382Q329 379 340 374T360 357Q385 332
385 299Q381 275 354 244T289 194Q271 188 248 188Q217 188 198 201Q189 204 184 204Q175 204 171 192T162 148Q161 141 161 128Q161 77 195 72Q218 67 228 67Q240 67 255 75L274 86Q280 89 285 94T294 103Q296 105 300 109T307 115T314 117Q318 117 323 113T331
106Q340 106 335 94T314 65T276 35Q251 13 216 13ZM292 254T309 272T327 302Q327 314 318 322T293 330Q281 330 275 328Q261 324 242 307T209 271T198 250Q203 241 237 241Q260 241 275 247Q292 254 309 272ZM580 450T577 463T574 483Q576 492 617 536T672 585Q677
588 681 588Q695 588 713 557Q717 548 704 534T662 496Q628 468 620 457Q615 448 610 443T601 437Q597 437 587 444Q580 450 577 463Z" />
<glyph unicode="&#xea;" glyph-name="ecircumflex" horiz-adv-x="325" d="M251 13T216 13Q191 13 169 25T131 58Q118 74 112 94T106 143Q106 153 108 183Q111 220 132 260T186 331T249 375Q265 385 278 385Q285 385 292 384T307 382Q329 379 340 374T360 357Q385
332 385 299Q381 275 354 244T289 194Q271 188 248 188Q217 188 198 201Q189 204 184 204Q175 204 171 192T162 148Q161 141 161 128Q161 77 195 72Q218 67 228 67Q240 67 255 75L274 86Q280 89 285 94T294 103Q296 105 300 109T307 115T314 117Q318 117 323 113T331
106Q340 106 335 94T314 65T276 35Q251 13 216 13ZM292 254T309 272T327 302Q327 314 318 322T293 330Q281 330 275 328Q261 324 242 307T209 271T198 250Q203 241 237 241Q260 241 275 247Q292 254 309 272ZM493 442T480 442Q472 442 468 447T463 461Q463 472
471 483Q479 493 512 522T565 561Q573 568 581 568Q590 568 596 559Q612 546 638 520T675 481Q680 475 680 464Q680 455 675 448T662 440Q648 440 633 459Q613 483 579 512Q558 500 535 480T507 456Q493 442 480 442Z" />
<glyph unicode="&#xeb;" glyph-name="edieresis" horiz-adv-x="325" d="M251 13T216 13Q191 13 169 25T131 58Q118 74 112 94T106 143Q106 153 108 183Q111 220 132 260T186 331T249 375Q265 385 278 385Q285 385 292 384T307 382Q329 379 340 374T360 357Q385
332 385 299Q381 275 354 244T289 194Q271 188 248 188Q217 188 198 201Q189 204 184 204Q175 204 171 192T162 148Q161 141 161 128Q161 77 195 72Q218 67 228 67Q240 67 255 75L274 86Q280 89 285 94T294 103Q296 105 300 109T307 115T314 117Q318 117 323 113T331
106Q340 106 335 94T314 65T276 35Q251 13 216 13ZM292 254T309 272T327 302Q327 314 318 322T293 330Q281 330 275 328Q261 324 242 307T209 271T198 250Q203 241 237 241Q260 241 275 247Q292 254 309 272ZM497 457T492 467T489 482Q498 513 509 522Q511 524
515 528T523 534Q531 539 537 539Q553 539 561 515Q568 503 568 496Q568 489 564 482T551 463Q534 440 520 440Q512 440 504 450Q497 457 492 467ZM625 457T620 467T617 482Q626 513 637 522Q639 524 643 528T651 534Q659 539 665 539Q681 539 689 515Q696 503
696 496Q696 489 692 482T679 463Q662 440 648 440Q640 440 632 450Q625 457 620 467Z" />
<glyph unicode="&#xec;" glyph-name="igrave" horiz-adv-x="187" d="M97 46T97 72Q97 86 102 96Q102 101 104 108T106 117Q105 123 114 150Q132 190 162 291Q162 296 166 299T178 304Q186 306 189 306Q195 306 199 302T212 285Q218 279 218 267Q218 248 205 221Q192
192 188 171Q176 144 169 121Q167 115 163 97T152 68Q146 40 141 29T130 18Q123 18 111 32Q97 46 97 72ZM489 435T485 435Q481 435 478 440T471 457Q469 460 453 486Q435 515 426 532T416 563Q416 571 419 575Q439 593 448 593Q456 593 461 587Q470 582 483 557T507
503T518 467Q519 462 513 453T498 441Q489 435 485 435Z" />
<glyph unicode="&#xed;" glyph-name="iacute" horiz-adv-x="187" d="M97 46T97 72Q97 86 102 96Q102 101 104 108T106 117Q105 123 114 150Q132 190 162 291Q162 296 166 299T178 304Q186 306 189 306Q195 306 199 302T212 285Q218 279 218 267Q218 248 205 221Q192
192 188 171Q176 144 169 121Q167 115 163 97T152 68Q146 40 141 29T130 18Q123 18 111 32Q97 46 97 72ZM489 450T486 463T483 483Q485 492 526 536T581 585Q586 588 590 588Q604 588 622 557Q626 548 613 534T571 496Q537 468 529 457Q524 448 519 443T510 437Q506
437 496 444Q489 450 486 463Z" />
<glyph unicode="&#xee;" glyph-name="icircumflex" horiz-adv-x="187" d="M97 46T97 72Q97 86 102 96Q102 101 104 108T106 117Q105 123 114 150Q132 190 162 291Q162 296 166 299T178 304Q186 306 189 306Q195 306 199 302T212 285Q218 279 218 267Q218 248 205
221Q192 192 188 171Q176 144 169 121Q167 115 163 97T152 68Q146 40 141 29T130 18Q123 18 111 32Q97 46 97 72ZM402 442T389 442Q381 442 377 447T372 461Q372 472 380 483Q388 493 421 522T474 561Q482 568 490 568Q499 568 505 559Q521 546 547 520T584 481Q589
475 589 464Q589 455 584 448T571 440Q557 440 542 459Q522 483 488 512Q467 500 444 480T416 456Q402 442 389 442Z" />
<glyph unicode="&#xef;" glyph-name="idieresis" horiz-adv-x="187" d="M97 46T97 72Q97 86 102 96Q102 101 104 108T106 117Q105 123 114 150Q132 190 162 291Q162 296 166 299T178 304Q186 306 189 306Q195 306 199 302T212 285Q218 279 218 267Q218 248 205
221Q192 192 188 171Q176 144 169 121Q167 115 163 97T152 68Q146 40 141 29T130 18Q123 18 111 32Q97 46 97 72ZM406 457T401 467T398 482Q407 513 418 522Q420 524 424 528T432 534Q440 539 446 539Q462 539 470 515Q477 503 477 496Q477 489 473 482T460 463Q443
440 429 440Q421 440 413 450Q406 457 401 467ZM534 457T529 467T526 482Q535 513 546 522Q548 524 552 528T560 534Q568 539 574 539Q590 539 598 515Q605 503 605 496Q605 489 601 482T588 463Q571 440 557 440Q549 440 541 450Q534 457 529 467Z" />
<glyph unicode="&#xf0;" glyph-name="eth" horiz-adv-x="349" d="M462 526T462 514Q462 506 455 502T435 500Q431 500 413 494T382 485Q401 425 401 354Q401 295 388 239T348 138Q328 103 310 86T258 44Q236 28 219 21T180 12Q168 10 161 13T141 28Q105 62 105
91L106 99Q108 105 108 109Q108 114 107 117T105 122Q101 126 101 127T103 130T106 134Q112 135 110 146Q107 154 116 183T140 234Q148 252 168 280T205 323Q227 345 245 356T287 375Q309 380 315 380Q327 380 341 367L345 365Q347 418 331 466Q314 463 295 457Q275
457 259 458Q249 455 243 455Q234 455 224 465Q215 474 215 480Q215 486 225 491T264 506Q290 512 308 519Q296 542 278 564Q268 574 256 584Q241 594 234 606Q233 610 242 620T260 631Q264 633 268 633Q275 633 283 630T294 623Q297 626 305 617T322 596T336 577Q346
565 362 537Q363 537 385 542Q393 543 404 545T421 548Q431 548 447 538Q462 526 462 514ZM335 248T335 261Q335 280 333 294T324 311Q314 316 305 316Q284 316 261 293Q232 266 211 229T168 136Q161 118 161 100Q161 83 168 73T189 63Q223 63 273 121Q294 150
306 174T333 236Q335 248 335 261Z" />
<glyph unicode="&#xf1;" glyph-name="ntilde" horiz-adv-x="450" d="M434 46T421 54T399 83Q390 115 390 147Q390 162 393 168Q397 172 397 185T396 205Q395 228 382 228Q373 228 362 221Q306 186 268 161T195 105Q181 89 174 77T164 61T156 56Q150 54 148 54Q143
54 136 59T127 67Q123 71 114 80T104 94Q104 102 110 131T121 168Q124 168 130 180T141 200Q144 215 167 269Q181 293 186 309T194 349V351Q194 355 197 357T203 360Q210 365 216 365Q229 365 242 349Q257 330 257 309Q257 283 224 227Q221 220 216 207T210 189L266
227Q274 236 309 259T358 285Q382 296 388 296Q400 296 420 278T445 248Q445 237 447 232Q452 212 452 185Q452 167 450 153T443 136Q443 135 444 133T448 131V126Q440 126 446 109T462 83Q472 73 472 63Q472 51 454 46Q434 46 421 54ZM421 429T410 434T389 446T373
457Q369 459 359 468T339 485T322 492Q315 492 310 488T298 475Q294 469 289 464T276 457Q275 451 270 444T263 442Q254 445 248 451T243 464Q244 477 260 499T306 536Q314 538 320 538Q334 538 349 533T377 516Q383 510 394 500T413 485T428 480Q431 480 443 484Q454
487 478 500Q498 513 514 519Q524 523 532 514T538 495Q538 490 531 480T516 466Q474 442 459 436T437 429Q421 429 410 434Z" />
<glyph unicode="&#xf2;" glyph-name="ograve" horiz-adv-x="353" d="M157 15T150 19T130 34Q97 69 97 98Q97 105 98 108Q101 115 101 122T100 131Q96 135 96 136T98 139T101 143Q107 143 105 154Q103 162 113 189T138 240Q149 258 170 285T209 326Q233 347 252
357T294 372Q314 377 321 377Q328 377 333 374T348 361Q375 349 385 331T396 273Q396 208 343 132Q320 99 300 82T247 44Q226 29 209 23T169 15Q157 15 150 19ZM289 148T303 172T331 233Q336 250 336 274Q336 304 328 308Q318 313 308 313Q286 313 262 293Q233
268 210 232T163 141Q153 120 153 100Q153 85 160 76T181 67Q214 67 265 121Q289 148 303 172ZM339 435T335 435Q331 435 328 440T321 457Q319 460 303 486Q285 515 276 532T266 563Q266 571 269 575Q289 593 298 593Q306 593 311 587Q320 582 333 557T357 503T368
467Q369 462 363 453T348 441Q339 435 335 435Z" />
<glyph unicode="&#xf3;" glyph-name="oacute" horiz-adv-x="353" d="M157 15T150 19T130 34Q97 69 97 98Q97 105 98 108Q101 115 101 122T100 131Q96 135 96 136T98 139T101 143Q107 143 105 154Q103 162 113 189T138 240Q149 258 170 285T209 326Q233 347 252
357T294 372Q314 377 321 377Q328 377 333 374T348 361Q375 349 385 331T396 273Q396 208 343 132Q320 99 300 82T247 44Q226 29 209 23T169 15Q157 15 150 19ZM289 148T303 172T331 233Q336 250 336 274Q336 304 328 308Q318 313 308 313Q286 313 262 293Q233
268 210 232T163 141Q153 120 153 100Q153 85 160 76T181 67Q214 67 265 121Q289 148 303 172ZM595 450T592 463T589 483Q591 492 632 536T687 585Q692 588 696 588Q710 588 728 557Q732 548 719 534T677 496Q643 468 635 457Q630 448 625 443T616 437Q612 437
602 444Q595 450 592 463Z" />
<glyph unicode="&#xf4;" glyph-name="ocircumflex" horiz-adv-x="353" d="M157 15T150 19T130 34Q97 69 97 98Q97 105 98 108Q101 115 101 122T100 131Q96 135 96 136T98 139T101 143Q107 143 105 154Q103 162 113 189T138 240Q149 258 170 285T209 326Q233 347
252 357T294 372Q314 377 321 377Q328 377 333 374T348 361Q375 349 385 331T396 273Q396 208 343 132Q320 99 300 82T247 44Q226 29 209 23T169 15Q157 15 150 19ZM289 148T303 172T331 233Q336 250 336 274Q336 304 328 308Q318 313 308 313Q286 313 262 293Q233
268 210 232T163 141Q153 120 153 100Q153 85 160 76T181 67Q214 67 265 121Q289 148 303 172ZM508 442T495 442Q487 442 483 447T478 461Q478 472 486 483Q494 493 527 522T580 561Q588 568 596 568Q605 568 611 559Q627 546 653 520T690 481Q695 475 695 464Q695
455 690 448T677 440Q663 440 648 459Q628 483 594 512Q573 500 550 480T522 456Q508 442 495 442Z" />
<glyph unicode="&#xf5;" glyph-name="otilde" horiz-adv-x="353" d="M157 15T150 19T130 34Q97 69 97 98Q97 105 98 108Q101 115 101 122T100 131Q96 135 96 136T98 139T101 143Q107 143 105 154Q103 162 113 189T138 240Q149 258 170 285T209 326Q233 347 252
357T294 372Q314 377 321 377Q328 377 333 374T348 361Q375 349 385 331T396 273Q396 208 343 132Q320 99 300 82T247 44Q226 29 209 23T169 15Q157 15 150 19ZM289 148T303 172T331 233Q336 250 336 274Q336 304 328 308Q318 313 308 313Q286 313 262 293Q233
268 210 232T163 141Q153 120 153 100Q153 85 160 76T181 67Q214 67 265 121Q289 148 303 172ZM372 429T361 434T340 446T324 457Q320 459 310 468T290 485T273 492Q266 492 261 488T249 475Q245 469 240 464T227 457Q226 451 221 444T214 442Q205 445 199 451T194
464Q195 477 211 499T257 536Q265 538 271 538Q285 538 300 533T328 516Q334 510 345 500T364 485T379 480Q382 480 394 484Q405 487 429 500Q449 513 465 519Q475 523 483 514T489 495Q489 490 482 480T467 466Q425 442 410 436T388 429Q372 429 361 434Z" />
<glyph unicode="&#xf6;" glyph-name="odieresis" horiz-adv-x="353" d="M157 15T150 19T130 34Q97 69 97 98Q97 105 98 108Q101 115 101 122T100 131Q96 135 96 136T98 139T101 143Q107 143 105 154Q103 162 113 189T138 240Q149 258 170 285T209 326Q233 347
252 357T294 372Q314 377 321 377Q328 377 333 374T348 361Q375 349 385 331T396 273Q396 208 343 132Q320 99 300 82T247 44Q226 29 209 23T169 15Q157 15 150 19ZM289 148T303 172T331 233Q336 250 336 274Q336 304 328 308Q318 313 308 313Q286 313 262 293Q233
268 210 232T163 141Q153 120 153 100Q153 85 160 76T181 67Q214 67 265 121Q289 148 303 172ZM256 457T251 467T248 482Q257 513 268 522Q270 524 274 528T282 534Q290 539 296 539Q312 539 320 515Q327 503 327 496Q327 489 323 482T310 463Q293 440 279 440Q271
440 263 450Q256 457 251 467ZM384 457T379 467T376 482Q385 513 396 522Q398 524 402 528T410 534Q418 539 424 539Q440 539 448 515Q455 503 455 496Q455 489 451 482T438 463Q421 440 407 440Q399 440 391 450Q384 457 379 467Z" />
<glyph unicode="&#xf7;" glyph-name="divide" horiz-adv-x="446" d="M301 335T296 352T296 369Q304 370 314 386T324 414Q324 418 327 421T334 426Q342 431 348 431Q365 431 379 407Q385 394 385 384Q385 375 380 366T362 341Q345 318 330 318Q320 318 308 328Q301
335 296 352ZM158 178T143 183Q129 183 124 186T114 197Q108 206 108 211Q108 217 119 220T158 227Q188 234 271 237T410 241Q436 241 445 239T465 226Q477 214 477 203Q477 194 470 190T449 188L386 183Q353 182 289 180T178 178Q158 178 143 183ZM211 15T206
32T206 49Q214 50 224 66T234 94Q234 98 237 101T244 106Q252 111 258 111Q275 111 289 87Q295 74 295 64Q295 55 290 46T272 21Q255 -2 240 -2Q230 -2 218 8Q211 15 206 32Z" />
<glyph unicode="&#xf8;" glyph-name="oslash" horiz-adv-x="353" d="M472 362Q472 354 463 345Q459 337 452 331T431 314Q414 303 408 298Q400 292 396 290Q399 256 388 219T343 132Q320 99 300 82T247 44Q226 29 209 23T169 15Q157 15 150 19T130 34L120 45Q88
12 85 6Q80 -5 77 -10T69 -15Q53 -11 53 4Q53 26 83 56Q102 75 102 75Q97 88 97 98Q97 105 98 108Q101 115 101 122T100 131Q96 135 96 136T98 139T101 143Q107 143 105 154Q103 162 113 189T138 240Q149 258 170 285T209 326Q233 347 252 357T294 372Q314 377
321 377Q328 377 333 374T348 361Q376 349 387 328Q407 345 422 358T443 378Q446 386 451 386Q456 386 462 380T471 367L472 362ZM233 268T210 232T163 141L160 134Q203 179 238 211T313 272Q325 279 336 288Q334 305 328 308Q318 313 308 313Q286 313 262 293Q233
268 210 232ZM334 243Q320 232 268 187Q233 158 157 82Q163 67 181 67Q214 67 265 121Q289 148 303 172T331 233L334 243Z" />
<glyph unicode="&#xf9;" glyph-name="ugrave" horiz-adv-x="370" d="M315 25T303 70Q301 76 301 91T301 112Q295 97 279 85Q256 62 233 51Q198 28 176 28Q156 28 138 50Q125 61 119 72T112 99Q112 110 115 123Q117 160 125 194T158 281Q190 344 204 365Q209 367
217 367Q227 367 233 361T241 345Q244 341 244 334Q244 309 214 252Q175 158 175 122Q175 101 187 97Q192 94 198 94Q223 94 258 128T325 237Q339 271 342 307Q341 310 341 316Q341 334 359 345Q363 351 370 354T379 354L395 355Q398 356 401 350T407 341Q414 335
414 319Q414 286 385 218Q366 178 360 157T352 115Q352 77 381 52Q391 45 393 37T394 15Q392 6 383 1T362 -5Q349 -5 339 2Q315 25 303 70ZM574 437T570 437Q566 437 563 442T556 459Q554 462 538 488Q520 517 511 534T501 565Q501 573 504 577Q524 595 533 595Q541
595 546 589Q555 584 568 559T592 505T603 469Q604 464 598 455T583 443Q574 437 570 437Z" />
<glyph unicode="&#xfa;" glyph-name="uacute" horiz-adv-x="370" d="M315 25T303 70Q301 76 301 91T301 112Q295 97 279 85Q256 62 233 51Q198 28 176 28Q156 28 138 50Q125 61 119 72T112 99Q112 110 115 123Q117 160 125 194T158 281Q190 344 204 365Q209 367
217 367Q227 367 233 361T241 345Q244 341 244 334Q244 309 214 252Q175 158 175 122Q175 101 187 97Q192 94 198 94Q223 94 258 128T325 237Q339 271 342 307Q341 310 341 316Q341 334 359 345Q363 351 370 354T379 354L395 355Q398 356 401 350T407 341Q414 335
414 319Q414 286 385 218Q366 178 360 157T352 115Q352 77 381 52Q391 45 393 37T394 15Q392 6 383 1T362 -5Q349 -5 339 2Q315 25 303 70ZM560 703T557 716T554 736Q556 745 597 789T652 838Q657 841 661 841Q675 841 693 810Q697 801 684 787T642 749Q608 721
600 710Q595 701 590 696T581 690Q577 690 567 697Q560 703 557 716Z" />
<glyph unicode="&#xfb;" glyph-name="ucircumflex" horiz-adv-x="370" d="M315 25T303 70Q301 76 301 91T301 112Q295 97 279 85Q256 62 233 51Q198 28 176 28Q156 28 138 50Q125 61 119 72T112 99Q112 110 115 123Q117 160 125 194T158 281Q190 344 204 365Q209
367 217 367Q227 367 233 361T241 345Q244 341 244 334Q244 309 214 252Q175 158 175 122Q175 101 187 97Q192 94 198 94Q223 94 258 128T325 237Q339 271 342 307Q341 310 341 316Q341 334 359 345Q363 351 370 354T379 354L395 355Q398 356 401 350T407 341Q414
335 414 319Q414 286 385 218Q366 178 360 157T352 115Q352 77 381 52Q391 45 393 37T394 15Q392 6 383 1T362 -5Q349 -5 339 2Q315 25 303 70ZM262 442T249 442Q241 442 237 447T232 461Q232 472 240 483Q248 493 281 522T334 561Q342 568 350 568Q359 568 365
559Q381 546 407 520T444 481Q449 475 449 464Q449 455 444 448T431 440Q417 440 402 459Q382 483 348 512Q327 500 304 480T276 456Q262 442 249 442Z" />
<glyph unicode="&#xfc;" glyph-name="udieresis" horiz-adv-x="370" d="M315 25T303 70Q301 76 301 91T301 112Q295 97 279 85Q256 62 233 51Q198 28 176 28Q156 28 138 50Q125 61 119 72T112 99Q112 110 115 123Q117 160 125 194T158 281Q190 344 204 365Q209
367 217 367Q227 367 233 361T241 345Q244 341 244 334Q244 309 214 252Q175 158 175 122Q175 101 187 97Q192 94 198 94Q223 94 258 128T325 237Q339 271 342 307Q341 310 341 316Q341 334 359 345Q363 351 370 354T379 354L395 355Q398 356 401 350T407 341Q414
335 414 319Q414 286 385 218Q366 178 360 157T352 115Q352 77 381 52Q391 45 393 37T394 15Q392 6 383 1T362 -5Q349 -5 339 2Q315 25 303 70ZM266 457T261 467T258 482Q267 513 278 522Q280 524 284 528T292 534Q300 539 306 539Q322 539 330 515Q337 503 337
496Q337 489 333 482T320 463Q303 440 289 440Q281 440 273 450Q266 457 261 467ZM394 457T389 467T386 482Q395 513 406 522Q408 524 412 528T420 534Q428 539 434 539Q450 539 458 515Q465 503 465 496Q465 489 461 482T448 463Q431 440 417 440Q409 440 401
450Q394 457 389 467Z" />
<glyph unicode="&#xfd;" glyph-name="yacute" horiz-adv-x="341" d="M408 353T408 336Q408 318 384 273Q376 250 367 230T352 204L329 151Q314 118 292 74Q265 18 254 -9L241 -30Q191 -110 164 -142Q109 -191 79 -199Q66 -203 48 -203Q15 -203 -14 -189T-48 -155Q-49
-148 -43 -140T-30 -132Q-25 -132 -22 -136Q-14 -142 1 -147T35 -153Q42 -153 54 -151Q74 -147 96 -127T136 -83Q170 -33 209 42Q195 46 182 61T162 94T156 119V130Q147 130 142 164T136 243Q136 260 138 286Q142 302 142 325T143 356V360Q143 372 145 377T154
386Q162 390 170 390Q198 390 198 316Q198 305 196 273Q195 259 195 231Q195 179 204 139T231 84L237 98Q248 127 254 135Q268 164 270 172Q272 179 281 195L294 222Q296 228 307 260T329 313Q333 321 341 336T354 359T365 368Q373 375 378 375Q382 375 392 369Q408
353 408 336ZM554 450T551 463T548 483Q550 492 591 536T646 585Q651 588 655 588Q669 588 687 557Q691 548 678 534T636 496Q602 468 594 457Q589 448 584 443T575 437Q571 437 561 444Q554 450 551 463Z" />
<glyph unicode="&#xfe;" glyph-name="thorn" horiz-adv-x="378" d="M292 332T325 332Q368 332 391 305T415 235Q415 217 405 192T384 157Q378 157 368 136Q355 120 325 103T283 89Q282 89 280 88T278 83Q278 79 244 68T188 57Q176 57 170 58T158 65Q151 58 151
52Q151 41 141 12T125 -17Q124 -18 123 -21T125 -28Q125 -31 124 -42T119 -59Q119 -68 116 -83T109 -107Q109 -119 106 -130T98 -142Q92 -144 92 -171Q91 -196 82 -210T61 -224L53 -225Q45 -225 40 -216Q35 -209 35 -199Q35 -192 40 -165Q51 -123 51 -107Q51 -102
53 -93T56 -75Q60 -68 63 -54T67 -28Q67 -23 70 -17T79 -6Q79 0 82 12T86 30Q91 57 125 158T183 321L186 327H185Q202 363 242 482T283 613Q283 629 299 629Q304 634 315 634L331 618Q338 611 340 604T342 581L329 543Q302 466 271 379L250 313Q292 332 325 332ZM327
174T340 194T353 236Q353 252 344 265Q337 276 320 276Q300 276 273 262T222 225Q204 207 190 174T176 121Q176 110 182 110Q197 110 242 125T306 156Q327 174 340 194Z" />
<glyph unicode="&#xff;" glyph-name="ydieresis" horiz-adv-x="341" d="M408 353T408 336Q408 318 384 273Q376 250 367 230T352 204L329 151Q314 118 292 74Q265 18 254 -9L241 -30Q191 -110 164 -142Q109 -191 79 -199Q66 -203 48 -203Q15 -203 -14 -189T-48
-155Q-49 -148 -43 -140T-30 -132Q-25 -132 -22 -136Q-14 -142 1 -147T35 -153Q42 -153 54 -151Q74 -147 96 -127T136 -83Q170 -33 209 42Q195 46 182 61T162 94T156 119V130Q147 130 142 164T136 243Q136 260 138 286Q142 302 142 325T143 356V360Q143 372 145
377T154 386Q162 390 170 390Q198 390 198 316Q198 305 196 273Q195 259 195 231Q195 179 204 139T231 84L237 98Q248 127 254 135Q268 164 270 172Q272 179 281 195L294 222Q296 228 307 260T329 313Q333 321 341 336T354 359T365 368Q373 375 378 375Q382 375
392 369Q408 353 408 336ZM471 457T466 467T463 482Q472 513 483 522Q485 524 489 528T497 534Q505 539 511 539Q527 539 535 515Q542 503 542 496Q542 489 538 482T525 463Q508 440 494 440Q486 440 478 450Q471 457 466 467ZM599 457T594 467T591 482Q600 513
611 522Q613 524 617 528T625 534Q633 539 639 539Q655 539 663 515Q670 503 670 496Q670 489 666 482T653 463Q636 440 622 440Q614 440 606 450Q599 457 594 467Z" />
<glyph unicode="&#x2013;" glyph-name="endash" horiz-adv-x="446" d="M158 178T143 183Q129 183 124 186T114 197Q108 206 108 211Q108 217 119 220T158 227Q188 234 271 237T410 241Q436 241 445 239T465 226Q477 214 477 203Q477 194 470 190T449 188L386 183Q353
182 289 180T178 178Q158 178 143 183Z" />
<glyph unicode="&#x2014;" glyph-name="emdash" horiz-adv-x="566" d="M158 178T143 183Q129 183 124 186T114 197Q108 206 108 211Q108 217 119 220T158 227Q187 233 322 237T530 241Q556 241 565 239T585 226Q597 214 597 203Q597 194 590 190T569 188L506 183Q454
182 349 180T178 178Q158 178 143 183Z" />
<glyph unicode="&#x2018;" glyph-name="quoteleft" horiz-adv-x="117" d="M175 471T175 492Q175 496 177 502Q180 528 194 563L201 584Q206 604 218 622T252 664Q252 666 255 667T263 670T276 674H285Q289 674 292 673T299 667V663Q299 654 289 641Q251 579 241
551Q241 547 240 544Q257 547 275 532Q289 518 289 504Q289 482 255 459Q235 447 226 447Q221 447 202 454Q175 471 175 492Z" />
<glyph unicode="&#x2019;" glyph-name="quoteright" horiz-adv-x="117" d="M206 445Q202 445 199 446T192 452V456Q192 465 202 478Q240 540 250 568Q250 572 251 575Q234 572 216 587Q202 601 202 615Q202 637 236 660Q256 672 265 672Q270 672 289 665Q316 649
316 627Q316 623 314 617Q311 591 297 556L290 535Q285 515 273 497T239 455Q239 453 236 452T228 449T215 445H206Z" />
<glyph unicode="&#x201a;" glyph-name="quotesinglbase" horiz-adv-x="117" d="M32 -102Q28 -102 25 -101T18 -95V-91Q18 -82 28 -69Q66 -7 76 21Q76 25 77 28Q60 25 42 40Q28 54 28 68Q28 90 62 113Q82 125 91 125Q96 125 115 118Q142 101 142 80Q142 76 140
70Q137 44 123 9L116 -12Q111 -32 99 -50T65 -92Q65 -94 62 -95T54 -98T41 -102H32Z" />
<glyph unicode="&#x201c;" glyph-name="quotedblleft" horiz-adv-x="267" d="M184 471T184 492Q184 496 186 502Q189 528 203 563L210 584Q215 604 227 622T261 664Q261 666 264 667T272 670T285 674H294Q298 674 301 673T308 667V663Q308 654 298 641Q260 579
250 551Q250 547 249 544Q266 547 284 532Q298 518 298 504Q298 482 264 459Q244 447 235 447Q230 447 211 454Q184 471 184 492ZM334 471T334 492Q334 496 336 502Q339 528 353 563L360 584Q365 604 377 622T411 664Q411 666 414 667T422 670T435 674H444Q448
674 451 673T458 667V663Q458 654 448 641Q410 579 400 551Q400 547 399 544Q416 547 434 532Q448 518 448 504Q448 482 414 459Q395 447 385 447Q380 447 361 454Q334 471 334 492Z" />
<glyph unicode="&#x201d;" glyph-name="quotedblright" horiz-adv-x="267" d="M211 448Q207 448 204 449T197 455V459Q197 468 207 481Q245 543 255 571Q255 575 256 578Q239 575 221 590Q207 604 207 618Q207 640 241 663Q261 675 270 675Q275 675 294 668Q321
652 321 630Q321 626 319 620Q316 594 302 559L295 538Q290 518 278 500T244 458Q244 456 241 455T233 452T220 448H211ZM361 448Q357 448 354 449T347 455V459Q347 468 357 481Q395 543 405 571Q405 575 406 578Q389 575 371 590Q357 604 357 618Q357 640 391
663Q411 675 420 675Q425 675 444 668Q471 652 471 630Q471 626 469 620Q466 594 452 559L445 538Q440 518 428 500T394 458Q394 456 391 455T383 452T370 448H361Z" />
<glyph unicode="&#x201e;" glyph-name="quotedblbase" horiz-adv-x="267" d="M42 -102Q38 -102 35 -101T28 -95V-91Q28 -82 38 -69Q76 -7 86 21Q86 25 87 28Q70 25 52 40Q38 54 38 68Q38 90 72 113Q92 125 101 125Q106 125 125 118Q152 102 152 80Q152 76 150
70Q147 44 133 9L126 -12Q121 -32 109 -50T75 -92Q75 -94 72 -95T64 -98T51 -102H42ZM192 -102Q188 -102 185 -101T178 -95V-91Q178 -82 188 -69Q226 -7 236 21Q236 25 237 28Q220 25 202 40Q188 54 188 68Q188 90 222 113Q241 125 251 125Q256 125 275 118Q302
101 302 80Q302 76 300 70Q297 44 283 9L276 -12Q271 -32 259 -50T225 -92Q225 -94 222 -95T214 -98T201 -102H192Z" />
<glyph unicode="&#x2022;" glyph-name="bullet" horiz-adv-x="187" d="M147 241T147 269Q147 285 149 289Q155 308 168 329T195 361Q202 365 214 365Q229 365 243 359T264 343Q267 328 267 315Q267 276 233 239Q219 222 197 222Q178 222 155 234Q147 241 147 269Z" />
<glyph unicode="&#x2039;" glyph-name="guilsinglleft" horiz-adv-x="446" d="M390 1Q363 1 328 16L310 26Q280 41 267 49T242 72Q210 90 191 111T154 165L130 207L123 237Q131 239 142 248T154 258Q167 274 188 294T264 360Q304 390 319 406T338 425Q358 447
364 447Q367 448 371 448Q376 448 381 444Q387 440 395 438T408 434T414 427Q414 425 411 418T402 405L376 384Q339 356 275 299Q230 258 215 240T202 205Q213 179 251 142T353 69Q381 55 399 40T418 13Q418 5 406 2L390 1Z" />
<glyph unicode="&#x203a;" glyph-name="guilsinglright" horiz-adv-x="446" d="M233 -1T229 -1Q224 -1 219 3Q213 7 205 9T192 13T186 20Q186 22 189 29T198 42L224 63Q261 91 325 148Q370 189 385 207T398 242Q387 268 349 305T247 378Q219 392 201 407T182 434Q182
442 194 445L210 446Q237 446 272 431L290 421Q320 406 333 398T358 375Q390 357 409 336T446 282L470 240L477 210Q469 208 458 199T446 189Q433 173 412 153T336 87Q296 57 281 41T262 22Q242 0 236 0Q233 -1 229 -1Z" />
</font>
</defs>
</svg>
