<?xml version="1.0" standalone="no"?>
<!DOCTYPE svg PUBLIC "-//W3C//DTD SVG 1.1//EN" "http://www.w3.org/Graphics/SVG/1.1/DTD/svg11.dtd">
<svg xmlns="http://www.w3.org/2000/svg">
<defs >
<font id="EBGaramond" horiz-adv-x="581" ><font-face
    font-family="EB Garamond ExtraBold"
    units-per-em="1000"
    panose-1="0 0 9 0 0 0 0 0 0 0"
    ascent="1007"
    descent="-298"
    alphabetic="0" />
<glyph unicode=" " glyph-name="space" horiz-adv-x="245" />
<glyph unicode="!" glyph-name="exclam" horiz-adv-x="305" d="M117 172T117 198Q117 209 120 225Q144 363 179 530Q189 579 217 614T285 649Q306 649 321 630T337 578Q337 549 322 508Q315 489 277 410T185 225Q172 199 161 186T137 172Q117 172 117 198ZM58
-14T40 3T22 45Q22 80 49 107T114 135Q144 135 161 116T179 71Q179 37 150 12T83 -14Q58 -14 40 3Z" />
<glyph unicode="&quot;" glyph-name="quotedbl" horiz-adv-x="413" d="M133 400T133 410Q133 419 137 429Q142 444 148 468L156 496Q162 515 174 566Q181 599 187 617Q194 641 230 660Q255 674 270 679T303 685Q312 685 316 679T320 663Q320 652 318 647Q305 603
262 539T182 432Q172 421 159 411T140 400Q133 400 133 410ZM301 400T301 410Q301 419 305 429Q310 444 316 468L324 496Q330 515 342 566Q349 599 355 617Q362 641 398 660Q423 674 438 679T471 685Q480 685 484 679T488 663Q488 652 486 647Q473 603 430 539T350
432Q340 421 327 411T308 400Q301 400 301 410Z" />
<glyph unicode="#" glyph-name="numbersign" horiz-adv-x="484" d="M-16 -96T-20 -90T-21 -77L-19 -72L58 85L0 83H-2Q-11 83 -15 89T-17 104Q-9 142 6 159T39 177L110 180L156 286L88 283H86Q77 283 73 289T70 304Q78 342 93 359T127 377L203 380L273 523Q284
550 327 550Q333 550 335 544T335 531Q334 528 333 527T331 523L263 383L382 387L454 534Q460 549 472 555T503 561Q509 561 511 555T512 542Q511 539 510 538T508 534L438 390L497 393H499Q511 393 516 387T519 371Q513 345 494 323T459 299L391 296L338 189L409
192H411Q423 192 428 186T431 170Q425 144 406 122T371 98L292 95L218 -56Q211 -71 204 -75T180 -80Q172 -80 167 -74T162 -61L163 -56L237 92L118 88L40 -72Q33 -86 21 -91T-9 -96Q-16 -96 -20 -90ZM283 186L335 293L217 289L164 182L283 186Z" />
<glyph unicode="$" glyph-name="dollar" horiz-adv-x="564" d="M643 648T646 645T650 637Q650 632 645 624Q626 600 603 550T568 460Q565 448 560 443T545 437Q534 437 530 447T525 481Q525 526 508 560T459 613L372 405L394 387Q455 338 478 295T502 199Q502
146 470 97T377 17T237 -14Q209 -14 195 -13L166 -82Q164 -89 153 -92T128 -96Q108 -96 108 -78Q108 -71 111 -63L136 -4Q112 2 100 7Q68 20 61 20Q48 20 34 12Q14 0 8 0Q2 0 -7 8T-17 24Q-17 27 -4 59Q31 137 39 191Q42 210 48 218T66 226Q80 226 84 212T88 158Q88
123 105 90T154 39L251 268L238 279Q184 324 161 365T138 465Q138 520 170 565T261 637T392 664Q409 664 417 663L434 703Q438 713 453 719T486 725Q499 725 499 713Q499 704 493 692L477 655Q513 646 519 644Q525 642 544 637T578 631Q594 631 605 637Q625 648
636 648Q643 648 646 645ZM402 628H400Q364 628 339 613T301 573T288 524Q288 501 296 484T325 446L402 628ZM349 157T338 177T296 227L210 23H218Q277 23 313 55T349 133Q349 157 338 177Z" />
<glyph unicode="%" glyph-name="percent" horiz-adv-x="750" d="M149 263T121 292T93 377Q93 417 109 468Q129 529 181 572T300 616Q346 616 372 587T399 504Q399 468 385 420Q363 348 311 306T195 263Q149 263 121 292ZM220 297T243 335T280 423Q306 506 306
551Q306 582 291 582Q272 582 249 543T210 450Q185 372 185 330Q185 297 202 297Q220 297 243 335ZM94 -19T88 -13T81 2Q81 11 87 17L696 653Q703 661 717 665T746 669Q757 669 763 664T770 651Q770 645 765 640L159 8Q135 -19 105 -19Q94 -19 88 -13ZM462 -17T434
12T406 97Q406 137 422 188Q442 249 494 292T613 336Q659 336 685 307T712 224Q712 188 698 140Q676 68 624 26T508 -17Q462 -17 434 12ZM533 17T556 55T593 143Q619 226 619 271Q619 302 604 302Q585 302 562 263T523 170Q498 92 498 50Q498 17 515 17Q533 17
556 55Z" />
<glyph unicode="&amp;" glyph-name="ampersand" horiz-adv-x="859" d="M870 718T900 686T930 591Q930 547 912 509T861 448T788 422Q761 421 755 418T752 409Q779 366 779 304Q779 206 733 135T606 25T419 -14Q326 -14 250 19T129 113T85 250Q85 305 103 353T156
438Q141 477 141 526Q141 579 170 623T248 692T357 718Q414 718 447 688T481 607Q481 580 466 564T426 547Q412 547 399 560T386 587Q386 610 370 629T333 648Q274 648 240 616T205 525Q205 508 207 480Q257 508 311 508Q369 507 398 482T427 416Q427 378 394 350T314
321Q274 321 240 338T181 389Q167 355 167 312Q167 259 198 215T293 143T453 115Q536 115 597 142T691 215T723 320Q723 367 691 399T598 432Q562 432 535 408T507 353Q507 334 522 322T560 310Q567 310 573 314T584 325T593 334Q602 343 609 348T626 353Q651 353
664 340T677 307Q677 275 655 255T600 234Q539 234 501 266T463 350Q463 437 515 480T650 523H730Q815 523 850 546T885 624Q885 650 869 665T832 681Q817 681 810 676T802 664Q802 653 817 641Q835 628 835 606Q835 585 819 569T777 553Q750 553 734 572T718 618Q718
657 746 687T825 718Q870 718 900 686ZM254 471T216 438Q240 365 312 365Q341 365 358 380T376 419Q376 441 359 456T312 471Q254 471 216 438Z" />
<glyph unicode="&apos;" glyph-name="quotesingle" horiz-adv-x="245" d="M133 400T133 410Q133 419 137 429Q142 444 148 468L156 496Q162 515 174 566Q181 599 187 617Q194 641 230 660Q255 674 270 679T303 685Q312 685 316 679T320 663Q320 652 318 647Q305
603 262 539T182 432Q172 421 159 411T140 400Q133 400 133 410Z" />
<glyph unicode="(" glyph-name="parenleft" horiz-adv-x="298" d="M95 -215T71 -169Q50 -129 38 -64T26 74Q26 198 67 315T186 530T369 692Q395 706 414 706Q424 706 430 703T436 692Q436 683 421 671Q328 601 258 495T150 266T112 22Q112 -29 118 -66T137 -144Q146
-178 146 -188Q146 -199 140 -207T125 -215Q95 -215 71 -169Z" />
<glyph unicode=")" glyph-name="parenright" horiz-adv-x="298" d="M224 706T248 660Q269 620 281 555T293 417Q293 293 252 176T133 -39T-50 -201Q-76 -215 -95 -215Q-105 -215 -111 -212T-117 -201Q-117 -192 -102 -180Q-9 -110 61 -4T169 225T207 469Q207 520
201 557T182 635Q173 669 173 679Q173 690 179 698T194 706Q224 706 248 660Z" />
<glyph unicode="*" glyph-name="asterisk" horiz-adv-x="364" d="M221 352T213 362T204 388Q204 393 206 401Q211 424 223 468Q212 469 152 462Q134 460 121 468T108 490Q108 505 118 515T140 527L206 542Q203 549 188 566L164 598Q155 612 155 625Q155 638 164
647T186 657Q204 657 216 642Q246 608 262 592Q273 625 289 656Q302 682 324 682Q338 682 346 672T355 646Q355 641 353 633L333 568Q335 568 357 572Q397 579 409 579Q426 579 435 572T445 552Q445 539 437 528T415 513L349 495Q357 484 368 472Q388 450 393 443Q405
429 405 414Q405 402 396 393T375 384Q356 384 344 396Q336 405 295 443Q293 440 292 435T287 423Q276 391 268 376Q263 366 255 359T236 352Q221 352 213 362Z" />
<glyph unicode="+" glyph-name="plus" horiz-adv-x="599" d="M289 -12T285 -7T281 5V206Q281 219 268 219H57Q50 219 45 223T40 232Q40 247 47 264T69 282H267Q276 282 278 285T281 296V478Q281 491 297 501T328 512Q335 512 339 505T344 489V296Q344 282 357
282H561Q570 282 577 278T584 266Q584 252 574 236T550 219H357Q344 219 344 206V17Q344 3 327 -4T294 -12Q289 -12 285 -7Z" />
<glyph unicode="," glyph-name="comma" horiz-adv-x="280" d="M-61 -166T-67 -161T-70 -147Q-64 -130 -40 -127Q1 -122 33 -95T65 -36Q65 -13 35 -4Q23 0 15 10T7 35Q7 69 31 94T91 119Q129 119 153 95T178 31Q178 -13 146 -59T60 -136T-49 -166Q-61 -166 -67 -161Z" />
<glyph unicode="-" glyph-name="hyphen" horiz-adv-x="333" d="M28 163Q17 163 17 174Q17 200 31 217T61 238Q187 258 304 267H306Q314 267 316 263T318 249Q318 236 305 216T279 194Q114 171 30 163H28Z" />
<glyph unicode="." glyph-name="period" horiz-adv-x="280" d="M42 -34T22 -13T2 35Q2 77 33 109T106 141Q139 141 158 118T178 66Q178 26 146 -4T70 -34Q42 -34 22 -13Z" />
<glyph unicode="/" glyph-name="slash" horiz-adv-x="277" d="M-55 -59T-61 -52T-63 -38L330 645Q340 664 367 664L379 663Q392 662 397 654T399 639L4 -44Q-3 -55 -14 -58T-44 -60Q-55 -59 -61 -52Z" />
<glyph unicode="0" glyph-name="zero" horiz-adv-x="540" d="M168 -14T124 38T79 177Q79 235 100 302Q129 395 183 469T309 587T461 631Q543 631 587 579T631 440Q631 378 611 317Q581 220 525 145T397 28T249 -14Q168 -14 124 38ZM319 29T362 106T442 299Q478
414 478 497Q478 538 467 561T433 585Q391 585 348 509T269 319Q252 265 243 212T233 118Q233 76 244 53T278 29Q319 29 362 106Z" />
<glyph unicode="1" glyph-name="one" horiz-adv-x="540" d="M38 -3T34 1T31 12Q35 29 56 34Q105 45 126 57T157 97L265 445Q269 458 269 470Q269 493 253 504T207 522Q188 526 188 539Q188 554 200 563T229 573Q347 580 466 631Q480 637 484 637Q492 637 495 634T496
625L488 604Q476 577 468 552L327 98Q324 89 324 82Q324 66 338 56T387 34Q405 29 405 18Q405 9 397 4T379 -2L292 0L210 2Q191 2 131 0Q83 -3 44 -3Q38 -3 34 1Z" />
<glyph unicode="2" glyph-name="two" horiz-adv-x="540" d="M376 -4T361 -3Q262 0 229 0Q168 0 12 -3H-15Q-21 -3 -21 0Q-21 5 -8 18L217 202Q314 281 350 337T387 449Q387 494 364 515T304 537Q268 537 242 521T184 474Q180 469 173 460T160 451Q149 451 149
470Q149 503 180 542T263 607T372 634Q451 634 498 599T545 507Q545 453 512 405T417 302Q387 276 259 182Q175 120 174 117Q173 113 187 111Q212 107 268 107Q328 107 364 111Q429 119 473 175Q479 183 489 189T509 196Q518 196 518 187Q518 179 514 174Q486 133
456 82T420 18Q417 9 407 3T392 -4Q376 -4 361 -3Z" />
<glyph unicode="3" glyph-name="three" horiz-adv-x="540" d="M59 -38T32 -26T4 9Q4 33 14 48T40 63Q47 63 62 55T81 44Q125 18 157 18Q198 18 230 46T281 119T299 211Q299 245 284 265T237 286Q208 286 189 276T165 263Q157 261 154 261Q139 261 139 276Q139
293 155 305T205 334Q283 374 327 410T371 492Q371 519 355 539T312 559Q250 559 201 481Q196 474 190 470T180 466Q173 466 166 477T158 499Q158 512 185 544T261 603T376 629Q421 629 453 614T502 574T518 521Q518 470 461 427T327 355Q323 353 323 351T326 349Q362
349 395 334T448 291T469 231Q469 177 422 124T296 26Q243 -4 198 -21T109 -38Q59 -38 32 -26Z" />
<glyph unicode="4" glyph-name="four" horiz-adv-x="540" d="M392 -3T388 1T385 12Q391 29 411 34Q453 43 470 55T496 97L510 142L511 146Q511 156 497 156Q471 156 389 152Q303 148 266 148Q263 148 261 151T259 160Q259 165 262 168L279 184Q294 197 302 207L668
605Q682 620 699 631T728 642H755Q757 642 757 640Q757 636 752 629T745 620L411 258Q405 252 405 248Q405 243 415 243H534Q537 243 539 245T543 249L578 363Q584 382 589 389T608 401Q637 413 670 418T725 423Q736 423 740 419T745 404Q745 391 731 344L699 243Q698
241 699 239T702 236Q719 235 737 235Q746 235 794 237Q799 237 802 235T804 230Q801 217 782 185T757 153L711 154Q694 154 685 153Q677 151 673 149T667 139L654 98Q649 83 649 75Q649 60 660 52T700 34Q707 31 710 29T713 20Q713 9 707 4T691 -2Q669 -2 615
0Q563 2 544 2Q526 2 474 0Q435 -3 398 -3Q392 -3 388 1Z" />
<glyph unicode="5" glyph-name="five" horiz-adv-x="540" d="M29 -38T14 -21T-2 18Q-2 31 3 40T15 49Q24 49 31 46T48 35Q69 22 79 18Q91 13 101 11T129 9Q208 9 258 50T309 161Q309 205 279 239T179 309Q171 313 157 320T138 332T133 345Q133 353 136 363Q145
389 222 524L233 543Q257 586 300 595Q340 603 426 616T527 630Q536 630 540 625T544 608Q544 594 531 565T497 513T449 488Q428 486 341 484Q316 483 294 482T258 480Q248 479 240 469T230 451L229 447Q229 443 236 439Q333 405 395 354T457 236Q457 158 403 96T257
-2T61 -38Q29 -38 14 -21Z" />
<glyph unicode="6" glyph-name="six" horiz-adv-x="540" d="M143 -14T98 37T52 175Q52 281 133 389T339 572T579 661Q587 662 602 662Q632 662 632 651Q632 640 627 635T600 625Q516 605 421 525T260 340T194 150Q194 88 210 59T267 29Q314 29 344 71T374 191Q374
228 355 250T309 272Q294 272 276 265Q267 261 259 261Q251 261 251 267Q251 275 267 293Q292 320 326 337T391 354Q445 354 478 321T511 230Q511 181 478 124T383 26T237 -14Q143 -14 98 37Z" />
<glyph unicode="7" glyph-name="seven" horiz-adv-x="540" d="M78 -29T68 -20T58 4Q58 10 66 20T86 41Q90 45 94 49T101 57L461 472Q466 477 466 481Q466 486 455 486H253Q227 486 211 479T172 450Q157 435 144 425T116 415Q102 415 102 426Q102 437 116 458L142
508Q156 534 168 560T186 604Q189 615 198 619T216 622L236 621Q272 617 313 616L497 614Q593 614 641 617Q646 617 651 609T654 594Q653 590 642 578T628 563Q619 554 612 546T597 529L125 4Q121 0 108 -14T92 -29Q78 -29 68 -20Z" />
<glyph unicode="8" glyph-name="eight" horiz-adv-x="540" d="M122 -13T76 26T27 123Q27 172 51 204T110 255T210 303Q219 307 219 310Q219 312 212 321Q174 368 157 396T139 451Q139 496 174 537T266 604T385 629Q434 629 469 613T523 571T541 516Q541 481 510
441T432 377Q405 364 385 353Q383 352 378 349T373 343Q373 341 376 338T382 332Q430 281 451 247T472 171Q472 126 433 84T332 14T203 -13Q122 -13 76 26ZM384 397T404 440T424 521Q424 589 360 589Q322 589 300 564T277 493Q277 463 292 432T334 375Q340 369
344 369Q348 369 355 374Q384 397 404 440ZM260 25T290 55T320 136Q320 196 260 271Q259 273 256 277T248 281Q246 281 233 273Q189 240 170 201T150 110Q150 80 168 53T219 25Q260 25 290 55Z" />
<glyph unicode="9" glyph-name="nine" horiz-adv-x="542" d="M65 -14T50 -14Q20 -14 20 -3Q20 8 25 13T52 23Q150 47 243 116T396 285T455 492Q455 535 435 560T374 586Q326 586 295 541T264 430Q264 392 285 367T332 342Q348 342 365 349Q378 354 383 354Q390
354 390 348Q390 339 375 324Q355 304 334 290Q287 260 250 260Q195 260 163 290T130 377Q130 428 172 487T283 588T429 629Q473 629 508 606T562 544T582 460Q582 370 510 264T320 80T73 -13Q65 -14 50 -14Z" />
<glyph unicode=":" glyph-name="colon" horiz-adv-x="280" d="M127 242T107 263T87 311Q87 353 118 385T191 417Q224 417 243 394T263 342Q263 302 231 272T155 242Q127 242 107 263ZM42 -34T22 -13T2 35Q2 77 33 109T106 141Q139 141 158 118T178 66Q178 26 146
-4T70 -34Q42 -34 22 -13Z" />
<glyph unicode=";" glyph-name="semicolon" horiz-adv-x="280" d="M-61 -166T-67 -161T-70 -147Q-64 -130 -40 -127Q1 -122 33 -95T65 -36Q65 -13 35 -4Q23 0 15 10T7 35Q7 69 31 94T91 119Q129 119 153 95T178 31Q178 -13 146 -59T60 -136T-49 -166Q-61 -166
-67 -161ZM127 242T107 263T87 311Q87 353 118 385T191 417Q224 417 243 394T263 342Q263 302 231 272T155 242Q127 242 107 263Z" />
<glyph unicode="&lt;" glyph-name="less" horiz-adv-x="600" d="M85 188Q35 212 35 220Q35 230 47 248T75 272L498 467Q504 470 510 470Q518 470 522 464T527 447Q527 432 517 419T490 397L137 239Q133 237 133 234T137 229L490 72Q507 64 517 51T527 22Q527 7
520 1T503 0L85 188Z" />
<glyph unicode="=" glyph-name="equal" horiz-adv-x="643" d="M58 316T53 320T48 329Q48 342 55 358T76 374H598Q608 374 614 370T621 358Q621 345 611 331T589 316H64Q58 316 53 320ZM58 133T53 137T48 146Q48 159 55 175T76 191H598Q608 191 614 187T621 175Q621
162 611 148T589 133H64Q58 133 53 137Z" />
<glyph unicode="&gt;" glyph-name="greater" horiz-adv-x="600" d="M79 3T77 3Q71 3 66 9T61 27Q61 42 71 55T98 77L451 234Q456 236 456 239T451 244L98 402Q81 410 71 423T61 452Q61 476 78 476Q81 476 85 474L502 282Q521 274 537 265T554 250Q554 241 542
223T512 197L85 5Q79 3 77 3Z" />
<glyph unicode="?" glyph-name="question" horiz-adv-x="404" d="M160 177T146 189T120 221T109 261Q109 300 120 329T167 383T270 429Q386 462 386 521Q386 548 369 564T314 580Q300 580 282 571T258 558Q255 556 241 550T216 543Q197 543 185 555T174 588Q174
621 202 641T271 661Q312 661 348 637T407 569T430 467Q430 427 399 388T321 330L227 293Q201 283 192 273T182 245Q182 230 185 216Q186 210 189 202T192 189Q192 177 168 177Q160 177 146 189ZM106 -14T89 3T72 45Q72 81 99 108T161 136Q190 136 206 117T223
72Q223 38 195 12T130 -14Q106 -14 89 3Z" />
<glyph unicode="@" glyph-name="at" horiz-adv-x="800" d="M212 -158T147 -128T45 -42T8 86Q8 209 82 314T276 481T529 543Q602 543 662 514T757 434T792 320Q792 245 749 176T638 65T499 22Q469 22 455 36T441 67Q441 80 437 80Q434 80 429 76T423 71Q399 52
361 35T281 17Q229 17 198 46T166 123Q166 194 212 257T332 357T487 390Q514 388 535 383Q547 381 555 378T570 374Q575 373 580 377T589 386Q601 398 608 398Q617 398 635 395T653 386Q638 365 621 335T594 285L525 146Q516 126 516 114Q516 94 542 94Q588 94
627 124T689 204T712 312Q712 391 659 436T509 481Q406 481 309 430T150 294T88 114Q88 53 117 5T198 -69T318 -96Q385 -96 448 -79T564 -31Q577 -24 589 -18T610 -12Q616 -12 620 -16T625 -29Q625 -47 575 -78T449 -134T294 -158Q212 -158 147 -128ZM349 75T367
83T400 105Q412 115 421 126T440 157L493 264Q504 288 504 303Q504 345 439 345Q397 345 360 314T300 235T277 144Q277 113 294 94T333 75Q349 75 367 83Z" />
<glyph unicode="A" glyph-name="A" horiz-adv-x="766" d="M-68 -5T-68 8Q-68 28 -40 34Q-4 42 34 58T93 98L476 532Q497 557 518 594Q520 597 526 607T536 621T543 625Q605 625 640 644L658 654Q685 672 697 672Q710 672 710 642Q710 623 706 606L608 112Q606
100 606 95Q606 72 622 58T671 34Q685 30 691 26T697 13Q697 6 687 2T666 -2Q645 -2 589 0Q531 2 507 2Q487 2 431 0Q385 -3 347 -3Q339 -3 334 0T329 11Q329 19 337 25T356 34Q392 42 411 56T436 97L466 219Q467 221 467 224Q467 236 453 236H292Q279 236 266
219L204 140Q172 99 172 76Q172 60 184 50T222 34Q232 31 239 26T247 13Q247 6 237 2T215 -2Q192 -2 150 0L91 1Q61 1 25 -2Q12 -3 -5 -4T-45 -5Q-68 -5 -68 8ZM465 284Q473 284 477 286T482 295L529 514Q531 520 531 525T528 530Q523 530 516 523L332 302Q324
292 324 289Q324 284 342 284H465Z" />
<glyph unicode="B" glyph-name="B" horiz-adv-x="639" d="M-39 -5T-43 -2T-48 7Q-48 14 -40 21T-20 32Q19 43 34 54T59 95L201 551Q207 568 207 578Q207 594 196 602T161 618Q146 622 146 633Q146 642 153 648T172 655Q208 655 250 651Q288 647 312 647Q341 647
370 650Q416 654 460 654Q552 654 601 621T651 526Q651 469 597 424T467 363Q463 362 462 358T464 353Q596 308 596 198Q596 90 504 43T259 -4Q233 -4 187 -2Q139 0 113 0Q78 0 39 -3Q-13 -5 -32 -5Q-39 -5 -43 -2ZM372 362T389 367T428 382Q463 411 485 450T507
539Q507 573 486 599T436 626Q414 626 402 618T383 589L322 390Q320 382 320 380Q320 362 352 362Q372 362 389 367ZM311 36T347 67T405 143T427 230Q427 272 406 300T346 328Q322 328 311 323T295 304L231 99Q227 83 227 73Q227 61 231 54Q236 45 247 38T272 30Q311
36 347 67Z" />
<glyph unicode="C" glyph-name="C" horiz-adv-x="673" d="M241 -14T183 21T91 117T57 253Q57 370 118 464T283 611T513 664Q544 664 569 659T622 644Q628 642 645 637T675 631Q690 631 701 637Q719 648 731 648Q744 648 744 637Q744 632 739 624Q721 600 698 547T663
452Q660 441 655 435T639 429Q619 429 622 481Q625 525 599 567Q583 594 560 610T511 627Q427 627 362 556T261 380T225 176Q225 27 353 27Q461 27 573 172Q577 178 582 185T590 195T599 199Q608 199 613 191T615 172Q600 117 572 54T530 -9Q520 -9 513 -5T504
2Q490 11 465 11Q452 11 434 6T408 -1Q356 -14 314 -14Q241 -14 183 21Z" />
<glyph unicode="D" glyph-name="D" horiz-adv-x="729" d="M238 -7T156 1Q122 4 106 4Q86 4 67 3T33 1Q-25 -3 -48 -3Q-55 -3 -59 1T-61 12Q-55 29 -35 34Q7 43 24 55T50 97L191 551Q196 569 196 579Q196 595 185 602T145 618Q127 623 133 640Q135 646 142 650T156
655Q192 655 233 652Q285 650 304 650Q319 650 357 652Q409 654 454 654Q544 654 609 618T708 520T742 385Q742 282 683 192T522 47T303 -7Q238 -7 156 1ZM367 31T429 86T529 227T568 402Q568 514 533 564T434 615Q405 615 389 605T365 572L230 119Q226 106 226
92Q226 61 249 46T302 31Q367 31 429 86Z" />
<glyph unicode="E" glyph-name="E" horiz-adv-x="572" d="M-52 -5T-55 -2T-59 7Q-59 14 -52 21T-33 32Q6 43 22 54T47 95L188 551Q193 566 193 580Q193 595 183 603T149 618Q138 621 134 627T132 639Q137 655 176 655Q197 655 227 652Q240 651 259 650T302 649L468
650Q529 650 562 656T602 663Q610 663 616 657T622 641Q622 628 611 589Q596 531 596 509Q596 500 591 495T580 489Q575 489 570 493T564 506Q556 567 542 590T491 614H423Q397 614 381 597T350 532L306 379Q304 371 304 369Q304 355 324 355H408Q433 355 451 370T488
417Q493 425 500 430T515 435Q518 435 520 432T523 424Q523 420 520 412Q497 357 489 329Q481 303 468 246Q461 218 449 218Q441 218 436 225T432 242Q437 311 402 311H305Q283 311 276 288L226 115Q221 100 221 83Q221 38 280 38H352Q371 38 392 45T432 64Q448
74 461 91T497 141Q501 149 511 163Q516 171 519 173T529 175Q535 175 537 170T540 152Q540 134 521 85T482 8Q473 -4 454 -4L411 -3Q192 0 100 0Q66 0 27 -3Q-27 -5 -45 -5Q-52 -5 -55 -2Z" />
<glyph unicode="F" glyph-name="F" horiz-adv-x="541" d="M-41 -3T-45 1T-47 12Q-41 29 -21 34Q20 42 37 54T64 97L205 551Q211 569 211 581Q211 595 202 603T171 617Q145 623 151 639Q156 655 183 655Q200 655 248 653Q286 650 318 650H478Q551 650 606 661Q624
664 634 664Q643 664 649 659T653 643L647 619Q644 605 638 590Q620 533 614 498Q613 489 609 484T598 478Q586 478 586 495Q584 548 567 579Q545 615 500 616L450 617Q425 618 406 605T379 569L323 383Q321 377 321 373Q321 351 369 351H396Q429 351 454 366T498
411Q504 420 511 424T525 429Q532 429 532 418Q532 411 530 406Q497 326 483 257Q480 243 475 236T464 229Q457 229 453 235T448 253Q448 284 440 296T413 309H327Q311 309 301 301T288 281L234 98Q230 80 230 75Q230 56 246 47T303 34Q316 32 316 21Q316 10 310
4T294 -2L203 0L118 2Q99 2 45 0Q3 -3 -34 -3Q-41 -3 -45 1Z" />
<glyph unicode="G" glyph-name="G" horiz-adv-x="734" d="M247 -14T185 17T87 106T52 242Q52 297 72 363Q97 445 161 514T318 623T520 664Q551 664 576 659T629 644Q635 642 652 637T682 631Q697 631 708 637Q726 648 738 648Q751 648 751 637Q751 632 746 624Q728
600 706 551T672 460Q669 449 664 443T648 437Q626 437 629 481Q630 489 630 504Q630 552 610 582Q596 602 570 615T514 628Q427 628 349 548T220 306Q204 255 204 207Q204 125 247 74T360 23Q394 23 421 46T459 103L493 215Q495 223 495 227Q495 243 478 251Q464
258 443 263T416 269Q397 275 397 287Q397 296 405 301T424 307Q440 307 467 305T508 302Q555 297 584 297Q599 297 637 301Q697 306 725 306Q741 306 736 291Q733 282 727 277T711 270Q680 263 666 253T641 221Q628 196 615 162T601 117Q601 106 606 97T623 77Q612
55 559 34T440 0T328 -14Q247 -14 185 17Z" />
<glyph unicode="H" glyph-name="H" horiz-adv-x="786" d="M-40 -3T-44 1T-46 12Q-40 29 -20 34Q17 43 33 55T59 97L200 551Q205 566 205 580Q205 595 195 603T160 618Q142 623 148 640Q150 646 157 650T171 655Q208 655 245 652Q295 650 313 650L389 652Q447 654
470 654Q486 654 481 639Q478 630 473 626T455 618Q410 605 394 593T369 550L314 369Q313 367 313 363Q313 354 325 354H552Q567 354 571 369L626 550Q631 568 631 576Q631 590 621 598T582 618Q575 621 572 623T569 632Q569 643 575 648T591 654Q614 654 670 652Q726
650 744 650Q762 650 814 652Q853 655 890 655Q897 655 901 651T903 640Q897 623 877 618Q839 609 823 596T797 551L656 97Q651 80 651 71Q651 56 661 48T697 34Q715 29 709 12Q707 6 700 2T686 -3Q667 -3 617 -1Q578 2 544 2L468 0Q410 -2 387 -2Q372 -2 376 13Q379
22 384 26T402 34Q445 46 461 58T486 98L544 289Q546 295 546 298Q546 306 536 306H309Q292 306 287 289L229 98Q225 86 225 76Q225 62 236 54T275 34Q282 31 285 29T288 20Q288 9 282 4T266 -2Q243 -2 187 0Q131 2 113 2Q79 2 38 -1Q-14 -3 -33 -3Q-40 -3 -44
1Z" />
<glyph unicode="I" glyph-name="I" horiz-adv-x="381" d="M-40 -3T-44 1T-46 12Q-40 29 -20 34Q22 43 39 55T65 97L206 551Q211 569 211 579Q211 594 200 602T160 618Q142 623 148 640Q150 646 157 650T171 655Q207 655 248 652Q300 650 319 650L395 652Q453 654
476 654Q492 654 487 639Q484 630 479 626T461 618Q416 605 400 593T375 550L249 142Q233 89 233 74Q233 59 241 52T272 39Q292 34 299 30T306 19Q306 9 300 4T284 -2L199 0L119 2Q100 2 46 0Q4 -3 -33 -3Q-40 -3 -44 1Z" />
<glyph unicode="J" glyph-name="J" horiz-adv-x="397" d="M-138 -200T-170 -185T-203 -142Q-203 -111 -192 -90T-162 -69Q-150 -69 -136 -80T-97 -114Q-71 -138 -56 -149T-27 -161Q-4 -161 14 -121T65 25L228 551Q233 569 233 579Q233 594 222 602T183 618Q165
623 171 640Q172 646 179 650T193 655Q230 655 271 652Q323 650 342 650Q361 650 417 652Q477 654 498 654Q514 654 509 639Q506 630 501 626T484 618Q439 606 423 593T398 550L244 52Q231 9 197 -38T117 -124Q75 -159 29 -179T-64 -200Q-138 -200 -170 -185Z"
/>
<glyph unicode="K" glyph-name="K" horiz-adv-x="776" d="M-33 -6T-41 -1T-47 12Q-41 29 -15 34Q25 41 40 53T65 97L205 551Q210 569 210 579Q210 594 199 602T160 618Q147 621 147 633Q147 642 156 648T180 655L244 653Q284 650 319 650Q338 650 394 652Q454
654 475 654Q489 654 489 643Q489 632 482 627T461 618Q416 606 400 593T375 550L320 372Q319 369 319 365Q319 360 322 358T335 356Q377 356 426 405L573 548Q589 564 595 571T601 586Q601 594 588 602T560 613Q547 615 543 619T538 633Q538 642 545 646T562 651H642L736
652Q806 654 849 654Q871 654 871 639Q871 631 859 625T835 618Q782 614 745 600T674 557Q535 444 472 381Q459 368 459 359Q459 355 462 349Q539 181 612 98Q646 59 697 39Q714 32 723 27T732 14Q732 -5 694 -5Q671 -5 646 -4T608 -2Q574 1 540 1Q516 1 470 -1L405
-2Q397 -2 390 3T382 14Q382 32 414 38Q435 42 435 62Q435 74 425 101L343 282Q325 321 312 321Q302 321 299 311L237 98Q231 74 231 69Q231 57 240 49T274 34Q285 30 289 27T294 16Q294 7 283 2T259 -4Q232 -4 172 1Q162 2 149 3T119 4Q105 4 67 0Q19 -6 -24 -6Q-33
-6 -41 -1Z" />
<glyph unicode="L" glyph-name="L" horiz-adv-x="578" d="M-35 -5T-38 -2T-42 7Q-42 14 -35 21T-16 32Q23 43 39 54T64 95L205 551Q210 569 210 579Q210 594 199 602T160 618Q144 622 148 640Q149 646 156 650T170 655Q207 655 248 652Q300 650 319 650Q338 650
394 652Q454 654 475 654Q491 654 486 639Q483 630 478 626T461 618Q416 606 400 593T375 550L253 154Q239 109 239 81Q239 58 249 49T279 40H305Q383 40 437 75Q489 110 524 184Q528 193 534 198T546 204Q551 204 554 198T558 184Q558 155 536 99T495 14Q494 13
491 7T483 -2T472 -5L382 -4Q226 0 117 0Q83 0 44 -3Q-10 -5 -28 -5Q-35 -5 -38 -2Z" />
<glyph unicode="M" glyph-name="M" horiz-adv-x="987" d="M346 -14T341 -8T336 9Q336 111 331 209T315 448Q315 455 310 455Q307 455 303 451T295 441Q218 289 176 168Q159 121 159 88Q159 45 197 34Q207 31 213 28T219 17Q219 8 209 3T189 -2Q158 -2 130 0L87
1Q58 1 21 0T-28 -3Q-48 -3 -48 8Q-48 16 -43 19T-29 25T-14 30Q15 40 32 51T70 87T113 161L276 494Q298 540 298 562Q298 585 278 599T211 624Q197 628 192 631T186 643Q186 652 196 655T221 658L311 656Q371 653 419 653Q444 653 452 639T461 598Q461 588 460
573T460 548L475 229Q477 216 483 216Q487 216 494 223Q611 340 768 573Q771 578 775 583T782 594Q805 626 811 637Q820 650 832 650H882Q907 650 974 655Q987 656 1001 657T1031 658Q1043 658 1048 655T1054 644Q1054 627 999 613Q965 604 946 582T916 522Q863
322 818 98Q817 94 817 87Q817 51 870 34Q887 28 887 19Q887 9 880 4T862 -2Q839 -2 779 0L701 2Q683 2 629 0Q587 -3 550 -3Q541 -3 536 1T533 12Q539 29 562 34Q605 44 622 56T648 97Q675 189 719 369L733 426L734 429Q734 431 733 431Q730 431 723 424L474 137L378
5Q373 -2 366 -8T352 -14Q346 -14 341 -8Z" />
<glyph unicode="N" glyph-name="N" horiz-adv-x="783" d="M888 652T888 637Q888 626 854 619Q827 614 811 604T782 572T755 505Q721 396 704 336L650 158Q641 131 641 114Q641 95 656 69Q658 65 665 53T679 34Q683 30 690 25T698 16Q698 7 693 4T676 0Q636 0 604
-5Q596 -6 582 -7T555 -8Q527 -8 513 5T485 52Q473 83 417 218T335 414L305 486Q304 489 302 492T297 496Q292 496 289 487T284 477Q254 407 215 293T162 113Q158 91 158 85Q158 64 171 54T220 34Q241 28 241 18Q241 9 231 4T211 -2Q177 -2 149 0L115 1Q86 1 50
0T3 -3Q-4 -3 -10 1T-15 12Q-11 25 16 33Q46 40 66 60T100 115L251 510Q261 536 261 556Q261 586 238 601T168 620Q141 623 141 642Q141 648 152 653T174 658L254 656Q275 655 305 654T372 653Q397 653 408 631L599 199Q604 187 609 187Q616 187 621 201Q633 231
657 317T698 490Q704 519 704 540Q704 577 684 595T620 621Q604 624 604 634Q604 641 612 646T630 651Q671 651 715 647L745 645Q763 645 776 646T799 648Q841 652 869 652Q888 652 888 637Z" />
<glyph unicode="O" glyph-name="O" horiz-adv-x="692" d="M225 -14T171 18T85 109T53 242Q53 351 109 448T262 605T470 664Q537 664 591 632T678 541T710 408Q710 299 653 202T500 45T292 -14Q225 -14 171 18ZM355 25T417 101T519 285T559 473Q559 540 536 584T469
629Q405 629 344 552T243 366T203 176Q203 109 225 67T291 25Q355 25 417 101Z" />
<glyph unicode="P" glyph-name="P" horiz-adv-x="637" d="M-34 -3T-39 1T-45 12Q-45 27 -14 34Q28 43 45 55T71 97L212 551Q217 569 217 578Q217 594 206 603T169 618Q158 621 152 627T147 639Q149 645 159 650T179 655Q199 655 245 653Q280 650 310 650Q329 650
359 653Q413 657 458 657Q526 657 575 634T651 569T678 475Q678 405 639 349T530 261T375 229Q349 229 339 234T329 252Q329 264 351 268L390 275Q434 283 465 314T512 388T528 474Q528 557 503 585T433 614Q421 614 414 609T397 586T376 529L242 98Q238 82 238
78Q238 60 253 51T304 34Q326 28 326 13Q326 6 315 2T292 -2L206 0L125 2Q106 2 52 0Q10 -3 -27 -3Q-34 -3 -39 1Z" />
<glyph unicode="Q" glyph-name="Q" horiz-adv-x="703" d="M749 -118T759 -118Q765 -118 768 -123T772 -136Q772 -142 769 -149Q757 -178 725 -211T652 -267T571 -290Q520 -290 467 -268T333 -204Q268 -169 225 -151T145 -133Q113 -133 90 -142Q83 -145 78 -147T68
-152Q50 -162 43 -162Q35 -162 30 -157T25 -144Q25 -127 66 -106T184 -54Q253 -26 276 -14H277Q214 -10 163 23T83 113T53 242Q53 351 109 448T262 605T470 664Q537 664 591 632T678 541T710 408Q710 296 641 199T453 29Q402 -2 365 -21T282 -59Q287 -58 297 -58Q329
-58 371 -74T476 -121L496 -131Q552 -159 586 -172T644 -186Q699 -186 734 -137Q749 -118 759 -118ZM338 25Q559 184 559 473Q559 547 538 583T470 620Q404 620 343 548T242 370T203 176Q203 108 229 67T322 25H338Z" />
<glyph unicode="R" glyph-name="R" horiz-adv-x="773" d="M-30 -3T-34 1T-37 12Q-31 29 -11 34Q31 42 48 54T75 97L218 555Q223 573 223 582Q223 597 213 604T176 618Q148 625 148 639Q148 646 161 650T186 655Q221 655 265 651Q303 647 327 647Q347 647 383 651Q429
657 474 657Q572 657 620 616T668 508Q668 443 617 395T492 331Q488 330 487 326T488 319Q510 267 551 184Q569 150 578 131Q595 95 622 73T682 51Q697 51 707 46T718 28Q718 16 705 10T662 2T571 0Q493 0 457 26T405 100Q377 186 356 268Q347 300 322 300Q308
300 301 280L245 98Q241 86 241 76Q241 59 255 51T303 34Q312 32 315 27T316 13Q310 -2 295 -2L209 0L128 2Q110 2 56 0Q14 -3 -23 -3Q-30 -3 -34 1ZM426 328T468 381T510 524Q510 565 490 593T441 622Q427 622 420 617T404 594T381 532L329 366Q326 357 326 350Q326
328 353 328Q426 328 468 381Z" />
<glyph unicode="S" glyph-name="S" horiz-adv-x="539" d="M144 -14T95 7Q64 20 58 20Q46 20 32 12Q12 0 7 0Q1 0 -8 8T-17 24Q-17 31 -4 59Q30 138 37 191Q40 210 46 218T65 226Q78 226 82 212T86 158Q86 106 118 68T209 29Q266 29 298 59T331 134Q331 156 323
174T294 216T228 279Q176 324 154 365T132 465Q132 520 163 565T250 637T376 664Q434 664 498 644Q505 642 523 637T555 631Q570 631 581 637Q599 648 611 648Q624 648 624 637Q624 632 619 624Q601 600 579 551T545 460Q542 449 537 443T521 437Q511 437 507 447T502
481Q502 546 470 585T384 624Q333 624 307 594T280 524Q280 500 287 482T315 443T378 387Q437 338 459 296T482 199Q482 146 451 97T361 17T227 -14Q144 -14 95 7Z" />
<glyph unicode="T" glyph-name="T" horiz-adv-x="688" d="M120 -3T115 1T111 12Q117 29 140 34Q183 44 202 56T230 97L363 522Q381 579 381 596Q381 606 377 609T362 613H323Q292 613 257 595T195 549Q142 496 121 496Q107 496 111 514Q114 528 126 541Q157 576
173 604T205 674Q215 700 235 700Q246 700 260 689T281 674Q283 673 294 665T327 654T380 650L639 651Q695 651 717 655T760 667Q771 671 794 685Q813 699 824 699Q831 699 833 695T832 683Q825 666 824 664Q783 595 761 529Q755 510 749 501T733 492Q723 492 720
500T715 531Q713 573 697 593T639 613H600Q583 613 573 606T554 580T533 524L400 98Q396 87 396 77Q396 62 408 53T451 34Q467 28 467 19Q467 9 460 4T443 -2Q421 -2 361 0L284 2Q265 2 209 0Q166 -3 127 -3Q120 -3 115 1Z" />
<glyph unicode="U" glyph-name="U" horiz-adv-x="715" d="M210 -14T149 37T88 174Q88 214 101 256L188 536Q193 553 193 567Q193 608 161 618Q140 624 140 635Q140 644 149 649T172 655Q207 655 243 652Q287 650 307 650Q326 650 378 652Q434 654 455 654Q478
654 478 643Q478 634 468 628T439 616L418 608Q377 591 357 530L262 237Q253 209 253 184Q253 132 286 100T368 68Q441 68 500 123T588 260Q629 378 646 445Q661 506 661 547Q661 574 654 589T632 614Q626 617 617 620T602 627T596 636Q596 654 630 654Q660 654
690 652L731 651Q749 651 773 653Q799 655 820 655Q841 655 841 645Q841 627 807 618Q770 608 752 591T721 534Q696 460 660 342L633 257Q593 127 517 57T318 -14Q210 -14 149 37Z" />
<glyph unicode="V" glyph-name="V" horiz-adv-x="735" d="M138 -18T138 45Q138 74 148 122Q194 345 217 554L218 566Q218 586 209 597T180 615Q173 617 163 620T148 627T143 638Q143 654 177 654Q198 654 252 652Q304 650 322 650Q340 650 398 652Q443 655 481
655Q490 655 497 651T503 640Q498 625 468 618Q431 609 417 598T397 555L326 176Q325 169 328 169Q330 169 332 171T336 177L578 464Q642 539 642 577Q642 593 633 602T604 618Q593 622 587 626T580 636Q580 644 591 649T615 654Q637 654 671 652L721 651Q748 651
774 654Q782 654 799 655T831 657Q843 657 852 653T862 641Q862 633 854 630T837 624T824 620Q767 605 708 540L349 136Q297 77 248 30T182 -18Q138 -18 138 45Z" />
<glyph unicode="W" glyph-name="W" horiz-adv-x="1121" d="M173 -18T164 6T154 68Q154 98 158 122L168 189Q204 436 217 554L218 566Q218 586 209 597T180 615Q173 617 163 620T148 627T143 638Q143 654 177 654Q200 654 246 652Q292 650 311 650L392 652Q440
655 480 655Q489 655 496 651T502 640Q497 625 467 618Q430 609 416 598T396 555Q380 464 366 394Q341 259 332 206V201Q332 194 335 194Q338 194 346 202L574 478Q596 504 607 524T619 564Q619 586 611 596T582 615Q575 617 565 620T550 627T545 638Q545 654 579
654Q601 654 649 652Q695 650 714 650L795 652Q843 655 883 655Q908 655 908 640Q908 632 898 627T875 618Q837 610 821 598T799 555L735 204L734 199Q734 195 737 195Q741 195 749 205L952 466Q1010 542 1010 580Q1010 607 981 618Q970 622 964 626T957 636Q957
644 968 649T992 654Q1016 654 1052 652L1107 651Q1135 651 1160 654Q1168 654 1185 655T1217 657Q1229 657 1238 653T1248 641Q1248 632 1239 628T1210 620Q1178 613 1146 592T1087 540L740 141L692 84Q647 30 626 8T589 -14Q565 -14 555 0T544 46Q544 66 551
111L576 245Q607 411 614 457L351 139Q342 129 317 95Q275 39 248 11T194 -18Q173 -18 164 6Z" />
<glyph unicode="X" glyph-name="X" horiz-adv-x="730" d="M-15 -7T-25 -3T-35 10Q-35 17 -29 21T-16 27T-6 30Q20 38 47 58T117 129L275 315Q294 337 294 355Q294 365 289 382L236 554Q218 613 160 618Q138 620 138 639Q138 646 143 650T157 654Q182 654 209 653T248
651Q287 648 327 648Q343 648 363 649T395 651Q441 655 466 655Q475 655 484 651T493 640Q493 625 465 618Q414 606 414 568Q414 559 417 548L463 394Q467 381 476 381Q484 381 492 391L576 501Q621 561 621 590Q621 613 590 618Q579 620 570 626T560 640Q560 646
569 650T589 654Q604 654 632 652Q660 650 676 650Q689 650 703 651T725 653Q755 657 777 657Q790 657 800 653T810 640Q810 633 804 629T791 623T781 620Q757 612 733 599T693 568L509 358Q490 336 490 317Q490 308 495 291L561 92Q568 71 587 56T626 36Q638 33
650 26T662 10Q662 3 655 -1T637 -5Q618 -5 531 -2Q490 1 448 1L388 0Q348 -2 326 -2Q317 -2 308 2T299 13Q299 28 327 35Q355 42 368 52T382 78Q382 85 379 94L325 283Q321 296 312 296Q304 296 296 286L190 140Q159 96 159 72Q159 55 171 46T206 32Q236 25 236
10Q236 4 227 0T207 -4Q184 -4 154 -2Q126 0 107 0Q94 0 78 -1T55 -3Q19 -7 -2 -7Q-15 -7 -25 -3Z" />
<glyph unicode="Y" glyph-name="Y" horiz-adv-x="669" d="M107 -6T101 -1T97 11Q101 27 132 33Q172 40 192 59T222 110L264 246Q274 275 274 300Q274 324 265 353L204 554Q196 577 186 592T158 613Q140 620 134 624T127 634Q127 643 134 648T152 654Q174 654 199
653T236 651Q273 648 316 648Q334 648 348 649T373 651Q417 655 446 655Q454 655 461 652T468 642Q468 633 458 627T434 618Q394 609 378 597T362 564Q362 555 365 543L407 356Q410 342 413 338T421 333Q428 333 442 350Q477 392 521 449L587 532Q613 565 613 583Q613
611 568 618Q558 620 551 624T543 636Q543 644 554 649T578 654Q592 654 622 652Q647 649 676 649Q697 649 733 653Q767 657 788 657Q813 657 813 644Q813 634 805 630T780 620Q747 611 717 595T670 559Q572 444 493 358Q457 319 438 259L393 111Q386 90 386 75Q386
59 397 50T434 33Q458 27 458 16Q458 7 449 1T426 -5Q404 -5 346 -1Q290 3 272 3Q253 3 199 -1Q152 -6 119 -6Q107 -6 101 -1Z" />
<glyph unicode="Z" glyph-name="Z" horiz-adv-x="642" d="M477 -3Q346 0 217 1Q94 1 -30 -7Q-40 -8 -40 7Q-40 18 -35 25Q19 91 47 122L238 343Q405 538 455 594Q462 601 462 607Q462 615 448 615Q423 615 386 613T333 609Q289 603 253 584T183 523Q180 520 172
510T156 494T137 488Q123 488 127 506Q131 522 137 533Q158 571 174 614L185 641Q192 657 198 663T217 670Q233 670 279 662Q339 650 379 650H482Q534 650 594 653L684 655Q691 655 694 645T694 630L594 516Q512 423 400 291Q270 137 210 69Q200 57 200 51Q200
43 216 43L341 45Q387 46 421 53T485 75Q540 105 583 163Q593 175 605 175Q611 175 614 171T616 160Q606 130 555 45L538 16Q527 -4 503 -4L477 -3Z" />
<glyph unicode="[" glyph-name="bracketleft" horiz-adv-x="377" d="M-11 -201T-18 -199T-25 -186Q-25 -178 -15 -145L229 645Q238 673 245 684T260 698T289 701L478 700Q493 700 493 687Q493 672 481 664T455 654L387 649Q363 647 345 629T318 587L110 -87Q106
-101 106 -109Q106 -125 114 -136T140 -148L205 -154Q215 -155 222 -161T226 -179Q219 -200 200 -200L9 -201Q-11 -201 -18 -199Z" />
<glyph unicode="\" glyph-name="backslash" horiz-adv-x="395" d="M235 -63T233 -42L145 646Q144 653 152 660T174 668Q192 668 202 663T214 645L301 -43Q302 -51 294 -57T274 -63Q235 -63 233 -42Z" />
<glyph unicode="]" glyph-name="bracketright" horiz-adv-x="378" d="M413 703T420 701T427 688Q427 680 417 647L173 -143Q164 -171 157 -182T142 -196T113 -199L-76 -198Q-91 -198 -91 -185Q-91 -170 -79 -162T-53 -152L15 -147Q39 -145 57 -127T84 -85L292
589Q296 603 296 611Q296 627 288 638T262 650L197 656Q187 657 180 663T176 681Q183 702 202 702L393 703Q413 703 420 701Z" />
<glyph unicode="^" glyph-name="asciicircum" horiz-adv-x="518" d="M45 242T45 259Q45 262 47 266L268 609H276L500 266Q502 260 502 258Q502 252 496 247T478 242Q452 242 428 279L277 500Q274 505 272 505T267 500L119 279Q95 242 69 242Q45 242 45 259Z" />
<glyph unicode="_" glyph-name="underscore" horiz-adv-x="609" d="M485 -127T490 -132T496 -145Q496 -158 483 -173T455 -188H-106Q-112 -188 -115 -184T-119 -174Q-119 -163 -107 -145T-80 -127H475Q485 -127 490 -132Z" />
<glyph unicode="`" glyph-name="grave" horiz-adv-x="245" d="M293 469T276 486L165 609Q142 634 142 650Q142 664 165 683T205 702Q217 702 226 694T244 665L317 503Q321 495 321 485Q321 469 307 469Q293 469 276 486Z" />
<glyph unicode="a" glyph-name="a" horiz-adv-x="552" d="M15 -14T-6 3T-28 38Q-28 67 -12 101T45 188T160 325Q201 372 239 402T298 432Q311 432 329 425T364 403Q371 396 373 396H374Q376 396 377 398T379 403Q390 425 394 435Q396 440 403 443T421 447Q446
447 474 430T503 399Q503 393 502 392L405 126Q403 118 403 115Q403 102 415 102Q425 102 448 119T497 161Q500 164 501 164Q506 164 510 159T514 147Q514 131 494 106T441 53Q403 22 367 4T307 -14Q282 -14 259 5T235 44Q235 50 240 67Q248 90 272 146V148Q272
151 269 152T264 152Q190 67 135 27T36 -14Q15 -14 -6 3ZM168 101T203 131T274 206Q305 244 323 273T341 315Q341 324 319 342Q308 350 298 355T280 361Q265 361 239 344T190 302Q163 274 143 226T122 137Q122 120 130 111T152 101Q168 101 203 131Z" />
<glyph unicode="b" glyph-name="b" horiz-adv-x="543" d="M129 -14T96 15T63 99Q63 137 80 188L186 531Q193 554 196 567T199 592Q199 603 191 609T163 624Q152 629 148 632T143 640Q143 647 149 651T172 662Q213 676 273 691T346 707Q374 707 374 693Q374 670
364 650Q335 589 308 513T227 264Q226 261 226 259T227 256Q230 256 233 262Q291 344 350 390T456 437Q493 437 519 412T546 351Q546 270 491 184T353 42T190 -14Q129 -14 96 15ZM238 26T267 53T319 115Q352 168 378 231T405 322Q405 335 398 342T379 350Q358 350
326 324T257 247Q222 198 201 155T180 88Q180 67 192 47T221 26Q238 26 267 53Z" />
<glyph unicode="c" glyph-name="c" horiz-adv-x="378" d="M115 -14T82 5T30 56T10 125Q10 210 47 281T147 395T283 437Q323 437 349 419T376 371Q376 351 362 332T333 313Q325 313 319 319T301 345Q290 365 277 378T252 391Q225 391 200 362T159 286T143 188Q143
151 163 130T218 108Q244 108 268 120T309 155Q313 160 318 163T328 167Q332 167 335 164T338 156Q338 119 310 79T238 13T155 -14Q115 -14 82 5Z" />
<glyph unicode="d" glyph-name="d" horiz-adv-x="573" d="M43 -14T20 10T-4 73Q-4 127 27 195T112 328Q203 437 279 437Q299 437 316 429T349 412T370 399Q378 394 385 394Q389 394 392 403L435 537Q445 570 449 582T452 595T451 599Q451 619 408 635Q397 640
393 643T388 651Q388 658 394 662T417 673Q441 681 509 694T596 707Q624 707 624 693Q624 684 622 675T614 650L428 118L426 106Q426 99 431 99Q440 99 467 118T517 161Q520 164 521 164Q527 164 531 160T535 148Q535 123 498 84T411 16T329 -14Q304 -14 281 5T257
44Q257 50 262 67Q269 84 279 103T297 137T303 143L304 147Q304 151 301 151Q297 151 293 146Q225 64 173 25T79 -14Q43 -14 20 10ZM206 95T248 136T322 233T354 330Q354 355 344 369T313 383Q285 383 245 338T175 231T145 127Q145 112 153 104T175 95Q206 95 248
136Z" />
<glyph unicode="e" glyph-name="e" horiz-adv-x="389" d="M113 -15T81 2T27 48T5 111Q5 194 45 269T148 391T276 437Q335 437 364 415T394 359Q394 298 327 265T157 210Q150 209 148 201Q146 195 146 191T145 183Q144 145 165 119T226 93Q251 93 274 106T322 145Q333
157 339 157Q348 157 348 146Q348 135 345 131Q312 67 262 26T142 -15Q113 -15 81 2ZM220 264T252 289T288 366Q289 378 282 388T260 399Q226 399 197 357T157 254V252Q157 246 164 248Q220 264 252 289Z" />
<glyph unicode="f" glyph-name="f" horiz-adv-x="396" d="M-130 -291T-166 -267T-202 -209Q-202 -183 -186 -166T-148 -149Q-139 -149 -129 -162T-104 -196Q-102 -200 -93 -214T-73 -235T-51 -242Q-16 -242 12 -143L148 347Q149 350 149 355Q149 365 134 365L75
364Q64 364 60 368T56 383Q56 393 66 405T93 419L154 422Q159 422 161 424T165 435L173 459Q202 544 247 599T343 680T445 706Q491 706 523 685T555 630Q555 602 542 579T508 556Q491 556 484 568T465 612Q456 637 446 651T417 665Q394 665 373 627T335 533Q324
496 317 457L314 438V435Q314 422 331 422Q347 422 379 424L426 425Q430 425 433 421T437 410Q437 402 427 386T411 369L332 366Q313 365 304 360T291 340L170 -96Q159 -138 117 -183T25 -260T-58 -291Q-130 -291 -166 -267Z" />
<glyph unicode="g" glyph-name="g" horiz-adv-x="480" d="M61 -290T10 -277T-72 -239T-103 -187Q-103 -111 86 -62Q91 -60 91 -58T88 -53Q66 -43 50 -23T33 17Q33 39 54 55T120 95Q134 103 134 108Q134 112 124 117Q92 131 67 161T42 228Q42 273 69 321T148 403T274
437Q302 437 346 419Q355 415 373 408T400 400Q418 400 454 409Q478 416 493 416Q502 416 511 410T520 388Q520 370 512 358T491 345Q478 345 463 348Q457 348 446 349T425 351Q412 351 415 340Q417 332 417 315Q417 261 389 211T311 129T199 98Q191 98 179 99T163
99Q159 97 156 93T153 85Q153 67 191 41Q217 23 264 -5Q307 -31 338 -51Q391 -86 391 -128Q391 -167 352 -204T250 -266T123 -290Q61 -290 10 -277ZM205 137T236 177T290 274T313 364Q313 383 306 393T288 404Q265 404 235 363T182 268T159 183Q159 143 178 141Q205
137 236 177ZM206 -253T238 -234T271 -188Q271 -178 264 -167T245 -148Q222 -132 191 -114T140 -86Q134 -83 127 -83Q123 -83 109 -87Q61 -100 40 -119T19 -172Q19 -207 55 -230T168 -253Q206 -253 238 -234Z" />
<glyph unicode="h" glyph-name="h" horiz-adv-x="579" d="M98 -14T83 -7T57 12T46 39Q46 67 60 111L193 535Q203 568 203 590Q203 602 193 609T164 624Q154 628 149 631T144 640Q144 647 149 651T173 662Q206 673 269 690T348 707Q360 707 368 705T376 693Q376
682 373 671T366 650L226 235L225 231Q225 227 229 227Q234 227 237 233Q294 323 358 380T481 437Q522 437 544 411T567 346Q567 208 472 83Q463 71 429 48T361 5T312 -14Q292 -14 270 3T247 34Q247 44 259 65T284 86Q292 86 296 83T305 75T314 67Q326 57 332 52T348
47Q363 47 379 97T407 215T419 324Q419 358 396 358Q379 358 347 313T259 173Q209 88 173 35Q141 -14 108 -14Q98 -14 83 -7Z" />
<glyph unicode="i" glyph-name="i" horiz-adv-x="340" d="M65 -14T45 5T25 44Q25 56 30 67L104 242L129 304Q131 309 125 309Q116 309 103 303T81 291T65 281Q57 276 50 276Q38 276 38 290Q38 303 74 334T156 395T226 434Q234 436 239 436Q258 436 275 423T292
393L290 385L180 111Q178 107 178 99Q178 92 183 92Q193 92 228 115T283 159Q286 162 287 162Q293 162 297 157T301 146Q301 122 264 84T177 16T90 -14Q65 -14 45 5ZM247 758T231 776T214 818Q214 855 240 882T304 910Q328 910 343 890T358 845Q358 810 332 784T270
758Q247 758 231 776Z" />
<glyph unicode="j" glyph-name="j" horiz-adv-x="323" d="M-182 -290T-206 -275T-230 -236Q-230 -218 -220 -203T-197 -180T-175 -171Q-160 -171 -150 -179T-125 -207Q-114 -221 -105 -227T-83 -234Q-40 -234 1 -108L121 262Q127 283 127 293Q127 309 115 309Q103
309 91 305T65 294Q53 290 50 290Q38 290 38 302Q38 309 42 313T52 323T61 330Q92 355 138 376T253 425L278 435Q284 437 286 437Q300 437 310 425T317 402L303 368Q280 311 272 288L162 -48Q141 -113 86 -168T-32 -257T-132 -290Q-182 -290 -206 -275ZM242 505T226
523T209 565Q209 602 235 629T299 657Q323 657 338 637T353 592Q353 557 327 531T265 505Q242 505 226 523Z" />
<glyph unicode="k" glyph-name="k" horiz-adv-x="552" d="M300 -14T284 36L241 166Q233 189 222 189Q216 189 214 185T205 167L178 99Q174 89 166 68T151 31Q144 17 125 6T82 -5Q62 -5 44 11T25 53Q25 70 33 92L175 529Q180 544 184 560T189 590Q189 603 184 611T164
624Q154 628 149 631T144 640Q144 647 149 651T173 662Q209 674 267 690T341 707Q353 707 361 705T369 693Q369 682 366 671T359 650L238 308Q237 307 237 304Q237 300 241 300Q247 300 250 305Q292 364 344 400T457 437Q489 437 507 423T526 381Q526 337 479 293T366
221Q360 220 360 213Q360 208 363 202L399 123Q412 98 425 98Q439 98 461 113T497 149Q498 151 502 156T510 161Q514 161 516 157T518 148Q518 117 489 79T417 13T341 -14Q300 -14 284 36ZM283 213T317 233T375 282T399 331Q399 344 391 349T367 355Q346 355 317
329T265 270T242 225Q242 221 244 217T251 213Q283 213 317 233Z" />
<glyph unicode="l" glyph-name="l" horiz-adv-x="319" d="M49 -14T32 5T14 44Q14 52 19 67L184 558Q193 585 193 599Q193 613 187 619T166 628Q151 630 147 634T145 646Q147 653 151 657T166 664Q204 673 248 681Q312 692 333 700Q351 706 358 706Q364 706 367
698T369 685Q359 651 354 638L176 127Q174 119 174 116Q174 103 186 103Q206 103 264 161Q267 164 268 164Q275 164 278 158T281 147Q281 123 244 84T156 16T73 -14Q49 -14 32 5Z" />
<glyph unicode="m" glyph-name="m" horiz-adv-x="840" d="M93 -14T78 -7T51 15T40 48Q42 62 45 69L154 325Q156 329 156 335Q156 346 143 346Q128 346 107 339T64 310Q59 305 53 305Q43 305 43 315Q42 325 57 347T87 380Q121 409 149 423T222 437Q249 437 264
420T280 376Q280 358 271 338L214 210Q213 209 213 206Q213 202 217 202Q223 202 226 208Q273 288 304 332T371 407T449 437Q488 437 507 414T527 356Q527 316 504 276L495 259L494 255Q494 251 499 251Q506 251 510 257Q564 343 610 390T716 437Q752 437 768 418T785
366Q785 327 763 276L698 127Q692 114 692 107Q692 98 701 98Q710 98 734 115T773 145Q791 163 796 163Q799 163 802 159T806 150Q804 127 789 110Q740 54 682 20T565 -14Q550 -14 531 -2T512 24Q512 27 514 33L654 335Q659 345 659 352Q659 360 655 364T645 369Q633
369 618 352T578 298Q557 266 505 180Q432 59 421 42Q407 20 379 3T333 -14Q317 -14 297 3T278 35Q278 52 287 74L398 338Q403 350 403 357Q403 370 390 370Q367 370 309 287Q279 244 225 140Q191 76 175 48Q141 -14 105 -14Q93 -14 78 -7Z" />
<glyph unicode="n" glyph-name="n" horiz-adv-x="614" d="M117 -14T100 -5T70 21T57 57Q57 69 61 78L159 322Q161 330 161 332Q161 343 145 343Q93 343 65 310Q60 305 54 305Q50 305 47 307T43 316Q43 326 57 347T85 380Q149 437 233 437Q262 437 278 420T294
376Q294 357 287 342L237 219L236 216Q236 214 238 213T244 211Q252 211 257 217Q317 325 367 381T477 437Q518 437 537 414T557 355Q557 324 544 295L472 127Q467 116 467 107Q467 98 476 98Q485 98 509 115T546 145Q564 163 569 163Q572 163 575 159T579 150Q579
128 564 110Q519 56 456 21T341 -14Q322 -14 305 0T287 32Q287 36 289 42Q319 108 341 153Q397 267 423 338Q427 347 427 356Q427 367 415 367Q401 367 385 348T340 285L320 255Q305 233 267 170T201 58Q181 24 164 5T128 -14Q117 -14 100 -5Z" />
<glyph unicode="o" glyph-name="o" horiz-adv-x="475" d="M124 -14T88 4T30 56T8 134Q8 198 45 269T151 388T310 437Q381 437 424 398T467 289Q467 225 430 154T324 35T165 -14Q124 -14 88 4ZM214 27T247 84T302 220T324 360Q324 399 292 399Q267 399 234 342T176
205T152 67Q152 47 161 37T185 27Q214 27 247 84Z" />
<glyph unicode="p" glyph-name="p" horiz-adv-x="548" d="M-104 -285T-106 -282T-108 -273Q-107 -260 -88 -255Q-52 -245 -39 -236T-18 -204L147 311Q154 332 154 339Q154 350 140 346Q115 339 70 323Q68 323 64 322T57 320Q44 320 44 334Q44 352 72 363Q78 365
112 381L162 404Q177 411 189 446Q205 492 234 516T297 540Q313 540 321 533T329 511Q329 499 325 486L316 451Q314 441 314 438Q314 427 319 429Q353 437 374 437Q453 437 498 399T543 299Q543 227 502 154T394 34T253 -14Q224 -14 196 6Q184 15 178 15Q169 15
163 -6L111 -194Q109 -204 109 -207Q109 -221 122 -231T165 -251Q182 -255 182 -272Q182 -277 176 -280T162 -284L90 -282L26 -281Q11 -281 -33 -283Q-79 -285 -99 -285Q-104 -285 -106 -282ZM274 25T311 61T375 157T403 281Q403 332 381 356T321 381Q313 381 297
379L212 111Q208 100 208 86Q208 71 214 57Q222 39 228 32T249 25Q274 25 311 61Z" />
<glyph unicode="q" glyph-name="q" horiz-adv-x="558" d="M107 -288Q103 -288 101 -284T99 -274Q100 -261 119 -256Q154 -246 167 -238T189 -205Q197 -184 240 -62Q292 88 310 135L311 139Q311 143 308 143Q304 143 299 137Q234 50 191 18T97 -14Q58 -14 33 15T7
89Q7 151 43 216T140 344Q185 390 236 417T332 444Q347 444 363 436T389 416Q403 398 412 399Q420 399 430 412L438 424Q470 469 507 469Q517 469 523 460T530 432Q530 404 514 355L328 -198Q325 -207 325 -213Q325 -227 335 -235T361 -246Q395 -251 395 -265Q395
-270 389 -273T373 -277Q214 -277 108 -288H107ZM219 68T313 212Q319 221 324 228T332 240Q358 280 369 300T381 336Q381 353 367 373T335 393Q304 393 261 336T186 206T154 96Q154 68 177 68Q219 68 313 212Z" />
<glyph unicode="r" glyph-name="r" horiz-adv-x="474" d="M83 -14T60 1T36 36Q36 48 40 59L143 325Q145 333 145 335Q145 346 131 346Q114 346 104 341T83 327T69 315Q65 311 57 311Q47 311 47 324Q47 346 66 368T117 407Q142 421 169 429T221 437Q248 437 262
422T276 380Q276 350 262 319L225 233Q224 232 224 229Q224 225 228 225Q234 225 237 231Q294 334 341 385T443 437Q475 437 493 418T512 370Q512 343 499 317T467 275T432 258Q420 258 414 268T402 301Q397 323 391 335T373 348Q355 348 339 327T295 257Q255 184
184 60Q166 29 143 8T101 -14Q83 -14 60 1Z" />
<glyph unicode="s" glyph-name="s" horiz-adv-x="326" d="M32 -14T4 6T-24 61Q-24 88 -12 106T21 125Q28 125 39 114T63 90Q67 86 81 72T110 48T135 39Q149 39 155 46T161 70Q161 89 112 154Q64 221 64 273Q64 305 95 343T169 409T237 437Q263 437 289 426T333
398T350 369Q350 357 339 340T313 311T286 298Q264 298 243 330Q233 345 218 355T190 366Q177 366 170 358T163 339Q163 331 172 319T199 285L220 259Q254 216 267 192T280 144Q280 118 250 80T174 14T79 -14Q32 -14 4 6Z" />
<glyph unicode="t" glyph-name="t" horiz-adv-x="380" d="M84 -14T69 -4T44 22T34 51Q34 62 44 89L138 338Q142 352 142 355Q142 369 127 369L77 371Q51 372 51 392Q51 395 59 404T78 420T102 428H153Q168 428 173 432T188 455L217 512Q230 537 255 558T299 579Q312
579 318 570T325 546Q325 540 323 530L300 451Q298 445 298 437Q298 431 302 429T315 426Q333 426 375 421Q397 418 402 413T408 399Q408 394 401 388T379 379Q349 375 325 374Q305 373 295 369T281 353L210 155Q202 132 202 120Q202 111 205 109T215 107Q230 107
261 132T320 184Q323 187 324 187Q330 187 334 182T338 171Q338 146 297 101T200 21T100 -14Q84 -14 69 -4Z" />
<glyph unicode="u" glyph-name="u" horiz-adv-x="615" d="M97 -14T76 13T54 72Q54 84 59 96L150 299Q155 309 155 318Q155 328 146 328Q137 328 108 309T67 278Q52 263 42 263Q34 263 34 273Q34 290 53 313Q101 370 152 403T253 437Q273 437 292 414T311 368Q311
361 308 353Q287 305 246 220Q216 159 201 125Q196 115 196 105Q196 92 208 92Q219 92 241 119T307 207Q314 218 330 240Q356 276 391 333L412 366Q437 407 450 422T480 437Q507 437 527 418T548 377Q548 372 546 364L453 113Q451 105 451 102Q451 94 456 94Q466
94 503 120T561 166Q564 169 565 169Q571 169 575 164T579 153Q579 129 537 89T441 18T354 -14Q335 -14 319 5T303 44Q303 51 310 67Q345 145 369 204L370 208Q370 212 366 212Q362 212 357 206Q294 111 235 49T124 -14Q97 -14 76 13Z" />
<glyph unicode="v" glyph-name="v" horiz-adv-x="492" d="M116 -14T89 7T62 68Q62 91 73 121L134 289Q136 293 136 299Q136 310 126 310Q116 310 99 301T73 285Q56 270 51 270Q36 270 36 283Q36 292 59 320Q78 343 114 370T187 417T248 437Q261 437 273 428T291
406T296 385L219 139Q213 118 213 104Q213 88 222 81T250 74Q274 74 310 107T372 185T399 266Q399 291 391 308T366 342Q354 353 349 361T344 379Q344 387 362 401T405 426T444 437Q462 437 474 415T487 351Q487 293 449 226T352 98Q302 46 255 16T163 -14Q116
-14 89 7Z" />
<glyph unicode="w" glyph-name="w" horiz-adv-x="710" d="M677 437T690 415T704 351Q704 294 668 226T574 93Q531 44 485 15T396 -14Q355 -14 333 10T309 74Q243 -14 141 -14Q107 -14 84 10T61 76Q61 109 77 150L132 289Q135 297 135 302Q135 310 128 310Q122
310 106 304T76 289Q72 287 64 282T52 276Q38 276 38 291Q38 297 44 307T61 328Q99 364 156 400T246 437Q291 437 291 394Q291 367 274 323L203 139Q197 123 197 110Q197 92 208 83T237 74Q262 74 295 117T352 222Q357 236 359 251T363 273Q364 294 372 331Q373
340 381 355T402 382Q420 399 435 406T478 413Q515 413 515 369Q515 347 507 319Q499 290 483 262T463 228L448 203Q427 164 427 131Q427 106 439 90T475 74Q504 74 534 103T585 178T605 266Q605 286 601 300T588 332L575 356Q565 373 565 378Q565 385 582 399T621
425T659 437Q677 437 690 415Z" />
<glyph unicode="x" glyph-name="x" horiz-adv-x="510" d="M11 -14T-2 0T-15 36Q-15 60 1 82T35 105Q45 105 57 89Q69 77 87 77Q109 77 131 102Q141 114 153 126Q158 132 171 147T190 170Q197 180 197 188Q197 191 195 199L157 325Q152 342 143 342Q120 342 78
293Q73 288 67 288Q63 288 60 290T56 299Q56 326 76 358T129 414T201 437Q226 437 241 419T267 367L296 278Q298 272 301 272Q305 272 309 279L366 358Q397 401 422 419T471 437Q496 437 515 418T534 381Q534 363 525 347T504 322T482 312Q471 312 466 315T455
328Q450 337 445 341T430 345Q420 345 409 340T379 317Q355 293 323 240Q314 224 314 215Q314 212 316 202L342 104Q346 88 351 83T364 77Q372 77 387 89T420 128Q422 131 425 133T432 135Q436 135 438 132T441 122Q441 100 421 68T369 11T303 -14Q277 -14 257
6T231 49L222 94L212 138Q208 151 201 141Q195 133 173 99Q162 80 151 65Q125 29 94 8T36 -14Q11 -14 -2 0Z" />
<glyph unicode="y" glyph-name="y" horiz-adv-x="499" d="M-78 -289T-102 -271T-126 -221Q-126 -193 -106 -168T-61 -142Q-44 -142 -12 -166Q5 -178 18 -184T49 -191Q77 -191 104 -165T151 -93Q187 -11 187 115Q187 194 179 245T158 320T134 344Q123 344 108 322T81
276Q71 255 62 255Q59 255 56 262T53 283Q53 319 77 357T136 419T202 444Q231 444 249 425T281 365Q311 265 311 137Q311 103 310 84V80Q310 67 314 67Q319 67 325 81Q355 138 367 207T379 373V417Q379 426 392 435T416 444Q426 444 443 434T474 408T487 374Q487
282 409 146T199 -130Q135 -199 68 -244T-46 -289Q-78 -289 -102 -271Z" />
<glyph unicode="z" glyph-name="z" horiz-adv-x="485" d="M475 438T482 433T489 422Q489 409 450 374L203 149Q220 145 236 134T271 106Q299 82 316 71T351 60Q365 60 374 78T384 123Q384 151 386 162T397 173Q414 173 427 159T441 116Q441 91 410 56T337 -6T273
-33Q245 -33 220 -21T169 11Q161 17 145 29T116 48T93 54Q68 54 53 37T38 -5Q38 -20 22 -20Q13 -20 6 -8T-1 15Q-1 27 5 41T25 66L279 281Q275 280 269 280Q251 280 235 290T192 325Q172 342 160 350T137 358Q124 358 118 344T111 310Q111 284 123 267Q128 261
128 256Q128 251 123 247Q115 240 98 234T73 227Q64 227 55 239T45 272Q45 306 60 328T110 377Q136 398 171 417T225 437Q250 437 281 425L307 417Q358 400 390 400Q405 400 413 404T436 420Q457 438 469 438Q475 438 482 433Z" />
<glyph unicode="{" glyph-name="braceleft" horiz-adv-x="397" d="M144 -152T86 -128T28 -54Q28 -37 35 -19Q83 101 104 169Q112 196 112 211Q112 231 102 243T68 266Q63 268 56 270T46 276T42 288Q42 297 51 302T83 315Q113 325 128 334T156 361T180 413Q190
445 200 486T213 541L222 581Q237 647 316 680T493 714Q502 714 508 709T515 697Q515 673 470 673Q416 673 384 653T337 586Q334 577 321 514Q305 438 300 422Q284 370 236 333T128 283Q122 282 128 279Q171 270 197 243T223 177Q223 160 217 140Q213 126 182 48Q161
-2 154 -24Q148 -45 148 -59Q148 -84 166 -95T228 -114Q233 -115 242 -116T257 -120T262 -131Q262 -141 251 -146T227 -152Q144 -152 86 -128Z" />
<glyph unicode="|" glyph-name="bar" horiz-adv-x="279" d="M91 -289T84 -281T77 -261V644Q77 663 95 677T136 698T168 705Q179 705 187 697T196 679V-241Q196 -268 163 -278T101 -289Q91 -289 84 -281Z" />
<glyph unicode="}" glyph-name="braceright" horiz-adv-x="397" d="M296 714T354 690T412 616Q412 599 405 581Q357 461 336 393Q328 366 328 351Q328 331 338 319T372 296Q377 294 384 292T394 286T398 274Q398 265 389 260T357 247Q327 237 312 228T284 201T260
149Q250 117 240 76T227 21L218 -19Q203 -85 124 -118T-53 -152Q-62 -152 -68 -147T-75 -135Q-75 -111 -30 -111Q24 -111 56 -91T103 -24Q106 -15 119 48Q135 124 140 140Q156 192 204 229T312 279Q318 280 312 283Q269 292 243 319T217 385Q217 402 223 422Q227
436 258 514Q279 564 286 586Q292 607 292 621Q292 646 274 657T212 676Q207 677 198 678T183 682T178 693Q178 703 189 708T213 714Q296 714 354 690Z" />
<glyph unicode="~" glyph-name="asciitilde" horiz-adv-x="555" d="M88 254T80 267T72 287Q72 297 96 327T155 381T221 406Q238 406 256 402T293 391T320 381Q350 371 373 366T422 361Q453 361 497 384Q506 389 517 397T534 406Q541 406 549 393T557 373Q557 363
533 333T474 279T408 254Q391 254 372 259T319 274Q278 287 254 293T207 299Q181 299 157 288T115 266T95 254Q88 254 80 267Z" />
<glyph unicode="&#xa0;" glyph-name="uni00A0" horiz-adv-x="245" />
<glyph unicode="&#xa1;" glyph-name="exclamdown" horiz-adv-x="306" d="M206 308T206 282Q206 271 203 255Q179 117 144 -50Q134 -99 106 -134T38 -169Q17 -169 2 -150T-14 -98Q-14 -69 1 -28Q8 -9 46 70T138 255Q151 281 162 294T186 308Q206 308 206 282ZM265
494T283 477T301 435Q301 400 274 373T209 345Q179 345 162 364T144 409Q144 443 173 468T240 494Q265 494 283 477Z" />
<glyph unicode="&#xa2;" glyph-name="cent" horiz-adv-x="439" d="M111 -82T106 -77T105 -62L126 -11Q73 3 43 46T13 155Q13 220 54 285T164 393T309 436L332 492Q336 502 346 508T368 514Q373 514 376 511T380 501L378 492L354 435Q394 431 432 410T470 364Q470
344 445 325T394 306Q369 306 361 323Q352 343 345 354T329 372L225 117Q241 115 252 115Q290 115 326 129T383 167Q392 177 401 177Q409 177 409 168Q409 159 402 145Q362 71 306 31T171 -14L151 -62Q146 -71 137 -76T120 -82Q111 -82 106 -77ZM287 380Q247 379
215 353T164 287T146 206Q146 180 156 159T183 127L287 380Z" />
<glyph unicode="&#xa3;" glyph-name="sterling" horiz-adv-x="649" d="M611 629T646 603T682 539Q682 504 656 476T595 448Q584 448 580 451T576 464Q576 467 583 478T594 500T599 527Q599 552 586 568T546 585Q516 585 493 567T447 500T396 360L395 358L504 365H505Q512
365 517 360T522 348Q522 339 508 326T479 312L375 305Q349 245 311 204T227 150Q223 147 227 143Q262 143 286 131T336 96Q341 91 357 76T390 52T423 44Q456 44 481 62T506 112Q506 124 496 140Q487 153 487 163Q487 181 501 192T533 204Q558 204 570 190T583
145Q583 105 556 63T477 -8T357 -37Q318 -37 287 -24T224 14L204 29Q178 51 161 61T124 71Q74 34 37 -4Q29 -12 15 -12Q-2 -12 -16 -1T-30 27Q-30 49 -7 73T54 115T130 135Q168 193 203 293L109 287H107Q100 287 95 292T89 304Q89 314 99 326T122 340L220 346Q226
364 233 387Q265 491 343 560T538 629Q611 629 646 603Z" />
<glyph unicode="&#xa4;" glyph-name="currency" horiz-adv-x="502" d="M525 482T536 469T545 441Q544 436 541 432L482 390Q493 359 493 327Q493 277 470 225T404 133L431 97Q437 89 437 84Q437 72 424 61T397 49Q388 49 380 61L355 95Q288 54 208 54Q137 54 92
97L35 54Q28 49 22 49Q10 49 -1 63T-12 89Q-12 94 -11 96T-6 100T-1 104L59 150Q51 176 51 202Q51 252 75 302T142 391L105 441Q103 445 103 448Q103 460 119 472T148 482Q154 481 156 477L191 430Q264 477 339 477Q406 477 446 442L495 477Q503 482 509 482Q525
482 536 469ZM277 115T324 143T400 216T430 311Q430 357 400 386T320 416Q270 416 222 388T145 314T115 221Q115 174 145 145T227 115Q277 115 324 143Z" />
<glyph unicode="&#xa5;" glyph-name="yen" horiz-adv-x="665" d="M103 -6T97 -1T93 11Q97 27 128 33Q168 40 188 59T218 110L240 181H132Q124 181 119 186T113 198Q113 208 124 220T148 233L256 232L260 246Q263 255 267 273H165Q157 273 152 278T146 290Q146
300 157 312T181 325H267Q266 338 261 353L200 554Q192 580 180 595T144 618Q127 624 127 633Q127 643 134 648T152 654Q174 654 198 653T234 651Q270 648 312 648Q330 648 344 649T369 651Q413 655 442 655Q450 655 457 652T464 642Q464 633 454 627T430 618Q390
609 375 597T359 563Q359 557 361 543L395 366Q400 343 409 343Q416 343 430 360L535 488Q563 522 576 539Q599 567 599 587Q599 615 555 618Q545 619 538 624T530 636Q530 644 541 649T565 654Q595 654 620 651Q654 649 672 649Q693 649 729 653Q763 657 784 657Q809
657 809 644Q809 634 801 630T776 620Q744 612 717 595T671 557Q620 498 516 384Q517 385 488 353Q474 338 465 323H557Q564 323 569 317T574 305Q573 296 559 284T529 272H439L426 232L529 231Q536 231 541 225T546 213Q545 204 531 192T501 180H410L389 111Q382
90 382 75Q382 59 393 50T430 33Q454 27 454 16Q454 7 445 1T422 -5Q400 -5 342 -1Q286 3 268 3Q249 3 195 -1Q148 -6 115 -6Q103 -6 97 -1Z" />
<glyph unicode="&#xa6;" glyph-name="brokenbar" horiz-adv-x="281" d="M91 251T84 259T77 279V644Q77 663 95 677T136 698T168 705Q179 705 187 697T196 679V299Q196 272 163 262T101 251Q91 251 84 259ZM93 -290T86 -282T79 -262V124Q79 143 97 157T138 178T170
185Q181 185 189 177T198 159V-242Q198 -269 165 -279T103 -290Q93 -290 86 -282Z" />
<glyph unicode="&#xa7;" glyph-name="section" horiz-adv-x="453" d="M9 -148T-11 -139T-32 -114Q-32 -102 -21 -84T7 -51T35 -37Q46 -37 55 -41T78 -56Q92 -67 106 -72T139 -78Q172 -78 192 -56T213 4Q213 42 196 74T140 159Q103 210 86 242T69 311Q69 372 101
414T197 500Q233 560 289 600T402 640Q440 640 474 626T508 592Q508 581 494 564T462 533T434 519Q429 519 422 525T408 537T398 548Q368 578 344 578Q313 578 290 556T267 504Q267 482 277 459T307 411T346 362Q377 322 395 286T413 209Q413 155 380 94T292 -22Q232
-82 168 -115T41 -148Q9 -148 -11 -139ZM283 62T286 62T292 66Q324 124 324 164Q324 200 309 231T267 300Q234 345 219 371T200 429Q200 436 191 429Q173 414 165 394T156 339Q156 312 171 286T223 207Q252 165 267 133T283 66Q283 62 286 62Z" />
<glyph unicode="&#xa8;" glyph-name="dieresis" horiz-adv-x="490" d="M202 490T187 506T172 548Q172 587 203 615T275 643Q303 643 318 628T334 586Q334 547 303 519T227 490Q202 490 187 506ZM406 490T391 506T376 548Q376 587 407 615T479 643Q507 643 522
628T538 586Q538 547 507 519T431 490Q406 490 391 506Z" />
<glyph unicode="&#xa9;" glyph-name="copyright" horiz-adv-x="684" d="M291 15T220 57T107 170T65 327Q65 412 107 483T220 597T377 639Q462 639 533 597T647 484T689 327Q689 242 647 171T533 57T376 15Q291 15 220 57ZM446 68T504 103T596 197T630 327Q630
395 596 453T504 546T377 580Q308 580 250 546T158 454T124 327Q124 257 158 198T249 103T376 68Q446 68 504 103ZM332 134T282 158T203 224T173 321Q173 371 202 415T283 485T405 512Q432 512 460 506T510 488Q522 484 523 472Q527 440 527 395Q527 385 521 380T507
374Q492 374 488 390Q479 417 469 429Q445 457 401 457Q353 457 330 422T306 331Q306 261 327 225T401 188Q437 188 457 203T493 254Q499 268 511 268Q519 268 524 263T530 247Q530 228 527 211T519 175Q517 169 512 168T503 164Q445 134 390 134Q332 134 282 158Z"
/>
<glyph unicode="&#xaa;" glyph-name="ordfeminine" horiz-adv-x="361" d="M101 286T83 300T64 335Q64 370 86 390T154 424L224 447Q240 452 245 457T254 475L260 497Q265 510 265 518Q265 532 247 532Q232 532 217 522Q211 517 210 507T208 493Q206 485 169 473T119
460Q114 460 114 466Q114 471 119 481Q129 496 138 506T168 529Q194 546 234 560T304 575Q340 575 359 558T379 510Q379 493 373 473L336 368Q333 361 333 352Q333 344 336 339T345 334Q352 334 368 343Q370 345 373 345Q375 345 377 343T379 339Q379 332 371 324T354
311Q318 286 283 286Q257 286 243 296T221 325H220Q174 286 129 286Q101 286 83 300ZM199 338T205 342Q211 348 212 353L232 411Q233 412 233 414Q233 417 230 418T223 418Q203 410 193 400T177 365Q175 361 175 354Q175 338 191 338Q199 338 205 342ZM28 159T23
164T17 175Q17 184 27 195T48 206H288Q294 206 300 201T306 190Q306 180 293 170T265 159H35Q28 159 23 164Z" />
<glyph unicode="&#xab;" glyph-name="guillemotleft" horiz-adv-x="622" d="M270 15T262 25T253 36Q210 87 174 116T73 187Q69 189 61 194T50 203T47 210Q47 216 55 222T72 231Q159 269 218 306T378 414Q380 415 386 420T401 425Q412 425 412 417Q412 410 401
395Q351 338 308 304T208 232Q206 230 189 219Q179 213 179 210Q179 209 185 203Q219 166 244 131T293 43Q295 37 295 34Q295 26 291 21T283 15Q270 15 262 25ZM481 15T473 25T464 36Q421 87 385 116T284 187Q280 189 272 194T261 203T258 210Q258 216 266 222T283
231Q370 269 429 306T589 414Q591 415 597 420T612 425Q623 425 623 417Q623 410 612 395Q562 338 519 304T419 232Q417 230 400 219Q390 213 390 210Q390 209 396 203Q430 166 455 131T504 43Q506 37 506 34Q506 26 502 21T494 15Q481 15 473 25Z" />
<glyph unicode="&#xac;" glyph-name="logicalnot" horiz-adv-x="600" d="M492 42T487 48T482 62V299Q482 315 467 315H50Q43 315 37 320T30 330Q30 348 39 368T65 389H538Q556 389 556 368V76Q556 59 536 51T497 42Q492 42 487 48Z" />
<glyph unicode="&#xad;" glyph-name="uni00AD" horiz-adv-x="333" d="M28 163Q17 163 17 174Q17 200 31 217T61 238Q187 258 304 267H306Q314 267 316 263T318 249Q318 236 305 216T279 194Q114 171 30 163H28Z" />
<glyph unicode="&#xae;" glyph-name="registered" horiz-adv-x="719" d="M309 15T238 57T125 170T83 327Q83 412 125 483T238 597T395 639Q480 639 551 597T665 484T707 327Q707 242 665 171T551 57T394 15Q309 15 238 57ZM464 68T522 103T614 197T648 327Q648
395 614 453T522 546T395 580Q326 580 268 546T176 454T142 327Q142 257 176 198T267 103T394 68Q464 68 522 103ZM488 170T448 211T382 308Q377 318 369 318Q363 318 363 309V227Q363 213 371 207T404 195Q416 193 416 182Q416 177 413 173T405 169L360 171L317
172L280 171Q250 169 239 169Q236 169 232 173T228 182Q228 193 240 195Q261 200 267 206T274 227V441Q274 457 268 463T243 475Q232 476 232 486Q232 488 235 490T242 493Q260 493 284 491Q304 489 317 489Q327 489 345 491Q367 493 391 493Q521 493 521 413Q521
383 505 365T460 334Q457 333 459 327Q483 269 518 240T580 211Q587 211 587 202Q587 188 570 179T519 170Q488 170 448 211ZM409 355T423 368T438 402Q438 431 426 443T386 456Q372 456 366 452T360 438V370Q360 355 380 355Q409 355 423 368Z" />
<glyph unicode="&#xaf;" glyph-name="overscore" horiz-adv-x="367" d="M127 510T124 514T120 529Q120 545 129 560T152 586T175 596H436Q449 596 454 593T460 582Q460 570 451 553T427 523T401 510H136Q127 510 124 514Z" />
<glyph unicode="&#xb0;" glyph-name="degree" horiz-adv-x="359" d="M235 376T200 398T144 455T124 531Q124 570 143 603T199 655T280 675Q324 675 359 656T413 603T433 531Q433 491 414 456T359 398T280 376Q235 376 200 398ZM313 436T337 461T362 525Q362 563
338 588T279 613Q243 613 219 589T195 525Q195 486 219 461T279 436Q313 436 337 461Z" />
<glyph unicode="&#xb1;" glyph-name="plusminus" horiz-adv-x="600" d="M279 126T275 131T271 143V344Q271 357 258 357H47Q40 357 35 361T30 370Q30 385 37 400T59 416H257Q266 416 268 419T271 430V600Q271 613 285 623T314 634Q321 634 325 627T330 611V430Q330
416 343 416H547Q556 416 563 412T570 400Q570 386 560 372T536 357H343Q330 357 330 344V155Q330 141 315 134T284 126Q279 126 275 131ZM42 29T36 34T30 44Q30 59 38 76T63 93H545Q556 93 564 88T572 75Q572 60 561 45T534 29H49Q42 29 36 34Z" />
<glyph unicode="&#xb2;" glyph-name="uni00B2" horiz-adv-x="352" d="M340 438T328 439Q276 441 224 441Q187 441 149 440T109 438Q105 438 103 440T100 445Q100 450 107 455L157 498L181 519Q263 588 293 620T323 682Q323 697 312 706T282 716Q264 716 245 705T213
679Q200 664 194 664Q186 664 186 672Q186 675 188 683Q202 722 247 748T340 775Q385 775 410 756T435 697Q435 675 418 653T367 603Q354 591 309 564T251 529L228 515Q227 514 229 513T236 512H337Q353 512 371 523T403 552Q413 564 424 564Q433 564 433 558Q433
553 427 544Q407 517 391 489T371 452Q369 447 364 443T354 438Q340 438 328 439Z" />
<glyph unicode="&#xb3;" glyph-name="uni00B3" horiz-adv-x="306" d="M139 435T123 443T111 463Q115 477 122 487T138 498Q147 498 156 492T168 483Q174 477 184 471T200 465Q213 465 230 477T258 509T270 551Q270 571 261 589T235 607Q214 607 202 598T187 589Q175
589 175 602Q175 609 191 620T221 637Q270 657 289 671T308 701Q308 731 271 731Q256 731 243 725T214 707Q211 704 206 700T198 696Q194 696 191 701T190 711Q192 718 210 733T257 762T324 775Q361 775 382 758T403 715Q403 690 376 671T312 643Q310 642 310 641T311
640Q339 640 359 619T379 569Q379 534 346 503T262 454T165 435Q139 435 123 443Z" />
<glyph unicode="&#xb4;" glyph-name="acute" horiz-adv-x="245" d="M144 469T144 485Q144 495 148 503L221 665Q230 685 239 693T260 702Q277 702 300 683T323 650Q323 634 300 609L189 486Q172 469 158 469Q144 469 144 485Z" />
<glyph unicode="&#xb5;" glyph-name="uni00B5" horiz-adv-x="586" d="M-11 -289T-24 -264T-38 -208Q-38 -140 5 0L16 27Q19 34 27 55T41 92Q57 146 86 255T127 413Q131 424 142 430T168 437Q194 437 217 424T253 393T262 362Q256 344 216 276T141 157Q131 135
131 129Q131 115 143 100T173 84Q212 84 251 120T332 213L398 397Q406 419 415 428T438 437Q455 437 479 428T521 405T539 377Q539 359 497 295T399 163Q396 154 396 147Q396 127 413 117T459 106Q483 106 514 122T548 139Q552 139 555 136T558 127Q558 86 537
54T482 3T418 -15Q390 -15 369 8T347 68Q347 75 349 89Q351 102 360 121L357 122Q355 119 308 53T216 -13Q187 -13 171 -2T143 25T125 46Q119 52 107 70T89 88Q82 88 78 83T68 63Q62 49 57 20T52 -38Q52 -66 61 -97T86 -149Q90 -154 98 -165T111 -184T115 -200Q115
-211 97 -232T55 -271T19 -289Q-11 -289 -24 -264Z" />
<glyph unicode="&#xb6;" glyph-name="paragraph" horiz-adv-x="612" d="M58 -287T22 -258T-14 -184Q-14 -136 7 -101T63 -48T141 -29Q175 -29 195 -45T215 -94Q215 -126 194 -147T142 -168Q121 -168 91 -151Q89 -150 79 -144T57 -138Q46 -138 40 -148T33 -174Q33
-200 54 -220T117 -240Q182 -240 226 -201T294 -90L341 56L343 64Q343 76 332 76Q253 76 192 104T97 183T63 305Q63 350 78 402Q111 510 168 562T314 631T558 648Q602 648 649 645T712 639Q722 636 722 621Q722 617 720 609Q716 597 709 588T696 579Q691 580 659
587T582 595Q573 595 564 587T552 568L352 -78Q322 -173 269 -230T116 -287Q58 -287 22 -258ZM346 124T350 127T357 138L501 583V585Q501 589 495 591T482 593Q448 593 427 583T380 527T322 384Q282 260 282 199Q282 160 297 142T342 124Q346 124 350 127Z" />
<glyph unicode="&#xb7;" glyph-name="middot" horiz-adv-x="267" d="M86 127T66 148T46 196Q46 238 77 270T150 302Q183 302 202 279T222 227Q222 187 190 157T114 127Q86 127 66 148Z" />
<glyph unicode="&#xb8;" glyph-name="cedilla" horiz-adv-x="245" d="M-57 -281T-78 -271T-113 -246T-126 -215Q-126 -196 -118 -186T-95 -176Q-81 -176 -69 -183T-40 -203Q-34 -208 -25 -216T-9 -227T6 -231Q15 -231 19 -226T24 -212Q24 -203 19 -196T6 -182T-8
-169Q-45 -134 -45 -113Q-45 -90 -4 -51T85 17H126Q90 -8 76 -25T62 -57Q62 -65 69 -73T84 -90T95 -100Q127 -129 127 -150Q127 -171 101 -202T37 -257T-33 -281Q-57 -281 -78 -271Z" />
<glyph unicode="&#xb9;" glyph-name="uni00B9" horiz-adv-x="255" d="M113 438T111 440T109 447Q112 457 124 461Q146 465 151 469T160 486L220 684Q222 692 222 696Q222 709 213 717T192 727Q186 728 184 730T184 739Q190 755 206 756Q232 758 243 758Q282 760
303 762T344 774Q354 779 357 779Q364 779 364 774Q364 769 359 757T349 734L272 487Q271 484 270 482T269 476Q269 472 273 469T291 461Q297 458 298 456T298 448Q295 439 287 439L200 441L161 440L117 438Q113 438 111 440Z" />
<glyph unicode="&#xba;" glyph-name="ordmasculine" horiz-adv-x="397" d="M155 293T122 323T88 402Q88 423 94 445Q112 509 173 545T315 582Q373 582 406 553T439 474Q439 455 433 432Q417 370 361 332T214 293Q155 293 122 323ZM258 333T274 360T305 432Q316
467 316 497Q316 542 292 542Q251 542 221 444Q211 413 211 381Q211 359 216 346T234 333Q258 333 274 360ZM39 159T34 164T28 175Q28 184 38 195T59 206H306Q312 206 318 201T324 190Q324 180 311 170T283 159H46Q39 159 34 164Z" />
<glyph unicode="&#xbb;" glyph-name="guillemotright" horiz-adv-x="622" d="M357 425T365 415T374 404Q417 353 453 324T554 253Q558 251 566 246T577 237T580 230Q580 224 572 218T555 209Q468 171 409 134T249 26Q247 25 241 20T226 15Q215 15 215 23Q215 30
226 45Q276 102 319 136T419 208Q421 210 438 221Q448 227 448 230Q448 231 442 237Q408 274 383 309T334 397Q332 403 332 406Q332 414 336 419T344 425Q357 425 365 415ZM146 425T154 415T163 404Q206 353 242 324T343 253Q347 251 355 246T366 237T369 230Q369
224 361 218T344 209Q257 171 198 134T38 26Q36 25 30 20T15 15Q4 15 4 23Q4 30 15 45Q65 102 108 136T208 208Q210 210 227 221Q237 227 237 230Q237 231 231 237Q197 274 172 309T123 397Q121 403 121 406Q121 414 125 419T133 425Q146 425 154 415Z" />
<glyph unicode="&#xbc;" glyph-name="onequarter" horiz-adv-x="696" d="M64 278T62 280T60 287Q63 297 75 301Q97 305 102 309T111 326L171 524Q173 532 173 536Q173 549 164 557T143 567Q137 568 135 570T135 579Q141 595 157 596Q183 598 194 598Q233 600 254
602T295 614Q305 619 308 619Q315 619 315 614Q315 609 310 597T300 574L223 327Q222 324 221 322T220 316Q220 312 224 309T242 301Q248 298 249 296T249 288Q246 279 238 279L151 281L112 280L68 278Q64 278 62 280ZM59 -19T53 -13T46 2Q46 11 52 17L661 653Q668
661 682 665T711 669Q722 669 728 664T735 651Q735 645 730 640L124 8Q100 -19 70 -19Q59 -19 53 -13ZM468 -9T471 -1L496 78L497 82Q497 89 487 89Q437 89 411 88L331 87Q327 87 327 92Q327 97 332 101Q405 167 540 271Q548 278 575 294Q625 327 642 341Q660 355
668 355Q673 355 671 346L605 139Q603 134 610 134Q632 134 641 134T653 135Q658 135 658 131Q658 123 647 107T630 91H599Q590 91 587 84L572 31Q570 23 551 14T509 -2T480 -9Q468 -9 471 -1ZM508 135Q512 135 514 139L542 224Q542 225 541 225T539 224Q441 153
425 139Q423 135 426 135H508Z" />
<glyph unicode="&#xbd;" glyph-name="onehalf" horiz-adv-x="733" d="M64 278T62 280T60 287Q63 297 75 301Q97 305 102 309T111 326L171 524Q173 532 173 536Q173 549 164 557T143 567Q137 568 135 570T135 579Q141 595 157 596Q183 598 194 598Q233 600 254
602T295 614Q305 619 308 619Q315 619 315 614Q315 609 310 597T300 574L223 327Q222 324 221 322T220 316Q220 312 224 309T242 301Q248 298 249 296T249 288Q246 279 238 279L151 281L112 280L68 278Q64 278 62 280ZM56 -19T50 -13T43 2Q43 11 49 17L658 653Q665
661 679 665T708 669Q719 669 725 664T732 651Q732 645 727 640L121 8Q97 -19 67 -19Q56 -19 50 -13ZM581 -16T569 -15Q517 -13 465 -13Q428 -13 390 -14T350 -16Q346 -16 344 -14T341 -9Q341 -4 348 1L398 44L422 65Q504 134 534 166T564 228Q564 243 553 252T523
262Q505 262 486 251T454 225Q441 210 435 210Q427 210 427 218Q427 221 429 229Q443 268 488 294T581 321Q626 321 651 302T676 243Q676 221 659 199T608 149Q595 137 550 110T492 75L469 61Q468 60 470 59T477 58H578Q594 58 612 69T644 98Q654 110 665 110Q674
110 674 104Q674 99 668 90Q648 63 632 35T612 -2Q610 -7 605 -11T595 -16Q581 -16 569 -15Z" />
<glyph unicode="&#xbe;" glyph-name="threequarters" horiz-adv-x="711" d="M89 275T73 283T61 303Q65 317 72 327T88 338Q97 338 106 332T118 323Q124 317 134 311T150 305Q163 305 180 317T208 349T220 391Q220 411 211 429T185 447Q164 447 152 438T137 429Q125
429 125 442Q125 449 141 460T171 477Q220 497 239 511T258 541Q258 571 221 571Q206 571 193 565T164 547Q161 544 156 540T148 536Q144 536 141 541T140 551Q142 558 160 573T207 602T274 615Q311 615 332 598T353 555Q353 530 326 511T262 483Q260 482 260 481T261
480Q289 480 309 459T329 409Q329 374 296 343T212 294T115 275Q89 275 73 283ZM79 -19T73 -13T66 2Q66 11 72 17L681 653Q688 661 702 665T731 669Q742 669 748 664T755 651Q755 645 750 640L144 8Q120 -19 90 -19Q79 -19 73 -13ZM483 -9T486 -1L511 78L512 82Q512
89 502 89Q452 89 426 88L346 87Q342 87 342 92Q342 97 347 101Q420 167 555 271Q563 278 590 294Q640 327 657 341Q675 355 683 355Q688 355 686 346L620 139Q618 134 625 134Q647 134 656 134T668 135Q673 135 673 131Q673 123 662 107T645 91H614Q605 91 602
84L587 31Q585 23 566 14T524 -2T495 -9Q483 -9 486 -1ZM523 135Q527 135 529 139L557 224Q557 225 556 225T554 224Q456 153 440 139Q438 135 441 135H523Z" />
<glyph unicode="&#xbf;" glyph-name="questiondown" horiz-adv-x="404" d="M263 306T277 294T303 262T314 222Q314 183 303 154T256 100T153 54Q37 21 37 -38Q37 -65 54 -81T109 -97Q123 -97 141 -88T165 -75Q168 -73 182 -67T207 -60Q226 -60 238 -72T249 -105Q249
-138 221 -158T152 -178Q111 -178 75 -154T16 -86T-7 16Q-7 56 24 95T102 153L196 190Q222 200 231 210T241 238Q241 253 238 267Q237 273 234 281T231 294Q231 306 255 306Q263 306 277 294ZM317 497T334 480T351 438Q351 402 324 375T262 347Q233 347 217 366T200
411Q200 445 228 471T293 497Q317 497 334 480Z" />
<glyph unicode="&#xc0;" glyph-name="Agrave" horiz-adv-x="766" d="M-68 -5T-68 8Q-68 28 -40 34Q-4 42 34 58T93 98L476 532Q497 557 518 594Q520 597 526 607T536 621T543 625Q605 625 640 644L658 654Q685 672 697 672Q710 672 710 642Q710 623 706 606L608
112Q606 100 606 95Q606 72 622 58T671 34Q685 30 691 26T697 13Q697 6 687 2T666 -2Q645 -2 589 0Q531 2 507 2Q487 2 431 0Q385 -3 347 -3Q339 -3 334 0T329 11Q329 19 337 25T356 34Q392 42 411 56T436 97L466 219Q467 221 467 224Q467 236 453 236H292Q279
236 266 219L204 140Q172 99 172 76Q172 60 184 50T222 34Q232 31 239 26T247 13Q247 6 237 2T215 -2Q192 -2 150 0L91 1Q61 1 25 -2Q12 -3 -5 -4T-45 -5Q-68 -5 -68 8ZM465 284Q473 284 477 286T482 295L529 514Q531 520 531 525T528 530Q523 530 516 523L332
302Q324 292 324 289Q324 284 342 284H465ZM699 693Q688 693 675 698Q618 724 496 785Q478 794 475 806Q472 816 499 831T545 851L557 853Q570 853 581 843Q601 825 635 789Q673 747 701 724Q715 713 715 703Q715 699 712 696T703 693H699Z" />
<glyph unicode="&#xc1;" glyph-name="Aacute" horiz-adv-x="766" d="M-68 -5T-68 8Q-68 28 -40 34Q-4 42 34 58T93 98L476 532Q497 557 518 594Q520 597 526 607T536 621T543 625Q605 625 640 644L658 654Q685 672 697 672Q710 672 710 642Q710 623 706 606L608
112Q606 100 606 95Q606 72 622 58T671 34Q685 30 691 26T697 13Q697 6 687 2T666 -2Q645 -2 589 0Q531 2 507 2Q487 2 431 0Q385 -3 347 -3Q339 -3 334 0T329 11Q329 19 337 25T356 34Q392 42 411 56T436 97L466 219Q467 221 467 224Q467 236 453 236H292Q279
236 266 219L204 140Q172 99 172 76Q172 60 184 50T222 34Q232 31 239 26T247 13Q247 6 237 2T215 -2Q192 -2 150 0L91 1Q61 1 25 -2Q12 -3 -5 -4T-45 -5Q-68 -5 -68 8ZM465 284Q473 284 477 286T482 295L529 514Q531 520 531 525T528 530Q523 530 516 523L332
302Q324 292 324 289Q324 284 342 284H465ZM603 681T601 689V691Q601 697 610 712Q662 794 708 850Q720 865 742 865Q758 865 789 854T820 832Q819 820 802 808Q795 802 789 798T779 791Q699 730 641 691Q626 681 615 681Q603 681 601 689Z" />
<glyph unicode="&#xc2;" glyph-name="Acircumflex" horiz-adv-x="766" d="M-68 -5T-68 8Q-68 28 -40 34Q-4 42 34 58T93 98L476 532Q497 557 518 594Q520 597 526 607T536 621T543 625Q605 625 640 644L658 654Q685 672 697 672Q710 672 710 642Q710 623 706 606L608
112Q606 100 606 95Q606 72 622 58T671 34Q685 30 691 26T697 13Q697 6 687 2T666 -2Q645 -2 589 0Q531 2 507 2Q487 2 431 0Q385 -3 347 -3Q339 -3 334 0T329 11Q329 19 337 25T356 34Q392 42 411 56T436 97L466 219Q467 221 467 224Q467 236 453 236H292Q279
236 266 219L204 140Q172 99 172 76Q172 60 184 50T222 34Q232 31 239 26T247 13Q247 6 237 2T215 -2Q192 -2 150 0L91 1Q61 1 25 -2Q12 -3 -5 -4T-45 -5Q-68 -5 -68 8ZM465 284Q473 284 477 286T482 295L529 514Q531 520 531 525T528 530Q523 530 516 523L332
302Q324 292 324 289Q324 284 342 284H465ZM505 692T500 694T495 701Q495 711 510 721L643 817Q669 836 680 841T704 847Q718 847 725 842T748 817L826 722Q831 716 829 705Q827 699 822 695T808 691Q796 691 759 707T694 740Q688 743 682 743Q676 743 668 740Q635
725 583 709T512 692Q505 692 500 694Z" />
<glyph unicode="&#xc3;" glyph-name="Atilde" horiz-adv-x="766" d="M-68 -5T-68 8Q-68 28 -40 34Q-4 42 34 58T93 98L476 532Q497 557 518 594Q520 597 526 607T536 621T543 625Q605 625 640 644L658 654Q685 672 697 672Q710 672 710 642Q710 623 706 606L608
112Q606 100 606 95Q606 72 622 58T671 34Q685 30 691 26T697 13Q697 6 687 2T666 -2Q645 -2 589 0Q531 2 507 2Q487 2 431 0Q385 -3 347 -3Q339 -3 334 0T329 11Q329 19 337 25T356 34Q392 42 411 56T436 97L466 219Q467 221 467 224Q467 236 453 236H292Q279
236 266 219L204 140Q172 99 172 76Q172 60 184 50T222 34Q232 31 239 26T247 13Q247 6 237 2T215 -2Q192 -2 150 0L91 1Q61 1 25 -2Q12 -3 -5 -4T-45 -5Q-68 -5 -68 8ZM465 284Q473 284 477 286T482 295L529 514Q531 520 531 525T528 530Q523 530 516 523L332
302Q324 292 324 289Q324 284 342 284H465ZM527 691T520 697T513 707Q513 714 529 740T563 789T590 811Q604 811 638 809Q662 807 676 807L697 806Q737 804 764 804Q781 804 799 824Q804 830 810 838T819 846Q824 846 833 839T842 827Q842 823 837 815T824 796Q808
772 801 760Q796 752 792 746T785 735Q776 721 754 721Q744 721 670 727Q592 733 579 733Q567 733 550 712Q535 691 532 691Q527 691 520 697Z" />
<glyph unicode="&#xc4;" glyph-name="Adieresis" horiz-adv-x="766" d="M-68 -5T-68 8Q-68 28 -40 34Q-4 42 34 58T93 98L476 532Q497 557 518 594Q520 597 526 607T536 621T543 625Q605 625 640 644L658 654Q685 672 697 672Q710 672 710 642Q710 623 706 606L608
112Q606 100 606 95Q606 72 622 58T671 34Q685 30 691 26T697 13Q697 6 687 2T666 -2Q645 -2 589 0Q531 2 507 2Q487 2 431 0Q385 -3 347 -3Q339 -3 334 0T329 11Q329 19 337 25T356 34Q392 42 411 56T436 97L466 219Q467 221 467 224Q467 236 453 236H292Q279
236 266 219L204 140Q172 99 172 76Q172 60 184 50T222 34Q232 31 239 26T247 13Q247 6 237 2T215 -2Q192 -2 150 0L91 1Q61 1 25 -2Q12 -3 -5 -4T-45 -5Q-68 -5 -68 8ZM465 284Q473 284 477 286T482 295L529 514Q531 520 531 525T528 530Q523 530 516 523L332
302Q324 292 324 289Q324 284 342 284H465ZM538 686T520 704T501 746Q501 784 530 811T602 839Q628 839 646 819T664 773Q664 738 635 712T565 686Q538 686 520 704ZM737 686T718 704T699 745Q699 784 727 811T800 839Q827 839 845 819T863 773Q863 738 833 712T763
686Q737 686 718 704Z" />
<glyph unicode="&#xc5;" glyph-name="Aring" horiz-adv-x="766" d="M-68 -5T-68 8Q-68 28 -40 34Q-4 42 34 58T93 98L476 532Q497 557 518 594Q520 597 526 607T536 621T543 625Q605 625 640 644L658 654Q685 672 697 672Q710 672 710 642Q710 623 706 606L608
112Q606 100 606 95Q606 72 622 58T671 34Q685 30 691 26T697 13Q697 6 687 2T666 -2Q645 -2 589 0Q531 2 507 2Q487 2 431 0Q385 -3 347 -3Q339 -3 334 0T329 11Q329 19 337 25T356 34Q392 42 411 56T436 97L466 219Q467 221 467 224Q467 236 453 236H292Q279
236 266 219L204 140Q172 99 172 76Q172 60 184 50T222 34Q232 31 239 26T247 13Q247 6 237 2T215 -2Q192 -2 150 0L91 1Q61 1 25 -2Q12 -3 -5 -4T-45 -5Q-68 -5 -68 8ZM465 284Q473 284 477 286T482 295L529 514Q531 520 531 525T528 530Q523 530 516 523L332
302Q324 292 324 289Q324 284 342 284H465ZM613 695T583 713T553 760Q553 809 592 839T692 869Q731 869 762 851T793 803Q793 753 753 724T653 695Q613 695 583 713ZM693 728T709 749T725 796Q725 812 712 822T681 832Q653 832 636 812T619 765Q619 749 632 739T666
728Q693 728 709 749Z" />
<glyph unicode="&#xc6;" glyph-name="AE" horiz-adv-x="913" d="M-72 -5T-67 12Q-64 21 -57 25T-38 34Q-7 43 21 60T69 98L522 599Q525 604 525 606Q525 611 519 612L474 620Q463 622 458 626T453 639Q453 646 461 650T482 655Q522 655 572 652L655 650L788 649Q856
649 936 660Q956 663 966 663Q975 663 980 658T985 642Q976 550 963 508Q960 499 955 494T943 488Q937 488 933 492T928 505Q926 535 923 551T913 579Q905 593 888 603T846 613H769Q720 613 705 557L683 475L657 379Q655 371 655 369Q655 355 675 355H760Q784 355
801 371T838 417Q852 435 865 435Q868 435 870 432T873 424Q873 420 870 412Q853 371 839 329Q825 283 818 246Q811 218 799 218Q792 218 787 224T782 242Q785 311 750 311H656Q634 311 627 288L571 95Q567 83 567 72Q567 57 576 51T605 44H692Q738 44 772 67Q805
89 849 148Q859 160 872 160Q878 160 881 156T882 145Q874 120 851 79T808 8Q800 -4 780 -4L741 -3Q546 0 453 0Q419 0 380 -3Q326 -5 308 -5Q299 -5 296 0T294 11Q296 17 303 23T320 32Q359 42 375 54T400 95Q405 111 411 131T425 175Q446 241 446 241Q447 244
447 249Q447 259 435 259H302Q293 259 286 256T271 242Q191 143 169 109Q152 83 152 69Q152 55 164 48T203 34Q219 31 219 18Q219 -2 193 -2Q169 -2 129 0L70 1Q43 1 14 -2Q5 -2 -13 -3T-46 -5Q-72 -5 -67 12ZM452 307Q467 307 471 320L528 526Q530 537 525 537Q521
537 516 531L339 325Q333 318 333 314Q333 307 349 307H452Z" />
<glyph unicode="&#xc7;" glyph-name="Ccedilla" horiz-adv-x="673" d="M241 -14T183 21T91 117T57 253Q57 370 118 464T283 611T513 664Q544 664 569 659T622 644Q628 642 645 637T675 631Q690 631 701 637Q719 648 731 648Q744 648 744 637Q744 632 739 624Q721
600 698 547T663 452Q660 441 655 435T639 429Q619 429 622 481Q625 525 599 567Q583 594 560 610T511 627Q427 627 362 556T261 380T225 176Q225 27 353 27Q461 27 573 172Q577 178 582 185T590 195T599 199Q608 199 613 191T615 172Q600 117 572 54T530 -9Q520
-9 513 -5T504 2Q490 11 465 11Q452 11 434 6T408 -1Q356 -14 314 -14Q241 -14 183 21ZM215 -281T194 -271T159 -246T146 -215Q146 -196 154 -186T177 -176Q191 -176 203 -183T232 -203Q238 -208 247 -216T263 -227T278 -231Q287 -231 291 -226T296 -212Q296 -203
291 -196T278 -182T264 -169Q227 -134 227 -113Q227 -90 268 -51T357 17H398Q362 -8 348 -25T334 -57Q334 -65 341 -73T356 -90T367 -100Q399 -129 399 -150Q399 -171 373 -202T309 -257T239 -281Q215 -281 194 -271Z" />
<glyph unicode="&#xc8;" glyph-name="Egrave" horiz-adv-x="572" d="M-52 -5T-55 -2T-59 7Q-59 14 -52 21T-33 32Q6 43 22 54T47 95L188 551Q193 566 193 580Q193 595 183 603T149 618Q138 621 134 627T132 639Q137 655 176 655Q197 655 227 652Q240 651 259 650T302
649L468 650Q529 650 562 656T602 663Q610 663 616 657T622 641Q622 628 611 589Q596 531 596 509Q596 500 591 495T580 489Q575 489 570 493T564 506Q556 567 542 590T491 614H423Q397 614 381 597T350 532L306 379Q304 371 304 369Q304 355 324 355H408Q433 355
451 370T488 417Q493 425 500 430T515 435Q518 435 520 432T523 424Q523 420 520 412Q497 357 489 329Q481 303 468 246Q461 218 449 218Q441 218 436 225T432 242Q437 311 402 311H305Q283 311 276 288L226 115Q221 100 221 83Q221 38 280 38H352Q371 38 392 45T432
64Q448 74 461 91T497 141Q501 149 511 163Q516 171 519 173T529 175Q535 175 537 170T540 152Q540 134 521 85T482 8Q473 -4 454 -4L411 -3Q192 0 100 0Q66 0 27 -3Q-27 -5 -45 -5Q-52 -5 -55 -2ZM444 693Q433 693 420 698Q363 724 241 785Q223 794 220 806Q217
816 244 831T290 851L302 853Q315 853 326 843Q346 825 380 789Q418 747 446 724Q460 713 460 703Q460 699 457 696T448 693H444Z" />
<glyph unicode="&#xc9;" glyph-name="Eacute" horiz-adv-x="572" d="M-52 -5T-55 -2T-59 7Q-59 14 -52 21T-33 32Q6 43 22 54T47 95L188 551Q193 566 193 580Q193 595 183 603T149 618Q138 621 134 627T132 639Q137 655 176 655Q197 655 227 652Q240 651 259 650T302
649L468 650Q529 650 562 656T602 663Q610 663 616 657T622 641Q622 628 611 589Q596 531 596 509Q596 500 591 495T580 489Q575 489 570 493T564 506Q556 567 542 590T491 614H423Q397 614 381 597T350 532L306 379Q304 371 304 369Q304 355 324 355H408Q433 355
451 370T488 417Q493 425 500 430T515 435Q518 435 520 432T523 424Q523 420 520 412Q497 357 489 329Q481 303 468 246Q461 218 449 218Q441 218 436 225T432 242Q437 311 402 311H305Q283 311 276 288L226 115Q221 100 221 83Q221 38 280 38H352Q371 38 392 45T432
64Q448 74 461 91T497 141Q501 149 511 163Q516 171 519 173T529 175Q535 175 537 170T540 152Q540 134 521 85T482 8Q473 -4 454 -4L411 -3Q192 0 100 0Q66 0 27 -3Q-27 -5 -45 -5Q-52 -5 -55 -2ZM348 681T346 689V691Q346 697 355 712Q407 794 453 850Q465 865
487 865Q503 865 534 854T565 832Q564 820 547 808Q540 802 534 798T524 791Q444 730 386 691Q371 681 360 681Q348 681 346 689Z" />
<glyph unicode="&#xca;" glyph-name="Ecircumflex" horiz-adv-x="572" d="M-52 -5T-55 -2T-59 7Q-59 14 -52 21T-33 32Q6 43 22 54T47 95L188 551Q193 566 193 580Q193 595 183 603T149 618Q138 621 134 627T132 639Q137 655 176 655Q197 655 227 652Q240 651
259 650T302 649L468 650Q529 650 562 656T602 663Q610 663 616 657T622 641Q622 628 611 589Q596 531 596 509Q596 500 591 495T580 489Q575 489 570 493T564 506Q556 567 542 590T491 614H423Q397 614 381 597T350 532L306 379Q304 371 304 369Q304 355 324 355H408Q433
355 451 370T488 417Q493 425 500 430T515 435Q518 435 520 432T523 424Q523 420 520 412Q497 357 489 329Q481 303 468 246Q461 218 449 218Q441 218 436 225T432 242Q437 311 402 311H305Q283 311 276 288L226 115Q221 100 221 83Q221 38 280 38H352Q371 38 392
45T432 64Q448 74 461 91T497 141Q501 149 511 163Q516 171 519 173T529 175Q535 175 537 170T540 152Q540 134 521 85T482 8Q473 -4 454 -4L411 -3Q192 0 100 0Q66 0 27 -3Q-27 -5 -45 -5Q-52 -5 -55 -2ZM250 692T245 694T240 701Q240 711 255 721L388 817Q414
836 425 841T449 847Q463 847 470 842T493 817L571 722Q576 716 574 705Q572 699 567 695T553 691Q541 691 504 707T439 740Q433 743 427 743Q421 743 413 740Q380 725 328 709T257 692Q250 692 245 694Z" />
<glyph unicode="&#xcb;" glyph-name="Edieresis" horiz-adv-x="572" d="M-52 -5T-55 -2T-59 7Q-59 14 -52 21T-33 32Q6 43 22 54T47 95L188 551Q193 566 193 580Q193 595 183 603T149 618Q138 621 134 627T132 639Q137 655 176 655Q197 655 227 652Q240 651 259
650T302 649L468 650Q529 650 562 656T602 663Q610 663 616 657T622 641Q622 628 611 589Q596 531 596 509Q596 500 591 495T580 489Q575 489 570 493T564 506Q556 567 542 590T491 614H423Q397 614 381 597T350 532L306 379Q304 371 304 369Q304 355 324 355H408Q433
355 451 370T488 417Q493 425 500 430T515 435Q518 435 520 432T523 424Q523 420 520 412Q497 357 489 329Q481 303 468 246Q461 218 449 218Q441 218 436 225T432 242Q437 311 402 311H305Q283 311 276 288L226 115Q221 100 221 83Q221 38 280 38H352Q371 38 392
45T432 64Q448 74 461 91T497 141Q501 149 511 163Q516 171 519 173T529 175Q535 175 537 170T540 152Q540 134 521 85T482 8Q473 -4 454 -4L411 -3Q192 0 100 0Q66 0 27 -3Q-27 -5 -45 -5Q-52 -5 -55 -2ZM283 686T265 704T246 746Q246 784 275 811T347 839Q373
839 391 819T409 773Q409 738 380 712T310 686Q283 686 265 704ZM482 686T463 704T444 745Q444 784 472 811T545 839Q572 839 590 819T608 773Q608 738 578 712T508 686Q482 686 463 704Z" />
<glyph unicode="&#xcc;" glyph-name="Igrave" horiz-adv-x="381" d="M-40 -3T-44 1T-46 12Q-40 29 -20 34Q22 43 39 55T65 97L206 551Q211 569 211 579Q211 594 200 602T160 618Q142 623 148 640Q150 646 157 650T171 655Q207 655 248 652Q300 650 319 650L395
652Q453 654 476 654Q492 654 487 639Q484 630 479 626T461 618Q416 605 400 593T375 550L249 142Q233 89 233 74Q233 59 241 52T272 39Q292 34 299 30T306 19Q306 9 300 4T284 -2L199 0L119 2Q100 2 46 0Q4 -3 -33 -3Q-40 -3 -44 1ZM372 693Q361 693 348 698Q291
724 169 785Q151 794 148 806Q145 816 172 831T218 851L230 853Q243 853 254 843Q274 825 308 789Q346 747 374 724Q388 713 388 703Q388 699 385 696T376 693H372Z" />
<glyph unicode="&#xcd;" glyph-name="Iacute" horiz-adv-x="381" d="M-40 -3T-44 1T-46 12Q-40 29 -20 34Q22 43 39 55T65 97L206 551Q211 569 211 579Q211 594 200 602T160 618Q142 623 148 640Q150 646 157 650T171 655Q207 655 248 652Q300 650 319 650L395
652Q453 654 476 654Q492 654 487 639Q484 630 479 626T461 618Q416 605 400 593T375 550L249 142Q233 89 233 74Q233 59 241 52T272 39Q292 34 299 30T306 19Q306 9 300 4T284 -2L199 0L119 2Q100 2 46 0Q4 -3 -33 -3Q-40 -3 -44 1ZM276 681T274 689V691Q274 697
283 712Q335 794 381 850Q393 865 415 865Q431 865 462 854T493 832Q492 820 475 808Q468 802 462 798T452 791Q372 730 314 691Q299 681 288 681Q276 681 274 689Z" />
<glyph unicode="&#xce;" glyph-name="Icircumflex" horiz-adv-x="381" d="M-40 -3T-44 1T-46 12Q-40 29 -20 34Q22 43 39 55T65 97L206 551Q211 569 211 579Q211 594 200 602T160 618Q142 623 148 640Q150 646 157 650T171 655Q207 655 248 652Q300 650 319 650L395
652Q453 654 476 654Q492 654 487 639Q484 630 479 626T461 618Q416 605 400 593T375 550L249 142Q233 89 233 74Q233 59 241 52T272 39Q292 34 299 30T306 19Q306 9 300 4T284 -2L199 0L119 2Q100 2 46 0Q4 -3 -33 -3Q-40 -3 -44 1ZM178 692T173 694T168 701Q168
711 183 721L316 817Q342 836 353 841T377 847Q391 847 398 842T421 817L499 722Q504 716 502 705Q500 699 495 695T481 691Q469 691 432 707T367 740Q361 743 355 743Q349 743 341 740Q308 725 256 709T185 692Q178 692 173 694Z" />
<glyph unicode="&#xcf;" glyph-name="Idieresis" horiz-adv-x="381" d="M-40 -3T-44 1T-46 12Q-40 29 -20 34Q22 43 39 55T65 97L206 551Q211 569 211 579Q211 594 200 602T160 618Q142 623 148 640Q150 646 157 650T171 655Q207 655 248 652Q300 650 319 650L395
652Q453 654 476 654Q492 654 487 639Q484 630 479 626T461 618Q416 605 400 593T375 550L249 142Q233 89 233 74Q233 59 241 52T272 39Q292 34 299 30T306 19Q306 9 300 4T284 -2L199 0L119 2Q100 2 46 0Q4 -3 -33 -3Q-40 -3 -44 1ZM211 686T193 704T174 746Q174
784 203 811T275 839Q301 839 319 819T337 773Q337 738 308 712T238 686Q211 686 193 704ZM410 686T391 704T372 745Q372 784 400 811T473 839Q500 839 518 819T536 773Q536 738 506 712T436 686Q410 686 391 704Z" />
<glyph unicode="&#xd0;" glyph-name="Eth" horiz-adv-x="729" d="M544 654T609 618T708 520T742 385Q742 282 683 192T522 47T303 -7Q238 -7 156 1Q122 4 106 4Q86 4 67 3T33 1Q-25 -3 -48 -3Q-55 -3 -59 1T-61 12Q-55 29 -35 34Q7 43 24 55T50 97L114 304H58Q42
304 42 322Q42 340 54 353T82 366H134L191 551Q196 569 196 579Q196 595 185 602T145 618Q127 623 133 640Q135 646 142 650T156 655Q192 655 233 652Q285 650 304 650Q319 650 357 652Q409 654 454 654Q544 654 609 618ZM367 31T429 86T529 227T568 402Q568 514
533 564T434 615Q405 615 389 605T365 572L304 366H383Q393 366 399 360T401 347Q391 328 375 316T344 304H285L230 119Q226 106 226 92Q226 61 249 46T302 31Q367 31 429 86Z" />
<glyph unicode="&#xd1;" glyph-name="Ntilde" horiz-adv-x="783" d="M888 652T888 637Q888 626 854 619Q827 614 811 604T782 572T755 505Q721 396 704 336L650 158Q641 131 641 114Q641 95 656 69Q658 65 665 53T679 34Q683 30 690 25T698 16Q698 7 693 4T676
0Q636 0 604 -5Q596 -6 582 -7T555 -8Q527 -8 513 5T485 52Q473 83 417 218T335 414L305 486Q304 489 302 492T297 496Q292 496 289 487T284 477Q254 407 215 293T162 113Q158 91 158 85Q158 64 171 54T220 34Q241 28 241 18Q241 9 231 4T211 -2Q177 -2 149 0L115
1Q86 1 50 0T3 -3Q-4 -3 -10 1T-15 12Q-11 25 16 33Q46 40 66 60T100 115L251 510Q261 536 261 556Q261 586 238 601T168 620Q141 623 141 642Q141 648 152 653T174 658L254 656Q275 655 305 654T372 653Q397 653 408 631L599 199Q604 187 609 187Q616 187 621
201Q633 231 657 317T698 490Q704 519 704 540Q704 577 684 595T620 621Q604 624 604 634Q604 641 612 646T630 651Q671 651 715 647L745 645Q763 645 776 646T799 648Q841 652 869 652Q888 652 888 637ZM404 691T397 697T390 707Q390 714 406 740T440 789T467
811Q481 811 515 809Q539 807 553 807L574 806Q614 804 641 804Q658 804 676 824Q681 830 687 838T696 846Q701 846 710 839T719 827Q719 823 714 815T701 796Q685 772 678 760Q673 752 669 746T662 735Q653 721 631 721Q621 721 547 727Q469 733 456 733Q444 733
427 712Q412 691 409 691Q404 691 397 697Z" />
<glyph unicode="&#xd2;" glyph-name="Ograve" horiz-adv-x="692" d="M225 -14T171 18T85 109T53 242Q53 351 109 448T262 605T470 664Q537 664 591 632T678 541T710 408Q710 299 653 202T500 45T292 -14Q225 -14 171 18ZM355 25T417 101T519 285T559 473Q559 540
536 584T469 629Q405 629 344 552T243 366T203 176Q203 109 225 67T291 25Q355 25 417 101ZM546 693Q535 693 522 698Q465 724 343 785Q325 794 322 806Q319 816 346 831T392 851L404 853Q417 853 428 843Q448 825 482 789Q520 747 548 724Q562 713 562 703Q562
699 559 696T550 693H546Z" />
<glyph unicode="&#xd3;" glyph-name="Oacute" horiz-adv-x="692" d="M225 -14T171 18T85 109T53 242Q53 351 109 448T262 605T470 664Q537 664 591 632T678 541T710 408Q710 299 653 202T500 45T292 -14Q225 -14 171 18ZM355 25T417 101T519 285T559 473Q559 540
536 584T469 629Q405 629 344 552T243 366T203 176Q203 109 225 67T291 25Q355 25 417 101ZM450 681T448 689V691Q448 697 457 712Q509 794 555 850Q567 865 589 865Q605 865 636 854T667 832Q666 820 649 808Q642 802 636 798T626 791Q546 730 488 691Q473 681
462 681Q450 681 448 689Z" />
<glyph unicode="&#xd4;" glyph-name="Ocircumflex" horiz-adv-x="692" d="M225 -14T171 18T85 109T53 242Q53 351 109 448T262 605T470 664Q537 664 591 632T678 541T710 408Q710 299 653 202T500 45T292 -14Q225 -14 171 18ZM355 25T417 101T519 285T559 473Q559
540 536 584T469 629Q405 629 344 552T243 366T203 176Q203 109 225 67T291 25Q355 25 417 101ZM352 692T347 694T342 701Q342 711 357 721L490 817Q516 836 527 841T551 847Q565 847 572 842T595 817L673 722Q678 716 676 705Q674 699 669 695T655 691Q643 691
606 707T541 740Q535 743 529 743Q523 743 515 740Q482 725 430 709T359 692Q352 692 347 694Z" />
<glyph unicode="&#xd5;" glyph-name="Otilde" horiz-adv-x="692" d="M225 -14T171 18T85 109T53 242Q53 351 109 448T262 605T470 664Q537 664 591 632T678 541T710 408Q710 299 653 202T500 45T292 -14Q225 -14 171 18ZM355 25T417 101T519 285T559 473Q559 540
536 584T469 629Q405 629 344 552T243 366T203 176Q203 109 225 67T291 25Q355 25 417 101ZM374 691T367 697T360 707Q360 714 376 740T410 789T437 811Q451 811 485 809Q509 807 523 807L544 806Q584 804 611 804Q628 804 646 824Q651 830 657 838T666 846Q671
846 680 839T689 827Q689 823 684 815T671 796Q655 772 648 760Q643 752 639 746T632 735Q623 721 601 721Q591 721 517 727Q439 733 426 733Q414 733 397 712Q382 691 379 691Q374 691 367 697Z" />
<glyph unicode="&#xd6;" glyph-name="Odieresis" horiz-adv-x="692" d="M225 -14T171 18T85 109T53 242Q53 351 109 448T262 605T470 664Q537 664 591 632T678 541T710 408Q710 299 653 202T500 45T292 -14Q225 -14 171 18ZM355 25T417 101T519 285T559 473Q559
540 536 584T469 629Q405 629 344 552T243 366T203 176Q203 109 225 67T291 25Q355 25 417 101ZM385 686T367 704T348 746Q348 784 377 811T449 839Q475 839 493 819T511 773Q511 738 482 712T412 686Q385 686 367 704ZM584 686T565 704T546 745Q546 784 574 811T647
839Q674 839 692 819T710 773Q710 738 680 712T610 686Q584 686 565 704Z" />
<glyph unicode="&#xd7;" glyph-name="multiply" horiz-adv-x="568" d="M454 49T445 58L303 199Q299 203 294 203Q289 203 284 198L150 63Q141 54 131 54Q123 54 115 68T107 98Q107 110 113 116L240 242Q246 248 246 252Q246 256 240 262L109 395Q103 401 103 409Q103
420 109 432T123 451Q126 454 131 454Q139 454 145 448L285 306Q290 301 294 301Q298 301 303 306L445 448Q451 454 458 454Q464 454 467 451Q474 444 480 432T487 409Q487 401 481 395L348 261Q343 256 343 252Q343 248 348 243L482 111Q489 104 489 92Q489 80
482 65T464 49Q454 49 445 58Z" />
<glyph unicode="&#xd8;" glyph-name="Oslash" horiz-adv-x="692" d="M778 664T786 654T794 629Q794 601 777 587L690 517Q710 468 710 408Q710 299 653 202T500 45T292 -14Q241 -14 197 5T120 59L43 -4Q32 -14 18 -14Q0 -14 -13 -1T-26 27Q-26 50 -8 63L75 129Q53
181 53 242Q53 351 109 448T262 605T470 664Q524 664 570 643T650 583L737 652Q752 664 765 664Q778 664 786 654ZM411 629T355 565T259 407T207 228L556 517Q550 567 528 598T469 629Q411 629 355 565ZM348 25T404 86T500 239T554 414L207 123Q214 78 235 52T291
25Q348 25 404 86Z" />
<glyph unicode="&#xd9;" glyph-name="Ugrave" horiz-adv-x="715" d="M210 -14T149 37T88 174Q88 214 101 256L188 536Q193 553 193 567Q193 608 161 618Q140 624 140 635Q140 644 149 649T172 655Q207 655 243 652Q287 650 307 650Q326 650 378 652Q434 654 455
654Q478 654 478 643Q478 634 468 628T439 616L418 608Q377 591 357 530L262 237Q253 209 253 184Q253 132 286 100T368 68Q441 68 500 123T588 260Q629 378 646 445Q661 506 661 547Q661 574 654 589T632 614Q626 617 617 620T602 627T596 636Q596 654 630 654Q660
654 690 652L731 651Q749 651 773 653Q799 655 820 655Q841 655 841 645Q841 627 807 618Q770 608 752 591T721 534Q696 460 660 342L633 257Q593 127 517 57T318 -14Q210 -14 149 37ZM588 693Q577 693 564 698Q507 724 385 785Q367 794 364 806Q361 816 388 831T434
851L446 853Q459 853 470 843Q490 825 524 789Q562 747 590 724Q604 713 604 703Q604 699 601 696T592 693H588Z" />
<glyph unicode="&#xda;" glyph-name="Uacute" horiz-adv-x="715" d="M210 -14T149 37T88 174Q88 214 101 256L188 536Q193 553 193 567Q193 608 161 618Q140 624 140 635Q140 644 149 649T172 655Q207 655 243 652Q287 650 307 650Q326 650 378 652Q434 654 455
654Q478 654 478 643Q478 634 468 628T439 616L418 608Q377 591 357 530L262 237Q253 209 253 184Q253 132 286 100T368 68Q441 68 500 123T588 260Q629 378 646 445Q661 506 661 547Q661 574 654 589T632 614Q626 617 617 620T602 627T596 636Q596 654 630 654Q660
654 690 652L731 651Q749 651 773 653Q799 655 820 655Q841 655 841 645Q841 627 807 618Q770 608 752 591T721 534Q696 460 660 342L633 257Q593 127 517 57T318 -14Q210 -14 149 37ZM492 681T490 689V691Q490 697 499 712Q551 794 597 850Q609 865 631 865Q647
865 678 854T709 832Q708 820 691 808Q684 802 678 798T668 791Q588 730 530 691Q515 681 504 681Q492 681 490 689Z" />
<glyph unicode="&#xdb;" glyph-name="Ucircumflex" horiz-adv-x="715" d="M210 -14T149 37T88 174Q88 214 101 256L188 536Q193 553 193 567Q193 608 161 618Q140 624 140 635Q140 644 149 649T172 655Q207 655 243 652Q287 650 307 650Q326 650 378 652Q434 654
455 654Q478 654 478 643Q478 634 468 628T439 616L418 608Q377 591 357 530L262 237Q253 209 253 184Q253 132 286 100T368 68Q441 68 500 123T588 260Q629 378 646 445Q661 506 661 547Q661 574 654 589T632 614Q626 617 617 620T602 627T596 636Q596 654 630
654Q660 654 690 652L731 651Q749 651 773 653Q799 655 820 655Q841 655 841 645Q841 627 807 618Q770 608 752 591T721 534Q696 460 660 342L633 257Q593 127 517 57T318 -14Q210 -14 149 37ZM394 692T389 694T384 701Q384 711 399 721L532 817Q558 836 569 841T593
847Q607 847 614 842T637 817L715 722Q720 716 718 705Q716 699 711 695T697 691Q685 691 648 707T583 740Q577 743 571 743Q565 743 557 740Q524 725 472 709T401 692Q394 692 389 694Z" />
<glyph unicode="&#xdc;" glyph-name="Udieresis" horiz-adv-x="715" d="M210 -14T149 37T88 174Q88 214 101 256L188 536Q193 553 193 567Q193 608 161 618Q140 624 140 635Q140 644 149 649T172 655Q207 655 243 652Q287 650 307 650Q326 650 378 652Q434 654
455 654Q478 654 478 643Q478 634 468 628T439 616L418 608Q377 591 357 530L262 237Q253 209 253 184Q253 132 286 100T368 68Q441 68 500 123T588 260Q629 378 646 445Q661 506 661 547Q661 574 654 589T632 614Q626 617 617 620T602 627T596 636Q596 654 630
654Q660 654 690 652L731 651Q749 651 773 653Q799 655 820 655Q841 655 841 645Q841 627 807 618Q770 608 752 591T721 534Q696 460 660 342L633 257Q593 127 517 57T318 -14Q210 -14 149 37ZM427 686T409 704T390 746Q390 784 419 811T491 839Q517 839 535 819T553
773Q553 738 524 712T454 686Q427 686 409 704ZM626 686T607 704T588 745Q588 784 616 811T689 839Q716 839 734 819T752 773Q752 738 722 712T652 686Q626 686 607 704Z" />
<glyph unicode="&#xdd;" glyph-name="Yacute" horiz-adv-x="669" d="M107 -6T101 -1T97 11Q101 27 132 33Q172 40 192 59T222 110L264 246Q274 275 274 300Q274 324 265 353L204 554Q196 577 186 592T158 613Q140 620 134 624T127 634Q127 643 134 648T152 654Q174
654 199 653T236 651Q273 648 316 648Q334 648 348 649T373 651Q417 655 446 655Q454 655 461 652T468 642Q468 633 458 627T434 618Q394 609 378 597T362 564Q362 555 365 543L407 356Q410 342 413 338T421 333Q428 333 442 350Q477 392 521 449L587 532Q613 565
613 583Q613 611 568 618Q558 620 551 624T543 636Q543 644 554 649T578 654Q592 654 622 652Q647 649 676 649Q697 649 733 653Q767 657 788 657Q813 657 813 644Q813 634 805 630T780 620Q747 611 717 595T670 559Q572 444 493 358Q457 319 438 259L393 111Q386
90 386 75Q386 59 397 50T434 33Q458 27 458 16Q458 7 449 1T426 -5Q404 -5 346 -1Q290 3 272 3Q253 3 199 -1Q152 -6 119 -6Q107 -6 101 -1ZM456 681T454 689V691Q454 697 463 712Q515 794 561 850Q573 865 595 865Q611 865 642 854T673 832Q672 820 655 808Q648
802 642 798T632 791Q552 730 494 691Q479 681 468 681Q456 681 454 689Z" />
<glyph unicode="&#xde;" glyph-name="Thorn" horiz-adv-x="629" d="M521 558T579 506T638 370Q638 305 598 250T487 162T330 129Q304 129 294 135T283 153Q283 165 305 169L345 174Q394 180 426 213T474 290T489 367Q489 446 463 480T399 515Q385 515 376 509T358
484T336 425L235 98Q231 86 231 76Q231 62 242 54T281 34Q288 31 291 29T294 20Q294 9 288 4T272 -2Q249 -2 193 0Q137 2 119 2Q100 2 46 0Q4 -3 -33 -3Q-40 -3 -44 1T-46 12Q-40 29 -20 34Q22 43 39 55T65 97L206 551Q211 569 211 579Q211 594 200 602T160 618Q142
623 148 640Q150 646 157 650T171 655Q207 655 248 652Q300 650 319 650L395 652Q453 654 476 654Q492 654 487 639Q484 630 479 626T461 618Q419 606 403 594T377 557Q391 558 420 558Q521 558 579 506Z" />
<glyph unicode="&#xdf;" glyph-name="germandbls" horiz-adv-x="580" d="M-147 -291T-183 -274T-219 -215Q-219 -189 -203 -169T-165 -149Q-156 -149 -148 -157T-125 -185Q-119 -193 -109 -208T-89 -233T-68 -242Q-44 -242 -30 -214T3 -110L65 153L111 347Q154
531 269 618T537 706Q688 706 688 623Q688 581 655 549T564 482Q556 476 540 466Q502 441 485 428T454 396T441 357Q441 342 449 323T474 274L488 248L501 225Q518 195 526 176T534 138Q534 117 514 87T463 32Q403 -14 342 -14Q297 -14 269 5T240 56Q240 81 252
100T284 119Q305 119 328 83Q332 78 342 64T361 42T380 34Q394 34 403 44T413 69Q413 106 376 161Q353 194 341 220T329 273Q329 328 359 368T442 451Q507 504 535 539T564 614Q564 639 549 654T501 669Q418 669 358 595T268 391L226 204Q209 133 183 17Q164 -72
120 -142T20 -252T-92 -291Q-147 -291 -183 -274Z" />
<glyph unicode="&#xe0;" glyph-name="agrave" horiz-adv-x="552" d="M15 -14T-6 3T-28 38Q-28 67 -12 101T45 188T160 325Q201 372 239 402T298 432Q311 432 329 425T364 403Q371 396 373 396H374Q376 396 377 398T379 403Q390 425 394 435Q396 440 403 443T421
447Q446 447 474 430T503 399Q503 393 502 392L405 126Q403 118 403 115Q403 102 415 102Q425 102 448 119T497 161Q500 164 501 164Q506 164 510 159T514 147Q514 131 494 106T441 53Q403 22 367 4T307 -14Q282 -14 259 5T235 44Q235 50 240 67Q248 90 272 146V148Q272
151 269 152T264 152Q190 67 135 27T36 -14Q15 -14 -6 3ZM168 101T203 131T274 206Q305 244 323 273T341 315Q341 324 319 342Q308 350 298 355T280 361Q265 361 239 344T190 302Q163 274 143 226T122 137Q122 120 130 111T152 101Q168 101 203 131ZM334 469T317
486L206 609Q183 634 183 650Q183 664 206 683T246 702Q258 702 267 694T285 665L358 503Q362 495 362 485Q362 469 348 469Q334 469 317 486Z" />
<glyph unicode="&#xe1;" glyph-name="aacute" horiz-adv-x="552" d="M15 -14T-6 3T-28 38Q-28 67 -12 101T45 188T160 325Q201 372 239 402T298 432Q311 432 329 425T364 403Q371 396 373 396H374Q376 396 377 398T379 403Q390 425 394 435Q396 440 403 443T421
447Q446 447 474 430T503 399Q503 393 502 392L405 126Q403 118 403 115Q403 102 415 102Q425 102 448 119T497 161Q500 164 501 164Q506 164 510 159T514 147Q514 131 494 106T441 53Q403 22 367 4T307 -14Q282 -14 259 5T235 44Q235 50 240 67Q248 90 272 146V148Q272
151 269 152T264 152Q190 67 135 27T36 -14Q15 -14 -6 3ZM168 101T203 131T274 206Q305 244 323 273T341 315Q341 324 319 342Q308 350 298 355T280 361Q265 361 239 344T190 302Q163 274 143 226T122 137Q122 120 130 111T152 101Q168 101 203 131ZM306 469T306
485Q306 495 310 503L383 665Q392 685 401 693T422 702Q439 702 462 683T485 650Q485 634 462 609L351 486Q334 469 320 469Q306 469 306 485Z" />
<glyph unicode="&#xe2;" glyph-name="acircumflex" horiz-adv-x="552" d="M15 -14T-6 3T-28 38Q-28 67 -12 101T45 188T160 325Q201 372 239 402T298 432Q311 432 329 425T364 403Q371 396 373 396H374Q376 396 377 398T379 403Q390 425 394 435Q396 440 403 443T421
447Q446 447 474 430T503 399Q503 393 502 392L405 126Q403 118 403 115Q403 102 415 102Q425 102 448 119T497 161Q500 164 501 164Q506 164 510 159T514 147Q514 131 494 106T441 53Q403 22 367 4T307 -14Q282 -14 259 5T235 44Q235 50 240 67Q248 90 272 146V148Q272
151 269 152T264 152Q190 67 135 27T36 -14Q15 -14 -6 3ZM168 101T203 131T274 206Q305 244 323 273T341 315Q341 324 319 342Q308 350 298 355T280 361Q265 361 239 344T190 302Q163 274 143 226T122 137Q122 120 130 111T152 101Q168 101 203 131ZM412 698T417
689T429 655L444 605Q461 546 466 522Q468 512 468 507Q468 494 462 486T444 477Q428 477 412 512Q397 544 374 579Q371 583 369 583Q366 583 362 579Q320 543 302 529L281 511Q241 477 228 477Q223 477 220 480T217 490Q217 504 232 522Q275 572 321 623L351 657Q370
679 381 688T403 698Q412 698 417 689Z" />
<glyph unicode="&#xe3;" glyph-name="atilde" horiz-adv-x="552" d="M15 -14T-6 3T-28 38Q-28 67 -12 101T45 188T160 325Q201 372 239 402T298 432Q311 432 329 425T364 403Q371 396 373 396H374Q376 396 377 398T379 403Q390 425 394 435Q396 440 403 443T421
447Q446 447 474 430T503 399Q503 393 502 392L405 126Q403 118 403 115Q403 102 415 102Q425 102 448 119T497 161Q500 164 501 164Q506 164 510 159T514 147Q514 131 494 106T441 53Q403 22 367 4T307 -14Q282 -14 259 5T235 44Q235 50 240 67Q248 90 272 146V148Q272
151 269 152T264 152Q190 67 135 27T36 -14Q15 -14 -6 3ZM168 101T203 131T274 206Q305 244 323 273T341 315Q341 324 319 342Q308 350 298 355T280 361Q265 361 239 344T190 302Q163 274 143 226T122 137Q122 120 130 111T152 101Q168 101 203 131ZM214 467T205
475T195 487Q195 494 215 523T259 577T290 603Q299 603 317 600T362 595Q424 591 432 591Q450 591 467 611Q472 617 479 626T490 636Q495 636 504 628T513 616Q513 612 505 601T492 583Q477 561 467 543L449 516Q440 502 418 502Q408 502 344 506Q289 511 265 511Q254
511 246 500Q235 485 228 476T218 467Q214 467 205 475Z" />
<glyph unicode="&#xe4;" glyph-name="adieresis" horiz-adv-x="552" d="M15 -14T-6 3T-28 38Q-28 67 -12 101T45 188T160 325Q201 372 239 402T298 432Q311 432 329 425T364 403Q371 396 373 396H374Q376 396 377 398T379 403Q390 425 394 435Q396 440 403 443T421
447Q446 447 474 430T503 399Q503 393 502 392L405 126Q403 118 403 115Q403 102 415 102Q425 102 448 119T497 161Q500 164 501 164Q506 164 510 159T514 147Q514 131 494 106T441 53Q403 22 367 4T307 -14Q282 -14 259 5T235 44Q235 50 240 67Q248 90 272 146V148Q272
151 269 152T264 152Q190 67 135 27T36 -14Q15 -14 -6 3ZM168 101T203 131T274 206Q305 244 323 273T341 315Q341 324 319 342Q308 350 298 355T280 361Q265 361 239 344T190 302Q163 274 143 226T122 137Q122 120 130 111T152 101Q168 101 203 131ZM209 490T194
506T179 548Q179 587 210 615T282 643Q310 643 325 628T341 586Q341 547 310 519T234 490Q209 490 194 506ZM413 490T398 506T383 548Q383 587 414 615T486 643Q514 643 529 628T545 586Q545 547 514 519T438 490Q413 490 398 506Z" />
<glyph unicode="&#xe5;" glyph-name="aring" horiz-adv-x="552" d="M15 -14T-6 3T-28 38Q-28 67 -12 101T45 188T160 325Q201 372 239 402T298 432Q311 432 329 425T364 403Q371 396 373 396H374Q376 396 377 398T379 403Q390 425 394 435Q396 440 403 443T421
447Q446 447 474 430T503 399Q503 393 502 392L405 126Q403 118 403 115Q403 102 415 102Q425 102 448 119T497 161Q500 164 501 164Q506 164 510 159T514 147Q514 131 494 106T441 53Q403 22 367 4T307 -14Q282 -14 259 5T235 44Q235 50 240 67Q248 90 272 146V148Q272
151 269 152T264 152Q190 67 135 27T36 -14Q15 -14 -6 3ZM168 101T203 131T274 206Q305 244 323 273T341 315Q341 324 319 342Q308 350 298 355T280 361Q265 361 239 344T190 302Q163 274 143 226T122 137Q122 120 130 111T152 101Q168 101 203 131ZM301 480T275
498T249 546Q249 582 268 613T321 662T395 680Q431 680 457 662T483 613Q483 577 464 547T412 498T337 480Q301 480 275 498ZM368 518T383 532T407 565T416 601Q416 618 407 628T380 638Q355 638 335 611T315 558Q315 540 324 529T352 518Q368 518 383 532Z" />
<glyph unicode="&#xe6;" glyph-name="ae" horiz-adv-x="575" d="M366 227Q359 227 359 218Q359 211 357 200T355 182Q355 147 376 120T427 93Q472 93 511 145Q522 157 527 157Q535 157 535 146Q535 137 532 131Q504 68 457 27T347 -15Q322 -15 295 0T247 44T223
108Q162 41 121 14T35 -14Q15 -14 -5 1T-25 39Q-25 111 37 192T194 335Q255 374 308 397T412 427Q441 437 473 437Q525 437 551 416T577 359Q577 319 547 289T473 242T389 225Q381 225 367 227H366ZM477 399T456 399Q405 399 369 268Q368 262 375 262Q390 262 413
274T456 310T477 368Q477 399 456 399ZM230 216T250 264T301 350Q258 340 210 306Q172 279 146 233T119 147Q119 101 146 101Q167 101 224 163Q230 216 250 264Z" />
<glyph unicode="&#xe7;" glyph-name="ccedilla" horiz-adv-x="378" d="M115 -14T82 5T30 56T10 125Q10 210 47 281T147 395T283 437Q323 437 349 419T376 371Q376 351 362 332T333 313Q325 313 319 319T301 345Q290 365 277 378T252 391Q225 391 200 362T159 286T143
188Q143 151 163 130T218 108Q244 108 268 120T309 155Q313 160 318 163T328 167Q332 167 335 164T338 156Q338 119 310 79T238 13T155 -14Q115 -14 82 5ZM28 -281T7 -271T-28 -246T-41 -215Q-41 -196 -33 -186T-10 -176Q4 -176 16 -183T45 -203Q51 -208 60 -216T76
-227T91 -231Q100 -231 104 -226T109 -212Q109 -203 104 -196T91 -182T77 -169Q40 -134 40 -113Q40 -90 81 -51T170 17H211Q175 -8 161 -25T147 -57Q147 -65 154 -73T169 -90T180 -100Q212 -129 212 -150Q212 -171 186 -202T122 -257T52 -281Q28 -281 7 -271Z"
/>
<glyph unicode="&#xe8;" glyph-name="egrave" horiz-adv-x="389" d="M113 -15T81 2T27 48T5 111Q5 194 45 269T148 391T276 437Q335 437 364 415T394 359Q394 298 327 265T157 210Q150 209 148 201Q146 195 146 191T145 183Q144 145 165 119T226 93Q251 93 274
106T322 145Q333 157 339 157Q348 157 348 146Q348 135 345 131Q312 67 262 26T142 -15Q113 -15 81 2ZM220 264T252 289T288 366Q289 378 282 388T260 399Q226 399 197 357T157 254V252Q157 246 164 248Q220 264 252 289ZM296 469T279 486L168 609Q145 634 145
650Q145 664 168 683T208 702Q220 702 229 694T247 665L320 503Q324 495 324 485Q324 469 310 469Q296 469 279 486Z" />
<glyph unicode="&#xe9;" glyph-name="eacute" horiz-adv-x="389" d="M113 -15T81 2T27 48T5 111Q5 194 45 269T148 391T276 437Q335 437 364 415T394 359Q394 298 327 265T157 210Q150 209 148 201Q146 195 146 191T145 183Q144 145 165 119T226 93Q251 93 274
106T322 145Q333 157 339 157Q348 157 348 146Q348 135 345 131Q312 67 262 26T142 -15Q113 -15 81 2ZM220 264T252 289T288 366Q289 378 282 388T260 399Q226 399 197 357T157 254V252Q157 246 164 248Q220 264 252 289ZM268 469T268 485Q268 495 272 503L345
665Q354 685 363 693T384 702Q401 702 424 683T447 650Q447 634 424 609L313 486Q296 469 282 469Q268 469 268 485Z" />
<glyph unicode="&#xea;" glyph-name="ecircumflex" horiz-adv-x="389" d="M113 -15T81 2T27 48T5 111Q5 194 45 269T148 391T276 437Q335 437 364 415T394 359Q394 298 327 265T157 210Q150 209 148 201Q146 195 146 191T145 183Q144 145 165 119T226 93Q251 93
274 106T322 145Q333 157 339 157Q348 157 348 146Q348 135 345 131Q312 67 262 26T142 -15Q113 -15 81 2ZM220 264T252 289T288 366Q289 378 282 388T260 399Q226 399 197 357T157 254V252Q157 246 164 248Q220 264 252 289ZM374 698T379 689T391 655L406 605Q423
546 428 522Q430 512 430 507Q430 494 424 486T406 477Q390 477 374 512Q359 544 336 579Q333 583 331 583Q328 583 324 579Q282 543 264 529L243 511Q203 477 190 477Q185 477 182 480T179 490Q179 504 194 522Q237 572 283 623L313 657Q332 679 343 688T365 698Q374
698 379 689Z" />
<glyph unicode="&#xeb;" glyph-name="edieresis" horiz-adv-x="389" d="M113 -15T81 2T27 48T5 111Q5 194 45 269T148 391T276 437Q335 437 364 415T394 359Q394 298 327 265T157 210Q150 209 148 201Q146 195 146 191T145 183Q144 145 165 119T226 93Q251 93
274 106T322 145Q333 157 339 157Q348 157 348 146Q348 135 345 131Q312 67 262 26T142 -15Q113 -15 81 2ZM220 264T252 289T288 366Q289 378 282 388T260 399Q226 399 197 357T157 254V252Q157 246 164 248Q220 264 252 289ZM171 490T156 506T141 548Q141 587
172 615T244 643Q272 643 287 628T303 586Q303 547 272 519T196 490Q171 490 156 506ZM375 490T360 506T345 548Q345 587 376 615T448 643Q476 643 491 628T507 586Q507 547 476 519T400 490Q375 490 360 506Z" />
<glyph unicode="&#xec;" glyph-name="igrave" horiz-adv-x="340" d="M65 -14T45 5T25 44Q25 56 30 67L104 242L129 304Q131 309 125 309Q116 309 103 303T81 291T65 281Q57 276 50 276Q38 276 38 290Q38 303 74 334T156 395T226 434Q234 436 239 436Q258 436 275
423T292 393L290 385L180 111Q178 107 178 99Q178 92 183 92Q193 92 228 115T283 159Q286 162 287 162Q293 162 297 157T301 146Q301 122 264 84T177 16T90 -14Q65 -14 45 5ZM265 722T248 739L137 862Q114 887 114 903Q114 917 137 936T177 955Q189 955 198 947T216
918L289 756Q293 748 293 738Q293 722 279 722Q265 722 248 739Z" />
<glyph unicode="&#xed;" glyph-name="iacute" horiz-adv-x="340" d="M65 -14T45 5T25 44Q25 56 30 67L104 242L129 304Q131 309 125 309Q116 309 103 303T81 291T65 281Q57 276 50 276Q38 276 38 290Q38 303 74 334T156 395T226 434Q234 436 239 436Q258 436 275
423T292 393L290 385L180 111Q178 107 178 99Q178 92 183 92Q193 92 228 115T283 159Q286 162 287 162Q293 162 297 157T301 146Q301 122 264 84T177 16T90 -14Q65 -14 45 5ZM237 466T237 482Q237 492 241 500L314 662Q323 682 332 690T353 699Q370 699 393 680T416
647Q416 631 393 606L282 483Q265 466 251 466Q237 466 237 482Z" />
<glyph unicode="&#xee;" glyph-name="icircumflex" horiz-adv-x="340" d="M65 -14T45 5T25 44Q25 56 30 67L104 242L129 304Q131 309 125 309Q116 309 103 303T81 291T65 281Q57 276 50 276Q38 276 38 290Q38 303 74 334T156 395T226 434Q234 436 239 436Q258
436 275 423T292 393L290 385L180 111Q178 107 178 99Q178 92 183 92Q193 92 228 115T283 159Q286 162 287 162Q293 162 297 157T301 146Q301 122 264 84T177 16T90 -14Q65 -14 45 5ZM343 951T348 942T360 908L375 858Q392 799 397 775Q399 765 399 760Q399 747
393 739T375 730Q359 730 343 765Q328 797 305 832Q302 836 300 836Q297 836 293 832Q251 796 233 782L212 764Q172 730 159 730Q154 730 151 733T148 743Q148 757 163 775Q206 825 252 876L282 910Q301 932 312 941T334 951Q343 951 348 942Z" />
<glyph unicode="&#xef;" glyph-name="idieresis" horiz-adv-x="340" d="M65 -14T45 5T25 44Q25 56 30 67L104 242L129 304Q131 309 125 309Q116 309 103 303T81 291T65 281Q57 276 50 276Q38 276 38 290Q38 303 74 334T156 395T226 434Q234 436 239 436Q258 436
275 423T292 393L290 385L180 111Q178 107 178 99Q178 92 183 92Q193 92 228 115T283 159Q286 162 287 162Q293 162 297 157T301 146Q301 122 264 84T177 16T90 -14Q65 -14 45 5ZM140 487T125 503T110 545Q110 584 141 612T213 640Q241 640 256 625T272 583Q272
544 241 516T165 487Q140 487 125 503ZM344 487T329 503T314 545Q314 584 345 612T417 640Q445 640 460 625T476 583Q476 544 445 516T369 487Q344 487 329 503Z" />
<glyph unicode="&#xf0;" glyph-name="eth" horiz-adv-x="456" d="M95 -14T64 4T16 55T2 124Q8 194 44 267T142 388T285 437Q296 437 312 433Q324 429 328 429Q333 429 336 445T339 477Q339 508 333 529L226 473Q220 470 215 470Q208 470 203 475T199 487Q203 529
223 540L322 591Q312 623 296 640T255 663Q239 667 232 671T224 683Q224 705 263 705Q316 705 357 687T426 634L521 682Q523 684 531 684Q539 684 544 681T550 671Q550 630 523 617L457 583Q479 526 479 464Q479 359 430 247T301 60T132 -14Q95 -14 64 4ZM185 27T222
84T289 220T323 360Q328 399 295 399Q269 399 231 342T162 205T126 67Q124 47 132 37T155 27Q185 27 222 84Z" />
<glyph unicode="&#xf1;" glyph-name="ntilde" horiz-adv-x="614" d="M117 -14T100 -5T70 21T57 57Q57 69 61 78L159 322Q161 330 161 332Q161 343 145 343Q93 343 65 310Q60 305 54 305Q50 305 47 307T43 316Q43 326 57 347T85 380Q149 437 233 437Q262 437 278
420T294 376Q294 357 287 342L237 219L236 216Q236 214 238 213T244 211Q252 211 257 217Q317 325 367 381T477 437Q518 437 537 414T557 355Q557 324 544 295L472 127Q467 116 467 107Q467 98 476 98Q485 98 509 115T546 145Q564 163 569 163Q572 163 575 159T579
150Q579 128 564 110Q519 56 456 21T341 -14Q322 -14 305 0T287 32Q287 36 289 42Q319 108 341 153Q397 267 423 338Q427 347 427 356Q427 367 415 367Q401 367 385 348T340 285L320 255Q305 233 267 170T201 58Q181 24 164 5T128 -14Q117 -14 100 -5ZM256 467T247
475T237 487Q237 494 257 523T301 577T332 603Q341 603 359 600T404 595Q466 591 474 591Q492 591 509 611Q514 617 521 626T532 636Q537 636 546 628T555 616Q555 612 547 601T534 583Q519 561 509 543L491 516Q482 502 460 502Q450 502 386 506Q331 511 307 511Q296
511 288 500Q277 485 270 476T260 467Q256 467 247 475Z" />
<glyph unicode="&#xf2;" glyph-name="ograve" horiz-adv-x="475" d="M124 -14T88 4T30 56T8 134Q8 198 45 269T151 388T310 437Q381 437 424 398T467 289Q467 225 430 154T324 35T165 -14Q124 -14 88 4ZM214 27T247 84T302 220T324 360Q324 399 292 399Q267 399
234 342T176 205T152 67Q152 47 161 37T185 27Q214 27 247 84ZM333 469T316 486L205 609Q182 634 182 650Q182 664 205 683T245 702Q257 702 266 694T284 665L357 503Q361 495 361 485Q361 469 347 469Q333 469 316 486Z" />
<glyph unicode="&#xf3;" glyph-name="oacute" horiz-adv-x="475" d="M124 -14T88 4T30 56T8 134Q8 198 45 269T151 388T310 437Q381 437 424 398T467 289Q467 225 430 154T324 35T165 -14Q124 -14 88 4ZM214 27T247 84T302 220T324 360Q324 399 292 399Q267 399
234 342T176 205T152 67Q152 47 161 37T185 27Q214 27 247 84ZM305 469T305 485Q305 495 309 503L382 665Q391 685 400 693T421 702Q438 702 461 683T484 650Q484 634 461 609L350 486Q333 469 319 469Q305 469 305 485Z" />
<glyph unicode="&#xf4;" glyph-name="ocircumflex" horiz-adv-x="475" d="M124 -14T88 4T30 56T8 134Q8 198 45 269T151 388T310 437Q381 437 424 398T467 289Q467 225 430 154T324 35T165 -14Q124 -14 88 4ZM214 27T247 84T302 220T324 360Q324 399 292 399Q267
399 234 342T176 205T152 67Q152 47 161 37T185 27Q214 27 247 84ZM411 698T416 689T428 655L443 605Q460 546 465 522Q467 512 467 507Q467 494 461 486T443 477Q427 477 411 512Q396 544 373 579Q370 583 368 583Q365 583 361 579Q319 543 301 529L280 511Q240
477 227 477Q222 477 219 480T216 490Q216 504 231 522Q274 572 320 623L350 657Q369 679 380 688T402 698Q411 698 416 689Z" />
<glyph unicode="&#xf5;" glyph-name="otilde" horiz-adv-x="475" d="M124 -14T88 4T30 56T8 134Q8 198 45 269T151 388T310 437Q381 437 424 398T467 289Q467 225 430 154T324 35T165 -14Q124 -14 88 4ZM214 27T247 84T302 220T324 360Q324 399 292 399Q267 399
234 342T176 205T152 67Q152 47 161 37T185 27Q214 27 247 84ZM200 467T191 475T181 487Q181 494 201 523T245 577T276 603Q285 603 303 600T348 595Q410 591 418 591Q436 591 453 611Q458 617 465 626T476 636Q481 636 490 628T499 616Q499 612 491 601T478 583Q463
561 453 543L435 516Q426 502 404 502Q394 502 330 506Q275 511 251 511Q240 511 232 500Q221 485 214 476T204 467Q200 467 191 475Z" />
<glyph unicode="&#xf6;" glyph-name="odieresis" horiz-adv-x="475" d="M124 -14T88 4T30 56T8 134Q8 198 45 269T151 388T310 437Q381 437 424 398T467 289Q467 225 430 154T324 35T165 -14Q124 -14 88 4ZM214 27T247 84T302 220T324 360Q324 399 292 399Q267
399 234 342T176 205T152 67Q152 47 161 37T185 27Q214 27 247 84ZM208 490T193 506T178 548Q178 587 209 615T281 643Q309 643 324 628T340 586Q340 547 309 519T233 490Q208 490 193 506ZM412 490T397 506T382 548Q382 587 413 615T485 643Q513 643 528 628T544
586Q544 547 513 519T437 490Q412 490 397 506Z" />
<glyph unicode="&#xf7;" glyph-name="divide" horiz-adv-x="597" d="M296 349T274 370T252 422Q252 454 274 476T326 498Q358 498 380 476T402 422Q402 392 380 371T326 349Q296 349 274 370ZM63 259T57 263T51 272Q51 285 59 301T84 317H567Q578 317 585 313T593
302Q593 288 582 274T556 259H70Q63 259 57 263ZM297 64T275 85T253 137Q253 169 275 191T327 213Q359 213 381 191T403 137Q403 107 381 86T327 64Q297 64 275 85Z" />
<glyph unicode="&#xf8;" glyph-name="oslash" horiz-adv-x="445" d="M477 437T481 431T485 411Q485 402 481 392T468 375L452 361Q467 331 467 289Q467 225 430 154T324 35T165 -14Q134 -14 106 -4T55 27L19 -4Q7 -14 -5 -14Q-18 -14 -29 -7T-39 11Q-36 34 -23
44L19 78Q8 105 8 134Q8 198 45 269T151 388T310 437Q375 437 416 405L445 429Q457 437 466 437Q477 437 481 431ZM267 399T234 342T177 207L323 339Q324 346 324 360Q324 399 292 399Q267 399 234 342ZM217 27T253 95T309 249L154 105Q152 79 152 67Q152 47 161
37T185 27Q217 27 253 95Z" />
<glyph unicode="&#xf9;" glyph-name="ugrave" horiz-adv-x="615" d="M97 -14T76 13T54 72Q54 84 59 96L150 299Q155 309 155 318Q155 328 146 328Q137 328 108 309T67 278Q52 263 42 263Q34 263 34 273Q34 290 53 313Q101 370 152 403T253 437Q273 437 292 414T311
368Q311 361 308 353Q287 305 246 220Q216 159 201 125Q196 115 196 105Q196 92 208 92Q219 92 241 119T307 207Q314 218 330 240Q356 276 391 333L412 366Q437 407 450 422T480 437Q507 437 527 418T548 377Q548 372 546 364L453 113Q451 105 451 102Q451 94 456
94Q466 94 503 120T561 166Q564 169 565 169Q571 169 575 164T579 153Q579 129 537 89T441 18T354 -14Q335 -14 319 5T303 44Q303 51 310 67Q345 145 369 204L370 208Q370 212 366 212Q362 212 357 206Q294 111 235 49T124 -14Q97 -14 76 13ZM411 469T394 486L283
609Q260 634 260 650Q260 664 283 683T323 702Q335 702 344 694T362 665L435 503Q439 495 439 485Q439 469 425 469Q411 469 394 486Z" />
<glyph unicode="&#xfa;" glyph-name="uacute" horiz-adv-x="615" d="M97 -14T76 13T54 72Q54 84 59 96L150 299Q155 309 155 318Q155 328 146 328Q137 328 108 309T67 278Q52 263 42 263Q34 263 34 273Q34 290 53 313Q101 370 152 403T253 437Q273 437 292 414T311
368Q311 361 308 353Q287 305 246 220Q216 159 201 125Q196 115 196 105Q196 92 208 92Q219 92 241 119T307 207Q314 218 330 240Q356 276 391 333L412 366Q437 407 450 422T480 437Q507 437 527 418T548 377Q548 372 546 364L453 113Q451 105 451 102Q451 94 456
94Q466 94 503 120T561 166Q564 169 565 169Q571 169 575 164T579 153Q579 129 537 89T441 18T354 -14Q335 -14 319 5T303 44Q303 51 310 67Q345 145 369 204L370 208Q370 212 366 212Q362 212 357 206Q294 111 235 49T124 -14Q97 -14 76 13ZM383 469T383 485Q383
495 387 503L460 665Q469 685 478 693T499 702Q516 702 539 683T562 650Q562 634 539 609L428 486Q411 469 397 469Q383 469 383 485Z" />
<glyph unicode="&#xfb;" glyph-name="ucircumflex" horiz-adv-x="615" d="M97 -14T76 13T54 72Q54 84 59 96L150 299Q155 309 155 318Q155 328 146 328Q137 328 108 309T67 278Q52 263 42 263Q34 263 34 273Q34 290 53 313Q101 370 152 403T253 437Q273 437 292
414T311 368Q311 361 308 353Q287 305 246 220Q216 159 201 125Q196 115 196 105Q196 92 208 92Q219 92 241 119T307 207Q314 218 330 240Q356 276 391 333L412 366Q437 407 450 422T480 437Q507 437 527 418T548 377Q548 372 546 364L453 113Q451 105 451 102Q451
94 456 94Q466 94 503 120T561 166Q564 169 565 169Q571 169 575 164T579 153Q579 129 537 89T441 18T354 -14Q335 -14 319 5T303 44Q303 51 310 67Q345 145 369 204L370 208Q370 212 366 212Q362 212 357 206Q294 111 235 49T124 -14Q97 -14 76 13ZM489 698T494
689T506 655L521 605Q538 546 543 522Q545 512 545 507Q545 494 539 486T521 477Q505 477 489 512Q474 544 451 579Q448 583 446 583Q443 583 439 579Q397 543 379 529L358 511Q318 477 305 477Q300 477 297 480T294 490Q294 504 309 522Q352 572 398 623L428 657Q447
679 458 688T480 698Q489 698 494 689Z" />
<glyph unicode="&#xfc;" glyph-name="udieresis" horiz-adv-x="615" d="M97 -14T76 13T54 72Q54 84 59 96L150 299Q155 309 155 318Q155 328 146 328Q137 328 108 309T67 278Q52 263 42 263Q34 263 34 273Q34 290 53 313Q101 370 152 403T253 437Q273 437 292
414T311 368Q311 361 308 353Q287 305 246 220Q216 159 201 125Q196 115 196 105Q196 92 208 92Q219 92 241 119T307 207Q314 218 330 240Q356 276 391 333L412 366Q437 407 450 422T480 437Q507 437 527 418T548 377Q548 372 546 364L453 113Q451 105 451 102Q451
94 456 94Q466 94 503 120T561 166Q564 169 565 169Q571 169 575 164T579 153Q579 129 537 89T441 18T354 -14Q335 -14 319 5T303 44Q303 51 310 67Q345 145 369 204L370 208Q370 212 366 212Q362 212 357 206Q294 111 235 49T124 -14Q97 -14 76 13ZM286 490T271
506T256 548Q256 587 287 615T359 643Q387 643 402 628T418 586Q418 547 387 519T311 490Q286 490 271 506ZM490 490T475 506T460 548Q460 587 491 615T563 643Q591 643 606 628T622 586Q622 547 591 519T515 490Q490 490 475 506Z" />
<glyph unicode="&#xfd;" glyph-name="yacute" horiz-adv-x="499" d="M-78 -289T-102 -271T-126 -221Q-126 -193 -106 -168T-61 -142Q-44 -142 -12 -166Q5 -178 18 -184T49 -191Q77 -191 104 -165T151 -93Q187 -11 187 115Q187 194 179 245T158 320T134 344Q123
344 108 322T81 276Q71 255 62 255Q59 255 56 262T53 283Q53 319 77 357T136 419T202 444Q231 444 249 425T281 365Q311 265 311 137Q311 103 310 84V80Q310 67 314 67Q319 67 325 81Q355 138 367 207T379 373V417Q379 426 392 435T416 444Q426 444 443 434T474
408T487 374Q487 282 409 146T199 -130Q135 -199 68 -244T-46 -289Q-78 -289 -102 -271ZM284 469T284 485Q284 495 288 503L361 665Q370 685 379 693T400 702Q417 702 440 683T463 650Q463 634 440 609L329 486Q312 469 298 469Q284 469 284 485Z" />
<glyph unicode="&#xfe;" glyph-name="thorn" horiz-adv-x="548" d="M496 437T521 413T546 346Q546 255 494 172T358 38T181 -14Q159 -14 131 -7L76 -203Q75 -206 75 -213Q75 -228 88 -235T134 -255Q144 -258 144 -266Q144 -274 140 -279T127 -284Q107 -284 57
-282L-6 -281Q-21 -281 -65 -283Q-111 -285 -131 -285Q-136 -285 -138 -282T-140 -273Q-139 -260 -120 -255Q-84 -245 -71 -236T-50 -204L188 531Q201 568 201 592Q201 604 192 610T165 624Q155 628 150 631T145 640Q145 647 150 651T174 662Q210 674 268 690T342
707Q354 707 362 705T370 693Q370 682 367 671T360 650Q347 610 302 482Q249 340 227 263Q226 260 226 258T227 255Q230 255 233 261Q288 350 347 393T460 437Q496 437 521 413ZM349 164T376 226T404 322Q404 350 381 350Q352 350 304 298T218 181T179 85Q179 64
194 46T226 27Q242 27 270 53T321 117Q349 164 376 226Z" />
<glyph unicode="&#xff;" glyph-name="ydieresis" horiz-adv-x="499" d="M-78 -289T-102 -271T-126 -221Q-126 -193 -106 -168T-61 -142Q-44 -142 -12 -166Q5 -178 18 -184T49 -191Q77 -191 104 -165T151 -93Q187 -11 187 115Q187 194 179 245T158 320T134 344Q123
344 108 322T81 276Q71 255 62 255Q59 255 56 262T53 283Q53 319 77 357T136 419T202 444Q231 444 249 425T281 365Q311 265 311 137Q311 103 310 84V80Q310 67 314 67Q319 67 325 81Q355 138 367 207T379 373V417Q379 426 392 435T416 444Q426 444 443 434T474
408T487 374Q487 282 409 146T199 -130Q135 -199 68 -244T-46 -289Q-78 -289 -102 -271ZM187 490T172 506T157 548Q157 587 188 615T260 643Q288 643 303 628T319 586Q319 547 288 519T212 490Q187 490 172 506ZM391 490T376 506T361 548Q361 587 392 615T464 643Q492
643 507 628T523 586Q523 547 492 519T416 490Q391 490 376 506Z" />
<glyph unicode="&#x2013;" glyph-name="endash" horiz-adv-x="650" d="M36 181T32 185T30 195Q35 209 47 225T73 242H600Q610 242 615 238T619 226Q615 212 600 197T572 181H43Q36 181 32 185Z" />
<glyph unicode="&#x2014;" glyph-name="emdash" horiz-adv-x="962" d="M21 181T17 185T15 195Q20 209 32 225T58 242H927Q937 242 942 238T946 226Q942 212 927 197T899 181H28Q21 181 17 185Z" />
<glyph unicode="&#x2018;" glyph-name="quoteleft" horiz-adv-x="280" d="M373 691T379 686T382 672Q376 655 352 652Q311 647 279 620T247 561Q247 538 277 529Q289 525 297 515T305 490Q305 456 281 431T221 406Q183 406 159 430T134 494Q134 538 166 584T252
661T361 691Q373 691 379 686Z" />
<glyph unicode="&#x2019;" glyph-name="quoteright" horiz-adv-x="280" d="M116 406T110 411T107 425Q113 442 137 445Q178 450 210 477T242 536Q242 559 212 568Q200 572 192 582T184 607Q184 641 208 666T268 691Q306 691 330 667T355 603Q355 559 323 513T237
436T128 406Q116 406 110 411Z" />
<glyph unicode="&#x201a;" glyph-name="quotesinglbase" horiz-adv-x="280" d="M-61 -166T-67 -161T-70 -147Q-64 -130 -40 -127Q1 -122 33 -95T65 -36Q65 -13 35 -4Q23 0 15 10T7 35Q7 69 31 94T91 119Q129 119 153 95T178 31Q178 -13 146 -59T60 -136T-49 -166Q-61
-166 -67 -161Z" />
<glyph unicode="&#x201c;" glyph-name="quotedblleft" horiz-adv-x="488" d="M581 692T587 687T590 673Q584 656 560 653Q519 648 487 621T455 562Q455 539 485 530Q497 526 505 516T513 491Q513 457 489 432T429 407Q391 407 367 431T342 495Q342 539 374 585T460
662T569 692Q581 692 587 687ZM373 692T379 687T382 673Q376 656 352 653Q311 648 279 621T247 562Q247 539 277 530Q289 526 297 516T305 491Q305 457 281 432T221 407Q183 407 159 431T134 495Q134 539 166 585T252 662T361 692Q373 692 379 687Z" />
<glyph unicode="&#x201d;" glyph-name="quotedblright" horiz-adv-x="488" d="M116 407T110 412T107 426Q113 443 137 446Q178 451 210 478T242 537Q242 560 212 569Q200 573 192 583T184 608Q184 642 208 667T268 692Q306 692 330 668T355 604Q355 560 323 514T237
437T128 407Q116 407 110 412ZM324 407T318 412T315 426Q321 443 345 446Q386 451 418 478T450 537Q450 560 420 569Q408 573 400 583T392 608Q392 642 416 667T476 692Q514 692 538 668T563 604Q563 560 531 514T445 437T336 407Q324 407 318 412Z" />
<glyph unicode="&#x201e;" glyph-name="quotedblbase" horiz-adv-x="488" d="M-61 -166T-67 -161T-70 -147Q-64 -130 -40 -127Q1 -122 33 -95T65 -36Q65 -13 35 -4Q23 0 15 10T7 35Q7 69 31 94T91 119Q129 119 153 95T178 31Q178 -13 146 -59T60 -136T-49 -166Q-61
-166 -67 -161ZM147 -166T141 -161T138 -147Q144 -130 168 -127Q209 -122 241 -95T273 -36Q273 -13 243 -4Q231 0 223 10T215 35Q215 69 239 94T299 119Q337 119 361 95T386 31Q386 -13 354 -59T268 -136T159 -166Q147 -166 141 -161Z" />
<glyph unicode="&#x2022;" glyph-name="bullet" horiz-adv-x="380" d="M165 200T138 217T94 261T77 321Q77 369 102 412T170 482T261 508Q300 508 329 489T374 439T389 376Q389 330 363 290T293 225T198 200Q165 200 138 217Z" />
<glyph unicode="&#x2039;" glyph-name="guilsinglleft" horiz-adv-x="411" d="M270 15T262 25T253 36Q210 87 174 116T73 187Q69 189 61 194T50 203T47 210Q47 216 55 222T72 231Q159 269 218 306T378 414Q380 415 386 420T401 425Q412 425 412 417Q412 410 401
395Q351 338 308 304T208 232Q206 230 189 219Q179 213 179 210Q179 209 185 203Q219 166 244 131T293 43Q295 37 295 34Q295 26 291 21T283 15Q270 15 262 25Z" />
<glyph unicode="&#x203a;" glyph-name="guilsinglright" horiz-adv-x="411" d="M146 425T154 415T163 404Q206 353 242 324T343 253Q347 251 355 246T366 237T369 230Q369 224 361 218T344 209Q257 171 198 134T38 26Q36 25 30 20T15 15Q4 15 4 23Q4 30 15 45Q65
102 108 136T208 208Q210 210 227 221Q237 227 237 230Q237 231 231 237Q197 274 172 309T123 397Q121 403 121 406Q121 414 125 419T133 425Q146 425 154 415Z" />
</font>
</defs>
</svg>
